<svg xmlns="http://www.w3.org/2000/svg" viewBox="0 0 308.65 422.28"><defs><style>.cls-1{isolation:isolate;}.cls-2{fill:#69441a;}.cls-3{fill:#7f4b1e;mix-blend-mode:multiply;opacity:0.36;}.cls-4{fill:#010101;}.cls-5{fill:#d2d2d2;}.cls-6{fill:#9e9e9e;}.cls-7{fill:#fff;}.cls-8{fill:#ccc;opacity:0.5;}.cls-9{fill:#c2882b;}.cls-10{fill:#a86a28;}.cls-11{fill:#63acae;}.cls-12{fill:#307d7d;}.cls-13{fill:#053a59;}</style></defs><g class="cls-1"><g id="Layer_1" data-name="Layer 1"><g id="skin"><path class="cls-2" d="M150.76,178.61c-.45-1.49-9.52-31.63-3.13-55.57a48.08,48.08,0,0,1,3-8.26,61.85,61.85,0,0,0-10.06,12.8c-.46.76-.91,1.55-1.35,2.36A84.87,84.87,0,0,0,131.93,148c-.16.56-.31,1.12-.46,1.69s-.31,1.17-.45,1.77-.35,1.49-.52,2.25-.32,1.48-.47,2.24c-.2,1-.38,1.94-.55,2.94-.1.52-.18,1-.26,1.58-.17,1.07-.32,2.15-.47,3.26l-.21,1.67c-.07.56-.13,1.13-.19,1.7s-.12,1.16-.17,1.74-.1,1.08-.14,1.63c-.09,1.09-.16,2.21-.23,3.34,0,.56-.06,1.14-.08,1.71-.18,4-.21,8.17-.07,12.6v.11a3.87,3.87,0,0,1,0,.48,3.19,3.19,0,0,1-1.87,2.57,6.1,6.1,0,0,1-4.33.16l0-.1-.09-.33S105,177.85,97.55,186.27c0,0-8.63,12.95,9.5,32.58,0,0,10.86,18.1,18.59,5.57,0,.09.1.18.16.27.24.39.47.78.71,1.16l.56.91a4.78,4.78,0,0,0,.26.42L128.5,229q.75,1.17,1.5,2.31,1.23,1.89,2.49,3.69c.49.72,1,1.42,1.49,2.12s1,1.38,1.49,2.06,1,1.35,1.5,2q1.5,2,3,3.86c.5.62,1,1.24,1.51,1.85,2.51,3,5,5.84,7.56,8.46a.14.14,0,0,1,0-.06c.15-.32.29-.65.42-1C160,229.22,156.08,199.46,150.76,178.61Zm-32.18,48a4.43,4.43,0,1,1,4.42-4.42A4.42,4.42,0,0,1,118.58,226.61Z"/><path class="cls-2" d="M120.11,304.74l0-.13c10.4-3,14.34-5.44,15.74-6.59a3.71,3.71,0,0,0,.7-.7,16.14,16.14,0,0,0,2.26-3c4.36-6.7,12.16-22.46,14.39-34.84l.05,0s0-.05,0-.08c-.39-.37-.77-.74-1.16-1.13.19-.34.37-.68.55-1,.34-.64.68-1.29,1-1.95a1.24,1.24,0,0,0,.1-.2c.29-.59.58-1.19.85-1.79s.52-1.15.77-1.74.6-1.42.89-2.15c.22-.56.44-1.13.64-1.7s.35-.92.5-1.39c.47-1.33.91-2.69,1.31-4.07.17-.56.33-1.13.48-1.7,0-.11.06-.22.1-.33.17-.66.34-1.31.5-2a.65.65,0,0,1,0-.13c.34-1.41.65-2.84.93-4.3.08-.4.16-.8.22-1.2.11-.57.21-1.14.31-1.72.12-.75.24-1.51.35-2.28l0-.24c.11-.77.21-1.55.3-2.33s.19-1.57.26-2.36l0-.32q.12-1.2.21-2.43a135.77,135.77,0,0,0-2.32-36.38c-3.2-14.84-4.44-27.21-4.31-37.51,0-.26,0-.51,0-.76l0-1.41c.41-13.18,3.09-22.84,6.7-29.9a40.38,40.38,0,0,1,7.56-10.51c34.52-8.8,65,12.49,66.92,13.85h0l.07,0,.43.32.21-.08.3-.11c14.06-5.08,24.69-3.37,24.8-3.35l.13,0c8.66.28,14,8.94,14.34,9.46,3.17,6.38,4.28,17.61,4.61,22.12a15.52,15.52,0,0,0-7.24-3.18c-8.64-1.67-19.36,1.1-20,1.29l-.22.08a2.51,2.51,0,0,0-1.27,1.54,4,4,0,0,0,.46,2.79l.43.73.79-.3c.14,0,11.52-4.3,20-3.06a14.24,14.24,0,0,1,4,1.15,8.38,8.38,0,0,1,3.3,2.68l0,.67v.09l.26-.31a6.8,6.8,0,0,1,.53,1,.42.42,0,0,1,0,.1q-.66,2.8-1.5,5.73c0,.07-.29,1-.65,2.56h-.05a22.06,22.06,0,0,0-6.25-.38c-15.11,1.15-27.88,16.54-30.69,20.17-.14.17-.25.32-.33.43l-.13.17c-.27.31-.51.63-.76.95l0,.05a0,0,0,0,1,0,0c.47,1,6.38,13.43,24.84,13.76a19.25,19.25,0,0,0,2.13-.19,25.88,25.88,0,0,0,10.81-4l0,0c.08.37.16.74.25,1.11a.43.43,0,0,1,0,.11s0,0,0,.05a193.68,193.68,0,0,1-7.58,26.71.56.56,0,0,1,0,.12Q270,228,265.81,237.26S244.66,287.32,217.3,289c0,0-13.7,1-32.61-7.68-3.27,7.11-6.32,17.4-.36,23.28a27.61,27.61,0,0,0,3.08,2.59c.52.39,1.07.77,1.65,1.15l0,0c1.52,1,3.2,2,5,2.94a.89.89,0,0,0-.08.17,1.43,1.43,0,0,0,0,.22c-.23,2.61-.55,5.06-.94,7.35-5.63,32.47-27,33.66-27.94,33.69C127.55,353.42,120.18,305.22,120.11,304.74Z"/><path class="cls-2" d="M295.5,421.06h-.16l-14.4,0-26.45,0h-5.31l-176.35.26H66.2l-65.75.1c1.32-56.8,14.09-78.38,14.09-78.38,3.9-10.22,11.73-16.75,19.48-20.9h0a65.29,65.29,0,0,1,21-6.83c7.21-.75,13.78-1.52,19.77-2.29h0l2.8-.38,1.59-.21,1.11-.16.43-.06h.09q3.69-.52,7.06-1.05l.16,0h0a282.26,282.26,0,0,0,30-6.05c.43,2.71,8.34,48.94,45.37,49.55a6.21,6.21,0,0,1,2.94-.4,4.89,4.89,0,0,1,.78.15,28.77,28.77,0,0,0,12.08-5.51c9.33-7.12,13.63-18.57,15.55-28.92.5-2.62.83-5.17,1-7.56a1.8,1.8,0,0,0,0-.22c9.61,4.84,22.27,9.15,33.2,12.41,13.05,3.89,23.64,6.28,23.64,6.28,9.83,2.88,17.65,6.6,23.69,11.7h0c9.07,7.63,14.14,18.38,16,34.08l.09.79c.09.71.16,1.43.23,2.17.16,1.74.32,3.49.46,5.24v.1C294.83,403.12,295.5,421.06,295.5,421.06Z"/></g><g id="skin_shading"><path class="cls-3" d="M189.1,308.33a42.08,42.08,0,0,0,4.93,3.11,1.43,1.43,0,0,0,0,.22c-.23,2.61-.55,5.06-.94,7.35-6.36-3.56-11.73-7.4-14-11,0,0-5.71-7.55-7.91-15.24-5.1-17.85-6.37-21.33-17.43-33.78a106.71,106.71,0,0,0,30.78,22.31s-10.18,18.61,2.9,25.83c.24.14.48.27.73.39a9.7,9.7,0,0,0,.92.76Z"/><path class="cls-3" d="M227.29,332.73l-.25.19c-.76.55-18.27-5.45-32.17-12.91.5-2.62.83-5.17,1-7.56,6.09,3.15,16.42,7.51,33.21,12.21l.06,0S231.58,329.44,227.29,332.73Z"/><path class="cls-3" d="M150.7,114.63l-.07.15a48.08,48.08,0,0,0-3,8.26,70.82,70.82,0,0,0-8.41,6.9l-.12.11c.49-.89,1-1.74,1.47-2.56A61.69,61.69,0,0,1,150.7,114.63Z"/><path class="cls-3" d="M237.32,118.52l-.27-.11h0c-8.92-3.59-43-15.58-74.48-3.34a40.38,40.38,0,0,1,7.56-10.51l.12-.12c35.4-9,66.55,13.69,66.89,13.94Z"/><path class="cls-3" d="M282,147.16l0-.32a15.52,15.52,0,0,0-7.24-3.18c-.78-12.7-4.14-22.88-12.49-24.52-9.68-1.89-22.94.21-22.94.21s-.53-.24-1.51-.65l-.11,0,.41-.15c14.06-5.08,24.69-3.37,24.8-3.35l.13,0c8.66.28,14,8.94,14.34,9.46,3.19,6.43,4.3,17.78,4.62,22.22h0C282,147,282,147.06,282,147.16Z"/><path class="cls-3" d="M280.85,192.84a.43.43,0,0,0,0,.11,196.06,196.06,0,0,1-7.69,26.34.56.56,0,0,1,0,.12q-2.94,8-6.84,16.61s-21.34,49.81-48.71,51.45c0,0,38.53-13.5,50.64-85.28,0,0,.61-2.58,1.46-6.82a25.88,25.88,0,0,0,10.81-4l0,0c.08.37.16.74.25,1.11C280.78,192.56,280.82,192.7,280.85,192.84Z"/><path class="cls-3" d="M283,152c-.43,1.83-.91,3.7-1.46,5.61,0,.06-.32,1.06-.7,2.77a22.06,22.06,0,0,0-6.25-.38c.29-4.5.42-9,.28-13.28a14.24,14.24,0,0,1,4,1.15,8.38,8.38,0,0,1,3.3,2.68,0,0,0,0,1,0,0l0,.43.15-.17a.42.42,0,0,1,.08.12.13.13,0,0,1,0,0A6.8,6.8,0,0,1,283,152Z"/><path class="cls-3" d="M121.34,208.82a5.61,5.61,0,0,1-2.9,3.32,0,0,0,0,1,0,0c-2.67,1.19-5.8-.28-6-.41-4.68-2.63-2.93-6.93-2.93-6.93a6.73,6.73,0,0,1,2.91-3.33,4.34,4.34,0,0,1,1.88-.57,9.62,9.62,0,0,0-6.35-6.52,14.39,14.39,0,0,0-5.17-.8,10.2,10.2,0,0,1,4.19-.75c3.15.05,7.36,1.55,10,8.12a8.07,8.07,0,0,0-2.88,3.16,3.71,3.71,0,0,0,.8,4.11,4.92,4.92,0,0,0,2,.91h0a4.25,4.25,0,0,0,3.64-1.14Z"/></g><g id="nose"><path id="nostril" class="cls-4" d="M225.68,226.66s-.86-3.81,5.73-1.14Z"/><path id="nose-2" data-name="nose" class="cls-4" d="M222.82,219.08s8.55-7.64,15.56-1.63c0,0,5.58,5.34-.23,12.54,0,0,10-8.6.78-15.87C238.93,214.12,231.59,208.84,222.82,219.08Z"/></g><g id="hair"><path class="cls-4" d="M290.32,107A28.37,28.37,0,0,0,278.1,96.59c-16.51-32-55.18-43.43-55.66-43.56-11.11-3-17.08-3.88-29.57-4.63a5.78,5.78,0,0,1-.69,1.42s-46.38-.54-71,30.41a1.27,1.27,0,0,1,.05-.16,11.27,11.27,0,0,1,.64-1.48c.08-.17.18-.36.29-.56,1.33-2.46,4.31-6.77,10.59-11.68.36-.29.73-.57,1.12-.86s.55-.41.83-.6q1.4-1,3-2l1.41-.9s14.27-8.83,29.79-12.65c14.06-3.47,22.4-4.3,22.25-6.59v0h0a1.33,1.33,0,0,0-.23-.6l.12.12c.05,0,.1.11.17.18a.41.41,0,0,0,0-.11c-.83-15.12-9.67-22-11.41-23.21C170.41-3.26,144.31.18,144.11.21c-21.93,1.62-28.69,7.2-30,8.48-20.6,6-31.46,17.32-37,25.77a46.72,46.72,0,0,0-7,16.86c-24.06,20.2-34.77,59.78-39.52,89.49A377.82,377.82,0,0,0,26,201.14c-1.4,37.73,6.48,118,6.56,118.79l-.23,2.28H34c11.23-4,34.78-8.44,39.21-8.85l1.58-.27h0l1.86-.32.94-.06c1.3-.06,3.16-.09,3.9-.16a27.72,27.72,0,0,0,4.2-.67h0c1.13-.29,1.76-.56,2.16-.65l.16,0h0a282.26,282.26,0,0,0,30-6.05l0-.12a1,1,0,0,1,2-.41c10.4-3,14.34-5.44,15.74-6.59,1.05-1.2,2-2.43,3-3.66,4.36-6.7,12.16-22.46,14.39-34.84l.05,0s0-.05,0-.08c-.39-.37-.77-.74-1.16-1.13.19-.34.37-.68.55-1,.34-.64.68-1.29,1-1.95a1.24,1.24,0,0,0,.1-.2c.29-.59.58-1.19.85-1.79s.52-1.15.77-1.74.6-1.42.89-2.15c.22-.56.44-1.13.64-1.7s.35-.92.5-1.39c.47-1.33.91-2.69,1.31-4.07.17-.56.33-1.13.48-1.7,0-.11.06-.22.1-.33.17-.66.34-1.31.5-2a.65.65,0,0,1,0-.13c.33-1.41.65-2.84.93-4.3.08-.4.16-.8.22-1.2.11-.57.21-1.14.31-1.72.12-.75.24-1.51.35-2.28l0-.24c.11-.77.21-1.55.3-2.33s.19-1.57.26-2.36l0-.32q.12-1.2.21-2.43a135.77,135.77,0,0,0-2.32-36.38c-3.2-14.84-4.44-27.21-4.31-37.51l.31.32.34-.32c3.26-3,27.75-24.14,54.14-1.37l.75.65.66-.75a3.92,3.92,0,0,0,.93-2.72,3.3,3.3,0,0,0-1.29-2.28c-.27-.23-26.25-22.8-55.8,4.3.41-13.18,3.09-22.84,6.7-29.9a40.38,40.38,0,0,1,7.56-10.51l.12-.12c35.4-9,66.55,13.69,66.89,13.94l.2.15.33.13.41-.15c14.06-5.08,24.69-3.37,24.8-3.35l.13,0c8.66.28,14,8.94,14.34,9.46,3.19,6.43,4.3,17.78,4.62,22.22h0c0,.1,0,.2,0,.3l0-.32a15.52,15.52,0,0,0-7.24-3.18c-8.64-1.67-19.36,1.1-20,1.29l-.22.08a2.51,2.51,0,0,0-1.27,1.54,4,4,0,0,0,.46,2.79l.43.73.79-.3c.14,0,11.52-4.3,20-3.06a14.24,14.24,0,0,1,4,1.15,8.38,8.38,0,0,1,3.3,2.68,0,0,0,0,1,0,0,2.33,2.33,0,0,1,.17.26.42.42,0,0,1,.08.12.13.13,0,0,1,0,0,6.8,6.8,0,0,1,.53,1,.42.42,0,0,1,0,.1q-.66,2.8-1.5,5.73c0,.07-.29,1-.65,2.56h-.05a22.06,22.06,0,0,0-6.25-.38c-15.11,1.15-27.88,16.54-30.69,20.17-.14.17-.25.32-.33.43l-.13.17-.08.11c.23-.24.45-.48.68-.71a61.84,61.84,0,0,1,9.86-8.44,10.52,10.52,0,0,0-.89,2.91,9.91,9.91,0,0,0,2,7.39,12.06,12.06,0,0,0,8,4.54,14,14,0,0,0,1.7.11,12,12,0,0,0,7-2.22,9.8,9.8,0,0,0,2.16-14.13l-.15-.19a11.62,11.62,0,0,0-4-3.19,12.16,12.16,0,0,0-3.38-1.09,34,34,0,0,1,8-1.25,32.66,32.66,0,0,1,5.75.28h0a31.36,31.36,0,0,1,3.93.82,25.57,25.57,0,0,1,3.05,1,20,20,0,0,1,2.32,1.09l.07,0-.51-4.19c-.36-.23-.71-.44-1.07-.64.73-3,1.62-6.09,2.67-9.22a81.13,81.13,0,0,0,4.35-16.54C296.72,124.92,295.16,114.44,290.32,107ZM137,241.23q-.75-1-1.5-2c-.5-.68-1-1.36-1.49-2.06s-1-1.4-1.49-2.12q-1.26-1.8-2.49-3.69-.75-1.14-1.5-2.31l-1.17-1.86a4.78,4.78,0,0,1-.26-.42c-.2-.3-.38-.6-.56-.91s-.47-.77-.71-1.16c-.06-.09-.11-.18-.16-.27-7.73,12.53-18.59-5.57-18.59-5.57-18.13-19.63-9.5-32.58-9.5-32.58,7.43-8.42,23.76,4.75,23.76,4.75l.09.33a6.13,6.13,0,0,0,4.36-.15,3.18,3.18,0,0,0,1.87-2.48,3.87,3.87,0,0,0,0-.48v-.11c-.14-4.43-.11-8.62.07-12.6,0-.57,0-1.15.08-1.71.06-1.13.14-2.25.23-3.34,0-.55.09-1.09.14-1.63s.11-1.16.17-1.74.12-1.14.19-1.7.13-1.12.21-1.67c.14-1.11.3-2.2.47-3.26.08-.54.16-1.06.26-1.58.17-1,.35-2,.55-2.94.15-.76.3-1.51.47-2.24s.34-1.51.52-2.25.29-1.19.45-1.77.3-1.13.46-1.69a83.77,83.77,0,0,1,7.17-18c.49-.89,1-1.74,1.47-2.56a61.69,61.69,0,0,1,10.13-12.86l-.07.15a48.08,48.08,0,0,0-3,8.26c-6.39,23.94,2.68,54.08,3.13,55.57,5.32,20.85,9.28,50.61-1.27,75.76-.13.32-.27.65-.42,1a.14.14,0,0,0,0,.06c-2.52-2.62-5.05-5.43-7.56-8.46-.51-.61-1-1.23-1.51-1.85Q138.47,243.22,137,241.23Zm73.6-188.4,1.85.44-1.69-.49q5.47,1.28,10.35,2.86l1.14.37.44.15,1.83.63,1.67.61q3,1.1,5.7,2.3l1.57.7,1.66.77c.3.13.59.28.88.42.64.31,1.27.63,1.89.95.41.2.81.41,1.21.63,1,.51,1.92,1,2.83,1.56l1.41.82c.46.28.92.55,1.36.83l1.33.84c.87.55,1.71,1.12,2.53,1.68.41.28.81.57,1.2.85.79.56,1.56,1.13,2.3,1.7l1.26,1c.23.17.45.36.67.54s.7.56,1,.85c1,.85,2,1.69,2.87,2.53.6.55,1.17,1.1,1.72,1.65.27.25.52.51.77.77l.73.75q1.1,1.14,2,2.22c.42.48.83,1,1.21,1.42l.57.69.54.67c.88,1.12,1.64,2.16,2.3,3.13.27.39.52.76.75,1.12s.47.74.68,1.09l.32.52.52.93c.12.21.23.4.32.58l.26.51.27.57a1.22,1.22,0,0,1,.11.24,5.64,5.64,0,0,1,.23.56c0,.06,0,.11.05.15s.06.18,0,.2h0q0,.09,0,.09a7.63,7.63,0,0,0-3.94,1.09C254.44,65.39,215.35,54.11,210.57,52.83Zm56.35,48.39a36.37,36.37,0,0,0-5.47,1.31,60.46,60.46,0,0,0-23.6,14s0,0,.07-.15l-.07.06c-.48.46,7.24-10.78,20.53-16.12a35.86,35.86,0,0,1,17.5-2.45s13.29,5.88,15.71,17l0,0c0,.06,0,.11,0,.17S282.43,98.38,266.92,101.22Z"/><path class="cls-4" d="M308.65,225.34l-.9,1.78c-.09,0-.61-.29-1.44-.78-15.43-8.69-22.52-21.27-25.46-33.28a.31.31,0,0,1,0-.22c0-.14-.07-.28-.1-.42-.09-.37-.17-.74-.25-1.11l.55-.4a19.58,19.58,0,0,0,4.48-4.55,50.7,50.7,0,0,0,7.16,23.49,44.36,44.36,0,0,0,15,15C308,225,308.32,225.17,308.65,225.34Z"/></g><g id="hairclip"><path id="hairclip_highlight" class="cls-5" d="M168.9,49.3C153.38,53.12,139.11,62,139.11,62c-15.45,9.58-17.9,18.28-17.9,18.28a7.13,7.13,0,0,1-5.12-5.18s26.19-36.16,74.82-33C192.73,44.87,184.21,45.52,168.9,49.3Z"/><path id="hairclip_shade" class="cls-6" d="M192.87,48.3a5.78,5.78,0,0,1-.69,1.42s-46.38-.54-71,30.41c0,0,2.45-8.7,17.9-18.28,0,0,14.27-8.83,29.79-12.65,15.31-3.78,23.83-4.43,22-7.24,0,0,.12.11.29.3C192,43.08,193.79,45.46,192.87,48.3Z"/></g><path id="mouth" class="cls-7" d="M211,228s5.23,17.8,18.81,20.81c0,0-21,16.2-32.23.94C197.58,249.75,188.69,235.91,211,228Z"/><g id="eye_whites"><path class="cls-7" d="M221.75,180.4a36.68,36.68,0,0,1-32.09,14.26s-32.07-1.91-28-29.41l.15-.05a53.49,53.49,0,0,1,10.92-2.49,13.51,13.51,0,0,0-1.69,2,11.73,11.73,0,0,0,2.64,16.21,13.89,13.89,0,0,0,8.38,2.75,15.09,15.09,0,0,0,2-.14c7.38-1,12.64-7.41,11.72-14.22a11.31,11.31,0,0,0-.6-2.44,11.53,11.53,0,0,0-1.86-3.29,53.89,53.89,0,0,1,26.88,15.27c-.06-.11-.38-.56-.94-1.28l.23.24c.08.08.14.16.21.24C220.39,178.82,221.07,179.6,221.75,180.4Z"/><path class="cls-7" d="M285.53,186.36a19.58,19.58,0,0,1-4.48,4.55l-.55.4,0,0a25.88,25.88,0,0,1-10.81,4,19.25,19.25,0,0,1-2.13.19c-18.46-.33-24.37-12.71-24.84-13.76a0,0,0,0,0,0,0l0-.05c.25-.32.49-.64.76-.95l-.08.11c.23-.24.45-.48.68-.71a61.84,61.84,0,0,1,9.86-8.44,10.52,10.52,0,0,0-.89,2.91,9.91,9.91,0,0,0,2,7.39,12.06,12.06,0,0,0,8,4.54,14,14,0,0,0,1.7.11,12,12,0,0,0,7-2.22,9.8,9.8,0,0,0,2.16-14.13l-.15-.19a11.62,11.62,0,0,0-4-3.19,36.06,36.06,0,0,1,10.05-.1h0a32.5,32.5,0,0,1,4.14.83c1.06.28,2,.59,2.78.88a23.28,23.28,0,0,1,2.83,1.26C289.88,177.3,288.16,182.6,285.53,186.36Z"/></g><g id="right_eye"><path class="cls-4" d="M195.78,169.33c.92,6.81-4.34,13.19-11.72,14.22a15.09,15.09,0,0,1-2,.14,13.89,13.89,0,0,1-8.38-2.75A11.73,11.73,0,0,1,171,164.73a13.51,13.51,0,0,1,1.69-2,53.49,53.49,0,0,0-10.92,2.49l-.15.05h0l.55-3.56c30.61-13.87,51.49,8.83,56.74,15.46l0,0,.3.39c.56.72.88,1.17.94,1.28a53.89,53.89,0,0,0-26.88-15.27,11.53,11.53,0,0,1,1.86,3.29A11.31,11.31,0,0,1,195.78,169.33Z"/></g><g id="eye_shadow"><path class="cls-8" d="M172.72,162.71a13.51,13.51,0,0,0-1.69,2,51.21,51.21,0,0,0-9.39,1.53l.16-1.06A53.49,53.49,0,0,1,172.72,162.71Z"/><path class="cls-8" d="M221.15,179.94a72,72,0,0,0-26-13.05,11.53,11.53,0,0,0-1.86-3.29,53.89,53.89,0,0,1,26.88,15.27c-.06-.11-.38-.56-.94-1.28l-.3-.39.53.63c.08.08.14.16.21.24C220.65,179.23,221.15,179.94,221.15,179.94Z"/><path class="cls-8" d="M289.47,169.84a23.28,23.28,0,0,0-2.83-1.26c-.78-.29-1.72-.6-2.78-.88a32.5,32.5,0,0,0-4.14-.83h0a36.06,36.06,0,0,0-10.05.1,12.16,12.16,0,0,0-3.38-1.09,34,34,0,0,1,8-1.25,32.66,32.66,0,0,1,5.75.28h0a31.36,31.36,0,0,1,3.93.82,25.57,25.57,0,0,1,3.05,1,20,20,0,0,1,2.32,1.09v.06C289.38,168.57,289.43,169.22,289.47,169.84Z"/><path class="cls-8" d="M253.87,171.74a9,9,0,0,0-.58,1.52,62.63,62.63,0,0,0-10.61,8.54l-.08.08.07-.1c.18-.22.64-.79,1.34-1.6A61.84,61.84,0,0,1,253.87,171.74Z"/></g><g id="eye_highlights"><circle class="cls-7" cx="188.65" cy="168.64" r="1.85"/><circle class="cls-7" cx="268.81" cy="171.56" r="1.85"/></g><path class="cls-4" d="M196,311.83c0,.13,0,.26,0,.4a1.8,1.8,0,0,1,0,.22c-.22,2.39-.55,4.94-1,7.56-1.92,10.35-6.22,21.8-15.55,28.92a28.77,28.77,0,0,1-12.08,5.51,4.89,4.89,0,0,0-.78-.15,6.21,6.21,0,0,0-2.94.4c-37-.61-44.94-46.84-45.37-49.55l0-.12a1,1,0,0,1,2-.41l0,.13c.07.48,7.44,48.68,45,48,.95,0,22.31-1.22,27.94-33.69.39-2.29.71-4.74.94-7.35a1.43,1.43,0,0,1,0-.22.89.89,0,0,1,.08-.17,1,1,0,0,1,1.87.56Z"/><path class="cls-4" d="M167.24,354.44a14,14,0,0,1-2.08.26h-.88c-.26,0-.51,0-.76,0a6.21,6.21,0,0,1,2.94-.4A4.89,4.89,0,0,1,167.24,354.44Z"/><g id="jewelry"><g id="gold"><path class="cls-9" d="M172.55,363.28c-.5,4.54-4,7.87-7.9,7.45s-6.6-4.45-6.1-9a8.43,8.43,0,0,1,5-7.05,6.21,6.21,0,0,1,2.94-.4,4.89,4.89,0,0,1,.78.15C170.68,355.27,173,359.05,172.55,363.28Z"/><path class="cls-9" d="M123,222.19a4.42,4.42,0,1,1-4.42-4.43A4.42,4.42,0,0,1,123,222.19Z"/></g><g id="shading"><path class="cls-10" d="M117.87,225.67c-.39,0,.76.21,1.17.21a3.37,3.37,0,0,0,3.37-3.38,3,3,0,0,0-.43-1.66s.31,2.13-.78,3.33A4.42,4.42,0,0,1,117.87,225.67Z"/><path class="cls-10" d="M162.22,368c-.39-.29,1,1.81,3.37,1.68a6.46,6.46,0,0,0,5.65-5.41,6.91,6.91,0,0,0-.06-3s-.24,3.77-1.94,5.63C169.24,366.87,165.59,370.5,162.22,368Z"/></g><g id="highlights"><path class="cls-7" d="M119.08,219,119,219a2.76,2.76,0,0,0-3.53,1,2.81,2.81,0,0,0-.12,3.39,3.8,3.8,0,0,1,.76-3.12A3.16,3.16,0,0,1,119.08,219Z"/><path class="cls-7" d="M166.66,356.39l-.09-.09c-1.27-1-3.43-.71-5,.79a4,4,0,0,0-1.16,4.54,5.69,5.69,0,0,1,1.93-4.09A4.53,4.53,0,0,1,166.66,356.39Z"/></g></g><path id="shirt" class="cls-11" d="M229.16,324.46s-7.57,59.35-70.06,58.75H159c-59-.25-70.41-64.72-70.12-71.61,0,0-15.53,1.22-34,2.9,0,0-31.27,3.52-40.52,27.74,0,0-13.12,23.13-14.44,79.93l295.4.1s-.79-23.74-2.64-43.48c-2.65-28.18-13.83-41.1-39.37-48.58Z"/><g id="shirt_shading"><path class="cls-12" d="M272.48,338.88s18.45,8.86,20.48,39.86L295.43,422l-14.69-.06S297.76,357.7,272.48,338.88Z"/><path class="cls-12" d="M66.7,389.4,73,422.09l-7,.16S69.39,410.55,66.7,389.4Z"/><path class="cls-12" d="M250.46,395.08l4.21,27.16-5.77-.09S252.05,412.61,250.46,395.08Z"/></g><g id="hair_highlights"><path class="cls-13" d="M182,96.7a33.37,33.37,0,0,0-13,7.85,40,40,0,0,0-8.14,11.21c-5.76,11.53-8.84,29.7-3.25,58.23,0,0,17.74,71.18-18.26,97.55.76-.75,31.19-31.53,14.76-98.72.69-1-6.51-33.22,4.06-55.86a38.32,38.32,0,0,1,8.14-11.62A35.48,35.48,0,0,1,182,96.7Z"/><path class="cls-13" d="M184.64,96.08h0c-.85.17-1.68.36-2.49.58A14.91,14.91,0,0,1,184.64,96.08Z"/><path class="cls-13" d="M271.29,94.11v0h0q0,.09,0,.09a7.63,7.63,0,0,0-3.94,1.09c-12.91-29.93-52-41.21-56.78-42.49l1.85.44-1.69-.49q5.47,1.28,10.35,2.86l1.14.37.44.15,1.83.63,1.67.61q3,1.1,5.7,2.3l1.57.7,1.66.77c.3.13.59.28.88.42.64.31,1.27.63,1.89.95.41.2.81.41,1.21.63,1,.51,1.92,1,2.83,1.56l1.41.82c.46.28.92.55,1.36.83l1.33.84c.87.55,1.71,1.12,2.53,1.68.41.28.81.57,1.2.85.79.56,1.56,1.13,2.3,1.7l1.26,1c.23.17.45.36.67.54s.7.56,1,.85c1,.85,2,1.69,2.87,2.53.6.55,1.17,1.1,1.72,1.65.27.25.52.51.77.77l.73.75q1.1,1.14,2,2.22c.42.48.83,1,1.21,1.42l.57.69.54.67c.88,1.12,1.64,2.16,2.3,3.13.27.39.52.76.75,1.12s.47.74.68,1.09l.32.52.52.93c.12.21.23.4.32.58l.26.51.27.57a1.22,1.22,0,0,1,.11.24c.1.23.18.42.23.56s0,.11.05.15A.65.65,0,0,1,271.29,94.11Z"/><path class="cls-13" d="M291.61,115s-9.18-16.61-24.69-13.77a36.37,36.37,0,0,0-5.47,1.31,60.46,60.46,0,0,0-23.6,14s0,0,.07-.15l-.07.06c-.48.46,7.24-10.78,20.53-16.12a35.86,35.86,0,0,1,17.5-2.45s13.29,5.88,15.71,17l0,0C291.58,114.88,291.6,114.93,291.61,115Z"/><path class="cls-13" d="M219.16,93.54S217.59,60,183.47,54.17c0,0,26.77,10,30.44,36.74C213.91,90.91,218.64,94.59,219.16,93.54Z"/><path class="cls-13" d="M195.71,52.29s25.3.92,34,17.72C229.75,70,213,53.44,195.71,52.29Z"/><path class="cls-13" d="M123,82.66s-25.77,32.9-10.35,80.75a39.57,39.57,0,0,1-.23-13.11S106.67,115.56,123,82.66Z"/><path class="cls-13" d="M173.62,39.41C174,40,167.41-5.91,114,8.81c0,0-29.91,9-35,30.83,0,0,23.69-32.44,61.19-23.24A50.19,50.19,0,0,1,173.62,39.41Z"/><path class="cls-13" d="M96.91,46.2S19.63,101.69,38.12,257.58C38.12,257.58,33.5,109.62,96.91,46.2Z"/><path class="cls-13" d="M72.47,207.38s-7.92,66.71,0,103.7c0,0,7.93,2,7.93,1.33S67.85,274.75,72.47,207.38Z"/><path class="cls-13" d="M102.2,219.27s-2,34.35,4.62,53.5c0,0,2.64-3.3,2-4.62S102.2,243.71,102.2,219.27Z"/><path class="cls-13" d="M107.82,89.64s-40,43.53-8.56,91.34C99.26,181,78.66,133.56,107.82,89.64Z"/></g></g></g></svg>