<svg data-name="trAvatar" xmlns="http://www.w3.org/2000/svg" viewBox="0 0 144.55 190.68"><path d="M71.4 174.78c.13.21.27.41.45.59.02-.13.04-.25.08-.37-.19-.05-.36-.13-.53-.23Zm3.28 4c-.45 0-.88-.13-1.25-.35.29.52.75.93 1.3 1.16-.06-.26-.07-.53-.05-.82Zm5.39-.79c.14.24.24.49.29.76.17-.04.34-.06.52-.06a2.5 2.5 0 0 0-.81-.71Zm3.51 2.44c.14.24.24.51.29.79q.18-.135.39-.24c-.19-.21-.42-.4-.68-.54Zm11.37-2.12h.03s-.02-.01-.03 0m-2.99-62.01c.05-.08.1-.13.13-.17zm.32 15.41v.26c0-.08 0-.17-.01-.26Zm-32.92 9.37c.05.08.09.16.15.24.02-.04.05-.08.08-.13-.08-.03-.15-.07-.23-.11m5.39 16.85.09.15c.01-.02.03-.05.05-.08-.05-.02-.09-.05-.14-.07m2.61 8.74c.12.22.27.41.45.58.03-.12.07-.23.13-.34-.2-.05-.39-.14-.57-.24Zm-1.58-4.27c.07.12.15.24.24.35.03-.07.05-.13.08-.19-.11-.04-.22-.09-.32-.15Zm-2.54-8.65c.06.11.13.21.2.31.02-.06.05-.12.07-.17-.09-.05-.19-.09-.28-.14Zm-1.21-3.91h-.01l.02.01-.01-.02Zm-1.4-4.3c.06.11.13.21.21.31.03-.06.06-.12.09-.17-.1-.04-.2-.09-.31-.15ZM97.15 184.17s-.45-.26-1.04-.65c.05-.01.09-.02.13-.04.6.43.87.64.91.69" style="fill:#e2ab90"/><path d="m143.43 190.65-143.39.03c-.51-31.74 4.41-37.31 4.41-37.31 3.95-8.94 22.8-13.22 22.8-13.22 1.4-.34 36.83-7.22 39.12-13.74.08-.22 4.09-11.59 3.8-14.77 0-.01-1.55-.82-2.43-1.38-7.59-26.34-.25-54.13.4-57.38 17.85 2.74 43.62 1.53 59.99.29.31 1.08 2.71 16.52 2.93 30.84.26 17.04-8.16 23.65-8.16 23.65-9.58 7.12-23.81 7.87-34.67 7.12 0 0-.02-.02-.02 0-1.03 2.34-5.69 11.75-.14 14.6 9.57 4.91 38.94 11.78 38.94 11.78 5.83 1.6 10.46 5.75 10.46 5.75 10.17 8.1 5.95 43.74 5.95 43.74Z" style="fill:#e2ab90"/><path d="M97.15 184.17s-.45-.26-1.04-.65c.05-.01.09-.02.13-.04.6.43.87.64.91.69" style="fill:#e2ab90"/><path d="M67.74 110.26c-.77-.49-2.03-.74-2.23-1.66-4.58-20.83-1.4-25.17-.91-39.02.41-7.32.1-9.22 1.59-17.02.64.11 1.29.22 1.95.32-1.49 7.88-1.16 10.77-1.61 18.29-.4 12.6-1.16 16.17 1.2 39.09Z" style="fill:#c98c73"/><path d="M66.47 72.6c0-.13.02-.31.03-.55zM66.63 109.49c-.37-.25-.74-.52-1.11-.8 0-.03 0-.06-.01-.09.37.32.75.62 1.12.89M73.01 127.44c-.1-.03-1.13-.38-2.84-1.08-.73-1.14-1.66-3.13-2.23-4.8.37-1 1.22-3.7 1.22-4.14.93 3.77 2.3 8.22 3.85 10.03ZM138.31 91.94c-4.05 29.83-46.21 24.1-46.17 24.12-2.58 2.98-7.35 13.37.13 15.15.03.48-.18 1.89-.25 2.43-6.95-5.71-14.81-13.46-21.85-21.99 39.78 5.87 69.42 8.43 57.96-58.47 0 0 3.14-.24 4.56-.37 5.61 16.81 5.6 34.94 5.61 39.14ZM92.28 131.55v.04zv-.06zM144.55 190.67l-1.12-.02-4.11-.06s1.27-30.02-1.83-43.69c0 0 .29.17.75.55.05.05.11.09.16.15.71.67 1.34 1.37 1.9 2.1.15.2.3.41.44.63.05.07.1.15.15.22.03.04.06.09.08.13 1.14 1.81 2.29 4.37 2.94 7.88l.09.51c.26 1.68.39 3.48.45 5.43v.81l.02 3.72v.26zM30.64 168.41c-.02.24-.03.5-.05.75-.27 5.21-.78 12.19-1.65 21.52h-.26l-1.82-.14s4.34-17.85 3.51-36.71c0 0 .94 1.12.28 14.58Z" style="fill:#c98c73"/><path d="M31 161.55c.53-16.78-5.29-20.88-5.29-20.88 13.66-3.7 26.09-6.9 37.52-11.27 2.3 15.56 29.19 17.84 29.03 2.15.03-.02 0-.32 0-.34 5.97 2.03 27.38 7.92 33.84 9.78 2.33 11.86.69 20.67.69 20.67-.81 8.99 1.2 27.59 1.35 28.99l-99.21.02c1.1-11.52 1.74-21.75 2.06-29.12Z" style="fill:#a3b99e"/><path d="M131.19 190.65h-3.04c-.15-1.39-2.16-19.99-1.35-28.98 0 0 1.64-8.82-.69-20.68 3.4 8.86 2.55 13.06 2.82 24.32.02.08 1.37 19.13 2.25 25.33Z" style="fill:#799374"/><path d="M143.78 51.75c-21.45 2.15-54.05 4.67-77.59.81-2.18 15.06-5.07 58.54 4.8 74.91-11.44-4.53-28.29-12.46-40.34-31.46C26.86 90.02 25.46-.38 81.44 3.3c3.68-3.98 32.75-9.74 46.25 19.29 8.29 4.99 15.39 13.77 16.09 29.15Z" style="fill:#9f4c24"/><path d="M130.8 125.75s-15.4 1.23-35.87-9.55c17.02.1 21.83-.77 32.41-6.3-.12.76-1.3 8.88 3.47 15.86ZM124.07 20.67c-22.34-10.8-52.29-.8-60.38 15.09-3.87 6.73-4.25 13.04-4.07 14.83-7.13-2.27 3.77-31.61 33.43-34.82C89.24 8.21 81.79 3.46 81.51 3.28c8.43 2.36 11.69 7.85 12.91 12.28 3.47-1.16 20.6-.39 29.65 5.11" style="fill:#84331b"/><path d="M127.3 53.08a27.7 27.7 0 0 0-2.05-15.45c-2.57-7.02-11.77-14.35-11.42-14.18 18.45 9.38 14.12 27.53 13.46 29.63ZM97.45 53.5c-.34.5-.59.79-.64.86 3.65-6.9 1.93-16.92 1.8-16.53 4.48 6.32.5 13.27-1.16 15.68ZM114.02 52.95c-.35.56-.62.91-.67.97 2.7-5.34-.64-12.32-.83-12.07 5.56 3.26 2.89 8.85 1.5 11.1M124.44 18.98c-.43-.54-6.63-8.13-17.54-12.11A39.5 39.5 0 0 0 95.1 4.5c-.23-.01 3.55-.8 8.76.05 6.28 1.02 14.66 4.42 20.58 14.43M64.72 122.45c-13.24-8.03-11.87-46.92-6.34-66.87-1.89 17.34-4.82 51.16 6.34 66.87M44.88 98.1c-5.22-15.51-5.14-50.2 9.67-71.22-.34.7-9.75 20.13-10.6 49.79-.19 6.66.06 13.84.93 21.44ZM34.36 95.42c-6-14.52.17-34.19.17-34.19-2.94 21.09-.28 33.69-.17 34.19" style="fill:#84331b"/><path d="M105.62 99.5s-10.61 8.18-16.28.47c0 0-4.5-6.99 6.77-10.99 0 0 2.65 8.99 9.51 10.52" style="fill:#fff"/><path d="M109.84 89.99c2.92-3.63.11-6.33.11-6.33-3.46-2.98-7.67.65-7.86.81 4.43-5.16 8.13-2.5 8.13-2.5 4.57 3.59-.18 7.83-.39 8.01ZM106.43 87.73l-2.89.58s-.43-1.93 2.89-.58" style="fill:#231f20"/><path d="M136.16 63.15c-6.72-8.28-21.77-5.14-24.33 4.96-2.31-1.66-5.52-1.23-7.88.06-2.72-12.79-22.52-14.19-27.14-1.88-3.98-.42-8.03-.7-12.02-.24l-.06 1.27c3.62 1.27 7.42 1.92 11.2 2.4-1.58 19.7 29.73 19.8 28.3.11 2.29-.9 5.01-1.24 7.2.04-1.86 10.58 10.68 18.8 20.19 13.91 7.86-3.43 10.41-14.25 4.53-20.62Z" style="fill:#010101"/><path d="M102.79 71.2c0 6.65-5.7 12.07-12.72 12.07S77.35 77.85 77.35 71.2c0-.98.13-1.97.38-2.92 1.41-5.38 6.48-9.14 12.34-9.14 7.01 0 12.72 5.41 12.72 12.06M137.9 71.75c-.37 15.78-24.85 15.53-25.1 0-.33-11.67 16.9-16.29 23.1-6.44 1.29 1.91 1.99 4.14 1.99 6.43Z" style="fill:#fff"/><path d="M100.04 66.22c3.61 3.34 1.87 19.32-13.51 15.37 4.55 1.1 17.42-1.93 13.51-15.37M134.92 78.08c-1.92 2.98-7.74 6.09-13.34 3.91 0 0 5.63.8 9.77-1.92 2.8-2.44 5.66-4.65 3.74-13.44 0 0 3.97 4.91-.17 11.46Z" style="fill:#c4c4c4"/><path d="M97.23 72.02c-.54.41-1.06-.08-1.35-.54-.66 6.52-10.23 2.15-5.76-2.61-5.13-.62-9.15 2.52-9.16.74-.01-1.18 2.77-1.71 6.56-2.25 4.32-.62 10.82 1.67 9.71 4.66M133.27 71.01c-.49.7-1.2.09-1.71-.23.54 6.69-9.19 3.44-4.96-1.65-3.4-.29-5.94 1.07-6.09 1.16-4.27-.64 4.44-4.63 10.37-1.58.73.5 3 1.02 2.38 2.3Z" style="fill:#010101"/><path d="M100.81 167.36c1.89 2.27-.78 4.72-.78 4.72 1.88 1.97-.68 4.53-.68 4.53.74 3.83-2.22 4.15-2.22 4.12.91 2.76-3.57 4.51-4.12 2.76.75 2.41-4.74 2.47-4.8.84.09 2.11-4.79 1.82-5.11-.56.12.92-3.71 1.57-4.43-1.74-3.51.28-3.57-2.97-3.57-2.97-3.17-.49-2.88-3.44-2.82-3.42-.06-.04-3.13-.85-2.11-4.23-1.92-.57-2.55-2.61-1.9-4.04-3.37-.71-2.02-3.94-2.04-3.95v.01c-2.28-1.62-2.18-3.51-1.24-4.72-1.75-.8-1.99-3.08-1.26-4.37l.09.06c-.04-.02-.07-.05-.09-.07-2.23-.57-2.36-3.21-1.51-4.34-1.82-.3-2.14-3.12-1.17-3.84-2.02-1.1-2.23-3.23-1.29-4.52.05.05.05.03.01-.02-.01 0-.01.01-.01.02-2.35-1.91-1.96-3.86-.77-4.87-2.75-1.51-1.75-4.43-.1-5.25-2.63-1.88.15-6.13 2.9-4.44.93-2 3.57-2.11 4.58-.67-1.44 2.43-.72 2.26-2.77 2.97.01-.1-.17-.15-.45-.17.13.92-.54 2.87-1.58 2.72 1.39.2 2.2 4.32.28 4.31 2.42.02 1.8 3.99.9 4.41 1.53.43 2.6 2.26 1.59 4.46 1.49.38 2.09 2.25 1.34 3.84 1.26.47 1.94 2.61 1.16 4.15 2 .55 2.3 2.73 1.3 4.49 1.22.36 2.18 2.62 1.11 4.12 1.43 0 2.53 2.46 1.92 4.2 1.79.32 2.59 2.23 1.93 3.89 1.26-.03 2.7 1.85 2.11 3.68.59.08 2.95 1.03 2.19 3.12.38-1.05 3.47 1.09 2.94 2.65.02-.01 2.78-.48 3.47 2.17 1.13-1.11 3.28-.92 4.18.4.3-1.23 3.38-2.68 3.85-1.23-.23-.72 1.25-2.25 2.45-2.32-.3-1.44 1.41-2.82 1.41-2.88-.01 0-.54-2.35 1.53-3.73-1.07-1.21-1.16-3.54.22-4.38-1.12-1.31-1.2-3.41.02-4.43-1.26-1.81-.62-3.24.54-3.93-1.65-1.59-1.36-3.17-.4-4.12-1.79-1.98-1.09-4.28.45-5.07-1.79-1.53-1.41-3.45-.3-4.5-1.7-1.81-1.41-3.53-.44-4.53-2.03-1.08-2.06-3.68-1.04-4.69-.28-.08-.64-.19-.7-.23-2.22-1.15-1.46-3.04-1.34-3.17-.78-.08-1.96-.63-2.19-1.63-.27.07-.42.15-.38.24-2.21-.88-2.59-1.55-3.16-3.31 2.34-2.31 4.06-.05 4.19.11.41-.41 4.53-1.25 4.53 2.79 1.74-.14 2.8 2.5 2.12 4.43 1.44.3 2.14 3.88.75 4.69 1.62.44 2.26 3.48.62 4.82.37.21 2.68 3.15-.13 4.99 1.43-.94 1.79 3.16.53 4.54 1.47.92 1.21 3.36-.06 4.56 1.41.76 1.37 3.01.19 4.23.42.41 1.58 2.82-.47 4.29Z" style="fill:#fef8e7"/></svg>