<svg id="Layer_1" data-name="Layer 1" xmlns="http://www.w3.org/2000/svg" viewBox="0 0 310.96 364.65"><defs><style>.cls-1{fill:none;}.cls-2{fill:#e2ab90;}.cls-3{fill:#c98c73;}.cls-4{fill:#a3b99e;}.cls-5{fill:#799374;}.cls-6{fill:#9f4c24;}.cls-7{fill:#84331b;}.cls-8{fill:#fff;}.cls-9{fill:#231f20;}.cls-10{fill:#010101;}.cls-11{fill:#c4c4c4;}.cls-12{fill:#a5a5a5;opacity:0.83;}.cls-13{fill:#e0e0e0;}.cls-14{fill:#fef8e7;}</style></defs><rect class="cls-1" y="0.03" width="310.96" height="364.63"/><g id="skin"><path id="arms" class="cls-2" d="M291.31,315.34v.8l0,7.09C291.39,320.48,291.39,317.84,291.31,315.34Zm-9.8,49.09S283.94,307.12,278,281a11.93,11.93,0,0,1,1.43,1.05c-4.95-4.59-11.84-8.49-21.4-12l-4-1,2.28.65h0a56.23,56.23,0,0,1,3.52,11,1.77,1.77,0,0,1,0,.2c.28,1.71.54,3.66.78,5.89a.57.57,0,0,0,0,.12,253.06,253.06,0,0,1,1,29.2s1.81,24.66,3.27,39.45a2.13,2.13,0,0,1,0,.25c.36,3.72.71,6.8,1,8.66h23.38Zm-150.24-86a4.89,4.89,0,0,0,.41.6l.18-.32C131.66,278.61,131.47,278.51,131.27,278.41Zm9.47-3.34a5,5,0,0,0-2.24-3.41c0,.12.06.26.08.38l0,.33a4.57,4.57,0,0,1,.2.77,5.06,5.06,0,0,1-.7,3.51,5.13,5.13,0,0,1,2.11,1.62A5,5,0,0,0,140.74,275.07ZM134,286.61l0,0,0,0Zm7.05-6.82a1.38,1.38,0,0,1,.07.26,5.11,5.11,0,0,1,.08,4.19,5.06,5.06,0,0,1,1.92,1.95,5.12,5.12,0,0,0,.42-2A5,5,0,0,0,141,279.79Zm-4.76,14.3a4.81,4.81,0,0,0,.4.6,1.89,1.89,0,0,1,.13-.33C136.61,294.27,136.43,294.19,136.26,294.09Zm7.29-6.72a4.21,4.21,0,0,1,.17,1.08h0a4.75,4.75,0,0,1,.15,1.2,5.07,5.07,0,0,1-.45,2.1,5,5,0,0,1,2.05,1.61,5,5,0,0,0,.33-1.78A5.1,5.1,0,0,0,143.55,287.37Zm-2.44,23.23a4.88,4.88,0,0,0,.46.66,2.39,2.39,0,0,1,.15-.37A3.41,3.41,0,0,1,141.11,310.6Zm7.6-6.49a4.94,4.94,0,0,1,.08.87,4.43,4.43,0,0,1-.1,1h0a1.28,1.28,0,0,1,0,.19,5,5,0,0,1-.48,2.16,5.07,5.07,0,0,1,2.08,1.57,4.88,4.88,0,0,0,.33-1.8A5.09,5.09,0,0,0,148.71,304.11Zm2.59,7.83a3,3,0,0,1,.08.52h0a4.94,4.94,0,0,1,.36,1.84,4.77,4.77,0,0,1-.48,2.14,5.17,5.17,0,0,1,2.18,1.3,5.08,5.08,0,0,0-2.14-5.81Zm-7.17,6.8a4.62,4.62,0,0,0,.85,1.1,3.91,3.91,0,0,1,.24-.65A4.55,4.55,0,0,1,144.13,318.74Zm2.26-23.43a83.19,83.19,0,0,0,.36,2.33,5.05,5.05,0,0,1-.81,2.77,5,5,0,0,1,2,1.77,5.1,5.1,0,0,0-1.57-6.87Zm-7.24,6.76.18.29.09-.15Zm-.83-35.52a5.12,5.12,0,0,0-1.65-3,4.94,4.94,0,0,1-.23,2.27s0,0,0,0,0,0,0,0a4.73,4.73,0,0,1-.81,2.35,5.14,5.14,0,0,1,2.08,1.7A5,5,0,0,0,138.32,266.55Zm-9.46,3.34c.09.16.19.31.28.45a1.58,1.58,0,0,1,.15-.24A2.44,2.44,0,0,1,128.86,269.89Zm8.44-12.21a5,5,0,0,0-1.58-2.91,2.61,2.61,0,0,1,.06.27,5.15,5.15,0,0,1-.81,3.7l-.05.07a4.35,4.35,0,0,1-.71,1.09,5.07,5.07,0,0,1,1.9,2A5.09,5.09,0,0,0,137.3,257.68Zm.66-9c-.15-.87-.51-1.13-1-1a4.94,4.94,0,0,1-.41,1.66h0a3,3,0,0,1-.23.44,5,5,0,0,1-2.35,2.18,5,5,0,0,1,1.51,2,5.1,5.1,0,0,0,2.53-3.82A5,5,0,0,0,138,248.67Zm10,78.06a5.22,5.22,0,0,0,1,1.3,5.57,5.57,0,0,1,.25-.79A4.7,4.7,0,0,1,148,326.73Zm6.92-7a5,5,0,0,1,.64,3,4.82,4.82,0,0,1-.37,1.46,4.75,4.75,0,0,1,2.18,1.15,3.87,3.87,0,0,0,.12-.68A5.1,5.1,0,0,0,154.89,319.78Zm3.9,7.53a5.21,5.21,0,0,1,.66,2.5,4.67,4.67,0,0,1-.21,1.41,5.16,5.16,0,0,1,2.08,1.23,4.24,4.24,0,0,0,.05-.71A5.08,5.08,0,0,0,158.79,327.31Zm-6.94,6.93a5.49,5.49,0,0,0,.85,1.13,4,4,0,0,1,.15-.7A4.25,4.25,0,0,1,151.85,334.24Zm6.26,7.63a4.8,4.8,0,0,1-2.4-.66,5,5,0,0,0,2.49,2.22A5.05,5.05,0,0,1,158.11,341.87Zm4.53-7.58a5,5,0,0,1,.66,2.5,3.67,3.67,0,0,1,0,.46,6.4,6.4,0,0,1,.86.08,5.3,5.3,0,0,1,1,.3A5,5,0,0,0,162.64,334.29Zm5.76,6.08a5,5,0,0,1,.55,1.46,4.46,4.46,0,0,1,1-.11A5.07,5.07,0,0,0,168.4,340.37Zm-3.35,7.5A5.49,5.49,0,0,1,164,348a5.14,5.14,0,0,1-2.5-.65,5.08,5.08,0,0,0,4.43,2.58H166A4.85,4.85,0,0,1,165.05,347.87Zm26.64-96.27a.34.34,0,0,1,0,.1.25.25,0,0,1,0,.08v-.08S191.69,251.62,191.69,251.6Zm0,.41c0,.15,0,.31,0,.5h0A2.94,2.94,0,0,0,191.71,252Zm-18.06,99.62a5,5,0,0,1-3,1,5.07,5.07,0,0,1-2.5-.66,5.09,5.09,0,0,0,4.43,2.59,5,5,0,0,0,2.42-.62A4.78,4.78,0,0,1,173.65,351.63Zm1.44-6.61a4.91,4.91,0,0,1,.55,1.5,4.35,4.35,0,0,1,.74-.46A4.84,4.84,0,0,0,175.09,345Zm34.53-23.24a4.75,4.75,0,0,1,.15,1.2,3.29,3.29,0,0,1,0,.45h0a.06.06,0,0,1,0,.06,3.29,3.29,0,0,1,0,.45,5.06,5.06,0,0,1-2.44,4.34,4.9,4.9,0,0,1,1.22,2.29,5.08,5.08,0,0,0,1.07-8.8Zm3-12a5.08,5.08,0,0,0-2.09-4.11,4.49,4.49,0,0,1,.16,1.22,3.15,3.15,0,0,1,0,.44v0s0,0,0,.06a3.15,3.15,0,0,1,0,.44,5.09,5.09,0,0,1-1.44,3.55,4.75,4.75,0,0,1,.74,1.67,3.86,3.86,0,0,1,.15,1.08.62.62,0,0,1,0,.13,3.29,3.29,0,0,1,0,.45h0a.06.06,0,0,1,0,.06,3.4,3.4,0,0,1,0,.45,5.09,5.09,0,0,1-1.95,4,4.92,4.92,0,0,1,1.39,2.3,5.1,5.1,0,0,0,1.15-7.83A5.09,5.09,0,0,0,212.6,309.81Zm-3-39.47a5.23,5.23,0,0,1,.14,1.19,3.15,3.15,0,0,1,0,.44.11.11,0,0,1,0,.08,3.29,3.29,0,0,1,0,.45,5.08,5.08,0,0,1-1.6,3.69,5,5,0,0,1,1.78,2.05,5.05,5.05,0,0,0-.32-7.9Zm-2.14-13.54-2-.58a4.8,4.8,0,0,1-.54,1.57,5.06,5.06,0,0,1,2.09,1.6,5,5,0,0,0,.46-2.12A2.26,2.26,0,0,0,207.49,256.8Zm.5,4.5a4.75,4.75,0,0,1,.15,1.2,3.4,3.4,0,0,1,0,.45.08.08,0,0,1,0,.07,3.29,3.29,0,0,1,0,.45,5,5,0,0,1-1.34,3.43,5,5,0,0,1,2.08,1.76,5.07,5.07,0,0,0-.89-7.36Zm2.31,17.93a4.83,4.83,0,0,1,.14,1.62v0a5.77,5.77,0,0,1,0,.93,5.07,5.07,0,0,1-2.39,3.91,4.84,4.84,0,0,1,1.75,2,5.06,5.06,0,0,0,.5-8.51Zm1.81,12.51a5,5,0,0,0-2-3l0,.1a5.36,5.36,0,0,1,.09,1.59v0a5.06,5.06,0,0,1-1.36,4,5.11,5.11,0,0,1,1.52,2.3A5,5,0,0,0,212.11,291.74Zm-1.6,5.29a4.7,4.7,0,0,1,.14,1.64v0a4.71,4.71,0,0,1,0,.92,5.05,5.05,0,0,1-1.75,3.43,5,5,0,0,1,1.51,2.26,5.09,5.09,0,0,0,.1-8.29Zm-.44,37.69a5.08,5.08,0,0,0-1.42-3.52,4.53,4.53,0,0,1,0,.52,5.11,5.11,0,0,1-.86,2.84h0a4.93,4.93,0,0,1-1.66,2.24,5,5,0,0,1,.42,2h0a.28.28,0,0,1,0,.09,3.93,3.93,0,0,1-.06.69,5,5,0,0,1-2,3.35h0a4.88,4.88,0,0,1-1.95,1.55,4.67,4.67,0,0,1,.24,1.5,4.82,4.82,0,0,1-.08.86,5.07,5.07,0,0,0,4.77-5.07,4.9,4.9,0,0,0-.58-2.35A5.1,5.1,0,0,0,210.07,334.72Zm-7.32,12.22a5.08,5.08,0,0,1-5,4.13,4.41,4.41,0,0,1-1-.1,4.5,4.5,0,0,1-1,.1,5.94,5.94,0,0,1-1.75-.32,3,3,0,0,1-.14.51,5.08,5.08,0,0,1-4.82,3.45l-.44,0h-.08l-.44,0a4.87,4.87,0,0,1-2.22-.52.82.82,0,0,1-.28-.14h0a5,5,0,0,1-1.41-1.18,5.69,5.69,0,0,1-4.45,2.69l-.54,0a4.41,4.41,0,0,1-.52,0,6.07,6.07,0,0,1-1.87-.42,5.1,5.1,0,0,0,9-.72,5.1,5.1,0,0,0,9.26-2.16,5,5,0,0,0,2.64.75,5.09,5.09,0,0,0,5.1-5.09A4.5,4.5,0,0,0,202.75,346.94Zm-6-6h.06v0ZM127.15,250.9l-5.39,1.78L127.2,251ZM64.63,269.1c3.78-1,7.41-2,10.88-2.94-2.63.66-5.29,1.33-8,2,0,0-36,8.16-43.53,25.23,0,0-9.38,10.61-8.41,71.22H70.28l-3.48-.27s8.29-34.08,6.69-70.08c0,0,1.81,2.14.54,27.85.62-9.72.69-13.1.69-13.1C75.74,276.93,64.63,269.1,64.63,269.1Zm220,19.13a42.31,42.31,0,0,1,5.61,15A37.78,37.78,0,0,0,284.66,288.23Zm-93.57-65.64.24-.33C191.27,222.33,191.2,222.44,191.09,222.59Z"/><path id="face" class="cls-2" d="M262.23,110.28c-.15-.66-.29-1.32-.45-2-.48-2.1-1-4.19-1.62-6.25-31.25,2.37-80.45,4.68-114.52-.56a146.54,146.54,0,0,0-2.24,16.55c-.07,2.75-.18,5.5-.31,8.25,1,0,2-.07,3-.1,1.91,0,3.81,0,5.71.09s3.78.2,5.67.34c.94.1,1.89.17,2.82.27l1.42.15c.15,0,.29,0,.44,0,4-9.89,14-16.55,25.33-16.55,12.9,0,23.73,8.62,26.49,20.13a18.07,18.07,0,0,1,2.88-1.26,17.25,17.25,0,0,1,4.73-.91,13,13,0,0,1,4.92.74,8.94,8.94,0,0,1,2.5,1.32c3.18-10.77,13.56-18.67,25.84-18.67a28.11,28.11,0,0,1,8,1.14C262.62,112.13,262.43,111.19,262.23,110.28Zm-7.38,52.89c-14.81,0-26.85-11.5-26.85-25.63a24.2,24.2,0,0,1,.27-3.62,6.52,6.52,0,0,0-1.16-.56l-.85-.35-.88-.25a13.65,13.65,0,0,0-3.68-.46,20,20,0,0,0-3.85.52,26.29,26.29,0,0,0-3.33,1,25.1,25.1,0,0,1,.14,2.62c0,14.3-12.19,25.93-27.17,25.93s-27.17-11.63-27.17-25.93a24.29,24.29,0,0,1,.17-2.83l-1-.11-2.81-.39c-1.87-.29-3.75-.59-5.61-1s-3.72-.75-5.57-1.21c-.89-.23-1.78-.46-2.66-.71-.43,8.29-.93,16.59-1,24.87,0,0-.46,30.13,3,55.9a40.59,40.59,0,0,0,4.62,2.58c.26.13.5.24.75.34l.05,0c.84.31,2.34.83,4.48,1.48a193.58,193.58,0,0,0,29.19,4.2h0c20.72,1.44,47.9,0,66.18-13.59,0,0,11-4.67,14.86-28.46,0,0,0,0,0-.13a.38.38,0,0,1,0-.1c0-.22.07-.63.13-1.19q0-.27.06-.6v0c0-.26.05-.55.08-.87.2-2.28.47-5.79.68-10.18,0-.76.06-1.55.09-2.36,0-.46,0-.92,0-1.41A27.16,27.16,0,0,1,254.85,163.17Zm-68.77,28.24s-8.58-13.34,12.94-21c0,0,5,17.17,18.15,20.08C217.17,190.51,196.91,206.13,186.08,191.41Zm27.1-22.26s-.82-3.69,5.53-1.11Zm16.54-4.88a3.15,3.15,0,0,1-.05.52c0,.22-.07.43-.11.64a8.52,8.52,0,0,1-.3,1c-.06.15-.1.3-.16.45l-.08.19-.14.32c-.07.15-.15.32-.23.47a4.09,4.09,0,0,1-.25.46,2.3,2.3,0,0,1-.23.4,15.58,15.58,0,0,1-1.2,1.72c-.21.25-.4.48-.58.68a14.09,14.09,0,0,1-1.07,1.09l-.06.06,0,0c.29-.37.55-.73.78-1.07a4,4,0,0,0,.24-.38,3.28,3.28,0,0,0,.26-.43l0,0c.12-.21.22-.42.32-.62a5.15,5.15,0,0,0,.3-.69c.08-.19.14-.37.2-.55s.09-.3.13-.45a2.68,2.68,0,0,0,.07-.27,2.56,2.56,0,0,0,.05-.27,7.13,7.13,0,0,0,.14-.89c0-.31,0-.62,0-.91a4.61,4.61,0,0,0-.07-.84s0,0,0,0,0-.25-.06-.37-.07-.38-.12-.55a4.75,4.75,0,0,0-.18-.57,2.84,2.84,0,0,0-.15-.44,7.83,7.83,0,0,0-.41-.87,3.25,3.25,0,0,0-.21-.37l-.21-.34a6.35,6.35,0,0,0-.5-.68,1.27,1.27,0,0,0-.14-.17l0-.07-.12-.12-.1-.11c-6.6-5.68-14.64,1.24-15,1.56.32-.38.64-.74,1-1.07l.42-.43c.18-.18.36-.36.54-.52l.55-.5.57-.48.09-.07c.22-.17.43-.34.65-.49l.57-.4a.42.42,0,0,1,.14-.09l.46-.29c.21-.13.41-.24.6-.34s.39-.2.58-.29a3.36,3.36,0,0,1,.44-.2c.23-.1.45-.19.66-.26a5.34,5.34,0,0,1,.52-.18,10.62,10.62,0,0,1,1.11-.28,4.88,4.88,0,0,1,.51-.08,4.1,4.1,0,0,1,.49-.06l.39,0h.57l.5,0,.36,0,.46.06h0l.31.05.27,0a8.38,8.38,0,0,1,2.11.74l.23.11a4.73,4.73,0,0,1,.41.25c.29.22.55.45.8.68l.36.33c.22.23.43.45.62.67l.31.38.23.31c.1.14.2.28.29.43s.18.28.26.42l.19.38a3.8,3.8,0,0,1,.19.43c0,.12.1.24.14.37a3.88,3.88,0,0,1,.14.45c0,.15.08.29.11.45l.06.33c0,.14,0,.26.05.4s0,.26,0,.39v.13a1,1,0,0,1,0,.16C229.74,163.93,229.73,164.1,229.72,164.27Z"/><path id="neck" class="cls-2" d="M191.73,252.52c.58,20-24.33,19.42-24.33,19.42-20.93-.61-27.83-13.08-30.09-19.83a5.12,5.12,0,0,0,.65-3.44c-.15-.87-.51-1.13-1-1a.15.15,0,0,0,0-.07l2.28-.81c.47-.28,1.63-2.1,3-4.85.2-.39.4-.8.61-1.23,5.1,2.22,8.23,3.26,8.23,3.26a17.28,17.28,0,0,1-1.57-2.13c3.27,1.34,5.24,2,5.42,2.06-3-3.44-5.28-9.37-7.07-16.58,0,.85-1.34,4.48-2,6.38a.08.08,0,0,0,0,0c2.32-6.34,4.23-13.84,3.69-19.92a.13.13,0,0,1,0-.06c.26.13.5.24.75.34l-.73-.27c10.2,12.69,25.13,26.11,34.19,33.85,2.51,2.15,4.56,3.85,5.95,5l2,1.58a11,11,0,0,0,.12-1.61Z"/></g><g id="skin_shade" data-name="skin shade"><path class="cls-3" d="M273.8,119.38a26.93,26.93,0,0,0-10.23-6.09c-.25-.09-.5-.17-.76-.24-.19-.92-.38-1.86-.58-2.77-.15-.66-.29-1.32-.45-2-.48-2.1-1-4.19-1.62-6.25,3.09-.23,6-.46,8.7-.7.25.74.49,1.49.74,2.25.11.38.24.76.35,1.16.37,1.17.73,2.37,1.07,3.62C272,111.78,272.93,115.45,273.8,119.38Z"/><path class="cls-3" d="M145.64,101.51a146.54,146.54,0,0,0-2.24,16.55c-.07,2.75-.18,5.5-.31,8.25-.92,0-1.82.1-2.74.2l-1.14.13q.21-4.29.33-8.58a145.56,145.56,0,0,1,2.36-17.16C143.12,101.11,144.37,101.32,145.64,101.51Z"/><path class="cls-3" d="M144.86,211.05c-.69-.44-1.4-.93-2.12-1.47s-1.43-1.09-2.14-1.7c-3-25-2.62-52.72-2.62-52.73.12-8.69.68-17.39,1.12-26.09l.91.32c1,.34,1.91.64,2.88.9-.43,8.29-.93,16.59-1,24.87C141.84,155.16,141.38,185.28,144.86,211.05Z"/><path class="cls-3" d="M142.74,209.58c-.71-.47-1.42-1-2.12-1.53a1,1,0,0,0,0-.17C141.31,208.49,142,209.06,142.74,209.58Z"/><path class="cls-3" d="M154.92,243.85c-.18-.06-2.15-.72-5.42-2.06a38,38,0,0,1-3.69-8.14c.7-1.9,2-5.53,2-6.38C149.64,234.48,152,240.41,154.92,243.85Z"/><path class="cls-3" d="M279.58,176.09a12.56,12.56,0,0,1-.13,1.81c0,.22-.06.58-.11,1l0,.25c-.07.6-.18,1.36-.33,2.25-.1.5-.2,1.05-.33,1.64a40.81,40.81,0,0,1-1.73,5.74c-.12.32-.25.64-.38.95s-.2.49-.31.73-.14.35-.23.52-.25.54-.39.82a38.73,38.73,0,0,1-3,5.24c-.17.26-.34.51-.53.77l-.46.63c-.15.22-.32.44-.48.65-.32.42-.67.86-1,1.28s-.74.86-1.11,1.29l-.59.64c-.41.44-.82.86-1.25,1.28s-1,1-1.57,1.49l-.46.4c-.45.41-.92.8-1.4,1.19l-.52.42c-.43.34-.88.68-1.34,1-.21.16-.43.32-.66.47s-.53.39-.81.57c-.57.39-1.16.79-1.78,1.17-.35.22-.69.44-1.05.64s-.67.4-1,.59-.57.33-.86.48-.71.39-1.07.57c-.54.29-1.09.57-1.65.83-.41.2-.82.4-1.25.59l-1.34.6-1.24.53-1.47.59h0c-1,.38-2,.76-3.1,1.11s-2.19.72-3.34,1l-.47.15-.6.18h0l-.8.23c-4.84,1.38-18.77,4.64-39.34,4-.94,0-1.9-.06-2.87-.11l-.37,0h-.51l-.54,0c-1.51-.08-3.06-.19-4.63-.31l.14,0,.23.07-.09.11,0,0c-.06.07-.13.18-.24.33l-.24.33A44.54,44.54,0,0,0,184.51,236a3.38,3.38,0,0,0-.08.34,17.1,17.1,0,0,0,.09,8.38,13.37,13.37,0,0,0,1.81,3.83c.48.67,2,1.52,4.22,2.49h0c.24.11.48.22.74.31h0l.36.05a.82.82,0,0,0,0,.1v.06a.34.34,0,0,1,0,.1.25.25,0,0,1,0,.08v0a.41.41,0,0,1,0,.11V252c0,.15,0,.31,0,.5a11,11,0,0,1-.12,1.61l-2-1.58c-1.39-1.14-3.44-2.84-5.95-5-9.06-7.74-24-21.16-34.19-33.85l.73.27.05,0c.84.31,2.34.83,4.48,1.48a193.58,193.58,0,0,0,29.19,4.2h0c20.72,1.44,47.9,0,66.18-13.59,0,0,11-4.67,14.86-28.46,0,0,0,0,0-.13a.38.38,0,0,1,0-.1c0-.22.07-.63.13-1.19q0-.27.06-.6v0c0-.26.05-.55.08-.87.2-2.28.47-5.79.68-10.18,0-.76.06-1.55.09-2.36,0-.46,0-.92,0-1.41l.67-.29a26.29,26.29,0,0,0,11.6-10.68c.05.52.1,1,.13,1.56q.24,2.82.42,5.75c.09,1.26.15,2.55.22,3.85.05.86.09,1.72.12,2.59.06,1.64.12,3.3.16,5,0,.57,0,1.14,0,1.7,0,1,0,1.92.05,2.9S279.58,175.11,279.58,176.09Z"/><path class="cls-3" d="M191.7,251.7v.08a.25.25,0,0,0,0-.08.34.34,0,0,0,0-.1S191.7,251.66,191.7,251.7Z"/><path class="cls-3" d="M291.5,364.56l-2.14,0-7.85-.1S283.94,307.12,278,281a11.93,11.93,0,0,1,1.43,1.05l.31.28a34.72,34.72,0,0,1,3.64,4c.29.38.57.79.85,1.21l.28.41c0,.08.1.17.15.25a42.31,42.31,0,0,1,5.61,15c.06.32.12.65.17,1a87.28,87.28,0,0,1,.86,10.35c0,.24,0,.5,0,.75v.8l0,7.09v.51Z"/><path class="cls-3" d="M74,322.07c0,.46-.06.94-.09,1.43-.52,9.95-1.49,23.27-3.16,41.07h-.5l-3.48-.27s8.29-34.08,6.69-70.08C73.49,294.22,75.3,296.36,74,322.07Z"/></g><g id="shirt"><path class="cls-4" d="M202.25,303.06a5.08,5.08,0,0,0-1.77,3.86,3.15,3.15,0,0,0,0,.44v0s0,0,0,.06a3.15,3.15,0,0,0,0,.44,5.05,5.05,0,0,0,.9,2.89,5.08,5.08,0,0,0-1.44,3.54,3.29,3.29,0,0,0,0,.45h0a.06.06,0,0,0,0,.06,3.4,3.4,0,0,0,0,.45,5.08,5.08,0,0,0,1.59,3.7,5.07,5.07,0,0,0-1.94,4,3.29,3.29,0,0,0,0,.45h0a.06.06,0,0,0,0,.06,3.29,3.29,0,0,0,0,.45,5,5,0,0,0,1.34,3.43,5,5,0,0,0-2.11,2.57l0,0a5,5,0,0,0-.84,2.81,5.18,5.18,0,0,0,.42,2,4.87,4.87,0,0,0-.93.94h0a5.07,5.07,0,0,0-2,4,4.59,4.59,0,0,0,.12,1.06,5.06,5.06,0,0,0-4.68,4,4.91,4.91,0,0,0-1.76-.32,3.15,3.15,0,0,0-.44,0h-.08a3.15,3.15,0,0,0-.44,0,5.08,5.08,0,0,0-4.54,2.78,5.71,5.71,0,0,0-3.18-1.77l-.12,0a5.57,5.57,0,0,0-1.08-.11,4.41,4.41,0,0,0-.52,0,5.84,5.84,0,0,0-2.33.63,4.84,4.84,0,0,0-1.29-1,4.79,4.79,0,0,0-1-1.2,5.05,5.05,0,0,0-4.11-2.11h-.1a5.07,5.07,0,0,0-1.53-1.35,5.2,5.2,0,0,0-2-1.95h0a4.73,4.73,0,0,0-1.29-.78,5,5,0,0,0-2.47-3.34,3.34,3.34,0,0,0-.43-.63h0a5.27,5.27,0,0,0-.89-1.2,4.24,4.24,0,0,0,.05-.71,5.08,5.08,0,0,0-2.58-4.43,4.32,4.32,0,0,0-.31-.48,4.56,4.56,0,0,0-1.14-1.43,3.87,3.87,0,0,0,.12-.68,5.1,5.1,0,0,0-2.57-4.94,3.47,3.47,0,0,0-.52-.75v0a4.6,4.6,0,0,0-.92-1.25h0a5.08,5.08,0,0,0-2.14-5.81,4.84,4.84,0,0,0-1-2.06,4.88,4.88,0,0,0,.33-1.8,5.09,5.09,0,0,0-1.92-4,4.9,4.9,0,0,0-.75-1.93,5.1,5.1,0,0,0-1.57-6.87,5,5,0,0,0-.92-1.94,5,5,0,0,0,.33-1.78,5.1,5.1,0,0,0-2.25-4.22,4.14,4.14,0,0,0-.46-1.18,5.12,5.12,0,0,0,.42-2,5,5,0,0,0-2.49-4.37,5.14,5.14,0,0,0-.8-1.52,5.05,5.05,0,0,0-1.72-6.61,5.36,5.36,0,0,0-.79-1.73,5,5,0,0,0,.61-3.38,5.12,5.12,0,0,0-1.65-3,.69.69,0,0,0,0-.13,5.12,5.12,0,0,0-.54-1.57,5.09,5.09,0,0,0,1.19-4.19,5,5,0,0,0-1.58-2.91,4.09,4.09,0,0,0-.26-.84,5,5,0,0,0,1.85-1.82c2.26,6.75,9.16,19.22,30.09,19.83,0,0,24.91.62,24.33-19.42a2.94,2.94,0,0,0,0-.51v-.08a.41.41,0,0,0,0-.11v-.12l.13-.1s0,0,0,0a5.13,5.13,0,0,0,3.63,2.12h0a3.35,3.35,0,0,0,0,.63,3.29,3.29,0,0,0,0,.45.08.08,0,0,0,0,.07,3.29,3.29,0,0,0,0,.45,5,5,0,0,0,2.57,4.42h0a5,5,0,0,0,.57.28l-.16.33a5,5,0,0,0-.46,2.12,3.4,3.4,0,0,0,0,.45.08.08,0,0,0,0,.07,3.29,3.29,0,0,0,0,.45,5.06,5.06,0,0,0,2.59,4.43l.38.2-.16.17a5,5,0,0,0-1.18,3.26,3.15,3.15,0,0,0,0,.44.11.11,0,0,0,0,.08,3.29,3.29,0,0,0,0,.45,5.08,5.08,0,0,0,2.27,4.24,5,5,0,0,0-1.57,3.27,4.71,4.71,0,0,0,0,.92v0a5.06,5.06,0,0,0,2.24,4.65,5.06,5.06,0,0,0-2.38,4.8v.07a5.32,5.32,0,0,0,.09,1.53,5,5,0,0,0,1.64,2.73,5.07,5.07,0,0,0-1.38,3.08,5.53,5.53,0,0,0,0,.91v.06A5.09,5.09,0,0,0,202.25,303.06Z"/><path class="cls-4" d="M74.72,309c1-32-10.09-39.87-10.09-39.87,3.78-1,7.41-2,10.88-2.94l.33-.09c17.18-4.4,33.24-9.3,44.89-13.07l1-.32L127.2,251a4.78,4.78,0,0,0,.74.68,5.19,5.19,0,0,0-1.82,2.12s0,0,0,0a5,5,0,0,0,1.65,7.17,5,5,0,0,0-1.21,2.88,4.83,4.83,0,0,0-.2,2.45,5.05,5.05,0,0,0,2.51,3.6c.09.16.19.31.28.45a4.93,4.93,0,0,0-.61,3.37,3.77,3.77,0,0,0,.19.77c0,.11,0,.22,0,.33a5.09,5.09,0,0,0,2.51,3.6,4.89,4.89,0,0,0,.41.6,4.94,4.94,0,0,0-.59,2.36,5,5,0,0,0,.47,2.13h0s0,0,0,0h0a5,5,0,0,0,2.37,3.09,5.24,5.24,0,0,0-.41,2,4.66,4.66,0,0,0,.15,1.18,5,5,0,0,0,2.57,4.26,4.81,4.81,0,0,0,.4.6,4.91,4.91,0,0,0-.32,1.76,4.78,4.78,0,0,0,.25,1.57v0a5.09,5.09,0,0,0,2.56,4l.18.29a5,5,0,0,0-.73,2.62,1.34,1.34,0,0,0,0,.2h0a5.12,5.12,0,0,0,2.5,5.41,4.88,4.88,0,0,0,.46.66,4.83,4.83,0,0,0-.33,1.79,8.11,8.11,0,0,0,2.89,5.69,4.62,4.62,0,0,0,.85,1.1,1.83,1.83,0,0,0-.08.25,5.06,5.06,0,0,0,1,4.48v0a5.16,5.16,0,0,0,2.05,2.14,5.22,5.22,0,0,0,1,1.3,4.91,4.91,0,0,0-.13,1.16,5.05,5.05,0,0,0,.94,2.95.21.21,0,0,0,0,.06,5,5,0,0,0,2,2,5.49,5.49,0,0,0,.85,1.13,5.52,5.52,0,0,0,0,.71,5.14,5.14,0,0,0,1.13,3.22l0,0a4.89,4.89,0,0,0,1.91,1.89,5,5,0,0,0,2.49,2.22,5.08,5.08,0,0,0,2.43,3.3s0,0,0,0a4.6,4.6,0,0,0,.81.58,5.08,5.08,0,0,0,4.43,2.58H166a4.6,4.6,0,0,0,.55.62,5.14,5.14,0,0,0,1.61,1.43,5.09,5.09,0,0,0,4.43,2.59,5,5,0,0,0,2.42-.62,5.66,5.66,0,0,0,1.84,1.21,5.1,5.1,0,0,0,9-.72,5.1,5.1,0,0,0,9.26-2.16,5,5,0,0,0,2.64.75,5.09,5.09,0,0,0,5.1-5.09,4.5,4.5,0,0,0-.1-1,.44.44,0,0,0,0-.1,5.07,5.07,0,0,0,4.77-5.07,4.9,4.9,0,0,0-.58-2.35,5.09,5.09,0,0,0,1.69-8.22,4.44,4.44,0,0,0-.1-.62,5.08,5.08,0,0,0,1.07-8.8.38.38,0,0,0-.05-.19,5.1,5.1,0,0,0,1.15-7.83,5.09,5.09,0,0,0-.21-8.06,1.64,1.64,0,0,0-.1-.38,5.09,5.09,0,0,0,.1-8.29c0-.11,0-.21-.07-.32a5.09,5.09,0,0,0-.28-8,4.76,4.76,0,0,0-.36-1,5.06,5.06,0,0,0,.5-8.51,4.16,4.16,0,0,0-.35-1,5.05,5.05,0,0,0-.32-7.9h0a4.79,4.79,0,0,0-.74-1.68,5.07,5.07,0,0,0-.89-7.36,5.12,5.12,0,0,0-.91-1.91,5,5,0,0,0,.46-2.12,2.26,2.26,0,0,0,0-.47,1.63,1.63,0,0,0-.83-1.12L254,269.07H254l2.28.65c4.43,22.64,1.31,39.47,1.31,39.47-1.55,17.16,2.28,52.67,2.57,55.34l-189.4,0c1.67-17.8,2.64-31.12,3.16-41.07,0-.49.06-1,.09-1.43C74.65,312.35,74.72,309,74.72,309Z"/></g><path id="shirt_shade" data-name="shirt shade" class="cls-5" d="M266,364.53h-5.8c-.29-2.67-4.12-38.18-2.57-55.34,0,0,3.12-16.83-1.31-39.47h0a56.23,56.23,0,0,1,3.52,11,1.77,1.77,0,0,1,0,.2c.28,1.71.54,3.66.78,5.89a.57.57,0,0,0,0,.12,253.06,253.06,0,0,1,1,29.2s1.81,24.66,3.27,39.45a2.13,2.13,0,0,1,0,.25C265.34,359.59,265.69,362.67,266,364.53Z"/><path id="hair" class="cls-6" d="M259.31,43.69a117.12,117.12,0,0,0-6.08-10.64C217.81-17.24,175.9,4.14,171.41,6.63l-.4.23c-1.68-.16-3.33-.24-4.95-.28C118.53,5.35,95.94,50.29,95.94,50.29c-42.3,79.36-21.88,133.57-21.88,133.57,19.21,32.32,53.18,50,68.78,56.8,5.1,2.22,8.23,3.26,8.23,3.26a17.28,17.28,0,0,1-1.57-2.13,38,38,0,0,1-3.69-8.14.08.08,0,0,0,0,0c-2.36-7-4-16.09-5.18-25.56a1,1,0,0,0,0-.17c-3-25-2.62-52.72-2.62-52.73.12-8.69.68-17.39,1.12-26.09,0-.81.07-1.62.11-2.42q.21-4.29.33-8.58a145.56,145.56,0,0,1,2.36-17.16c1.22.21,2.47.42,3.74.61,34.07,5.24,83.27,2.93,114.52.56,3.09-.23,6-.46,8.7-.7,12.95-1.09,21.17-2,21.17-2C288.7,70,275.14,53.22,259.31,43.69Zm-178.19,139c-11.44-27.72.33-65.28.33-65.28C75.84,157.7,80.92,181.75,81.12,182.72ZM213.8,9.24c12,1.94,28,8.43,39.29,27.56a81.23,81.23,0,0,0-33.48-23.13,75.44,75.44,0,0,0-22.53-4.53C196.64,9.13,203.86,7.62,213.8,9.24ZM95,143.94c-.47-25.84,4.18-59.71,24.64-92.08C119,53.19,101,90.29,99.43,146.91a286.82,286.82,0,0,0,1.77,40.93S95.51,170,95,143.94Zm44.08,90.39c-.54-.33-17.87-11.19-19.95-54.4-.27-5.68-.28-11.93,0-18.78q.21-4.76.68-9.91c.19-2.16.4-4.37.66-6.64.17-1.52.36-3.08.56-4.65.34-2.68.73-5.45,1.17-8.28s.9-5.67,1.43-8.62q1.41-7.83,3.29-16.37c-.12,1-1.53,11.54-2.49,26.46-.11,1.86-.23,3.79-.33,5.79v0c-.22,4.25-.39,8.78-.48,13.47-.07,3.59-.09,7.27,0,11,.09,8.62.51,17.51,1.44,26.11C127,207.39,131.15,224,139.1,234.33ZM197,42.65s0-.09,0-.14h0C197.05,42.6,197,42.65,197,42.65Zm4.53,60.05c-.65.94-1.12,1.51-1.22,1.64.26-.54.5-1.09.73-1.63,6.42-14.93,2.71-29.94,2.71-29.94C212.34,84.83,204.75,98.1,201.57,102.7Zm4.8-71.31c-3.49.35-6.81.8-10,1.34-.69.1-1.38.23-2.07.35-32.47,6-49,21.41-57.18,35.75,0,0,0,0,0,0-7.39,12.88-8.1,24.88-7.75,28.31-1.24-.3-2.43-.62-3.6-1-.19-.06-.37-1.22-.32-3.21v0c.25-11.81,8.21-52.59,67.73-62.29-7.28-14.44-21.49-23.5-22-23.85,16.09,4.51,22.31,15,24.65,23.45q3.26-.47,6.72-.81A107.2,107.2,0,0,1,237.93,34a81.56,81.56,0,0,1,14.46,6,85.26,85.26,0,0,0-13.72-5A107.33,107.33,0,0,0,206.37,31.39Zm26.84,70.24a21.32,21.32,0,0,1-1.28,1.86c.26-.62.5-1.23.71-1.83a25.65,25.65,0,0,0-2.29-21.21C241,86.67,235.88,97.33,233.21,101.63ZM261,88h0a56.64,56.64,0,0,1-1.71,11.28c-.05.22-.11.42-.16.62-.3,1.12-.54,1.81-.6,2,.1-.66.19-1.31.25-1.94s.13-1.15.18-1.71a52,52,0,0,0-1.24-16.64,55.91,55.91,0,0,0-3.08-9.21,0,0,0,0,0,0,0,1,1,0,0,0,0-.1c-.43-1-.86-1.9-1.32-2.81a3,3,0,0,0-.16-.31,70,70,0,0,0-20.28-23.84c20.42,8.18,26.72,22.67,28,34.93h0c.08.72.13,1.43.17,2.12h0A50.29,50.29,0,0,1,261,88Z"/><g id="dark_hair" data-name="dark hair"><path id="hair_shade" data-name="hair shade" class="cls-7" d="M265.24,240.63s-29.38,2.36-68.48-18.24h0l.37,0c1,0,1.93.09,2.87.11,20.57.64,34.5-2.62,39.34-4l.8-.23h0l.6-.18.47-.15c1.15-.33,2.26-.68,3.34-1s2.1-.73,3.1-1.11h0l1.47-.59,1.24-.53,1.34-.6c.43-.19.84-.39,1.25-.59.56-.26,1.11-.54,1.65-.83.36-.18.72-.37,1.07-.57s.58-.32.86-.48.67-.38,1-.59.7-.42,1.05-.64C258.39,211.81,256.13,227.3,265.24,240.63Z"/><path class="cls-7" d="M252.39,40a85.26,85.26,0,0,0-13.72-5,107.33,107.33,0,0,0-32.3-3.66c-3.49.35-6.81.8-10,1.34-.69.1-1.38.23-2.07.35-32.47,6-49,21.41-57.18,35.75,0,0,0,0,0,0-7.39,12.88-8.1,24.88-7.75,28.31-1.24-.3-2.43-.62-3.6-1-.19-.06-.37-1.22-.32-3.21v0c.25-11.81,8.21-52.59,67.73-62.29-7.28-14.44-21.49-23.5-22-23.85,16.09,4.51,22.31,15,24.65,23.45q3.26-.47,6.72-.81A107.2,107.2,0,0,1,237.93,34,81.56,81.56,0,0,1,252.39,40Z"/><path class="cls-7" d="M261,88h0a56.64,56.64,0,0,1-1.71,11.28c-.05.22-.11.42-.16.62-.3,1.12-.54,1.81-.6,2,.1-.66.19-1.31.25-1.94s.13-1.15.18-1.71a52,52,0,0,0-1.24-16.64,55.91,55.91,0,0,0-3.08-9.21,0,0,0,0,0,0,0,1,1,0,0,0,0-.1c-.43-1-.86-1.9-1.32-2.81a3,3,0,0,0-.16-.31,70,70,0,0,0-20.28-23.84c20.42,8.18,26.72,22.67,28,34.93h0c.08.72.13,1.43.17,2.12h0A50.29,50.29,0,0,1,261,88Z"/><path class="cls-7" d="M201.57,102.7c-.65.94-1.12,1.51-1.22,1.64.26-.54.5-1.09.73-1.63,6.42-14.93,2.71-29.94,2.71-29.94C212.34,84.83,204.75,98.1,201.57,102.7Z"/><path class="cls-7" d="M233.21,101.63a21.32,21.32,0,0,1-1.28,1.86c.26-.62.5-1.23.71-1.83a25.65,25.65,0,0,0-2.29-21.21C241,86.67,235.88,97.33,233.21,101.63Z"/><path class="cls-7" d="M253.09,36.8a81.23,81.23,0,0,0-33.48-23.13,75.44,75.44,0,0,0-22.53-4.53c-.44,0,6.78-1.52,16.72.1C225.8,11.18,241.78,17.67,253.09,36.8Z"/><path class="cls-7" d="M139.1,234.33c-.54-.33-17.87-11.19-19.95-54.4-.27-5.68-.28-11.93,0-18.78q.21-4.76.68-9.91c.19-2.16.4-4.37.66-6.64.17-1.52.36-3.08.56-4.65.34-2.68.73-5.45,1.17-8.28s.9-5.67,1.43-8.62q1.41-7.83,3.29-16.37c-.12,1-1.53,11.54-2.49,26.46-.11,1.86-.23,3.79-.33,5.79v0c-.22,4.25-.39,8.78-.48,13.47-.07,3.59-.09,7.27,0,11,.09,8.62.51,17.51,1.44,26.11C127,207.39,131.15,224,139.1,234.33Z"/><path class="cls-7" d="M101.2,187.84S95.51,170,95,143.94c-.47-25.84,4.18-59.71,24.64-92.08C119,53.19,101,90.29,99.43,146.91A286.82,286.82,0,0,0,101.2,187.84Z"/><path class="cls-7" d="M81.12,182.72c-11.44-27.72.33-65.28.33-65.28C75.84,157.7,80.92,181.75,81.12,182.72Z"/></g><path id="mouth" class="cls-8" d="M217.17,190.51s-20.26,15.62-31.09.9c0,0-8.58-13.34,12.94-21C199,170.43,204.07,187.6,217.17,190.51Z"/><g id="nose"><path class="cls-9" d="M225.22,172.35c5.59-6.93.21-12.08.21-12.08-6.6-5.69-14.64,1.23-15,1.55,8.44-9.86,15.52-4.77,15.52-4.77C234.69,163.9,225.62,172,225.22,172.35Z"/><path class="cls-9" d="M218.71,168l-5.53,1.11S212.36,165.46,218.71,168Z"/></g><g id="glasses"><path id="glases_frame" data-name="glases frame" class="cls-10" d="M275.47,121.12a22.87,22.87,0,0,0-1.67-1.74,26.93,26.93,0,0,0-10.23-6.09c-.25-.09-.5-.17-.76-.24a28.11,28.11,0,0,0-8-1.14c-12.28,0-22.66,7.9-25.84,18.67a8.94,8.94,0,0,0-2.5-1.32,13,13,0,0,0-4.92-.74,17.25,17.25,0,0,0-4.73.91,18.07,18.07,0,0,0-2.88,1.26c-2.76-11.51-13.59-20.13-26.49-20.13-11.35,0-21.34,6.66-25.33,16.55-.15,0-.29,0-.44,0l-1.42-.15c-.93-.1-1.88-.17-2.82-.27-1.89-.14-3.78-.28-5.67-.34s-3.8-.12-5.71-.09c-1,0-2,.05-3,.1s-1.82.1-2.74.2l-1.14.13c0,.8-.08,1.61-.11,2.42l.91.32c1,.34,1.91.64,2.88.9s1.77.48,2.66.71c1.85.46,3.71.85,5.57,1.21s3.74.66,5.61,1l2.81.39,1,.11a24.29,24.29,0,0,0-.17,2.83c0,14.3,12.19,25.93,27.17,25.93s27.17-11.63,27.17-25.93a25.1,25.1,0,0,0-.14-2.62,26.29,26.29,0,0,1,3.33-1,20,20,0,0,1,3.85-.52,13.65,13.65,0,0,1,3.68.46l.88.25.85.35a6.52,6.52,0,0,1,1.16.56,24.2,24.2,0,0,0-.27,3.62c0,14.13,12,25.63,26.85,25.63a27.16,27.16,0,0,0,11.3-2.4l.67-.29a26.29,26.29,0,0,0,11.6-10.68,22.23,22.23,0,0,0,1.06-2.06l.14-.28h0a24.67,24.67,0,0,0,2.08-9.91A24.94,24.94,0,0,0,275.47,121.12Zm-88,38.4c-13.38,0-24.27-10.34-24.27-23a22,22,0,0,1,.72-5.58c2.69-10.28,12.37-17.45,23.55-17.45,13.39,0,24.28,10.33,24.28,23S200.88,159.52,187.49,159.52ZM277.83,144a21.72,21.72,0,0,1-1,2.58l-.09.2a23.18,23.18,0,0,1-10.52,10.78,6,6,0,0,1-.67.34,24.56,24.56,0,0,1-10.72,2.41c-13.21,0-24-10.19-24-22.73s10.75-22.74,24-22.74a24.94,24.94,0,0,1,7.82,1.24l.73.25a23.92,23.92,0,0,1,9.89,6.74,22.72,22.72,0,0,1,1.72,2.22,0,0,0,0,0,0,0,22,22,0,0,1,3.79,12.28A21.36,21.36,0,0,1,277.83,144Z"/><g id="lenses"><path id="rt_lense" data-name="rt lense" class="cls-8" d="M211.77,136.48c0,12.7-10.89,23-24.28,23s-24.27-10.34-24.27-23a22,22,0,0,1,.72-5.58c2.69-10.28,12.37-17.45,23.55-17.45C200.88,113.45,211.77,123.78,211.77,136.48Z"/><path id="left_lense" data-name="left lense" class="cls-8" d="M275,125.26a0,0,0,0,1,0,0,22.72,22.72,0,0,0-1.72-2.22,23.92,23.92,0,0,0-9.89-6.74l-.73-.25a24.94,24.94,0,0,0-7.82-1.24c-13.21,0-24,10.2-24,22.74s10.75,22.73,24,22.73a24.56,24.56,0,0,0,10.72-2.41,6,6,0,0,0,.67-.34,23.18,23.18,0,0,0,10.52-10.78l.09-.2a21.72,21.72,0,0,0,1-2.58,21.36,21.36,0,0,0,1-6.42A22,22,0,0,0,275,125.26Zm-31.38,8.91a1.46,1.46,0,0,1,.56-2,24.75,24.75,0,0,1,25.4,1.92,1.45,1.45,0,0,1-.82,2.63,1.47,1.47,0,0,1-.82-.26q-.63-.44-1.26-.81a5.86,5.86,0,0,1,.08,2,6.33,6.33,0,0,1-.8,2.38,6.06,6.06,0,0,1-1.36,1.63A5.57,5.57,0,0,1,261,143a5.17,5.17,0,0,1-.68,0,5.92,5.92,0,0,1-5-6.72,6.14,6.14,0,0,1,1.88-3.75,22.14,22.14,0,0,0-11.63,2.2A1.46,1.46,0,0,1,243.64,134.17Zm29.47,15.45a21.53,21.53,0,0,1-6.84,6c-4.25,2.41-10.47,4.06-18.63,1.42,0,0,10.76,1.52,18.65-3.67h0a16.91,16.91,0,0,0,4.87-4.82s6.22-8.49,2.27-20.83C273.43,127.74,281,137.12,273.11,149.62Z"/></g><g id="lense_shine" data-name="lense shine"><path id="rt_lense_shine" data-name="rt lense shine" class="cls-11" d="M206.52,127s7.57,9.37-.33,21.87c0,0-8.56,12.93-25.46,7.46,0,0,16.34,2.32,23.52-8.5C204.25,147.81,210.47,139.31,206.52,127Z"/><path id="left_lense_shine" data-name="left lense shine" class="cls-11" d="M273.11,149.62a21.53,21.53,0,0,1-6.84,6c-4.25,2.41-10.47,4.06-18.63,1.42,0,0,10.76,1.52,18.65-3.67h0a16.91,16.91,0,0,0,4.87-4.82s6.22-8.49,2.27-20.83C273.43,127.74,281,137.12,273.11,149.62Z"/></g></g><g id="eyes"><path class="cls-10" d="M201.16,138a1.36,1.36,0,0,1-.85.28,1.42,1.42,0,0,1-1.17-.6c-.18-.25-.36-.48-.56-.71a6.56,6.56,0,1,1-11-5c-7.67-.62-15.51,2.22-15.64,2.27a1.45,1.45,0,1,1-1-2.72,46.59,46.59,0,0,1,11.67-2.44c8.58-.65,15.11,1.74,18.86,6.89A1.44,1.44,0,0,1,201.16,138Z"/><path class="cls-10" d="M270,136.12a1.43,1.43,0,0,1-1.18.63,1.47,1.47,0,0,1-.82-.26q-.63-.44-1.26-.81a5.86,5.86,0,0,1,.08,2,6.33,6.33,0,0,1-.8,2.38,6.06,6.06,0,0,1-1.36,1.63A5.57,5.57,0,0,1,261,143a5.17,5.17,0,0,1-.68,0,5.92,5.92,0,0,1-5-6.72,6.14,6.14,0,0,1,1.88-3.75,22.14,22.14,0,0,0-11.63,2.2,1.45,1.45,0,1,1-1.41-2.53,24.75,24.75,0,0,1,25.4,1.92A1.42,1.42,0,0,1,270,136.12Z"/></g><g id="pearl_shadow" data-name="pearl shadow"><path class="cls-12" d="M207.54,257.27a5,5,0,0,1-.46,2.12,5.06,5.06,0,0,0-2.09-1.6,4.8,4.8,0,0,0,.54-1.57,3.83,3.83,0,0,0,.08-.83v-.07a3.44,3.44,0,0,1,1,.36h0a1.63,1.63,0,0,1,.83,1.12A2.26,2.26,0,0,1,207.54,257.27Z"/><path class="cls-12" d="M210.07,265.4a5,5,0,0,1-1.19,3.26,5,5,0,0,0-2.08-1.76,5,5,0,0,0,1.34-3.43,3.29,3.29,0,0,0,0-.45.08.08,0,0,0,0-.07,3.4,3.4,0,0,0,0-.45,4.75,4.75,0,0,0-.15-1.2A5,5,0,0,1,210.07,265.4Z"/><path class="cls-12" d="M211.7,274.42a5,5,0,0,1-1.75,3.82,5,5,0,0,0-1.78-2.05,5.08,5.08,0,0,0,1.6-3.69,3.29,3.29,0,0,0,0-.45.11.11,0,0,0,0-.08,3.15,3.15,0,0,0,0-.44,5.23,5.23,0,0,0-.14-1.19A5.06,5.06,0,0,1,211.7,274.42Z"/><path class="cls-12" d="M212.37,283.74a5,5,0,0,1-2.57,4,4.84,4.84,0,0,0-1.75-2,5.07,5.07,0,0,0,2.39-3.91,5.77,5.77,0,0,0,0-.93v0a4.83,4.83,0,0,0-.14-1.62A5.06,5.06,0,0,1,212.37,283.74Z"/><path class="cls-12" d="M210.44,296.71a5.11,5.11,0,0,0-1.52-2.3,5.06,5.06,0,0,0,1.36-4v0a5.36,5.36,0,0,0-.09-1.59l0-.1a5.09,5.09,0,0,1,.28,8Z"/><path class="cls-12" d="M212.58,301.56a5.1,5.1,0,0,1-2.17,3.76,5,5,0,0,0-1.51-2.26,5.05,5.05,0,0,0,1.75-3.43,4.71,4.71,0,0,0,0-.92v0a4.7,4.7,0,0,0-.14-1.64A5.1,5.1,0,0,1,212.58,301.56Z"/><path class="cls-12" d="M212.6,309.81a5.09,5.09,0,0,1-1.88,3.95,4,4,0,0,1-.6.42,3.86,3.86,0,0,0-.15-1.08,4.75,4.75,0,0,0-.74-1.67,5.09,5.09,0,0,0,1.44-3.55,3.15,3.15,0,0,0,0-.44s0,0,0-.06v0a3.15,3.15,0,0,0,0-.44,4.49,4.49,0,0,0-.16-1.22A5.08,5.08,0,0,1,212.6,309.81Z"/><path class="cls-12" d="M212.06,317.21a5.1,5.1,0,0,1-2.49,4.38,4.92,4.92,0,0,0-1.39-2.3,5.09,5.09,0,0,0,1.95-4,3.4,3.4,0,0,0,0-.45.06.06,0,0,0,0-.06h0a3.29,3.29,0,0,0,0-.45.62.62,0,0,0,0-.13,3.86,3.86,0,0,0-.15-1.08,4.67,4.67,0,0,1,.75.66A5.12,5.12,0,0,1,212.06,317.21Z"/><path class="cls-12" d="M211.7,325.88a5.08,5.08,0,0,1-3.15,4.7,4.9,4.9,0,0,0-1.22-2.29,5.06,5.06,0,0,0,2.44-4.34,3.29,3.29,0,0,0,0-.45.06.06,0,0,0,0-.06h0a3.29,3.29,0,0,0,0-.45,4.75,4.75,0,0,0-.15-1.2A5.06,5.06,0,0,1,211.7,325.88Z"/><path class="cls-12" d="M210.07,334.72a5.1,5.1,0,0,1-3.11,4.7c-.14.06-.29.1-.44.15a3.93,3.93,0,0,0,.06-.69.28.28,0,0,0,0-.09h0a5,5,0,0,0-.42-2,4.93,4.93,0,0,0,1.66-2.24h0a5.11,5.11,0,0,0,.86-2.84,4.53,4.53,0,0,0,0-.52A5.08,5.08,0,0,1,210.07,334.72Z"/><path class="cls-12" d="M207.54,341.77a5.07,5.07,0,0,1-4.77,5.07,4.82,4.82,0,0,0,.08-.86,4.67,4.67,0,0,0-.24-1.5,4.88,4.88,0,0,0,1.95-1.55h0a5,5,0,0,0,2-3.35,3.93,3.93,0,0,0,.06-.69.28.28,0,0,0,0-.09,3.46,3.46,0,0,1,.39.63A4.9,4.9,0,0,1,207.54,341.77Z"/><path class="cls-12" d="M202.85,347.91a5.09,5.09,0,0,1-5.1,5.09,5,5,0,0,1-2.64-.75h0a4.71,4.71,0,0,1-1.18-1,3,3,0,0,0,.14-.51,5.94,5.94,0,0,0,1.75.32,4.5,4.5,0,0,0,1-.1,4.41,4.41,0,0,0,1,.1,5.08,5.08,0,0,0,5-4.13A4.5,4.5,0,0,1,202.85,347.91Z"/><path class="cls-12" d="M195.17,351.55a4.14,4.14,0,0,1-.06.7h0a5.1,5.1,0,0,1-9.26,2.16h0l-.2-.35a.82.82,0,0,0,.28.14,4.87,4.87,0,0,0,2.22.52l.44,0h.08l.44,0a5.08,5.08,0,0,0,4.82-3.45,3,3,0,0,0,.14-.51,3.81,3.81,0,0,0,1.07.26A4.75,4.75,0,0,1,195.17,351.55Z"/><path class="cls-12" d="M185.93,354.19a1.8,1.8,0,0,1-.08.21h0a5.1,5.1,0,0,1-9,.72,6.07,6.07,0,0,0,1.87.42,4.41,4.41,0,0,0,.52,0l.54,0a5.69,5.69,0,0,0,4.45-2.69,5,5,0,0,0,1.41,1.18h0A.82.82,0,0,0,185.93,354.19Z"/><path class="cls-12" d="M175,353.92a5,5,0,0,1-2.42.62,5.09,5.09,0,0,1-4.43-2.59,5.07,5.07,0,0,0,2.5.66,5,5,0,0,0,3-1A4.78,4.78,0,0,0,175,353.92Z"/><path class="cls-12" d="M176.38,346.06a4.35,4.35,0,0,0-.74.46,4.91,4.91,0,0,0-.55-1.5A4.84,4.84,0,0,1,176.38,346.06Z"/><path class="cls-12" d="M166,349.9h-.09a5.08,5.08,0,0,1-4.43-2.58,5.14,5.14,0,0,0,2.5.65,5.49,5.49,0,0,0,1.08-.11A4.85,4.85,0,0,0,166,349.9Z"/><path class="cls-12" d="M169.93,341.72a4.46,4.46,0,0,0-1,.11,5,5,0,0,0-.55-1.46A5.07,5.07,0,0,1,169.93,341.72Z"/><path class="cls-12" d="M158.2,343.43a5,5,0,0,1-2.49-2.22,4.8,4.8,0,0,0,2.4.66A5.05,5.05,0,0,0,158.2,343.43Z"/><path class="cls-12" d="M165.11,337.63a5.3,5.3,0,0,0-1-.3,6.4,6.4,0,0,0-.86-.08,3.67,3.67,0,0,0,0-.46,5,5,0,0,0-.66-2.5A5,5,0,0,1,165.11,337.63Z"/><path class="cls-12" d="M151.85,334.24a4.25,4.25,0,0,0,1,.43,4,4,0,0,0-.15.7A5.49,5.49,0,0,1,151.85,334.24Z"/><path class="cls-12" d="M161.37,331.74a4.24,4.24,0,0,1-.05.71,5.16,5.16,0,0,0-2.08-1.23,4.67,4.67,0,0,0,.21-1.41,5.21,5.21,0,0,0-.66-2.5A5.08,5.08,0,0,1,161.37,331.74Z"/><path class="cls-12" d="M148,326.73a4.7,4.7,0,0,0,1.29.51,5.57,5.57,0,0,0-.25.79A5.22,5.22,0,0,1,148,326.73Z"/><path class="cls-12" d="M157.46,324.72a3.87,3.87,0,0,1-.12.68,4.75,4.75,0,0,0-2.18-1.15,4.82,4.82,0,0,0,.37-1.46,5,5,0,0,0-.64-3A5.1,5.1,0,0,1,157.46,324.72Z"/><path class="cls-12" d="M144.13,318.74a4.55,4.55,0,0,0,1.09.45,3.91,3.91,0,0,0-.24.65A4.62,4.62,0,0,1,144.13,318.74Z"/><path class="cls-12" d="M153.67,316.24a5.07,5.07,0,0,1-.23,1.51,5.17,5.17,0,0,0-2.18-1.3,4.77,4.77,0,0,0,.48-2.14,4.94,4.94,0,0,0-.36-1.84h0a3,3,0,0,0-.08-.52A5.12,5.12,0,0,1,153.67,316.24Z"/><path class="cls-12" d="M141.11,310.6a3.41,3.41,0,0,0,.61.29,2.39,2.39,0,0,0-.15.37A4.88,4.88,0,0,1,141.11,310.6Z"/><path class="cls-12" d="M150.63,308.08a4.88,4.88,0,0,1-.33,1.8,5.07,5.07,0,0,0-2.08-1.57,5,5,0,0,0,.48-2.16,1.28,1.28,0,0,0,0-.19h0a4.43,4.43,0,0,0,.1-1,4.94,4.94,0,0,0-.08-.87A5.09,5.09,0,0,1,150.63,308.08Z"/><path class="cls-12" d="M139.15,302.07l.27.14-.09.15Z"/><path class="cls-12" d="M148.68,299.57a5,5,0,0,1-.72,2.61,5,5,0,0,0-2-1.77,5.05,5.05,0,0,0,.81-2.77,83.19,83.19,0,0,1-.36-2.33A5.08,5.08,0,0,1,148.68,299.57Z"/><path class="cls-12" d="M136.26,294.09c.17.1.35.18.53.27a1.89,1.89,0,0,0-.13.33A4.81,4.81,0,0,1,136.26,294.09Z"/><path class="cls-12" d="M145.8,291.59a5,5,0,0,1-.33,1.78,5,5,0,0,0-2.05-1.61,5.07,5.07,0,0,0,.45-2.1,4.75,4.75,0,0,0-.15-1.2h0a4.21,4.21,0,0,0-.17-1.08A5.1,5.1,0,0,1,145.8,291.59Z"/><path class="cls-12" d="M143.51,284.16a5.12,5.12,0,0,1-.42,2,5.06,5.06,0,0,0-1.92-1.95,5.11,5.11,0,0,0-.08-4.19,1.38,1.38,0,0,0-.07-.26A5,5,0,0,1,143.51,284.16Z"/><path class="cls-12" d="M131.86,278.69l-.18.32a4.89,4.89,0,0,1-.41-.6C131.47,278.51,131.66,278.61,131.86,278.69Z"/><path class="cls-12" d="M140.22,278.27a5.13,5.13,0,0,0-2.11-1.62,5.06,5.06,0,0,0,.7-3.51,4.57,4.57,0,0,0-.2-.77l0-.33c0-.12-.05-.26-.08-.38a5.05,5.05,0,0,1,1.72,6.61Z"/><path class="cls-12" d="M129.29,270.1a1.58,1.58,0,0,0-.15.24c-.09-.14-.19-.29-.28-.45A2.44,2.44,0,0,0,129.29,270.1Z"/><path class="cls-12" d="M137.71,269.93a5.14,5.14,0,0,0-2.08-1.7,4.73,4.73,0,0,0,.81-2.35s0,0,0,0,0,0,0,0a4.94,4.94,0,0,0,.23-2.27,5.12,5.12,0,0,1,1.65,3A5,5,0,0,1,137.71,269.93Z"/><path class="cls-12" d="M138,250.11a5.1,5.1,0,0,1-2.53,3.82,5,5,0,0,0-1.51-2,5,5,0,0,0,2.35-2.18,3,3,0,0,0,.23-.44h0a4.94,4.94,0,0,0,.41-1.66c.51-.08.87.18,1,1A5,5,0,0,1,138,250.11Z"/><path class="cls-12" d="M136.11,261.87a5.07,5.07,0,0,0-1.9-2,4.35,4.35,0,0,0,.71-1.09l.05-.07a5.15,5.15,0,0,0,.81-3.7,2.61,2.61,0,0,0-.06-.27,5,5,0,0,1,1.58,2.91A5.09,5.09,0,0,1,136.11,261.87Z"/></g><g id="light_pearl_shade" data-name="light pearl shade"><path class="cls-13" d="M195.49,243.6a5.06,5.06,0,0,0-4.57,5.06,5,5,0,0,0,.83,2.8.38.38,0,0,0,.09.13h0l-.13.1s0-.08,0-.1v-.06a.82.82,0,0,1,0-.1l-.36-.05h0c-.26-.09-.5-.2-.74-.31h0a5,5,0,0,1-.6-2.41,5.09,5.09,0,0,1,2.66-4.47h0a5,5,0,0,1,2.42-.62A3.29,3.29,0,0,1,195.49,243.6Z"/><path class="cls-13" d="M201.05,249.31a4.23,4.23,0,0,1-.21.95h-.32a4.63,4.63,0,0,0-.65,0,5.07,5.07,0,0,0-3.71,2.42,3.36,3.36,0,0,0-.22.42,3.72,3.72,0,0,0-.24.58,0,0,0,0,0,0,0,4.71,4.71,0,0,0-.23,1.08,3.29,3.29,0,0,1,0-.45,3.35,3.35,0,0,1,0-.63h0a3.66,3.66,0,0,1,.14-.72,2.8,2.8,0,0,1,.13-.41h0a5,5,0,0,1,4.33-3.29h0l.43,0A4.58,4.58,0,0,1,201.05,249.31Z"/><path class="cls-13" d="M208.14,262.5a3.4,3.4,0,0,1,0,.45,5,5,0,0,0-.63-2,4.61,4.61,0,0,0-.72-1,5,5,0,0,0-2.3-1.41,3.82,3.82,0,0,0-.83-.17h0l-.57,0a5,5,0,0,0-3.1,1.05,4.89,4.89,0,0,0-.84.8,5,5,0,0,0-.37.53A4.85,4.85,0,0,0,198,263a3.4,3.4,0,0,1,0-.45,5,5,0,0,1,.46-2.12l.16-.33a6.05,6.05,0,0,1,.53-.79,5.12,5.12,0,0,1,3.94-1.85,5.06,5.06,0,0,1,1.41.2,5.52,5.52,0,0,1,.53.18,5.06,5.06,0,0,1,2.09,1.6,5.12,5.12,0,0,1,.91,1.91A4.75,4.75,0,0,1,208.14,262.5Z"/><path class="cls-13" d="M209.77,271.53a3.15,3.15,0,0,1,0,.44,5,5,0,0,0-.63-2,4.13,4.13,0,0,0-.65-.9,4.94,4.94,0,0,0-2.43-1.5,4.64,4.64,0,0,0-1.35-.2,1.88,1.88,0,0,0-.34,0,3.7,3.7,0,0,0-1,.16,4.68,4.68,0,0,0-1.69.79,4.11,4.11,0,0,0-.5.42,5,5,0,0,0-1.58,3.18,3.15,3.15,0,0,1,0-.44,5,5,0,0,1,1.18-3.26l.16-.17a4.68,4.68,0,0,1,.77-.7,5.07,5.07,0,0,1,3-1,5,5,0,0,1,1.35.19,4.66,4.66,0,0,1,.77.27,5,5,0,0,1,2.08,1.76,4.79,4.79,0,0,1,.74,1.68h0A5.23,5.23,0,0,1,209.77,271.53Z"/><path class="cls-13" d="M210.44,280.85a5,5,0,0,0-.65-2h0a2.33,2.33,0,0,0-.2-.34,5.1,5.1,0,0,0-2.11-1.79,4.72,4.72,0,0,0-1.24-.39,3.11,3.11,0,0,0-.44-.06,4.92,4.92,0,0,0-2,.24h0a4.48,4.48,0,0,0-1.23.58l-.2.14a5.12,5.12,0,0,0-2.09,3.66,4.71,4.71,0,0,1,0-.92,5,5,0,0,1,1.57-3.27l.15-.14a4.05,4.05,0,0,1,.57-.43,5.06,5.06,0,0,1,4.89-.38,3.73,3.73,0,0,1,.7.4,5,5,0,0,1,1.78,2.05,4.16,4.16,0,0,1,.35,1A4.83,4.83,0,0,1,210.44,280.85Z"/><path class="cls-13" d="M210.28,290.43a4.21,4.21,0,0,0-.09-.62,5,5,0,0,0-.55-1.41,3.5,3.5,0,0,0-.26-.43,5,5,0,0,0-2.27-1.79h0a5.05,5.05,0,0,0-3-.24l-.63.18a2.07,2.07,0,0,0-.34.15,5,5,0,0,0-3,4.15,5.06,5.06,0,0,1,2.38-4.8.75.75,0,0,1,.17-.1,3.68,3.68,0,0,1,.78-.36,3.73,3.73,0,0,1,.63-.18,5,5,0,0,1,3,.24h0a4.7,4.7,0,0,1,.94.5,4.84,4.84,0,0,1,1.75,2,4.76,4.76,0,0,1,.36,1l0,.1A5.36,5.36,0,0,1,210.28,290.43Z"/><path class="cls-13" d="M210.65,298.67a5,5,0,0,0-.51-1.72,1.57,1.57,0,0,0-.14-.25,5,5,0,0,0-1.67-1.77,4.69,4.69,0,0,0-.83-.44h0a5.15,5.15,0,0,0-1.49-.35,5.06,5.06,0,0,0-2.71.52,4.31,4.31,0,0,0-.7.44l-.13.09a5.14,5.14,0,0,0-2,3.55,5.53,5.53,0,0,1,0-.91,5.07,5.07,0,0,1,1.38-3.08,2.37,2.37,0,0,1,.41-.37.85.85,0,0,1,.17-.16,5.09,5.09,0,0,1,5.87-.26,4.58,4.58,0,0,1,.59.45,5.11,5.11,0,0,1,1.52,2.3c0,.11.05.21.07.32A4.7,4.7,0,0,1,210.65,298.67Z"/><path class="cls-13" d="M210.67,306.92a3.15,3.15,0,0,1,0,.44,4.93,4.93,0,0,0-.55-1.83l-.08-.16a5,5,0,0,0-1.76-1.82,4.21,4.21,0,0,0-1-.48,5,5,0,0,0-3.29,0,4.34,4.34,0,0,0-.93.42.21.21,0,0,0-.1.06,5.11,5.11,0,0,0-2.39,3.81,3.15,3.15,0,0,1,0-.44,5.08,5.08,0,0,1,1.77-3.86c.13-.12.28-.22.42-.33a2,2,0,0,1,.23-.14,5,5,0,0,1,5.35,0,3.7,3.7,0,0,1,.65.47,5,5,0,0,1,1.51,2.26,1.64,1.64,0,0,1,.1.38A4.49,4.49,0,0,1,210.67,306.92Z"/><path class="cls-13" d="M210.13,314.31a3.29,3.29,0,0,1,0,.45,3,3,0,0,0-.09-.52,5.23,5.23,0,0,0-1.22-2.41,5,5,0,0,0-.6-.54,5,5,0,0,0-3.15-1.1,5.09,5.09,0,0,0-2.52.66l-.1.06a4.78,4.78,0,0,0-.59.41,5.08,5.08,0,0,0-1.86,3.44,3.29,3.29,0,0,1,0-.45,5.08,5.08,0,0,1,1.44-3.54,3.47,3.47,0,0,1,.45-.41,6.27,6.27,0,0,1,.59-.42,5,5,0,0,1,2.62-.72,5.11,5.11,0,0,1,3.75,1.65A5.12,5.12,0,0,1,210,313.1a3.86,3.86,0,0,1,.15,1.08A.62.62,0,0,1,210.13,314.31Z"/><path class="cls-13" d="M209.77,323a3.29,3.29,0,0,1,0,.45,5,5,0,0,0-.47-1.68,2.85,2.85,0,0,0-.16-.3,5.06,5.06,0,0,0-1.59-1.73,4.92,4.92,0,0,0-1-.53,5,5,0,0,0-1.82-.33,4.63,4.63,0,0,0-1.45.22h0a4.16,4.16,0,0,0-.85.33,1.18,1.18,0,0,0-.19.1,5,5,0,0,0-2.56,3.92,3.29,3.29,0,0,1,0-.45,5.07,5.07,0,0,1,1.94-4,4.7,4.7,0,0,1,.54-.37l.11-.06a5,5,0,0,1,2.5-.66,5.07,5.07,0,0,1,2.84.87,4.26,4.26,0,0,1,.66.53,4.92,4.92,0,0,1,1.39,2.3.38.38,0,0,1,.05.19A4.75,4.75,0,0,1,209.77,323Z"/><path class="cls-13" d="M207.82,334.56a4.92,4.92,0,0,0,.32-1.77,5.15,5.15,0,0,0-.38-2c-.09-.19-.18-.37-.28-.55a5.21,5.21,0,0,0-1.28-1.48,4.51,4.51,0,0,0-1.26-.73h-.06a4.71,4.71,0,0,0-1.83-.37h-.27a4.25,4.25,0,0,0-.88.13,1.64,1.64,0,0,0-.38.1,5.1,5.1,0,0,0-2.7,2,5,5,0,0,1,2.11-2.57,5.32,5.32,0,0,1,.67-.35h.05a4.84,4.84,0,0,1,1.94-.39,5.06,5.06,0,0,1,3.08,1,3.88,3.88,0,0,1,.66.62,4.9,4.9,0,0,1,1.22,2.29,4.44,4.44,0,0,1,.1.62,4.53,4.53,0,0,1,0,.52A5.11,5.11,0,0,1,207.82,334.56Z"/><path class="cls-13" d="M206.58,338.88a3.93,3.93,0,0,1-.06.69,5,5,0,0,1-2,3.35,5,5,0,0,0,1-3.08v-.07a5.13,5.13,0,0,0-.57-2.28.42.42,0,0,0-.09-.16,3.62,3.62,0,0,0-.41-.61,5,5,0,0,0-4-2,3.35,3.35,0,0,0-.63.05,1.2,1.2,0,0,0-.33,0,4.06,4.06,0,0,0-1,.3,4.88,4.88,0,0,0-1.08.64,4.87,4.87,0,0,1,.93-.94,3.74,3.74,0,0,1,.83-.52,3.3,3.3,0,0,1,.73-.3,5,5,0,0,1,1.55-.24,5.07,5.07,0,0,1,4.37,2.49,4.14,4.14,0,0,1,.29.55,5,5,0,0,1,.42,2h0A.28.28,0,0,1,206.58,338.88Z"/><path class="cls-13" d="M202.85,346a4.82,4.82,0,0,1-.08.86.44.44,0,0,1,0,.1,5.08,5.08,0,0,1-5,4.13,4.41,4.41,0,0,1-1-.1,5,5,0,0,0,4.08-4.36h0a3.24,3.24,0,0,0,0-.62,4.59,4.59,0,0,0-.12-1.06,4.86,4.86,0,0,0-.34-1.06h0a1.93,1.93,0,0,0-.19-.38,5.11,5.11,0,0,0-2.85-2.35l-.55-.14h0v0a2.8,2.8,0,0,1,.59-.07,1.62,1.62,0,0,1,.31,0,5.08,5.08,0,0,1,4.64,3,2.91,2.91,0,0,1,.22.6A4.67,4.67,0,0,1,202.85,346Z"/><path class="cls-13" d="M194.2,349.62a4.26,4.26,0,0,1-.13,1.13,3,3,0,0,1-.14.51,5.08,5.08,0,0,1-4.82,3.45l-.44,0a5.09,5.09,0,0,0,4.51-4.36h0a.3.3,0,0,0,0-.13h0a3.43,3.43,0,0,0,0-.56,5,5,0,0,0-.54-2.28l-.12-.22a5,5,0,0,0-1.79-1.85,5.13,5.13,0,0,0-2.12-.71,3.15,3.15,0,0,1,.44,0,4.91,4.91,0,0,1,1.76.32,4.76,4.76,0,0,1,1.79,1.12h0a1.82,1.82,0,0,1,.27.29,5.06,5.06,0,0,1,1.27,3.35Z"/><path class="cls-13" d="M137,247.55a.15.15,0,0,1,0,.07,4.94,4.94,0,0,1-.41,1.66h0a3,3,0,0,1-.23.44,5,5,0,0,1-2.35,2.18h0a.47.47,0,0,0-.12-.09,5.1,5.1,0,0,0,1.92-2.36,5.17,5.17,0,0,0,.34-1.47.13.13,0,0,0,0-.06v-.08a4.65,4.65,0,0,0-.06-1.11,5.13,5.13,0,0,0-5.85-4.19l-.51.11a5,5,0,0,1,4.12-.11,5.06,5.06,0,0,1,3.1,3.87A4.82,4.82,0,0,1,137,247.55Z"/><path class="cls-13" d="M135,258.74a5.12,5.12,0,0,0,.4-3,4.86,4.86,0,0,0-.52-1.53l-.06-.14a5.18,5.18,0,0,0-1.77-1.83l-.05,0a5,5,0,0,0-3.45-.66l-.27.06a3.72,3.72,0,0,0-.82.25l-.09,0a5.22,5.22,0,0,0-2.22,1.85,5.19,5.19,0,0,1,1.82-2.12l.3-.18a3.81,3.81,0,0,1,.45-.23,5.15,5.15,0,0,1,1.23-.37,5,5,0,0,1,3.9,1,.47.47,0,0,1,.12.09h0a5,5,0,0,1,1.51,2,4.09,4.09,0,0,1,.26.84,2.61,2.61,0,0,1,.06.27A5.15,5.15,0,0,1,135,258.74Z"/><path class="cls-13" d="M136.44,265.84a4.94,4.94,0,0,0,0-1.21,5.06,5.06,0,0,0-.58-1.65,3.48,3.48,0,0,0-.34-.51,4.9,4.9,0,0,0-2.2-1.72,2.55,2.55,0,0,0-.53-.18,4.82,4.82,0,0,0-2.21-.13,5,5,0,0,0-1.16.34,4.32,4.32,0,0,0-.94.52,1.71,1.71,0,0,0-.27.2,5.09,5.09,0,0,0-1.62,2.34,5,5,0,0,1,1.21-2.88s0,0,0,0a7.53,7.53,0,0,1,.57-.56,5.18,5.18,0,0,1,2.42-1.11,5,5,0,0,1,3.23.54.78.78,0,0,1,.2.11,5.09,5.09,0,0,1,2.44,3.54.69.69,0,0,1,0,.13A4.94,4.94,0,0,1,136.44,265.84Z"/><path class="cls-13" d="M138.61,272.37a4.59,4.59,0,0,0-.38-.88,5.37,5.37,0,0,0-.82-1.09A5,5,0,0,0,135,269a4.81,4.81,0,0,0-1.2-.15h0a4.84,4.84,0,0,0-.84.07,4.92,4.92,0,0,0-2.78,1.44,6.44,6.44,0,0,0-.48.56,5.05,5.05,0,0,0-1,3.52,3.77,3.77,0,0,1-.19-.77,4.93,4.93,0,0,1,.61-3.37,1.58,1.58,0,0,1,.15-.24,4.69,4.69,0,0,1,.82-1,5,5,0,0,1,2.61-1.28,4.89,4.89,0,0,1,2.35.17,4.63,4.63,0,0,1,.56.21,5.14,5.14,0,0,1,2.08,1.7,5.36,5.36,0,0,1,.79,1.73c0,.12.06.26.08.38Z"/><path class="cls-13" d="M141.09,280.05a3.18,3.18,0,0,0-.16-.32,5,5,0,0,0-.89-1.15,4.81,4.81,0,0,0-2.38-1.3,4.52,4.52,0,0,0-1.17-.15h-.18a5,5,0,0,0-2.59.81,4.89,4.89,0,0,0-1.1,1,4.25,4.25,0,0,0-.46.63,5,5,0,0,0-.76,2.67,5.32,5.32,0,0,0,.16,1.27,5,5,0,0,1-.47-2.13,4.94,4.94,0,0,1,.59-2.36l.18-.32a4.76,4.76,0,0,1,.65-.83,5,5,0,0,1,3.67-1.58,4.57,4.57,0,0,1,1,.11,5.24,5.24,0,0,1,.88.26,5.12,5.12,0,0,1,2.91,3.14A1.38,1.38,0,0,1,141.09,280.05Z"/><path class="cls-13" d="M143.72,288.45a4.54,4.54,0,0,0-.52-1.29,4.13,4.13,0,0,0-.33-.52,5,5,0,0,0-2.1-1.66,4.1,4.1,0,0,0-.77-.26,5.06,5.06,0,0,0-5,1.59,3.75,3.75,0,0,0-.47.6,1.91,1.91,0,0,0-.16.27,5,5,0,0,0-.65,2.48,1,1,0,0,0,0,.17,4.66,4.66,0,0,1-.15-1.18,5.24,5.24,0,0,1,.41-2l0,0v0a3.31,3.31,0,0,1,.27-.53h0a5.09,5.09,0,0,1,6.32-2.14c.2.09.41.19.6.3a5.06,5.06,0,0,1,1.92,1.95,4.14,4.14,0,0,1,.46,1.18A4.21,4.21,0,0,1,143.72,288.45Z"/><path class="cls-13" d="M146.5,296.07a4.31,4.31,0,0,0-.41-.93,4.72,4.72,0,0,0-.89-1.16,5.05,5.05,0,0,0-2.34-1.29,4.45,4.45,0,0,0-1-.13h-.23a5,5,0,0,0-3.26,1.18,4.29,4.29,0,0,0-.82.88h0a3.82,3.82,0,0,0-.4.64,4.93,4.93,0,0,0-.6,2.39c0,.13,0,.26,0,.38a4.78,4.78,0,0,1-.25-1.57,4.91,4.91,0,0,1,.32-1.76,1.89,1.89,0,0,1,.13-.33,4.59,4.59,0,0,1,.46-.81,5.09,5.09,0,0,1,4.18-2.19,4.92,4.92,0,0,1,1.39.2,4.69,4.69,0,0,1,.6.2,5.19,5.19,0,0,1,3,3.55A4.8,4.8,0,0,1,146.5,296.07Z"/><path class="cls-13" d="M148.79,305a4.43,4.43,0,0,1-.1,1,5,5,0,0,0-.65-2.29,4.42,4.42,0,0,0-.56-.8,5.06,5.06,0,0,0-3.87-1.8h0a5.12,5.12,0,0,0-2.14.48,4.89,4.89,0,0,0-1.35.94,2.89,2.89,0,0,0-.38.4,5,5,0,0,0-1.11,2.3,1.34,1.34,0,0,1,0-.2,5,5,0,0,1,.73-2.62l.09-.15a5.63,5.63,0,0,1,.68-.85,5.08,5.08,0,0,1,3.6-1.48,4.52,4.52,0,0,1,1.32.18,3.65,3.65,0,0,1,.92.35,5,5,0,0,1,2,1.77,5.3,5.3,0,0,1,.83,2.8Z"/><path class="cls-13" d="M151.38,312.46a3.23,3.23,0,0,0-.31-.65A4.63,4.63,0,0,0,150,310.5a4.84,4.84,0,0,0-2.42-1.18,4.23,4.23,0,0,0-.94-.1h-.16a5.06,5.06,0,0,0-2.65.83,4.76,4.76,0,0,0-1.18,1.1,3.63,3.63,0,0,0-.5.73,5.11,5.11,0,0,0-.61,2.42,5.54,5.54,0,0,0,0,.59,5.11,5.11,0,0,1-.34-1.85,4.83,4.83,0,0,1,.33-1.79,2.39,2.39,0,0,1,.15-.37,4.39,4.39,0,0,1,.63-1,5.08,5.08,0,0,1,4-1.92,4.93,4.93,0,0,1,1.34.18l.55.17a5.07,5.07,0,0,1,2.08,1.57,4.84,4.84,0,0,1,1,2.06A3,3,0,0,1,151.38,312.46Z"/><path class="cls-13" d="M154.36,319a4.92,4.92,0,0,0-1-.94,5,5,0,0,0-2.36-.84h-.14a5,5,0,0,0-1.93.23h0a3.83,3.83,0,0,0-.95.42h0a4.91,4.91,0,0,0-1.63,1.51,4.41,4.41,0,0,0-.58,1.07,5.25,5.25,0,0,0-.32,1.34,5.1,5.1,0,0,0,.52,2.77,5.06,5.06,0,0,1-1-4.48,1.83,1.83,0,0,1,.08-.25,3.91,3.91,0,0,1,.24-.65,5,5,0,0,1,.68-1.07,5.11,5.11,0,0,1,4.36-1.85,4.69,4.69,0,0,1,.82.14l.18,0a5.17,5.17,0,0,1,2.18,1.3h0A4.6,4.6,0,0,1,154.36,319Z"/><path class="cls-13" d="M158.48,326.83a5.13,5.13,0,0,0-1.19-1.18,4.89,4.89,0,0,0-2.37-.89,3.48,3.48,0,0,0-.57,0,3.84,3.84,0,0,0-.76.07,4.91,4.91,0,0,0-3,1.59,4.68,4.68,0,0,0-.7,1,4.41,4.41,0,0,0-.43,1,4.9,4.9,0,0,0-.21,1.43,5.07,5.07,0,0,0,.56,2.33,5.05,5.05,0,0,1-.94-2.95A4.91,4.91,0,0,1,149,328a5.57,5.57,0,0,1,.25-.79,4.73,4.73,0,0,1,.43-.8,5,5,0,0,1,4.28-2.35h.14a3.6,3.6,0,0,1,1,.15,4.75,4.75,0,0,1,2.18,1.15A4.56,4.56,0,0,1,158.48,326.83Z"/><path class="cls-13" d="M162.21,333.65a4.51,4.51,0,0,0-.93-.92,5,5,0,0,0-2.22-1,3,3,0,0,0-.67-.07h-.18a5,5,0,0,0-4.42,2.58,4.87,4.87,0,0,0-.28.56,4.53,4.53,0,0,0-.29,1,4.62,4.62,0,0,0-.1,1,5.08,5.08,0,0,0,.66,2.51,5.14,5.14,0,0,1-1.13-3.22,5.52,5.52,0,0,1,0-.71,4,4,0,0,1,.15-.7,4.66,4.66,0,0,1,.16-.49,5.11,5.11,0,0,1,4.73-3.19,4.19,4.19,0,0,1,.95.1,2.59,2.59,0,0,1,.55.13,5.16,5.16,0,0,1,2.08,1.23A5.27,5.27,0,0,1,162.21,333.65Z"/><path class="cls-13" d="M166.4,338.41a4.62,4.62,0,0,0-1.23-.48,5.32,5.32,0,0,0-1.2-.14,4,4,0,0,0-.78.07,3,3,0,0,0-.73.16,5.1,5.1,0,0,0-3.2,2.92h0a6.25,6.25,0,0,0-.26.87,5.49,5.49,0,0,0-.11,1.08,4.9,4.9,0,0,0,.06.77,5,5,0,0,0,1.69,3.07,5,5,0,0,1-2.52-4.86,3.86,3.86,0,0,1,.06-.49,2.1,2.1,0,0,1,.06-.24,5.07,5.07,0,0,1,4.46-3.87,3.71,3.71,0,0,1,.58,0,6.4,6.4,0,0,1,.86.08,5.3,5.3,0,0,1,1,.3A4.73,4.73,0,0,1,166.4,338.41Z"/><path class="cls-13" d="M174.14,343.82a5,5,0,0,0-3.49-1.39h-.25a4.68,4.68,0,0,0-1.35.25h0a3.74,3.74,0,0,0-.85.36,5.06,5.06,0,0,0-2.58,3.75,4.17,4.17,0,0,0-.06.71,1.34,1.34,0,0,0,0,.2,5,5,0,0,0,1,2.8,4.6,4.6,0,0,1-.55-.62h0a4.85,4.85,0,0,1-.94-2,3.32,3.32,0,0,1-.1-.77,1.42,1.42,0,0,1,0-.29,5.08,5.08,0,0,1,3.33-4.77,3.24,3.24,0,0,1,.69-.21,4.46,4.46,0,0,1,1-.11h.1A5.05,5.05,0,0,1,174.14,343.82Z"/><path class="cls-13" d="M176.72,354.93a5,5,0,0,0,2,.62,6.07,6.07,0,0,1-1.87-.42,5.66,5.66,0,0,1-1.84-1.21,4.78,4.78,0,0,1-1.35-2.29,4.63,4.63,0,0,1-.14-1.11v0a4.81,4.81,0,0,1,1.6-3.54,4.52,4.52,0,0,1,.53-.43,4.35,4.35,0,0,1,.74-.46,5.84,5.84,0,0,1,2.33-.63,4.72,4.72,0,0,0-2.21.77,4.05,4.05,0,0,0-.81.62,6.5,6.5,0,0,0-.64.75,4.93,4.93,0,0,0-.85,2.16,4,4,0,0,0,0,1.44,5,5,0,0,0,1.11,2.58A5.55,5.55,0,0,0,176.72,354.93Z"/><path class="cls-13" d="M184.87,350.49a4.42,4.42,0,0,1-.26,1.5h0a4.36,4.36,0,0,1-.39.85h0a5.69,5.69,0,0,1-4.45,2.69,5.06,5.06,0,0,0,4.15-3.07h0a4.37,4.37,0,0,0,.34-1.3h0a3.71,3.71,0,0,0,.06-.67,5.29,5.29,0,0,0-.24-1.55v0a4.42,4.42,0,0,0-.42-.94,3.13,3.13,0,0,0-.21-.34,5.11,5.11,0,0,0-3-2.1,5.71,5.71,0,0,1,3.18,1.77,4.35,4.35,0,0,1,.63.85l.19.34h0A4.74,4.74,0,0,1,184.87,350.49Z"/></g><g id="pearls"><path class="cls-14" d="M142.23,241.89c-1.37,2.75-2.53,4.57-3,4.85l-2.28.81a4.82,4.82,0,0,0-.06-1.13,5.06,5.06,0,0,0-3.1-3.87,5.07,5.07,0,0,1,8.44-.66Z"/><path class="cls-14" d="M190,248.66a5,5,0,0,0,.6,2.41c-2.25-1-3.74-1.82-4.22-2.49a13.37,13.37,0,0,1-1.81-3.83,5.1,5.1,0,0,1,4.26-2.32,5,5,0,0,1,3.83,1.76A5.09,5.09,0,0,0,190,248.66Z"/><path class="cls-14" d="M201.1,248.66a3.43,3.43,0,0,1,0,.65,4.58,4.58,0,0,0-.53,0l-.43,0h0a5,5,0,0,0-4.33,3.29h0a2.8,2.8,0,0,0-.13.41,3.66,3.66,0,0,0-.14.72,5.13,5.13,0,0,1-3.63-2.12s0,0,0,0a.38.38,0,0,1-.09-.13,5,5,0,0,1-.83-2.8,5.06,5.06,0,0,1,4.57-5.06h.07a3.29,3.29,0,0,1,.45,0A5.09,5.09,0,0,1,201.1,248.66Z"/><path class="cls-14" d="M205.61,255.32v.07a3.83,3.83,0,0,1-.08.83,4.8,4.8,0,0,1-.54,1.57,5.52,5.52,0,0,0-.53-.18,5.06,5.06,0,0,0-1.41-.2,5.12,5.12,0,0,0-3.94,1.85,6.05,6.05,0,0,0-.53.79,5,5,0,0,1-.57-.28h0a5,5,0,0,1-2.57-4.42,3.29,3.29,0,0,1,0-.45.08.08,0,0,1,0-.07,4.71,4.71,0,0,1,.23-1.08,0,0,0,0,1,0,0,3.72,3.72,0,0,1,.24-.58,3.36,3.36,0,0,1,.22-.42,5.07,5.07,0,0,1,3.71-2.42,4.63,4.63,0,0,1,.65,0h.32a5.09,5.09,0,0,1,4.75,4.56v.07C205.6,255,205.61,255.17,205.61,255.32Z"/><path class="cls-14" d="M208.14,263.47a5,5,0,0,1-1.34,3.43,4.66,4.66,0,0,0-.77-.27,5,5,0,0,0-1.35-.19,5.07,5.07,0,0,0-3,1,4.68,4.68,0,0,0-.77.7l-.38-.2a5.06,5.06,0,0,1-2.59-4.43,3.29,3.29,0,0,1,0-.45.08.08,0,0,1,0-.07,4.85,4.85,0,0,1,.75-2.19,5,5,0,0,1,.37-.53,4.89,4.89,0,0,1,.84-.8,5,5,0,0,1,3.1-1.05l.57,0h0a3.82,3.82,0,0,1,.83.17,5,5,0,0,1,2.3,1.41,4.61,4.61,0,0,1,.72,1,5,5,0,0,1,.63,2,.08.08,0,0,1,0,.07A3.29,3.29,0,0,1,208.14,263.47Z"/><path class="cls-14" d="M209.77,272.5a5.08,5.08,0,0,1-1.6,3.69,3.73,3.73,0,0,0-.7-.4,5.06,5.06,0,0,0-4.89.38,4.05,4.05,0,0,0-.57.43l-.15.14a5.08,5.08,0,0,1-2.27-4.24,3.29,3.29,0,0,1,0-.45.11.11,0,0,1,0-.08,5,5,0,0,1,1.58-3.18,4.11,4.11,0,0,1,.5-.42,4.68,4.68,0,0,1,1.69-.79,3.7,3.7,0,0,1,1-.16,1.88,1.88,0,0,1,.34,0,4.64,4.64,0,0,1,1.35.2,4.94,4.94,0,0,1,2.43,1.5,4.13,4.13,0,0,1,.65.9,5,5,0,0,1,.63,2,.11.11,0,0,1,0,.08A3.29,3.29,0,0,1,209.77,272.5Z"/><path class="cls-14" d="M210.44,281.81a5.07,5.07,0,0,1-2.39,3.91,4.7,4.7,0,0,0-.94-.5h0a5,5,0,0,0-3-.24,3.73,3.73,0,0,0-.63.18,3.68,3.68,0,0,0-.78.36.75.75,0,0,0-.17.1,5.06,5.06,0,0,1-2.24-4.65v0a5.12,5.12,0,0,1,2.09-3.66l.2-.14a4.48,4.48,0,0,1,1.23-.58h0a4.92,4.92,0,0,1,2-.24,3.11,3.11,0,0,1,.44.06,4.72,4.72,0,0,1,1.24.39,5.1,5.1,0,0,1,2.11,1.79,2.33,2.33,0,0,1,.2.34h0a5,5,0,0,1,.65,2v0A5.77,5.77,0,0,1,210.44,281.81Z"/><path class="cls-14" d="M208.92,294.41a4.58,4.58,0,0,0-.59-.45,5.09,5.09,0,0,0-5.87.26.85.85,0,0,0-.17.16,2.37,2.37,0,0,0-.41.37,5,5,0,0,1-1.64-2.73,5.32,5.32,0,0,1-.09-1.53v-.07a5,5,0,0,1,3-4.15,2.07,2.07,0,0,1,.34-.15l.63-.18a5.05,5.05,0,0,1,3,.24h0a5,5,0,0,1,2.27,1.79,3.5,3.5,0,0,1,.26.43,5,5,0,0,1,.55,1.41,4.21,4.21,0,0,1,.09.62v0A5.06,5.06,0,0,1,208.92,294.41Z"/><path class="cls-14" d="M210.65,298.67v0a4.71,4.71,0,0,1,0,.92,5.05,5.05,0,0,1-1.75,3.43,3.7,3.7,0,0,0-.65-.47,5,5,0,0,0-5.35,0,2,2,0,0,0-.23.14c-.14.11-.29.21-.42.33a5.09,5.09,0,0,1-1.75-4.26v-.06a5.14,5.14,0,0,1,2-3.55l.13-.09a4.31,4.31,0,0,1,.7-.44,5.06,5.06,0,0,1,2.71-.52,5.15,5.15,0,0,1,1.49.35h0a4.69,4.69,0,0,1,.83.44A5,5,0,0,1,210,296.7a1.57,1.57,0,0,1,.14.25A5,5,0,0,1,210.65,298.67Z"/><path class="cls-14" d="M210.67,307.88a5.09,5.09,0,0,1-1.44,3.55,4.71,4.71,0,0,0-.44-.56,5.11,5.11,0,0,0-3.75-1.65,5,5,0,0,0-2.62.72,6.27,6.27,0,0,0-.59.42,3.47,3.47,0,0,0-.45.41,5.05,5.05,0,0,1-.9-2.89,3.15,3.15,0,0,1,0-.44s0,0,0-.06v0a5.11,5.11,0,0,1,2.39-3.81.21.21,0,0,1,.1-.06,4.34,4.34,0,0,1,.93-.42,5,5,0,0,1,3.29,0,4.21,4.21,0,0,1,1,.48,5,5,0,0,1,1.76,1.82l.08.16a4.93,4.93,0,0,1,.55,1.83v0s0,0,0,.06A3.15,3.15,0,0,1,210.67,307.88Z"/><path class="cls-14" d="M210.13,315.28a5.09,5.09,0,0,1-1.95,4,4.26,4.26,0,0,0-.66-.53,5.07,5.07,0,0,0-2.84-.87,5,5,0,0,0-2.5.66l-.11.06a4.7,4.7,0,0,0-.54.37,5.08,5.08,0,0,1-1.59-3.7,3.4,3.4,0,0,1,0-.45.06.06,0,0,1,0-.06h0a5.08,5.08,0,0,1,1.86-3.44,4.78,4.78,0,0,1,.59-.41l.1-.06a5.09,5.09,0,0,1,2.52-.66,5,5,0,0,1,3.15,1.1,5,5,0,0,1,.6.54,5.23,5.23,0,0,1,1.22,2.41,3,3,0,0,1,.09.52h0a.06.06,0,0,1,0,.06A3.4,3.4,0,0,1,210.13,315.28Z"/><path class="cls-14" d="M209.77,324a5.06,5.06,0,0,1-2.44,4.34,3.88,3.88,0,0,0-.66-.62,5.06,5.06,0,0,0-3.08-1,4.84,4.84,0,0,0-1.94.39h-.05a5.32,5.32,0,0,0-.67.35,5,5,0,0,1-1.34-3.43,3.29,3.29,0,0,1,0-.45.06.06,0,0,1,0-.06h0a5,5,0,0,1,2.56-3.92,1.18,1.18,0,0,1,.19-.1,4.16,4.16,0,0,1,.85-.33h0a4.63,4.63,0,0,1,1.45-.22,5,5,0,0,1,1.82.33,4.92,4.92,0,0,1,1,.53,5.06,5.06,0,0,1,1.59,1.73,2.85,2.85,0,0,1,.16.3,5,5,0,0,1,.47,1.68h0a.06.06,0,0,1,0,.06A3.29,3.29,0,0,1,209.77,324Z"/><path class="cls-14" d="M208.14,332.79a4.92,4.92,0,0,1-.32,1.77h0a4.93,4.93,0,0,1-1.66,2.24,4.14,4.14,0,0,0-.29-.55,5.07,5.07,0,0,0-4.37-2.49,5,5,0,0,0-1.55.24,3.3,3.3,0,0,0-.73.3,3.74,3.74,0,0,0-.83.52,5.18,5.18,0,0,1-.42-2,5,5,0,0,1,.84-2.81l0,0a5.1,5.1,0,0,1,2.7-2,1.64,1.64,0,0,1,.38-.1,4.25,4.25,0,0,1,.88-.13h.27a4.71,4.71,0,0,1,1.83.37h.06a4.51,4.51,0,0,1,1.26.73,5.21,5.21,0,0,1,1.28,1.48c.1.18.19.36.28.55A5.15,5.15,0,0,1,208.14,332.79Z"/><path class="cls-14" d="M205.61,339.77v.07a5,5,0,0,1-1,3.08h0a4.88,4.88,0,0,1-1.95,1.55,2.91,2.91,0,0,0-.22-.6,5.08,5.08,0,0,0-4.64-3,1.62,1.62,0,0,0-.31,0,2.8,2.8,0,0,0-.59.07h0l.55.14a5.11,5.11,0,0,1,2.85,2.35,1.93,1.93,0,0,1,.19.38h0a4.86,4.86,0,0,1,.34,1.06,4.59,4.59,0,0,1,.12,1.06,3.24,3.24,0,0,1,0,.62h0a5,5,0,0,1-4.08,4.36,4.5,4.5,0,0,1-1,.1,5.94,5.94,0,0,1-1.75-.32,4.26,4.26,0,0,0,.13-1.13,5.06,5.06,0,0,0-1.27-3.35,1.82,1.82,0,0,0-.27-.29h0a4.76,4.76,0,0,0-1.79-1.12,5.06,5.06,0,0,1,4.68-4,4.59,4.59,0,0,1-.12-1.06,5.07,5.07,0,0,1,2-4h0a4.88,4.88,0,0,1,1.08-.64,4.06,4.06,0,0,1,1-.3,1.2,1.2,0,0,1,.33,0,3.35,3.35,0,0,1,.63-.05,5,5,0,0,1,4,2,3.62,3.62,0,0,1,.41.61.42.42,0,0,1,.09.16A5.13,5.13,0,0,1,205.61,339.77Z"/><path class="cls-14" d="M136.09,247.85v.08a.13.13,0,0,1,0,.06,5.17,5.17,0,0,1-.34,1.47,5.1,5.1,0,0,1-1.92,2.36,5,5,0,0,0-3.9-1,5.15,5.15,0,0,0-1.23.37,3.81,3.81,0,0,0-.45.23l-.3.18a4.78,4.78,0,0,1-.74-.68l0,0a5,5,0,0,1-1.16-2.49,5.09,5.09,0,0,1,3.67-5.74h0l.51-.11a5.13,5.13,0,0,1,5.85,4.19A4.65,4.65,0,0,1,136.09,247.85Z"/><path class="cls-14" d="M193.24,349.62a3.43,3.43,0,0,1,0,.56h0a.3.3,0,0,1,0,.13h0a5.09,5.09,0,0,1-4.51,4.36h-.08l-.44,0a4.87,4.87,0,0,1-2.22-.52.82.82,0,0,1-.28-.14h0a5,5,0,0,1-1.41-1.18h0a4.36,4.36,0,0,0,.39-.85h0a4.42,4.42,0,0,0,.26-1.5,4.74,4.74,0,0,0-.44-2h0l-.19-.34a4.35,4.35,0,0,0-.63-.85,5.08,5.08,0,0,1,4.54-2.78,3.15,3.15,0,0,1,.44,0h.08a5.13,5.13,0,0,1,2.12.71,5,5,0,0,1,1.79,1.85l.12.22A5,5,0,0,1,193.24,349.62Z"/><path class="cls-14" d="M135,258.74l-.05.07a4.35,4.35,0,0,1-.71,1.09.78.78,0,0,0-.2-.11,5,5,0,0,0-3.23-.54,5.18,5.18,0,0,0-2.42,1.11,7.53,7.53,0,0,0-.57.56s0,0,0,0a5,5,0,0,1-1.65-7.17s0,0,0,0a5.22,5.22,0,0,1,2.22-1.85l.09,0a3.72,3.72,0,0,1,.82-.25l.27-.06a5,5,0,0,1,3.45.66l.05,0a5.18,5.18,0,0,1,1.77,1.83l.06.14a4.86,4.86,0,0,1,.52,1.53A5.12,5.12,0,0,1,135,258.74Z"/><path class="cls-14" d="M136.44,265.84s0,0,0,0v0a4.73,4.73,0,0,1-.81,2.35,4.63,4.63,0,0,0-.56-.21,4.89,4.89,0,0,0-2.35-.17,5,5,0,0,0-2.61,1.28,4.69,4.69,0,0,0-.82,1,2.44,2.44,0,0,1-.43-.21,5.05,5.05,0,0,1-2.51-3.6,4.83,4.83,0,0,1,.2-2.45,5.09,5.09,0,0,1,1.62-2.34,1.71,1.71,0,0,1,.27-.2,4.32,4.32,0,0,1,.94-.52,5,5,0,0,1,1.16-.34,4.82,4.82,0,0,1,2.21.13,2.55,2.55,0,0,1,.53.18,4.9,4.9,0,0,1,2.2,1.72,3.48,3.48,0,0,1,.34.51,5.06,5.06,0,0,1,.58,1.65A4.94,4.94,0,0,1,136.44,265.84Z"/><path class="cls-14" d="M138.11,276.65a5.24,5.24,0,0,0-.88-.26,4.57,4.57,0,0,0-1-.11,5,5,0,0,0-3.67,1.58,4.76,4.76,0,0,0-.65.83c-.2-.08-.39-.18-.59-.28a5.09,5.09,0,0,1-2.51-3.6c0-.11,0-.22,0-.33a5.05,5.05,0,0,1,1-3.52,6.44,6.44,0,0,1,.48-.56,4.92,4.92,0,0,1,2.78-1.44,4.84,4.84,0,0,1,.84-.07h0a4.81,4.81,0,0,1,1.2.15,5,5,0,0,1,2.42,1.36,5.37,5.37,0,0,1,.82,1.09,5.72,5.72,0,0,1,.58,1.65A5.06,5.06,0,0,1,138.11,276.65Z"/><path class="cls-14" d="M141.58,282.23a5,5,0,0,1-.41,2c-.19-.11-.4-.21-.6-.3a5.09,5.09,0,0,0-6.32,2.14h0a3.31,3.31,0,0,0-.27.53l0,0a5,5,0,0,1-2.37-3.09h0s0,0,0,0h0a5.32,5.32,0,0,1-.16-1.27,5,5,0,0,1,.76-2.67,4.25,4.25,0,0,1,.46-.63,4.89,4.89,0,0,1,1.1-1,5,5,0,0,1,2.59-.81h.18a4.52,4.52,0,0,1,1.17.15,4.81,4.81,0,0,1,2.38,1.3,5,5,0,0,1,.89,1.15,3.18,3.18,0,0,1,.16.32A5,5,0,0,1,141.58,282.23Z"/><path class="cls-14" d="M143.87,289.66a5.07,5.07,0,0,1-.45,2.1,4.69,4.69,0,0,0-.6-.2,4.92,4.92,0,0,0-1.39-.2,5.09,5.09,0,0,0-4.18,2.19,4.59,4.59,0,0,0-.46.81c-.18-.09-.36-.17-.53-.27a5,5,0,0,1-2.57-4.26,1,1,0,0,1,0-.17,5,5,0,0,1,.65-2.48,1.91,1.91,0,0,1,.16-.27,3.75,3.75,0,0,1,.47-.6,5.06,5.06,0,0,1,5-1.59,4.1,4.1,0,0,1,.77.26,5,5,0,0,1,2.1,1.66,4.13,4.13,0,0,1,.33.52,4.54,4.54,0,0,1,.52,1.29h0A4.75,4.75,0,0,1,143.87,289.66Z"/><path class="cls-14" d="M146.75,297.64a5.05,5.05,0,0,1-.81,2.77,3.65,3.65,0,0,0-.92-.35,4.52,4.52,0,0,0-1.32-.18,5.08,5.08,0,0,0-3.6,1.48,5.63,5.63,0,0,0-.68.85l-.27-.14a5.09,5.09,0,0,1-2.56-4v0c0-.12,0-.25,0-.38a4.93,4.93,0,0,1,.6-2.39,3.82,3.82,0,0,1,.4-.64h0a4.29,4.29,0,0,1,.82-.88,5,5,0,0,1,3.26-1.18h.23a4.45,4.45,0,0,1,1,.13A5.05,5.05,0,0,1,145.2,294a4.72,4.72,0,0,1,.89,1.16,4.31,4.31,0,0,1,.41.93A4.78,4.78,0,0,1,146.75,297.64Z"/><path class="cls-14" d="M148.7,306.15a5,5,0,0,1-.48,2.16l-.55-.17a4.93,4.93,0,0,0-1.34-.18,5.08,5.08,0,0,0-4,1.92,4.39,4.39,0,0,0-.63,1,3.41,3.41,0,0,1-.61-.29,5.12,5.12,0,0,1-2.5-5.41h0a5,5,0,0,1,1.11-2.3,2.89,2.89,0,0,1,.38-.4,4.89,4.89,0,0,1,1.35-.94,5.12,5.12,0,0,1,2.14-.48h0a5.06,5.06,0,0,1,3.87,1.8,4.42,4.42,0,0,1,.56.8,5,5,0,0,1,.65,2.29h0A1.28,1.28,0,0,1,148.7,306.15Z"/><path class="cls-14" d="M151.74,314.31a4.77,4.77,0,0,1-.48,2.14l-.18,0a4.69,4.69,0,0,0-.82-.14,5.11,5.11,0,0,0-4.36,1.85,5,5,0,0,0-.68,1.07,4.55,4.55,0,0,1-1.09-.45,5.09,5.09,0,0,1-2.55-3.84,5.54,5.54,0,0,1,0-.59,5.11,5.11,0,0,1,.61-2.42,3.63,3.63,0,0,1,.5-.73,4.76,4.76,0,0,1,1.18-1.1,5.06,5.06,0,0,1,2.65-.83h.16a4.23,4.23,0,0,1,.94.1A4.84,4.84,0,0,1,150,310.5a4.63,4.63,0,0,1,1.06,1.31,3.23,3.23,0,0,1,.31.65h0A4.94,4.94,0,0,1,151.74,314.31Z"/><path class="cls-14" d="M155.53,322.79a4.82,4.82,0,0,1-.37,1.46,3.6,3.6,0,0,0-1-.15H154a5,5,0,0,0-4.28,2.35,4.73,4.73,0,0,0-.43.8,4.7,4.7,0,0,1-1.29-.51,5.16,5.16,0,0,1-2.05-2.14v0a5.1,5.1,0,0,1-.52-2.77,5.25,5.25,0,0,1,.32-1.34,4.41,4.41,0,0,1,.58-1.07,4.91,4.91,0,0,1,1.63-1.51h0a3.83,3.83,0,0,1,.95-.42h0a5,5,0,0,1,1.93-.23H151a5,5,0,0,1,2.36.84,4.92,4.92,0,0,1,1,.94v0a3.47,3.47,0,0,1,.52.75A5,5,0,0,1,155.53,322.79Z"/><path class="cls-14" d="M159.45,329.81a4.67,4.67,0,0,1-.21,1.41,2.59,2.59,0,0,0-.55-.13,4.19,4.19,0,0,0-.95-.1,5.11,5.11,0,0,0-4.73,3.19,4.66,4.66,0,0,0-.16.49,4.25,4.25,0,0,1-1-.43,5,5,0,0,1-2-2,.21.21,0,0,1,0-.06,5.07,5.07,0,0,1-.56-2.33,4.9,4.9,0,0,1,.21-1.43,4.41,4.41,0,0,1,.43-1,4.68,4.68,0,0,1,.7-1,4.91,4.91,0,0,1,3-1.59,3.84,3.84,0,0,1,.76-.07,3.48,3.48,0,0,1,.57,0,4.89,4.89,0,0,1,2.37.89,5.13,5.13,0,0,1,1.19,1.18,4.32,4.32,0,0,1,.31.48A5.21,5.21,0,0,1,159.45,329.81Z"/><path class="cls-14" d="M163.3,336.79a3.67,3.67,0,0,1,0,.46,3.71,3.71,0,0,0-.58,0,5.07,5.07,0,0,0-4.46,3.87,2.1,2.1,0,0,0-.06.24,3.86,3.86,0,0,0-.06.49,4.8,4.8,0,0,1-2.4-.66,4.89,4.89,0,0,1-1.91-1.89l0,0a5.08,5.08,0,0,1-.66-2.51,4.62,4.62,0,0,1,.1-1,4.53,4.53,0,0,1,.29-1,4.87,4.87,0,0,1,.28-.56,5,5,0,0,1,4.42-2.58h.18a3,3,0,0,1,.67.07,5,5,0,0,1,2.22,1,4.51,4.51,0,0,1,.93.92h0a3.34,3.34,0,0,1,.43.63A5,5,0,0,1,163.3,336.79Z"/><path class="cls-14" d="M169,341.83a3.24,3.24,0,0,0-.69.21,5.08,5.08,0,0,0-3.33,4.77,1.42,1.42,0,0,0,0,.29,3.32,3.32,0,0,0,.1.77A5.49,5.49,0,0,1,164,348a5.14,5.14,0,0,1-2.5-.65,4.6,4.6,0,0,1-.81-.58s0,0,0,0a5,5,0,0,1-1.69-3.07,4.9,4.9,0,0,1-.06-.77,5.49,5.49,0,0,1,.11-1.08,6.25,6.25,0,0,1,.26-.87h0a5.1,5.1,0,0,1,3.2-2.92,3,3,0,0,1,.73-.16,4,4,0,0,1,.78-.07,5.32,5.32,0,0,1,1.2.14,4.62,4.62,0,0,1,1.23.48h0a5.2,5.2,0,0,1,2,1.95A5,5,0,0,1,169,341.83Z"/><path class="cls-14" d="M173.51,350.49v0a4.63,4.63,0,0,0,.14,1.11,5,5,0,0,1-3,1,5.07,5.07,0,0,1-2.5-.66,5.14,5.14,0,0,1-1.61-1.43,5,5,0,0,1-1-2.8,1.34,1.34,0,0,1,0-.2,4.17,4.17,0,0,1,.06-.71,5.06,5.06,0,0,1,2.58-3.75,3.74,3.74,0,0,1,.85-.36h0a4.68,4.68,0,0,1,1.35-.25h.25a5,5,0,0,1,3.49,1.39,4.79,4.79,0,0,1,1,1.2,4.91,4.91,0,0,1,.55,1.5,4.52,4.52,0,0,0-.53.43A4.81,4.81,0,0,0,173.51,350.49Z"/><path class="cls-14" d="M184.32,350.49a3.71,3.71,0,0,1-.06.67h0a4.37,4.37,0,0,1-.34,1.3h0a5.06,5.06,0,0,1-4.15,3.07l-.54,0a4.41,4.41,0,0,1-.52,0,5,5,0,0,1-2-.62,5.55,5.55,0,0,1-1.42-1.18,5,5,0,0,1-1.11-2.58,4,4,0,0,1,0-1.44,4.93,4.93,0,0,1,.85-2.16,6.5,6.5,0,0,1,.64-.75,4.05,4.05,0,0,1,.81-.62,4.72,4.72,0,0,1,2.21-.77,4.41,4.41,0,0,1,.52,0,5.57,5.57,0,0,1,1.08.11l.12,0a5.11,5.11,0,0,1,3,2.1,3.13,3.13,0,0,1,.21.34,4.42,4.42,0,0,1,.42.94v0A5.29,5.29,0,0,1,184.32,350.49Z"/></g></svg>