<svg data-name="trAvatar" xmlns="http://www.w3.org/2000/svg" id="avatar" viewBox="0 0 142.77 167.8"><defs><style>.cls-3{fill:#010101}.cls-4{fill:#231f20}.cls-6{fill:#c4c4c4}.cls-8{fill:#e2ab90}.cls-9{fill:#fff}.cls-11{fill:#84331b}.cls-12{fill:#c98c73}</style></defs><path d="M0 0h142.77v167.41H0z" style="fill:none"/><g id="skin"><path id="arms" d="M69.81 153.85c.11.19.24.36.4.52.01-.11.04-.22.07-.32-.17-.05-.32-.11-.46-.2Zm2.88 3.51c-.4 0-.77-.11-1.1-.3.25.46.66.82 1.15 1.02-.06-.23-.06-.47-.05-.72m4.73-.69c.12.21.21.43.25.67.15-.03.3-.05.46-.05-.19-.25-.43-.46-.71-.62m3.08 2.14c.12.21.21.45.25.69.11-.08.22-.15.34-.21-.17-.19-.37-.35-.59-.48m9.98-1.86h.03zm-2.62-54.46c.05-.07.09-.11.11-.15-.03.04-.06.08-.11.15m.28 13.54v.23zm-28.9 8.22c.04.07.08.14.13.21.02-.04.04-.07.07-.11-.07-.02-.13-.06-.2-.1m4.73 14.8s.06.09.08.13c0-.02.02-.05.04-.07zm2.29 7.67q.165.285.39.51c.03-.1.06-.2.11-.3-.18-.05-.34-.12-.5-.21m-1.39-3.75q.09.165.21.3c.02-.06.05-.11.07-.17-.1-.04-.19-.08-.28-.13m-2.23-7.59c.05.1.11.19.18.28.02-.06.04-.1.06-.15-.08-.04-.17-.08-.24-.12Zm-1.06-3.44h.02v-.01Zm-1.23-3.77c.06.1.11.19.19.28.03-.05.05-.1.08-.15-.09-.04-.18-.08-.27-.13" class="cls-8"/><path d="M92.42 162.09s-.39-.23-.92-.57c.04 0 .08-.02.11-.03.53.38.77.57.8.61Z" class="cls-8"/><path d="m133.06 167.78-125.92.02c-.45-27.87 3.87-32.76 3.87-32.76 3.47-7.85 20.02-11.61 20.02-11.61 1.23-.29 32.34-6.34 34.36-12.07.07-.19 3.59-10.17 3.34-12.97 0 0-1.36-.72-2.13-1.21-6.67-23.13-.22-47.53.35-50.39 15.68 2.41 38.3 1.35 52.68.26.28.95 2.38 14.51 2.57 27.08.23 14.96-7.17 20.77-7.17 20.77-8.41 6.25-20.91 6.91-30.44 6.25 0 0-.01-.01-.02 0-.9 2.06-5 10.32-.12 12.82 8.4 4.31 34.19 10.34 34.19 10.34 5.12 1.4 9.19 5.05 9.19 5.05 8.93 7.11 5.22 38.41 5.22 38.41Z" class="cls-8"/><path d="M92.42 162.09s-.39-.23-.92-.57c.04 0 .08-.02.11-.03.53.38.77.57.8.61Z" class="cls-8"/></g><g id="skin_shade"><path d="M66.6 97.18c-.67-.43-1.78-.65-1.96-1.46-4.02-18.29-1.23-22.11-.8-34.26.36-6.43.09-8.1 1.4-14.94.56.1 1.14.19 1.72.28-1.31 6.92-1.01 9.46-1.41 16.06-.35 11.07-1.02 14.2 1.06 34.32Z" class="cls-12"/><path d="M65.48 64.12c0-.11.01-.28.03-.48 0 .16-.02.32-.03.48M65.62 96.51c-.33-.22-.65-.45-.98-.71v-.08c.33.28.66.55.98.79M71.23 112.27c-.08-.03-.99-.33-2.49-.95-.64-1-1.46-2.75-1.96-4.22.32-.87 1.07-3.25 1.07-3.64.82 3.31 2.02 7.22 3.38 8.81M128.56 81.1c-3.55 26.2-40.58 21.16-40.54 21.18-2.26 2.61-6.45 11.74.12 13.3.03.42-.15 1.66-.22 2.13-6.1-5.02-13.01-11.82-19.19-19.31 34.93 5.15 60.96 7.4 50.9-51.35 0 0 2.76-.21 4-.32 4.93 14.76 4.92 30.68 4.93 34.37M88.14 115.88v.04zv-.05zM134.05 167.8h-.98l-3.61-.06s1.12-26.36-1.61-38.36c0 0 .25.15.66.48.04.04.09.08.14.13.63.59 1.18 1.21 1.67 1.85.13.17.26.36.39.55l.13.19c.02.04.05.08.07.11 1 1.59 2.01 3.84 2.58 6.92.03.15.05.3.08.45.23 1.47.34 3.05.4 4.76v3.9699999999999998l.01.23zM34.01 148.25c-.01.21-.03.43-.04.66-.24 4.58-.68 10.7-1.45 18.89h-.23l-1.6-.12s3.81-15.68 3.08-32.23c0 0 .83.98.24 12.81Z" class="cls-12"/></g><path id="shirt" d="M34.33 142.23c.47-14.74-4.64-18.34-4.64-18.34 12-3.25 22.91-6.06 32.95-9.89 2.02 13.66 25.64 15.67 25.5 1.89.02-.01 0-.28 0-.3 5.24 1.78 24.04 6.95 29.71 8.59 2.04 10.41.6 18.16.6 18.16-.71 7.89 1.05 24.23 1.19 25.45H32.52c.96-10.1 1.53-19.08 1.81-25.56" style="fill:#a3b99e"/><path id="shirt_shade" d="M122.31 167.78h-2.67c-.13-1.22-1.89-17.56-1.18-25.45 0 0 1.44-7.74-.6-18.16 2.99 7.78 2.24 11.47 2.48 21.36.02.07 1.2 16.8 1.98 22.25Z" style="fill:#799374"/><path d="M133.37 45.81c-18.83 1.89-47.47 4.1-68.14.71-1.91 13.22-4.45 51.41 4.22 65.79-10.05-3.97-24.84-10.94-35.42-27.63-3.34-5.27-4.56-84.65 44.6-81.42 3.24-3.5 28.76-8.55 40.62 16.94 7.28 4.38 13.52 12.09 14.13 25.6Z" style="fill:#9f4c24"/><g id="dark_hair"><path id="hair_shade" d="M121.97 110.79s-13.52 1.08-31.5-8.39c14.95.08 19.17-.68 28.46-5.54-.11.67-1.14 7.79 3.04 13.93" class="cls-11"/><path d="M116.06 18.52c-19.62-9.48-45.92-.7-53.02 13.25-3.4 5.91-3.73 11.45-3.57 13.02-6.26-1.99 3.31-27.76 29.35-30.57-3.35-6.64-9.88-10.81-10.14-10.97 7.4 2.08 10.27 6.89 11.34 10.78 3.05-1.02 18.09-.34 26.04 4.48Z" class="cls-11"/><path d="M118.89 46.98c.72-4.75.04-9.4-1.8-13.57-2.26-6.16-10.33-12.6-10.03-12.45 16.2 8.24 12.4 24.18 11.82 26.02ZM92.68 47.34c-.3.43-.51.7-.56.75 3.21-6.06 1.69-14.86 1.58-14.52 3.93 5.55.44 11.65-1.02 13.77M107.23 46.86c-.31.49-.54.8-.59.85 2.37-4.69-.56-10.82-.73-10.6 4.88 2.86 2.54 7.77 1.31 9.75ZM116.38 17.03c-.38-.47-5.82-7.14-15.4-10.64a34.6 34.6 0 0 0-10.36-2.08c-.2 0 3.12-.7 7.69.04 5.52.89 12.87 3.88 18.07 12.67ZM63.95 107.89c-11.63-7.05-10.43-41.2-5.57-58.72-1.66 15.22-4.23 44.92 5.57 58.72M46.52 86.51c-4.59-13.62-4.51-44.08 8.49-62.55-.3.61-8.57 17.68-9.31 43.72-.16 5.85.05 12.16.82 18.83M37.28 84.15c-5.27-12.75.15-30.02.15-30.02-2.58 18.52-.24 29.58-.15 30.02" class="cls-11"/></g><path id="mouth" d="M99.86 87.74s-9.32 7.19-14.3.41c0 0-3.95-6.14 5.95-9.65 0 0 2.32 7.9 8.35 9.24" class="cls-9"/><g id="nose"><path d="M103.56 79.38c2.57-3.19.1-5.56.1-5.56-3.04-2.61-6.73.57-6.9.71 3.89-4.53 7.14-2.19 7.14-2.19 4.01 3.15-.16 6.88-.34 7.04M100.57 77.4l-2.54.51s-.38-1.69 2.54-.51" class="cls-4"/></g><g id="glasses"><path id="glases_frame" d="M126.67 55.82c-5.9-7.27-19.11-4.51-21.37 4.35-2.03-1.46-4.84-1.08-6.92.05-2.39-11.24-19.78-12.47-23.84-1.65-3.5-.37-7.05-.62-10.55-.21-.02.37-.04.74-.05 1.11 3.17 1.12 6.51 1.69 9.84 2.11-1.39 17.3 26.11 17.39 24.85.09 2.01-.79 4.4-1.09 6.33.03-1.63 9.29 9.38 16.51 17.73 12.21 6.9-3.01 9.15-12.52 3.98-18.1Z" class="cls-3"/><g id="lenses"><path id="rt_lense" d="M97.37 62.88c0 5.84-5.01 10.6-11.17 10.6s-11.17-4.76-11.17-10.6c0-.86.11-1.73.33-2.57 1.24-4.72 5.69-8.03 10.83-8.03 6.16 0 11.17 4.75 11.17 10.59Z" class="cls-9"/><path d="M128.21 63.37c-.33 13.86-21.82 13.63-22.04 0-.29-10.24 14.84-14.31 20.29-5.65a10.07 10.07 0 0 1 1.74 5.65Z" class="cls-9"/></g><g id="lense_shine"><path id="rt_lense_shine" d="M94.96 58.51C98.13 61.45 96.6 75.48 83.1 72c4 .96 15.3-1.69 11.86-13.49" class="cls-6"/><path id="left_lense_shine" d="M125.59 68.93c-1.69 2.62-6.79 5.35-11.71 3.43 0 0 4.95.7 8.58-1.69 2.46-2.15 4.97-4.08 3.29-11.8 0 0 3.48 4.31-.15 10.06Z" class="cls-6"/></g></g><g id="eyes"><path d="M92.49 63.6c-.48.36-.93-.07-1.18-.47-.58 5.73-8.98 1.89-5.06-2.29-4.51-.55-8.03 2.21-8.05.65-.01-1.03 2.44-1.5 5.76-1.98 3.79-.55 9.5 1.46 8.53 4.09M124.14 62.72c-.43.61-1.06.08-1.5-.2.48 5.87-8.07 3.02-4.35-1.45-2.99-.25-5.21.94-5.35 1.02-3.75-.56 3.9-4.07 9.11-1.38.64.44 2.63.9 2.09 2.02Z" class="cls-3"/></g><path id="pearls" d="M95.64 147.33c1.66 1.99-.68 4.14-.68 4.14 1.65 1.73-.6 3.97-.6 3.97.65 3.36-1.95 3.64-1.95 3.62.8 2.42-3.14 3.96-3.62 2.42.66 2.11-4.16 2.17-4.22.74.07 1.86-4.21 1.6-4.49-.49.11.81-3.26 1.38-3.89-1.53-3.09.25-3.14-2.61-3.14-2.61-2.78-.43-2.53-3.02-2.48-3-.06-.04-2.75-.75-1.85-3.71-1.69-.5-2.24-2.29-1.67-3.55-2.96-.62-1.78-3.46-1.79-3.47-2-1.43-1.92-3.08-1.09-4.15-1.54-.7-1.75-2.7-1.1-3.84.03.02.06.04.08.06a.6.6 0 0 1-.08-.06c-1.96-.5-2.07-2.82-1.33-3.81-1.6-.26-1.88-2.74-1.03-3.37-1.78-.97-1.95-2.84-1.13-3.96.05.04.04.02 0-.02v.02c-2.07-1.67-1.72-3.39-.68-4.28-2.41-1.33-1.53-3.89-.09-4.61-2.31-1.65.13-5.38 2.55-3.9.81-1.76 3.14-1.85 4.02-.58-1.26 2.13-.63 1.99-2.43 2.61 0-.09-.15-.13-.4-.15.11.81-.47 2.52-1.38 2.39 1.22.18 1.94 3.8.24 3.78 2.12.02 1.58 3.5.79 3.87 1.35.38 2.29 1.99 1.4 3.91 1.31.34 1.84 1.98 1.17 3.38 1.1.41 1.71 2.3 1.02 3.65 1.76.48 2.02 2.39 1.15 3.94 1.07.31 1.91 2.3.98 3.62 1.26 0 2.22 2.16 1.69 3.69 1.57.28 2.28 1.96 1.7 3.42 1.11-.02 2.37 1.62 1.85 3.23.52.07 2.59.91 1.92 2.74.34-.93 3.05.96 2.58 2.32.02 0 2.44-.42 3.05 1.91.99-.98 2.88-.8 3.67.35.26-1.08 2.97-2.35 3.38-1.08-.2-.63 1.09-1.98 2.15-2.03-.27-1.26 1.24-2.48 1.24-2.53 0 0-.48-2.07 1.35-3.28-.94-1.06-1.02-3.11.19-3.85-.98-1.15-1.05-3 .01-3.89-1.11-1.59-.54-2.85.48-3.45-1.45-1.4-1.2-2.78-.35-3.62-1.57-1.74-.96-3.76.4-4.45-1.57-1.34-1.24-3.03-.27-3.95-1.49-1.59-1.24-3.1-.39-3.97-1.78-.95-1.81-3.23-.91-4.12-.24-.07-.56-.17-.62-.2-1.95-1.01-1.28-2.67-1.18-2.78-.69-.07-1.72-.56-1.92-1.43-.23.06-.37.13-.33.21-1.94-.77-2.27-1.36-2.77-2.91 2.06-2.03 3.56-.05 3.68.1.36-.36 3.98-1.1 3.98 2.45 1.52-.13 2.46 2.19 1.86 3.89 1.26.26 1.88 3.4.66 4.12 1.42.39 1.98 3.06.55 4.24.33.19 2.35 2.77-.11 4.38 1.26-.82 1.57 2.77.47 3.98 1.29.81 1.06 2.95-.05 4.01 1.24.66 1.21 2.64.17 3.71.36.36 1.39 2.48-.41 3.77Z" style="fill:#fef8e7"/></svg>