<svg data-name="trAvatar" xmlns="http://www.w3.org/2000/svg" id="avatar" viewBox="0 0 142.77 167.41"><defs><style>.cls-2{fill:#010101}.cls-3{fill:#d39781}.cls-4{fill:#ccc;opacity:.5}.cls-5{fill:#cd9e3e}.cls-7{fill:#fff}.cls-9{fill:#322338}.cls-10{fill:#b9e5f4;opacity:.69}.cls-11{fill:#fde35c}</style></defs><g id="skin"><path d="M0 0h142.77v167.41H0z" style="fill:none"/><path d="M137.94 150.37c-.18 8.51-.57 15.35-.66 16.89 0 0-107.52-.18-133.95.05-4.48-64.33 36.91-39 61.72-59.45 2.04-1.68 3.5-9.17 4.25-15.62-.02-.01-.02-.02-.03-.03-7.72-6.24-9.08-15.15-9.08-15.24 1.4-16.52 6.22-28.91 12.2-38.16 3.27.72 48.11 3.94 55.67 4.07 3.32 3.76 2.16 15.83-.04 23.39s.03-.01.04-.02c-5.4 16.7-15.23 50.47-41.77 37.58 0 0-2.46 7.31 3.35 10.38 2.11 1.11 13.94 6.53 29 8.55 14.48 1.65 20.28 14.25 19.31 27.62Z" style="fill:#e2ab90"/></g><g id="skin_x5F_shade"><path d="M130.3 127.57s7.83 5.06 7.52 19.87l-.53 19.82-6.76-.03s6.6-26.39-.23-39.67ZM99.31 122.53c-3.83.44-14.12-5.42-14.02-5.42-5.83-5.02-6.06-12.91-15.99-24.88s-.02-.03-.03-.04c0 0-.01-.02-.02-.03-.13-.03 9.6 8.62 17.03 11.65-1.21 7.59-.68 9.53 12.9 14.33.97.34.04 2.85.12 4.38ZM130.3 51.45c-.16 15.08-12.62 55.16-30.65 55.16 0 0 21.55-5.51 23.9-54.87.09 0 .2-.04.33-.11-.11.04-.22.07-.33.11-.22-2.16-.65-4.11-1.38-5.51.13-.02.27-.04.41-.05-4.04-1.81-15.76-2.94-22.77-4.01 10.83.66 21.28.74 28.25.7 1.89 2.36 2.38 5.88 2.24 8.58" class="cls-3"/></g><g id="nose"><path d="M103.28 75.24s3.93-3.51 7.16-.75c0 0 2.56 2.46-.11 5.77 0 0 4.61-3.96.36-7.3 0 0-3.37-2.43-7.41 2.28M104.59 78.73s-.39-1.75 2.64-.53z" class="cls-2"/></g><path id="shirt" d="m118.47 167.26-86.54.03c5.54-15.3.82-45.46 1.41-48.78 6.2-.92 11.12-1.76 15.73-3.33-1.56 3.73-.62 7.17-.02 10 8.28 39.12 30.15 37.62 37.4 34.09 8.13-4.01 11.52-13.52 12.27-21.95.91-10.25.74-19.13.74-19.13 4.95 1.52 18.99 5.19 19.18 4.55-1.9 6.18-3.19 29.09-.17 44.51Z" class="cls-7"/><g id="shirt_x5F_shade"><path d="M118.47 167.26v.07l-1.59-.07-2.46-.11s-2.43-30.73 3.46-44.57l.07-.17.69.33s-2.94 11.54-2.07 28.47v.14c.25 4.8.81 10.04 1.84 15.57.01.11.04.22.06.32ZM90.29 162s-9.41 4.95-22.27.7c0 0-9.36-4-12.96-9.87-9.89-13.31-9.25-36.66-9.25-36.66v-.05l1.89-.6v.1c-.02.99-.2 8.62.36 10.96 0 0 2.9 33.27 30.03 36.45 0 0 6.58.63 12.2-1.04Z" class="cls-10"/></g><path id="mouth" d="M97.84 79.34s2.41 8.18 8.65 9.57c0 0-9.65 7.45-14.82.43 0 0-4.09-6.36 6.17-10" class="cls-7"/><g id="eyes"><g id="eye_x5F_whites"><path d="M102.36 60.46s-4.92 7.26-14.75 6.56c0 0-14.74-.88-12.87-13.52 16.74-6.98 27.24 6.52 27.62 6.97ZM128.06 66.23l-.04.02c-7.6 4.04-17.28-3.63-16.03-5.15 10.7-13.08 21.11-8.74 21.4-6.9.95 6.05-2.52 10.67-5.33 12.03" class="cls-7"/></g><g id="eye_x5F_shading"><path d="M102.09 60.25c-11.82-9.09-27.36-6.29-27.36-6.29l.07-.49c17.5-6.06 27.34 6.83 27.29 6.78M133.5 55.6c-1.09-.74-10.02-4.44-21.51 5.5 1.44-1.79 7.25-6.94 11.71-7.54 6.26-1.54 9.63 1.05 9.72 1.13.04.31.06.62.08.92Z" class="cls-4"/></g><g id="eyes-2" data-name="eyes"><path d="M84.11 61.97c-5.06.28-8.16-6.19-4.28-9.65-2.85.37-4.6.99-5.1 1.17l.25-1.64c14.81-6.34 23.7 4.08 26.67 7.9-3.98-4.07-8.34-6.1-12.35-7.02.99.25 3.6 9.25-5.19 9.24M122.83 53.77c3.73.47 5.93 5.13 3.21 7.91-3.49 4.07-11.42-.02-8.9-5.21-1.56 1.04-3.26 2.52-4.84 4.2 2.65-4.28 13.62-13.51 20.93-7.9l.23 1.93c-.13-.1-4.72-2.69-10.62-.93Z" class="cls-2"/></g><g id="eye_highlights"><path id="eye_x5F_highlight" d="M87.99 55.1a.85.85 0 1 1-1.702-.098.85.85 0 0 1 1.702.098" class="cls-7"/><path id="eye_x5F_highlight-2" d="M125.25 57.23a.85.85 0 1 1-1.702-.098.85.85 0 0 1 1.702.098" class="cls-7" data-name="eye_x5F_highlight"/></g></g><g id="eyebrows"><path d="M100.77 45.58c-.08 1.02-.46 1.11-.82 1.55-6.84-7.85-18.66-6.76-24.91-1.41l-.57-.72c6.1-5.18 14.1-7.16 21.3-3.53 3.34 1.93 4.58 2.55 5 4.11M130.86 48.81c-.01.08.03 2.7-.01 2.78-.43-1.1-.74-2.68-1.4-3.66-2.24-3.55-10.96-1.07-12.93-.23-1.48-2.68.81-2.54 4.37-3.08 4.75-.32 8.84-.01 9.98 4.19Z" class="cls-2"/></g><g id="hair"><path d="M114.99 125.13c1.62 4.62 2.19 12.48-2.38 16.59 1.33 1.73 1.1 4.89-1.11 6.41.61 1.38 2.24 6.92-4.64 12.47 2.9-5.85-4.74-8.08-.47-11.99 0 0-3.21-2.97-.25-6.74 0 0-7.11-6.98-2.41-13.73-2.57-3.8-4.38-10.71-1.79-14.81-.48-.74-2.64-4.43-1.8-6.74 9.37-.76 15.62-11.13 17.04-13.37.44 1.29 3.05 9.29-2.6 16.85 1.8 4.04 3.23 10.08.41 15.06M136.6 42.73s-1.68.05-4.58.1c-.12 2.65-.5 5.55-1.16 8.7.09-2.11.14-4.32-1.89-5.61a39 39 0 0 0-.91-3.05c-7.56-.13-21.19.32-32.08-1.29-2.69-1.38-5.81-2.09-8.77-1.95-4.97 1.18-9.87.39-14.82-.82-5.98 9.24-10.8 21.64-12.2 38.16 2.35 2.07 6.53 11.59 2.34 17.8 2.6 1.76 4.81 9.75 1.28 15.73 3.83 7.59.71 14.44-.22 15.72.33.71 3.3 7.68-2.96 14.77 0 0 2.75 2.37.48 6.15-.02.01-.05.04-.1.06h.05c-.05.08-.1.15-.15.23 4.95 4.72 2.55 16.39-7.78 17.48 7.28-4.2.12-7.98 1.84-14.66.11-.32.29-1.02.49-1.52h-.08c-.72-1.03-2.43-4.1-.5-6.87 0 0 .01-.02.02-.03 0 0-.02.01-.03.02-.29-.18-5.92-3.94-3.16-11.73 0 0 0 .02.01.03 0-.03-.01-.05-.01-.05-2.68-2.97-5.09-11.8-2.02-16.88-2.07-3.39-3.07-7.35-.76-10.77-1.42-1.21-7.19-8.45-2.29-19.17 0 0-.24-.22-.66-.66-5.66-28.32 8.12-68.65 47.91-69.69 0 0 23.13-1.85 34.31 8-.01-.04-.03-.06-.04-.1 5.02 4.34 8.75 11.17 8.4 21.91Z" class="cls-11"/></g><g id="hair_x5F_lowlights"><path d="M112.61 141.7c.17.05-4.04-.93-5.65.21.08-.08.17-.17.25-.26-.45.13-.87.32-1.22.57 4.35-1.7 5.72-12.43 5.49-11.97 1.09 5.87-1.47 9.18-3.16 10.67 1.18-.34 2.69-.35 4.29.78M61.13 147.13s-.04.05-.06.08c-1.14 1.49-4.43 3.01-5.77 1.52 2.6.48 5.52-1.37 5.8-1.58h.02ZM55.8 88.39c-3.99-.33-9.28-5.32-9.28-5.32 2.75 1.71 9.28 5.32 9.28 5.32M55.56 107.88c4.17-4.38 3-9.6 3.01-9.56 2.51 6.86-3.01 9.56-3.01 9.56M65.08 106.72c-.22.99-.58 2.01-1.07 2.92-.17.35-.37.68-.58 1.01v.03c-.85 1.33-2.06 2.59-3.72 3.13-.02-.06-.03-.08-.03-.08v.09c-.37.08-.84.31-1.22.16 1.74-.42 5.53-4.37 6.62-7.26" class="cls-5"/><path d="M59.35 114.29c-2.95-.06-5.79-2.32-4.39-7.55-.51 1.57.77 7.08 4.39 7.55M56.7 120.53l-.04.04c-3.18-.73-5.47-3.95-6.96-6.72v-.02c-.4-.69-.97-1.88-1.25-2.7 1.23 3.24 7.02 8.96 8.24 9.4Z" class="cls-5"/><path d="M59.52 131.1c-.33-.08-6.6-1.71-4.23-10.92.01-.05-.99 8.03 4.23 10.92" class="cls-5"/><path d="M55.33 141.3c4.02-3.99 4.52-11.66 4.52-11.66 1.57 8.52-4.52 11.66-4.52 11.66M122.9 42.58c.59-2.17-4.82-22.95-9.3-28.18 6.48 7.06 11.69 17.86 9.3 28.18M96.55 41.11c2.46-7.34 2.02-15.75 1.53-21.15 5.04 9.36-.81 21.38-1.53 21.15M49.05 58.98c-.09-4.99.46-8.72.46-8.69-.2 4.29.14 8.46.78 12.28 1.89 11.45 6.36 19.93 6.54 20.26-6.21-6.59-7.65-16.66-7.78-23.85M80.25 20.29c-1.75 0-9.68 11.02-11.03 17.3-.02-1.36.31-3.64 1-5.65 1.22-3.7 3.96-8.42 10.03-11.65M58.41 101.63s-9.2-.54-5.91-14.02c-.12.8-1.5 10.88 5.91 14.02" class="cls-5"/><path d="M64.93 122.67c-.32 4.05-5.04 7.55-6.82 7.29 3.86-.57 6.82-7.29 6.82-7.29M112.66 147.28c-1.92 1.96-2.47 3.02-6.23 1.6v-.14c3.14.86 5.18-.6 6.23-1.45ZM116.49 106.78c-.26 1.06-.64 2.16-1.39 3.54-1.06 1.9-2.83 3.88-5.57 3.98 0 0 4.01-1.21 6.96-7.51ZM108.99 120.53c-4.26-.88-7.09-6.24-8.41-9.58 3.02 6.03 7.82 9.2 8.41 9.58M116.74 121.92c.03 3.09-5.05 7.81-5.99 7.63 3.6-2.32 5.26-5.96 5.99-7.63" class="cls-5"/></g><g id="hat"><path d="M127.97 20.63c-1.41-1.19-2.92-2.17-4.47-3 .84.46 1.67.97 2.48 1.53-3.64-2.35-8-3.83-12.35-4.74l-.06-.06s.02.04.03.05c-6.72-1.33-13.94-1.68-20.82-.71-.06-.11-.1-.17-.1-.17l.03.18c-34.72 3.82-52.25 40.27-46.69 68.92 1.15 4.93-9.61 13.11-13.63 4.66-.55-1.19-3.23-6.43-4.12-5.81-1.88 1.33-3.76-.12-5.64-12.07C19.96 45.42 32.3-1.16 60.59 4.43c0 0 10.8-7.06 23.67-.84 0 0 33.76-4.19 43.95 17.23l-.23-.2Z" style="fill:#51385a"/><g id="hat_shade"><path d="M45.68 25.97c-2.42 2.54-21.42 23.6-17.19 55.25 0 0-9.57-31.71 17.26-55.34.05-.05.1-.09.15-.13-.04.04-.11.11-.21.22Z" class="cls-9"/><path d="M83.92 3.47c-32.73 13.96-48.94 49.8-46.99 60.11-.71-33.64 25.92-53.61 46.99-60.11M60.59 4.43c-8.86 5.03-18.41 14.88-18.41 14.88C49.88 5.96 60.59 4.43 60.59 4.43" class="cls-9"/></g></g></svg>