<svg id="Layer_1" data-name="Layer 1" xmlns="http://www.w3.org/2000/svg" viewBox="0 0 310.96 365.23"><defs><style>.cls-1{fill:none;}.cls-2{fill:#e2ab90;}.cls-3{fill:#d39781;}.cls-4{fill:#010101;}.cls-5{fill:#fff;}.cls-6{fill:#b9e5f4;opacity:0.69;}.cls-7{fill:#ccc;opacity:0.5;}.cls-8{fill:#f1e4dc;}.cls-9{fill:#fde35c;}.cls-10{fill:#cd9e3e;}.cls-11{fill:#fff1b9;}.cls-12{fill:#51385a;}.cls-13{fill:#322338;}</style></defs><rect class="cls-1" y="0.37" width="310.96" height="364.63"/><g id="skin"><path class="cls-2" d="M77.88,322.63s.67,27.22-5.89,42.51l-62.79,0c-3.24-47.09,8.17-69.53,8.17-69.53,11.57-30,51.43-36.84,51.43-36.84,4-.5,5.74-.72,6.28-.77C75.08,258,76.88,287.21,77.88,322.63Z"/><path class="cls-2" d="M194.07,245.55l.14.15h0Zm26.05,27.16c0-.44,0-.89,0-1.31,0-1,0-2.06-.08-3,0-.22,0-.44,0-.67s0-.57,0-.84c0,.42-.63.53-1.74.39h-.13c-2-.18-6-1.44-10.66-3.24-.43-.16-.88-.33-1.33-.52a134.44,134.44,0,0,1-15-7.05l-.84-.5c-.61-.36-1.2-.72-1.74-1.06a6.08,6.08,0,0,1-.87-.15,5.5,5.5,0,0,1-1.28-.43l0,0a4.05,4.05,0,0,1-.91-.54,3.18,3.18,0,0,1-.63-.64h0a.88.88,0,0,1-.12-.17,1.58,1.58,0,0,1-.25.54l-.1.12-.12.11-.11.09h0l-.16.09a.88.88,0,0,1-.22.1.83.83,0,0,1-.21.06,1.33,1.33,0,0,1-.28,0,1.46,1.46,0,0,1-1-.38,1.51,1.51,0,0,1-.52-1.13v0a.17.17,0,0,1,0-.07.15.15,0,0,1,0-.07.22.22,0,0,1,0-.08.28.28,0,0,1,0-.09,1.21,1.21,0,0,1,.05-.18l.06-.13a1.19,1.19,0,0,1,.09-.15.71.71,0,0,1,.1-.14.49.49,0,0,1,.12-.13l.13-.12.12-.08a1.46,1.46,0,0,1,.81-.25,1.5,1.5,0,0,1,1,.42.62.62,0,0,1,0-.13,1.8,1.8,0,0,1-.35-1s-16.25-33.9-29.84-50c-1.84,15.51-8.54,31.66-9.8,35.6a4.84,4.84,0,0,1,5.15,2.34,5.12,5.12,0,0,1,.77,3.28s0,0,0,0a4.42,4.42,0,0,1-.54,1.69.62.62,0,0,1,.19,0,.37.37,0,0,1,.14,0s0,0,.05,0h.06l.06,0a1.59,1.59,0,0,1,.92,1.23c1.58-1.36,4.82-1.3,7.92.26,2.9,1.48,4.8,3.85,4.9,5.84a2,2,0,0,1,1.17-.38,1.73,1.73,0,0,1,.32,0l.27.06a1.17,1.17,0,0,1,.26.1,2.52,2.52,0,0,1,.44.28,1.14,1.14,0,0,1,.16.15,1.37,1.37,0,0,1,.25.33.72.72,0,0,1,.12.21.25.25,0,0,1,0,.07,1.91,1.91,0,0,1,.11.41.45.45,0,0,1,0,.11.54.54,0,0,1,0-.11,1.51,1.51,0,0,1,.11-.22,3.67,3.67,0,0,1,.52-.71l.25-.25.17-.15a3.84,3.84,0,0,1,.56-.41A1.44,1.44,0,0,1,169,250a5.12,5.12,0,0,1,.57-.3,4.91,4.91,0,0,1,.57-.25,5.48,5.48,0,0,1,.61-.22,8.1,8.1,0,0,1,1.33-.34c.23-.05.47-.08.72-.11l.56,0,.29,0,.64,0,.68,0a2.34,2.34,0,0,1,.38,0l.42,0h.09c.2,0,.4.06.6.09l.52.11a3.25,3.25,0,0,1,.42.11l.43.13a5.31,5.31,0,0,1,.6.22,5.44,5.44,0,0,1,.5.22,1,1,0,0,1,.28.14,1.63,1.63,0,0,1,.34.19,5.19,5.19,0,0,1,.82.58c.12.1.23.21.34.32a3,3,0,0,1,.24.26.59.59,0,0,1,.08.11,3.05,3.05,0,0,1,.22.32,3.24,3.24,0,0,1,.19.37,2.24,2.24,0,0,1,.14.39h0a1.43,1.43,0,0,1,.07.28,2.28,2.28,0,0,1,0,.45,1.41,1.41,0,0,1,0,.2h0c0,.1,0,.2,0,.3a2.36,2.36,0,0,1-.2.62h0a1.58,1.58,0,0,1-.13.26c-1,1.75-3.76,3-7,3a10.42,10.42,0,0,1-5.25-1.3,6.54,6.54,0,0,1-.69-.48,3.73,3.73,0,0,1-.72-.71,3.06,3.06,0,0,1-.38-.53,3.52,3.52,0,0,1-.18-.4,2.41,2.41,0,0,1-.08-.25h0a1,1,0,0,1-.07-.23l0-.19a1,1,0,0,1,0-.18l-.06.1-.13.19-.15.17,0,.05h0l-.14.11a1.85,1.85,0,0,1-.51.3l-.11,0a.42.42,0,0,1-.15,0,.31.31,0,0,1-.13,0,1.63,1.63,0,0,1-.85,0,2,2,0,0,1-1.22-.89l-.06-.12a.55.55,0,0,1-.12-.25h0c0-.06,0-.11-.05-.18l0,0L163,253l-.05,0-.08.07-.34.24a2.69,2.69,0,0,1-.38.19,2.26,2.26,0,0,1-.39.15l0,0-.1,0-.33.09a7.23,7.23,0,0,1-2.26.11,7.85,7.85,0,0,1-.81-.11l-.57-.12a11.51,11.51,0,0,1-2.59-1,10.57,10.57,0,0,1-3.94-3.3l-.2-.31v0a4.76,4.76,0,0,1-.72-1.84.41.41,0,0,1,0-.11,2.74,2.74,0,0,1,0-.56,2,2,0,0,1,0-.42h0l-.25.08a1.39,1.39,0,0,1-.35,0h-.15a2.15,2.15,0,0,1-.4-.09h0a1.53,1.53,0,0,1-.29-.18.9.9,0,0,1-.19-.15h0l-.11-.12,0,0a.69.69,0,0,1-.12-.18l0-.07a.15.15,0,0,1,0-.07,1.18,1.18,0,0,1-.07-.2.36.36,0,0,1,0-.11.89.89,0,0,1,0-.22l-.08,0a4,4,0,0,1-2.17.45,5.06,5.06,0,0,1-2.5-.94c.11.38.22.79.34,1.22,1.45,5.56,3,14.73.42,23.23.15-.54.28-1.11.4-1.69,0,0-6.5,14.76-15,16a16.82,16.82,0,0,0,12-8.23c.72,1.58,7.24,16.87-6.51,32.45,0,0,6.05,5.21,1.06,13.51h0c-.66.45-6.74,4.42-12.55,3.5-1.58-2.26-5.91-9.45-1.09-15.07h0c2.7-1.39,12.6-2.35,12.6-2.35-6.17-1.82-11.56,1.6-12.62,2.33-.64-.41-13-8.66-6.94-25.77,4.7,12,15.26,10.14,15.26,10.14-10.17-2.66-14.61-9.18-15.25-10.18h0a.21.21,0,0,0,0-.06,40.1,40.1,0,0,1-5.86-10.74c.62,15.81,3.53,37.13,13.69,53.65a9.82,9.82,0,0,1,.78-1.2c3.31,1.7,9.51-.84,11.93-4.07-.1.17-.21.33-.32.5,0,0,8.56,9.47,4.78,20.66,0,0-.16.53-.52,1.4,9.16,5.8,21,9,36.34,7.92.53,0,1-.08,1.55-.14h.06l.36,0c.53-.05,1.07-.12,1.6-.2l1.5-.24.64-.12a5.93,5.93,0,0,0,.73-.16l.73-.16c.48-.11,1-.23,1.44-.36s1-.26,1.41-.4.86-.28,1.27-.43l.81-.29c.67-.25,1.34-.53,2-.81l.83-.38a4.49,4.49,0,0,0,.54-.26l.73-.36,1-.55c.17-.09.33-.19.49-.29s.33-.18.5-.29.58-.34.86-.53l.26-.17.83-.55.54-.39.41-.3c.66-.47,1.3-1,1.91-1.5.27-.22.53-.45.78-.68.43-.38.87-.79,1.28-1.2.14-.13.3-.27.43-.41.55-.56,1.1-1.14,1.6-1.72.24-.25.47-.52.69-.78s.49-.58.73-.89l.11-.13.39-.5a.42.42,0,0,0,.09-.14l.38-.49a.79.79,0,0,0,.12-.15l0,0,.08-.1c.16-.2.3-.41.44-.62.6-.83,1.16-1.68,1.71-2.56.26-.43.52-.85.77-1.29s.5-.86.74-1.31c.48-.87.93-1.76,1.37-2.66.77-1.62,1.49-3.28,2.14-5,.18-.46.35-.91.51-1.38.27-.74.54-1.49.79-2.25s.4-1.25.6-1.89c.37-1.21.71-2.42,1-3.65.12-.43.23-.87.34-1.31s.18-.74.26-1.11c.2-.86.39-1.73.58-2.6.52-2.54,1-5.1,1.32-7.63,0-.28.08-.55.11-.82.21-1.49.38-3,.54-4.45.05-.45.09-.88.13-1.33l.09-1c0-.32.06-.63.08-.94.07-.76.12-1.51.17-2.25s.09-1.35.13-2l.06-1.1c.05-.82.08-1.64.11-2.44,0-.46,0-.93,0-1.38,0-1,.06-1.89.07-2.81,0-.62,0-1.22,0-1.82C220.15,276,220.14,274.33,220.12,272.71Zm-.41-12.17c0,1.63.09,3.78.26,6.3C219.88,264.29,219.78,262.16,219.71,260.54Zm-13.23-8a109.25,109.25,0,0,0,13.22,4.67C215,255.77,210.47,254.21,206.48,252.55Z"/><path class="cls-2" d="M304.82,328c-.43,20-1.44,37.09-1.44,37.09H262.05c-.3-1.79-3.29-19.77-4.41-38.76-1.58-26.68,2.8-53.57,4.78-59,2.88.53,4.58.81,4.58.81C298.12,275.78,305.46,298.21,304.82,328Z"/><path class="cls-2" d="M193.37,116.77a1.86,1.86,0,1,0,1.75,2A1.87,1.87,0,0,0,193.37,116.77Zm0,0a1.86,1.86,0,1,0,1.75,2A1.87,1.87,0,0,0,193.37,116.77Zm0,0a1.86,1.86,0,1,0,1.75,2A1.87,1.87,0,0,0,193.37,116.77Zm0,0a1.86,1.86,0,1,0,1.75,2A1.87,1.87,0,0,0,193.37,116.77Zm0,0a1.86,1.86,0,1,0,1.75,2A1.87,1.87,0,0,0,193.37,116.77Zm0,0a1.86,1.86,0,1,0,1.75,2A1.87,1.87,0,0,0,193.37,116.77Zm0,0a1.86,1.86,0,1,0,1.75,2A1.87,1.87,0,0,0,193.37,116.77Zm0,0a1.86,1.86,0,1,0,1.75,2A1.87,1.87,0,0,0,193.37,116.77Zm0,0a1.86,1.86,0,1,0,1.75,2A1.87,1.87,0,0,0,193.37,116.77Zm0,0a1.86,1.86,0,1,0,1.75,2A1.87,1.87,0,0,0,193.37,116.77Zm0,0a1.86,1.86,0,1,0,1.75,2A1.87,1.87,0,0,0,193.37,116.77Zm0,0a1.86,1.86,0,1,0,1.75,2A1.87,1.87,0,0,0,193.37,116.77Zm0,0a1.86,1.86,0,1,0,1.75,2A1.87,1.87,0,0,0,193.37,116.77Zm0,0a1.86,1.86,0,1,0,1.75,2A1.87,1.87,0,0,0,193.37,116.77Zm0,0a1.86,1.86,0,1,0,1.75,2A1.87,1.87,0,0,0,193.37,116.77Zm0,0a1.86,1.86,0,1,0,1.75,2A1.87,1.87,0,0,0,193.37,116.77Zm0,0a1.86,1.86,0,1,0,1.75,2A1.87,1.87,0,0,0,193.37,116.77Zm0,0a1.86,1.86,0,1,0,1.75,2A1.87,1.87,0,0,0,193.37,116.77Zm0,0a1.86,1.86,0,1,0,1.75,2A1.87,1.87,0,0,0,193.37,116.77Zm0,0a1.86,1.86,0,1,0,1.75,2A1.87,1.87,0,0,0,193.37,116.77Zm0,0a1.86,1.86,0,1,0,1.75,2A1.87,1.87,0,0,0,193.37,116.77Zm0,0a1.86,1.86,0,1,0,1.75,2A1.87,1.87,0,0,0,193.37,116.77Zm0,0a1.86,1.86,0,1,0,1.75,2A1.87,1.87,0,0,0,193.37,116.77Zm0,0a1.86,1.86,0,1,0,1.75,2A1.87,1.87,0,0,0,193.37,116.77Zm0,0a1.86,1.86,0,1,0,1.75,2A1.87,1.87,0,0,0,193.37,116.77Zm0,0a1.86,1.86,0,1,0,1.75,2A1.87,1.87,0,0,0,193.37,116.77Zm0,0a1.86,1.86,0,1,0,1.75,2A1.87,1.87,0,0,0,193.37,116.77Zm0,0a1.86,1.86,0,1,0,1.75,2A1.87,1.87,0,0,0,193.37,116.77Zm0,0a1.86,1.86,0,1,0,1.75,2A1.87,1.87,0,0,0,193.37,116.77Zm0,0a1.86,1.86,0,1,0,1.75,2A1.87,1.87,0,0,0,193.37,116.77Zm0,0a1.86,1.86,0,1,0,1.75,2A1.87,1.87,0,0,0,193.37,116.77Zm0,0a1.86,1.86,0,1,0,1.75,2A1.87,1.87,0,0,0,193.37,116.77Zm0,0a1.86,1.86,0,1,0,1.75,2A1.87,1.87,0,0,0,193.37,116.77Zm0,0a1.86,1.86,0,1,0,1.75,2A1.87,1.87,0,0,0,193.37,116.77Zm0,0a1.86,1.86,0,1,0,1.75,2A1.87,1.87,0,0,0,193.37,116.77Zm0,0a1.86,1.86,0,1,0,1.75,2A1.87,1.87,0,0,0,193.37,116.77Zm0,0a1.86,1.86,0,1,0,1.75,2A1.87,1.87,0,0,0,193.37,116.77Zm0,0a1.86,1.86,0,1,0,1.75,2A1.87,1.87,0,0,0,193.37,116.77Zm93.93-11.51a8.2,8.2,0,0,0-1.14-2.27h0a7.43,7.43,0,0,0-1.12-1.26c-3.58-3.25-10-3.16-14.86-2.45l-.39,0a61.81,61.81,0,0,0-11.22,2.87l-.8.29-.43-.74a4,4,0,0,1-.47-2.81,2.5,2.5,0,0,1,1.29-1.55l.21-.09a66.08,66.08,0,0,1,9-1.57l.94-.08c7.56-.6,13.22.38,16.82,2.94-.13-.52-.28-1.06-.43-1.6s-.31-1.09-.48-1.65c-.32-1.12-.68-2.26-1.09-3.44-15.32.09-38.27-.1-62.05-1.55h0c-2.76-.41-5.56-.85-8.37-1.29A38.75,38.75,0,0,1,222,95.46a3.34,3.34,0,0,1,1.17,2.37,4,4,0,0,1-1.1,2.69l-.69.72-.73-.7a42.57,42.57,0,0,0-16.9-10.49,34.89,34.89,0,0,0-13.67-1.37c-11.31,1-20.13,7-23.4,9.47l-1.26-1.58a53.66,53.66,0,0,1,17.25-9.83l-2.87-.41-1.42-.21c-.47-.06-.95-.13-1.41-.21l-2-.31c-1.69-.27-3.34-.55-5-.85-.79-.13-1.57-.27-2.34-.43L165.8,84c-1.68-.32-3.32-.67-4.94-1-13.12,20.3-23.72,47.53-26.8,83.8,0,.19,8.11,8.92,9.08,21.36A153.42,153.42,0,0,0,154,200.21l0-.06c.95.89,15.71,14.52,33.84,24l.15.07c1,.46,2,.88,2.95,1.29l.47.19c17.25,7.07,29.4,6.16,29.4,6.16.33,0,.68,0,1-.09a27,27,0,0,0,8.2-2.24c.5-.22,1-.46,1.51-.72a50.44,50.44,0,0,0,12.71-9.51c.24-.25.49-.49.72-.74a109.49,109.49,0,0,0,13.78-17.79A165,165,0,0,0,270,180a219.28,219.28,0,0,0,13.13-36.75l-.08,0h0a219.09,219.09,0,0,1-13.12,36.67,164.07,164.07,0,0,1-11.23,20.83,110.55,110.55,0,0,1-13.77,17.79l-.7.71h0a51,51,0,0,1-12.76,9.58l-.49.23-.18.08,0,0-.82.39a28.06,28.06,0,0,1-8.12,2.23c-.36,0-.73.07-1.09.09,0,0,38.9-13.64,51.12-86.09-17.75-.76-23.53-12.76-24-13.86v0c.16-.21.59-.72,1.22-1.47-.18.19-.35.37-.55.56,0-.05.12-.15.22-.3l.42-.54.19-.24c2.81-3.56,12.18-14.53,23.91-18.55a24.15,24.15,0,0,1,14.19-.79c.23.05.45.11.67.18.05-1,.09-1.88.12-2.81h0Zm-120.76,6.37c30.91-14,52,8.91,57.29,15.61l0,0,.3.39c.57.73.89,1.18,1,1.29A54.55,54.55,0,0,0,198,113.55a12,12,0,0,1,1.87,3.33,11.39,11.39,0,0,1,.6,2.45,12,12,0,0,1,.11,1.57c0,6.26-5,11.83-11.95,12.79a15.39,15.39,0,0,1-2,.14,14,14,0,0,1-8.46-2.78,11.85,11.85,0,0,1-2.67-16.36,13.37,13.37,0,0,1,1.72-2,54.06,54.06,0,0,0-11,2.51l-.13,0h0Zm26.61,8.86a1.86,1.86,0,1,0-1.75-2A1.87,1.87,0,0,0,193.15,120.49Zm.22-3.72a1.86,1.86,0,1,0,1.75,2A1.87,1.87,0,0,0,193.37,116.77Zm0,0a1.86,1.86,0,1,0,1.75,2A1.87,1.87,0,0,0,193.37,116.77Zm0,0a1.86,1.86,0,1,0,1.75,2A1.87,1.87,0,0,0,193.37,116.77Zm0,0a1.86,1.86,0,1,0,1.75,2A1.87,1.87,0,0,0,193.37,116.77Zm0,0a1.86,1.86,0,1,0,1.75,2A1.87,1.87,0,0,0,193.37,116.77Zm0,0a1.86,1.86,0,1,0,1.75,2A1.87,1.87,0,0,0,193.37,116.77Zm0,0a1.86,1.86,0,1,0,1.75,2A1.87,1.87,0,0,0,193.37,116.77Zm0,0a1.86,1.86,0,1,0,1.75,2A1.87,1.87,0,0,0,193.37,116.77Zm0,0a1.86,1.86,0,1,0,1.75,2A1.87,1.87,0,0,0,193.37,116.77Zm0,0a1.86,1.86,0,1,0,1.75,2A1.87,1.87,0,0,0,193.37,116.77Zm0,0a1.86,1.86,0,1,0,1.75,2A1.87,1.87,0,0,0,193.37,116.77Zm0,0a1.86,1.86,0,1,0,1.75,2A1.87,1.87,0,0,0,193.37,116.77Zm0,0a1.86,1.86,0,1,0,1.75,2A1.87,1.87,0,0,0,193.37,116.77Zm0,0a1.86,1.86,0,1,0,1.75,2A1.87,1.87,0,0,0,193.37,116.77Zm0,0a1.86,1.86,0,1,0,1.75,2A1.87,1.87,0,0,0,193.37,116.77Zm0,0a1.86,1.86,0,1,0,1.75,2A1.87,1.87,0,0,0,193.37,116.77Zm0,0a1.86,1.86,0,1,0,1.75,2A1.87,1.87,0,0,0,193.37,116.77Zm0,0a1.86,1.86,0,1,0,1.75,2A1.87,1.87,0,0,0,193.37,116.77Zm0,0a1.86,1.86,0,1,0,1.75,2A1.87,1.87,0,0,0,193.37,116.77Zm0,0a1.86,1.86,0,1,0,1.75,2A1.87,1.87,0,0,0,193.37,116.77Zm0,0a1.86,1.86,0,1,0,1.75,2A1.87,1.87,0,0,0,193.37,116.77Zm0,0a1.86,1.86,0,1,0,1.75,2A1.87,1.87,0,0,0,193.37,116.77Zm0,0a1.86,1.86,0,1,0,1.75,2A1.87,1.87,0,0,0,193.37,116.77Zm0,0a1.86,1.86,0,1,0,1.75,2A1.87,1.87,0,0,0,193.37,116.77Zm0,0a1.86,1.86,0,1,0,1.75,2A1.87,1.87,0,0,0,193.37,116.77Zm0,0a1.86,1.86,0,1,0,1.75,2A1.87,1.87,0,0,0,193.37,116.77Zm0,0a1.86,1.86,0,1,0,1.75,2A1.87,1.87,0,0,0,193.37,116.77Zm0,0a1.86,1.86,0,1,0,1.75,2A1.87,1.87,0,0,0,193.37,116.77Zm0,0a1.86,1.86,0,1,0,1.75,2A1.87,1.87,0,0,0,193.37,116.77Zm0,0a1.86,1.86,0,1,0,1.75,2A1.87,1.87,0,0,0,193.37,116.77Zm0,0a1.86,1.86,0,1,0,1.75,2A1.87,1.87,0,0,0,193.37,116.77Zm0,0a1.86,1.86,0,1,0,1.75,2A1.87,1.87,0,0,0,193.37,116.77Zm0,0a1.86,1.86,0,1,0,1.75,2A1.87,1.87,0,0,0,193.37,116.77Zm0,0a1.86,1.86,0,1,0,1.75,2A1.87,1.87,0,0,0,193.37,116.77Zm0,0a1.86,1.86,0,1,0,1.75,2A1.87,1.87,0,0,0,193.37,116.77Zm0,0a1.86,1.86,0,1,0,1.75,2A1.87,1.87,0,0,0,193.37,116.77Z"/></g><g id="skin_shade"><path class="cls-3" d="M288,277.89s17.18,11.12,16.51,43.64l-1.17,43.54L288.54,365S303,307,288,277.89Z"/><path class="cls-3" d="M194.21,245.7a11.28,11.28,0,0,0-3.76.33c-3.53.9-6.06,3.16-6.17,5.3a1.8,1.8,0,0,1-.35-1s-16.25-33.9-29.84-50h0l-.07-.07h0l0-.06c.95.89,15.71,14.52,33.84,24l.15.07c1,.46,2,.88,2.95,1.29l.47.19a32.81,32.81,0,0,0-.77,4.58v0a34.8,34.8,0,0,0,1.11,11.26.56.56,0,0,0,0,.12,8.41,8.41,0,0,0,2.14,3.65l.11.09.06.06Z"/><path class="cls-3" d="M220,266.84v0c0,.42-.63.53-1.74.39h-.13A57.7,57.7,0,0,1,207.44,264c-.43-.16-.88-.33-1.33-.52a134.44,134.44,0,0,1-15-7.05l-.84-.5c-.61-.36-1.2-.72-1.74-1.06a11.43,11.43,0,0,0,4.09-.3c3.32-.85,5.76-2.9,6.12-4.93a2.22,2.22,0,0,0,0-.81,1,1,0,0,0-.05-.29c.93.54,3.73,2.14,7.72,4h0a109.25,109.25,0,0,0,13.22,4.67,18.46,18.46,0,0,0,0,3.32C219.73,262.17,219.8,264.32,220,266.84Z"/><path class="cls-3" d="M283,143.24a219.09,219.09,0,0,1-13.12,36.67,164.07,164.07,0,0,1-11.23,20.83,110.55,110.55,0,0,1-13.77,17.79l-.7.71h0a51,51,0,0,1-12.76,9.58l-.49.23-.18.08,0,0-.82.39a28.06,28.06,0,0,1-8.12,2.23c-.36,0-.73.07-1.09.09,0,0,38.9-13.64,51.12-86.09l1.05,0A26.62,26.62,0,0,0,283,143.24Z"/><path class="cls-3" d="M285.12,98.58c-3.6-2.56-9.26-3.54-16.82-2.94l-.94.08a6.59,6.59,0,0,0-3.73-1.33c-3.22-.14-8.6.57-26.46-1.78-5.16-.67-10.57-1.44-16.1-2.27,23.78,1.45,46.73,1.64,62.05,1.55.41,1.18.77,2.32,1.09,3.44q.26.84.48,1.65C284.84,97.52,285,98.06,285.12,98.58Z"/><path class="cls-3" d="M288.2,107.93h0c0,.93-.07,1.86-.12,2.81-.22-.07-.44-.13-.67-.18a24.15,24.15,0,0,0-14.19.79c-.5-4.73-1.43-9-3-12.09,4.88-.71,11.28-.8,14.86,2.45a7.43,7.43,0,0,1,1.12,1.26h0a8.2,8.2,0,0,1,1.14,2.27Z"/></g><g id="nose"><path class="cls-4" d="M228.69,163s8.63-7.71,15.71-1.64c0,0,5.63,5.39-.23,12.67,0,0,10.12-8.7.78-16C245,158,237.54,152.65,228.69,163Z"/><path class="cls-4" d="M231.57,170.64s-.87-3.85,5.79-1.16Z"/></g><path class="cls-5" d="M261.93,364.37c0,.23.08.47.12.7h-3.49L72,365.14c6.56-15.29,5.89-42.51,5.89-42.51-1-35.42-2.8-64.61-2.8-64.61,1.8-.25,3.51-.51,5.14-.77l.18,0a224.78,224.78,0,0,0,22.08-4.36c1.54-.4,2.92-.8,4.15-1.17s2.12-.68,3-1c-3.41,8.16-2.21,15.95,0,21.91v.06c.62,15.81,3.53,37.13,13.69,53.65a10.14,10.14,0,0,0-.65,1.42h0a15.66,15.66,0,0,0-.5,7.66h0a32.78,32.78,0,0,0,3.06,9.34c3.81,10.18-6.61,15.17-6.61,15.17a24.11,24.11,0,0,0,18.49-11,29.49,29.49,0,0,0,2.23-3.9c.26-.52.47-1,.63-1.39,9.16,5.8,21,9,36.34,7.92.53,0,1-.08,1.55-.14h.06l.36,0c.53-.05,1.07-.12,1.6-.2l1.5-.24.64-.12a5.93,5.93,0,0,0,.73-.16l.73-.16c.48-.11,1-.23,1.44-.36s1-.26,1.41-.4.86-.28,1.27-.43l.81-.29c.67-.25,1.34-.52,2-.81.28-.12.56-.24.83-.38a4.49,4.49,0,0,0,.54-.26l.73-.36,1-.55c.17-.09.33-.19.49-.29s.33-.18.5-.29.58-.34.86-.53l.26-.17.83-.55.54-.39.41-.3c.66-.47,1.3-1,1.91-1.5.27-.22.53-.45.78-.68.43-.38.87-.79,1.28-1.2.14-.13.3-.27.43-.41.55-.56,1.1-1.14,1.6-1.72.24-.25.47-.52.69-.78s.49-.58.73-.89l.11-.13.39-.5a.42.42,0,0,0,.09-.14c.14-.16.26-.33.38-.49a.79.79,0,0,0,.12-.15.71.71,0,0,0,.1-.14c.16-.2.3-.41.44-.62.6-.83,1.16-1.68,1.71-2.56.26-.43.52-.85.77-1.29s.5-.86.74-1.31c.48-.87.93-1.76,1.37-2.66.77-1.62,1.49-3.28,2.14-5,.18-.46.35-.91.51-1.38.27-.74.54-1.49.79-2.25s.4-1.25.6-1.89c.37-1.21.71-2.42,1-3.65.12-.43.23-.87.34-1.31s.18-.74.26-1.11c.2-.86.39-1.73.58-2.6.52-2.54,1-5.1,1.32-7.63,0-.28.08-.55.11-.82.21-1.49.38-3,.54-4.45.05-.45.09-.88.13-1.33l.09-1c0-.32.06-.63.08-.94.07-.76.12-1.51.17-2.25s.09-1.35.13-2l.06-1.1c.05-.82.08-1.64.11-2.44,0-.46,0-.93,0-1.38,0-1,.06-1.89.07-2.81,0-.62,0-1.22,0-1.82,0-1.8,0-3.51,0-5.13,0-.44,0-.89,0-1.31,0-1,0-2.06-.08-3,0-.22,0-.44,0-.67s0-.57,0-.84v0c-.09-2.55-.19-4.68-.26-6.3a18.46,18.46,0,0,1,0-3.32c0-.07,0-.09.07-.08.76.28,1.93.65,3.41,1.06.12,11.08,6.51,20.93,6.51,20.93C219.37,294,235,309.3,235,309.3c-6.51,8.28.55,14.81.55,14.81-6.7,5.38.24,12.63.24,12.63,4.32,6.33.79,13.7.79,13.7,16.63-13.43,10.32-24.93,9.61-26.11-2.27,2-4.7,2.66-10.58.36v-.31c6.28,1.91,11.31-1.31,13-2.65,4.94-6.26.53-12.76.53-12.76a25.55,25.55,0,0,0,5.11-6.8c3.82-7.35,3.66-15.57,2.73-21.48a46.28,46.28,0,0,0-1.77-7.41,23.12,23.12,0,0,0,2.82-6.9l2.7.59,1.24.27.3.06h0l.1,0c-2,5.42-6.36,32.31-4.78,59,.07,1.19.14,2.37.23,3.54,0,.11,0,.22,0,.32.07,1,.15,2,.23,3l.06.81c0,.16,0,.32,0,.47.09,1.05.19,2.08.28,3.1.09.87.18,1.73.26,2.58l0,.26c.09.93.19,1.85.28,2.76.25,2.25.5,4.41.75,6.43.1.81.2,1.6.3,2.36.07.53.14,1.05.21,1.55s.1.82.16,1.21c.08.62.17,1.21.25,1.77,0,.19.05.38.08.57s.07.45.1.67l.09.62c.09.67.18,1.28.27,1.86,0,.2.05.39.08.58l0,.16.06.42c0,.17.05.33.07.48s.05.32.07.46c.05.3.1.57.14.83s0,.31.07.45C261.85,363.87,261.89,364.15,261.93,364.37Z"/><g id="shirt_shade"><path class="cls-6" d="M262.05,365.07l0,.16-3.52-.16-5.4-.23s-1.31-33.26,1.12-62.67c3.82-7.35,3.66-15.57,2.73-21.48A74.79,74.79,0,0,1,260.76,267l.15-.37,1.51.72s-6.46,25.35-4.55,62.53c0,.11,0,.22,0,.32a263.33,263.33,0,0,0,4,34.2C262,364.6,262,364.84,262.05,365.07Z"/><path class="cls-6" d="M122.63,327.75a15.66,15.66,0,0,0-.5,7.66c-11.19-13.89-21.09-37.31-20-76.62l.37-5.93v-.09l4.15-1.31s0,.08,0,.23c0,2.17-.43,18.93.8,24.07,0,0,0,28.89,15.2,52Z"/><path class="cls-6" d="M200.16,353.51s-20.67,10.89-48.91,1.55c0,0-6.19-1.1-14.18-6.16a29.49,29.49,0,0,0,2.23-3.9c8.75,6,19.88,10.12,34.07,10.8C173.37,355.8,187.82,357.19,200.16,353.51Z"/></g><path id="mouth" class="cls-5" d="M216.75,172s5.28,18,19,21c0,0-21.2,16.36-32.54.94C203.2,194,194.22,180,216.75,172Z"/><g id="eyes"><g id="eye_whites"><path class="cls-5" d="M226.68,130.51a37.07,37.07,0,0,1-32.41,14.4S161.9,143,166,115.21l.13,0a54.06,54.06,0,0,1,11-2.51,13.37,13.37,0,0,0-1.72,2,11.85,11.85,0,0,0,2.67,16.36,14,14,0,0,0,8.46,2.78,15.39,15.39,0,0,0,2-.14c6.9-1,11.95-6.53,11.95-12.79a12,12,0,0,0-.11-1.57,11.39,11.39,0,0,0-.6-2.45,12,12,0,0,0-1.87-3.33A54.55,54.55,0,0,1,225.11,129c-.06-.11-.38-.56-1-1.29l.24.24.21.25C225.3,128.91,226,129.7,226.68,130.51Z"/><path class="cls-5" d="M283.11,143.19h0l-.08,0h0a26.62,26.62,0,0,1-10.14,2.58l-1.05,0c-17.75-.76-23.53-12.76-24-13.86L249,130.8l1.16-1.08c.77-.69,1.54-1.36,2.3-2s1.26-1,1.88-1.5c.36-.27.71-.54,1.06-.79l.82-.6,1.22-.82,1-.66.08,0a13,13,0,0,0-.29,1.38,10.09,10.09,0,0,0,2,7.49,12.16,12.16,0,0,0,8,4.56,12.7,12.7,0,0,0,5-.3,11.55,11.55,0,0,0,5.4-3.22,10.05,10.05,0,0,0,2.59-5.4A10.57,10.57,0,0,0,275,116.94l.66-.09,1-.12,1.16-.1.49,0a35.07,35.07,0,0,1,9.32.65l.06,0a27.92,27.92,0,0,1,7.38,2.58C295.82,133.73,289.28,140.19,283.11,143.19Z"/></g><g id="eyes-2" data-name="eyes"><path class="cls-4" d="M199.86,116.88a12,12,0,0,0-1.87-3.33A54.55,54.55,0,0,1,225.11,129c-.06-.11-.38-.56-1-1.29l-.3-.39,0,0c-5.3-6.7-26.38-29.62-57.29-15.61l-.56,3.59h0l.13,0a54.06,54.06,0,0,1,11-2.51,13.37,13.37,0,0,0-1.72,2,11.85,11.85,0,0,0,2.67,16.36,14,14,0,0,0,8.46,2.78,15.39,15.39,0,0,0,2-.14c6.9-1,11.95-6.53,11.95-12.79a12,12,0,0,0-.11-1.57A11.39,11.39,0,0,0,199.86,116.88Zm-6.71,3.61a1.86,1.86,0,1,1,2-1.75A1.86,1.86,0,0,1,193.15,120.49Z"/><path class="cls-4" d="M294.44,113.65a25.94,25.94,0,0,0-5.17-2.53h0c-.36-.12-.72-.24-1.08-.34l-.07,0c-.22-.07-.44-.13-.67-.18a24.15,24.15,0,0,0-14.19.79c-11.73,4-21.1,15-23.91,18.55l-.19.24-.42.54c-.1.15-.18.25-.22.3.2-.19.37-.37.55-.56h0a61.8,61.8,0,0,1,10.07-8.65c-.06.1-.1.2-.15.3-.17.4-.32.82-.46,1.24a13,13,0,0,0-.29,1.38,10.09,10.09,0,0,0,2,7.49,12.16,12.16,0,0,0,8,4.56,12.7,12.7,0,0,0,5-.3,11.55,11.55,0,0,0,5.4-3.22,10.05,10.05,0,0,0,2.59-5.4A10.57,10.57,0,0,0,275,116.94h0a10.29,10.29,0,0,0-1-.45l-.44-.16-.07,0a12.46,12.46,0,0,0-1.87-.46c.65-.18,1.27-.35,1.9-.48a33,33,0,0,1,14.26-.08h0a.07.07,0,0,1,.06,0,2.59,2.59,0,0,1,.4.09,25,25,0,0,1,6.64,2.45l.07,0Zm-20.79,6.16a1.76,1.76,0,0,1,.66-.08,1.86,1.86,0,0,1-.21,3.71,2.1,2.1,0,0,1-.46-.08,1.86,1.86,0,0,1,0-3.55Z"/></g><path id="eye_highlight" class="cls-5" d="M195.12,118.74a1.86,1.86,0,1,1-1.75-2A1.87,1.87,0,0,1,195.12,118.74Z"/><g id="eye_shading"><path class="cls-7" d="M177.18,112.65a13.37,13.37,0,0,0-1.72,2,51.64,51.64,0,0,0-9.48,1.54l.16-1.07A54.06,54.06,0,0,1,177.18,112.65Z"/><path class="cls-7" d="M226.07,130.05a72.64,72.64,0,0,0-26.21-13.17,12,12,0,0,0-1.87-3.33A54.55,54.55,0,0,1,225.11,129c-.06-.11-.38-.56-1-1.29l-.3-.39.54.63.21.25C225.57,129.33,226.07,130.05,226.07,130.05Z"/><path class="cls-7" d="M259.11,121.77c-.06.1-.1.2-.15.3-.17.4-.32.82-.46,1.24l-.08,0-1,.66-1.22.82-.82.6c-.35.25-.7.52-1.06.79-.62.47-1.25,1-1.88,1.5s-1.53,1.3-2.3,2L249,130.8l-1.16,1.12v0c.16-.21.59-.72,1.22-1.47h0A61.8,61.8,0,0,1,259.11,121.77Z"/><path class="cls-7" d="M295.06,119.85a27.92,27.92,0,0,0-7.38-2.58l-.06,0a35.07,35.07,0,0,0-9.32-.65l-.49,0-1.16.1-1,.12-.66.09h0a10.29,10.29,0,0,0-1-.45l-.44-.16-.07,0a12.46,12.46,0,0,0-1.87-.46c.65-.18,1.27-.35,1.9-.48a33,33,0,0,1,14.26-.08h0a.07.07,0,0,1,.06,0,2.59,2.59,0,0,1,.4.09,25,25,0,0,1,6.64,2.45v.06C295,118.56,295,119.22,295.06,119.85Z"/></g></g><g id="eyebrows"><path class="cls-4" d="M223.18,97.83a4,4,0,0,1-1.1,2.69l-.69.72-.73-.7a42.57,42.57,0,0,0-16.9-10.49,34.89,34.89,0,0,0-13.67-1.37c-11.31,1-20.13,7-23.4,9.47l-1.26-1.58a53.66,53.66,0,0,1,17.25-9.83c.72-.25,1.45-.46,2.16-.66a38.9,38.9,0,0,1,8.58-1.32,38.44,38.44,0,0,1,15.82,2.73c1.07.43,2,.86,3,1.33l.45.23h0A38.75,38.75,0,0,1,222,95.46,3.34,3.34,0,0,1,223.18,97.83Z"/><path class="cls-4" d="M289.27,104.93v6l0,.12-1-3.09h0l-.9-2.67a8.2,8.2,0,0,0-1.14-2.27h0a7.43,7.43,0,0,0-1.12-1.26c-3.58-3.25-10-3.16-14.86-2.45l-.39,0a61.81,61.81,0,0,0-11.22,2.87l-.8.29-.43-.74a4,4,0,0,1-.47-2.81,2.5,2.5,0,0,1,1.29-1.55l.21-.09a66.08,66.08,0,0,1,9-1.57l.94-.08c7.56-.6,13.22.38,16.82,2.94a10.94,10.94,0,0,1,1.1.89,10.21,10.21,0,0,1,2.93,4.77Z"/></g><g id="necklace"><g id="shells"><path class="cls-8" d="M181.69,253.13a1.41,1.41,0,0,1,0,.2h0c0,.1,0,.2,0,.3a2.36,2.36,0,0,1-.2.62h0a1.58,1.58,0,0,1-.13.26c-1,1.75-3.76,3-7,3a10.42,10.42,0,0,1-5.25-1.3,6.54,6.54,0,0,1-.69-.48,3.73,3.73,0,0,1-.72-.71,3.06,3.06,0,0,1-.38-.53,3.52,3.52,0,0,1-.18-.4,2.41,2.41,0,0,1-.08-.25h0a1,1,0,0,1-.07-.23l0-.19a1,1,0,0,1,0-.18h0a.34.34,0,0,1,.06-.12.61.61,0,0,0,0-.12l0-.08v0l.06-.27a.68.68,0,0,0,0-.14.91.91,0,0,0,0-.17,2.13,2.13,0,0,0,0-.27.54.54,0,0,1,0-.11,1.51,1.51,0,0,1,.11-.22,3.67,3.67,0,0,1,.52-.71l.25-.25.17-.15a3.84,3.84,0,0,1,.56-.41A2.27,2.27,0,0,1,169,250a5.12,5.12,0,0,1,.57-.3c.18-.09.37-.17.57-.25s.41-.15.61-.22a8.1,8.1,0,0,1,1.33-.34c.23-.05.47-.08.72-.11l.56,0,.29,0,.64,0,.68,0a2.34,2.34,0,0,1,.38,0l.42,0h.09c.2,0,.4.06.6.09l.52.11a3.25,3.25,0,0,1,.42.11l.43.13c.2.07.41.14.6.22a5.44,5.44,0,0,1,.5.22,1,1,0,0,1,.28.14,1.63,1.63,0,0,1,.34.19,5.19,5.19,0,0,1,.82.58c.12.1.23.21.34.32a3,3,0,0,1,.24.26.59.59,0,0,1,.08.11,3.05,3.05,0,0,1,.22.32,3.24,3.24,0,0,1,.19.37,2.24,2.24,0,0,1,.14.39h0a1.43,1.43,0,0,1,.07.28A2.28,2.28,0,0,1,181.69,253.13Z"/><path class="cls-8" d="M150.17,246.16h0a.27.27,0,0,0,.1-.06Zm12.89,6.17a0,0,0,0,1,0,0v-.11A.71.71,0,0,0,163.06,252.33Zm.1-.61a.83.83,0,0,0,0,.15,1.83,1.83,0,0,1,.08-.25A.42.42,0,0,0,163.16,251.72Z"/><path class="cls-8" d="M163.91,250.7a0,0,0,0,1,0,0,1.66,1.66,0,0,0-.21.16l0,0-.2.24-.05.06,0,.07-.09.15,0,0s0,0,0,0a.56.56,0,0,0,0,.12.42.42,0,0,0,0,.1.83.83,0,0,0,0,.15.71.71,0,0,0,0,.2.49.49,0,0,0,0,.12.71.71,0,0,0,0,.14v0a1.94,1.94,0,0,0,0,.24l0,.15h0s0,.06,0,.08l0,0L163,253l-.05,0-.08.07-.34.24a2.69,2.69,0,0,1-.38.19,2.26,2.26,0,0,1-.39.15l0,0-.1,0-.33.09a7.23,7.23,0,0,1-2.26.11,7.85,7.85,0,0,1-.81-.11l-.57-.12a11.51,11.51,0,0,1-2.59-1,10.57,10.57,0,0,1-3.94-3.3l-.2-.31v0a4.76,4.76,0,0,1-.72-1.84.41.41,0,0,1,0-.11,2.74,2.74,0,0,1,0-.56,2,2,0,0,1,0-.42.27.27,0,0,0,.1-.06.23.23,0,0,0,.11-.07,1.33,1.33,0,0,0,.19-.14l.05-.05a2.88,2.88,0,0,0,.22-.27,1.62,1.62,0,0,0,.1-.18,1.25,1.25,0,0,0,.13-.4,1.09,1.09,0,0,0,0-.26.66.66,0,0,0,0-.14c1.58-1.36,4.82-1.3,7.92.26C161.91,246.34,163.81,248.71,163.91,250.7Z"/><path class="cls-8" d="M150.21,241.52s0,0,0,0a4.42,4.42,0,0,1-.54,1.69,1.15,1.15,0,0,0-.45,0,.48.48,0,0,0-.17,0H149a1.39,1.39,0,0,0-.8.77l-.06.14a1,1,0,0,0,0,.18v0a.87.87,0,0,0,0,.36l-.08,0a4,4,0,0,1-2.17.45,5.06,5.06,0,0,1-2.5-.94h0a40.81,40.81,0,0,0-1.31-4c.12-.28.23-.57.34-.84s.27-.64.39-1l.09-.23.11-.3c0-.09.07-.18.09-.26h0c0-.1.06-.18.09-.26l.05,0a3.42,3.42,0,0,0,.27-.27c.53-.58.27-.64,0-.6.06-.17.13-.33.18-.5a3.41,3.41,0,0,1,.66-.22,4.84,4.84,0,0,1,5.15,2.34A5.12,5.12,0,0,1,150.21,241.52Z"/><path class="cls-8" d="M198.75,249.65c-.36,2-2.8,4.08-6.12,4.93a11.43,11.43,0,0,1-4.09.3,6.08,6.08,0,0,1-.87-.15,5.5,5.5,0,0,1-1.28-.43l0,0a4.05,4.05,0,0,1-.91-.54,3.18,3.18,0,0,1-.63-.64h0a.88.88,0,0,1-.12-.17,1.74,1.74,0,0,0,.05-.39,1.76,1.76,0,0,0,0-.31,2.25,2.25,0,0,0-.08-.24l-.09-.18-.13-.18h0l-.14-.15a.62.62,0,0,1,0-.13c.11-2.14,2.64-4.4,6.17-5.3a11.28,11.28,0,0,1,3.76-.33h0a6.42,6.42,0,0,1,3.35,1.15h0a1,1,0,0,0,.89,1,2.34,2.34,0,0,1,.24.62.17.17,0,0,1,0,.07,1,1,0,0,1,.05.29A2.22,2.22,0,0,1,198.75,249.65Z"/></g><g id="black_beads" data-name="black beads"><path class="cls-4" d="M151.1,244.74a1.09,1.09,0,0,1,0,.26,1.25,1.25,0,0,1-.13.4,1.62,1.62,0,0,1-.1.18,2.88,2.88,0,0,1-.22.27l-.05.05a1.33,1.33,0,0,1-.19.14.23.23,0,0,1-.11.07.27.27,0,0,1-.1.06l-.25.07a1.39,1.39,0,0,1-.35,0h-.15a2.88,2.88,0,0,1-.4-.09h0a1.53,1.53,0,0,1-.29-.18.6.6,0,0,1-.11-.06s-.07-.06-.08-.09h0l-.11-.12,0,0a1.28,1.28,0,0,1-.15-.25.15.15,0,0,1,0-.07,1.18,1.18,0,0,1-.07-.2.36.36,0,0,1,0-.11.89.89,0,0,1,0-.22.87.87,0,0,1,0-.36v0a1,1,0,0,1,0-.18l.06-.14a1.39,1.39,0,0,1,.8-.77h.05a.48.48,0,0,1,.17,0,1.15,1.15,0,0,1,.45,0,.62.62,0,0,1,.19,0,.37.37,0,0,1,.14,0s0,0,.05,0l.12,0a1.59,1.59,0,0,1,.92,1.23A.66.66,0,0,1,151.1,244.74Z"/><path class="cls-4" d="M167.09,252.34c0,.1,0,.21,0,.31l-.06.27v0c0,.07-.05.13-.07.2a.34.34,0,0,0-.06.12h0l-.06.1-.13.19-.15.17a1.08,1.08,0,0,1-.19.17,1.85,1.85,0,0,1-.51.3l-.06,0h-.05a.42.42,0,0,1-.15,0,.31.31,0,0,1-.13,0,1.63,1.63,0,0,1-.85,0,2,2,0,0,1-1.22-.89l-.06-.12a1.15,1.15,0,0,1-.12-.25h0c0-.06,0-.11-.05-.18s0-.05,0-.08h0l0-.15a1.94,1.94,0,0,1,0-.24v0a.71.71,0,0,1,0-.14.49.49,0,0,1,0-.12c0-.07,0-.14,0-.2a.83.83,0,0,1,0-.15.42.42,0,0,1,0-.1,1.11,1.11,0,0,1,.09-.19l.09-.15.08-.13.2-.24a2.31,2.31,0,0,1,.24-.2,0,0,0,0,0,0,0,2,2,0,0,1,1.17-.38,1.73,1.73,0,0,1,.32,0l.27.06.26.1a2.52,2.52,0,0,1,.44.28,1.14,1.14,0,0,1,.16.15,1.37,1.37,0,0,1,.25.33.72.72,0,0,1,.12.21.25.25,0,0,1,0,.07,1.91,1.91,0,0,1,.11.41A1.58,1.58,0,0,1,167.09,252.34Z"/><path class="cls-4" d="M184.75,252.53a1.74,1.74,0,0,1-.05.39,1.58,1.58,0,0,1-.25.54l-.1.12-.12.11-.11.09h0l-.16.09a.88.88,0,0,1-.22.1.83.83,0,0,1-.21.06,1.33,1.33,0,0,1-.28,0,1.46,1.46,0,0,1-1-.38,1.51,1.51,0,0,1-.52-1.13v0a.17.17,0,0,1,0-.07.15.15,0,0,1,0-.07.22.22,0,0,1,0-.08.28.28,0,0,1,0-.09,1.21,1.21,0,0,1,.05-.18l.06-.13a1.19,1.19,0,0,1,.09-.15.71.71,0,0,1,.1-.14.49.49,0,0,1,.12-.13l.13-.12.12-.08a1.46,1.46,0,0,1,.81-.25,1.5,1.5,0,0,1,1,.42l.14.15h0l.13.18.09.18a2.25,2.25,0,0,1,.08.24A1.76,1.76,0,0,1,184.75,252.53Z"/><path class="cls-4" d="M199.61,246.86a1,1,0,0,1-1,1h-.12a1,1,0,0,1-.89-1h0a1,1,0,0,1,1-1A1,1,0,0,1,199.61,246.86Z"/></g></g><g id="hair"><path class="cls-9" d="M242.42,248.74s8.8-2.65,15.29-16.5c0,.13-.15.67-.4,1.48,6.75-15.23,2.36-30.06,1.4-32.9a109.49,109.49,0,0,1-13.78,17.79C247.46,231,237.29,236,237.29,236a24.74,24.74,0,0,0,6.92-16.65,50.44,50.44,0,0,1-12.71,9.51l6.63,4.15a45.48,45.48,0,0,1-8.14-3.43,27,27,0,0,1-8.2,2.24c-1.83,5.08,1.57,11.75,3.06,14.33a51.77,51.77,0,0,1-2.1-4.75,56.34,56.34,0,0,0,18.38,21c2.64-3,5.58-7.66,5.19-13.55a12.76,12.76,0,0,1-3.94,14.07,20.3,20.3,0,0,1-5.15,3.05,23.77,23.77,0,0,0,3.73-3.39l.14-.15c-7.26-1.46-12.64-9.37-15.64-15a24,24,0,0,0-2.28,10.85c.12,11.08,6.51,20.93,6.51,20.93C219.37,294,235,309.3,235,309.3c-6.51,8.28.55,14.81.55,14.81-6.7,5.38.24,12.63.24,12.63,4.32,6.33.79,13.7.79,13.7,16.63-13.43,10.32-24.93,9.61-26.11-2.27,2-4.7,2.66-10.58.36v-.31c6.28,1.91,11.31-1.31,13-2.65,4.94-6.26.53-12.76.53-12.76a25.55,25.55,0,0,0,5.11-6.8c3.82-7.35,3.66-15.57,2.73-21.48a46.28,46.28,0,0,0-1.77-7.41,22.8,22.8,0,0,1-10.14,9c7.34-4.53,11.56-13.1,12.79-15.89.14-.32.24-.57.3-.73s0,0,0,0a.14.14,0,0,0,0-.06c2.59-10.43-2.25-22.49-3.58-25.5C252.3,244.19,248.43,248.52,242.42,248.74Zm-15.19-16.65a43,43,0,0,0,13.22,25.48C221.1,245.88,227.23,232.09,227.23,232.09Zm8.76,1.38s0,.18-.05.48c-.19,2.57-.5,13.34,9.67,16.11C245.61,250.06,231.93,250.43,236,233.47Zm9.65,56.86S235,292.22,230.32,280C230.59,280.48,235,287.54,245.64,290.33Zm-15-.78c-.39,3.64,5,14.57,5,14.57C228.76,300.66,230.68,289.55,230.68,289.55Zm5,28.73c-3.82-8,5.38-8.23,5.38-8.23C235.46,311.77,235.65,318.28,235.65,318.28Zm4.11-11a10.56,10.56,0,0,1,9.43,1.7s-6.34-1.43-11.22-.28a13,13,0,0,1-1.19.74c.19-.19.38-.38.55-.57a8.49,8.49,0,0,0-2.68,1.26,14,14,0,0,1,3.6-2.3c7.49-9,8.46-24,8.46-24C249.09,296.67,243.48,304,239.76,307.23Zm6.34-23.94c-.74-.15-14.89-3.39-9.53-21.62C236.6,261.56,234.33,277.56,246.1,283.29Z"/><path class="cls-9" d="M140.45,342.21s-.16.53-.52,1.4c-.16.39-.37.87-.63,1.39a29.49,29.49,0,0,1-2.23,3.9,24.11,24.11,0,0,1-18.49,11s10.42-5,6.61-15.17a32.78,32.78,0,0,1-3.06-9.34h0a15.66,15.66,0,0,1,.5-7.66h0a10.14,10.14,0,0,1,.65-1.42,9.82,9.82,0,0,1,.78-1.2c3.31,1.7,9.51-.84,11.93-4.07-.1.17-.21.33-.32.5C135.67,321.55,144.23,331,140.45,342.21Z"/><path class="cls-9" d="M283.43,43.47l.09.2-.26-.24-.16-.16c-.18-.16-.41-.38-.71-.64l-.26-.2-.09-.08,0,0-.09-.08-.26-.2c-.12-.1-.24-.2-.37-.29l-.39-.3a3.55,3.55,0,0,0-.31-.23l-.11-.09-.47-.34c-.17-.13-.35-.24-.52-.36l-.51-.34c-1.13-.76-2.49-1.6-4.09-2.47-.34-.19-.69-.38-1.06-.56s-.73-.39-1.13-.58-.78-.39-1.19-.58l-1.27-.59a79.71,79.71,0,0,0-8.62-3.26l-1.32-.41-1.37-.41c-.92-.26-1.88-.52-2.87-.77-.4-.11-.83-.21-1.25-.31-1.09-.26-2.22-.51-3.38-.76.23.26.74.8,1.45,1.62a89.6,89.6,0,0,1,6.9,9.1c1.26,1.89,2.56,4,3.83,6.28a75.27,75.27,0,0,1,8.34,22,54.65,54.65,0,0,1-.17,22.87,152.74,152.74,0,0,0-7.26-33.48c-1.35-4.06-2.95-8.28-4.82-12.56-1-2.31-2.1-4.62-3.29-6.93-1.29-2.52-2.67-5-4.18-7.49l-.87-1.43c-3.33-.67-6.94-1.27-10.86-1.71L241,28a53.56,53.56,0,0,1,7.44,6.8,59.6,59.6,0,0,1,7.15,9.6,66,66,0,0,1,3.65,7,76.62,76.62,0,0,1,5.05,15.68,221.54,221.54,0,0,0-13.43-23.2c-.73-1.1-1.48-2.19-2.25-3.28-1.9-2.68-3.89-5.32-5.94-7.75a69.5,69.5,0,0,0-4.94-5.35,57,57,0,0,0-6.16-.51,150.76,150.76,0,0,0-18.73.1l-.43,0-.44.05-2.14.26c-1.34.18-2.69.37-4.05.58a33.18,33.18,0,0,1,3,9.15,39.1,39.1,0,0,1,.22,12.41,45,45,0,0,1-5,14.93s1.23-6.15,2-14.08a117.48,117.48,0,0,0,.55-11.93A57.89,57.89,0,0,0,205.52,28a164.76,164.76,0,0,0-16.31,3.3l-.09,0c-12.65,3.26-25,8.25-34.93,15.59-21.86,16.12-40.41,41.26-47.87,67.58a93.12,93.12,0,0,0-2.64,12.17c-4.79,32.72-1.45,44.76-.74,52.48.91,1,1.45,1.44,1.45,1.44-10.77,23.55,1.9,39.46,5,42.12-4.13,6.71-2.85,14.11-1.1,19.06a53.7,53.7,0,0,0,5.64,8.84,55.28,55.28,0,0,0,12.46,11.8c2.83-2.74,6.91-7.92,6.53-14.74a12.22,12.22,0,0,1-2.35.49,14.32,14.32,0,0,0,1.64.55,11.72,11.72,0,0,1-6.15-1.82c-3-2-5.56-6.12-3.49-14.77,0,0,0,.17,0,.48-.15,2.09-.39,9.54,4.94,13.78a12.41,12.41,0,0,0,2.77,1.63c1.37-.56,5.11-2.43,9.08-7.24a41.25,41.25,0,0,0,5.46-8.69c4.53-18.51-5.61-26.25-5.61-26.25a31.41,31.41,0,0,0,3.95-17.74c-1-12.44-9.08-21.17-9.08-21.36,3.08-36.27,13.68-63.5,26.8-83.8,1.62.35,3.26.7,4.94,1l1.85.35c.77.16,1.55.3,2.34.43,1.64.3,3.29.58,5,.85l2,.31c.46.08.94.15,1.41.21l1.42.21,2.87.41c.72-.25,1.45-.46,2.16-.66a38.9,38.9,0,0,1,8.58-1.32,38.44,38.44,0,0,1,15.82,2.73c1.07.43,2,.86,3,1.33l.45.23h0c2.81.44,5.61.88,8.37,1.29h0c23.78,1.45,46.73,1.64,62.05,1.55.41,1.18.77,2.32,1.09,3.44.17.56.34,1.1.48,1.65s.3,1.08.43,1.6a10.94,10.94,0,0,1,1.1.89,10.21,10.21,0,0,1,2.93,4.77l.12.69v6a120,120,0,0,0,2.56-19.11c6.34-.11,10-.23,10-.23C302.63,68,294.45,53,283.43,43.47Zm-172.8,64.7a128,128,0,0,0,1.7,26.94,0,0,0,0,0,0,0,158.5,158.5,0,0,0,14.36,44.5c-13.63-14.48-16.8-36.59-17.09-52.38v-.08A125.32,125.32,0,0,1,110.63,108.17Zm16.76,79.55c-15.82-4.83-22.45-43.59-22.65-44.8C114.82,172.76,127,187.28,127.39,187.72ZM104,180.16c6,3.77,20.39,11.69,20.39,11.69C115.68,191.13,104,180.16,104,180.16Zm13.12,10c-.26,1.76-3.3,23.9,13,30.79C130.15,220.92,110,219.73,117.16,190.13Zm6.25,36.79a2.68,2.68,0,0,1-1.27-.46c-3.17-1.26-11.47-5.24-15-13.51.37.37,10.87,11.12,15,13.51C122.94,226.78,123.41,226.92,123.41,226.92ZM103,212.48a63.35,63.35,0,0,0,21.52,19C109.43,227.9,103.26,213.1,103,212.48Zm20.91,22.19a24.81,24.81,0,0,0,6.61-21C136,228.74,123.91,234.67,123.91,234.67Zm-.11-19.08c9.12-2.28,18.41-17.74,18.41-17.74A24.39,24.39,0,0,1,123.8,215.59ZM134.17,176c-.49,8.27-3.69,19.58-17.07,22.29,8.87-3.54,13.77-16.09,15.79-24.23h0a38.54,38.54,0,0,0,1.05-5.8c-.1-.87-.19-1.37-.19-1.37.21-.19.28.33.19,1.37A41.49,41.49,0,0,1,134.17,176ZM144.51,71.79h0l-.55,1C124.16,108,126.22,151.9,126.34,154.2c-10-64.63,23.24-90.34,23.24-90.34C147.76,66.43,146.06,69.09,144.51,71.79Zm14.86-5.15c-1.49,3.1-3,6.56-4.35,10.41-.39,1-.77,2.13-1.15,3.24a26.62,26.62,0,0,1,.22-3.53,43.17,43.17,0,0,1,2-8.87h0c2.68-8.13,8.69-18.5,22-25.59C176.13,43.54,167.52,49.61,159.37,66.64ZM213.92,88c4.8-13.51,4.44-31.61,3.85-40.7-.22-3.57-.48-5.75-.48-5.75q1.2,2.76,2.07,5.39C227.28,71.3,213.92,88,213.92,88Zm30.8,2.1c6.29-11,1.57-28,1.38-28.67C259,76.74,244.72,90.13,244.72,90.13Z"/></g><g id="hair_lowlights"><path class="cls-10" d="M249.19,308.93s-6.34-1.43-11.22-.28a13,13,0,0,1-1.19.74c.19-.19.38-.38.55-.57a8.49,8.49,0,0,0-2.68,1.26,14,14,0,0,1,3.6-2.3c7.49-9,8.46-24,8.46-24,2.38,12.88-3.23,20.16-7,23.44A10.56,10.56,0,0,1,249.19,308.93Z"/><path class="cls-10" d="M134.17,176c-.49,8.27-3.69,19.58-17.07,22.29,8.87-3.54,13.77-16.09,15.79-24.23h0a38.54,38.54,0,0,0,1.05-5.8A41.49,41.49,0,0,1,134.17,176Z"/><path class="cls-10" d="M127.39,187.72c-15.82-4.83-22.45-43.59-22.65-44.8C114.82,172.76,127,187.28,127.39,187.72Z"/><path class="cls-10" d="M142.21,197.85a24.39,24.39,0,0,1-18.41,17.74C132.92,213.31,142.21,197.85,142.21,197.85Z"/><path class="cls-10" d="M135.05,307s-9.9,1-12.6,2.35h0l-.15.08.14-.11C123.49,308.56,128.88,305.14,135.05,307Z"/><path class="cls-10" d="M136.13,320.86,136,321s0,0,0,0c-2.42,3.23-8.62,5.77-11.93,4.07l-.14-.07-.58-.69.19,0c5.81.92,11.89-3.05,12.55-3.5h0Z"/><path class="cls-10" d="M124.43,191.85c-8.75-.72-20.39-11.69-20.39-11.69C110.08,183.93,124.43,191.85,124.43,191.85Z"/><path class="cls-10" d="M123.91,234.67a24.81,24.81,0,0,0,6.61-21C136,228.74,123.91,234.67,123.91,234.67Z"/><path class="cls-10" d="M144.8,232.1c-.23.94-.5,1.91-.81,2.9-.13.36-.28.76-.45,1.16l-.21.49c-.12.29-.25.57-.38.86a4.25,4.25,0,0,1-.21.43,0,0,0,0,1,0,0l-.09.19-.09.18-.1.17a.09.09,0,0,1,0,.06c-.13.27-.27.54-.42.8-.25.46-.53.91-.82,1.36v0l0,0a15.83,15.83,0,0,1-8.16,6.88,1.52,1.52,0,0,0-.07-.18c0,.07,0,.14,0,.2a12.22,12.22,0,0,1-2.35.49l-.33-.15c1.37-.56,5.11-2.43,9.08-7.24A41.25,41.25,0,0,0,144.8,232.1Z"/><path class="cls-10" d="M124.52,231.5c-15.09-3.6-21.26-18.4-21.52-19A63.35,63.35,0,0,0,124.52,231.5Z"/><path class="cls-10" d="M132.23,248.73a11.72,11.72,0,0,1-6.15-1.82c-3-2-5.56-6.12-3.49-14.77,0,0,0,.17,0,.48-.15,2.09-.39,9.54,4.94,13.78a12.41,12.41,0,0,0,2.77,1.63l.33.15A14.32,14.32,0,0,0,132.23,248.73Z"/><path class="cls-10" d="M126.41,262.43l-.09.09c-5.79-1.27-10.35-6.62-13.47-11.61-.68-1.09-1.28-2.15-1.81-3.15,0,0,0,0,0,0s-.27-.47-.69-1.25l-.06-.12c-.07-.13-.14-.26-.2-.4-.3-.62-.57-1.21-.82-1.72l-.29-.68-.14-.33c0-.11-.09-.22-.13-.33-.14-.35-.27-.72-.42-1.1a53.7,53.7,0,0,0,5.64,8.84A55.28,55.28,0,0,0,126.41,262.43Z"/><path class="cls-10" d="M123.84,264.6a19.88,19.88,0,0,0,2.48-2.08l.09-.09c2.83-2.74,6.91-7.92,6.53-14.74,0-.06,0-.13,0-.2a1.52,1.52,0,0,1,.07.18C133.5,249.06,136.41,259.31,123.84,264.6Z"/><path class="cls-10" d="M132.6,285.66c-.73-.17-14.5-3.77-9.28-24C123.35,261.55,121.14,279.3,132.6,285.66Z"/><path class="cls-10" d="M130.75,293.66s-10.56,1.87-15.26-10.14a.36.36,0,0,1,0-.11.21.21,0,0,1,0,.06h0C116.14,284.48,120.58,291,130.75,293.66Z"/><path class="cls-9" d="M143.66,245.6c-.12-.43-.23-.84-.34-1.22h0a40.81,40.81,0,0,0-1.31-4c.12-.28.23-.57.34-.84s.27-.64.39-1l.09-.23.11-.3c0-.09.07-.18.09-.26h0c0-.1.06-.18.09-.26s.05-.13.07-.19c.09-.25.17-.48.25-.73s.13-.33.18-.5c.13-.37.25-.75.36-1.12-.13.36-.28.76-.45,1.16l-.21.49c-.12.29-.25.57-.38.86a4.25,4.25,0,0,1-.21.43,0,0,0,0,1,0,0l-.09.19-.09.18-.1.17a.09.09,0,0,1,0,.06c-.13.27-.27.54-.42.8-.25.46-.53.91-.82,1.36v0l0,0a15.83,15.83,0,0,1-8.16,6.88c.5,1.39,3.41,11.64-9.16,16.93a19.88,19.88,0,0,0,2.48-2.08c-5.79-1.27-10.35-6.62-13.47-11.61-.68-1.09-1.28-2.15-1.81-3.15a26.22,26.22,0,0,0-1.41,2.94c-3.41,8.16-2.21,15.95,0,21.91v.06a40.1,40.1,0,0,0,5.86,10.74.21.21,0,0,1,0,.06h0c.64,1,5.08,7.52,15.25,10.18,0,0-10.56,1.87-15.26-10.14-6,17.11,6.3,25.36,6.94,25.77,1.06-.73,6.45-4.15,12.62-2.33,0,0-9.9,1-12.6,2.35h0c-4.82,5.62-.49,12.81,1.09,15.07,5.81.92,11.89-3.05,12.55-3.5h0c5-8.3-1.06-13.51-1.06-13.51,13.75-15.58,7.23-30.87,6.51-32.45a16.82,16.82,0,0,1-12,8.23c8.48-1.25,15-16,15-16-.12.58-.25,1.15-.4,1.69C146.63,260.33,145.11,251.16,143.66,245.6Zm-21.2,72.11c-3.84-8,5.36-8.23,5.36-8.23C122.27,311.2,122.46,317.71,122.46,317.71ZM111.34,256.8c1.35,15.71,10.74,28.35,10.74,28.35C106.17,271.55,111.34,256.8,111.34,256.8Zm12.06,51.25c8.84-8.75,9.93-25.59,9.93-25.59C136.78,301.16,123.4,308.05,123.4,308.05Zm9.2-22.39c-.73-.17-14.5-3.77-9.28-24C123.35,261.55,121.14,279.3,132.6,285.66Z"/><path class="cls-10" d="M123.4,308.05c8.84-8.75,9.93-25.59,9.93-25.59C136.78,301.16,123.4,308.05,123.4,308.05Z"/><path class="cls-10" d="M271.77,91.26a152.74,152.74,0,0,0-7.26-33.48c-1.35-4.06-2.95-8.28-4.82-12.56-1-2.31-2.1-4.62-3.29-6.93-1.29-2.52-2.67-5-4.18-7.49l-.87-1.43.07,0c.23.26.74.8,1.45,1.62a89.6,89.6,0,0,1,6.9,9.1c1.26,1.89,2.56,4,3.83,6.28a75.27,75.27,0,0,1,8.34,22A54.65,54.65,0,0,1,271.77,91.26Z"/><path class="cls-10" d="M213.92,88c4.8-13.51,4.44-31.61,3.85-40.7-.22-3.57-.48-5.75-.48-5.75q1.2,2.76,2.07,5.39C227.28,71.3,213.92,88,213.92,88Z"/><path class="cls-10" d="M244.72,90.13c6.29-11,1.57-28,1.38-28.67C259,76.74,244.72,90.13,244.72,90.13Z"/><path class="cls-10" d="M109.61,127.26v-.08a125.32,125.32,0,0,1,1-19,128,128,0,0,0,1.7,26.94,0,0,0,0,0,0,0,158.5,158.5,0,0,0,14.36,44.5C113.07,165.16,109.9,143.05,109.61,127.26Z"/><path class="cls-10" d="M178.11,42.3c-2,1.24-10.59,7.31-18.74,24.34-1.49,3.1-3,6.56-4.35,10.41-.39,1-.77,2.13-1.15,3.24a26.62,26.62,0,0,1,.22-3.53,43.17,43.17,0,0,1,2-8.87h0C158.76,59.76,164.77,49.39,178.11,42.3Z"/><path class="cls-10" d="M130.15,220.92s-20.2-1.19-13-30.79C116.9,191.89,113.86,214,130.15,220.92Z"/><path class="cls-10" d="M144.48,267.14c-.12.58-.25,1.15-.4,1.69l0,.11a22.85,22.85,0,0,1-2.51,6,16.82,16.82,0,0,1-12,8.23C138,281.9,144.48,267.14,144.48,267.14Z"/><path class="cls-10" d="M249.29,321.19c-1.2,1.19-2.15,2.29-3.12,3.14-2.27,2-4.7,2.66-10.58.36v-.31c6.28,1.91,11.31-1.31,13-2.65C249,321.44,249.24,321.24,249.29,321.19Z"/><path class="cls-10" d="M237.29,236a24.74,24.74,0,0,0,6.92-16.65v-.11l.7-.71a.24.24,0,0,1,0,.08C247.46,231,237.29,236,237.29,236Z"/><path class="cls-10" d="M257.71,232.24c0,.13-.15.67-.4,1.48a.64.64,0,0,0,0,.12,32.21,32.21,0,0,1-2.62,6.17h0c-2.35,4.17-6.22,8.5-12.23,8.72C242.42,248.74,251.22,246.09,257.71,232.24Z"/><path class="cls-10" d="M238.13,233a45.48,45.48,0,0,1-8.14-3.43l-.06,0,.82-.39,0,0,.18-.08.49-.23.05,0Z"/><path class="cls-10" d="M245.61,250.06s-13.68.37-9.62-16.59c0,0,0,.18-.05.48C235.75,236.52,235.44,247.29,245.61,250.06Z"/><path class="cls-10" d="M241.23,262.43l-.13,0c-7.26-1.46-12.64-9.37-15.64-15-.21-.41-.41-.79-.59-1.16l0,0a51.77,51.77,0,0,1-2.1-4.75,56.34,56.34,0,0,0,18.38,21Z"/><path class="cls-10" d="M242.38,262.89a20.3,20.3,0,0,1-5.15,3.05,23.77,23.77,0,0,0,3.73-3.39l.14-.15.13,0-.1-.06c2.64-3,5.58-7.66,5.19-13.55A12.76,12.76,0,0,1,242.38,262.89Z"/><path class="cls-10" d="M246.1,283.29c-.74-.15-14.89-3.39-9.53-21.62C236.6,261.56,234.33,277.56,246.1,283.29Z"/><path class="cls-10" d="M245.64,290.33S235,292.22,230.32,280C230.59,280.48,235,287.54,245.64,290.33Z"/><path class="cls-10" d="M258.25,265.48c-.06.31-.12.61-.19.9a23.12,23.12,0,0,1-2.82,6.9,22.8,22.8,0,0,1-10.14,9c7.34-4.53,11.56-13.1,12.79-15.89.14-.32.24-.57.3-.73s0,0,0,0a.14.14,0,0,0,0-.06Z"/></g><g id="hair_highlights"><path class="cls-11" d="M264.24,67.06a221.54,221.54,0,0,0-13.43-23.2c-.73-1.1-1.48-2.19-2.25-3.28-1.9-2.68-3.89-5.32-5.94-7.75a69.5,69.5,0,0,0-4.94-5.35c1,.14,2.09.3,3.27.51a53.56,53.56,0,0,1,7.44,6.8,59.6,59.6,0,0,1,7.15,9.6,66,66,0,0,1,3.65,7A76.62,76.62,0,0,1,264.24,67.06Z"/><path class="cls-11" d="M208.92,49.56a45,45,0,0,1-5,14.93s1.23-6.15,2-14.08a117.48,117.48,0,0,0,.55-11.93A57.89,57.89,0,0,0,205.52,28a.71.71,0,0,1,.21,0,33.18,33.18,0,0,1,3,9.15A39.1,39.1,0,0,1,208.92,49.56Z"/><path class="cls-11" d="M149.58,63.86c-1.82,2.57-3.52,5.23-5.07,7.93h0l-.55,1C124.16,108,126.22,151.9,126.34,154.2,116.37,89.57,149.58,63.86,149.58,63.86Z"/><path class="cls-11" d="M122.14,226.46c-3.17-1.26-11.47-5.24-15-13.51C107.51,213.32,118,224.07,122.14,226.46Z"/><path class="cls-11" d="M240.45,257.57c-19.35-11.69-13.22-25.48-13.22-25.48A43,43,0,0,0,240.45,257.57Z"/><path class="cls-11" d="M122.08,285.15c-15.91-13.6-10.74-28.35-10.74-28.35C112.69,272.51,122.08,285.15,122.08,285.15Z"/><path class="cls-11" d="M235.65,304.12c-6.89-3.46-5-14.57-5-14.57C230.29,293.19,235.65,304.12,235.65,304.12Z"/><path class="cls-11" d="M122.46,317.71c-3.84-8,5.36-8.23,5.36-8.23C122.27,311.2,122.46,317.71,122.46,317.71Z"/><path class="cls-11" d="M235.65,318.28c-3.82-8,5.38-8.23,5.38-8.23C235.46,311.77,235.65,318.28,235.65,318.28Z"/></g><g id="hat"><path id="hat_base" data-name="hat base" class="cls-12" d="M283.43,43.47c-22.37-47-96.52-37.84-96.52-37.84a55.39,55.39,0,0,0-52,1.84C115.47,18.52,94.5,40.15,94.5,40.15c16.9-29.33,40.43-32.68,40.43-32.68C102-5.82,74.31,43.07,74.31,43.07c-10.69,14.5-28.64,69.46-22.72,107.06,4.13,26.23,8.26,29.41,12.39,26.5,2-1.37,7.82,10.14,9,12.77,8.26,18,30,1.45,30.05-7.59,0-.83,0-1.7-.12-2.64-.71-7.72-4-19.76.74-52.48a93.12,93.12,0,0,1,2.64-12.17c7.46-26.32,26-51.46,47.87-67.58,9.95-7.34,22.28-12.33,34.93-15.59l.09,0,1.64-.49.21-.06.76-.22,1.5-.4c.29-.08.59-.16.89-.22q2-.51,4.11-.93l.67-.13,2.24-.43,1.78-.28,1.38-.2c.24,0,.49-.08.73-.1l.36-.05c0-.13,0-.26-.07-.4l.21.39c.37-.06.74-.11,1.11-.14.78-.1,1.57-.2,2.37-.28,1.07-.11,2.16-.21,3.26-.28l.43,0A102.18,102.18,0,0,1,231,26.84c.53,0,1.08.06,1.63.11,1.27.08,2.56.19,3.86.3l1,.09c1,.09,2,.21,3,.32,3.92.44,7.53,1,10.86,1.71a.83.83,0,0,1-.08-.12l.15.14c1.16.25,2.29.5,3.38.76.42.1.85.2,1.25.31,1,.25,1.95.51,2.87.77l1.37.41,1.32.41a79.71,79.71,0,0,1,8.62,3.26l1.27.59c.41.19.81.38,1.19.58s.77.38,1.13.58.72.37,1.06.56c1.6.87,3,1.71,4.09,2.47a60.46,60.46,0,0,0-5.86-3.65,57.67,57.67,0,0,1,9.8,6.6ZM64.44,176.1s-21-69.63,37.9-121.52h0c.11-.09.21-.2.32-.28l-.46.48C96.87,60.35,55.15,106.6,64.44,176.1ZM161.29,19.61C92.48,64.33,84.12,119.94,83.11,134.12,83,135.85,83,137,83,137.37q-.11-3-.07-5.94c.3-31.89,11.67-50.34,11.67-50.34,16.61-29.55,37.35-47.95,54.9-59.19C170,8.72,186.18,5.35,186.18,5.35A262,262,0,0,0,161.29,19.61Z"/><g id="hat_shade" data-name="hat shade"><path class="cls-13" d="M102.2,54.77C96.87,60.35,55.15,106.6,64.44,176.1c0,0-21-69.63,37.9-121.52h0c.11-.09.21-.2.32-.28Z"/><path class="cls-13" d="M186.18,5.35a262,262,0,0,0-24.89,14.26C92.48,64.33,84.12,119.94,83.11,134.12,83,135.85,83,137,83,137.37q-.11-3-.07-5.94c.3-31.89,11.67-50.34,11.67-50.34,16.61-29.55,37.35-47.95,54.9-59.19C170,8.72,186.18,5.35,186.18,5.35Z"/><path class="cls-13" d="M134.93,7.47C115.47,18.52,94.5,40.15,94.5,40.15,111.4,10.82,134.93,7.47,134.93,7.47Z"/></g></g></svg>