<svg id="Layer_1" data-name="Layer 1" xmlns="http://www.w3.org/2000/svg" viewBox="0 0 293.38 361.7"><defs><style>.cls-1{fill:#e2ab90;}.cls-2{fill:#d39781;}.cls-3{fill:#010101;}.cls-4{fill:#fff;}.cls-5{fill:#b9e5f4;opacity:0.69;}.cls-6{fill:#ccc;opacity:0.5;}.cls-7{fill:#f1e4dc;}.cls-8{fill:#fde35c;}.cls-9{fill:#cd9e3e;}.cls-10{fill:#fff1b9;}.cls-11{fill:#51385a;}.cls-12{fill:#322338;}</style></defs><g id="skin"><path class="cls-1" d="M68.59,319.52s.66,27-5.83,42.1l-62.19,0C-2.64,315,8.66,292.78,8.66,292.78,20.12,263.1,59.6,256.29,59.6,256.29c4-.49,5.68-.71,6.22-.76C65.82,255.53,67.6,284.44,68.59,319.52Z"/><path class="cls-1" d="M183.66,243.18l.14.15h0Zm25.8,26.9c0-.44,0-.88,0-1.3,0-1-.05-2-.08-3,0-.22,0-.44,0-.66s0-.57,0-.84c0,.42-.63.53-1.73.39h-.12c-2-.18-6-1.43-10.56-3.21l-1.32-.51a131.77,131.77,0,0,1-14.84-7l-.84-.49c-.6-.36-1.18-.71-1.72-1.05a7.54,7.54,0,0,1-2.13-.57l0,0a4.21,4.21,0,0,1-.9-.54,3.35,3.35,0,0,1-.62-.63h0a.88.88,0,0,1-.12-.17,1.53,1.53,0,0,1-.25.53l-.1.12-.12.11-.11.09h0l-.15.09a.88.88,0,0,1-.22.1.83.83,0,0,1-.21.06,1.33,1.33,0,0,1-.28,0,1.45,1.45,0,0,1-1-.38,1.48,1.48,0,0,1-.51-1.12v0a.17.17,0,0,1,0-.07.15.15,0,0,1,0-.07,205784106829.55,205784106829.55,0,0,0,0-.16,1.21,1.21,0,0,1,.05-.18l.06-.13a1.09,1.09,0,0,1,.08-.15.71.71,0,0,1,.1-.14.49.49,0,0,1,.12-.13l.13-.12.12-.08A1.47,1.47,0,0,1,174,249a.62.62,0,0,1,0-.13,1.73,1.73,0,0,1-.34-1s-16.1-33.57-29.56-49.56c-1.82,15.36-8.45,31.35-9.7,35.25a4.81,4.81,0,0,1,5.1,2.32,5.09,5.09,0,0,1,.76,3.25s0,0,0,.05a4.48,4.48,0,0,1-.53,1.67.55.55,0,0,1,.18,0,.37.37,0,0,1,.14,0s0,0,.05,0h.06l.06,0a1.56,1.56,0,0,1,.91,1.22c1.57-1.35,4.78-1.29,7.85.26,2.87,1.46,4.75,3.81,4.85,5.78a2,2,0,0,1,1.16-.38,1.55,1.55,0,0,1,.31,0,1.31,1.31,0,0,1,.27.06,1.17,1.17,0,0,1,.26.1,2.12,2.12,0,0,1,.43.28,1.14,1.14,0,0,1,.16.15,1.54,1.54,0,0,1,.25.32.72.72,0,0,1,.12.21.25.25,0,0,1,0,.07,1.91,1.91,0,0,1,.11.41.45.45,0,0,1,0,.11.54.54,0,0,1,0-.11,1.51,1.51,0,0,1,.11-.22,3.28,3.28,0,0,1,.51-.7c.08-.08.16-.17.25-.25l.17-.15a3.74,3.74,0,0,1,.55-.41,2.2,2.2,0,0,1,.25-.17,6,6,0,0,1,.56-.3,4.91,4.91,0,0,1,.57-.25,5.31,5.31,0,0,1,.6-.22,9.1,9.1,0,0,1,1.32-.33c.23-.05.47-.08.71-.11l.56,0,.28,0,.64,0,.67,0a2.34,2.34,0,0,1,.38,0l.41,0h.09c.2,0,.4.06.6.09l.51.11a3.25,3.25,0,0,1,.42.11,2.9,2.9,0,0,1,.42.12,5.31,5.31,0,0,1,.6.22,4.31,4.31,0,0,1,.49.22,1,1,0,0,1,.28.14,1.63,1.63,0,0,1,.34.19,4.87,4.87,0,0,1,.81.57c.12.1.23.21.34.32a2.85,2.85,0,0,1,.23.26.35.35,0,0,1,.08.1,3.05,3.05,0,0,1,.22.32,3.24,3.24,0,0,1,.19.37,2.46,2.46,0,0,1,.14.38h0a1.43,1.43,0,0,1,.07.28,2.28,2.28,0,0,1,0,.45,1.21,1.21,0,0,1,0,.19h0c0,.1,0,.2,0,.3a2.36,2.36,0,0,1-.2.62h0a2,2,0,0,1-.13.25c-1,1.74-3.72,3-7,3a10.36,10.36,0,0,1-5.2-1.28,5.53,5.53,0,0,1-.68-.48,3.69,3.69,0,0,1-.72-.7,3,3,0,0,1-.37-.53,3.39,3.39,0,0,1-.18-.39,2.41,2.41,0,0,1-.08-.25h0a1,1,0,0,1-.07-.23l0-.19a1,1,0,0,1,0-.17l-.06.09-.13.19-.15.17,0,.05h0l-.13.11a1.85,1.85,0,0,1-.51.3l-.11,0a.42.42,0,0,1-.15,0,.31.31,0,0,1-.13,0,1.83,1.83,0,0,1-.84,0,2,2,0,0,1-1.21-.89l-.06-.11a.63.63,0,0,1-.11-.25h0c0-.06,0-.11,0-.18l0,0-.13.12,0,0-.08.07a2.88,2.88,0,0,1-.34.23,3.2,3.2,0,0,1-.37.19,2.26,2.26,0,0,1-.39.15l0,0-.1,0-.33.09a7,7,0,0,1-2.23.11,7.85,7.85,0,0,1-.81-.11l-.56-.12a11.5,11.5,0,0,1-2.57-1,10.45,10.45,0,0,1-3.9-3.27l-.2-.3v0a4.86,4.86,0,0,1-.71-1.83.41.41,0,0,1,0-.11,2.61,2.61,0,0,1,0-.55,2,2,0,0,1,.05-.42h0l-.25.08a1.32,1.32,0,0,1-.34,0h-.15a2.15,2.15,0,0,1-.4-.09h0a1.61,1.61,0,0,1-.28-.17.9.9,0,0,1-.19-.15h0l-.11-.12,0,0a.69.69,0,0,1-.12-.18l0-.07a.15.15,0,0,1,0-.07,1.18,1.18,0,0,1-.07-.2.36.36,0,0,1,0-.11.76.76,0,0,1,0-.21l-.08,0a3.94,3.94,0,0,1-2.15.44,4.94,4.94,0,0,1-2.47-.93c.11.38.22.78.33,1.21,1.44,5.51,3,14.59.42,23,.15-.54.28-1.1.4-1.68,0,0-6.44,14.62-14.84,15.86a16.65,16.65,0,0,0,11.92-8.15c.72,1.56,7.17,16.7-6.44,32.13,0,0,6,5.16,1,13.38a0,0,0,0,1,0,0c-.66.45-6.68,4.38-12.43,3.47-1.57-2.24-5.85-9.36-1.08-14.93h0C115.4,305,125.21,304,125.21,304c-6.11-1.81-11.45,1.58-12.5,2.3-.63-.4-12.87-8.57-6.87-25.52,4.65,11.9,15.11,10.05,15.11,10.05-10.07-2.64-14.47-9.1-15.1-10.09h0l0-.06A39.4,39.4,0,0,1,100,270c.62,15.66,3.5,36.77,13.56,53.13a11,11,0,0,1,.77-1.19c3.28,1.69,9.42-.83,11.82-4-.1.17-.21.33-.32.5,0,0,8.48,9.37,4.74,20.46,0,0-.16.52-.52,1.38,9.07,5.75,20.81,8.9,36,7.85.52,0,1-.08,1.53-.14h.06l.36,0c.53,0,1.06-.12,1.58-.2s1-.15,1.49-.24l.63-.12c.25,0,.49-.09.73-.15l.72-.16c.48-.11,1-.23,1.43-.36s.94-.26,1.39-.4.85-.27,1.26-.42l.8-.29c.67-.25,1.33-.52,2-.8l.83-.38.53-.25.72-.36c.34-.18.68-.36,1-.55l.49-.28c.16-.09.33-.18.49-.29s.58-.34.86-.53l.25-.16.82-.55.54-.38.41-.3c.65-.47,1.28-1,1.89-1.49.26-.22.52-.44.77-.67.43-.38.86-.78,1.27-1.19.14-.13.29-.27.42-.41.55-.55,1.09-1.12,1.59-1.7.24-.25.46-.51.68-.77s.49-.58.72-.88l.11-.13.39-.5a.51.51,0,0,0,.09-.13c.13-.16.25-.33.37-.49a.79.79,0,0,0,.12-.15l0,0,.08-.1c.16-.2.3-.4.44-.61.59-.82,1.15-1.67,1.69-2.54.26-.42.52-.84.76-1.27s.5-.86.74-1.3q.71-1.29,1.35-2.64,1.15-2.4,2.12-4.91c.18-.45.35-.9.51-1.36.27-.74.53-1.48.78-2.23s.4-1.24.59-1.87c.37-1.2.71-2.4,1-3.62l.33-1.3c.09-.37.18-.73.26-1.1.2-.85.39-1.71.57-2.57.52-2.52,1-5.05,1.31-7.56,0-.27.08-.54.11-.81.21-1.48.38-2.95.53-4.41.05-.44.09-.87.13-1.31l.09-1c0-.32.06-.63.08-.94.07-.75.12-1.49.17-2.22s.09-1.34.13-2l.06-1.09c.05-.82.08-1.63.11-2.42,0-.46,0-.92,0-1.37,0-.94.06-1.87.07-2.78,0-.61,0-1.21,0-1.8C209.49,273.38,209.48,271.68,209.46,270.08ZM209.05,258c0,1.61.09,3.74.26,6.23C209.22,261.74,209.12,259.63,209.05,258ZM196,250.11A107.65,107.65,0,0,0,209,254.74C204.37,253.3,199.9,251.76,196,250.11Z"/><path class="cls-1" d="M293.34,324.8c-.43,19.82-1.43,36.74-1.43,36.74H251c-.3-1.78-3.26-19.58-4.37-38.39-1.56-26.42,2.78-53.05,4.74-58.42,2.85.52,4.53.8,4.53.8C286.7,273.12,294,295.33,293.34,324.8Z"/><path class="cls-1" d="M183,115.64a1.85,1.85,0,1,0,1.74,2A1.85,1.85,0,0,0,183,115.64Zm0,0a1.85,1.85,0,1,0,1.74,2A1.85,1.85,0,0,0,183,115.64Zm0,0a1.85,1.85,0,1,0,1.74,2A1.85,1.85,0,0,0,183,115.64Zm0,0a1.85,1.85,0,1,0,1.74,2A1.85,1.85,0,0,0,183,115.64Zm0,0a1.85,1.85,0,1,0,1.74,2A1.85,1.85,0,0,0,183,115.64Zm0,0a1.85,1.85,0,1,0,1.74,2A1.85,1.85,0,0,0,183,115.64Zm0,0a1.85,1.85,0,1,0,1.74,2A1.85,1.85,0,0,0,183,115.64Zm0,0a1.85,1.85,0,1,0,1.74,2A1.85,1.85,0,0,0,183,115.64Zm0,0a1.85,1.85,0,1,0,1.74,2A1.85,1.85,0,0,0,183,115.64Zm0,0a1.85,1.85,0,1,0,1.74,2A1.85,1.85,0,0,0,183,115.64Zm0,0a1.85,1.85,0,1,0,1.74,2A1.85,1.85,0,0,0,183,115.64Zm0,0a1.85,1.85,0,1,0,1.74,2A1.85,1.85,0,0,0,183,115.64Zm0,0a1.85,1.85,0,1,0,1.74,2A1.85,1.85,0,0,0,183,115.64Zm0,0a1.85,1.85,0,1,0,1.74,2A1.85,1.85,0,0,0,183,115.64Zm0,0a1.85,1.85,0,1,0,1.74,2A1.85,1.85,0,0,0,183,115.64Zm0,0a1.85,1.85,0,1,0,1.74,2A1.85,1.85,0,0,0,183,115.64Zm0,0a1.85,1.85,0,1,0,1.74,2A1.85,1.85,0,0,0,183,115.64Zm0,0a1.85,1.85,0,1,0,1.74,2A1.85,1.85,0,0,0,183,115.64Zm0,0a1.85,1.85,0,1,0,1.74,2A1.85,1.85,0,0,0,183,115.64Zm0,0a1.85,1.85,0,1,0,1.74,2A1.85,1.85,0,0,0,183,115.64Zm0,0a1.85,1.85,0,1,0,1.74,2A1.85,1.85,0,0,0,183,115.64Zm0,0a1.85,1.85,0,1,0,1.74,2A1.85,1.85,0,0,0,183,115.64Zm0,0a1.85,1.85,0,1,0,1.74,2A1.85,1.85,0,0,0,183,115.64Zm0,0a1.85,1.85,0,1,0,1.74,2A1.85,1.85,0,0,0,183,115.64Zm0,0a1.85,1.85,0,1,0,1.74,2A1.85,1.85,0,0,0,183,115.64Zm0,0a1.85,1.85,0,1,0,1.74,2A1.85,1.85,0,0,0,183,115.64Zm0,0a1.85,1.85,0,1,0,1.74,2A1.85,1.85,0,0,0,183,115.64Zm0,0a1.85,1.85,0,1,0,1.74,2A1.85,1.85,0,0,0,183,115.64Zm0,0a1.85,1.85,0,1,0,1.74,2A1.85,1.85,0,0,0,183,115.64Zm0,0a1.85,1.85,0,1,0,1.74,2A1.85,1.85,0,0,0,183,115.64Zm0,0a1.85,1.85,0,1,0,1.74,2A1.85,1.85,0,0,0,183,115.64Zm0,0a1.85,1.85,0,1,0,1.74,2A1.85,1.85,0,0,0,183,115.64Zm0,0a1.85,1.85,0,1,0,1.74,2A1.85,1.85,0,0,0,183,115.64Zm0,0a1.85,1.85,0,1,0,1.74,2A1.85,1.85,0,0,0,183,115.64Zm0,0a1.85,1.85,0,1,0,1.74,2A1.85,1.85,0,0,0,183,115.64Zm0,0a1.85,1.85,0,1,0,1.74,2A1.85,1.85,0,0,0,183,115.64Zm0,0a1.85,1.85,0,1,0,1.74,2A1.85,1.85,0,0,0,183,115.64Zm0,0a1.85,1.85,0,1,0,1.74,2A1.85,1.85,0,0,0,183,115.64Zm93-11.4a8.27,8.27,0,0,0-1.13-2.24h0a7,7,0,0,0-1.11-1.25c-3.55-3.22-9.88-3.13-14.72-2.43l-.38,0a61.18,61.18,0,0,0-11.12,2.84l-.79.29-.42-.73a3.91,3.91,0,0,1-.47-2.78,2.5,2.5,0,0,1,1.28-1.54l.21-.09a65,65,0,0,1,8.9-1.55l.93-.08c7.49-.6,13.09.37,16.66,2.91-.13-.52-.28-1-.43-1.59s-.3-1.08-.47-1.63c-.32-1.11-.68-2.24-1.08-3.41-15.17.09-37.9-.1-61.45-1.53h0c-2.74-.41-5.51-.84-8.29-1.28a38.38,38.38,0,0,1,9.25,6.35,3.31,3.31,0,0,1,1.16,2.35,4,4,0,0,1-1.09,2.66l-.69.71-.72-.69a42.11,42.11,0,0,0-16.74-10.39,34.56,34.56,0,0,0-13.53-1.36c-11.2,1-19.94,6.9-23.18,9.38l-1.25-1.56a53,53,0,0,1,17.09-9.74l-2.84-.4-1.41-.21c-.47-.06-.94-.13-1.4-.21l-2-.31c-1.67-.26-3.31-.54-4.93-.84-.78-.13-1.55-.27-2.32-.42l-1.83-.35c-1.66-.32-3.29-.66-4.89-1-13,20.1-23.49,47.07-26.54,83,0,.19,8,8.83,9,21.15a152.36,152.36,0,0,0,10.76,12l0-.06c.95.88,15.56,14.38,33.52,23.82l.15.07c1,.45,2,.87,2.92,1.27l.46.19c17.09,7,29.12,6.1,29.12,6.1.33,0,.67,0,1-.09a26.47,26.47,0,0,0,8.12-2.22c.5-.21,1-.45,1.5-.71a49.87,49.87,0,0,0,12.58-9.42c.24-.24.49-.48.72-.73a108.33,108.33,0,0,0,13.64-17.62,161.75,161.75,0,0,0,11.16-20.67,216.22,216.22,0,0,0,13-36.39l-.08,0h0a216.82,216.82,0,0,1-13,36.31,161.76,161.76,0,0,1-11.13,20.63A109.39,109.39,0,0,1,234,216.42c-.23.24-.46.47-.7.7h0a50.47,50.47,0,0,1-12.63,9.49l-.49.23-.18.08,0,0-.81.38a27.52,27.52,0,0,1-8,2.21q-.54.06-1.08.09s38.52-13.51,50.63-85.26c-17.58-.75-23.31-12.63-23.79-13.72v0c.16-.21.58-.72,1.21-1.46-.18.19-.35.37-.55.56,0,0,.12-.15.22-.3l.42-.54.18-.23c2.79-3.53,12.07-14.39,23.68-18.37a24,24,0,0,1,14.06-.79q.33.07.66.18c.05-.94.09-1.86.12-2.78h0Zm-119.6,6.31C187,96.68,207.88,119.38,213.13,126l0,0,.3.39c.56.72.88,1.17.94,1.28a54,54,0,0,0-26.86-15.27,11.8,11.8,0,0,1,1.85,3.3,11.22,11.22,0,0,1,.6,2.43,11.63,11.63,0,0,1,.1,1.55c0,6.2-5,11.72-11.83,12.67a15.09,15.09,0,0,1-2,.14,13.89,13.89,0,0,1-8.38-2.75,11.75,11.75,0,0,1-2.64-16.21,13.58,13.58,0,0,1,1.7-2A53.67,53.67,0,0,0,156,114.05l-.13,0h0Zm26.36,8.78a1.85,1.85,0,1,0-1.74-2A1.85,1.85,0,0,0,182.75,119.33Zm.21-3.69a1.85,1.85,0,1,0,1.74,2A1.85,1.85,0,0,0,183,115.64Zm0,0a1.85,1.85,0,1,0,1.74,2A1.85,1.85,0,0,0,183,115.64Zm0,0a1.85,1.85,0,1,0,1.74,2A1.85,1.85,0,0,0,183,115.64Zm0,0a1.85,1.85,0,1,0,1.74,2A1.85,1.85,0,0,0,183,115.64Zm0,0a1.85,1.85,0,1,0,1.74,2A1.85,1.85,0,0,0,183,115.64Zm0,0a1.85,1.85,0,1,0,1.74,2A1.85,1.85,0,0,0,183,115.64Zm0,0a1.85,1.85,0,1,0,1.74,2A1.85,1.85,0,0,0,183,115.64Zm0,0a1.85,1.85,0,1,0,1.74,2A1.85,1.85,0,0,0,183,115.64Zm0,0a1.85,1.85,0,1,0,1.74,2A1.85,1.85,0,0,0,183,115.64Zm0,0a1.85,1.85,0,1,0,1.74,2A1.85,1.85,0,0,0,183,115.64Zm0,0a1.85,1.85,0,1,0,1.74,2A1.85,1.85,0,0,0,183,115.64Zm0,0a1.85,1.85,0,1,0,1.74,2A1.85,1.85,0,0,0,183,115.64Zm0,0a1.85,1.85,0,1,0,1.74,2A1.85,1.85,0,0,0,183,115.64Zm0,0a1.85,1.85,0,1,0,1.74,2A1.85,1.85,0,0,0,183,115.64Zm0,0a1.85,1.85,0,1,0,1.74,2A1.85,1.85,0,0,0,183,115.64Zm0,0a1.85,1.85,0,1,0,1.74,2A1.85,1.85,0,0,0,183,115.64Zm0,0a1.85,1.85,0,1,0,1.74,2A1.85,1.85,0,0,0,183,115.64Zm0,0a1.85,1.85,0,1,0,1.74,2A1.85,1.85,0,0,0,183,115.64Zm0,0a1.85,1.85,0,1,0,1.74,2A1.85,1.85,0,0,0,183,115.64Zm0,0a1.85,1.85,0,1,0,1.74,2A1.85,1.85,0,0,0,183,115.64Zm0,0a1.85,1.85,0,1,0,1.74,2A1.85,1.85,0,0,0,183,115.64Zm0,0a1.85,1.85,0,1,0,1.74,2A1.85,1.85,0,0,0,183,115.64Zm0,0a1.85,1.85,0,1,0,1.74,2A1.85,1.85,0,0,0,183,115.64Zm0,0a1.85,1.85,0,1,0,1.74,2A1.85,1.85,0,0,0,183,115.64Zm0,0a1.85,1.85,0,1,0,1.74,2A1.85,1.85,0,0,0,183,115.64Zm0,0a1.85,1.85,0,1,0,1.74,2A1.85,1.85,0,0,0,183,115.64Zm0,0a1.85,1.85,0,1,0,1.74,2A1.85,1.85,0,0,0,183,115.64Zm0,0a1.85,1.85,0,1,0,1.74,2A1.85,1.85,0,0,0,183,115.64Zm0,0a1.85,1.85,0,1,0,1.74,2A1.85,1.85,0,0,0,183,115.64Zm0,0a1.85,1.85,0,1,0,1.74,2A1.85,1.85,0,0,0,183,115.64Zm0,0a1.85,1.85,0,1,0,1.74,2A1.85,1.85,0,0,0,183,115.64Zm0,0a1.85,1.85,0,1,0,1.74,2A1.85,1.85,0,0,0,183,115.64Zm0,0a1.85,1.85,0,1,0,1.74,2A1.85,1.85,0,0,0,183,115.64Zm0,0a1.85,1.85,0,1,0,1.74,2A1.85,1.85,0,0,0,183,115.64Zm0,0a1.85,1.85,0,1,0,1.74,2A1.85,1.85,0,0,0,183,115.64Zm0,0a1.85,1.85,0,1,0,1.74,2A1.85,1.85,0,0,0,183,115.64Z"/></g><g id="skin_shade"><path class="cls-2" d="M276.72,275.21s17,11,16.36,43.22l-1.16,43.11-14.7-.06S291.57,304.08,276.72,275.21Z"/><path class="cls-2" d="M183.8,243.33a11.1,11.1,0,0,0-3.73.33c-3.49.89-6,3.12-6.11,5.24a1.73,1.73,0,0,1-.34-1s-16.1-33.57-29.56-49.56h0a.45.45,0,0,1-.07-.07h0l0-.06c.95.88,15.56,14.38,33.52,23.82l.15.07c1,.45,2,.87,2.92,1.27l.46.19a33.14,33.14,0,0,0-.76,4.54v0a34.43,34.43,0,0,0,1.1,11.15.56.56,0,0,0,0,.12,8.29,8.29,0,0,0,2.12,3.61l.11.09.06.06Z"/><path class="cls-2" d="M209.31,264.26v0c0,.42-.63.53-1.73.39h-.12a56.93,56.93,0,0,1-10.56-3.21l-1.32-.51a131.77,131.77,0,0,1-14.84-7l-.84-.49c-.6-.36-1.18-.71-1.72-1.05a11.2,11.2,0,0,0,4-.3c3.29-.84,5.71-2.87,6.06-4.88a2.16,2.16,0,0,0,0-.8,1,1,0,0,0,0-.29c.92.54,3.7,2.12,7.65,3.95h0A107.65,107.65,0,0,0,209,254.74a18.08,18.08,0,0,0,0,3.29C209.07,259.64,209.14,261.77,209.31,264.26Z"/><path class="cls-2" d="M271.76,141.86a216.82,216.82,0,0,1-13,36.31,161.76,161.76,0,0,1-11.13,20.63A109.39,109.39,0,0,1,234,216.42c-.23.24-.46.47-.7.7h0a50.47,50.47,0,0,1-12.63,9.49l-.49.23-.18.08,0,0-.81.38a27.52,27.52,0,0,1-8,2.21q-.54.06-1.08.09s38.52-13.51,50.63-85.26l1,0A26.42,26.42,0,0,0,271.76,141.86Z"/><path class="cls-2" d="M273.83,97.63c-3.57-2.54-9.17-3.51-16.66-2.91l-.93.08a6.48,6.48,0,0,0-3.69-1.32c-3.19-.14-8.52.56-26.21-1.76-5.11-.67-10.47-1.43-15.94-2.25C234,90.9,256.68,91.09,271.85,91c.4,1.17.76,2.3,1.08,3.41.17.55.32,1.1.47,1.63S273.7,97.11,273.83,97.63Z"/><path class="cls-2" d="M276.88,106.89h0c0,.92-.07,1.84-.12,2.78q-.33-.11-.66-.18a24,24,0,0,0-14.06.79c-.49-4.69-1.41-8.93-3-12,4.84-.7,11.17-.79,14.72,2.43a7,7,0,0,1,1.11,1.25h0a8.27,8.27,0,0,1,1.13,2.24Z"/></g><g id="nose"><path class="cls-3" d="M217.94,161.41s8.56-7.64,15.57-1.63c0,0,5.57,5.34-.24,12.55,0,0,10-8.61.78-15.88C234.05,156.45,226.71,151.17,217.94,161.41Z"/><path class="cls-3" d="M220.8,169s-.86-3.81,5.73-1.14Z"/></g><path class="cls-4" d="M250.86,360.85c0,.23.08.47.12.7h-3.46l-184.76.07c6.49-15.15,5.83-42.1,5.83-42.1-1-35.08-2.77-64-2.77-64,1.78-.25,3.47-.51,5.09-.76l.17,0A222.78,222.78,0,0,0,93,250.42c1.53-.4,2.89-.79,4.11-1.16s2.1-.67,3-1c-3.37,8.08-2.19,15.8,0,21.7V270c.62,15.66,3.5,36.77,13.56,53.13a10,10,0,0,0-.64,1.41h0a15.58,15.58,0,0,0-.5,7.58h0a32.4,32.4,0,0,0,3,9.25c3.78,10.08-6.54,15-6.54,15a23.9,23.9,0,0,0,18.31-10.93,29.43,29.43,0,0,0,2.21-3.86c.25-.52.46-1,.62-1.38,9.07,5.75,20.81,8.9,36,7.85.52,0,1-.08,1.53-.14h.06l.36,0c.53,0,1.06-.12,1.58-.2s1-.15,1.49-.24l.63-.12c.25,0,.49-.09.73-.15l.72-.16c.48-.11,1-.23,1.43-.36s.94-.26,1.39-.4.85-.27,1.26-.42l.8-.29c.67-.25,1.33-.51,2-.8.28-.12.56-.24.83-.38l.53-.25.72-.36c.34-.18.68-.36,1-.55l.49-.28c.16-.09.33-.18.49-.29s.58-.34.86-.53l.25-.16.82-.55.54-.38.41-.3c.65-.47,1.28-1,1.89-1.49.26-.22.52-.44.77-.67.43-.38.86-.78,1.27-1.19.14-.13.29-.27.42-.41.55-.55,1.09-1.12,1.59-1.7.24-.25.46-.51.68-.77s.49-.58.72-.88l.11-.13.39-.5a.51.51,0,0,0,.09-.13,5.25,5.25,0,0,0,.37-.49.79.79,0,0,0,.12-.15.71.71,0,0,0,.1-.14c.16-.2.3-.4.44-.61.59-.82,1.15-1.67,1.69-2.54.26-.42.52-.84.76-1.27s.5-.86.74-1.3q.71-1.29,1.35-2.64,1.15-2.4,2.12-4.91c.18-.45.35-.9.51-1.36.27-.74.53-1.48.78-2.23s.4-1.24.59-1.87c.37-1.2.71-2.4,1-3.62l.33-1.3c.09-.37.18-.73.26-1.1.2-.85.39-1.71.57-2.57.52-2.52,1-5.05,1.31-7.56,0-.27.08-.54.11-.81.21-1.48.38-2.95.53-4.41.05-.44.09-.87.13-1.31l.09-1c0-.32.06-.63.08-.94.07-.75.12-1.49.17-2.22s.09-1.34.13-2l.06-1.09c.05-.82.08-1.63.11-2.42,0-.46,0-.92,0-1.37,0-.94.06-1.87.07-2.78,0-.61,0-1.21,0-1.8,0-1.78,0-3.48,0-5.08,0-.44,0-.88,0-1.3,0-1-.05-2-.08-3,0-.22,0-.44,0-.66s0-.57,0-.84v0c-.09-2.52-.19-4.63-.26-6.23a18.08,18.08,0,0,1,0-3.29c0-.07,0-.09.07-.08.75.28,1.91.64,3.38,1.05.12,11,6.44,20.73,6.44,20.73-10.22,14.69,5.24,29.87,5.24,29.87-6.44,8.2.55,14.67.55,14.67-6.64,5.33.23,12.51.23,12.51,4.28,6.27.79,13.57.79,13.57,16.47-13.3,10.22-24.69,9.51-25.86-2.24,1.94-4.65,2.63-10.47.36v-.31c6.22,1.89,11.2-1.3,12.92-2.63,4.89-6.2.53-12.63.53-12.63a25.51,25.51,0,0,0,5.06-6.74c3.78-7.28,3.62-15.42,2.7-21.27a46,46,0,0,0-1.75-7.34,22.76,22.76,0,0,0,2.79-6.83l2.67.58,1.23.27.3.06h0l.1,0c-2,5.37-6.3,32-4.74,58.42.07,1.18.14,2.35.23,3.51,0,.1,0,.21,0,.31.07,1,.15,2,.23,3l.06.81c0,.15,0,.31,0,.46.09,1,.19,2.06.28,3.07s.17,1.72.25,2.56l0,.25c.09.93.19,1.84.28,2.74.25,2.23.5,4.37.74,6.37.1.8.2,1.58.3,2.33.07.53.14,1,.21,1.54s.1.81.16,1.2c.08.61.16,1.19.24,1.75,0,.19,0,.38.08.56s.07.45.1.67l.09.61c.09.66.18,1.27.27,1.84,0,.2.05.39.08.58l0,.16.06.41c0,.17.05.33.07.48s0,.31.07.45c.05.3.09.57.13.82s.05.31.07.45C250.78,360.36,250.82,360.63,250.86,360.85Z"/><g id="shirt_shade"><path class="cls-5" d="M251,361.55l0,.15-3.49-.15-5.34-.23s-1.3-32.94,1.11-62.07c3.78-7.28,3.62-15.42,2.7-21.27a74.64,74.64,0,0,1,3.71-13.59l.15-.36,1.5.71s-6.4,25.1-4.51,61.93c0,.1,0,.21,0,.31a261.31,261.31,0,0,0,4,33.87C250.89,361.08,250.94,361.32,251,361.55Z"/><path class="cls-5" d="M112.91,324.59a15.58,15.58,0,0,0-.5,7.58c-11.08-13.75-20.88-36.95-19.82-75.88l.36-5.87v-.09l4.11-1.3s0,.08,0,.23c0,2.15-.42,18.75.79,23.84,0,0,0,28.61,15.06,51.48Z"/><path class="cls-5" d="M189.69,350.1s-20.47,10.78-48.44,1.53c0,0-6.13-1.09-14-6.1a29.43,29.43,0,0,0,2.21-3.86c8.66,6,19.68,10,33.74,10.7C163.16,352.37,177.47,353.74,189.69,350.1Z"/></g><path id="mouth" class="cls-4" d="M206.12,170.33s5.23,17.8,18.81,20.81c0,0-21,16.2-32.22.94C192.71,192.08,183.81,178.24,206.12,170.33Z"/><g id="eyes"><g id="eye_whites"><path class="cls-4" d="M216,129.25a36.68,36.68,0,0,1-32.09,14.26s-32.06-1.92-28-29.41l.13,0a53.67,53.67,0,0,1,10.93-2.49,13.58,13.58,0,0,0-1.7,2,11.75,11.75,0,0,0,2.64,16.21,13.89,13.89,0,0,0,8.38,2.75,15.09,15.09,0,0,0,2-.14c6.83-1,11.83-6.47,11.83-12.67a11.63,11.63,0,0,0-.1-1.55,11.22,11.22,0,0,0-.6-2.43,11.8,11.8,0,0,0-1.85-3.3,54,54,0,0,1,26.86,15.27c-.06-.11-.38-.56-.94-1.28l.23.24c.08.08.14.16.21.24C214.59,127.67,215.27,128.45,216,129.25Z"/><path class="cls-4" d="M271.84,141.81h0l-.08,0h0a26.42,26.42,0,0,1-10,2.55l-1,0c-17.58-.75-23.31-12.63-23.79-13.72.38-.38.77-.75,1.15-1.11s.77-.72,1.15-1.07c.76-.69,1.52-1.35,2.27-2s1.25-1,1.87-1.49q.53-.41,1-.78l.81-.59c.41-.28.81-.56,1.21-.82l1-.65.08,0a12.83,12.83,0,0,0-.29,1.37,9.93,9.93,0,0,0,2,7.41,12,12,0,0,0,8,4.52,12.45,12.45,0,0,0,4.93-.3,11.39,11.39,0,0,0,5.35-3.19,9.92,9.92,0,0,0,2.57-5.34,10.49,10.49,0,0,0-6.17-10.78l.65-.09,1-.12,1.15-.1.48,0a34.79,34.79,0,0,1,9.23.65l.06,0a27.89,27.89,0,0,1,7.31,2.55C284.43,132.44,278,138.84,271.84,141.81Z"/></g><g id="eyes-2" data-name="eyes"><path class="cls-3" d="M189.39,115.75a11.8,11.8,0,0,0-1.85-3.3,54,54,0,0,1,26.86,15.27c-.06-.11-.38-.56-.94-1.28l-.3-.39,0,0c-5.25-6.63-26.13-29.33-56.74-15.46l-.55,3.56h0l.13,0a53.67,53.67,0,0,1,10.93-2.49,13.58,13.58,0,0,0-1.7,2,11.75,11.75,0,0,0,2.64,16.21,13.89,13.89,0,0,0,8.38,2.75,15.09,15.09,0,0,0,2-.14c6.83-1,11.83-6.47,11.83-12.67a11.63,11.63,0,0,0-.1-1.55A11.22,11.22,0,0,0,189.39,115.75Zm-6.64,3.58a1.85,1.85,0,1,1,1.95-1.74A1.85,1.85,0,0,1,182.75,119.33Z"/><path class="cls-3" d="M283.06,112.55a25.41,25.41,0,0,0-5.12-2.5h0c-.36-.12-.71-.24-1.07-.34l-.07,0q-.33-.11-.66-.18a24,24,0,0,0-14.06.79c-11.61,4-20.89,14.84-23.68,18.37l-.18.23-.42.54c-.1.15-.18.25-.22.3.2-.19.37-.37.55-.56h0a61.19,61.19,0,0,1,10-8.57c-.06.1-.1.2-.15.3a9.54,9.54,0,0,0-.74,2.6,9.93,9.93,0,0,0,2,7.41,12,12,0,0,0,8,4.52,12.45,12.45,0,0,0,4.93-.3,11.39,11.39,0,0,0,5.35-3.19,9.92,9.92,0,0,0,2.57-5.34,10.49,10.49,0,0,0-6.17-10.78h0a8.92,8.92,0,0,0-1-.44l-.44-.16-.07,0a12.2,12.2,0,0,0-1.85-.46c.64-.18,1.26-.34,1.88-.47a32.62,32.62,0,0,1,14.12-.08h0a.07.07,0,0,1,.06,0,2.59,2.59,0,0,1,.4.09,25,25,0,0,1,6.57,2.42l.07,0Zm-20.59,6.1a1.74,1.74,0,0,1,.65-.08,1.84,1.84,0,1,1-.21,3.68,2.11,2.11,0,0,1-.45-.08,1.83,1.83,0,0,1-1.29-1.86A1.86,1.86,0,0,1,262.47,118.65Z"/></g><path id="eye_highlight" class="cls-4" d="M184.7,117.59a1.85,1.85,0,1,1-1.74-2A1.85,1.85,0,0,1,184.7,117.59Z"/><g id="eye_shading"><path class="cls-6" d="M166.93,111.56a13.58,13.58,0,0,0-1.7,2,51.21,51.21,0,0,0-9.39,1.53l.16-1.06A53.67,53.67,0,0,1,166.93,111.56Z"/><path class="cls-6" d="M215.35,128.79a72.06,72.06,0,0,0-26-13,11.8,11.8,0,0,0-1.85-3.3,54,54,0,0,1,26.86,15.27c-.06-.11-.38-.56-.94-1.28l-.3-.39.53.63c.08.08.14.16.21.24C214.85,128.08,215.35,128.79,215.35,128.79Z"/><path class="cls-6" d="M248.07,120.59c-.06.1-.1.2-.15.3a12.88,12.88,0,0,0-.45,1.23l-.08,0-1,.65c-.4.26-.8.54-1.21.82s-.54.38-.81.59-.7.51-1,.78c-.62.47-1.24,1-1.87,1.49s-1.51,1.28-2.27,2c-.38.35-.77.7-1.15,1.07s-.77.73-1.15,1.11v0c.16-.21.58-.72,1.21-1.46h0A61.19,61.19,0,0,1,248.07,120.59Z"/><path class="cls-6" d="M283.67,118.69a27.89,27.89,0,0,0-7.31-2.55l-.06,0a34.79,34.79,0,0,0-9.23-.65l-.48,0-1.15.1-1,.12-.65.09h0a8.92,8.92,0,0,0-1-.44l-.44-.16-.07,0a12.2,12.2,0,0,0-1.85-.46c.64-.18,1.26-.34,1.88-.47a32.62,32.62,0,0,1,14.12-.08h0a.07.07,0,0,1,.06,0,2.59,2.59,0,0,1,.4.09,25,25,0,0,1,6.57,2.42v.06C283.58,117.42,283.63,118.07,283.67,118.69Z"/></g></g><g id="eyebrows"><path class="cls-3" d="M212.49,96.89a4,4,0,0,1-1.09,2.66l-.69.71-.72-.69a42.11,42.11,0,0,0-16.74-10.39,34.56,34.56,0,0,0-13.53-1.36c-11.2,1-19.94,6.9-23.18,9.38l-1.25-1.56a53,53,0,0,1,17.09-9.74c.71-.24,1.43-.45,2.14-.65A38.68,38.68,0,0,1,183,83.94a38.06,38.06,0,0,1,15.67,2.71c1.06.42,2,.85,2.94,1.31l.45.23h0a38.38,38.38,0,0,1,9.25,6.35A3.31,3.31,0,0,1,212.49,96.89Z"/><path class="cls-3" d="M277.94,103.92v5.92l0,.12-1-3.06h0l-.89-2.65a8.27,8.27,0,0,0-1.13-2.24h0a7,7,0,0,0-1.11-1.25c-3.55-3.22-9.88-3.13-14.72-2.43l-.38,0a61.18,61.18,0,0,0-11.12,2.84l-.79.29-.42-.73a3.91,3.91,0,0,1-.47-2.78,2.5,2.5,0,0,1,1.28-1.54l.21-.09a65,65,0,0,1,8.9-1.55l.93-.08c7.49-.6,13.09.37,16.66,2.91a12,12,0,0,1,1.09.88,10.21,10.21,0,0,1,2.9,4.72Z"/></g><g id="necklace"><g id="shells"><path class="cls-7" d="M171.4,250.69a1.21,1.21,0,0,1,0,.19h0c0,.1,0,.2,0,.3a2.36,2.36,0,0,1-.2.62h0a2,2,0,0,1-.13.25c-1,1.74-3.72,3-7,3a10.36,10.36,0,0,1-5.2-1.28,5.53,5.53,0,0,1-.68-.48,3.69,3.69,0,0,1-.72-.7,3,3,0,0,1-.37-.53,3.39,3.39,0,0,1-.18-.39,2.41,2.41,0,0,1-.08-.25h0a1,1,0,0,1-.07-.23l0-.19a1,1,0,0,1,0-.17h0a.34.34,0,0,1,.06-.12.61.61,0,0,0,.05-.12l0-.08v0l.06-.27a.68.68,0,0,0,0-.14.91.91,0,0,0,0-.17,2.11,2.11,0,0,0,0-.26.54.54,0,0,1,0-.11,1.51,1.51,0,0,1,.11-.22,3.28,3.28,0,0,1,.51-.7c.08-.08.16-.17.25-.25l.17-.15a3.74,3.74,0,0,1,.55-.41l.25-.17a6,6,0,0,1,.56-.3c.18-.09.37-.17.57-.25s.4-.15.6-.22a9.1,9.1,0,0,1,1.32-.33c.23-.05.47-.08.71-.11l.56,0,.28,0,.64,0,.67,0a2.34,2.34,0,0,1,.38,0l.41,0h.09c.2,0,.4.06.6.09l.51.11a3.25,3.25,0,0,1,.42.11,2.9,2.9,0,0,1,.42.12c.2.07.41.14.6.22a4.31,4.31,0,0,1,.49.22,1,1,0,0,1,.28.14,1.63,1.63,0,0,1,.34.19,4.87,4.87,0,0,1,.81.57c.12.1.23.21.34.32a2.85,2.85,0,0,1,.23.26.35.35,0,0,1,.08.1,3.05,3.05,0,0,1,.22.32,3.24,3.24,0,0,1,.19.37,2.46,2.46,0,0,1,.14.38h0a1.43,1.43,0,0,1,.07.28A2.28,2.28,0,0,1,171.4,250.69Z"/><path class="cls-7" d="M140.18,243.78h0a.27.27,0,0,0,.1-.06ZM153,249.89a0,0,0,0,1,0,0v-.1A.62.62,0,0,0,153,249.89Zm.1-.6a.83.83,0,0,0,0,.15,1.83,1.83,0,0,1,.08-.25A.42.42,0,0,0,153.05,249.29Z"/><path class="cls-7" d="M153.79,248.28h0a1.66,1.66,0,0,0-.21.16l0,0-.2.24-.05.06,0,.06-.09.15,0,0,0,0a.56.56,0,0,0,0,.12.42.42,0,0,0,0,.1.83.83,0,0,0,0,.15.71.71,0,0,0,0,.2.49.49,0,0,0,0,.12.62.62,0,0,0,0,.13v0a1.94,1.94,0,0,0,0,.24l0,.15h0s0,.06,0,.08l0,0-.13.12,0,0-.08.07a2.88,2.88,0,0,1-.34.23,3.2,3.2,0,0,1-.37.19,2.26,2.26,0,0,1-.39.15l0,0-.1,0-.33.09a7,7,0,0,1-2.23.11,7.85,7.85,0,0,1-.81-.11l-.56-.12a11.5,11.5,0,0,1-2.57-1,10.45,10.45,0,0,1-3.9-3.27l-.2-.3v0a4.86,4.86,0,0,1-.71-1.83.41.41,0,0,1,0-.11,2.61,2.61,0,0,1,0-.55,2,2,0,0,1,.05-.42.27.27,0,0,0,.1-.06.3.3,0,0,0,.11-.06,1.33,1.33,0,0,0,.19-.14l0-.05a1.78,1.78,0,0,0,.21-.27,1.62,1.62,0,0,0,.1-.18,1.28,1.28,0,0,0,.13-.39,1.09,1.09,0,0,0,0-.26.66.66,0,0,0,0-.14c1.57-1.35,4.78-1.29,7.85.26C151.81,244,153.69,246.31,153.79,248.28Z"/><path class="cls-7" d="M140.22,239.19s0,0,0,.05a4.48,4.48,0,0,1-.53,1.67,1.15,1.15,0,0,0-.45,0,.48.48,0,0,0-.17.05h0a1.52,1.52,0,0,0-.58.42,1.48,1.48,0,0,0-.21.34l-.06.14a1,1,0,0,0,0,.18v0a.87.87,0,0,0,0,.36l-.08,0a3.94,3.94,0,0,1-2.15.44,4.94,4.94,0,0,1-2.47-.93h0c-.7-2.45-1.3-3.93-1.3-3.93.12-.28.23-.56.34-.83s.26-.64.38-.95l.09-.23.11-.3c0-.09.07-.18.09-.26h0l.09-.25s0,0,0-.05a3.42,3.42,0,0,0,.27-.27c.52-.57.26-.63,0-.59.06-.17.12-.33.17-.5a3.41,3.41,0,0,1,.66-.22,4.81,4.81,0,0,1,5.1,2.32A5.09,5.09,0,0,1,140.22,239.19Z"/><path class="cls-7" d="M188.29,247.24c-.35,2-2.77,4-6.06,4.88a11.2,11.2,0,0,1-4,.3,7.54,7.54,0,0,1-2.13-.57l0,0a4.21,4.21,0,0,1-.9-.54,3.35,3.35,0,0,1-.62-.63h0a.88.88,0,0,1-.12-.17,1.74,1.74,0,0,0,.05-.39,1.54,1.54,0,0,0,0-.3,2.25,2.25,0,0,0-.08-.24l-.09-.18-.13-.18h0L174,249a.62.62,0,0,1,0-.13c.11-2.12,2.62-4.35,6.11-5.24a11.1,11.1,0,0,1,3.73-.33h0a6.3,6.3,0,0,1,3.31,1.14h0a1,1,0,0,0,.88,1,2.28,2.28,0,0,1,.24.61.17.17,0,0,1,0,.07,1,1,0,0,1,0,.29A2.16,2.16,0,0,1,188.29,247.24Z"/></g><g id="black_beads" data-name="black beads"><path class="cls-3" d="M141.1,242.38a1.09,1.09,0,0,1,0,.26,1.28,1.28,0,0,1-.13.39,1.62,1.62,0,0,1-.1.18,1.78,1.78,0,0,1-.21.27l0,.05a1.33,1.33,0,0,1-.19.14.3.3,0,0,1-.11.06.27.27,0,0,1-.1.06l-.25.07a1.32,1.32,0,0,1-.34,0h-.15a2.88,2.88,0,0,1-.4-.09h0a1.61,1.61,0,0,1-.28-.17.6.6,0,0,1-.11-.06s-.07-.06-.08-.09h0l-.11-.12,0,0a1.28,1.28,0,0,1-.15-.25.15.15,0,0,1,0-.07,1.18,1.18,0,0,1-.07-.2.36.36,0,0,1,0-.11,1.14,1.14,0,0,1,0-.57v0a1,1,0,0,1,0-.18l.06-.14a1.48,1.48,0,0,1,.21-.34A1.52,1.52,0,0,1,139,241h0a.48.48,0,0,1,.17-.05,1.15,1.15,0,0,1,.45,0,.55.55,0,0,1,.18,0,.37.37,0,0,1,.14,0s0,0,.05,0l.12,0a1.56,1.56,0,0,1,.91,1.22A.66.66,0,0,1,141.1,242.38Z"/><path class="cls-3" d="M156.94,249.9c0,.1,0,.21,0,.31l-.06.27v0c0,.07,0,.13-.07.2a.34.34,0,0,0-.06.12h0l-.06.09-.13.19-.15.17a1.49,1.49,0,0,1-.18.17,1.85,1.85,0,0,1-.51.3l-.06,0h0a.42.42,0,0,1-.15,0,.31.31,0,0,1-.13,0,1.83,1.83,0,0,1-.84,0,2,2,0,0,1-1.21-.89l-.06-.11a1.12,1.12,0,0,1-.11-.25h0c0-.06,0-.11,0-.18s0,0,0-.08h0l0-.15a1.94,1.94,0,0,1,0-.24v0a.62.62,0,0,1,0-.13.49.49,0,0,1,0-.12c0-.07,0-.14,0-.2a.83.83,0,0,1,0-.15.42.42,0,0,1,0-.1,1.08,1.08,0,0,1,.08-.19l.09-.15.08-.12.2-.24a2.31,2.31,0,0,1,.24-.2h0a2,2,0,0,1,1.16-.38,1.55,1.55,0,0,1,.31,0,1.31,1.31,0,0,1,.27.06l.26.1a2.12,2.12,0,0,1,.43.28,1.14,1.14,0,0,1,.16.15,1.54,1.54,0,0,1,.25.32.72.72,0,0,1,.12.21.25.25,0,0,1,0,.07,1.91,1.91,0,0,1,.11.41A1.55,1.55,0,0,1,156.94,249.9Z"/><path class="cls-3" d="M174.43,250.09a1.74,1.74,0,0,1-.05.39,1.53,1.53,0,0,1-.25.53l-.1.12-.12.11-.11.09h0l-.15.09a.88.88,0,0,1-.22.1.83.83,0,0,1-.21.06,1.33,1.33,0,0,1-.28,0,1.45,1.45,0,0,1-1-.38,1.48,1.48,0,0,1-.51-1.12v0a.17.17,0,0,1,0-.07.15.15,0,0,1,0-.07,205784106829.55,205784106829.55,0,0,0,0-.16,1.21,1.21,0,0,1,.05-.18l.06-.13a1.09,1.09,0,0,1,.08-.15.71.71,0,0,1,.1-.14.49.49,0,0,1,.12-.13l.13-.12.12-.08A1.47,1.47,0,0,1,174,249l.14.15h0l.13.18.09.18a2.25,2.25,0,0,1,.08.24A1.54,1.54,0,0,1,174.43,250.09Z"/><path class="cls-3" d="M189.14,244.48a1,1,0,0,1-1,1H188a1,1,0,0,1-.88-1h0a1,1,0,0,1,2,0Z"/></g></g><g id="hair"><path class="cls-8" d="M231.54,246.34s8.72-2.63,15.14-16.34c0,.13-.15.66-.39,1.46,6.68-15.08,2.33-29.77,1.38-32.58A108.33,108.33,0,0,1,234,216.5c2.5,12.3-7.57,17.22-7.57,17.22a24.48,24.48,0,0,0,6.85-16.49,49.87,49.87,0,0,1-12.58,9.42l6.56,4.11a44.74,44.74,0,0,1-8.06-3.4,26.47,26.47,0,0,1-8.12,2.22c-1.81,5,1.55,11.64,3,14.19a50.06,50.06,0,0,1-2.08-4.7,55.94,55.94,0,0,0,18.2,20.77c2.62-2.95,5.53-7.59,5.14-13.42a12.63,12.63,0,0,1-3.9,13.93,20.08,20.08,0,0,1-5.1,3,23.25,23.25,0,0,0,3.69-3.35l.14-.15c-7.19-1.45-12.51-9.28-15.49-14.91a23.81,23.81,0,0,0-2.25,10.75c.12,11,6.44,20.73,6.44,20.73-10.22,14.69,5.24,29.87,5.24,29.87-6.44,8.2.55,14.67.55,14.67-6.64,5.33.23,12.51.23,12.51,4.28,6.27.79,13.57.79,13.57,16.47-13.3,10.22-24.69,9.51-25.86-2.24,1.94-4.65,2.63-10.47.36v-.31c6.22,1.89,11.2-1.3,12.92-2.63,4.89-6.2.53-12.63.53-12.63a25.51,25.51,0,0,0,5.06-6.74c3.78-7.28,3.62-15.42,2.7-21.27a46,46,0,0,0-1.75-7.34,22.63,22.63,0,0,1-10.05,8.88c7.27-4.49,11.45-13,12.67-15.74.14-.32.24-.57.3-.72s0,0,0,0a.14.14,0,0,0,0-.06c2.56-10.33-2.23-22.28-3.55-25.26C241.33,241.83,237.49,246.12,231.54,246.34Zm-15-16.49a42.63,42.63,0,0,0,13.09,25.23C210.43,243.51,216.5,229.85,216.5,229.85Zm8.67,1.37s0,.17,0,.47c-.18,2.55-.49,13.21,9.58,16C234.7,247.65,221.15,248,225.17,231.22Zm9.56,56.31s-10.55,1.87-15.17-10.2C219.82,277.77,224.15,284.76,234.73,287.53Zm-14.82-.77c-.38,3.6,4.93,14.42,4.93,14.42C218,297.76,219.91,286.76,219.91,286.76Zm4.93,28.45c-3.79-8,5.32-8.15,5.32-8.15C224.65,308.76,224.84,315.21,224.84,315.21Zm4.07-10.95a10.47,10.47,0,0,1,9.34,1.69s-6.28-1.42-11.12-.28a11.39,11.39,0,0,1-1.17.73c.18-.18.37-.37.54-.56a8.31,8.31,0,0,0-2.65,1.25,13.48,13.48,0,0,1,3.56-2.28c7.42-9,8.38-23.76,8.38-23.76C238.15,293.81,232.59,301,228.91,304.26Zm6.28-23.7c-.74-.15-14.75-3.36-9.44-21.42C225.78,259,223.53,274.88,235.19,280.56Z"/><path class="cls-8" d="M130.56,338.91s-.16.52-.52,1.38c-.16.39-.37.86-.62,1.38a29.43,29.43,0,0,1-2.21,3.86,23.9,23.9,0,0,1-18.31,10.93s10.32-4.95,6.54-15a32.4,32.4,0,0,1-3-9.25h0a15.58,15.58,0,0,1,.5-7.58h0a10,10,0,0,1,.64-1.41,11,11,0,0,1,.77-1.19c3.28,1.69,9.42-.83,11.82-4-.1.17-.21.33-.32.5C125.82,318.45,134.3,327.82,130.56,338.91Z"/><path class="cls-8" d="M272.15,43.05l.09.2L272,43l-.16-.16-.71-.63-.25-.2-.09-.08,0,0-.09-.08-.26-.2-.36-.28-.39-.3a3.55,3.55,0,0,0-.31-.23l-.11-.09-.46-.33c-.17-.13-.35-.24-.52-.36l-.5-.34c-1.12-.75-2.47-1.58-4.05-2.44-.34-.19-.69-.38-1.05-.56l-1.12-.57c-.38-.2-.77-.39-1.18-.58L259.08,35a78.8,78.8,0,0,0-8.53-3.23l-1.31-.41-1.36-.4c-.91-.26-1.86-.52-2.84-.76l-1.24-.31c-1.08-.26-2.2-.51-3.35-.75.23.25.74.79,1.44,1.6a88.65,88.65,0,0,1,6.83,9c1.25,1.87,2.54,4,3.8,6.22a74.91,74.91,0,0,1,8.26,21.79,54.27,54.27,0,0,1-.17,22.65,151.29,151.29,0,0,0-7.19-33.16c-1.34-4-2.92-8.2-4.78-12.44q-1.5-3.42-3.25-6.86c-1.28-2.49-2.65-5-4.14-7.42l-.87-1.41c-3.29-.67-6.87-1.26-10.75-1.7q.23.15.45.33a52.54,52.54,0,0,1,7.37,6.73A58.78,58.78,0,0,1,244.53,44a65.7,65.7,0,0,1,3.62,6.92,76.17,76.17,0,0,1,5,15.53,219.92,219.92,0,0,0-13.3-23c-.72-1.09-1.47-2.17-2.23-3.25-1.88-2.66-3.85-5.27-5.88-7.68a70,70,0,0,0-4.89-5.29,56,56,0,0,0-6.1-.51,147.87,147.87,0,0,0-18.55.1l-.43,0-.43,0-2.12.26q-2,.25-4,.57a32.91,32.91,0,0,1,3,9.06,38.67,38.67,0,0,1,.21,12.29,44.49,44.49,0,0,1-5,14.79s1.22-6.09,2-13.95a115.1,115.1,0,0,0,.55-11.81A57.69,57.69,0,0,0,195,27.76,161.75,161.75,0,0,0,178.84,31l-.08,0c-12.53,3.23-24.74,8.17-34.6,15.44-21.65,16-40,40.86-47.41,66.92a93.41,93.41,0,0,0-2.61,12.06c-4.74,32.4-1.44,44.33-.73,52,.9.95,1.43,1.43,1.43,1.43-10.66,23.32,1.88,39.08,5,41.71-4.09,6.65-2.82,14-1.08,18.88a53,53,0,0,0,5.58,8.75,55.09,55.09,0,0,0,12.34,11.69c2.8-2.72,6.84-7.85,6.47-14.6a11.45,11.45,0,0,1-2.33.48,14.65,14.65,0,0,0,1.62.55,11.62,11.62,0,0,1-6.09-1.8c-3-2-5.5-6.06-3.45-14.63,0,0,0,.17,0,.47-.15,2.07-.39,9.45,4.89,13.65a12.16,12.16,0,0,0,2.74,1.62,24.29,24.29,0,0,0,9-7.17,41,41,0,0,0,5.4-8.61c4.49-18.33-5.55-26-5.55-26a31.13,31.13,0,0,0,3.91-17.57c-1-12.32-9-21-9-21.15,3-35.92,13.54-62.89,26.54-83,1.6.35,3.23.69,4.89,1l1.83.35c.77.15,1.54.29,2.32.42,1.62.3,3.26.58,4.93.84l2,.31c.46.08.93.15,1.4.21l1.41.21,2.84.4c.71-.24,1.43-.45,2.14-.65A38.68,38.68,0,0,1,183,83.94a38.06,38.06,0,0,1,15.67,2.71c1.06.42,2,.85,2.94,1.31l.45.23h0c2.78.44,5.55.87,8.29,1.28h0C234,90.9,256.68,91.09,271.85,91c.4,1.17.76,2.3,1.08,3.41.17.55.33,1.09.47,1.63s.3,1.07.43,1.59a12,12,0,0,1,1.09.88,10.21,10.21,0,0,1,2.9,4.72l.12.69v5.92a118.51,118.51,0,0,0,2.53-18.93c6.28-.1,9.95-.22,9.95-.22C291.17,67.34,283.07,52.49,272.15,43.05ZM101,107.13a126.93,126.93,0,0,0,1.69,26.68,0,0,0,0,0,0,0,157.05,157.05,0,0,0,14.22,44.07C103.44,163.57,100.3,141.67,100,126V126A123.74,123.74,0,0,1,101,107.13Zm16.6,78.78c-15.67-4.79-22.23-43.17-22.43-44.37C105.17,171.09,117.25,185.47,117.62,185.91ZM94.5,178.42c6,3.73,20.19,11.58,20.19,11.58C106,189.29,94.5,178.42,94.5,178.42Zm13,9.87c-.26,1.75-3.27,23.67,12.86,30.5C120.35,218.79,100.35,217.61,107.49,188.29Zm6.19,36.44a2.65,2.65,0,0,1-1.26-.46c-3.14-1.24-11.36-5.19-14.85-13.38.36.37,10.76,11,14.85,13.38C113.21,224.59,113.68,224.73,113.68,224.73Zm-20.21-14.3a62.82,62.82,0,0,0,21.31,18.84C99.83,225.7,93.72,211,93.47,210.43Zm20.7,22a24.54,24.54,0,0,0,6.55-20.8C126.17,226.53,114.17,232.4,114.17,232.4Zm-.1-18.89c9-2.26,18.23-17.57,18.23-17.57A24.17,24.17,0,0,1,114.07,213.51Zm10.27-39.24c-.49,8.19-3.66,19.39-16.91,22.08,8.78-3.51,13.64-15.94,15.64-24h0a39.06,39.06,0,0,0,1-5.74c-.1-.87-.19-1.36-.19-1.36.21-.19.28.33.19,1.36A41.49,41.49,0,0,1,124.34,174.27ZM134.58,71.1h0l-.55,1c-19.6,34.91-17.56,78.35-17.44,80.63-9.87-64,23-89.47,23-89.47C137.79,65.79,136.11,68.42,134.58,71.1ZM149.29,66c-1.47,3.07-2.92,6.49-4.31,10.31-.38,1-.76,2.11-1.13,3.21a27,27,0,0,1,.21-3.5,43.56,43.56,0,0,1,2-8.79h0c2.66-8.05,8.61-18.32,21.82-25.34C165.89,43.12,157.36,49.13,149.29,66Zm54,21.18c4.75-13.38,4.39-31.3,3.81-40.31-.22-3.53-.48-5.69-.48-5.69q1.2,2.73,2,5.34C216.55,70.61,203.32,87.18,203.32,87.18Zm30.5,2.08c6.23-10.94,1.55-27.75,1.37-28.39C248,76,233.82,89.26,233.82,89.26Z"/></g><g id="hair_lowlights"><path class="cls-9" d="M238.25,306s-6.28-1.42-11.12-.28a11.39,11.39,0,0,1-1.17.73c.18-.18.37-.37.54-.56a8.31,8.31,0,0,0-2.65,1.25,13.48,13.48,0,0,1,3.56-2.28c7.42-9,8.38-23.76,8.38-23.76,2.36,12.76-3.2,20-6.88,23.21A10.47,10.47,0,0,1,238.25,306Z"/><path class="cls-9" d="M124.34,174.27c-.49,8.19-3.66,19.39-16.91,22.08,8.78-3.51,13.64-15.94,15.64-24h0a39.06,39.06,0,0,0,1-5.74A41.49,41.49,0,0,1,124.34,174.27Z"/><path class="cls-9" d="M117.62,185.91c-15.67-4.79-22.23-43.17-22.43-44.37C105.17,171.09,117.25,185.47,117.62,185.91Z"/><path class="cls-9" d="M132.3,195.94a24.17,24.17,0,0,1-18.23,17.57C123.1,211.25,132.3,195.94,132.3,195.94Z"/><path class="cls-9" d="M125.21,304s-9.81.95-12.48,2.32h0l-.15.08.14-.11C113.76,305.58,119.1,302.19,125.21,304Z"/><path class="cls-9" d="M126.28,317.76l-.13.17v0c-2.4,3.2-8.54,5.72-11.82,4l-.14-.07-.57-.68.19,0c5.75.91,11.77-3,12.43-3.47a0,0,0,0,0,0,0Z"/><path class="cls-9" d="M114.69,190c-8.67-.71-20.19-11.58-20.19-11.58C100.48,182.15,114.69,190,114.69,190Z"/><path class="cls-9" d="M114.17,232.4a24.54,24.54,0,0,0,6.55-20.8C126.17,226.53,114.17,232.4,114.17,232.4Z"/><path class="cls-9" d="M134.86,229.86c-.22.93-.49,1.89-.8,2.87-.13.36-.28.75-.44,1.15l-.21.49c-.12.28-.25.56-.38.85a4.11,4.11,0,0,1-.21.42,0,0,0,0,1,0,0l-.09.19-.09.18a1.4,1.4,0,0,1-.09.17.09.09,0,0,1,0,.06c-.13.26-.27.53-.42.79-.25.46-.52.9-.81,1.35v0l0,0a15.69,15.69,0,0,1-8.08,6.81,1.52,1.52,0,0,0-.07-.18c0,.07,0,.14,0,.2a11.45,11.45,0,0,1-2.33.48,2.33,2.33,0,0,1-.33-.14,24.29,24.29,0,0,0,9-7.17A41,41,0,0,0,134.86,229.86Z"/><path class="cls-9" d="M114.78,229.27c-15-3.57-21.06-18.23-21.31-18.84A62.82,62.82,0,0,0,114.78,229.27Z"/><path class="cls-9" d="M122.41,246.33a11.62,11.62,0,0,1-6.09-1.8c-3-2-5.5-6.06-3.45-14.63,0,0,0,.17,0,.47-.15,2.07-.39,9.45,4.89,13.65a12.16,12.16,0,0,0,2.74,1.62,2.33,2.33,0,0,0,.33.14A14.65,14.65,0,0,0,122.41,246.33Z"/><path class="cls-9" d="M116.65,259.9l-.09.09c-5.73-1.26-10.25-6.56-13.34-11.5-.67-1.08-1.27-2.13-1.79-3.12,0,0,0,0,0,0s-.27-.47-.68-1.24l-.06-.12c-.07-.13-.14-.26-.2-.39-.3-.62-.57-1.2-.81-1.71l-.29-.67-.14-.33c0-.11-.09-.22-.13-.32-.14-.35-.27-.72-.41-1.09a53,53,0,0,0,5.58,8.75A55.09,55.09,0,0,0,116.65,259.9Z"/><path class="cls-9" d="M114.11,262.05a21.9,21.9,0,0,0,2.45-2.06l.09-.09c2.8-2.72,6.84-7.85,6.47-14.6,0-.06,0-.13,0-.2a1.52,1.52,0,0,1,.07.18C123.67,246.66,126.55,256.81,114.11,262.05Z"/><path class="cls-9" d="M122.78,282.9c-.72-.17-14.36-3.73-9.19-23.76C113.62,259,111.43,276.6,122.78,282.9Z"/><path class="cls-9" d="M121,290.83s-10.46,1.85-15.11-10.05a.36.36,0,0,1,0-.11l0,.06h0C106.48,281.73,110.88,288.19,121,290.83Z"/><path class="cls-8" d="M133.73,243.23c-.11-.43-.22-.83-.33-1.21h0c-.7-2.45-1.3-3.93-1.3-3.93.12-.28.23-.56.34-.83s.26-.64.38-.95l.09-.23.11-.3c0-.09.07-.18.09-.26h0l.09-.25c0-.07,0-.13.07-.19l.25-.72c.06-.17.12-.33.17-.5q.2-.56.36-1.11c-.13.36-.28.75-.44,1.15l-.21.49c-.12.28-.25.56-.38.85a4.11,4.11,0,0,1-.21.42,0,0,0,0,1,0,0l-.09.19-.09.18a1.4,1.4,0,0,1-.09.17.09.09,0,0,1,0,.06c-.13.26-.27.53-.42.79-.25.46-.52.9-.81,1.35v0l0,0a15.69,15.69,0,0,1-8.08,6.81c.49,1.38,3.37,11.53-9.07,16.77a21.9,21.9,0,0,0,2.45-2.06c-5.73-1.26-10.25-6.56-13.34-11.5-.67-1.08-1.27-2.13-1.79-3.12a25.74,25.74,0,0,0-1.4,2.91c-3.37,8.08-2.19,15.8,0,21.7V270a39.4,39.4,0,0,0,5.81,10.63l0,.06h0c.63,1,5,7.45,15.1,10.09,0,0-10.46,1.85-15.11-10.05-6,17,6.24,25.12,6.87,25.52,1.05-.72,6.39-4.11,12.5-2.3,0,0-9.81.95-12.48,2.32h0c-4.77,5.57-.49,12.69,1.08,14.93,5.75.91,11.77-3,12.43-3.47a0,0,0,0,0,0,0c4.94-8.22-1-13.38-1-13.38,13.61-15.43,7.16-30.57,6.44-32.13a16.65,16.65,0,0,1-11.92,8.15c8.4-1.24,14.84-15.86,14.84-15.86-.12.58-.25,1.14-.4,1.68C136.68,257.82,135.17,248.74,133.73,243.23Zm-21,71.41c-3.8-8,5.31-8.15,5.31-8.15C112.55,308.2,112.74,314.64,112.74,314.64Zm-11-60.32c1.33,15.56,10.63,28.08,10.63,28.08C96.61,268.93,101.73,254.32,101.73,254.32Zm11.94,50.76c8.75-8.67,9.83-25.35,9.83-25.35C126.92,298.25,113.67,305.08,113.67,305.08Zm9.11-22.18c-.72-.17-14.36-3.73-9.19-23.76C113.62,259,111.43,276.6,122.78,282.9Z"/><path class="cls-9" d="M113.67,305.08c8.75-8.67,9.83-25.35,9.83-25.35C126.92,298.25,113.67,305.08,113.67,305.08Z"/><path class="cls-9" d="M260.61,90.38a151.29,151.29,0,0,0-7.19-33.16c-1.34-4-2.92-8.2-4.78-12.44q-1.5-3.42-3.25-6.86c-1.28-2.49-2.65-5-4.14-7.42l-.87-1.41.07,0c.23.25.74.79,1.44,1.6a88.65,88.65,0,0,1,6.83,9c1.25,1.87,2.54,4,3.8,6.22a74.91,74.91,0,0,1,8.26,21.79A54.27,54.27,0,0,1,260.61,90.38Z"/><path class="cls-9" d="M203.32,87.18c4.75-13.38,4.39-31.3,3.81-40.31-.22-3.53-.48-5.69-.48-5.69q1.2,2.73,2,5.34C216.55,70.61,203.32,87.18,203.32,87.18Z"/><path class="cls-9" d="M233.82,89.26c6.23-10.94,1.55-27.75,1.37-28.39C248,76,233.82,89.26,233.82,89.26Z"/><path class="cls-9" d="M100,126V126a123.74,123.74,0,0,1,1-18.82,126.93,126.93,0,0,0,1.69,26.68,0,0,0,0,0,0,0,157.05,157.05,0,0,0,14.22,44.07C103.44,163.57,100.3,141.67,100,126Z"/><path class="cls-9" d="M167.85,41.89c-2,1.23-10.49,7.24-18.56,24.11-1.47,3.07-2.92,6.49-4.31,10.31-.38,1-.76,2.11-1.13,3.21a27,27,0,0,1,.21-3.5,43.56,43.56,0,0,1,2-8.79h0C148.69,59.18,154.64,48.91,167.85,41.89Z"/><path class="cls-9" d="M120.35,218.79s-20-1.18-12.86-30.5C107.23,190,104.22,212,120.35,218.79Z"/><path class="cls-9" d="M134.55,264.56c-.12.58-.25,1.14-.4,1.68l0,.1a22.61,22.61,0,0,1-2.49,5.93,16.65,16.65,0,0,1-11.92,8.15C128.11,279.18,134.55,264.56,134.55,264.56Z"/><path class="cls-9" d="M238.34,318.09c-1.18,1.18-2.12,2.27-3.09,3.11-2.24,1.94-4.65,2.63-10.47.36v-.31c6.22,1.89,11.2-1.3,12.92-2.63A7.47,7.47,0,0,0,238.34,318.09Z"/><path class="cls-9" d="M226.46,233.72a24.48,24.48,0,0,0,6.85-16.49v-.11c.24-.23.47-.46.7-.7a.24.24,0,0,1,0,.08C236.53,228.8,226.46,233.72,226.46,233.72Z"/><path class="cls-9" d="M246.68,230c0,.13-.15.66-.39,1.46a.64.64,0,0,0,0,.12,31.78,31.78,0,0,1-2.6,6.11h0c-2.32,4.13-6.16,8.42-12.11,8.64C231.54,246.34,240.26,243.71,246.68,230Z"/><path class="cls-9" d="M227.29,230.76a44.74,44.74,0,0,1-8.06-3.4l-.06,0L220,227l0,0,.18-.08.49-.23,0,0Z"/><path class="cls-9" d="M234.7,247.65s-13.55.36-9.53-16.43c0,0,0,.17,0,.47C224.94,234.24,224.63,244.9,234.7,247.65Z"/><path class="cls-9" d="M230.36,259.9l-.13,0c-7.19-1.45-12.51-9.28-15.49-14.91-.2-.4-.4-.78-.58-1.15l0,0a50.06,50.06,0,0,1-2.08-4.7,55.94,55.94,0,0,0,18.2,20.77Z"/><path class="cls-9" d="M231.5,260.35a20.08,20.08,0,0,1-5.1,3,23.25,23.25,0,0,0,3.69-3.35l.14-.15.13,0-.1-.06c2.62-2.95,5.53-7.59,5.14-13.42A12.63,12.63,0,0,1,231.5,260.35Z"/><path class="cls-9" d="M235.19,280.56c-.74-.15-14.75-3.36-9.44-21.42C225.78,259,223.53,274.88,235.19,280.56Z"/><path class="cls-9" d="M234.73,287.53s-10.55,1.87-15.17-10.2C219.82,277.77,224.15,284.76,234.73,287.53Z"/><path class="cls-9" d="M247.22,262.92c-.06.3-.12.6-.19.89a22.88,22.88,0,0,1-12.84,15.71c7.27-4.49,11.45-13,12.67-15.74.14-.32.24-.57.3-.72s0,0,0,0a.14.14,0,0,0,0-.06Z"/></g><g id="hair_highlights"><path class="cls-10" d="M253.15,66.41a219.92,219.92,0,0,0-13.3-23c-.72-1.09-1.47-2.17-2.23-3.25-1.88-2.66-3.85-5.27-5.88-7.68a70,70,0,0,0-4.89-5.29c1,.13,2.07.29,3.23.5a52.54,52.54,0,0,1,7.37,6.73A58.78,58.78,0,0,1,244.53,44a65.7,65.7,0,0,1,3.62,6.92A76.17,76.17,0,0,1,253.15,66.41Z"/><path class="cls-10" d="M198.36,49.08a44.49,44.49,0,0,1-5,14.79s1.22-6.09,2-13.95a115.1,115.1,0,0,0,.55-11.81A57.69,57.69,0,0,0,195,27.76a.69.69,0,0,1,.2,0,32.91,32.91,0,0,1,3,9.06A38.67,38.67,0,0,1,198.36,49.08Z"/><path class="cls-10" d="M139.6,63.24c-1.81,2.55-3.49,5.18-5,7.86h0l-.55,1c-19.6,34.91-17.56,78.35-17.44,80.63C106.71,88.71,139.6,63.24,139.6,63.24Z"/><path class="cls-10" d="M112.42,224.27c-3.14-1.24-11.36-5.19-14.85-13.38C97.93,211.26,108.33,221.91,112.42,224.27Z"/><path class="cls-10" d="M229.59,255.08c-19.16-11.57-13.09-25.23-13.09-25.23A42.63,42.63,0,0,0,229.59,255.08Z"/><path class="cls-10" d="M112.36,282.4c-15.75-13.47-10.63-28.08-10.63-28.08C103.06,269.88,112.36,282.4,112.36,282.4Z"/><path class="cls-10" d="M224.84,301.18c-6.83-3.42-4.93-14.42-4.93-14.42C219.53,290.36,224.84,301.18,224.84,301.18Z"/><path class="cls-10" d="M112.74,314.64c-3.8-8,5.31-8.15,5.31-8.15C112.55,308.2,112.74,314.64,112.74,314.64Z"/><path class="cls-10" d="M224.84,315.21c-3.79-8,5.32-8.15,5.32-8.15C224.65,308.76,224.84,315.21,224.84,315.21Z"/></g><g id="hat"><path id="hat_base" data-name="hat base" class="cls-11" d="M272.15,43.05C250-3.54,176.57,5.58,176.57,5.58A54.85,54.85,0,0,0,125.09,7.4c-19.27,10.94-40,32.36-40,32.36,16.74-29,40-32.36,40-32.36-32.61-13.16-60,35.25-60,35.25-10.58,14.36-28.36,68.79-22.5,106,4.09,26,8.18,29.13,12.27,26.25,1.93-1.36,7.75,10,9,12.64C72,205.42,93.44,189,93.53,180.06c0-.83,0-1.69-.12-2.62-.71-7.64-4-19.57.73-52a93.41,93.41,0,0,1,2.61-12.06c7.39-26.06,25.76-51,47.41-66.92,9.86-7.27,22.07-12.21,34.6-15.44l.08,0,1.63-.49.21-.06.75-.21,1.48-.4c.29-.08.59-.16.89-.22,1.32-.34,2.68-.64,4.07-.92l.66-.13q1.09-.23,2.22-.42l1.76-.28,1.37-.2c.24,0,.48-.08.72-.1l.36-.05c0-.13,0-.26-.07-.39s.08.13.21.38c.36-.06.73-.11,1.1-.14q1.16-.15,2.34-.27c1.06-.11,2.14-.21,3.23-.28l.43,0a102,102,0,0,1,18.06-.23c.53,0,1.07.06,1.61.11,1.26.08,2.54.19,3.83.3l1,.09c1,.09,2,.2,2.92.31,3.88.44,7.46,1,10.75,1.7a.75.75,0,0,1-.07-.12l.14.14c1.15.24,2.27.49,3.35.75l1.24.31c1,.24,1.93.5,2.84.76l1.36.4,1.31.41A78.8,78.8,0,0,1,259.08,35l1.26.58c.41.19.8.38,1.18.58s.76.37,1.12.57.71.37,1.05.56c1.58.86,2.93,1.69,4.05,2.44a60.07,60.07,0,0,0-5.81-3.61,57.14,57.14,0,0,1,9.71,6.53ZM55.28,174.4s-20.81-69,37.53-120.35h0c.11-.09.21-.19.32-.27l-.46.47C87.4,59.77,46.08,105.57,55.28,174.4Zm95.91-155C83.05,63.71,74.77,118.78,73.77,132.83c-.12,1.71-.13,2.81-.13,3.21q-.11-3-.07-5.88c.3-31.58,11.56-49.85,11.56-49.85,16.45-29.27,37-47.49,54.37-58.62,20.34-13,36.34-16.39,36.34-16.39A259.39,259.39,0,0,0,151.19,19.42Z"/><g id="hat_shade" data-name="hat shade"><path class="cls-12" d="M92.67,54.24C87.4,59.77,46.08,105.57,55.28,174.4c0,0-20.81-69,37.53-120.35h0c.11-.09.21-.19.32-.27Z"/><path class="cls-12" d="M175.84,5.3a259.39,259.39,0,0,0-24.65,14.12C83.05,63.71,74.77,118.78,73.77,132.83c-.12,1.71-.13,2.81-.13,3.21q-.11-3-.07-5.88c.3-31.58,11.56-49.85,11.56-49.85,16.45-29.27,37-47.49,54.37-58.62C159.84,8.64,175.84,5.3,175.84,5.3Z"/><path class="cls-12" d="M125.09,7.4c-19.27,10.94-40,32.36-40,32.36C101.79,10.72,125.09,7.4,125.09,7.4Z"/></g></g></svg>