<svg id="Layer_1" data-name="Layer 1" xmlns="http://www.w3.org/2000/svg" viewBox="0 0 345.04 379.82"><defs><style>.cls-1{fill:#fff;}.cls-2{fill:#cfcfce;}.cls-3{fill:#455a68;}.cls-4{fill:#263944;}.cls-5{fill:#e2ab90;}.cls-6{fill:#9f4c24;opacity:0.25;}.cls-7{fill:#010101;}.cls-8{fill:#c4c4c4;}.cls-9{fill:#e2b64f;}.cls-10{fill:#c5922c;}.cls-11{fill:#eb2427;}.cls-12{fill:#9b1c1f;}.cls-13{fill:#686969;}.cls-14{fill:#8e8d8d;}.cls-15{fill:#b3b3b3;}</style></defs><g id="tshirt"><path id="tshirt_collar" class="cls-1" d="M210.55,268.28q-.18.93-.45,1.89c-2.07,7.26-8.27,15.74-26,15.28.08-.09-31.08,1.59-31-29.28v-.3c0-.15,0-.3,0-.46,4.89-.88,7.07-1.09,8-1.24a1.55,1.55,0,0,0,.63-.19s0,.07,0,.1a1.36,1.36,0,0,0,0,.2q0,.41-.06.81c-.51,8.39,4.19,17.73,16.75,20.7a35.06,35.06,0,0,0,6.29.9c1.07.06,2.14.08,3.21,0a15.89,15.89,0,0,0,3-.5c3.54-.8,7.12-2.41,9.48-5.27a11.47,11.47,0,0,0,2.31-4.69,16.72,16.72,0,0,0-.14-7.52l.58.13a.76.76,0,0,0-.08-.11l7.88,1.59c0,.08,0,.19,0,.32A26.87,26.87,0,0,1,210.55,268.28Z"/><path id="tshirt_body" class="cls-1" d="M211.82,294a40.7,40.7,0,0,0-1.1,15.68c1.07,12.13.49,25.67-.61,37.59-.43,2.86-.84,5.66-1.21,8.34-1.66,11.54-2.81,20.87-3.13,23.42v.05l-.15.76-31.53-.33s.33-11.06-.75-25.44c-1.22-16.31-4.24-36.88-11.59-50.47-.9-1.68-24.46-34.61-16.75-46.1l.21-.3.21-.27.22-.1-.15,0,.25-.29,3.11-.49.42-.06.47-.07.73-.11,1-.16h.11l.13,0h.06l.08,0h0a2.94,2.94,0,0,1,0,.48c0,.11,0,.19,0,.21v.1c-1.87,32.19,31.48,31.49,31.48,31.49,20.61-.17,26.62-9.37,28-17.13.09-.48.16-.95.21-1.42a26.26,26.26,0,0,0-.5-8.63,2.43,2.43,0,0,0-.09-.33l.6.12c0,.12.1.24.14.36a43.69,43.69,0,0,1,2.86,11.36l-.17-.08a1.41,1.41,0,0,0,.18.17C215.49,281.09,213.35,288.21,211.82,294Z"/><path id="neckline" class="cls-2" d="M211.54,269.33c0,.47-.12.94-.21,1.42-1.39,7.76-7.4,17-28,17.13,0,0-33.35.7-31.48-31.49v-.1s0-.1,0-.21a3.15,3.15,0,0,0,0-.49l1.22-.25v.07c0,.16,0,.31,0,.46v.3c-.07,30.87,31.09,29.19,31,29.28,17.74.46,23.94-8,26-15.28q.27-1,.45-1.89a26.87,26.87,0,0,0,.41-7.6l.08,0A26.26,26.26,0,0,1,211.54,269.33Z"/></g><g id="hoodie"><path class="cls-3" d="M173.34,354.05c-1.22-16.31-4.24-36.88-11.59-50.47-.9-1.68-24.46-34.61-16.75-46.1l.21-.3.21-.27c-.22.1-.45.2-.66.31l-.08,0h0c-.25.12-.48.25-.72.38h0c-11.56,6.48-12.2,24.41-12.2,24.41-2.93-15.88,4.72-21.88,9.8-24.07h0l1-.39a14.76,14.76,0,0,1,2.59-.7l.35-.06h0l.25-.29,3.11-.49.42-.06.47-.07.73-.11,1-.16h.11l.13,0h.06l.08,0h0l1.22-.19h.14l7.22-1.12.49-.07.2,0,.56-.16h.07s0,.07,0,.1l.6-.09h.07c.91-.8,4-6.53,7-13.91-.88-.21-10.6-2.28-44.64,1.93,0,0-51.09,5.26-49.33,22.62l-.16,0a7.53,7.53,0,0,0,.22,1.91c0,.11.06.22.09.33,1.21,4,5.59,5,5.59,5.2,5.88,2.24,18.38,1.27,24.4,4.44,14.79,6,26.47,6,26.47,6,17,2.61,32.11,41.23,38.58,71.38,2.1,9.77,3.29,18.65,3.34,25.13,0-.07-1.69-10.87-5.28-25.21-6.16-24.63-17.94-59.7-36.41-68.79a48.4,48.4,0,0,1-5.57-.23c2.3,3.27,10.3,17,6.21,45a152.67,152.67,0,0,0-1.6,22.41,124,124,0,0,0,1.44,19.41,76.61,76.61,0,0,1-3.16-19.49h-.26a122.55,122.55,0,0,0,1.42,17.5,73.36,73.36,0,0,1-3-17.57,154.75,154.75,0,0,1,.52-25c3.47-23.7-2.68-37.22-6.25-42.8a57.74,57.74,0,0,1-17.09-5.49c-.12-.06-4.68-1.93-15.67-2.57,0,0-12.54-.47-14.57-9,0-.11,0-.22-.06-.33a9.43,9.43,0,0,1-.21-1.89c-1.31.38-3.76,1.07-6.91,1.86-1.28.32-36.87,4.95-49.75,24.18,0,0-16.63,20-17.74,88.57H25.45l148.64,0S174.42,368.43,173.34,354.05Zm-71.46-91-.18-.13h0c-7.13-5.13-6.84-11.1,24.11-14.05,0,0,28.4-3.63,39.46-1.82,0,0-57.81,1.83-54.71,14.88v0c.69,2.8,4.17,6.1,11.58,10C121.6,271.81,108.62,267.8,101.88,263Z"/><path class="cls-3" d="M205.62,379.82h113l-12.43-.12s14.28-76.76-8.22-97.33c-.55-.5-1.12-1-1.7-1.39-.34-.25-.69-.49-1.05-.71a18.67,18.67,0,0,0-2-1.11c-.17-.08.36,0,1.37.4a56.45,56.45,0,0,0-16.44-6.5l-40.3-8.6c.5-16-36.32-21.41-36.32-21.41a18,18,0,0,0-1,8.86,16,16,0,0,0,.24,1.67l0,.14a14.46,14.46,0,0,0,1.93,5l.42.09,7.88,1.59c0-.07,0-.12,0-.15a.71.71,0,0,1,0,.16l.6.12c0,.12.1.24.14.36a43.69,43.69,0,0,1,2.86,11.36s0,.06,0,.09c.93,8.79-1.21,15.91-2.74,21.68a40.7,40.7,0,0,0-1.1,15.68c1.07,12.13.49,25.67-.61,37.59,3.2-21.19,7.6-45.75,11.38-50.32,2.23-2.7,4.45-5.84,4.61-6.07,3.06-4.1,2-7.6.69-10.78a34.34,34.34,0,0,1-1.34-3.66h0c-.62-2.36-.34-4.58,2.88-6.78a11.83,11.83,0,0,0-4.41-4.49,31.23,31.23,0,0,0-6.09-2.88c-.63-.23-1.23-.43-1.81-.6h0c-2.28-.72-4-1.08-4.31-1.15h0c.15,0,1,0,2.21.14,3,.27,8.51,1.06,11.88,3.45a7.27,7.27,0,0,1,2.4,2.7,5.68,5.68,0,0,1,.54,2.64c.44-.13,1.63-.51,3-1a27.28,27.28,0,0,0,4.15-2,4.53,4.53,0,0,0,1.94-1.91,3.08,3.08,0,0,1-.22,2.3c-.48,1.11-1.63,2.51-4.17,3.9h0c.26.37,2.68,3.9,4.78,11.23,2.49,8.65,4.53,22.59,2,42.83a186,186,0,0,0-2.06,32.08,144.9,144.9,0,0,0,1.25,16.55,84.47,84.47,0,0,1-2.78-16.62c-.33-4.06-.43-8.1-.42-11.88-.12,3.7-.14,7.69,0,11.86a141.25,141.25,0,0,0,1.2,14.64,81.87,81.87,0,0,1-2.62-14.7,174.82,174.82,0,0,1,.73-34.86c1.74-19.29-.14-32.15-2.47-40.19-.44-1.53-.9-2.88-1.35-4.07a37.63,37.63,0,0,0-2.24-4.9,5.16,5.16,0,0,0-1.27,4.53,8.55,8.55,0,0,0,.76,2.34,10.4,10.4,0,0,1,.52,1.39,13.18,13.18,0,0,1-3.8,13.51s-6,6.48-8.72,24.41l-6.81,36.77-4.46,24.06s0-.22.08-.64Zm19.24-119s1.45-6.12-23.54-12.8C200.57,247.82,231.33,253.42,224.86,260.82Z"/></g><g id="hoodie_shadows"><path class="cls-4" d="M145.48,256.83l-.06.08c-.22.1-.45.2-.66.31l-.08,0h0c-.25.12-.48.25-.72.38h0c-11.56,6.48-12.2,24.41-12.2,24.41-2.93-15.88,4.72-21.88,9.8-24.07h0l1-.39a14.76,14.76,0,0,1,2.59-.7Z"/><path class="cls-4" d="M122.14,272c-.54-.16-13.52-4.17-20.26-8.93l-.18-.13h0c-7.13-5.13-6.84-11.1,24.11-14.05,0,0,28.4-3.63,39.46-1.82,0,0-57.81,1.83-54.71,14.88v0C111.25,264.76,114.73,268.06,122.14,272Z"/><path class="cls-4" d="M240.23,324.78a186,186,0,0,0-2.06,32.08,144.9,144.9,0,0,0,1.25,16.55,84.47,84.47,0,0,1-2.78-16.62c-.33-4.06-.43-8.1-.42-11.88v-.1a179.9,179.9,0,0,1,2-22c2.32-18.75.75-32.09-1.47-40.83a52.19,52.19,0,0,0-4-10.9l.63-.33c.26.37,2.68,3.9,4.78,11.23C240.7,290.6,242.74,304.54,240.23,324.78Z"/><path class="cls-4" d="M224.86,260.82s1.45-6.12-23.54-12.8C200.57,247.82,231.33,253.42,224.86,260.82Z"/><path class="cls-4" d="M237.6,266.81c-.48,1.11-1.63,2.51-4.17,3.9l0,0-.64.3-1.05.5-1.15.55h0l-.62.23a3,3,0,0,0-.45.41,5.16,5.16,0,0,0-1.27,4.53,8.55,8.55,0,0,0,.76,2.34,10.4,10.4,0,0,1,.52,1.39,13.18,13.18,0,0,1-3.8,13.51s-6,6.48-8.72,24.41l-6.81,36.77-4.46,24.06s0-.22.08-.64V379c.32-2.55,1.47-11.88,3.13-23.42.37-2.68.78-5.48,1.21-8.34,3.2-21.19,7.6-45.75,11.38-50.32,2.23-2.7,4.45-5.84,4.61-6.07,3.06-4.1,2-7.6.69-10.78a34.34,34.34,0,0,1-1.34-3.66h0c-.62-2.36-.34-4.58,2.88-6.78a11.83,11.83,0,0,0-4.41-4.49,31.23,31.23,0,0,0-6.09-2.88c-.63-.23-1.23-.43-1.81-.6h0c-2.28-.72-4-1.08-4.31-1.15.15,0,1,0,2.21.14,3,.27,8.51,1.06,11.88,3.45a7.27,7.27,0,0,1,2.4,2.7,5.68,5.68,0,0,1,.54,2.64c.44-.13,1.63-.51,3-1a27.28,27.28,0,0,0,4.15-2,4.53,4.53,0,0,0,1.94-1.91A3.08,3.08,0,0,1,237.6,266.81Z"/><path class="cls-4" d="M174,379.06c0-.07-1.69-10.87-5.28-25.21-6.16-24.63-17.94-59.7-36.41-68.79a48.4,48.4,0,0,1-5.57-.23c2.3,3.27,10.3,17,6.21,45a152.67,152.67,0,0,0-1.6,22.41,124,124,0,0,0,1.44,19.41,76.61,76.61,0,0,1-3.16-19.49c-.15-2.66-.19-5.26-.18-7.69a.14.14,0,0,0,0-.09,146.26,146.26,0,0,1,1.5-16.55c3.53-24.15-2-37.7-5-43.06-1-.1-2.1-.24-3.27-.42l-.67-.11a57.74,57.74,0,0,1-17.09-5.49c-.12-.06-4.68-1.93-15.67-2.57,0,0-12.54-.47-14.57-9,0-.11,0-.22-.06-.33a9.43,9.43,0,0,1-.21-1.89v0l.91-.55c0,.1,0,.21,0,.31a7.53,7.53,0,0,0,.22,1.91c0,.11.06.22.09.33,1.21,4,5.59,5,5.59,5.2,5.88,2.24,18.38,1.27,24.4,4.44,14.79,6,26.47,6,26.47,6,17,2.61,32.11,41.23,38.58,71.38C172.75,363.7,173.94,372.58,174,379.06Z"/><path class="cls-4" d="M318.58,379.82l-12.43-.12s14.28-76.76-8.22-97.33c-.55-.5-1.12-1-1.7-1.39-.34-.25-.69-.49-1.05-.71a18.67,18.67,0,0,0-2-1.11c-.17-.08.36,0,1.37.4a45.43,45.43,0,0,1,9.57,6.82c3.44,4.45,7,7.34,9.68,15.91.09.27.18.54.26.83s.14.49.22.74q.21.75.42,1.56c.06.27.13.55.2.83s.15.66.24,1c0,.1,0,.2.07.3.39,1.85.77,3.91,1.12,6.21.06.39.12.8.17,1.22.5,3.79,1.05,9.1,1.48,16.35,0,.49.06,1,.08,1.47l0,.58C318.67,344.37,319,359.46,318.58,379.82Z"/><path class="cls-4" d="M60.82,379.46C60.49,377.6,62.44,345,62.44,345s1.67,34.48,1.65,34.48A28.9,28.9,0,0,1,60.82,379.46Z"/><path class="cls-4" d="M282.7,379.76c-.33-1.88,1.62-34.77,1.62-34.77S286,379.77,286,379.77A28.9,28.9,0,0,1,282.7,379.76Z"/></g><path id="skin" class="cls-5" d="M137.08,122.35l0,0-1.25,1.13,0,.1s0,0,0,0c.33-.33.65-.67,1-1l.85-.85Zm91.53,18.39c4.09,12.8-2.36,21.6-2.36,21.6-7.44,11.22-24.38,8.82-24.38,8.82,17.52,5.67,26.4-7.73,26.4-7.73C236.46,150.47,228.61,140.74,228.61,140.74Zm0,0c4.09,12.8-2.36,21.6-2.36,21.6-7.44,11.22-24.38,8.82-24.38,8.82,17.52,5.67,26.4-7.73,26.4-7.73C236.46,150.47,228.61,140.74,228.61,140.74Zm-29-15.7h0l-.12,0-.43-.11-1-.27c-.27-.07-.55-.15-.82-.24-1.4-.41-2.82-.89-4.24-1.42l-1.39-.53-.3-.12c-.79-.32-1.59-.66-2.39-1-.18-.07-.35-.15-.53-.24-.45-.2-.89-.41-1.34-.63-1.14-.54-2.28-1.13-3.41-1.76-1-.52-1.92-1.08-2.87-1.67-.5-.3-1-.62-1.49-.94s-1-.65-1.48-1c-.86-.59-1.71-1.21-2.55-1.85l-.74-.56-1-.81c-.29-.23-.58-.48-.87-.73s-.64-.54-1-.82c-.85-.75-1.69-1.52-2.5-2.33-.3-.29-.6-.58-.89-.88h0c-.47-.49-.94-1-1.4-1.49s-.81-.9-1.22-1.37a56.42,56.42,0,0,0-8.34,3.56h0l0,0c-.7.35-1.43.74-2.19,1.15-.51.28-1,.58-1.56.89h0c-.8.46-1.63,1-2.48,1.5-.06,1-.12,1.9-.16,2.87-.07,1.53-.1,3.08-.1,4.65,0,1.12,0,2.24.06,3.37,0,.16,0,.32,0,.47,0,.54,0,1.08.08,1.62s.06,1.08.11,1.61l.06.73c0,.32.05.63.08.94s.07.67.11,1,.11.95.18,1.42.12.92.2,1.38c0,.21.06.42.1.63s.11.7.18,1,.07.44.12.65c.1.55.22,1.1.34,1.65s.24,1.05.38,1.57.3,1.14.47,1.71c.1.34.2.68.32,1a1.43,1.43,0,0,0,.09.27c.11.34.22.67.34,1a.16.16,0,0,0,0,.09,3.43,3.43,0,0,0,.16.45c.23.64.48,1.26.75,1.88a3.29,3.29,0,0,0,.17.39c.17.41.36.82.56,1.22h0c1.25,0,2.51,0,3.76,0h.93l10,0c3.37.06,6.75.08,10.13.16a26.6,26.6,0,0,1,15.15-18.63l.07,0,.86-.37a25.59,25.59,0,0,1,3.09-1.08ZM286,176.13h0a30.3,30.3,0,0,1-8.46,1.36h-.48A27.06,27.06,0,0,1,258,169.73a25.75,25.75,0,0,1-6.21-9.6c-.15-.42-.29-.83-.42-1.25s-.25-.8-.35-1.21-.2-.82-.28-1.23-.16-.83-.22-1.25-.12-.84-.16-1.26a24.25,24.25,0,0,1-.13-2.56c0-.66,0-1.31.08-2s.14-1.34.25-2h0a15.21,15.21,0,0,0-3.41-1.37,14.47,14.47,0,0,0-4-.48,21.58,21.58,0,0,0-4.1.55,28,28,0,0,0-3.87,1.18v0c0,.25.06.5.08.75s.05.66.07,1,0,.81,0,1.21a26.47,26.47,0,0,1-.14,2.69c-.05.44-.1.88-.18,1.32s-.14.87-.24,1.3-.19.85-.31,1.27-.24.85-.38,1.26a12.58,12.58,0,0,1-.43,1.22c-.15.41-.32.81-.5,1.2s-.25.56-.39.84-.35.7-.54,1-.26.47-.4.7-.33.56-.5.83-.47.72-.72,1.07-.48.68-.74,1-.61.74-.92,1.1a11,11,0,0,1-.8.88,11.41,11.41,0,0,1-.92.92,28.43,28.43,0,0,1-40-.92c-.59-.63-1.15-1.28-1.69-1.95-.27-.34-.53-.69-.77-1s-.46-.67-.68-1l-.09-.14c-.22-.34-.42-.67-.62-1l0,0c-.2-.36-.4-.72-.58-1.09a20.83,20.83,0,0,1-1.05-2.37c-.16-.4-.3-.8-.43-1.22s-.27-.83-.38-1.26-.23-.84-.31-1.27-.18-.86-.24-1.3-.13-.88-.18-1.32a26.47,26.47,0,0,1-.14-2.69c0-.39,0-.79,0-1.18s0-.89.1-1.34c0-.28.07-.56.11-.84h0c-3.27.18-6.52.29-9.79.43l-8.58.28h0l-2.3.07-2.29.07h0c.21.35.42.69.64,1s.33.48.5.71.39.56.6.83c.45.61.94,1.19,1.45,1.76.14.16.28.31.43.46.46.5,1,1,1.47,1.44l.28.25c.26.24.54.47.82.69l.11.09h0l-.06,0c-.23-.06-.75-.22-1.5-.49l-.32-.12-.34-.13-.37-.14a43.94,43.94,0,0,1-9.65-5.41c-.3-.22-.61-.45-.91-.69l-.11-.09h0l-.07-.06-.78-.63,0,0-.36-.3-.05-.05h0a.34.34,0,0,0-.06-.06c-.53-.55-1-1.12-1.55-1.73l-.05-.06c-.47-.56-.93-1.15-1.36-1.77,0,0-.06.21-.15.6h0q-1-1-1.92-2.16c-.63-.76-1.25-1.57-1.84-2.41,0,0-.05.17-.12.5l-.06.27c-.06.3-.13.68-.2,1.13,0,.1,0,.21-.05.32s-.06.45-.08.71-.07.68-.1,1.06,0,.59,0,.9,0,.6,0,.92c0,.6,0,1.25.07,1.92V147c0,.15,0,.3,0,.46l0,.29a.19.19,0,0,0,0,.08,1.64,1.64,0,0,0,0,.22l0,.25c0,.14,0,.28.05.42s0,.35.08.53a.25.25,0,0,0,0,.08s0,.07,0,.1c0,.3.09.61.16.92s.08.36.11.55l.12.55a26.47,26.47,0,0,0,1,3.36l0,.09s-.56-.56-1.52-1.37a37,37,0,0,0-3.2-2.42s0,0,0,0l-.55-.36,0,0-.36-.26-.05,0-.6-.41a17.81,17.81,0,0,0-6.55-3.05h0v0l-.65-.13-.22,0-.3,0H129a8.93,8.93,0,0,0-3.23.11,6.46,6.46,0,0,0-1,.31l-.32.14-.42.22a6.46,6.46,0,0,0-1.7,1.39s-7,10.45,7.66,26.28c0,0,9.43,15.7,15.68,3.22.42.64.65,1,.65,1C155.9,195.67,166.06,207.84,176,217l-.06.51h0c-.85,7.16-3.64,15.59-6.49,22.56-.91,2.23-1.83,4.31-2.69,6.15-.07.15-.15.31-.22.47-.62,1.3-1.2,2.47-1.72,3.47-.18.34-.35.66-.52,1a.41.41,0,0,0-.05.09l-.57,1,0,.07-.46.75s0,0,0,0a3.16,3.16,0,0,1-.18.27,6.54,6.54,0,0,1-.44.58l-.09.09s-.06,0-.14,0h0a1.47,1.47,0,0,0-.43.07l-.07,0a1.23,1.23,0,0,0,0,.19q0,.41-.06.81h0c-.38,7.55,3.45,15.91,13.38,19.67l.94.33q1.16.39,2.43.69c.41.1.81.19,1.22.26l.38.08.89.16.63.09c.53.08,1,.14,1.58.19h.08l.79.07.7,0h0c.69,0,1.37.06,2.06.06l.56,0h.07l.33,0h.14l.17,0,.12,0,.51-.06c.52-.07,1.17-.17,1.9-.33l.32-.07.66-.16.14,0h0L192,276c.29-.07.57-.15.86-.25l.07,0c.33-.11.66-.22,1-.35l.39-.15.33-.13.33-.15.66-.3.66-.34c.28-.15.55-.3.82-.47a6.49,6.49,0,0,0,.55-.36c.23-.15.45-.31.67-.48a13.51,13.51,0,0,0,1.15-1,11.36,11.36,0,0,0,.94-1,.46.46,0,0,0,.07-.07q.17-.21.33-.45c.11-.14.21-.29.3-.43s.19-.3.28-.45a3.72,3.72,0,0,0,.27-.48c.08-.14.15-.28.22-.43a9.28,9.28,0,0,0,.37-.86c.06-.15.11-.29.16-.44a9.58,9.58,0,0,0,.31-1.08,1.13,1.13,0,0,0,0-.18l0-.17a.59.59,0,0,0,0-.14,4,4,0,0,0,.09-.48c0-.21.07-.42.1-.64a1.36,1.36,0,0,0,0-.2.57.57,0,0,0,0-.13c0-.11,0-.21,0-.32v-.1a.22.22,0,0,0,0-.08,16.37,16.37,0,0,0-.1-2.85,21.52,21.52,0,0,0-.38-2.22h0l.57.13h0l0-.05v0l0,0-.42-.09h0a14.46,14.46,0,0,1-1.93-5l0-.14a12.72,12.72,0,0,1-.29-1.85v-.07s0,0,0,0a14.86,14.86,0,0,1-.07-1.49v-.3a22.41,22.41,0,0,1,1.21-6.76c.08-.26.16-.51.25-.76h0c0-.06.05-.13.08-.2s.15-.38.22-.56.15-.39.22-.58a2.44,2.44,0,0,0,.1-.24,39,39,0,0,1,1.85-3.88h0l0,0,.16-.29c19.53,9.23,33.81,8.16,33.81,8.16.25,0,.51,0,.76-.07l.85-.09h0l.13,0h0l.13,0a.07.07,0,0,0,.06,0h.07l.81-.13c.56-.1,1.12-.22,1.67-.37.4-.1.8-.21,1.19-.33s.8-.25,1.2-.39l1.05-.39a3.8,3.8,0,0,0,.47-.18l.82-.35a.18.18,0,0,0,.09,0l1.13-.53q.58-.28,1.17-.6c1.16-.62,2.3-1.32,3.43-2.07l1.12-.77c1.48-1.06,2.94-2.21,4.35-3.45l1.06-.94c.35-.32.7-.64,1-1l1.53-1.5c.31-.3.61-.61.9-.92s.59-.61.88-.93c.89-1,1.76-1.93,2.61-2.92,0,0,0,0,0,0q1.39-1.64,2.71-3.31c.87-1.11,1.72-2.24,2.55-3.37.56-.75,1.09-1.5,1.61-2.25l.89-1.29c.46-.67.9-1.33,1.33-2,.22-.33.44-.66.65-1l.62-1,1-1.66c.08-.12.16-.24.23-.37.37-.6.73-1.19,1.08-1.78s.63-1.06.93-1.58.77-1.32,1.13-1.95l.68-1.22c.28-.5.55-1,.8-1.46.94-1.73,1.74-3.27,2.39-4.57l.51-1c.32-.63.58-1.18.8-1.64l.36-.75q.22-.51.33-.72l.06-.14c.25-.56.51-1.12.75-1.67s.52-1.21.77-1.81c0-.06.05-.12.07-.17,2.71-6.53,4.7-12.94,6.68-19.15A28.73,28.73,0,0,1,286,176.13Zm-51.93,42.1a1.06,1.06,0,0,1-.2.12c-6.17,3.81-20.64,10.75-29.3-1,0,0-8.9-13.83,13.42-21.75l0,.1h0a.5.5,0,0,1,0,.13c.68,2.12,6.09,17.77,18.74,20.58C236.83,216.39,235.81,217.18,234.1,218.23Zm70.26-88.47c-.24-.35-.48-.71-.73-1-.07-.11-.15-.22-.24-.34l-.53-.72c-.09-.13-.2-.27-.31-.41l-.65-.84c-.29-.37-.58-.73-.88-1.08s-.37-.44-.56-.65a.75.75,0,0,0-.12-.14l-.26-.3a5.56,5.56,0,0,0-.47-.51.68.68,0,0,0-.12-.12c-.31-.33-.62-.66-.94-1s-.36-.37-.54-.54l-1.08-1h0c-.55-.5-1.1-1-1.66-1.42l-.18-.15c-.13-.11-.25-.2-.38-.29l-.57-.41-.1-.08-.35-.23c-.19-.14-.39-.26-.59-.39l-.54-.33-.71-.41-.09,0-.64-.33a5.11,5.11,0,0,0-.48-.22,1.13,1.13,0,0,0-.22-.11l-.22-.09a8.8,8.8,0,0,1,.82,2.32c.05.25.1.5.14.75s.06.33.08.49a1.94,1.94,0,0,1,0,.24c0,.14,0,.28,0,.42a1.15,1.15,0,0,1,0,.19s0,0,0,0a.45.45,0,0,1,0,.08,2.26,2.26,0,0,1,0,.26h0c0,.12,0,.23,0,.35a8.47,8.47,0,0,1-.07,1.13c0,.12,0,.25,0,.37a5.62,5.62,0,0,1-.09.57h0l0,0s0,0,0,0,0,0,0,0l0,0-.05-.05-.06-.06a3.28,3.28,0,0,0-.34-.31,1.54,1.54,0,0,0-.19-.17l-.2-.17a.1.1,0,0,0-.05,0l-.29-.24c-.11-.09-.22-.18-.34-.26-.47-.36-1.05-.78-1.75-1.22l-.06,0c-.35-.22-.72-.45-1.13-.68l-.66-.37c-.23-.13-.46-.26-.7-.38s-.47-.25-.71-.36l-.52-.26-.26-.12-.54-.25-.63-.28c-.33-.15-.66-.29-1-.42l-.07,0-.94-.37-1.18-.44c-.42-.16-.85-.3-1.28-.44l-.81-.26c-.66-.22-1.33-.41-2-.59l-.36-.1a3.92,3.92,0,0,0-.49-.13l-.46-.12-.5-.13-.51-.12c-.35-.08-.69-.17-1-.24-.52-.12-1.06-.23-1.61-.34s-1.43-.27-2.17-.4-1.78-.29-2.71-.42c-.2,0-.39-.06-.59-.08l-1.75-.21H263c-2.68-.29-5.57-.51-8.7-.6h-.17l-1.12.66-2.32,1.31-.45.24-.16.1a2.37,2.37,0,0,1-.34.19l-.05,0h0l0,0-.11.06h0c-2,1.08-4.11,2.12-6.29,3.1-.57.26-1.15.52-1.73.76l-.12.06-1.79.74a6.44,6.44,0,0,1-.61.24c-.5.21-1,.4-1.52.59-.2.08-.4.16-.6.22l-1.54.56-.67.23-2.19.71-1.07.33c-1.23.37-2.49.71-3.78,1-.63.16-1.26.31-1.9.45l-.62.14c-.58.13-1.17.26-1.76.37l-1.3.25-1.33.23c-.71.13-1.42.24-2.15.34l-.15,0h0l-.09,0a26.55,26.55,0,0,1,6.65,3.76c.25.18.48.37.72.58l.07.05a26,26,0,0,1,9,14.73,16.48,16.48,0,0,1,3.47-1.65,16.69,16.69,0,0,1,4.79-.94,12.59,12.59,0,0,1,5,.75,9.62,9.62,0,0,1,3,1.76c3-11.29,13.74-19.67,26.5-19.67a27.91,27.91,0,0,1,15,4.25A26.31,26.31,0,0,1,303,142.2a.06.06,0,0,1,0,0l.21-1.35,0-.2,0-.18c.09-.62.18-1.24.28-1.85a.34.34,0,0,1,0-.1.13.13,0,0,1,0-.06c.18-1.28.35-2.55.49-3.8,0-.22.06-.45.08-.67q.22-2,.39-3.9C304.5,130,304.43,129.86,304.36,129.76Zm-14.19-13.2a0,0,0,0,1,0,0h0s0,.08.05.13A.19.19,0,0,0,290.17,116.56Zm-61.56,24.18c4.09,12.8-2.36,21.6-2.36,21.6-7.44,11.22-24.38,8.82-24.38,8.82,17.52,5.67,26.4-7.73,26.4-7.73C236.46,150.47,228.61,140.74,228.61,140.74Zm0,0c4.09,12.8-2.36,21.6-2.36,21.6-7.44,11.22-24.38,8.82-24.38,8.82,17.52,5.67,26.4-7.73,26.4-7.73C236.46,150.47,228.61,140.74,228.61,140.74Z"/><g id="skin_shading" data-name="skin shading"><path id="neck_shading" class="cls-6" d="M203.13,258.82l-.58-.13a16.72,16.72,0,0,1,.14,7.52c-3.58-2.12-6-4.07-6-5.34,0,0-6.81-25.48-19.33-41.6,3,3.32,10.71,10.48,26.83,17.49l.1,0a40.56,40.56,0,0,0-2.49,5.23c0,.07-.05.14-.08.2-1.14,3-2.09,6.62-1.38,9.43a.59.59,0,0,0,.05.19,16,16,0,0,0,.24,1.67l0,.14a14.46,14.46,0,0,0,1.93,5l.42.09A.76.76,0,0,1,203.13,258.82Z"/><path class="cls-6" d="M296.66,170a206.28,206.28,0,0,1-8.35,21.86c-.24.55-.5,1.11-.75,1.67l-.06.14q-.11.21-.33.72l-.36.75c-.22.46-.48,1-.8,1.64l-.51,1c-.65,1.3-1.45,2.84-2.39,4.57-.25.47-.52,1-.8,1.46s-.44.8-.68,1.22c-.36.63-.73,1.28-1.13,1.95s-.61,1.05-.93,1.58-.71,1.18-1.08,1.78c-.07.13-.15.25-.23.37-.33.55-.68,1.1-1,1.66l-.62,1c-.21.33-.43.66-.65,1-.43.66-.87,1.32-1.33,2l-.89,1.29c-.52.75-1.05,1.5-1.61,2.25-.82,1.13-1.67,2.26-2.55,3.37s-1.78,2.22-2.71,3.31c0,0,0,0,0,0-.85,1-1.72,2-2.61,2.92-.29.32-.58.62-.88.93s-.59.62-.9.92l-1.53,1.5c-.34.33-.69.65-1,1l-1.06.94a47.63,47.63,0,0,1-4.35,3.45l-1.12.77a34,34,0,0,1-3.43,2.07q-.58.32-1.17.6l-1.13.53a.18.18,0,0,1-.09,0l-.82.35a3.8,3.8,0,0,1-.47.18l-1.05.39q-.6.21-1.2.39c-.39.12-.79.23-1.19.33-.55.15-1.11.27-1.67.37l-.81.13h0l0,0c7-1.75,32.91-18.08,45.71-68.27a28.73,28.73,0,0,0,9.8-5.36C296.11,170.47,296.39,170.23,296.66,170Z"/><path class="cls-6" d="M304.55,130.22c0,.07,0,.14,0,.2l0,.39-.06.76c-.05.51-.11,1-.17,1.52,0,.29-.07.57-.11.86s-.05.45-.08.67c-.07.51-.14,1-.2,1.53-.11.76-.2,1.51-.29,2.27a.13.13,0,0,0,0,.06.34.34,0,0,0,0,.1c0,.27-.07.55-.1.82-.11,1-.25,1.93-.4,2.89a.35.35,0,0,0-.05-.13s0,0,0,0a26.31,26.31,0,0,0-10.54-12.6,45.11,45.11,0,0,0-.46-5.31c-.14-.9-.34-1.8-.53-2.7-.1-.47-.18-1-.26-1.43,0-.16-.05-.32-.08-.49s-.09-.5-.14-.75a8.8,8.8,0,0,0-.82-2.32l.22.09a1.13,1.13,0,0,1,.22.11,5.11,5.11,0,0,1,.48.22l.64.33.09,0,.71.41.54.33c.2.13.4.25.59.39l.35.23.1.08.57.41c.13.09.25.18.38.29l.18.15c.56.45,1.11.92,1.66,1.42h0l1.08,1q.27.26.54.54c.32.32.63.65.94,1a.68.68,0,0,1,.12.12,5.56,5.56,0,0,1,.47.51l.26.3a.75.75,0,0,1,.12.14c.19.21.38.43.56.65s.59.71.88,1.08l.65.84c.11.14.22.28.31.41l.53.72c.09.12.17.23.24.34.26.35.5.7.73,1,.07.1.14.19.2.29S304.55,130.19,304.55,130.22Z"/><path id="ear" class="cls-6" d="M143.8,169.52a4.4,4.4,0,0,1-5.73.22c-3.4-3.91,2.07-7.27,2.07-7.27-4.51-11.27-13.65-7.63-14.18-7.37,0,0,9.18-.58,11.52,7.32,0,0-3,0-4.78,3.91,0,0-1.76,4.29,2.93,6.92.34.2,6.63,3.13,9-2.92Z"/><path class="cls-6" d="M146.81,159.2a64.22,64.22,0,0,0-5.16-5.27,49.24,49.24,0,0,0-3.89-3.21,36.33,36.33,0,0,1,3.77,2.79c1,.81,1.52,1.37,1.52,1.37a27.9,27.9,0,0,1-1.71-7.9,24.54,24.54,0,0,1,.6-7.79,39.66,39.66,0,0,0,3.77,4.58,26,26,0,0,0-.49,3.11A27.86,27.86,0,0,0,146.81,159.2Z"/><path class="cls-6" d="M169.21,156.33A33.65,33.65,0,0,1,150,147.86c-.35-.32-.7-.67-1.05-1,.42.35.83.69,1.25,1h0l.11.09c.3.24.61.47.91.69a43.94,43.94,0,0,0,9.65,5.41l.37.14.34.13.32.12.44.16.27.09.79.24.06,0h0q-.48-.37-.93-.78l-.28-.25c-.51-.46-1-.94-1.47-1.44-.15-.15-.29-.31-.43-.46l-.08-.09c-.2-.22-.39-.44-.58-.67s-.54-.66-.79-1-.41-.55-.6-.83l-.5-.72c-.22-.33-.43-.67-.64-1s-.43-.73-.64-1.11-.39-.72-.56-1.08a6.54,6.54,0,0,1-.3-.59c-.2-.4-.39-.81-.56-1.22-.06-.13-.12-.26-.17-.39-.27-.62-.52-1.24-.75-1.88a3.43,3.43,0,0,1-.16-.45.16.16,0,0,1,0-.09c-.12-.33-.23-.66-.34-1a1.43,1.43,0,0,1-.09-.27c-.12-.34-.22-.68-.32-1-.17-.57-.33-1.14-.47-1.71s-.26-1.05-.38-1.57c0-.12-.05-.23-.07-.34-.09-.4-.18-.81-.25-1.21a.36.36,0,0,1,0-.1c0-.22-.09-.43-.12-.65s-.13-.69-.18-1-.07-.42-.1-.63c-.08-.46-.15-.92-.2-1.38s-.13-.95-.18-1.42c-.08-.63-.14-1.26-.19-1.89l-.06-.73c0-.53-.08-1.07-.11-1.61s-.06-1.08-.08-1.62c0-.15,0-.31,0-.47,0-1.13-.06-2.25-.06-3.37,0-1.57,0-3.12.1-4.65,0-1,.1-2,.16-2.93-.82.51-1.66,1.06-2.51,1.64l-.64.44-.81.57-.82.59-.23.17c-.34.24-.68.5-1,.76l-1.23,1-1.1.88,1.1-.89,1.23-1c.34-.26.68-.52,1-.76l.23-.17.82-.59.81-.57.64-.44c.85-.58,1.69-1.13,2.51-1.64l1.67-1,.55-.32.26-.15h0c.53-.31,1-.61,1.56-.89q1.15-.63,2.22-1.17a26.3,26.3,0,0,0-1.06,3.06l-.07.25s-3.56,18.34,4.2,33.9c.25.52.53,1,.81,1.55s.41.73.63,1.09A34.73,34.73,0,0,0,169.21,156.33Z"/><path class="cls-6" d="M291.52,125.58s-11.43-7.84-31.73-9.69a88.49,88.49,0,0,0-10.12-.37h-.13a.45.45,0,0,0,.18,0h0l.05,0a2.37,2.37,0,0,0,.34-.19l.16-.1.39-.26.06,0,1.45-.82,1.68-1c1.66-1,3.31-2,4.94-3.09l-.23.17-.23.15a.1.1,0,0,1,0,0l-.33.22-.85.55-.87.54c-.67.42-1.36.82-2.05,1.24h.15c3.16.09,6.07.31,8.77.61l-.05,0,0,0h.07l1.75.21c.2,0,.39,0,.59.08.93.13,1.83.27,2.71.42s1.47.26,2.17.4,1.09.22,1.61.34c.35.07.69.16,1,.24l.51.12.5.13.46.12a3.92,3.92,0,0,1,.49.13l.36.1c.67.18,1.34.37,2,.59l.81.26c.43.14.86.28,1.28.44l1.18.44.94.37.07,0c.34.13.67.27,1,.42l.63.28.54.25.26.12.52.26c.24.11.48.23.71.36s.47.25.7.38l.66.37c.41.23.78.46,1.13.68l.06,0c.7.44,1.28.86,1.75,1.22.12.08.23.17.34.26l.29.24a.1.1,0,0,1,.05,0l.2.17a1.54,1.54,0,0,1,.19.17,3.28,3.28,0,0,1,.34.31l.06.06.05.05,0,0s0,0,0,0,0,0,0,0l0,0h0a5.62,5.62,0,0,0,.09-.57c0-.12,0-.25,0-.37a8.47,8.47,0,0,0,.07-1.13c0-.12,0-.23,0-.35A10.64,10.64,0,0,1,291.52,125.58Z"/></g><path id="mouth" class="cls-1" d="M236.83,216.39s-1,.79-2.73,1.84a1.06,1.06,0,0,1-.2.12c-6.17,3.81-20.64,10.75-29.3-1,0,0-8.9-13.83,13.42-21.75l0,.1h0a.5.5,0,0,1,0,.13C218.77,197.93,224.18,213.58,236.83,216.39Z"/><g id="nose"><path id="nostril" class="cls-7" d="M237.23,197.51s-.86-3.82,5.73-1.15Z"/><path id="nose-2" data-name="nose" class="cls-7" d="M234.37,189.92s8.55-7.64,15.56-1.62c0,0,5.58,5.34-.23,12.54,0,0,10-8.61.78-15.87C250.48,185,243.14,179.69,234.37,189.92Z"/></g><g id="glasses"><g id="lenses"><path class="cls-1" d="M233.35,150.28c0,13.44-11.51,24.38-25.66,24.38S182,163.72,182,150.28a24.39,24.39,0,0,1,15.39-22.35c.34-.14.68-.28,1-.4a24,24,0,0,1,3.6-1l.31-.06h0c.74-.16,1.46-.27,2.15-.36l.19,0h.09l.17,0,1,.14c.26,0,.53.07.79.09l1.47.16,1.42.09q.38,0,.75,0l1.11,0c.59,0,1.17-.08,1.75-.13l.17,0c.83.18,1.62.39,2.4.62h0a25.44,25.44,0,0,1,7,3.45l.9.67a24.08,24.08,0,0,1,9.18,14.57c.1.5.18,1,.25,1.54v.07A24.16,24.16,0,0,1,233.35,150.28Z"/><path class="cls-1" d="M302.82,150.3a24.06,24.06,0,0,0-4.14-12c-.28-.4-.56-.81-.87-1.19a25.74,25.74,0,0,0-6.07-5.57l-.5-.32a25,25,0,0,0-12.31-3.8c-.47,0-.93,0-1.4,0-14,0-25.34,10.8-25.34,24.08a23.56,23.56,0,0,0,7.17,16.87,25.09,25.09,0,0,0,18.15,7.2,26.9,26.9,0,0,0,12.24-3.07l.05,0a23.54,23.54,0,0,0,8.8-7.59,23.06,23.06,0,0,0,4.12-10.06,22.72,22.72,0,0,0,.14-2.47C302.88,151.62,302.86,151,302.82,150.3ZM270.18,148a1,1,0,0,1,.38-1.35,25.86,25.86,0,0,1,21.06-.69,26.3,26.3,0,0,1,4.75,2.64,1,1,0,0,1-.57,1.82.92.92,0,0,1-.57-.18,25.12,25.12,0,0,0-3.86-2.21A22.58,22.58,0,0,0,281.28,146a5.67,5.67,0,0,1,.84.92,6,6,0,0,1-1,8.07,5.31,5.31,0,0,1-3.42,1.27,4.73,4.73,0,0,1-.65,0,5.64,5.64,0,0,1-4.71-6.41,6.11,6.11,0,0,1,.63-2.06c-.84.35-1.35.62-1.44.67A1,1,0,0,1,270.18,148Zm31.2,4.17a20.84,20.84,0,0,1-2.24,9.39l0,.08c-.3.6-.62,1.21-1,1.82-.15.26-.3.52-.47.78A22.65,22.65,0,0,1,287,172.09a24,24,0,0,1-15.77-.14s8.64,1.22,16.29-2.16a18.49,18.49,0,0,0,8.09-6.66s6.46-8.8,2.36-21.6a18.09,18.09,0,0,1,3.34,9.43c0,.37,0,.74.05,1.13Z"/></g><g id="eyes"><path class="cls-7" d="M225.4,151.84a1,1,0,0,1-.59.2,1,1,0,0,1-.81-.42c-3.3-4.55-8.63-6-13.81-6.18a6.31,6.31,0,1,1-8.86.82,46.79,46.79,0,0,0-6.09,1.63,1,1,0,1,1-.7-1.87,48.22,48.22,0,0,1,12-2.51c8.73-.65,15.33,1.75,19.11,6.94A1,1,0,0,1,225.4,151.84Z"/><path class="cls-7" d="M296.62,150a1,1,0,0,1-.82.42.92.92,0,0,1-.57-.18,25.12,25.12,0,0,0-3.86-2.21A22.58,22.58,0,0,0,281.28,146a5.67,5.67,0,0,1,.84.92,6,6,0,0,1-1,8.07,5.31,5.31,0,0,1-3.42,1.27,4.73,4.73,0,0,1-.65,0,5.64,5.64,0,0,1-4.71-6.41,6.11,6.11,0,0,1,.63-2.06c-.84.35-1.35.62-1.44.67a1,1,0,0,1-1-1.74,25.86,25.86,0,0,1,21.06-.69,26.3,26.3,0,0,1,4.75,2.64A1,1,0,0,1,296.62,150Z"/></g><g id="lens_highlights"><path class="cls-8" d="M228.27,163.43s-8.88,13.4-26.4,7.73c0,0,16.94,2.4,24.38-8.82,0,0,6.45-8.8,2.36-21.6C228.61,140.74,236.46,150.47,228.27,163.43Z"/><path class="cls-8" d="M301.38,152.09v.06a20.84,20.84,0,0,1-2.24,9.39l0,.08c-.3.6-.62,1.21-1,1.82-.15.26-.3.52-.47.78A22.65,22.65,0,0,1,287,172.09a24,24,0,0,1-15.77-.14s8.64,1.22,16.29-2.16a18.49,18.49,0,0,0,8.09-6.66s6.46-8.8,2.36-21.6a18.09,18.09,0,0,1,3.34,9.43C301.36,151.33,301.37,151.7,301.38,152.09Z"/></g><g id="glasses_frames"><path class="cls-7" d="M150.19,147.86H150l-1.37,0-3.48.07-2,0-1.71,0c-.05-.36-.08-.71-.1-1.05-.05-.67-.07-1.32-.07-1.92l1.84,0,2.36,0,1.8,0c.5.61,1,1.18,1.55,1.73a.34.34,0,0,1,.06.06h0s0,0,.05.05C149.36,147.19,149.77,147.53,150.19,147.86Z"/><path class="cls-7" d="M303.08,142.31v0a.47.47,0,0,0-.06-.15,26.31,26.31,0,0,0-10.54-12.6,27.91,27.91,0,0,0-15-4.25c-12.76,0-23.5,8.38-26.5,19.67a9.62,9.62,0,0,0-3-1.76,12.59,12.59,0,0,0-5-.75,16.69,16.69,0,0,0-4.79.94,16.48,16.48,0,0,0-3.47,1.65,26,26,0,0,0-9-14.73c-.26-.22-.52-.43-.79-.63a26.55,26.55,0,0,0-6.65-3.76l-.48.06-.48.06-1.22.16h0l-.35,0-.68.07c-.34,0-.69.08-1,.11l-.77.07c.88.19,1.72.41,2.54.65h0a25.44,25.44,0,0,1,7,3.45l.9.67a24.08,24.08,0,0,1,9.18,14.57c.1.5.18,1,.25,1.54v.07a24.16,24.16,0,0,1,.17,2.83c0,13.44-11.51,24.38-25.66,24.38S182,163.72,182,150.28a24.39,24.39,0,0,1,15.39-22.35c.34-.14.68-.28,1-.4a24,24,0,0,1,3.6-1l.31-.06h0c.81-.17,1.59-.29,2.34-.39-.42-.06-.84-.14-1.26-.21l-.52-.1-.74-.14-.32-.07h0l-1.11-.26-.66-.16-.32-.09h0a25.59,25.59,0,0,0-3.09,1.08l-.93.4a26.6,26.6,0,0,0-15.15,18.63c-3.38-.08-6.76-.1-10.13-.16l-10,0h-.9c-1.26,0-2.53,0-3.79,0a6.54,6.54,0,0,0,.3.59c.17.36.36.72.56,1.08s.42.75.64,1.11l2.33-.07,2.3-.07,8.62-.28c3.27-.14,6.53-.25,9.8-.43a24.15,24.15,0,0,0-.24,3.42c0,14.55,12.41,26.38,27.67,26.38s27.66-11.83,27.66-26.38a25.07,25.07,0,0,0-.18-3v0a28,28,0,0,1,3.87-1.18,21.58,21.58,0,0,1,4.1-.55,14.47,14.47,0,0,1,4,.48,15.28,15.28,0,0,1,3.42,1.37,24.2,24.2,0,0,0-.33,4,25.54,25.54,0,0,0,7.77,18.3,27.06,27.06,0,0,0,19.11,7.77h.48a30.09,30.09,0,0,0,8.48-1.37,28.73,28.73,0,0,0,9.8-5.36c.28-.24.56-.48.83-.73s.8-.76,1.18-1.15a24.43,24.43,0,0,0,7-17v-.45A25.8,25.8,0,0,0,303.08,142.31Zm-.3,9.5A22.69,22.69,0,0,1,300,162.5a24.89,24.89,0,0,1-10.92,10.18,26.91,26.91,0,0,1-22.54.51,24.65,24.65,0,0,1-14-17.5,23.24,23.24,0,0,1,.66-11.11,23.74,23.74,0,0,1,2.27-5.16,23.24,23.24,0,0,1,1.58-2.33,18.1,18.1,0,0,1,1.63-2,28.15,28.15,0,0,1,9.61-6,26.48,26.48,0,0,1,12.74-1.53,25.94,25.94,0,0,1,11.32,4.4,24.56,24.56,0,0,1,7.13,7.61A23.83,23.83,0,0,1,302.78,151.81Z"/></g></g><g id="hair"><path class="cls-9" d="M163.51,155h0l-.06,0c-.23-.06-.75-.22-1.5-.49l-.32-.12-.34-.13-.37-.14a43.94,43.94,0,0,1-9.65-5.41c-.3-.22-.61-.45-.91-.69l-.11-.09h0c-.42-.33-.83-.67-1.25-1l-.05-.05h0a.34.34,0,0,0-.06-.06c-.53-.55-1-1.12-1.55-1.73s-1-1.19-1.41-1.83c0,0-.06.21-.15.6a39.66,39.66,0,0,1-3.77-4.58s-.05.17-.12.5l-.06.27c-.06.3-.13.68-.2,1.13,0,.1,0,.21-.05.32s-.06.45-.08.71-.07.68-.1,1.06c0,.57-.06,1.2-.06,1.88s0,1.25.07,1.92c0,.34,0,.69.1,1.05s.05.48.08.73.06.43.1.65.09.61.16.92.14.73.23,1.1a27.93,27.93,0,0,0,1,3.45s-.56-.56-1.52-1.37a36.33,36.33,0,0,0-3.77-2.79l0,0-.36-.26-.05,0-.6-.41a17.81,17.81,0,0,0-6.55-3.05h0v0l-.65-.13-.22,0-.3,0H129a8.93,8.93,0,0,0-3.23.11,4.84,4.84,0,0,0-1,.31l-.32.14-.42.21c-.24-.69-.85-2.48-1.59-5.15a.89.89,0,0,1,.08-.17q.65-1.26,1.32-2.46,1.27-2.28,2.65-4.38l.08-.11h0c.34-.52.69-1,1-1.54s.75-1.08,1.14-1.61.63-.88.95-1.3a79.38,79.38,0,0,1,6.2-7.24c.29,1,.61,2,.95,2.91q.26.72.54,1.41c.16.41.32.8.49,1.18.4.94.83,1.83,1.27,2.67.16.33.34.66.51,1l.25.44c.37.65.75,1.28,1.14,1.87.2.32.4.63.62.93a33,33,0,0,0,3.15,3.93l.49.51c.55.56,1.08,1.07,1.6,1.53.2.18.41.36.61.52s.3.26.45.37c.44.35.85.66,1.24.94l.49.34.36.24c.36.24.69.44,1,.61a13.76,13.76,0,0,0,1.73.86l-1.05-.87,0,0c-.27-.23-.54-.46-.79-.7s-.54-.48-.8-.73-.52-.49-.76-.74a37.41,37.41,0,0,1-3.27-3.7c-.19-.25-.38-.49-.56-.74q-.55-.75-1-1.47-.21-.3-.39-.6c-.19-.29-.36-.57-.52-.85l-.31-.53-.25-.44-.39-.73c-.38-.73-.72-1.44-1-2.14-.1-.23-.2-.46-.29-.69-.19-.46-.36-.9-.51-1.34-.08-.22-.16-.44-.23-.65-.31-.93-.56-1.81-.75-2.63-.06-.23-.11-.45-.16-.66s0-.14,0-.21,0-.22-.07-.32-.05-.27-.07-.4-.09-.51-.13-.75a19.15,19.15,0,0,1-.28-3.37l-.92.82.64-.6c.49-.45,1-.9,1.46-1.33l.24-.21,1.16-1,1.1-.92,1.1-.88,1.23-1c.34-.26.68-.52,1-.76l.23-.17.82-.59.81-.57.64-.44c.85-.58,1.69-1.13,2.51-1.64-.06,1-.12,1.94-.16,2.93-.07,1.53-.1,3.08-.1,4.65,0,1.12,0,2.24.06,3.37,0,.16,0,.32,0,.47,0,.54,0,1.08.08,1.62s.06,1.08.11,1.61l.06.73c.05.63.11,1.26.19,1.89.05.47.11.95.18,1.42s.12.92.2,1.38c0,.21.06.42.1.63s.11.7.18,1,.07.44.12.65c.1.55.22,1.1.34,1.65s.24,1.05.38,1.57.3,1.14.47,1.71c.1.34.2.68.32,1a1.43,1.43,0,0,0,.09.27c.1.34.21.67.34,1a.16.16,0,0,0,0,.09,3.43,3.43,0,0,0,.16.45c.23.64.48,1.26.75,1.88a3.29,3.29,0,0,0,.17.39c.17.41.36.82.56,1.22a6.54,6.54,0,0,0,.3.59c.17.36.36.72.56,1.08s.42.75.64,1.11.42.69.64,1,.33.48.5.71.39.56.6.83c.45.61.94,1.19,1.45,1.76.14.16.28.31.43.46.46.5,1,1,1.47,1.44l.28.25Q163,154.64,163.51,155Z"/><path class="cls-9" d="M285,107.78l-.17-.17c.12.13.25.26.37.4A1.43,1.43,0,0,0,285,107.78Zm2.23,3.11c-.08-.16-.17-.31-.25-.46A12.59,12.59,0,0,0,286,109l-.33-.41c-.11-.14-.23-.28-.35-.41a1.29,1.29,0,0,0-.16-.17c.17.2.35.4.51.6a14.09,14.09,0,0,1,1.83,3C287.45,111.33,287.34,111.11,287.23,110.89Zm.54,1.2c-.07-.18-.14-.35-.23-.53l.27.65A.56.56,0,0,0,287.77,112.09Zm.37,1.1a.13.13,0,0,1,0,.06.49.49,0,0,1,0,.11S288.16,113.25,288.14,113.19Zm.47,2.31v0c0,.2,0,.4,0,.61h0v0h0a0,0,0,0,1,0,0v0C288.65,115.9,288.63,115.7,288.61,115.5Zm1.56,1.06a0,0,0,0,1,0,0h0s0,.08.05.13A.19.19,0,0,0,290.17,116.56Zm19.43,5a36.27,36.27,0,0,1-.07,4.29h0a.28.28,0,0,1,0,.06A35.38,35.38,0,0,0,309.6,121.61Zm-.74-29.25,0,0h0l.05,0ZM316,85.27v0c-1.71.24-3.52.52-5.45.84l-2.75.48-2.92.5-.15,0c-2,.35-4.09.71-6.1,1.19l-.14,0-.91.23h-.09l-.15,0-.16,0h-.05l-1.44.41-.74.26h0c-.1,0-.19.06-.29.09l-.17.06-.58.21,0,0-.29.11-.14,0-.18.07L293,90l-.19.07,0,0-.31.12-.16.07a.52.52,0,0,0-.16.06l-.26.1-.11,0-.26.1-.16.07-.06,0-.32.13-.59.24-.1,0-.47.19-.23.1-.06,0-.07,0-.23.1-.65.28-.6.27-.08,0-.07,0-.67.3-.77.35-.23.11-1.05.51-.33.16-.76.36-.61.3-.18.09-.07,0-.25.12q-.39.18-.78.39l-.38.19-.46.23-1.46.77-1.09.61c-1.06.62-2.1,1.26-3.14,1.92l-.13.08-.41.26,0,0-.2.13-.15.1-.07,0-.1.06,0,0s0,0,0,0l-.27.17-.12.08-1.12.76c-.51.35-1,.7-1.55,1.07s-.95.65-1.42,1c-.31.2-.61.42-.92.63l-.06.06a.05.05,0,0,0,0,0l-.11.1-.27.19-.39.27-.07,0-.08,0-.11.06-.2.14-.19.12-.54.37-.42.29q-.31.24-.63.45l-.57.41-.1.07,0,0a2.73,2.73,0,0,0-.3.21l-.22.15-.19.13,0,0-.28.2-.46.31-.47.33-.33.22-.08.05-.11.07-.07,0-.05,0-.14.09-.06,0,0,0-.24.16-.13.09,0,0-.51.35-.14.09-.66.43-.92.6c-.6.39-1.19.77-1.78,1.13l-.85.55-.55.35q-.75.48-1.5.93l-.2.12c-.2.13-.4.26-.61.38h0l-.06,0h.15c3.14.09,6,.31,8.73.6l.05,0h0l.23-.17a1.81,1.81,0,0,1,.23-.18h0l.77-.57,2.46-1.81c1.25-.93,2.46-1.82,3.65-2.68l2.16-1.54c.61-.43,1.21-.84,1.81-1.24.85-.57,1.73-1.12,2.6-1.64l.05,0,.8.43c-.27-.16-.53-.3-.81-.45l0,0-.32-.17h0a40.55,40.55,0,0,0-4.25-1.89h0a14.55,14.55,0,0,0,2,.44h.07l.31.07.19,0,.16,0c.4.11.81.24,1.21.39l.5.17a9.48,9.48,0,0,1,1,.38l0,0h0c.14-.08.25-.16.39-.23a0,0,0,0,1,0,0c2.83-1.63,5.65-3,8.2-4.2l1.27-.57c.81-.36,1.59-.69,2.31-1,1.07-.44,2-.83,2.88-1.14,1.19-.46,2.13-.8,2.72-1l.3-.1.41-.14q2.73-.57,5.25-1.07l1-.2.77-.15c1.87-.36,3.65-.68,5.34-1l-.12-.11v0l-.87-.81s0,0,0,0c-.6-.55-1.23-1.09-1.89-1.63l-1-.81h0l-.85-.64-.28-.21-.28-.21,0,0a21.87,21.87,0,0,1,7.7,4.07h0q4.68-.78,8.52-1.26C318.57,88.8,317.3,87,316,85.27Zm-37.13,19.4-.18-.1.72.44Zm-.78-.46-.16-.08.46.26Zm41.68-13.55h0l0,0A.08.08,0,0,1,319.74,90.66Zm.33,19.49a0,0,0,0,1,0,0c.17.12.34.24.5.37A6.26,6.26,0,0,0,320.07,110.15Zm4.15,3.94c.07.33.14.66.2,1v0C324.37,114.77,324.29,114.43,324.22,114.09Z"/><path class="cls-9" d="M322.22,94.92s0,0,0,0q-1.14-2.15-2.45-4.2l0,0q-3.84.48-8.52,1.26h0l0,0c.45.35.92.73,1.39,1.14l.64.58.65.62,0,0c.14.14.29.28.43.43a35.86,35.86,0,0,1,7.7,12.1c.16.42.32.84.48,1.28l.18.52.21.62a48.63,48.63,0,0,1,1.32,4.82c.07.34.15.68.21,1v0a22.48,22.48,0,0,0-2.63-3.42c-.13-.14-.27-.27-.4-.4l-.32-.3-.49-.43c-.16-.13-.33-.25-.5-.37a0,0,0,0,0,0,0c-.11-.48-2.23-8.71-10.37-17l-.83-.82-.05,0c-1.69.31-3.47.63-5.34,1l-.77.15-1,.2q-2.52.49-5.25,1.07l-.41.14-.3.1c-.59.2-1.53.54-2.72,1-.84.31-1.81.7-2.88,1.14-.72.3-1.5.63-2.31,1l-1.27.57c-2.55,1.16-5.37,2.57-8.2,4.2a0,0,0,0,0,0,0c-.14.07-.25.15-.39.23h0l0,0h0a3.79,3.79,0,0,1,.42.18q.56.22,1.11.51a7.18,7.18,0,0,1,.68.34c.17.08.34.18.51.28l.51.29c.17.1.34.2.51.32l.5.33c.28.19.56.39.83.6l.32.26.16.13.13.11.28.24.3.28a5.77,5.77,0,0,1,.44.42,1.21,1.21,0,0,1,.16.16l.17.17a1.43,1.43,0,0,1,.2.23,1.29,1.29,0,0,1,.16.17c.12.13.24.27.35.41l.33.41a12.59,12.59,0,0,1,.94,1.43c.08.15.17.3.25.46s.22.44.31.67.16.35.23.53a.56.56,0,0,1,0,.12,2,2,0,0,1,.1.26c.07.18.13.37.19.56l0,.11s0,0,0,0,0,.12.05.17a2,2,0,0,1,.07.26c.06.24.12.48.16.73a.41.41,0,0,1,0,.16,5,5,0,0,1,.12.79,1.13,1.13,0,0,1,0,.18v0c0,.2,0,.4.05.61v0a0,0,0,0,0,0,0h0v0h0a.18.18,0,0,0,0-.06v0c-.07-.28-.16-.57-.24-.84a13.86,13.86,0,0,0-1.07-2.28c-.07-.14-.16-.27-.24-.41a4.94,4.94,0,0,0-.27-.42c-.09-.15-.19-.29-.29-.44s0,0,0,0l-.61-.84c-.45-.56-1-1.15-1.54-1.76l-.5-.5-.82-.76-.58-.5c-.42-.34-.86-.68-1.32-1l-.72-.51-.34-.23-.69-.45-.72-.44-.3-.18-.46-.26-.8-.43-.05,0c-.87.52-1.75,1.07-2.6,1.64-.6.4-1.2.81-1.81,1.24l-2.16,1.54c-1.19.86-2.4,1.75-3.65,2.68l-2.46,1.81-.77.57h0a1.81,1.81,0,0,0-.23.18l-.23.17h0l-.05,0,0,0h.07l1.75.21c.2,0,.39,0,.59.08.93.13,1.83.27,2.71.42s1.47.26,2.17.4,1.09.22,1.61.34c.35.07.69.16,1,.24l.51.12.5.13.46.12a3.92,3.92,0,0,1,.49.13l.36.1c.67.18,1.34.37,2,.59l.81.26c.43.14.86.28,1.28.44l1.18.44.94.37.07,0c.34.13.67.27,1,.42l.63.28.54.25.26.12.52.26c.24.11.48.23.71.36s.47.25.7.38l.66.37c.41.23.78.46,1.13.68l.06,0c.7.44,1.28.86,1.75,1.22.12.08.23.17.34.26l.29.24a.1.1,0,0,1,.05,0l.2.17a1.54,1.54,0,0,1,.19.17,3.28,3.28,0,0,1,.34.31l.06.06.05.05,0,0s0,0,0,0,0,0,0,0l0,0h0a5.62,5.62,0,0,0,.09-.57c0-.12,0-.25,0-.37a8.47,8.47,0,0,0,.07-1.13c0-.12,0-.23,0-.35h0a2.26,2.26,0,0,0,0-.26.45.45,0,0,0,0-.08s0,0,0,0a1.15,1.15,0,0,0,0-.19c0-.14,0-.28,0-.42a1.94,1.94,0,0,0,0-.24c0-.16-.05-.32-.08-.49s-.09-.5-.14-.75a8.8,8.8,0,0,0-.82-2.32h0a0,0,0,0,0,0,0,.19.19,0,0,1,0,.1s0-.09-.05-.13h0s0,0,0,0h0s0,0,0,0l.22.09a1.13,1.13,0,0,1,.22.11,5.11,5.11,0,0,1,.48.22l.64.33.09,0,.71.41.54.33c.2.13.4.25.59.39l.35.23.1.08.57.41c.13.09.25.18.38.29l.18.15c.56.45,1.11.92,1.66,1.42h0l1.08,1q.27.26.54.54c.32.32.63.65.94,1a.68.68,0,0,1,.12.12,5.56,5.56,0,0,1,.47.51l.26.3a.75.75,0,0,1,.12.14c.19.21.38.43.56.65s.59.71.88,1.08.45.56.65.84.22.28.31.41l.53.72c.09.12.17.23.24.34.26.35.5.7.73,1,.07.1.14.19.2.29s0,0,0,0a45.41,45.41,0,0,1,5.36,10.54c.76-3,.61-8.82-.24-11l4.23,2.68c2-5.64-.14-14.59-1-16.34l6.21,4.06c.77-2.42-.07-5.65-.5-6.83,4.27,2.29,8.81,11.84,9.8,14A53.09,53.09,0,0,0,322.22,94.92ZM309.54,126a.28.28,0,0,0,0-.06v0a.42.42,0,0,0,0-.07.13.13,0,0,0,0-.06.39.39,0,0,0,0-.14l0-.19c0-.14-.06-.32-.1-.52s0-.21-.06-.33a2.56,2.56,0,0,0-.05-.27c0-.11,0-.22-.07-.34l-.06-.32c0-.13-.05-.25-.08-.39-.07-.37-.16-.78-.26-1.23,0-.29-.12-.59-.19-.9v0c0-.17-.07-.33-.1-.5-.07-.32-.14-.66-.22-1v0c-.07-.35-.16-.71-.24-1.07,0,0,0,0,0,0-.08-.37-.17-.75-.26-1.14-.33-1.37-.7-2.84-1.11-4.36-.59-2.2-1.27-4.51-2-6.75h0c-.37-1.12-.77-2.23-1.19-3.3,0,0,0,0,0,0A38.92,38.92,0,0,0,300,96l-.46-.68c.05.06.12.14.19.24a48.2,48.2,0,0,1,3.35,5.09c.39.67.78,1.39,1.18,2.16h0c.54,1,1.09,2.17,1.61,3.38.29.64.56,1.3.82,2a42.85,42.85,0,0,1,1.41,4.19c.35,1.25.67,2.55.91,3.88.12.64.23,1.28.31,1.93q.09.63.15,1.26a4.23,4.23,0,0,1,.05.5c0,.42.07.84.09,1.27a3.11,3.11,0,0,1,0,.43A35.38,35.38,0,0,1,309.54,126Z"/></g><g id="hair_shadows"><path class="cls-10" d="M324.43,115.11v0a22.48,22.48,0,0,0-2.63-3.42c-.13-.14-.27-.27-.4-.4l-.32-.3-.49-.43c-.16-.13-.33-.25-.5-.37a0,0,0,0,0,0,0c-.11-.48-2.23-8.71-10.37-17l-.83-.82-.05,0-.12-.11-.88-.83s0,0,0,0c-.6-.55-1.23-1.09-1.89-1.63l-1-.81h0l-.85-.64-.28-.21-.3-.21h0a22.36,22.36,0,0,1,7.65,4.05l.07,0c.45.35.92.73,1.39,1.14l.63.56.65.62,0,0c.14.14.29.28.43.43a35.86,35.86,0,0,1,7.7,12.1c.16.42.32.84.48,1.28l.18.52.21.62a48.63,48.63,0,0,1,1.32,4.82C324.29,114.43,324.37,114.77,324.43,115.11Z"/><path class="cls-10" d="M152.72,145.89A13.76,13.76,0,0,1,151,145l-1-.61-.36-.24-.49-.34c-.39-.28-.8-.59-1.24-.94-.15-.11-.3-.24-.45-.37s-.41-.34-.61-.52c-.52-.46-1-1-1.6-1.53l-.49-.51a33,33,0,0,1-3.15-3.93c-.21-.3-.42-.61-.62-.93-.39-.59-.77-1.22-1.14-1.87l-.25-.44c-.17-.31-.34-.64-.51-1-.44-.84-.87-1.73-1.27-2.67-.17-.39-.33-.78-.49-1.18s-.37-.93-.54-1.41c-.34-.92-.66-1.89-.95-2.91.33-.33.65-.67,1-1l.85-.85.13-.11.09-.09.17-.16s0,0,0,0l0,0,.92-.82a19.15,19.15,0,0,0,.28,3.37c0,.24.08.49.13.75s0,.26.07.4,0,.21.07.32,0,.14,0,.21.1.43.16.66c.19.82.44,1.7.75,2.63.07.21.15.43.23.65.15.44.32.88.51,1.34.09.23.19.46.29.69.3.7.64,1.41,1,2.14l.39.73.25.44.31.53c.16.28.33.56.52.85s.25.4.39.6q.47.72,1,1.47c.18.25.36.49.56.74a37.41,37.41,0,0,0,3.27,3.7c.24.25.5.49.76.74s.53.49.8.73.52.47.79.7l0,0Z"/><path class="cls-10" d="M288.65,116.1h0a.18.18,0,0,0,0-.06v0c0-.15-.11-.44-.24-.84a13.86,13.86,0,0,0-1.07-2.28c-.07-.14-.16-.27-.24-.41a4.94,4.94,0,0,0-.27-.42c-.09-.15-.19-.29-.29-.44s0,0,0,0c-.19-.28-.39-.56-.61-.84-.45-.56-1-1.15-1.54-1.76l-.5-.5-.82-.76-.58-.5c-.42-.34-.86-.68-1.32-1l-.72-.51-.34-.23-.69-.45-.72-.44-.3-.18-.46-.26-.8-.43-.05,0-.3-.16h0a41.17,41.17,0,0,0-4.33-1.92h.09c.28.05,1,.18,2,.44h.07a28.94,28.94,0,0,1,3.36,1.11l.06,0h0c.28.11.56.24.85.37.45.2.9.42,1.36.66a20.59,20.59,0,0,1,2,1.22c.28.19.56.39.83.6l.31.24.16.13.14.13.27.22.3.28a5.77,5.77,0,0,1,.44.42,1.21,1.21,0,0,1,.16.16l.17.17a1.43,1.43,0,0,1,.2.23,1.29,1.29,0,0,1,.16.17c.12.13.24.27.35.41l.33.41a12.59,12.59,0,0,1,.94,1.43c.08.15.17.3.25.46s.22.44.31.67.16.35.23.53a.56.56,0,0,1,0,.12,2,2,0,0,1,.1.26c.07.18.13.37.19.56l0,.11s0,0,0,0,0,.12.05.17a2,2,0,0,1,.07.26c.06.24.12.48.16.73a.41.41,0,0,1,0,.16c.05.26.09.53.12.79a1.13,1.13,0,0,1,0,.18v0c0,.2,0,.4.05.61Z"/><path class="cls-10" d="M309.54,126a.28.28,0,0,0,0-.06h0a0,0,0,0,0,0,0,.13.13,0,0,0,0-.06.39.39,0,0,0,0-.14l0-.19c0-.15-.06-.32-.1-.52s0-.21-.06-.33a2.56,2.56,0,0,0-.05-.27c0-.11,0-.22-.07-.34l-.06-.32c0-.13-.05-.25-.08-.39-.07-.37-.16-.78-.26-1.23,0-.29-.12-.59-.19-.9v0a4.91,4.91,0,0,0-.1-.5c-.07-.32-.14-.66-.22-1v0c-.07-.35-.16-.71-.24-1.07,0,0,0,0,0,0-.08-.37-.17-.75-.26-1.14-.33-1.37-.7-2.84-1.11-4.36-.59-2.2-1.27-4.51-2-6.75h0c-.37-1.12-.77-2.23-1.19-3.3,0,0,0,0,0,0A38.92,38.92,0,0,0,300,96l-.46-.68a2.12,2.12,0,0,0,.19.24,48.2,48.2,0,0,1,3.35,5.09c.39.67.78,1.39,1.18,2.16h0c.54,1,1.09,2.17,1.61,3.38.29.64.56,1.3.82,2a42.85,42.85,0,0,1,1.41,4.19c.35,1.25.67,2.55.91,3.88.12.64.23,1.28.31,1.93q.09.63.15,1.26a4.23,4.23,0,0,1,.05.5c0,.42.07.84.09,1.27a3.11,3.11,0,0,1,0,.43A35.38,35.38,0,0,1,309.54,126Z"/></g><g id="hat"><path id="hat-2" data-name="hat" class="cls-11" d="M343,85.39h0c-10.68-9.89-60.79-30.62-63.57-31.76.06.07,0,0-.17-.07-26.65-6.5-52.16,3.12-72.17,15.7A185.09,185.09,0,0,0,178.12,92l-1.78,1.73c-5.17,5.07-8.53,8.93-9.64,10.23-.19.23-.31.38-.37.44l.35-.46A145.18,145.18,0,0,1,176,92.66l1.12-1.22a142.74,142.74,0,0,1,22-19.27c25.22-17.9,47.77-21.53,47.77-21.53,20.69-4.55,30.9,2,32.4,2.91h.05C251.1-14.25,189,1.61,189,1.61a110,110,0,0,0-45.47,15.15,29.17,29.17,0,0,0-2.29,7.42,47.61,47.61,0,0,0-.47,11.49,81.58,81.58,0,0,0,1.33,9.86,132.12,132.12,0,0,0,4.58,16.82,227.29,227.29,0,0,0,11,26.33c1.06,2.19,2.08,4.21,3,6,.8,1.55,1.54,2.94,2.2,4.15.91,1.68,1.65,3,2.16,3.9.29.51.51.87.63,1.09-.25-.39-.49-.78-.73-1.17-.77-1.22-1.51-2.43-2.23-3.62Q161,96.1,159.4,93.29c-.84-1.48-1.66-2.93-2.44-4.35a187.53,187.53,0,0,1-11.71-25.4,113.64,113.64,0,0,1-4.2-14,76.35,76.35,0,0,1-1.7-11,46.15,46.15,0,0,1,.75-13.62,21.65,21.65,0,0,1,3.29-8.08c-12.29,7.45-18.67,14.7-18.67,14.7-44,33.47-2.93,112.1-2.93,112.1q.28-.59.6-1.17a.89.89,0,0,1,.08-.17q.65-1.26,1.32-2.46,1.27-2.28,2.65-4.38l.08-.11h0c.34-.52.69-1,1-1.54s.75-1.08,1.14-1.61.63-.88.95-1.3a79.38,79.38,0,0,1,6.2-7.24.78.78,0,0,1-.05-.14h0l1.88-1.69.13-.12.09-.08h0a1.14,1.14,0,0,1,.17-.15s0,0,0,0l0,0,.64-.61c.49-.45,1-.9,1.46-1.33l.24-.21,1.16-1,1.1-.91,1.1-.89,1.23-.95c.34-.26.68-.52,1-.76l.23-.17.82-.59.81-.57.64-.44c.85-.58,1.69-1.13,2.51-1.64l1.67-1,.55-.32.26-.14h0c.53-.31,1-.61,1.56-.89q1.15-.63,2.22-1.17h0a56.42,56.42,0,0,1,8.34-3.56h0c.41.47.81.92,1.22,1.37s.93,1,1.4,1.49c.29.3.59.59.89.88.81.81,1.65,1.58,2.5,2.33.32.28.64.56,1,.82s.58.5.87.73l1,.81.74.56c.84.64,1.69,1.26,2.55,1.85.49.34,1,.67,1.48,1s1,.64,1.49.94c1,.59,1.91,1.15,2.87,1.67,1.13.63,2.27,1.22,3.41,1.76.45.22.89.43,1.34.63.18.09.35.17.53.24.8.36,1.6.7,2.39,1l.3.12L193,123c1.42.53,2.84,1,4.24,1.42.27.09.55.17.82.24l1,.27.67.18h0l.32.08.66.16,1.13.26.32.07,1.26.24,1.07.19.19,0h.09l.17,0,1,.14c.26,0,.53.07.79.09l1.47.16,1.42.09q.38,0,.75,0l1.11,0c.59,0,1.17-.08,1.75-.13l.17,0,.63,0c.58,0,1.15-.11,1.72-.18l.35,0h0l1.24-.15.48-.06.47-.07.27,0c.73-.1,1.44-.21,2.15-.34l1.33-.22,1.3-.26c.59-.11,1.18-.24,1.76-.37l.62-.14c.64-.14,1.27-.29,1.9-.45,1.29-.32,2.55-.66,3.78-1l1.07-.33,2.19-.71.67-.23,1.54-.56c.2-.06.4-.14.6-.22.51-.19,1-.38,1.52-.59a6.44,6.44,0,0,0,.61-.24l1.79-.74.12-.06c.58-.24,1.16-.5,1.73-.76,2.18-1,4.28-2,6.29-3.1l1.19-.65,2.32-1.31,1.12-.67.7-.42.2-.12q.75-.45,1.5-.93c1.06-.67,2.12-1.34,3.18-2l.66-.43.26-.17.66-.43.14-.09.26-.18L262,108l0,0,.13-.09.24-.16,0,0s0,0,0,0l0,0a0,0,0,0,1,0,0l.13-.08.05,0,0,0,.05,0h0l.1-.07.08,0,.33-.23.47-.32.74-.51,0,0h0l.18-.12.22-.15a2.73,2.73,0,0,1,.3-.21l0,0,.1-.07.57-.41,1.59-1.11.19-.12.2-.14.25-.17.39-.27.27-.19.12-.08a.05.05,0,0,1,0,0l.06-.06c.31-.21.61-.43.92-.63.47-.34.95-.67,1.42-1s1-.72,1.55-1.07l1-.69.1-.07.12-.08.27-.18,0,0,0,0h0l.08,0,.07-.05.15-.1h0a0,0,0,0,1,0,0l.14-.09,0,0,.41-.26.13-.08.62-.39a3.24,3.24,0,0,1,.35-.21l.19-.12q.29-.19.57-.36l.21-.13.18-.1.85-.5c.4-.23.79-.46,1.2-.68l1.21-.64.31-.17.46-.23.38-.2,1.09-.55.18-.09.61-.3c.37-.18.73-.36,1.09-.52l.74-.35.32-.14.23-.11h0l.33-.15.86-.39.23-.1h0l.07,0h0l.68-.29.65-.28h0l.08,0h.12l.07,0,.06,0,.23-.1.47-.19.1,0c.3-.13.6-.26.91-.37a.85.85,0,0,1,.22-.09l.1,0,.16-.06h0l.1,0,.26-.1a.52.52,0,0,1,.16-.06l.16-.07.31-.12,0,0L293,90l.18-.06.18-.07.05,0,.09,0h0l.29-.1,0,0,.58-.21.17-.06.16-.06.12,0h0l.74-.26.19-.07.1,0,.23-.08.07,0,.1,0,.13,0h0l.5-.11.17,0,.09,0h.08l.08,0,.07,0s0,0,0,0h.07c3.35-.88,6.84-1.37,10.22-2l2.75-.48c1.93-.32,3.74-.6,5.45-.84,14.77-2.12,21.89-1.5,25.32-.44,2.46,2.19,3.83,4.35,3.62,6.41A6.42,6.42,0,0,0,343,85.39ZM209.43,26.23a16,16,0,0,1,7.74-9.39l-.68-4.46,3.09,3.46a14.08,14.08,0,0,1,8.57-.05,14.23,14.23,0,0,1,7.56,5.68l.79-.23-.36.92A16.11,16.11,0,0,1,237,36.63l1.5,2.2-2.57-.15a15.16,15.16,0,0,1-13.24,7.43L219.81,50V45.75q-.48-.12-1-.27C211.08,43,206.86,34.43,209.43,26.23Z"/><g id="hat_lines"><path class="cls-12" d="M279.24,53.55c-26.65-6.5-52.16,3.12-72.17,15.7A185.09,185.09,0,0,0,178.12,92l-1.78,1.73c-5.17,5.07-8.53,8.93-9.64,10.23-.19.23-.31.38-.37.44l.35-.46A145.18,145.18,0,0,1,176,92.66l1.12-1.22a142.74,142.74,0,0,1,22-19.27c25.22-17.9,47.77-21.53,47.77-21.53C267.53,46.09,277.74,52.59,279.24,53.55Z"/><path class="cls-12" d="M165.72,103.83c-.25-.39-.49-.78-.73-1.17-.77-1.22-1.51-2.43-2.23-3.62Q161,96.1,159.4,93.29c-.84-1.48-1.66-2.93-2.44-4.35a187.53,187.53,0,0,1-11.71-25.4,113.64,113.64,0,0,1-4.2-14,76.35,76.35,0,0,1-1.7-11,46.15,46.15,0,0,1,.75-13.62,21.65,21.65,0,0,1,3.29-8.08,3.8,3.8,0,0,1,.27-.34,2.72,2.72,0,0,1-.11.25,29.17,29.17,0,0,0-2.29,7.42,47.61,47.61,0,0,0-.47,11.49,81.58,81.58,0,0,0,1.33,9.86,132.12,132.12,0,0,0,4.58,16.82,227.29,227.29,0,0,0,11,26.33c1.06,2.19,2.08,4.21,3,6,.8,1.55,1.54,2.94,2.2,4.15.91,1.68,1.65,3,2.16,3.9C165.38,103.25,165.6,103.61,165.72,103.83Z"/></g><g id="hat_star"><g id="dark_circle"><path class="cls-13" d="M235.71,21.47l-3.9,1.13L226.9,24l-4.07-4.56-3.25-3.63a14.08,14.08,0,0,1,8.57-.05A14.23,14.23,0,0,1,235.71,21.47Z"/><path class="cls-13" d="M219.84,36.49v9.26q-.48-.12-1-.27c-7.78-2.44-12-11-9.43-19.25a16,16,0,0,1,7.74-9.39l.71,4.61,1,6.24-6,3.83-2.44,1.57,2.77,1Z"/><path class="cls-13" d="M235.92,38.68a15.16,15.16,0,0,1-13.24,7.43l2.85-3.84,3-4,3.52.2Z"/><path class="cls-13" d="M237.58,35a15.78,15.78,0,0,1-.59,1.59l-2.33-3.42h0l-1.79-2.64,1.47-3.76h0l1.8-4.63A15.84,15.84,0,0,1,237.58,35Z"/></g><g id="light_circle"><path class="cls-14" d="M218.84,27.69l-6,3.83a12.07,12.07,0,0,1,5-10.07Z"/><path class="cls-14" d="M219.84,36.49v5.27a10.88,10.88,0,0,1-6.63-7.67Z"/><path class="cls-14" d="M231.81,22.6,226.9,24l-4.07-4.56a10.36,10.36,0,0,1,4.54.38A10.5,10.5,0,0,1,231.81,22.6Z"/><path class="cls-14" d="M232,38.46a11.27,11.27,0,0,1-6.5,3.81l3-4Z"/><path class="cls-14" d="M234.66,33.2l-1.79-2.64,1.47-3.76A11.82,11.82,0,0,1,234.66,33.2Z"/></g><polygon id="star" class="cls-15" points="238.49 38.83 235.92 38.68 232.03 38.46 228.51 38.26 225.53 42.27 222.68 46.11 219.81 49.98 219.82 45.75 219.83 41.76 219.84 36.49 213.2 34.09 210.43 33.09 212.87 31.52 218.84 27.69 217.88 21.45 217.17 16.84 216.49 12.38 219.58 15.84 222.83 19.47 226.9 24.03 231.81 22.6 235.71 21.47 236.5 21.24 236.14 22.16 234.34 26.79 234.34 26.8 232.87 30.56 234.66 33.2 234.66 33.21 236.99 36.63 238.49 38.83"/></g><path id="underneath_cap" class="cls-11" d="M344.91,91.21v.06a4.29,4.29,0,0,1-.51,1.13c-2.66,4.21-12.61,3.94-22.18,2.52,0,0,0,0,0,0q-1.14-2.15-2.45-4.2l0,0C318.57,88.8,317.3,87,316,85.27c14.77-2.12,21.89-1.5,25.32-.44.2.18.4.36.58.54l.54.54.23.25c.17.18.32.35.46.52l.35.43c.09.12.17.24.26.35a0,0,0,0,1,0,0c.17.26.33.51.47.76a6.4,6.4,0,0,1,.36.75,5.31,5.31,0,0,1,.24.74,3.29,3.29,0,0,1,.1.53,0,0,0,0,1,0,0A3.55,3.55,0,0,1,344.91,91.21Z"/><path id="hat_shadow" class="cls-6" d="M344.91,91.21a2.19,2.19,0,0,1-.12.33s0,0,0,0l-.16.36c-.06.11-.1.21-.14.28a.64.64,0,0,0-.07.12c-.56-1-4-4.27-24.63-1.68h0q-3.84.48-8.52,1.26h-.07l-2,.34h0l-.29,0h-.05c-1.69.31-3.47.63-5.34,1l-.77.15-1,.2q-2.52.49-5.25,1.07l-.41.14-.3.1c-.59.2-1.53.54-2.72,1-.84.31-1.81.7-2.88,1.14-.72.3-1.5.63-2.31,1l-1.27.57c-2.55,1.16-5.37,2.57-8.2,4.2a0,0,0,0,0,0,0c-.14.07-.25.15-.39.23h0l0,0h0q-.23.12-.45.27h0a3.12,3.12,0,0,0-.35.2l0,0a0,0,0,0,1,0,0c-.87.52-1.75,1.07-2.6,1.64-.6.4-1.2.81-1.81,1.24l-2.16,1.54c-1.19.86-2.4,1.75-3.65,2.68l-2.46,1.81-.77.57h0a1.81,1.81,0,0,0-.23.18l-.23.17h0l-.05,0,0,0c-1.06.77-2.13,1.55-3.25,2.33-9.09,6.35-20,12.6-34,14.42h-.07l-1.33.15c-.5.05-1,.1-1.51.13a65.52,65.52,0,0,1-8.46.16,49.48,49.48,0,0,1-15.94-3.23c-.47-.16-.94-.34-1.42-.52s-.82-.31-1.24-.49l-.07,0c-10.64-4.22-22-11.4-29.72-20.5a61.92,61.92,0,0,0-9.72,4.79c-1.66,1-3.47,2.12-5.37,3.44a87.08,87.08,0,0,0-11.6,9.69h0c-.84.83-1.68,1.69-2.5,2.59l0,0a84,84,0,0,0-9.33,12.1h0a.83.83,0,0,1-.08.12c-.92,1.46-1.82,3-2.69,4.57-.27.48-.53,1-.79,1.47,0,0-.52-.89-1.39-2.52l0,0q.65-1.26,1.32-2.46,1.27-2.28,2.65-4.38l.08-.11h0c.34-.52.69-1,1-1.54s.75-1.08,1.14-1.61.63-.88.95-1.3a78.93,78.93,0,0,1,6.18-7.22l0,0c.33-.33.65-.67,1-1l.85-.85.13-.12.09-.08h0a1.14,1.14,0,0,1,.17-.15s0,0,0,0l0,0,.64-.61c.49-.45,1-.9,1.46-1.33l.24-.21,1.16-1,1.1-.91,1.1-.89,1.23-1c.34-.26.68-.52,1-.76l.23-.17.82-.59.81-.57.64-.44c.85-.58,1.69-1.13,2.51-1.64l1.67-1,.55-.32.26-.15h0c.53-.31,1-.61,1.56-.89q1.15-.63,2.22-1.17h0a56.42,56.42,0,0,1,8.34-3.56h0c.41.47.81.92,1.22,1.37s.93,1,1.4,1.49c.29.3.59.59.89.88.81.81,1.65,1.58,2.5,2.33.32.28.64.56,1,.82s.58.5.87.73l1,.81.74.56c.84.64,1.69,1.26,2.55,1.85.49.34,1,.67,1.48,1s1,.64,1.49.94c1,.59,1.91,1.15,2.87,1.67,1.13.63,2.27,1.22,3.41,1.76.45.22.89.43,1.34.63.18.09.35.17.53.24.8.36,1.6.7,2.39,1l.3.12,1.39.53c1.42.53,2.84,1,4.24,1.42.27.09.55.17.82.24l1,.27.67.18h0l.32.08.66.16,1.13.26.32.07,1.26.24,1.26.22h.09l.17,0,1,.14c.26,0,.53.07.79.09l1.47.16,1.42.09q.38,0,.75,0l1.11,0c.59,0,1.17-.08,1.75-.13l.8-.07c.58,0,1.15-.11,1.72-.18l.35,0h0l1.74-.22.45-.06.27,0c.73-.1,1.44-.21,2.15-.34l1.33-.22,1.3-.26c.59-.11,1.18-.24,1.76-.37l.62-.14c.64-.14,1.27-.29,1.9-.45,1.29-.32,2.55-.66,3.78-1l1.07-.33,2.19-.71.67-.23,1.54-.56c.2-.06.4-.14.6-.22.51-.19,1-.38,1.52-.59a6.44,6.44,0,0,0,.61-.24l1.79-.74.12-.06c.58-.24,1.16-.5,1.73-.76,2.18-1,4.28-2,6.29-3.1l1.13-.61.06,0,1.45-.82.87-.49.81-.49.31-.18.7-.42.2-.12,1.17-.71c.58-.36,1.16-.72,1.72-1.09l.33-.21a.1.1,0,0,0,0,0l.23-.15c.4-.24.79-.5,1.18-.76l.66-.43.26-.16h0l.24-.15,1.07-.71h0l0,0,.13-.09.22-.14,0,0,.2-.13.08-.06.08,0,.11-.07.07,0,.33-.23.47-.32.46-.31.28-.2,0,0h0l.18-.12.32-.22,0,0,0,0,.06,0,.08-.06.14-.1,1.19-.82.42-.29h0c.25-.17.5-.34.74-.52l.2-.14.25-.17.39-.27a4.56,4.56,0,0,1,.39-.27.05.05,0,0,1,0,0l1-.69,1.42-1c.52-.37,1-.72,1.55-1.07q.51-.36,1-.69l.22-.15.27-.18.08,0,.17-.11.13-.08a0,0,0,0,1,0,0l.24-.16.41-.26.13-.08c.21-.14.41-.27.62-.39l1.08-.66,1-.57.46-.26,1.09-.61.39-.22.77-.42.77-.4.38-.19h0c.64-.33,1.27-.64,1.88-.94.37-.18.73-.36,1.09-.52l.74-.35.55-.26.33-.15.44-.19.42-.2.23-.1.09,0,.68-.29.65-.28h0l.51-.21.62-.26.59-.24.49-.2.15-.06.06,0,.05,0h.06l.1,0,.26-.1.16-.06.16-.07.31-.12,0,0L293,90l.18-.06.18-.07.05,0,.09,0,.29-.1,0,0,.58-.21.17-.06.16-.06.12,0h0l.74-.26.19-.07.1,0,.23-.08.07,0,.1,0,.13,0h0l1-.21h.09l.9-.19.14,0,.75-.15.4-.08.56-.11,1-.21.1,0,.32-.06,1.56-.3h0l1.33-.25.15,0,2.93-.54,2.75-.48c1.93-.32,3.74-.6,5.45-.84,14.77-2.12,21.89-1.5,25.32-.44a13.7,13.7,0,0,1,2.42,2.69,0,0,0,0,1,0,0c.17.26.33.51.47.76a6.4,6.4,0,0,1,.36.75,5.31,5.31,0,0,1,.24.74,3.29,3.29,0,0,1,.1.53,0,0,0,0,1,0,0A3.55,3.55,0,0,1,344.91,91.21Z"/></g></svg>