<svg xmlns="http://www.w3.org/2000/svg" viewBox="0 0 311 365.2"><defs><style>.cls-1{isolation:isolate;}.cls-2{fill:none;}.cls-3{fill:#69441a;}.cls-4{fill:#7f4b1e;mix-blend-mode:multiply;opacity:0.36;}.cls-5{fill:#010101;}.cls-6{fill:#d2d2d2;}.cls-7{fill:#9e9e9e;}.cls-8{fill:#fff;}.cls-9{fill:#ccc;opacity:0.5;}.cls-10{fill:#c2882b;}.cls-11{fill:#a86a28;}.cls-12{fill:#63acae;}.cls-13{fill:#307d7d;}.cls-14{fill:#053a59;}</style></defs><g class="cls-1"><g id="Layer_1" data-name="Layer 1"><rect class="cls-2" width="311" height="365"/><g id="skin"><path class="cls-3" d="M155.55,155.19c-.39-1.29-8.2-27.26-2.7-47.9a42,42,0,0,1,2.59-7.12,53.44,53.44,0,0,0-8.67,11c-.4.65-.78,1.33-1.16,2a72.75,72.75,0,0,0-6.29,15.57c-.14.49-.26,1-.39,1.46s-.27,1-.39,1.53-.3,1.28-.45,1.93-.28,1.28-.4,1.94c-.18.82-.33,1.67-.48,2.53-.08.45-.15.9-.22,1.36-.15.92-.28,1.85-.41,2.81l-.18,1.44c-.06.48-.11,1-.16,1.46s-.11,1-.15,1.5-.09.94-.12,1.41c-.08.94-.14,1.9-.2,2.88,0,.48-.05,1-.07,1.47-.15,3.43-.18,7-.06,10.86v.1c0,.13,0,.27,0,.41a2.75,2.75,0,0,1-1.61,2.21,5.25,5.25,0,0,1-3.74.14l0-.08-.08-.29s-14.07-11.35-20.48-4.09c0,0-7.44,11.16,8.19,28.08,0,0,9.36,15.6,16,4.8,0,.08.09.15.14.23.21.34.4.67.61,1s.32.53.48.79a3.61,3.61,0,0,0,.23.36c.33.54.67,1.07,1,1.6s.86,1.34,1.29,2c.71,1.09,1.42,2.15,2.15,3.18.42.62.85,1.23,1.28,1.83s.85,1.19,1.28,1.77.87,1.17,1.3,1.74c.86,1.13,1.72,2.25,2.59,3.32.43.54.86,1.07,1.3,1.6,2.17,2.61,4.35,5,6.52,7.29a.08.08,0,0,1,0-.05c.12-.28.25-.56.36-.84C163.55,198.81,160.14,173.16,155.55,155.19Zm-27.73,41.37a3.82,3.82,0,1,1,3.81-3.81A3.81,3.81,0,0,1,127.82,196.56Z"/><path class="cls-3" d="M129.14,263.89l0-.11c9-2.57,12.36-4.69,13.57-5.68a3.5,3.5,0,0,0,.6-.6,13.84,13.84,0,0,0,1.95-2.55c3.75-5.78,10.48-19.36,12.4-30l0,0s0,0,0-.06c-.34-.32-.66-.64-1-1,.16-.29.32-.58.47-.88q.45-.83.87-1.68a.89.89,0,0,0,.08-.17c.25-.51.5-1,.74-1.54s.44-1,.66-1.5.52-1.23.77-1.86c.19-.48.38-1,.55-1.46s.3-.79.43-1.2c.4-1.15.78-2.32,1.13-3.51.14-.48.28-1,.41-1.46,0-.1.05-.19.09-.29.14-.57.29-1.13.43-1.7l0-.12c.3-1.21.56-2.44.8-3.7.07-.35.14-.69.19-1s.19-1,.27-1.48.21-1.3.3-2l0-.21c.09-.66.18-1.34.26-2s.16-1.35.22-2l0-.28c.07-.69.13-1.39.18-2.09a117.21,117.21,0,0,0-2-31.36,145.91,145.91,0,0,1-3.72-32.33c0-.22,0-.43,0-.65l0-1.22c.35-11.35,2.66-19.68,5.77-25.77a34.85,34.85,0,0,1,6.52-9c29.75-7.59,56.05,10.76,57.67,11.93h0l.06,0,.37.27.18-.07.26-.09c12.12-4.38,21.28-2.91,21.38-2.89l.11,0c7.46.24,12.09,7.7,12.36,8.15,2.73,5.5,3.69,15.18,4,19.06a13.4,13.4,0,0,0-6.24-2.74c-7.45-1.44-16.68,1-17.28,1.12l-.19.07a2.12,2.12,0,0,0-1.09,1.32,3.49,3.49,0,0,0,.39,2.41l.37.63.68-.26c.13,0,9.93-3.71,17.24-2.64a12.38,12.38,0,0,1,3.46,1,7.25,7.25,0,0,1,2.84,2.31l0,.58v.08l.22-.27a6.42,6.42,0,0,1,.46.86.32.32,0,0,1,0,.09c-.38,1.61-.81,3.25-1.29,4.94,0,.06-.25.84-.56,2.2h0a18.92,18.92,0,0,0-5.39-.32c-13,1-24,14.25-26.45,17.38-.12.15-.22.28-.28.37l-.12.15c-.23.26-.44.54-.65.82l0,0v0c.41.9,5.5,11.57,21.41,11.86a16.37,16.37,0,0,0,1.84-.17,22.36,22.36,0,0,0,9.32-3.48l0,0c.07.32.14.64.22,1a.29.29,0,0,1,0,.09s0,0,0,0a168.9,168.9,0,0,1-6.53,23,.42.42,0,0,1,0,.1c-1.77,4.94-3.86,10.08-6.28,15.38,0,0-18.23,43.15-41.81,44.56,0,0-11.81.83-28.11-6.62-2.81,6.13-5.44,15-.31,20.07a23.69,23.69,0,0,0,2.66,2.23c.45.34.92.66,1.42,1l0,0c1.31.86,2.75,1.71,4.31,2.53l-.07.15,0,.19q-.3,3.38-.81,6.33c-4.85,28-23.26,29-24.08,29C135.55,305.85,129.2,264.31,129.14,263.89Z"/><path class="cls-3" d="M280.3,364.15H267.75l-22.8,0h-4.57l-152,.22H82.67L26,364.52C27.14,315.57,38.15,297,38.15,297c3.36-8.81,10.11-14.43,16.79-18h0a56.21,56.21,0,0,1,18.11-5.89c6.22-.64,11.88-1.31,17-2h0c.82-.11,1.62-.21,2.42-.33l1.37-.18,1-.14.37-.05h.08q3.18-.45,6.09-.9l.13,0h0a241.83,241.83,0,0,0,25.87-5.21c.37,2.33,7.18,42.18,39.1,42.7a5.27,5.27,0,0,1,2.53-.34,3.72,3.72,0,0,1,.68.13A24.87,24.87,0,0,0,180.17,302c8-6.14,11.74-16,13.4-24.93.43-2.25.71-4.45.9-6.51a1.37,1.37,0,0,0,0-.19c8.28,4.17,19.19,7.88,28.61,10.69,11.25,3.36,20.38,5.42,20.38,5.42,8.47,2.48,15.21,5.69,20.42,10.08h0c7.81,6.58,12.18,15.84,13.83,29.37,0,.23.05.45.08.68.07.61.13,1.23.19,1.87.14,1.5.28,3,.4,4.52v.09C279.72,348.68,280.3,364.15,280.3,364.15Z"/></g><g id="skin_shading"><path class="cls-4" d="M188.6,267a36.9,36.9,0,0,0,4.24,2.68l0,.19q-.3,3.38-.81,6.33c-5.48-3.07-10.11-6.38-12.05-9.46,0,0-4.92-6.51-6.82-13.14-4.39-15.38-5.49-18.38-15-29.11a91.89,91.89,0,0,0,26.53,19.23s-8.77,16,2.5,22.26l.63.34a8.18,8.18,0,0,0,.79.65Z"/><path class="cls-4" d="M221.51,288l-.22.16c-.65.47-15.74-4.7-27.72-11.13.43-2.25.71-4.45.9-6.51,5.25,2.71,14.16,6.47,28.63,10.52l.05,0A5.64,5.64,0,0,1,221.51,288Z"/><path class="cls-4" d="M155.5,100l-.06.13a42,42,0,0,0-2.59,7.12,61.68,61.68,0,0,0-7.24,5.95l-.11.09c.42-.76.85-1.5,1.27-2.2A53.44,53.44,0,0,1,155.5,100Z"/><path class="cls-4" d="M230.15,103.4l-.23-.1h0c-7.68-3.09-37.09-13.42-64.19-2.88a34.85,34.85,0,0,1,6.52-9l.1-.11c30.51-7.72,57.36,11.8,57.65,12Z"/><path class="cls-4" d="M268.64,128.08l0-.28a13.4,13.4,0,0,0-6.24-2.74c-.67-10.94-3.57-19.72-10.76-21.13-8.35-1.63-19.77.18-19.77.18l-1.31-.56-.09,0,.35-.13c12.12-4.38,21.28-2.9,21.38-2.89l.11,0c7.46.24,12.09,7.7,12.36,8.15,2.75,5.54,3.7,15.33,4,19.15h0A2.28,2.28,0,0,1,268.64,128.08Z"/><path class="cls-4" d="M267.67,167.45a.36.36,0,0,0,0,.1,168.75,168.75,0,0,1-6.62,22.7.42.42,0,0,1,0,.1c-1.69,4.61-3.64,9.39-5.89,14.32,0,0-18.4,42.93-42,44.34,0,0,33.2-11.64,43.64-73.5,0,0,.53-2.22,1.26-5.88a22.36,22.36,0,0,0,9.32-3.48l0,0c.07.32.14.64.22,1C267.61,167.21,267.65,167.33,267.67,167.45Z"/><path class="cls-4" d="M269.5,132.26q-.56,2.37-1.26,4.84c0,.05-.28.91-.6,2.38a18.92,18.92,0,0,0-5.39-.32c.25-3.88.36-7.76.24-11.45a12.38,12.38,0,0,1,3.46,1,7.25,7.25,0,0,1,2.84,2.31v0l0,.37.13-.15.07.11,0,0A6.42,6.42,0,0,1,269.5,132.26Z"/><path class="cls-4" d="M130.2,181.22a4.83,4.83,0,0,1-2.5,2.86,0,0,0,0,1,0,0c-2.3,1-5-.24-5.2-.35a4.79,4.79,0,0,1-2.53-6,5.75,5.75,0,0,1,2.51-2.87,3.68,3.68,0,0,1,1.62-.5,8.27,8.27,0,0,0-5.47-5.61,12.37,12.37,0,0,0-4.46-.69,8.68,8.68,0,0,1,3.61-.65c2.72,0,6.35,1.34,8.61,7a6.93,6.93,0,0,0-2.48,2.72,3.19,3.19,0,0,0,.69,3.54,4.26,4.26,0,0,0,1.76.79h0a3.7,3.7,0,0,0,3.14-1Z"/></g><g id="nose"><path id="nostril" class="cls-5" d="M220.12,196.6s-.74-3.28,4.94-1Z"/><path id="nose-2" data-name="nose" class="cls-5" d="M217.66,190.07s7.37-6.59,13.41-1.41c0,0,4.8,4.61-.2,10.81,0,0,8.64-7.41.67-13.68C231.54,185.79,225.21,181.25,217.66,190.07Z"/></g><g id="hair"><path class="cls-5" d="M275.83,93.44A24.33,24.33,0,0,0,265.3,84.5c-14.23-27.63-47.56-37.43-48-37.55-9.58-2.62-14.72-3.34-25.49-4a4.59,4.59,0,0,1-.59,1.23s-40-.47-61.17,26.21a.75.75,0,0,1,0-.14,9.45,9.45,0,0,1,.55-1.28c.07-.14.15-.31.25-.48,1.14-2.12,3.71-5.83,9.13-10.07.31-.25.62-.49,1-.74s.47-.35.72-.51c.8-.59,1.65-1.18,2.56-1.76l1.21-.78s12.3-7.61,25.68-10.9c12.11-3,19.3-3.71,19.17-5.68v0h0a1,1,0,0,0-.19-.52l.1.1.15.16a.34.34,0,0,0,0-.1c-.72-13-8.34-19-9.84-20C172.49-1.56,150,1.4,149.82,1.43c-18.9,1.4-24.73,6.21-25.83,7.31C106.24,13.93,96.88,23.67,92.14,31a40.2,40.2,0,0,0-6.06,14.53C65.34,62.89,56.11,97,52,122.61a325.5,325.5,0,0,0-4,52C46.85,207.12,53.64,276.29,53.71,277l-.19,2H55c9.67-3.43,30-7.27,33.79-7.63l1.36-.23h0l1.61-.27.81-.06c1.12-.05,2.72-.07,3.36-.13a24,24,0,0,0,3.62-.58h0c1-.25,1.51-.48,1.86-.56l.13,0h0a241.83,241.83,0,0,0,25.87-5.21l0-.11a.86.86,0,0,1,1.68-.35c9-2.57,12.36-4.69,13.57-5.68.9-1,1.75-2.09,2.55-3.15,3.75-5.78,10.48-19.36,12.4-30l0,0s0,0,0-.06c-.34-.32-.66-.64-1-1,.16-.29.32-.58.47-.88q.45-.83.87-1.68a.89.89,0,0,0,.08-.17c.25-.51.5-1,.74-1.54s.44-1,.66-1.5.52-1.23.77-1.86c.19-.48.38-1,.55-1.46s.3-.79.43-1.2c.4-1.15.78-2.32,1.13-3.51.14-.48.28-1,.41-1.46,0-.1.05-.19.09-.29.14-.57.29-1.13.43-1.7l0-.12c.29-1.21.56-2.44.8-3.7.07-.35.14-.69.19-1s.19-1,.27-1.48.21-1.3.3-2l0-.21c.09-.66.18-1.34.26-2s.16-1.35.22-2l0-.28c.07-.69.13-1.39.18-2.09a117.21,117.21,0,0,0-2-31.36,145.91,145.91,0,0,1-3.72-32.33l.27.28.29-.28c2.81-2.61,23.92-20.8,46.67-1.18l.64.56.57-.64a3.39,3.39,0,0,0,.8-2.35,2.82,2.82,0,0,0-1.11-2c-.23-.2-22.62-19.65-48.09,3.7.35-11.35,2.66-19.68,5.77-25.77a34.85,34.85,0,0,1,6.52-9l.1-.11c30.51-7.72,57.36,11.8,57.65,12l.17.13.29.11.35-.13c12.12-4.38,21.28-2.9,21.38-2.89l.11,0c7.46.24,12.09,7.7,12.36,8.15,2.75,5.54,3.7,15.33,4,19.15h0a2.28,2.28,0,0,1,0,.26l0-.28a13.4,13.4,0,0,0-6.24-2.74c-7.45-1.44-16.68,1-17.28,1.12l-.19.07a2.12,2.12,0,0,0-1.09,1.32,3.49,3.49,0,0,0,.39,2.41l.37.63.68-.26c.13,0,9.93-3.71,17.24-2.64a12.38,12.38,0,0,1,3.46,1,7.25,7.25,0,0,1,2.84,2.31v0l.15.22.07.11,0,0a6.42,6.42,0,0,1,.46.86.32.32,0,0,1,0,.09c-.38,1.61-.81,3.25-1.29,4.94,0,.06-.25.84-.56,2.2h0a18.92,18.92,0,0,0-5.39-.32c-13,1-24,14.25-26.45,17.38-.12.15-.22.28-.28.37l-.12.15-.07.09.59-.61a52.72,52.72,0,0,1,8.5-7.27,7.38,7.38,0,0,0-.5,1.31,7.63,7.63,0,0,0-.27,1.19,8.51,8.51,0,0,0,1.73,6.37,10.4,10.4,0,0,0,6.86,3.92,12.33,12.33,0,0,0,1.47.09,10.34,10.34,0,0,0,6-1.91,8.45,8.45,0,0,0,1.87-12.18,1.83,1.83,0,0,1-.13-.16,10,10,0,0,0-3.47-2.75,10.33,10.33,0,0,0-2.91-.94,29.36,29.36,0,0,1,6.86-1.08,27.68,27.68,0,0,1,4.95.24h0a26.41,26.41,0,0,1,3.39.71A21.49,21.49,0,0,1,273,145a16.47,16.47,0,0,1,2,.94l.06,0-.43-3.61-.93-.56q.94-3.89,2.3-7.94a69.3,69.3,0,0,0,3.75-14.26C281.35,108.91,280,99.88,275.83,93.44ZM143.67,209.16c-.43-.57-.87-1.15-1.3-1.74s-.86-1.17-1.28-1.77-.86-1.21-1.28-1.83c-.73-1-1.44-2.09-2.15-3.18-.43-.65-.86-1.32-1.29-2s-.68-1.06-1-1.6a3.61,3.61,0,0,1-.23-.36c-.17-.26-.32-.52-.48-.79s-.4-.66-.61-1c0-.08-.1-.15-.14-.23-6.66,10.8-16-4.8-16-4.8-15.63-16.92-8.19-28.08-8.19-28.08,6.41-7.26,20.48,4.09,20.48,4.09l.08.29A5.31,5.31,0,0,0,134,166a2.75,2.75,0,0,0,1.61-2.14c0-.14,0-.28,0-.41v-.1c-.12-3.82-.09-7.43.06-10.86,0-.49.05-1,.07-1.47,0-1,.12-1.94.2-2.88,0-.47.08-.94.12-1.41s.1-1,.15-1.5.1-1,.16-1.46.11-1,.18-1.44c.12-1,.26-1.9.41-2.81.07-.46.14-.91.22-1.36.15-.86.3-1.71.48-2.53.12-.66.25-1.31.4-1.94s.29-1.3.45-1.93.25-1,.39-1.53.25-1,.39-1.46a72.14,72.14,0,0,1,6.18-15.48c.42-.76.85-1.5,1.27-2.2A53.44,53.44,0,0,1,155.5,100l-.06.13a42,42,0,0,0-2.59,7.12c-5.5,20.64,2.31,46.61,2.7,47.9,4.59,18,8,43.62-1.09,65.29-.11.28-.24.56-.36.84a.08.08,0,0,0,0,.05c-2.17-2.26-4.35-4.68-6.52-7.29-.44-.53-.87-1.06-1.3-1.6C145.39,211.41,144.53,210.29,143.67,209.16ZM207.1,46.78l1.59.38c-.62-.19-1.12-.33-1.45-.42,3.14.73,6.12,1.56,8.92,2.46l1,.32.38.13c.53.17,1,.35,1.58.54l1.44.53q2.55.95,4.91,2l1.35.61c.48.21,1,.44,1.43.66.26.11.51.24.76.36.55.27,1.1.54,1.63.82.35.17.7.35,1,.54.84.44,1.66.89,2.44,1.35.42.23.82.47,1.22.7l1.17.72,1.15.72c.75.48,1.47,1,2.18,1.45l1,.73q1,.73,2,1.47l1.09.85c.2.15.39.31.58.47s.6.48.88.73c.87.73,1.7,1.46,2.48,2.18.51.47,1,1,1.48,1.42.23.22.45.44.66.67s.43.43.63.64c.63.66,1.22,1.3,1.76,1.92.36.41.72.82,1,1.22l.49.59.47.58c.76,1,1.41,1.86,2,2.7.24.34.45.65.65,1s.4.63.58.93l.28.45.45.8c.1.19.2.35.27.5l.23.44c.09.18.16.35.23.5a1.24,1.24,0,0,1,.1.2,5.12,5.12,0,0,1,.19.48l0,.13c0,.1.05.16,0,.18h0c0,.06,0,.08,0,.08a6.53,6.53,0,0,0-3.39.94C244.91,57.61,211.22,47.88,207.1,46.78Zm48.57,41.71A31,31,0,0,0,251,89.62a52,52,0,0,0-20.34,12s0,0,.06-.13l-.06.06a42,42,0,0,1,17.7-13.9,30.88,30.88,0,0,1,15.08-2.11s11.45,5.07,13.54,14.64c0,0,0,0,0,0s0,.09,0,.14S269,86,255.67,88.49Z"/><path class="cls-5" d="M291.63,195.46l-.77,1.54c-.08,0-.53-.25-1.25-.68a43.92,43.92,0,0,1-21.94-28.68.29.29,0,0,1,0-.09.36.36,0,0,1,0-.1c0-.12-.06-.24-.08-.36-.08-.32-.15-.64-.22-1,.16-.11.32-.22.47-.34a17,17,0,0,0,3.87-3.92,43.57,43.57,0,0,0,6.17,20.24A38.1,38.1,0,0,0,290.8,195C291.07,195.16,291.35,195.31,291.63,195.46Z"/></g><g id="hairclip"><path id="hairclip_highlight" class="cls-6" d="M171.19,43.74c-13.38,3.29-25.68,10.9-25.68,10.9C132.2,62.9,130.08,70.4,130.08,70.4a6.15,6.15,0,0,1-4.41-4.47s22.57-31.16,64.49-28.43C191.72,39.92,184.38,40.48,171.19,43.74Z"/><path id="hairclip_shade" class="cls-7" d="M191.84,42.88a4.54,4.54,0,0,1-.59,1.22s-40-.46-61.17,26.21c0,0,2.12-7.5,15.43-15.75,0,0,12.3-7.61,25.68-10.91,13.19-3.25,20.53-3.81,19-6.24l.25.26C191.05,38.38,192.64,40.43,191.84,42.88Z"/></g><path id="mouth" class="cls-8" d="M207.46,197.75s4.51,15.34,16.22,17.94c0,0-18.1,14-27.78.81C195.9,216.5,188.23,204.57,207.46,197.75Z"/><g id="eye_whites"><path class="cls-8" d="M216.74,156.73A31.63,31.63,0,0,1,189.08,169s-27.64-1.65-24.14-25.35l.13,0a46.23,46.23,0,0,1,9.41-2.15,12,12,0,0,0-1.46,1.74,10.1,10.1,0,0,0,2.28,14,11.91,11.91,0,0,0,7.22,2.37,12.58,12.58,0,0,0,1.73-.12c6.36-.88,10.9-6.38,10.1-12.25a9.34,9.34,0,0,0-.51-2.1,9.88,9.88,0,0,0-1.61-2.84,46.36,46.36,0,0,1,23.17,13.16c-.05-.09-.33-.48-.81-1.1l.2.2c.07.07.12.14.18.21Q215.86,155.7,216.74,156.73Z"/><path class="cls-8" d="M271.71,161.87a17,17,0,0,1-3.87,3.92c-.15.12-.31.23-.47.34l0,0a22.36,22.36,0,0,1-9.32,3.48,16.37,16.37,0,0,1-1.84.17c-15.91-.29-21-11-21.41-11.86v0l0,0c.21-.28.42-.56.65-.82l-.07.09.59-.61a52.72,52.72,0,0,1,8.5-7.27,7.38,7.38,0,0,0-.5,1.31,7.63,7.63,0,0,0-.27,1.19,8.51,8.51,0,0,0,1.73,6.37,10.4,10.4,0,0,0,6.86,3.92,12.33,12.33,0,0,0,1.47.09,10.34,10.34,0,0,0,6-1.91,8.45,8.45,0,0,0,1.87-12.18,1.83,1.83,0,0,1-.13-.16,10,10,0,0,0-3.47-2.75,30.44,30.44,0,0,1,3.79-.34,30,30,0,0,1,4.87.25h0a29.25,29.25,0,0,1,3.57.71c.91.24,1.72.51,2.39.76a20.11,20.11,0,0,1,2.44,1.09C275.45,154.06,274,158.63,271.71,161.87Z"/></g><g id="right_eye"><path class="cls-5" d="M194.35,147.19c.8,5.87-3.74,11.37-10.1,12.25a12.58,12.58,0,0,1-1.73.12,11.91,11.91,0,0,1-7.22-2.37,10.1,10.1,0,0,1-2.28-14,12,12,0,0,1,1.46-1.74,46.23,46.23,0,0,0-9.41,2.15l-.13,0h0l.47-3.07c26.38-12,44.38,7.61,48.9,13.33l0,0c.1.12.18.23.26.34.48.62.76,1,.81,1.1a46.36,46.36,0,0,0-23.17-13.16,9.88,9.88,0,0,1,1.61,2.84A9.34,9.34,0,0,1,194.35,147.19Z"/></g><g id="eye_shadow"><path class="cls-9" d="M174.48,141.48a12,12,0,0,0-1.46,1.74,44.74,44.74,0,0,0-8.09,1.32l.14-.91A46.23,46.23,0,0,1,174.48,141.48Z"/><path class="cls-9" d="M216.22,156.33a62,62,0,0,0-22.38-11.24,9.88,9.88,0,0,0-1.61-2.84,46.36,46.36,0,0,1,23.17,13.16c-.05-.09-.33-.48-.81-1.1-.08-.11-.16-.22-.26-.34l.46.54c.07.07.12.14.18.21C215.79,155.72,216.22,156.33,216.22,156.33Z"/><path class="cls-9" d="M275.1,147.63a20.11,20.11,0,0,0-2.44-1.09c-.67-.25-1.48-.52-2.39-.76a29.25,29.25,0,0,0-3.57-.71h0a30,30,0,0,0-4.87-.25,30.44,30.44,0,0,0-3.79.34,10.33,10.33,0,0,0-2.91-.94,29.36,29.36,0,0,1,6.86-1.08,27.68,27.68,0,0,1,4.95.24h0a26.41,26.41,0,0,1,3.39.71A21.49,21.49,0,0,1,273,145a16.47,16.47,0,0,1,2,.94V146C275,146.53,275.07,147.09,275.1,147.63Z"/><path class="cls-9" d="M244.42,149.27a7.38,7.38,0,0,0-.5,1.31,53.55,53.55,0,0,0-9.15,7.36l-.06.06.06-.08c.15-.19.55-.68,1.15-1.38A52.72,52.72,0,0,1,244.42,149.27Z"/></g><g id="eye_highlights"><circle class="cls-8" cx="188.21" cy="146.59" r="1.59"/><circle class="cls-8" cx="257.3" cy="149.11" r="1.59"/></g><path class="cls-5" d="M194.53,270c0,.12,0,.23,0,.35a1.37,1.37,0,0,1,0,.19c-.19,2.06-.47,4.26-.9,6.51-1.66,8.92-5.36,18.79-13.4,24.93a24.87,24.87,0,0,1-10.41,4.75,3.72,3.72,0,0,0-.68-.13,5.27,5.27,0,0,0-2.53.34c-31.92-.52-38.73-40.37-39.1-42.7l0-.11a.86.86,0,0,1,1.68-.35l0,.11c.06.42,6.41,42,38.78,41.34.82,0,19.23-1.05,24.08-29q.51-3,.81-6.33l0-.19.07-.15a.88.88,0,0,1,.83-.45A.87.87,0,0,1,194.53,270Z"/><path class="cls-5" d="M169.76,306.73a11.45,11.45,0,0,1-1.8.22h-.76c-.22,0-.44,0-.65,0a5.27,5.27,0,0,1,2.53-.34A3.72,3.72,0,0,1,169.76,306.73Z"/><g id="jewelry"><g id="gold"><path class="cls-10" d="M174.33,314.35c-.43,3.91-3.48,6.78-6.81,6.42s-5.69-3.84-5.25-7.75a7.26,7.26,0,0,1,4.28-6.08,5.27,5.27,0,0,1,2.53-.34,3.72,3.72,0,0,1,.68.13C172.72,307.44,174.74,310.7,174.33,314.35Z"/><path class="cls-10" d="M131.63,192.75a3.81,3.81,0,1,1-3.81-3.82A3.82,3.82,0,0,1,131.63,192.75Z"/></g><g id="shading"><path class="cls-11" d="M127.2,195.75c-.34,0,.65.18,1,.18a2.91,2.91,0,0,0,2.91-2.91,2.5,2.5,0,0,0-.38-1.43,4,4,0,0,1-.67,2.86A3.78,3.78,0,0,1,127.2,195.75Z"/><path class="cls-11" d="M165.43,318.37c-.34-.25.89,1.56,2.9,1.46a5.58,5.58,0,0,0,4.87-4.67,6,6,0,0,0,0-2.57s-.2,3.25-1.67,4.85C171.48,317.44,168.33,320.57,165.43,318.37Z"/></g><g id="highlights"><path class="cls-8" d="M128.25,190l-.07,0a2.39,2.39,0,0,0-3.05.83,2.44,2.44,0,0,0-.1,2.92,3.27,3.27,0,0,1,.66-2.69A2.74,2.74,0,0,1,128.25,190Z"/><path class="cls-8" d="M169.25,308.41a.27.27,0,0,0-.08-.07c-1.09-.9-2.95-.62-4.28.67a3.48,3.48,0,0,0-1,3.92,4.89,4.89,0,0,1,1.67-3.53A3.89,3.89,0,0,1,169.25,308.41Z"/></g></g><path id="shirt" class="cls-12" d="M223.12,280.89s-6.53,51.15-60.39,50.63l0,0c-50.82-.22-60.69-55.78-60.44-61.72,0,0-13.39,1.05-29.27,2.5,0,0-26.95,3-34.92,23.91,0,0-11.31,19.92-12.45,68.88l254.6.09s-.69-20.46-2.28-37.47C275.65,303.44,266,292.3,244,285.85Z"/><g id="shirt_shading"><path class="cls-13" d="M260.45,293.32s15.91,7.64,17.66,34.35l2.13,37.26-12.67-.05S282.24,309.54,260.45,293.32Z"/><path class="cls-13" d="M83.1,336.86,88.51,365l-6,.13S85.42,355.09,83.1,336.86Z"/><path class="cls-13" d="M241.48,341.76l3.62,23.4-5-.07S242.85,356.86,241.48,341.76Z"/></g><g id="hair_highlights"><path class="cls-14" d="M182.47,84.59a28.73,28.73,0,0,0-11.23,6.77,34.46,34.46,0,0,0-7,9.66c-5,9.94-7.62,25.6-2.8,50.18,0,0,15.29,61.35-15.74,84.08.66-.65,26.88-27.18,12.72-85.08.6-.87-5.61-28.63,3.5-48.15a33.2,33.2,0,0,1,7-10A30.52,30.52,0,0,1,182.47,84.59Z"/><path class="cls-14" d="M184.75,84.06h0c-.74.14-1.45.31-2.15.5A13,13,0,0,1,184.75,84.06Z"/><path class="cls-14" d="M259.43,82.36v0h0c0,.06,0,.08,0,.08a6.53,6.53,0,0,0-3.39.94c-11.13-25.79-44.82-35.52-48.94-36.62l1.59.38c-.62-.19-1.12-.33-1.45-.42,3.14.73,6.12,1.56,8.92,2.46l1,.32.38.13c.53.17,1,.35,1.58.54l1.44.53q2.55.95,4.91,2l1.35.61c.48.21,1,.44,1.43.66.26.11.51.24.76.36.55.27,1.1.54,1.63.82.35.17.7.35,1,.54.84.44,1.66.89,2.44,1.35.42.23.82.47,1.22.7l1.17.72,1.15.72c.75.48,1.47,1,2.18,1.45l1,.73q1,.73,2,1.47l1.09.85c.2.15.39.31.58.47s.6.48.88.73c.87.73,1.7,1.46,2.48,2.18.51.47,1,1,1.48,1.42.23.22.45.44.66.67s.43.43.63.64c.63.66,1.22,1.3,1.76,1.92.36.41.72.82,1,1.22l.49.59.47.58c.76,1,1.41,1.86,2,2.7.24.34.45.65.65,1s.4.63.58.93l.28.45.45.8c.1.19.2.35.27.5l.23.44c.09.18.16.35.23.5a1.24,1.24,0,0,1,.1.2c.08.2.15.36.19.48l0,.13A.8.8,0,0,1,259.43,82.36Z"/><path class="cls-14" d="M277,100.35S269,86,255.67,88.49A31,31,0,0,0,251,89.62a52,52,0,0,0-20.34,12s0,0,.06-.13l-.06.06a42,42,0,0,1,17.7-13.9,30.88,30.88,0,0,1,15.08-2.11s11.45,5.07,13.54,14.64c0,0,0,0,0,0S276.94,100.3,277,100.35Z"/><path class="cls-14" d="M214.5,81.87s-1.36-28.95-30.76-33.93c0,0,23.07,8.6,26.24,31.67C210,79.61,214.05,82.77,214.5,81.87Z"/><path class="cls-14" d="M194.29,46.32s21.81.79,29.34,15.27C223.63,61.59,209.16,47.31,194.29,46.32Z"/><path class="cls-14" d="M131.63,72.49s-22.21,28.36-8.92,69.6a34.13,34.13,0,0,1-.2-11.3S117.55,100.85,131.63,72.49Z"/><path class="cls-14" d="M175.25,35.22c.31.5-5.35-39.06-51.35-26.37,0,0-25.78,7.73-30.14,26.56,0,0,20.42-27.95,52.74-20A43.28,43.28,0,0,1,175.25,35.22Z"/><path class="cls-14" d="M109.14,41.07S42.53,88.89,58.47,223.25C58.47,223.25,54.49,95.73,109.14,41.07Z"/><path class="cls-14" d="M88.08,180s-6.84,57.5,0,89.38c0,0,6.83,1.71,6.83,1.14S84.09,238.05,88.08,180Z"/><path class="cls-14" d="M113.69,190.23s-1.7,29.6,4,46.11c0,0,2.28-2.84,1.71-4S113.69,211.29,113.69,190.23Z"/><path class="cls-14" d="M118.54,78.51S84,116,111.17,157.23C111.17,157.23,93.41,116.36,118.54,78.51Z"/></g></g></g></svg>