<svg id="Layer_1" data-name="Layer 1" xmlns="http://www.w3.org/2000/svg" viewBox="0 0 326.77 357.79"><defs><style>.cls-1{fill:#e2ab90;}.cls-2{fill:#d8967c;}.cls-3{fill:#70cde2;}.cls-4{fill:#f89749;}.cls-5{fill:#4fbdd6;}.cls-6{fill:#fff;}.cls-7{fill:#231f20;}.cls-8{fill:#010101;}.cls-9{fill:#d8d9da;}.cls-10{fill:#512e18;}.cls-11{fill:#381e12;}</style></defs><path id="skin" class="cls-1" d="M273.57,128.24a43.36,43.36,0,0,1-10,1.18s-23.8-.08-26.32-20.37a5.37,5.37,0,0,1,0-1.5,2.11,2.11,0,0,0-.22.17,5.34,5.34,0,0,1,.46-1.31,1.46,1.46,0,0,0-.22.2,5.88,5.88,0,0,1,5.37-4.25l27.3-1.09A177.8,177.8,0,0,0,263,77.4a2.29,2.29,0,0,1-.92.1A5.12,5.12,0,0,1,258,74.83a3,3,0,0,0-.41-.58,16,16,0,0,0-8.65-4.87,3.8,3.8,0,0,1-1.19-.4c-1.38-.78-5.42-2.6-9,.3a18.7,18.7,0,0,0-3.53,3.48c-3.2,4.22-4.64,3.84-8,.51a9.3,9.3,0,0,1-2-1.53c-.25-.23-.51-.49-.79-.77-.7-.71-3.13-1.48-5.1-2.31a14.87,14.87,0,0,1-1.54-.74,11.28,11.28,0,0,1-1.19-.37A57.64,57.64,0,0,0,200,63.15a3.64,3.64,0,0,0-1.75.32,17.78,17.78,0,0,1-10.41.9,3.68,3.68,0,0,0-.58-.05c-1.18,0-5.6,0-8,.85a3.29,3.29,0,0,1-1.46.17A20,20,0,0,1,172.22,64a7.75,7.75,0,0,0-8.51,1.92,3.15,3.15,0,0,1-2,1.19h-.74c.06.75.16,2.67-.34,2.8s-8-2.43-12.2-2.11a3.49,3.49,0,0,0-2.89,2,11,11,0,0,0-.72,1.93,3.23,3.23,0,0,0-.06,1.24c.2,1.58.37,6.53-5.95,4.69a3.15,3.15,0,0,1-1.05-.53c-1-.75-3.33-2.21-2.84,1.11,0,0,6.14,11.21,2.38,17.33a4.32,4.32,0,0,0-.34.68l-1.11,3.07a3.56,3.56,0,0,1-2.86,2.33c-1.93.27-5.91.46-8.33.64a3.5,3.5,0,0,1-1.76-.27c0,4.82,0,9.74.22,14.6-3.88-2.64-12.64-7.62-17.22-2.43,0,0-7,10.44,7.66,26.27,0,0,6,10,11.61,7.7,1.16,12.66,2.33,21.38,2.33,21.38,3.34,22.81,19.76,30.42,25.34,32.37-1,22.64-13.11,33-15,34.87a2.39,2.39,0,0,1-.4.57,77.36,77.36,0,0,0,.2,9.2c1,10.09,6.1,22.87,28.94,24.59h.12l.26,0,1.23.08.75,0c1.39.06,2.84.08,4.36.06.34,0,29.09-1.28,32.86-25,0-.28.09-.57.12-.86s.07-.59.1-.88,0-.6.08-.91,0-.61.05-.92l-.11-.06-.25-.14-.91-.52-1.25-.72-.85-.49-3-1.79-.92-.56a284.84,284.84,0,0,1-28.89-19.92c-.93-.74-1.86-1.5-2.77-2.25l-1-.83c-.55-.45-1.09-.92-1.63-1.39A97.86,97.86,0,0,1,153,202l0,0,.06,0,.09,0,.51.14.08,0,.25.08.46.12.2.05a316.3,316.3,0,0,0,35.13,1.64c30.79-.25,71.81-5.32,79.57-29.71C269.36,174.43,275.14,156.07,273.57,128.24ZM124.36,139.15c-2.74,1.52-6.16-.08-6.41-.22C113.26,136.29,115,132,115,132c1.75-3.91,4.78-3.91,4.78-3.91-2.34-7.9-11.52-7.31-11.52-7.31.53-.27,9.67-3.91,14.18,7.36,0,0-5.47,3.36-2.07,7.27a4.32,4.32,0,0,0,5.73-.22l.8.81A5.71,5.71,0,0,1,124.36,139.15Zm27.06-5.21a.68.68,0,0,1-.67-.68.68.68,0,0,1,1.35,0A.68.68,0,0,1,151.42,133.94Zm73.48-6.45a.83.83,0,1,1-.82.82A.83.83,0,0,1,224.9,127.49Zm-57,22a1.13,1.13,0,1,1,1.12-1.12A1.13,1.13,0,0,1,167.92,149.53Zm8.32-8.7a.9.9,0,1,1,.9-.9A.9.9,0,0,1,176.24,140.83Zm8.93-10.37s-26.45-.42-29-24.45c0,0,0-.08,0-.12a1.66,1.66,0,0,0-.23.63,7.42,7.42,0,0,1,.07-1.27.9.9,0,0,0-.07.27s-.46-7.62,7.56-8.31l49,3.9s3.36,1.1,4.46,3.76l-.14,0h0v0a4.54,4.54,0,0,1,.62,1l-.15,0a7,7,0,0,1,.33,3.72C216,118.47,209.53,131.68,185.17,130.46ZM197.23,142a.59.59,0,0,1-.6.6.6.6,0,0,1-.6-.6.6.6,0,0,1,.6-.6A.6.6,0,0,1,197.23,142Zm-8.77,5.1a1,1,0,1,1,0,2,1,1,0,0,1,0-2Zm1,30.47s-8.9-13.84,13.41-21.75c0,0,5.24,17.8,18.82,20.82C221.73,176.67,200.73,192.87,189.5,177.6Zm28.09-23.09s-.85-3.81,5.74-1.14Zm12.49,3.33c5.78-7.19.22-12.54.22-12.54-6.85-5.88-15.18,1.29-15.55,1.62,8.76-10.22,16.1-4.95,16.1-4.95C239.9,149.08,230.49,157.48,230.08,157.84Zm19-19.85a.75.75,0,1,1,0,1.49.75.75,0,1,1,0-1.49Zm0,16.49a1.2,1.2,0,1,1,1.2-1.2A1.2,1.2,0,0,1,249.12,154.48Zm11.47-11.55a.83.83,0,1,1,.83-.82A.82.82,0,0,1,260.59,142.93Zm11.17-5.24a.6.6,0,0,1-.6-.6.6.6,0,1,1,1.2,0A.6.6,0,0,1,271.76,137.69Z"/><g id="skin_shade"><path class="cls-2" d="M277.67,101l-7.75.31A177.8,177.8,0,0,0,263,77.4a2.29,2.29,0,0,1-.92.1A5.12,5.12,0,0,1,258,74.83a3,3,0,0,0-.41-.58,16,16,0,0,0-8.65-4.87,3.8,3.8,0,0,1-1.19-.4c-1.38-.78-5.42-2.6-9,.3a18.7,18.7,0,0,0-3.53,3.48c-3.2,4.22-4.64,3.84-8,.51,2.11,1.08,3.54-.22,6-3.51a18.7,18.7,0,0,1,3.53-3.48c3.53-2.9,7.57-1.08,9-.3a3.8,3.8,0,0,0,1.19.4l.53.11.26.05.2.06.69.19c.27.08.53.17.79.27s.5.19.74.3l.53.25c.18.08.35.16.51.25s.29.15.43.24l.4.24.67.43a16.11,16.11,0,0,1,2.3,1.86l.18.18.16.17.14.14.12.13a3,3,0,0,1,.41.58,5.38,5.38,0,0,0,1.9,2l0,0c2,2,3.33,2.12,4.22,1.35a5.36,5.36,0,0,0,1.36-2.64l0-.1s0,0,0,0a3.05,3.05,0,0,0,.13-.32,1.19,1.19,0,0,1,.08-.2c.82-1.46,2.62-1.1,3.65-.74l.18.08.14.07.19.11A193.32,193.32,0,0,1,277.67,101Z"/><path class="cls-2" d="M126.92,136a5.71,5.71,0,0,1-2.56,3.15c-2.74,1.52-6.16-.08-6.41-.22C113.26,136.29,115,132,115,132c1.75-3.91,4.78-3.91,4.78-3.91-2.34-7.9-11.52-7.31-11.52-7.31.53-.27,9.67-3.91,14.18,7.36,0,0-5.47,3.36-2.07,7.27a4.32,4.32,0,0,0,5.73-.22Z"/><path class="cls-2" d="M284.33,163.21s-.14,31.75-38.85,41.89l-.11,0-.17.05c-2.12.65-15.94,4.57-37.9,4.53a38.17,38.17,0,0,0-5.23,11.62c-.07.33-.14.65-.2,1a17.14,17.14,0,0,0,.89,10.06,7.31,7.31,0,0,0,1.72,2.5c.6.55,1.52.79,1.77,1.58,0,0,0,0,0,.05s0,0,0,0l0,.18c0,.21,0,.42,0,.63,0,0,0,.09,0,.14,0,.34.07.74.09,1.17l0,.48,0,.71c0,.33,0,.65,0,1s0,.74,0,1.1c0,.16,0,.31,0,.46l0,.45-.11-.06-.25-.14-.91-.52-1.25-.72-.85-.49-3-1.79-.92-.56a284.84,284.84,0,0,1-28.89-19.92c-.93-.74-1.86-1.5-2.77-2.25l-1-.83c-.55-.45-1.09-.92-1.63-1.39A97.86,97.86,0,0,1,153,202l0,0,.06,0,.09,0,.59.16.25.08.46.12.2.05a316.3,316.3,0,0,0,35.13,1.64c30.79-.25,71.81-5.32,79.57-29.71,0,0,5.78-18.36,4.21-46.19a26.91,26.91,0,0,0,8.58-3.66A251.28,251.28,0,0,1,284.33,163.21Z"/><path class="cls-2" d="M217.75,67.92a11.28,11.28,0,0,1-1.19-.37A57.64,57.64,0,0,0,200,63.15a3.64,3.64,0,0,0-1.75.32,17.78,17.78,0,0,1-10.41.9,3.68,3.68,0,0,0-.58-.05c-1.18,0-5.6,0-8,.85a3.29,3.29,0,0,1-1.46.17A20,20,0,0,1,172.22,64a7.75,7.75,0,0,0-8.51,1.92,3.15,3.15,0,0,1-2,1.19h-.74c.06.75.16,2.67-.34,2.8s-8-2.43-12.2-2.11a3.49,3.49,0,0,0-2.89,2,11,11,0,0,0-.72,1.93,3.23,3.23,0,0,0-.06,1.24c.2,1.58.37,6.53-5.95,4.69a3.15,3.15,0,0,1-1.05-.53c-1-.75-3.33-2.21-2.84,1.11,0,0,6.14,11.21,2.38,17.33a4.32,4.32,0,0,0-.34.68l-1.11,3.07a3.56,3.56,0,0,1-2.86,2.33c-1.93.27-5.91.46-8.33.64a3.5,3.5,0,0,1-1.76-.27,0,0,0,0,1,0,0h0a3.86,3.86,0,0,0,1.5-.81c1.84-1.6,4.66-2.26,6.59-2.53a3.56,3.56,0,0,0,2.86-2.33l1.11-3.07a4.32,4.32,0,0,1,.34-.68c3.76-6.12-2.38-17.33-2.38-17.33-.49-3.32,1.85-1.86,2.84-1.11a3.15,3.15,0,0,0,1.05.53c6.32,1.84,6.15-3.11,5.95-4.69a3.23,3.23,0,0,1,.06-1.24,11,11,0,0,1,.72-1.93,3.49,3.49,0,0,1,2.89-2c4.18-.32,11.69,2.23,12.2,2.11s.4-2.05.34-2.8h.74a3.15,3.15,0,0,0,2-1.19A7.75,7.75,0,0,1,170.22,61a20,20,0,0,0,5.58,1.34,3.29,3.29,0,0,0,1.46-.17c2.37-.85,6.79-.86,8-.85a3.68,3.68,0,0,1,.58,0,17.78,17.78,0,0,0,10.41-.9,3.64,3.64,0,0,1,1.75-.32A56.07,56.07,0,0,1,213.1,64l1.46.6a3.45,3.45,0,0,1,2,2.25C216.69,67.19,217.13,67.56,217.75,67.92Z"/></g><path class="cls-3" d="M312.93,304.07c-1.68-10-4.49-19.9-9-28.41-3.88-7.29-9-13.54-15.85-17.86a31.81,31.81,0,0,1,5,1.74l.15.07a63.09,63.09,0,0,1,9.79,5.73c-.18-.15-.36-.28-.54-.41a58.45,58.45,0,0,0-7.38-4.46l-.64-.31c-1.35-.68-2.76-1.31-4.23-1.91a81.12,81.12,0,0,0-13.79-4.19l-29.68-7.64L206.21,236a.09.09,0,0,0,0,.05c0,.16,0,.31,0,.47a0,0,0,0,1,0,0s0,.1,0,.16,0,.12,0,.19l0,.28c0,.06,0,.12,0,.18s0,.09,0,.14c0,.34.07.74.09,1.17s.05.8.06,1.19,0,.73,0,1.09,0,.65,0,1c0,.15,0,.31,0,.46,0,.47,0,.92-.08,1.37a9,9,0,0,1-.08.91c0,.3-.06.59-.1.88s-.07.58-.12.86c-3.77,23.7-32.52,25-32.86,25-1.52,0-3,0-4.36-.06l-.75,0-1.23-.08-.26,0h-.12c-22.84-1.72-27.9-14.5-28.94-24.59a77.36,77.36,0,0,1-.2-9.2,19.41,19.41,0,0,0,0-2.11s-5,1.06-16.52,3.27a58.06,58.06,0,0,0,.19,8c1.35,14.4,8.26,23.44,16.5,29.13,14.47,10,33.08,9.58,33.08,9.58,15.63.18,26.32-3.85,33.62-9.58,11.26-8.83,14.47-21.68,15.35-29.27a39.79,39.79,0,0,0,.31-6.27c.25,2.19.38,4.27.41,6.27.24,13.65-4.25,22.94-10.59,29.27-14.45,14.42-38.54,13.46-38.54,13.46-19.24-.24-31.25-5.95-38.71-13.46-9.21-9.26-11.48-21.27-11.87-29.13a49.34,49.34,0,0,1,.23-8c-9.63,1.83-23.8,4.48-43.34,8l-7.64,1.35a134.34,134.34,0,0,0-26.77,7.6l-.26.11a77.27,77.27,0,0,0-18.48,10.36l-.23.17a39.82,39.82,0,0,0-8.84,9.58c-.41.65-.8,1.31-1.16,2,0,0-4.5,8.79-8.42,26.4-1.09,4.88-2.13,10.44-3,16.68,0,.1,0,.2,0,.29A279.56,279.56,0,0,0,0,357.79H63.68c.42-.93,2.13-16,3.11-24.78l.68-6.26-.1,6.26L67,357.78l197.86,0c.46-1.33,2.14-16.07,3.1-24.73l.68-6.26-.1,6.26-.4,24.73h45.71A206.4,206.4,0,0,0,315.19,333,179.44,179.44,0,0,0,312.93,304.07Z"/><g id="orange_stripes"><path class="cls-4" d="M132.46,275.66H14.91a39.76,39.76,0,0,1,9.19-9.58l.23-.17a85.57,85.57,0,0,1,18.48-10.36l.26-.11A121.78,121.78,0,0,1,73.83,247l3.65-.52.49-.07,37.47.09h.06l5.09,0C121,254.39,123.25,266.4,132.46,275.66Z"/><path class="cls-4" d="M219.58,246.39c-.88,7.59-4.09,20.44-15.35,29.27h-66.7c-8.24-5.69-15.15-14.73-16.5-29.13l16.57,0c1,10.09,6.1,22.87,28.94,24.59h.12l.26,0,1.23.08.75,0c1.39.06,2.84.08,4.36.06.34,0,29.09-1.28,32.86-25Z"/><path class="cls-4" d="M303.9,275.66H209.71c6.34-6.33,10.83-15.62,10.59-29.27l19.82,0h7.32l.23.13c12.54,3,28.69,5.74,42.56,11.7,1,.41,1.92.84,2.85,1.29a31.81,31.81,0,0,0-5-1.74C294.86,262.12,300,268.37,303.9,275.66Z"/><path class="cls-4" d="M313.27,275.66h-.12a48.59,48.59,0,0,0-9.61-9.93l.39.29.41.32c.26.2.52.4.77.61l.75.62a42.44,42.44,0,0,1,4.65,4.54l.72.85Q312.31,274.27,313.27,275.66Z"/><path class="cls-4" d="M268.51,333l.1-6.26-.68,6.26H67.37l.1-6.26L66.79,333H1.34c.26-2.62.69-7.13,1.28-12,0-.09,0-.19,0-.29.75-6.15,1.73-12.78,2.92-16.68h.1c5.77,0,253.71,0,307.25,0A179.44,179.44,0,0,1,315.19,333Z"/><path class="cls-4" d="M323.11,304.14c.44.77,1.16,7.88,1.59,12.11C324.26,312.3,323.74,308.24,323.11,304.14Z"/><path class="cls-4" d="M326,331.28c-.25-3.79-.57-7.82-1-12C325.35,321.57,325.88,328,326,331.28Z"/></g><g id="shirt_shade"><path class="cls-5" d="M220.3,246.39c.24,13.65-4.25,22.94-10.59,29.27-14.45,14.42-38.54,13.46-38.54,13.46-19.24-.24-31.25-5.95-38.71-13.46-9.21-9.26-11.48-21.27-11.87-29.13a49.34,49.34,0,0,1,.23-8h0a58.06,58.06,0,0,0,.19,8c1.35,14.4,8.26,23.44,16.5,29.13,14.47,10,33.08,9.58,33.08,9.58,15.63.18,26.32-3.85,33.62-9.58,11.26-8.83,14.47-21.68,15.35-29.27a39.79,39.79,0,0,0,.31-6.27C220.14,242.31,220.27,244.39,220.3,246.39Z"/><path class="cls-5" d="M326.77,349.05v.12a60.27,60.27,0,0,1-.67,8.38l-8.71.17h-3.57A206.4,206.4,0,0,0,315.19,333a179.44,179.44,0,0,0-2.26-28.93c-1.68-10-4.49-19.9-9-28.41-3.88-7.29-9-13.54-15.85-17.86a31.81,31.81,0,0,1,5,1.74l.15.07a63.09,63.09,0,0,1,9.79,5.73,2.14,2.14,0,0,1,.26.19l.26.2a48.59,48.59,0,0,1,9.61,9.93,51.87,51.87,0,0,1,6.15,11.16s0,.05,0,.08a47.72,47.72,0,0,1,2,7.24c.66,3.32,1.24,6.65,1.74,10,0,0,0,0,0,0,.63,4.1,1.15,8.16,1.59,12.11l.06.54c0,.29.05.55.08.8,0,.4.08.75.11,1s0,.34.05.46,0,.13,0,.18c.43,4.2.75,8.23,1,12a1.41,1.41,0,0,1,0,.2C326.49,338.43,326.69,344.5,326.77,349.05Z"/><path class="cls-5" d="M67.47,326.74l-.1,6.26L67,357.78H63.68c.42-.93,2.13-16,3.11-24.78Z"/><path class="cls-5" d="M268.61,326.74l-.1,6.26-.4,24.73h-3.28c.46-1.33,2.14-16.07,3.1-24.73Z"/></g><path id="mouth" class="cls-6" d="M221.73,176.67s-21,16.2-32.23.93c0,0-8.9-13.84,13.41-21.75C202.91,155.85,208.15,173.65,221.73,176.67Z"/><g id="nose"><path class="cls-7" d="M223.33,153.37l-5.74,1.14S216.74,150.7,223.33,153.37Z"/><path class="cls-7" d="M230.08,157.84c5.78-7.19.22-12.54.22-12.54-6.85-5.88-15.18,1.29-15.55,1.62,8.76-10.22,16.1-4.95,16.1-4.95C239.9,149.08,230.49,157.48,230.08,157.84Z"/></g><g id="freckles"><path class="cls-7" d="M197.23,142a.59.59,0,0,1-.6.6.6.6,0,0,1-.6-.6.6.6,0,0,1,.6-.6A.6.6,0,0,1,197.23,142Z"/><path class="cls-7" d="M189.44,148.11a1,1,0,1,1-1-1A1,1,0,0,1,189.44,148.11Z"/><path class="cls-7" d="M177.14,139.93a.9.9,0,1,1-.9-.89A.9.9,0,0,1,177.14,139.93Z"/><path class="cls-7" d="M225.73,128.31a.83.83,0,1,1-.83-.82A.83.83,0,0,1,225.73,128.31Z"/><path class="cls-7" d="M249.87,138.74a.75.75,0,1,1-.75-.75A.75.75,0,0,1,249.87,138.74Z"/><path class="cls-7" d="M261.42,142.11a.83.83,0,1,1-.83-.83A.83.83,0,0,1,261.42,142.11Z"/><path class="cls-7" d="M250.32,153.28a1.2,1.2,0,1,1-1.2-1.2A1.2,1.2,0,0,1,250.32,153.28Z"/><path class="cls-7" d="M272.36,137.09a.6.6,0,1,1-1.2,0,.6.6,0,1,1,1.2,0Z"/><path class="cls-7" d="M169,148.41a1.13,1.13,0,0,1-2.25,0,1.13,1.13,0,1,1,2.25,0Z"/><path class="cls-7" d="M152.1,133.26a.68.68,0,1,1-1.35,0,.68.68,0,0,1,1.35,0Z"/></g><g id="eyes"><g id="eye_whites"><path class="cls-6" d="M217.58,109.58c-1.6,8.89-8.05,22.1-32.41,20.88,0,0-26.45-.42-29-24.45,0,0,0-.08,0-.12a7.6,7.6,0,0,1,0-1c1.28-2.24,8.12-3,15.16-3.23a7.25,7.25,0,0,0-1.15,1,6,6,0,0,0-1.58,4.12c0,4.77,5.33,8.65,11.86,8.65s11.86-3.88,11.86-8.65a5.81,5.81,0,0,0-1.34-3.74,6.69,6.69,0,0,0-1-1c18.2.38,25.72,2.39,26.86,2.72h0v0a6.08,6.08,0,0,1,.47,1A7,7,0,0,1,217.58,109.58Z"/><path class="cls-6" d="M292,108.13c-.76,5.21-3.12,12-9.88,16.45a26.91,26.91,0,0,1-8.58,3.66,43.36,43.36,0,0,1-10,1.18s-23.8-.08-26.32-20.37a5.37,5.37,0,0,1,0-1.5c1.34-.89,5-1.49,9.54-1.89a5,5,0,0,0-1.23,3.46c.09,1.81,1.34,3.53,3.4,4.73a13.83,13.83,0,0,0,7,1.67l1.09,0c6.72-.37,9.66-3.81,9.66-7.16,0-.11,0-.21,0-.32a5.27,5.27,0,0,0-1.24-3.11l5.24,0c3.61,0,6,0,6,0,.67,0,1.31,0,1.93,0C289,104.75,291.54,107.43,292,108.13Z"/></g><g id="eyes-2" data-name="eyes"><path class="cls-8" d="M212.45,101.11l-49-3.9c-8,.69-7.56,8.31-7.56,8.31a.9.9,0,0,1,.07-.27s0,0,0,0a1.85,1.85,0,0,1,.13-.29c1.28-2.24,8.12-3,15.16-3.23a7.25,7.25,0,0,0-1.15,1,6,6,0,0,0-1.58,4.12c0,4.77,5.33,8.65,11.86,8.65s11.86-3.88,11.86-8.65a5.81,5.81,0,0,0-1.34-3.74,6.69,6.69,0,0,0-1-1c18.2.38,25.72,2.39,26.86,2.72h0l.14,0C215.81,102.21,212.45,101.11,212.45,101.11Zm-37.71,5.56a1.71,1.71,0,1,1,1.7-1.71A1.7,1.7,0,0,1,174.74,106.67Z"/><path class="cls-8" d="M286.3,100.62l-8.63.34-7.75.31-27.3,1.09a5.88,5.88,0,0,0-5.37,4.25,1.46,1.46,0,0,1,.22-.2l.06,0c1.32-.91,5.39-1.49,10.43-1.86a7.25,7.25,0,0,0-1.19,1.15,5,5,0,0,0-1.23,3.46c.09,1.81,1.34,3.53,3.4,4.73a13.83,13.83,0,0,0,7,1.67l1.09,0c6.72-.37,9.66-3.81,9.66-7.16,0-.11,0-.21,0-.32a5.27,5.27,0,0,0-1.24-3.11,5.71,5.71,0,0,0-1-1l6.07,0c3.72,0,6.2,0,6.2,0,.59,0,1.15,0,1.7,0,12.15-.19,13.77,3.43,13.77,3.43.05-.28.09-.55.11-.8C292.66,101.07,286.3,100.62,286.3,100.62Zm-35.05,8.1a1.62,1.62,0,1,1,1.61-1.61A1.61,1.61,0,0,1,251.25,108.72Z"/></g><g id="eye_shade"><path class="cls-9" d="M171.27,101.71a7.25,7.25,0,0,0-1.15,1c-6.57.24-12.7,1-14,3.14a1.66,1.66,0,0,0-.23.63,7.42,7.42,0,0,1,.07-1.27s0,0,0,0a1.85,1.85,0,0,1,.13-.29C157.39,102.7,164.23,101.9,171.27,101.71Z"/><path class="cls-9" d="M217.4,105.9l-.15,0c-1.13-.32-8.76-2.3-26.33-2.73a6.69,6.69,0,0,0-1-1c18.2.38,25.72,2.39,26.86,2.72l0,0v0A4.54,4.54,0,0,1,217.4,105.9Z"/><path class="cls-9" d="M248,104.51a7.25,7.25,0,0,0-1.19,1.15c-4.56.4-8.2,1-9.54,1.89a2.11,2.11,0,0,0-.22.17,5.34,5.34,0,0,1,.46-1.31l.06,0C238.85,105.46,242.92,104.88,248,104.51Z"/><path class="cls-9" d="M292.13,107.3c0,.27-.07.55-.1.83-.49-.7-3.06-3.38-13.44-3.26-.62,0-1.26,0-1.93,0,0,0-2.39,0-6,0l-5.24,0a5.71,5.71,0,0,0-1-1l6.07,0c3.72,0,6.2,0,6.2,0,.59,0,1.15,0,1.7,0C290.51,103.68,292.13,107.3,292.13,107.3Z"/></g><g id="eye_highlights"><path class="cls-6" d="M176.44,105a1.71,1.71,0,1,1-1.7-1.7A1.7,1.7,0,0,1,176.44,105Z"/><path class="cls-6" d="M252.86,107.11a1.61,1.61,0,1,1-1.61-1.62A1.61,1.61,0,0,1,252.86,107.11Z"/></g></g><path id="hair" class="cls-10" d="M292.5,59c-1.65-3.17-4.91-6.24-7.25-6.38-4.95-.31,0-.43-6.35,5s-9.19.22-5.45-2.82,2.05-5.27,1.31-7.82c.44,1.87.88,6.58-5.62,7.38,0,0-6.35-1.52-10.53-.34a6,6,0,0,0-2.23,1.1,5.4,5.4,0,0,1,1.6-1.89c1.54-1.21,4.41-2.5,9.51-2.07,9.14.77,2.2-7.15,2.2-7.15s-4.4-5.4,3.63-5.84c0,0,8.21-1.83,7.62-7.75a0,0,0,0,0,0,0,9,9,0,0,0-1.87-2.23c-5.57-4.95-11.74-4.88-12.39-.46-1.09,7.51-7.15,3.27-4.93,8.52,1.88,4.44-12.72,0-3.58-9.45a26.12,26.12,0,0,0,5.25-7,3.6,3.6,0,0,0-2.26-4.88c-3.56-1.08-11.07-3-10.12.59,1.24,4.64-7.06.76-4.63,7.63,1.06,3-1.83,5.26-3.74,3.12,4.39,4.91-5.46,5.57-8.86,4.36a3.2,3.2,0,0,0-3.2.74c-1.8,1.52-2.8,4.59-1.64,6.41,1.49,2.33-2.88,4.43-7.87,3.47a14.16,14.16,0,0,1-2.7-.83s.35,0,.9,0c2.24,0,7.81-.37,5.59-4.09-1.48-2.48-.38-5.15,1.7-6.9h0a7.48,7.48,0,0,1,6.55-1.69c4.84,1.32,7.71-2.31,3.63-5.06s2.1-6.5,4-7.82c1.44-1,3.14-1.12,3.9-1.56.2-.29.34-.47.38-.52h0c.16-.53,0-.8-.86-.75-6.86.41-4.13-7.36-11.25-9.22-6.55-1.71-9.78,10.34-8.56,12.53.58-.71,2.88-3,6.47.19,4.18,3.75-3.3,8.26-6.39,8.26-2.2,0-6.43-.62-9,1.47a6,6,0,0,0-2.1,4c-.58,3.92-1.19,6.16-2.73,7.07-1.08.66-2.64.64-5,.09a10.25,10.25,0,0,0,2.43-1.35c1.15-.87,2.09-2.15,1.2-3.71s0-4.79,2-7.28h0c1.87-2.3,4.72-4,8-3.29,7.71,1.65,10-1.83,10.35-3.2.42-1.8-3-2.37-5.14-2.12a.51.51,0,0,0,.31.17c6.46.81,1.44,6.43-1.21,4.44-5.65-4.24-4.57,4.22-9.09-6.46-1.21-2.87-.31-15-5.65-9.69-4.24,4.24-14.13-3.84-10,7.21,1,2.79,1,13.15-1.92,6.92-4.24-9.09-9.89-.4-7.87-4.85,3-6.66,1.64-18.83-4.77-10.28-4.52,6-17.44-5.87-8.67,13,1.35,2.89-5.75-.71-3.93,4.75.66,2-8.22,5.27-7.06-4.44s-4.15-11.4-6.06-8.49c-.95,1.44-6.8-1.8-9.09-.2-4.14,2.9-1.71,8.7,0,13.45,1.06,2.9.3.64,0,3.71-.4,3.84.77,3.39-2,3.23-2.55-.14-1.91-3-2-3.83,0-.1-2.6.5-2.62.4-.27-1.35-5-3.71-5.91-4.86s0-4.34-6.66-5.42S116,16.42,117.4,24.78s3.72,8.67,5.73,7.74,3.41-1.86,6.81,1.24,2.48,5,1.4,5.11-4.6-3.5-5.68-.41c-.84,2.4-3.76.65-3.44-.81.63-2.74-2.91,2.12-3.23,1.82-2.27-2.19-3.24,1.21-6.3.12a3.57,3.57,0,0,0-2.26-.05,37.25,37.25,0,0,0-6.81,3.35c-2,1.29-3.23,6.58,3.87,12.39,1.24,1-.16,2.94,10.37,1.86s1.71,2.94,1.71,2.94c-2.17,1.71-12.08,1.09-12.24,1.09a14.84,14.84,0,0,0-9.44,3.71c-2.32,3.56,7.43,8.05,7.43,8.05-.23,6.53,4.3,3.41,7.7.4a3.62,3.62,0,0,1,2.45-1c4.26.06-.32,2.17-.62,3.92-.11.71-.23,3.83-.72,4.34-3.38,3.56,2.14,13.07,2.62,17.06A3.56,3.56,0,0,0,118,100l1.58,1.33a3.54,3.54,0,0,0,3.23.69h0a3.86,3.86,0,0,0,1.5-.81c1.84-1.6,4.66-2.26,6.59-2.53a3.56,3.56,0,0,0,2.86-2.33l1.11-3.07a4.32,4.32,0,0,1,.34-.68c3.76-6.12-2.38-17.33-2.38-17.33-.49-3.32,1.85-1.86,2.84-1.11a3.15,3.15,0,0,0,1.05.53c6.32,1.84,6.15-3.11,5.95-4.69a3.23,3.23,0,0,1,.06-1.24,11,11,0,0,1,.72-1.93,3.49,3.49,0,0,1,2.89-2c4.18-.32,11.69,2.23,12.2,2.11s.4-2.05.34-2.8h.74a3.15,3.15,0,0,0,2-1.19A7.75,7.75,0,0,1,170.22,61a20,20,0,0,0,5.58,1.34,3.29,3.29,0,0,0,1.46-.17c2.37-.85,6.79-.86,8-.85a3.68,3.68,0,0,1,.58,0,17.78,17.78,0,0,0,10.41-.9,3.64,3.64,0,0,1,1.75-.32A56.07,56.07,0,0,1,213.1,64s3.31-2.64,9.14.33,5-4,.11-6.27c-2.9-1.38-2.48-4.39-.64-6.58a6.9,6.9,0,0,1,5-2.56c4.42,0,5.45.28,5.34-2.87,0-.29,0-.62-.06-1-.33-4.19,5.5-2,7.27-3.42,1.31-1.06,2.62-2.06,2.52-3.5a3.45,3.45,0,0,0-.64-1.66c.28.14,4.86,2.57,4.58,4.63-.12.86-1.06,1.65-3.49,2.19-7.39,1.63-5.75,2.17-5.87,4.55a4.44,4.44,0,0,1-.19,1.17,2.72,2.72,0,0,0,.26,2c1.15,2.4,4.15,4-6.2,3.66-13-.44,2.64,4.62-.33,9.13s-7.27,4.74-9.8,3-4.51-3.2-7.05-2.76l1.46.6a3.45,3.45,0,0,1,2,2.25c.1.39.54.76,1.16,1.12a14.87,14.87,0,0,0,1.54.74c2,.83,4.4,1.6,5.1,2.31.28.28.54.54.79.77a9.3,9.3,0,0,0,2,1.53c2.11,1.08,3.54-.22,6-3.51a18.7,18.7,0,0,1,3.53-3.48c3.53-2.9,7.57-1.08,9-.3a3.8,3.8,0,0,0,1.19.4l.53.11.26.05.2.06.69.19c.27.08.53.17.79.27a17.31,17.31,0,0,0-3-.91s7-.42,10.63,2.45a4.19,4.19,0,0,0,3,1.18,2.48,2.48,0,0,0,1.92-1.5,7.13,7.13,0,0,1,3.84-1.77,5.1,5.1,0,0,1,1.5.07h0a5.24,5.24,0,0,1,2,.84c3.83,2.55,8.08-2.77,8.08-2.77a13.38,13.38,0,0,1,10-1.91s5.84-.53,2.56-6.9A16.12,16.12,0,0,1,292.5,59ZM208.59,10.45c2.31-2,1.21-4.29-.11-4.73,0,0,5.28-2.1,3.08,6.38,0,0-1.87,2.42-.44,4.84s1.1,5.95-2.31,6.06c0,0,3-1.1.66-4.51S206.28,12.43,208.59,10.45Zm-47.67-3.3s4.62,1.1,2.42,10.12,5.51,8,6.83,7.49c0,0-10.68,5.51-11-4.62S164.22,16.5,160.92,7.15ZM131,23.66c1-1.87,1.21-5.61-5-7.27-1.61-.43,11-.11,8.37,5.84s1.87,7.93,3.52,8.59.88,5.15-2.51,6c.26-.23,3.64-3.36-1.34-5.16C128.88,29.83,130,25.53,131,23.66Zm1.76,66.05c-5.29,5.07-2,4.52-3.09,6.61s-5.17,3.52-6.71,2c0,0,5.72-.44,4.07-4s1.65-4.63,3.53-6.5,2.09-9.26-.73-14C130.57,74.85,137.75,84.91,132.74,89.71Zm-1-22.34a5.3,5.3,0,0,0-2.44-2.14,3.13,3.13,0,0,0-2.33.06h0a7.82,7.82,0,0,0-3.6,4c-2.09,4.4-3.08,1.54-9.36.11s-5.5,3.52-5.5,3.52c-2.43-1.87-1.43-8.92,3.85-7.15s5.06,3.3,8.26-2c2.35-3.89,5.3-5.1,8.06-2.9h0a9,9,0,0,1,1.69,1.8,15.75,15.75,0,0,1,1.15,1.86c3.41,6.39,5.83,5.18,5.83,5.18C136,71.66,134.5,71.44,131.75,67.37Zm8.89-11.83A31.42,31.42,0,0,0,136,51.28l-.13-.1c-9.14-6.93-2.86-1.76-16.84,1.43-12.46,2.85-13-3.39-13.14-5a1.32,1.32,0,0,0,0-.23c1.55,4.3,3.75,4.52,6.91,3.75s-1.43-1.76,5.5-.44,2.1-2.31,7.27-5.94c4.22-3,9-.51,12.8,4a28.9,28.9,0,0,1,2.39,3.36,13.35,13.35,0,0,0,2.58,3.23,3.31,3.31,0,0,0,2.65,1C142.15,58.37,143,58.18,140.64,55.54Zm5.26.87c.34-.19.72-.38,1.15-.6A2,2,0,0,1,145.9,56.41ZM143.2,38c-2.15.34-2.89,4.57-1,7a4.23,4.23,0,0,0,1.94,1.45l.3.1a9.49,9.49,0,0,1-2.8-1c-2.48-1.42-5-4.6-.18-11.41,0,0,3.53-1.1,1.22-3.52s.33-6.06,2.31-6c0,0-2.09,4.29,1.65,5.18S146,37.53,143.2,38Zm15.31,28.49c.32-1.66.52-4.28-3.53-5.81-3.14-1.18-5.36-3.41-5.61-5.58a3.27,3.27,0,0,1,.32-1.91c1.32-2.64,6.17.33,4.85,1.33a4.54,4.54,0,0,1-.51.32c-1.54.88-4.07,1.8.84,3.86C160,60.83,158.66,66.05,158.51,66.46Zm15.07-7.9a6.26,6.26,0,0,0-2.34-4.66c-1.64-1.43-4.31-2.56-8.45-2.72-8.48-.33-7.37-4.62-5.39-8s2.53-4.08-2.42-3.53a5.26,5.26,0,0,1-4.31-1.5c-2.16-2.08-2.72-5.93.34-9.07,4.63-4.73,7.16.33,7.16.33-1.32-2.42-9.91,2.65-3.08,5.18l.61.22c6.31,2.31,7.84,2.38,7.31,4.73s-9.91,6.5,3.3,8.15c6.48.81,8.36,3.53,8.58,6.05A7.63,7.63,0,0,1,173.58,58.56Zm10-5.3a16.54,16.54,0,0,0,.34,1.67c1.54,5.83-7.16,7.26-7.16,7.26,5-2.09,5.07-2.53,4.63-8.59a1.85,1.85,0,0,1,0-.23c-.3-5.76,4.41-3.62,4.41-3.62S183.09,49.22,183.59,53.26ZM185,31.15c-7.07.54-6.74,9.81-4.89,11.13-.93-.54-5.36-3.52-2.49-9.26,3.2-6.39,6.94-2.53,7.6-4.41s-2.52-1.77-3.62-4.14a1.23,1.23,0,0,1-.12-.26c-1-2.64,2.2-8.7,4.18-10.46S189.65,3.4,188,.54c0,0,3.86,2.86-.33,14-2,5.27-2.08,7.89-1.65,9.19A1.58,1.58,0,0,0,187.67,25C189,25.64,192.3,30.6,185,31.15Zm13,9.24c-1.1,2.65-7.37,3-3,6.94a7.94,7.94,0,0,1,2.51,5.23,10.64,10.64,0,0,1-.64,5.23,9.75,9.75,0,0,0-1.27-5.14,5,5,0,0,0-1.81-1.8c-2.75-1.54-7.82-5.83-1-9.13s2.09-7.27,2.09-7.27C198.68,35.77,199.12,37.75,198,40.39Zm-3-24.22s.88,5.18,4.29,6.06C199.34,22.23,194.61,25.42,195.05,16.17Zm57.14,19s-.11,2.75-7.38-.44c0,0,6.06,1.54,4.51-3.3s5.29-5.62,6.94-7.93,1.76-3.19,4.29-3.3,2.32-3.75,2.32-3.75a2.46,2.46,0,0,1,.18.35c.42,1,1,3.86-4.15,7.69C252.52,29.27,251.31,32.69,252.19,35.22Z"/><g id="dark_hair"><path class="cls-11" d="M292.53,65.2a5.6,5.6,0,0,1-4.68.93h0l-.4-.08a12.57,12.57,0,0,0-9.15,2.55l-.26.25a0,0,0,0,0,0,0c-1.07,1-5,4.36-8.18,3.5h0l-.32-.1-.09,0A2.6,2.6,0,0,1,269,72a2.26,2.26,0,0,1-.26-.16h0l-.1-.06a.27.27,0,0,1-.1-.06h0c-.2-.12-.37-.23-.55-.32l-.19-.11-.14-.07-.18-.08c-1-.36-2.83-.72-3.65.74a1.19,1.19,0,0,0-.08.2,3.05,3.05,0,0,1-.13.32s0,0,0,0l0,.1a5.36,5.36,0,0,1-1.36,2.64c-.89.77-2.2.62-4.22-1.35l0,0a5.38,5.38,0,0,1-1.9-2,3,3,0,0,0-.41-.58l-.12-.13-.14-.14-.16-.17-.18-.18a16.11,16.11,0,0,0-2.3-1.86c-.21-.15-.44-.29-.67-.43l-.4-.24c-.14-.09-.28-.16-.43-.24s-.33-.17-.51-.25l-.53-.25c-.24-.11-.49-.21-.74-.3a17.31,17.31,0,0,0-3-.91s7-.42,10.63,2.45a4.19,4.19,0,0,0,3,1.18,2.48,2.48,0,0,0,1.92-1.5,7.13,7.13,0,0,1,3.84-1.77,5.1,5.1,0,0,1,1.5.07h0a5.24,5.24,0,0,1,2,.84c3.83,2.55,8.08-2.77,8.08-2.77a13.38,13.38,0,0,1,10-1.91s5.84-.53,2.56-6.9A16.12,16.12,0,0,1,292.5,59l0,0C293.66,61,294.36,63.32,292.53,65.2Z"/><path class="cls-11" d="M279.49,37.64s-.56.51-1.31,1.3l-.08.09a22.68,22.68,0,0,0-2.45,3.09.61.61,0,0,0-.07.1,5.86,5.86,0,0,0-.85,1.64l0,.09a5,5,0,0,0,0,2.82c0,.07,0,.14.06.23.44,1.87.88,6.58-5.62,7.38,0,0-6.35-1.52-10.53-.34a6,6,0,0,0-2.23,1.1,5.4,5.4,0,0,1,1.6-1.89c1.54-1.21,4.41-2.5,9.51-2.07,9.14.77,2.2-7.15,2.2-7.15s-4.4-5.4,3.63-5.84c0,0,8.21-1.83,7.62-7.75a0,0,0,0,0,0,0,.71.71,0,0,0,0-.14S283.45,32.69,279.49,37.64Z"/><path class="cls-11" d="M275.58,42.22a9.87,9.87,0,0,0-.85,1.64A5.86,5.86,0,0,1,275.58,42.22Z"/><path class="cls-11" d="M245.77,41.07c-.12.86-1.06,1.65-3.49,2.19-7.39,1.63-5.75,2.17-5.87,4.55a4.44,4.44,0,0,1-.19,1.17,2.72,2.72,0,0,0,.26,2c1.15,2.4,4.15,4-6.2,3.66-13-.44,2.64,4.62-.33,9.13s-7.27,4.74-9.8,3-4.51-3.2-7.05-2.76c0,0,3.31-2.64,9.14.33s5-4,.11-6.27c-2.9-1.38-2.48-4.39-.64-6.58a6.9,6.9,0,0,1,5-2.56c4.42,0,5.45.28,5.34-2.87,0-.29,0-.62-.06-1-.33-4.19,5.5-2,7.27-3.42,1.31-1.06,2.62-2.06,2.52-3.5a3.45,3.45,0,0,0-.64-1.66C241.47,36.58,246.05,39,245.77,41.07Z"/><path class="cls-11" d="M258.9,24.54c-6.38,4.73-7.59,8.15-6.71,10.68,0,0-.11,2.75-7.38-.44,0,0,6.06,1.54,4.51-3.3s5.29-5.62,6.94-7.93,1.76-3.19,4.29-3.3,2.32-3.75,2.32-3.75a2.46,2.46,0,0,1,.18.35C263.47,17.81,264.07,20.71,258.9,24.54Z"/><path class="cls-11" d="M242.66,26.24c4.39,4.91-5.46,5.57-8.86,4.36a3.2,3.2,0,0,0-3.2.74c-1.8,1.52-2.8,4.59-1.64,6.41,1.49,2.33-2.88,4.43-7.87,3.47l-1.8-.81c2.24,0,7.81-.37,5.59-4.09-1.48-2.48-.38-5.15,1.7-6.9h0a7.48,7.48,0,0,1,6.55-1.69c4.84,1.32,7.71-2.31,3.63-5.06s2.1-6.5,4-7.82c1.44-1,3.14-1.12,3.9-1.56-1.4,1.89-5.69,8.41-2.24,12.63a1.65,1.65,0,0,0,.21.27Z"/><path class="cls-11" d="M221.09,41.22a14.16,14.16,0,0,1-2.7-.83s.35,0,.9,0Z"/><path class="cls-11" d="M245,12.76a.5.5,0,0,1-.12.29l0,0a.87.87,0,0,1-.25.21c.2-.29.34-.47.38-.52Z"/><path class="cls-11" d="M224.44,23.77c-2.2,0-6.43-.62-9,1.47a6,6,0,0,0-2.1,4c-.58,3.92-1.19,6.16-2.73,7.07-1.08.66-2.64.64-5,.09a10.25,10.25,0,0,0,2.43-1.35c1.15-.87,2.09-2.15,1.2-3.71s0-4.79,2-7.28h0c1.87-2.3,4.72-4,8-3.29,7.71,1.65,10-1.83,10.35-3.2.42-1.8-3-2.37-5.14-2.12a1.11,1.11,0,0,1-.12-.16c.58-.71,2.88-3,6.47.19C235,19.26,227.53,23.77,224.44,23.77Z"/><path class="cls-11" d="M224.48,15.48a2.06,2.06,0,0,0-.26,0l.14-.19A1.11,1.11,0,0,0,224.48,15.48Z"/><path class="cls-11" d="M211.12,16.94c1.43,2.43,1.1,5.95-2.31,6.06,0,0,3-1.1.66-4.51s-3.19-6.06-.88-8,1.21-4.29-.11-4.73c0,0,5.28-2.1,3.08,6.38C211.56,12.1,209.69,14.52,211.12,16.94Z"/><path class="cls-11" d="M199.34,22.23s-4.73,3.19-4.29-6.06C195.05,16.17,195.93,21.35,199.34,22.23Z"/><path class="cls-11" d="M185,31.15c-7.07.54-6.74,9.81-4.89,11.13-.93-.54-5.36-3.52-2.49-9.26,3.2-6.39,6.94-2.53,7.6-4.41s-2.52-1.77-3.62-4.14a1.23,1.23,0,0,1-.12-.26c-1-2.64,2.2-8.7,4.18-10.46S189.65,3.4,188,.54c0,0,3.86,2.86-.33,14-2,5.27-2.08,7.89-1.65,9.19A1.58,1.58,0,0,0,187.67,25C189,25.64,192.3,30.6,185,31.15Z"/><path class="cls-11" d="M195.05,47.33a7.94,7.94,0,0,1,2.51,5.23,10.64,10.64,0,0,1-.64,5.23,9.75,9.75,0,0,0-1.27-5.14,5,5,0,0,0-1.81-1.8c-2.75-1.54-7.82-5.83-1-9.13s2.09-7.27,2.09-7.27c3.74,1.32,4.18,3.3,3.08,5.94S190.65,43.37,195.05,47.33Z"/><path class="cls-11" d="M173.58,58.56a6.26,6.26,0,0,0-2.34-4.66c-1.64-1.43-4.31-2.56-8.45-2.72-8.48-.33-7.37-4.62-5.39-8s2.53-4.08-2.42-3.53a5.26,5.26,0,0,1-4.31-1.5c-2.16-2.08-2.72-5.93.34-9.07,4.63-4.73,7.16.33,7.16.33-1.32-2.42-9.91,2.65-3.08,5.18l.61.22c6.31,2.31,7.84,2.38,7.31,4.73s-9.91,6.5,3.3,8.15c6.48.81,8.36,3.53,8.58,6.05A7.63,7.63,0,0,1,173.58,58.56Z"/><path class="cls-11" d="M170.17,24.76s-10.68,5.51-11-4.62,5.06-3.64,1.76-13c0,0,4.62,1.1,2.42,10.12S168.85,25.31,170.17,24.76Z"/><path class="cls-11" d="M142.17,45a4.23,4.23,0,0,0,1.94,1.45l.3.1a9.49,9.49,0,0,1-2.8-1c-2.48-1.42-5-4.6-.18-11.41,0,0,3.53-1.1,1.22-3.52s.33-6.06,2.31-6c0,0-2.09,4.29,1.65,5.18S146,37.53,143.2,38C141.05,38.31,140.31,42.54,142.17,45Z"/><path class="cls-11" d="M135.4,36.86c.26-.23,3.64-3.36-1.34-5.16-5.18-1.87-4.08-6.17-3.08-8s1.21-5.61-5-7.27c-1.61-.43,11-.11,8.37,5.84s1.87,7.93,3.52,8.59S138.79,36,135.4,36.86Z"/><path class="cls-11" d="M145.89,56.41c-3.74,2-2.9,1.77-5.25-.87A31.42,31.42,0,0,0,136,51.28l-.13-.1c-9.14-6.93-2.86-1.76-16.84,1.43-12.46,2.85-13-3.39-13.14-5a1.32,1.32,0,0,0,0-.23c1.55,4.3,3.75,4.52,6.91,3.75s-1.43-1.76,5.5-.44,2.1-2.31,7.27-5.94c4.22-3,9-.51,12.8,4a28.9,28.9,0,0,1,2.39,3.36,13.35,13.35,0,0,0,2.58,3.23A3.31,3.31,0,0,0,145.89,56.41Z"/><path class="cls-11" d="M147.05,55.81a2,2,0,0,1-1.15.6C146.24,56.22,146.62,56,147.05,55.81Z"/><path class="cls-11" d="M132.74,89.71c-5.29,5.07-2,4.52-3.09,6.61s-5.17,3.52-6.71,2c0,0,5.72-.44,4.07-4s1.65-4.63,3.53-6.5,2.09-9.26-.73-14C130.57,74.85,137.75,84.91,132.74,89.71Z"/><path class="cls-11" d="M137.36,69.79c-1.32,1.87-2.86,1.65-5.61-2.42a5.3,5.3,0,0,0-2.44-2.14,3.13,3.13,0,0,0-2.33.06h0a7.82,7.82,0,0,0-3.6,4c-2.09,4.4-3.08,1.54-9.36.11s-5.5,3.52-5.5,3.52c-2.43-1.87-1.43-8.92,3.85-7.15s5.06,3.3,8.26-2c2.35-3.89,5.3-5.1,8.06-2.9h0a9,9,0,0,1,1.69,1.8,15.75,15.75,0,0,1,1.15,1.86C134.94,71,137.36,69.79,137.36,69.79Z"/><path class="cls-11" d="M185.8,49.75s-2.71-.53-2.21,3.51a16.54,16.54,0,0,0,.34,1.67c1.54,5.83-7.16,7.26-7.16,7.26,5-2.09,5.07-2.53,4.63-8.59a1.85,1.85,0,0,1,0-.23C181.09,47.61,185.8,49.75,185.8,49.75Z"/><path class="cls-11" d="M158.51,66.46c.32-1.66.52-4.28-3.53-5.81-3.14-1.18-5.36-3.41-5.61-5.58a3.27,3.27,0,0,1,.32-1.91c1.32-2.64,6.17.33,4.85,1.33a4.54,4.54,0,0,1-.51.32c-1.54.88-4.07,1.8.84,3.86C160,60.83,158.66,66.05,158.51,66.46Z"/></g></svg>