<svg id="Layer_1" data-name="Layer 1" xmlns="http://www.w3.org/2000/svg" viewBox="0 0 310.96 364.63"><defs><style>.cls-1{fill:none;}.cls-2{fill:#e2ab90;}.cls-3{fill:#d8967c;}.cls-4{fill:#70cde2;}.cls-5{fill:#f89749;}.cls-6{fill:#4fbdd6;}.cls-7{fill:#fff;}.cls-8{fill:#231f20;}.cls-9{fill:#010101;}.cls-10{fill:#d8d9da;}.cls-11{fill:#512e18;}.cls-12{fill:#381e12;}</style></defs><rect class="cls-1" width="310.96" height="364.63"/><path id="skin" class="cls-2" d="M259.92,146.23a41.23,41.23,0,0,1-9.51,1.12s-22.56-.08-24.95-19.31a4.81,4.81,0,0,1,0-1.42,1.16,1.16,0,0,0-.21.16,4.74,4.74,0,0,1,.44-1.24.78.78,0,0,0-.21.19,5.57,5.57,0,0,1,5.09-4l25.88-1A169.41,169.41,0,0,0,249.89,98a2.28,2.28,0,0,1-.88.09,4.85,4.85,0,0,1-3.85-2.53,3.19,3.19,0,0,0-.39-.55,15.16,15.16,0,0,0-8.2-4.61,3.68,3.68,0,0,1-1.13-.38c-1.31-.74-5.14-2.47-8.48.28a17.85,17.85,0,0,0-3.35,3.3c-3,4-4.4,3.64-7.61.48a8.42,8.42,0,0,1-1.94-1.45c-.24-.21-.49-.46-.75-.73-.67-.67-3-1.4-4.84-2.19a12.49,12.49,0,0,1-1.46-.7,8.74,8.74,0,0,1-1.12-.35,54.68,54.68,0,0,0-15.73-4.17,3.4,3.4,0,0,0-1.66.31,16.9,16.9,0,0,1-9.87.85,3.31,3.31,0,0,0-.55,0c-1.11,0-5.3,0-7.55.81a3.09,3.09,0,0,1-1.38.16,19.25,19.25,0,0,1-5.29-1.27,7.34,7.34,0,0,0-8.07,1.82,3,3,0,0,1-1.93,1.13h-.7c.05.71.15,2.53-.33,2.65s-7.6-2.3-11.56-2a3.3,3.3,0,0,0-2.74,1.92,10.18,10.18,0,0,0-.68,1.83,2.93,2.93,0,0,0-.06,1.18c.19,1.5.35,6.19-5.64,4.44a2.94,2.94,0,0,1-1-.5c-.93-.71-3.15-2.09-2.69,1,0,0,5.82,10.63,2.26,16.43a3.92,3.92,0,0,0-.32.65l-1.06,2.91a3.35,3.35,0,0,1-2.71,2.2c-1.83.26-5.6.44-7.89.61a3.37,3.37,0,0,1-1.67-.25c0,4.56.05,9.23.21,13.83-3.68-2.5-12-7.22-16.32-2.3,0,0-6.6,9.9,7.26,24.9,0,0,5.69,9.49,11,7.3,1.1,12,2.21,20.27,2.21,20.27,3.17,21.62,18.73,28.83,24,30.68-.91,21.46-12.43,31.26-14.22,33a2.42,2.42,0,0,1-.38.54,73.26,73.26,0,0,0,.19,8.72c1,9.57,5.78,21.68,27.43,23.31h.12l.24,0,1.17.08.71,0c1.32.06,2.69.08,4.13.06.32,0,27.58-1.21,31.15-23.68a7.17,7.17,0,0,0,.11-.81c0-.28.07-.56.1-.84s.05-.57.07-.86,0-.58,0-.87l-.1-.06-.24-.13-.86-.49-1.19-.69-.8-.46c-.82-.48-1.78-1.05-2.85-1.7l-.87-.53A268.71,268.71,0,0,1,162,231.89c-.88-.7-1.77-1.42-2.63-2.13l-.92-.79c-.52-.43-1-.87-1.54-1.32a91.94,91.94,0,0,1-11.34-11.49l.05,0,0,0,.09,0,.48.13.08,0,.24.08.43.11.19.05a298.27,298.27,0,0,0,33.3,1.55c29.19-.23,68.07-5,75.42-28.16C255.93,190,261.41,172.61,259.92,146.23ZM118.49,156.57c-2.6,1.44-5.84-.07-6.07-.21-4.45-2.5-2.78-6.57-2.78-6.57,1.66-3.7,4.53-3.7,4.53-3.7-2.22-7.49-10.92-6.93-10.92-6.93.5-.26,9.17-3.71,13.44,7,0,0-5.18,3.19-2,6.9a4.11,4.11,0,0,0,5.43-.21l.76.77A5.41,5.41,0,0,1,118.49,156.57Zm25.65-4.94a.64.64,0,0,1,0-1.28.64.64,0,1,1,0,1.28Zm69.65-6.11a.78.78,0,1,1-.78.78A.78.78,0,0,1,213.79,145.52Zm-54,20.89a1.07,1.07,0,1,1,1.06-1.06A1.06,1.06,0,0,1,159.78,166.41Zm7.89-8.25a.85.85,0,1,1,.85-.85A.85.85,0,0,1,167.67,158.16Zm8.46-9.83s-25.07-.39-27.51-23.17c0,0,0-.08,0-.12a1.66,1.66,0,0,0-.21.6,7.12,7.12,0,0,1,.06-1.2,1.14,1.14,0,0,0-.06.25s-.44-7.22,7.16-7.87L202,120.51s3.19,1,4.23,3.57l-.14,0h0a0,0,0,0,0,0,0,4.06,4.06,0,0,1,.59,1l-.14,0a6.61,6.61,0,0,1,.31,3.52C205.34,137,199.22,149.49,176.13,148.33Zm11.43,11a.57.57,0,1,1-1.13,0,.57.57,0,1,1,1.13,0Zm-8.31,4.84a.92.92,0,1,1,0,1.84.92.92,0,1,1,0-1.84Zm1,28.88S171.8,179.9,193,172.4c0,0,5,16.87,17.84,19.74C210.79,192.14,190.88,207.49,180.24,193Zm26.62-21.89s-.8-3.61,5.44-1.08Zm11.84,3.16c5.48-6.82.21-11.89.21-11.89-6.49-5.57-14.39,1.22-14.74,1.54,8.3-9.69,15.26-4.7,15.26-4.7C228,166,219.09,174,218.7,174.29Zm18.05-18.82a.71.71,0,1,1,0,1.41.71.71,0,1,1,0-1.41Zm0,15.63a1.14,1.14,0,1,1,1.14-1.14A1.14,1.14,0,0,1,236.75,171.1Zm10.87-10.95a.78.78,0,1,1,.79-.77A.78.78,0,0,1,247.62,160.15Zm10.59-5a.58.58,0,0,1-.57-.57.57.57,0,0,1,1.14,0A.58.58,0,0,1,258.21,155.19Z"/><g id="skin_shade"><path class="cls-3" d="M263.81,120.37l-7.34.3A169.41,169.41,0,0,0,249.89,98a2.28,2.28,0,0,1-.88.09,4.85,4.85,0,0,1-3.85-2.53,3.19,3.19,0,0,0-.39-.55,15.16,15.16,0,0,0-8.2-4.61,3.68,3.68,0,0,1-1.13-.38c-1.31-.74-5.14-2.47-8.48.28a17.85,17.85,0,0,0-3.35,3.3c-3,4-4.4,3.64-7.61.48,2,1,3.36-.2,5.72-3.32a17.64,17.64,0,0,1,3.34-3.3c3.35-2.75,7.18-1,8.49-.29a3.45,3.45,0,0,0,1.12.38l.51.11.24,0,.19,0,.66.18c.25.08.5.16.74.26s.48.18.71.28.34.15.5.24.33.15.48.24.28.14.41.22l.38.23c.22.13.43.28.63.41a14.89,14.89,0,0,1,2.18,1.76l.17.17.16.16.13.14a.6.6,0,0,1,.11.12,2.73,2.73,0,0,1,.39.55,5.15,5.15,0,0,0,1.8,1.87l0,0c1.92,1.86,3.16,2,4,1.28a5.09,5.09,0,0,0,1.29-2.51l0-.09s0,0,0,0l.12-.3a.84.84,0,0,1,.08-.19c.77-1.39,2.48-1,3.46-.7l.17.07.13.07.18.1A182.74,182.74,0,0,1,263.81,120.37Z"/><path class="cls-3" d="M120.92,153.59a5.41,5.41,0,0,1-2.43,3c-2.6,1.44-5.84-.07-6.07-.21-4.45-2.5-2.78-6.57-2.78-6.57,1.66-3.7,4.53-3.7,4.53-3.7-2.22-7.49-10.92-6.93-10.92-6.93.5-.26,9.17-3.71,13.44,7,0,0-5.18,3.19-2,6.9a4.11,4.11,0,0,0,5.43-.21Z"/><path class="cls-3" d="M270.12,179.38s-.13,30.09-36.82,39.7l-.11,0-.16,0c-2,.62-15.11,4.33-35.92,4.29a36.19,36.19,0,0,0-5,11c-.07.31-.13.61-.19.93a16.19,16.19,0,0,0,.85,9.53,6.67,6.67,0,0,0,1.63,2.37c.56.52,1.44.75,1.67,1.5,0,0,0,0,0,0s0,0,0,0l0,.17c0,.2,0,.4.05.59s0,.09,0,.14c0,.32.06.7.08,1.11l0,.45c0,.23,0,.46,0,.67s0,.62,0,.92,0,.71,0,1.05c0,.15,0,.29,0,.43l0,.43-.1-.06-.24-.13-.86-.49-1.19-.69-.8-.46c-.82-.48-1.78-1.05-2.85-1.7l-.87-.53A268.71,268.71,0,0,1,162,231.89c-.88-.7-1.77-1.42-2.63-2.13l-.92-.79c-.52-.43-1-.87-1.54-1.32a91.94,91.94,0,0,1-11.34-11.49l.05,0,0,0,.09,0c.19.06.37.11.56.15l.24.08.43.11.19.05a298.27,298.27,0,0,0,33.3,1.55c29.19-.23,68.07-5,75.42-28.16,0,0,5.48-17.4,4-43.78a25.55,25.55,0,0,0,8.14-3.47A237.57,237.57,0,0,1,270.12,179.38Z"/><path class="cls-3" d="M207,89.05a8.74,8.74,0,0,1-1.12-.35,54.68,54.68,0,0,0-15.73-4.17,3.4,3.4,0,0,0-1.66.31,16.9,16.9,0,0,1-9.87.85,3.31,3.31,0,0,0-.55,0c-1.11,0-5.3,0-7.55.81a3.09,3.09,0,0,1-1.38.16,19.25,19.25,0,0,1-5.29-1.27,7.34,7.34,0,0,0-8.07,1.82,3,3,0,0,1-1.93,1.13h-.7c.05.71.15,2.53-.33,2.65s-7.6-2.3-11.56-2a3.3,3.3,0,0,0-2.74,1.92,10.18,10.18,0,0,0-.68,1.83,2.93,2.93,0,0,0-.06,1.18c.19,1.5.35,6.19-5.64,4.44a2.94,2.94,0,0,1-1-.5c-.93-.71-3.15-2.09-2.69,1,0,0,5.82,10.63,2.26,16.43a3.92,3.92,0,0,0-.32.65l-1.06,2.91a3.35,3.35,0,0,1-2.71,2.2c-1.83.26-5.6.44-7.89.61a3.37,3.37,0,0,1-1.67-.25,0,0,0,0,1,0,0h0a3.8,3.8,0,0,0,1.42-.77,12.6,12.6,0,0,1,6.25-2.4,3.37,3.37,0,0,0,2.71-2.21l1-2.91a4.78,4.78,0,0,1,.32-.64c3.57-5.8-2.25-16.43-2.25-16.43-.47-3.15,1.75-1.76,2.69-1.05a2.81,2.81,0,0,0,1,.5c6,1.75,5.83-2.95,5.64-4.44a3.34,3.34,0,0,1,.06-1.18,11,11,0,0,1,.68-1.83,3.31,3.31,0,0,1,2.74-1.92c4-.31,11.08,2.11,11.57,2s.38-2,.32-2.66h.7a2.94,2.94,0,0,0,1.93-1.13A7.36,7.36,0,0,1,162,82.49a18.61,18.61,0,0,0,5.29,1.27,3.07,3.07,0,0,0,1.38-.16c2.25-.8,6.44-.81,7.56-.8a4.91,4.91,0,0,1,.55,0,16.84,16.84,0,0,0,9.87-.85,3.37,3.37,0,0,1,1.65-.3,53,53,0,0,1,14.35,3.6l1.38.57A3.24,3.24,0,0,1,205.91,88C206,88.36,206.43,88.71,207,89.05Z"/></g><path class="cls-4" d="M297.23,312.9C295.64,303.46,293,294,288.67,286c-3.67-6.91-8.56-12.84-15-16.93a29.93,29.93,0,0,1,4.77,1.65l.14.06a60.65,60.65,0,0,1,9.28,5.43c-.17-.14-.34-.26-.51-.38a55.75,55.75,0,0,0-7-4.23l-.6-.3c-1.28-.64-2.62-1.24-4-1.81a78,78,0,0,0-13.07-4l-28.14-7.24-38.43-9.9v.05c0,.15,0,.3,0,.45v0s0,.09,0,.15,0,.11,0,.18l0,.26c0,.06,0,.12,0,.17s0,.09,0,.14c0,.32.06.7.08,1.11s0,.75.06,1.12,0,.7,0,1,0,.61,0,.93c0,.14,0,.29,0,.43,0,.45,0,.87-.08,1.3a8.09,8.09,0,0,1-.07.86c0,.29-.06.56-.1.84a7.17,7.17,0,0,1-.11.81c-3.57,22.47-30.83,23.67-31.15,23.68-1.44,0-2.81,0-4.13-.06l-.71,0-1.17-.08-.24,0h-.12C136.82,280.07,132,268,131,258.39a73.26,73.26,0,0,1-.19-8.72,17.47,17.47,0,0,0,0-2s-4.76,1-15.66,3.1a57,57,0,0,0,.18,7.59C116.61,272,123.16,280.57,131,286c13.72,9.45,31.36,9.08,31.36,9.08,14.82.17,24.95-3.65,31.87-9.08,10.67-8.37,13.71-20.55,14.55-27.75a36.82,36.82,0,0,0,.29-5.94c.24,2.07.36,4,.39,5.94.23,12.94-4,21.75-10,27.75-13.69,13.67-36.53,12.76-36.53,12.76-18.24-.23-29.62-5.64-36.69-12.76-8.73-8.78-10.88-20.16-11.25-27.61a46.07,46.07,0,0,1,.22-7.59c-9.13,1.74-22.56,4.25-41.09,7.55-2.33.4-4.74.84-7.24,1.28a127,127,0,0,0-25.37,7.2l-.25.1a73.56,73.56,0,0,0-17.52,9.83,1.06,1.06,0,0,0-.21.16A37.47,37.47,0,0,0,15.08,286c-.39.61-.76,1.24-1.1,1.88,0,0-4.27,8.34-8,25-1,4.62-2,9.89-2.87,15.81a1.31,1.31,0,0,0,0,.27A264.86,264.86,0,0,0,.61,363.82H61c.4-.88,2-15.15,3-23.49.38-3.49.65-5.94.65-5.94l-.1,5.94-.38,23.49,187.55-.05c.44-1.26,2-15.23,2.94-23.44.38-3.49.64-5.94.64-5.94l-.09,5.94-.38,23.44h43.33a198.49,198.49,0,0,0,1.3-23.43A169.21,169.21,0,0,0,297.23,312.9Z"/><g id="orange_stripes"><path class="cls-5" d="M126.17,286H14.74a37.57,37.57,0,0,1,8.72-9.08,1.06,1.06,0,0,1,.21-.16,81.16,81.16,0,0,1,17.52-9.83l.25-.1a115.27,115.27,0,0,1,29.15-8l3.46-.49.47-.07,35.52.09h0l4.83,0C115.29,265.81,117.44,277.19,126.17,286Z"/><path class="cls-5" d="M208.75,258.22c-.84,7.2-3.88,19.38-14.55,27.75H131c-7.81-5.4-14.36-14-15.64-27.61l15.71,0c1,9.57,5.78,21.68,27.43,23.31h.12l.24,0,1.17.08.71,0c1.32.06,2.69.08,4.13.06.32,0,27.58-1.21,31.15-23.68Z"/><path class="cls-5" d="M288.67,286H199.39c6-6,10.27-14.81,10-27.75l18.79,0h6.94l.21.12c11.89,2.88,27.2,5.44,40.35,11.09.91.39,1.82.8,2.7,1.23a29.93,29.93,0,0,0-4.77-1.65C280.11,273.13,285,279.06,288.67,286Z"/><path class="cls-5" d="M297.56,286h-.12a45.91,45.91,0,0,0-9.11-9.42l.37.28a4,4,0,0,1,.39.3l.73.58.71.59a40.73,40.73,0,0,1,4.41,4.3l.68.81C296.3,284.23,297,285.09,297.56,286Z"/><path class="cls-5" d="M255.13,340.32l.09-5.94s-.26,2.45-.64,5.94H64.47l.1-5.94s-.27,2.45-.65,5.94h-62c.25-2.48.66-6.76,1.22-11.36a1.31,1.31,0,0,1,0-.27c.71-5.83,1.64-12.12,2.77-15.81H6c5.47,0,240.48,0,291.23,0a169.21,169.21,0,0,1,2.15,27.42Z"/><path class="cls-5" d="M306.88,313c.42.73,1.1,7.47,1.51,11.48C308,320.7,307.48,316.85,306.88,313Z"/><path class="cls-5" d="M309.64,338.69c-.24-3.59-.54-7.41-.95-11.4C309,329.48,309.51,335.54,309.64,338.69Z"/></g><g id="shirt_shade"><path class="cls-6" d="M209.43,258.22c.23,12.94-4,21.75-10,27.75-13.69,13.67-36.53,12.76-36.53,12.76-18.24-.23-29.62-5.64-36.69-12.76-8.73-8.78-10.88-20.16-11.25-27.61a46.07,46.07,0,0,1,.22-7.59h0a57,57,0,0,0,.18,7.59C116.61,272,123.16,280.57,131,286c13.72,9.45,31.36,9.08,31.36,9.08,14.82.17,24.95-3.65,31.87-9.08,10.67-8.37,13.71-20.55,14.55-27.75a36.82,36.82,0,0,0,.29-5.94C209.28,254.35,209.4,256.33,209.43,258.22Z"/><path class="cls-6" d="M310.35,355.53v.12a56.19,56.19,0,0,1-.63,7.94l-8.26.16h-3.38a198.49,198.49,0,0,0,1.3-23.43,169.21,169.21,0,0,0-2.15-27.42C295.64,303.46,293,294,288.67,286c-3.67-6.91-8.56-12.84-15-16.93a29.93,29.93,0,0,1,4.77,1.65l.14.06a60.65,60.65,0,0,1,9.28,5.43c.09.05.16.12.25.18l.24.19a45.91,45.91,0,0,1,9.11,9.42,49,49,0,0,1,5.83,10.58.15.15,0,0,1,0,.07,45.34,45.34,0,0,1,1.92,6.86c.63,3.15,1.18,6.31,1.65,9.45,0,0,0,0,0,0,.6,3.89,1.09,7.74,1.51,11.48l.06.51c0,.28,0,.52.07.76s.08.71.11,1,0,.32,0,.43,0,.13,0,.17c.41,4,.71,7.81.95,11.4a1.21,1.21,0,0,1,0,.19C310.09,345.47,310.28,351.22,310.35,355.53Z"/><path class="cls-6" d="M64.57,334.38l-.1,5.94-.38,23.49H61c.4-.88,2-15.15,3-23.49C64.3,336.83,64.57,334.38,64.57,334.38Z"/><path class="cls-6" d="M255.22,334.38l-.09,5.94-.38,23.44h-3.11c.44-1.26,2-15.23,2.94-23.44C255,336.83,255.22,334.38,255.22,334.38Z"/></g><path id="mouth" class="cls-7" d="M210.79,192.14s-19.91,15.35-30.55.88c0,0-8.44-13.12,12.71-20.62C193,172.4,197.91,189.27,210.79,192.14Z"/><g id="nose"><path class="cls-8" d="M212.3,170.05l-5.44,1.08S206.06,167.52,212.3,170.05Z"/><path class="cls-8" d="M218.7,174.29c5.48-6.82.21-11.89.21-11.89-6.49-5.57-14.39,1.22-14.74,1.54,8.3-9.69,15.26-4.7,15.26-4.7C228,166,219.09,174,218.7,174.29Z"/></g><g id="freckles"><path class="cls-8" d="M187.56,159.3a.57.57,0,1,1-1.13,0,.57.57,0,1,1,1.13,0Z"/><path class="cls-8" d="M180.18,165.06a.93.93,0,1,1-.93-.92A.92.92,0,0,1,180.18,165.06Z"/><path class="cls-8" d="M168.52,157.31a.86.86,0,1,1-.85-.84A.85.85,0,0,1,168.52,157.31Z"/><path class="cls-8" d="M214.58,146.3a.79.79,0,1,1-.79-.78A.78.78,0,0,1,214.58,146.3Z"/><path class="cls-8" d="M237.46,156.18a.71.71,0,1,1-.71-.71A.7.7,0,0,1,237.46,156.18Z"/><path class="cls-8" d="M248.41,159.38a.79.79,0,1,1-.79-.79A.78.78,0,0,1,248.41,159.38Z"/><path class="cls-8" d="M237.89,170a1.14,1.14,0,1,1-1.14-1.13A1.15,1.15,0,0,1,237.89,170Z"/><path class="cls-8" d="M258.78,154.62a.57.57,0,0,1-1.14,0,.57.57,0,0,1,1.14,0Z"/><path class="cls-8" d="M160.84,165.35a1.07,1.07,0,0,1-2.13,0,1.07,1.07,0,1,1,2.13,0Z"/><path class="cls-8" d="M144.79,151a.65.65,0,0,1-.65.64.64.64,0,0,1,0-1.28A.65.65,0,0,1,144.79,151Z"/></g><g id="eyes"><g id="eye_whites"><path class="cls-7" d="M206.85,128.54c-1.51,8.43-7.63,21-30.72,19.79,0,0-25.07-.39-27.51-23.17,0,0,0-.08,0-.12,0-.3,0-.6,0-.9,1.21-2.12,7.69-2.88,14.37-3.06a7,7,0,0,0-1.09,1,5.66,5.66,0,0,0-1.5,3.9c0,4.52,5,8.2,11.24,8.2s11.24-3.68,11.24-8.2a5.47,5.47,0,0,0-1.27-3.54,6.4,6.4,0,0,0-1-1c17.25.36,24.38,2.27,25.46,2.58h0a0,0,0,0,0,0,0,5.18,5.18,0,0,1,.45,1A6.61,6.61,0,0,1,206.85,128.54Z"/><path class="cls-7" d="M277.42,127.17c-.72,4.94-2.95,11.33-9.36,15.59a25.55,25.55,0,0,1-8.14,3.47,41.23,41.23,0,0,1-9.51,1.12s-22.56-.08-24.95-19.31a4.81,4.81,0,0,1,0-1.42c1.27-.85,4.72-1.41,9-1.79a4.73,4.73,0,0,0-1.16,3.28,5.79,5.79,0,0,0,3.22,4.48,13.1,13.1,0,0,0,6.61,1.58l1,0c6.37-.35,9.15-3.61,9.15-6.78,0-.11,0-.2,0-.31a4.92,4.92,0,0,0-1.17-2.94l5,0c3.42,0,5.68,0,5.68,0,.64,0,1.25,0,1.83,0C274.52,124,277,126.5,277.42,127.17Z"/></g><g id="eyes-2" data-name="eyes"><path class="cls-9" d="M202,120.51l-46.43-3.69c-7.6.65-7.16,7.87-7.16,7.87a1.14,1.14,0,0,1,.06-.25s0,0,0,0a1.75,1.75,0,0,1,.13-.28c1.21-2.12,7.69-2.88,14.37-3.06a7,7,0,0,0-1.09,1,5.66,5.66,0,0,0-1.5,3.9c0,4.52,5,8.2,11.24,8.2s11.24-3.68,11.24-8.2a5.47,5.47,0,0,0-1.27-3.54,6.4,6.4,0,0,0-1-1c17.25.36,24.38,2.27,25.46,2.58h0l.14,0C205.18,121.56,202,120.51,202,120.51Zm-35.74,5.27a1.62,1.62,0,1,1,1.61-1.62A1.62,1.62,0,0,1,166.25,125.78Z"/><path class="cls-9" d="M272,120.05l-8.18.32-7.34.3-25.88,1a5.57,5.57,0,0,0-5.09,4,.78.78,0,0,1,.21-.19l0,0c1.25-.86,5.11-1.41,9.89-1.76a6.53,6.53,0,0,0-1.13,1.09,4.73,4.73,0,0,0-1.16,3.28,5.79,5.79,0,0,0,3.22,4.48,13.1,13.1,0,0,0,6.61,1.58l1,0c6.37-.35,9.15-3.61,9.15-6.78,0-.11,0-.2,0-.31a4.92,4.92,0,0,0-1.17-2.94,5.15,5.15,0,0,0-1-.94l5.76,0c3.52,0,5.87,0,5.87,0,.56,0,1.09,0,1.62-.05,11.51-.18,13,3.25,13,3.25a7.22,7.22,0,0,0,.1-.76C278,120.48,272,120.05,272,120.05Zm-33.22,7.68a1.53,1.53,0,1,1,1.52-1.53A1.53,1.53,0,0,1,238.77,127.73Z"/></g><g id="eye_shade"><path class="cls-10" d="M163,121.08a7,7,0,0,0-1.09,1c-6.23.23-12,1-13.26,3a1.66,1.66,0,0,0-.21.6,7.12,7.12,0,0,1,.06-1.2s0,0,0,0a1.75,1.75,0,0,1,.13-.28C149.8,122,156.28,121.26,163,121.08Z"/><path class="cls-10" d="M206.68,125.05l-.14,0c-1.07-.31-8.3-2.18-25-2.59a6.4,6.4,0,0,0-1-1c17.25.36,24.38,2.27,25.46,2.58,0,0,0,0,0,0a0,0,0,0,0,0,0A4.06,4.06,0,0,1,206.68,125.05Z"/><path class="cls-10" d="M235.65,123.74a6.53,6.53,0,0,0-1.13,1.09c-4.32.38-7.77.94-9,1.79a1.16,1.16,0,0,0-.21.16,4.74,4.74,0,0,1,.44-1.24l0,0C227,124.64,230.87,124.09,235.65,123.74Z"/><path class="cls-10" d="M277.52,126.38c0,.26-.07.52-.1.79-.46-.67-2.9-3.21-12.74-3.09-.58,0-1.19,0-1.83,0,0,0-2.26,0-5.68,0l-5,0a5.15,5.15,0,0,0-1-.94l5.76,0c3.52,0,5.87,0,5.87,0,.56,0,1.09,0,1.62-.05C276,123,277.52,126.38,277.52,126.38Z"/></g><g id="eye_highlights"><path class="cls-7" d="M167.86,124.16a1.62,1.62,0,1,1-1.61-1.61A1.61,1.61,0,0,1,167.86,124.16Z"/><path class="cls-7" d="M240.29,126.2a1.53,1.53,0,1,1-1.52-1.53A1.53,1.53,0,0,1,240.29,126.2Z"/></g></g><path id="hair" class="cls-11" d="M277.87,80.63c-1.57-3-4.66-5.92-6.87-6-4.7-.29,0-.41-6,4.73s-8.71.21-5.17-2.67,1.94-5,1.24-7.42c.42,1.78.84,6.24-5.32,7,0,0-6-1.44-10-.32a5.64,5.64,0,0,0-2.11,1,5.21,5.21,0,0,1,1.52-1.79c1.46-1.15,4.18-2.37,9-2,8.67.73,2.09-6.78,2.09-6.78s-4.17-5.12,3.44-5.54c0,0,7.78-1.73,7.22-7.34a0,0,0,0,0,0,0,8.75,8.75,0,0,0-1.77-2.12c-5.28-4.69-11.13-4.62-11.75-.43-1,7.12-6.77,3.1-4.67,8.07,1.78,4.21-12.06,0-3.39-9a24.68,24.68,0,0,0,5-6.65,3.4,3.4,0,0,0-2.14-4.62c-3.37-1-10.49-2.82-9.59.56,1.17,4.39-6.69.72-4.39,7.23,1,2.86-1.73,5-3.54,3,4.16,4.65-5.18,5.28-8.4,4.13a3,3,0,0,0-3,.7c-1.7,1.44-2.65,4.35-1.55,6.08,1.41,2.2-2.73,4.19-7.46,3.28a13.38,13.38,0,0,1-2.56-.78s.33,0,.85,0c2.13,0,7.41-.35,5.3-3.88-1.4-2.35-.36-4.88,1.61-6.54h0A7.1,7.1,0,0,1,221.6,51c4.59,1.25,7.31-2.19,3.44-4.8s2-6.16,3.77-7.41c1.36-1,3-1.06,3.69-1.48.19-.27.32-.45.36-.49h0c.15-.5,0-.76-.81-.71-6.51.39-3.92-7-10.67-8.74-6.21-1.62-9.27,9.8-8.11,11.87.55-.67,2.73-2.87,6.13.18,4,3.56-3.13,7.83-6,7.83-2.09,0-6.1-.58-8.55,1.4a5.71,5.71,0,0,0-2,3.82c-.54,3.71-1.12,5.84-2.58,6.7-1,.62-2.51.61-4.71.08a9.48,9.48,0,0,0,2.3-1.28c1.09-.82,2-2,1.14-3.51s0-4.54,1.87-6.9h0c1.78-2.18,4.48-3.79,7.61-3.12,7.31,1.56,9.51-1.74,9.82-3,.39-1.71-2.87-2.25-4.88-2a.52.52,0,0,0,.3.16c6.12.77,1.36,6.09-1.15,4.21-5.36-4-4.33,4-8.62-6.13-1.14-2.72-.29-14.24-5.35-9.18-4,4-13.4-3.64-9.47,6.83,1,2.65.94,12.47-1.82,6.56-4-8.61-9.38-.38-7.46-4.6,2.86-6.31,1.55-17.84-4.52-9.74-4.29,5.73-16.53-5.56-8.22,12.33,1.28,2.74-5.45-.67-3.73,4.5.63,1.87-7.79,5-6.69-4.2s-3.93-10.81-5.74-8.05c-.9,1.36-6.45-1.71-8.62-.19-3.92,2.75-1.62,8.25,0,12.75,1,2.75.28.6,0,3.51-.38,3.64.73,3.22-1.91,3.07-2.42-.14-1.81-2.81-1.92-3.63,0-.1-2.46.47-2.48.37-.26-1.28-4.79-3.51-5.6-4.6s0-4.12-6.32-5.14-13.49,2.06-12.18,10,3.53,8.22,5.44,7.34,3.23-1.76,6.45,1.17,2.35,4.7,1.33,4.85-4.36-3.32-5.39-.39c-.79,2.27-3.56.61-3.26-.77.6-2.6-2.76,2-3.06,1.73-2.15-2.08-3.07,1.14-6,.11a3.34,3.34,0,0,0-2.14-.05,35,35,0,0,0-6.46,3.18c-1.89,1.22-3.06,6.23,3.67,11.74,1.18,1-.15,2.79,9.83,1.77S114,81.62,114,81.62c-2.06,1.62-11.45,1-11.6,1a14.08,14.08,0,0,0-8.95,3.51c-2.2,3.38,7,7.63,7,7.63-.21,6.19,4.08,3.23,7.3.38a3.43,3.43,0,0,1,2.32-.92c4,.06-.3,2.06-.58,3.72-.11.67-.22,3.63-.69,4.11-3.2,3.38,2,12.39,2.49,16.17a3.35,3.35,0,0,0,1.19,2.2l1.5,1.26a3.36,3.36,0,0,0,3.06.66h0a3.8,3.8,0,0,0,1.42-.77,12.6,12.6,0,0,1,6.25-2.4,3.37,3.37,0,0,0,2.71-2.21l1-2.91a4.78,4.78,0,0,1,.32-.64c3.57-5.8-2.25-16.43-2.25-16.43-.47-3.15,1.75-1.76,2.69-1.05a2.81,2.81,0,0,0,1,.5c6,1.75,5.83-2.95,5.64-4.44a3.34,3.34,0,0,1,.06-1.18,11,11,0,0,1,.68-1.83,3.31,3.31,0,0,1,2.74-1.92c4-.31,11.08,2.11,11.57,2s.38-2,.32-2.66h.7a2.94,2.94,0,0,0,1.93-1.13A7.36,7.36,0,0,1,162,82.49a18.61,18.61,0,0,0,5.29,1.27,3.07,3.07,0,0,0,1.38-.16c2.25-.8,6.44-.81,7.56-.8a4.91,4.91,0,0,1,.55,0,16.84,16.84,0,0,0,9.87-.85,3.37,3.37,0,0,1,1.65-.3,53,53,0,0,1,14.35,3.6s3.13-2.5,8.66.31,4.7-3.75.1-5.94c-2.74-1.31-2.35-4.16-.6-6.24A6.54,6.54,0,0,1,215.55,71c4.19,0,5.17.26,5.07-2.72q0-.42-.06-.93c-.31-4,5.21-1.88,6.89-3.24,1.24-1,2.48-2,2.39-3.32a3.29,3.29,0,0,0-.61-1.58c.27.14,4.61,2.44,4.34,4.39-.11.82-1,1.57-3.3,2.08-7,1.54-5.45,2.06-5.57,4.31a4.4,4.4,0,0,1-.18,1.11,2.56,2.56,0,0,0,.25,1.86c1.09,2.27,3.93,3.8-5.88,3.47-12.31-.42,2.5,4.38-.31,8.65s-6.89,4.49-9.29,2.83-4.28-3-6.68-2.62l1.38.57A3.24,3.24,0,0,1,205.91,88c.1.37.52.72,1.1,1.06a12.49,12.49,0,0,0,1.46.7c1.87.79,4.17,1.52,4.84,2.19.26.27.51.52.75.73A8.42,8.42,0,0,0,216,94.12c2,1,3.36-.2,5.72-3.32a17.64,17.64,0,0,1,3.34-3.3c3.35-2.75,7.18-1,8.49-.29a3.45,3.45,0,0,0,1.12.38l.51.11.24,0,.19,0,.66.18c.25.08.5.16.74.26a15.76,15.76,0,0,0-2.86-.86s6.66-.4,10.08,2.32A4,4,0,0,0,247,90.82a2.37,2.37,0,0,0,1.82-1.43,6.8,6.8,0,0,1,3.64-1.67,4.88,4.88,0,0,1,1.42.06h0a5,5,0,0,1,1.9.8C259.45,91,263.48,86,263.48,86A12.71,12.71,0,0,1,273,84.15s5.53-.5,2.42-6.54A15.45,15.45,0,0,1,277.87,80.63Zm-79.54-46c2.19-1.88,1.15-4.07-.1-4.49,0,0,5-2,2.92,6.05,0,0-1.78,2.3-.42,4.59s1,5.64-2.19,5.74c0,0,2.82-1,.63-4.27S196.14,36.46,198.33,34.58Zm-45.18-3.13s4.37,1,2.29,9.59,5.22,7.62,6.47,7.1c0,0-10.12,5.23-10.43-4.38S156.27,40.31,153.15,31.45ZM124.77,47.1c.93-1.77,1.14-5.32-4.71-6.89-1.52-.41,10.44-.11,7.94,5.53s1.77,7.52,3.33,8.15.84,4.88-2.37,5.72c.24-.22,3.45-3.18-1.27-4.89C122.78,53,123.82,48.87,124.77,47.1Zm1.66,62.61c-5,4.8-1.87,4.28-2.92,6.26s-4.91,3.34-6.36,1.88c0,0,5.42-.42,3.85-3.75s1.57-4.39,3.35-6.16,2-8.78-.69-13.28C124.38,95.62,131.18,105.16,126.43,109.71Zm-.93-21.18a5.06,5.06,0,0,0-2.32-2,3,3,0,0,0-2.21.06h0a7.46,7.46,0,0,0-3.41,3.84c-2,4.17-2.92,1.46-8.87.1s-5.21,3.34-5.21,3.34c-2.31-1.77-1.36-8.46,3.65-6.78s4.79,3.13,7.83-1.88c2.22-3.69,5-4.84,7.64-2.75h0a8.26,8.26,0,0,1,1.6,1.7,14.26,14.26,0,0,1,1.09,1.77c3.23,6,5.52,4.91,5.52,4.91C129.56,92.6,128.1,92.39,125.5,88.53Zm8.42-11.21a29.87,29.87,0,0,0-4.44-4l-.13-.09c-8.66-6.57-2.71-1.67-16,1.35-11.81,2.7-12.27-3.21-12.45-4.69a1.19,1.19,0,0,0,0-.22c1.47,4.08,3.55,4.29,6.55,3.56s-1.36-1.67,5.21-.42,2-2.19,6.89-5.63c4-2.82,8.55-.49,12.14,3.8a28.76,28.76,0,0,1,2.26,3.18,12.78,12.78,0,0,0,2.45,3.07,3.1,3.1,0,0,0,2.51,1C135.35,80,136.15,79.82,133.92,77.32Zm5,.82c.32-.18.68-.36,1.09-.57A1.86,1.86,0,0,1,138.91,78.14Zm-2.56-17.48c-2,.33-2.74,4.34-1,6.68a4,4,0,0,0,1.84,1.37l.29.1a9.05,9.05,0,0,1-2.66-1c-2.35-1.35-4.76-4.36-.17-10.82,0,0,3.35-1,1.16-3.33s.31-5.75,2.19-5.64c0,0-2,4.06,1.56,4.91S139,60.25,136.35,60.66Zm14.51,27c.3-1.57.49-4.06-3.34-5.51-3-1.12-5.09-3.23-5.32-5.29a3.1,3.1,0,0,1,.3-1.81c1.25-2.5,5.85.32,4.6,1.26a4.18,4.18,0,0,1-.49.31c-1.46.83-3.85,1.7.8,3.66C152.27,82.33,151,87.28,150.86,87.67Zm14.29-7.49a6,6,0,0,0-2.22-4.42c-1.56-1.35-4.09-2.42-8-2.57-8-.32-7-4.38-5.11-7.62s2.4-3.86-2.29-3.34a5,5,0,0,1-4.09-1.42c-2.05-2-2.58-5.62.32-8.6,4.39-4.48,6.79.31,6.79.31-1.25-2.29-9.39,2.51-2.92,4.91l.58.21c6,2.19,7.43,2.26,6.93,4.48s-9.4,6.17,3.12,7.73c6.15.77,7.93,3.35,8.14,5.73A7.22,7.22,0,0,1,165.15,80.18Zm9.48-5a15,15,0,0,0,.33,1.58c1.46,5.53-6.79,6.88-6.79,6.88,4.7-2,4.81-2.4,4.39-8.14a1.7,1.7,0,0,1,0-.22c-.29-5.46,4.18-3.43,4.18-3.43S174.16,71.33,174.63,75.16Zm1.37-21c-6.7.51-6.39,9.3-4.64,10.55-.88-.51-5.08-3.34-2.36-8.78,3-6,6.58-2.4,7.21-4.18s-2.39-1.68-3.43-3.92a1.15,1.15,0,0,1-.12-.25c-.94-2.5,2.09-8.25,4-9.91s3.76-9.81,2.19-12.53c0,0,3.66,2.72-.31,13.26-1.88,5-2,7.48-1.56,8.71a1.49,1.49,0,0,0,1.56,1.2C179.75,49,182.89,53.68,176,54.2ZM188.31,63c-1,2.51-7,2.82-2.81,6.58a7.54,7.54,0,0,1,2.38,4.95,10.13,10.13,0,0,1-.61,5,9.19,9.19,0,0,0-1.2-4.87,4.86,4.86,0,0,0-1.72-1.71c-2.61-1.46-7.41-5.52-.94-8.65s2-6.89,2-6.89C188.94,58.58,189.35,60.46,188.31,63ZM185.5,40s.83,4.91,4.06,5.74C189.56,45.74,185.08,48.77,185.5,40Zm54.16,18.06s-.11,2.6-7-.42c0,0,5.75,1.46,4.28-3.13s5-5.32,6.58-7.51,1.67-3,4.06-3.13,2.2-3.56,2.2-3.56a2.24,2.24,0,0,1,.17.33c.4.91,1,3.66-3.93,7.29C240,52.42,238.82,55.66,239.66,58.06Z"/><g id="dark_hair"><path class="cls-12" d="M277.9,86.48a5.33,5.33,0,0,1-4.44.88h0l-.38-.08a11.94,11.94,0,0,0-8.67,2.42l-.25.23h0c-1,.93-4.75,4.14-7.75,3.32h0c-.1,0-.2,0-.3-.09l-.09,0a2.76,2.76,0,0,1-.4-.18l-.24-.15h0l-.1-.06a.35.35,0,0,1-.09-.06h0c-.19-.12-.35-.22-.52-.31l-.18-.1-.13-.07-.17-.07c-1-.35-2.69-.69-3.46.7a.84.84,0,0,0-.08.19l-.12.3s0,0,0,0l0,.09a5.09,5.09,0,0,1-1.29,2.51c-.84.73-2.08.58-4-1.28l0,0a5.15,5.15,0,0,1-1.8-1.87,2.73,2.73,0,0,0-.39-.55.6.6,0,0,0-.11-.12l-.13-.14-.16-.16-.17-.17a14.89,14.89,0,0,0-2.18-1.76c-.2-.14-.41-.28-.63-.41l-.38-.23c-.13-.08-.27-.15-.41-.22s-.31-.16-.48-.24-.33-.16-.5-.24-.47-.2-.71-.28a15.76,15.76,0,0,0-2.86-.86s6.66-.4,10.08,2.32A4,4,0,0,0,247,90.82a2.37,2.37,0,0,0,1.82-1.43,6.8,6.8,0,0,1,3.64-1.67,4.88,4.88,0,0,1,1.42.06h0a5,5,0,0,1,1.9.8C259.45,91,263.48,86,263.48,86A12.71,12.71,0,0,1,273,84.15s5.53-.5,2.42-6.54a15.45,15.45,0,0,1,2.49,3s0,0,0,0C279,82.45,279.63,84.69,277.9,86.48Z"/><path class="cls-12" d="M265.54,60.35s-.53.48-1.25,1.23a.28.28,0,0,1-.07.09,21.56,21.56,0,0,0-2.32,2.93l-.07.09a5.7,5.7,0,0,0-.81,1.56l0,.08A4.7,4.7,0,0,0,261,69c0,.06,0,.13.05.21.42,1.78.84,6.24-5.32,7,0,0-6-1.44-10-.32a5.64,5.64,0,0,0-2.11,1,5.21,5.21,0,0,1,1.52-1.79c1.46-1.15,4.18-2.37,9-2,8.67.73,2.09-6.78,2.09-6.78s-4.17-5.12,3.44-5.54c0,0,7.78-1.73,7.22-7.34a0,0,0,0,0,0,0,.57.57,0,0,0,0-.13S269.29,55.66,265.54,60.35Z"/><path class="cls-12" d="M261.83,64.69a9.69,9.69,0,0,0-.81,1.56A5.7,5.7,0,0,1,261.83,64.69Z"/><path class="cls-12" d="M233.57,63.6c-.11.82-1,1.57-3.3,2.08-7,1.54-5.45,2.06-5.57,4.31a4.4,4.4,0,0,1-.18,1.11,2.56,2.56,0,0,0,.25,1.86c1.09,2.27,3.93,3.8-5.88,3.47-12.31-.42,2.5,4.38-.31,8.65s-6.89,4.49-9.29,2.83-4.28-3-6.68-2.62c0,0,3.13-2.5,8.66.31s4.7-3.75.1-5.94c-2.74-1.31-2.35-4.16-.6-6.24A6.54,6.54,0,0,1,215.55,71c4.19,0,5.17.26,5.07-2.72q0-.42-.06-.93c-.31-4,5.21-1.88,6.89-3.24,1.24-1,2.48-2,2.39-3.32a3.29,3.29,0,0,0-.61-1.58C229.5,59.35,233.84,61.65,233.57,63.6Z"/><path class="cls-12" d="M246,47.93c-6.05,4.49-7.2,7.73-6.36,10.13,0,0-.11,2.6-7-.42,0,0,5.75,1.46,4.28-3.13s5-5.32,6.58-7.51,1.67-3,4.06-3.13,2.2-3.56,2.2-3.56a2.24,2.24,0,0,1,.17.33C250.35,41.55,250.92,44.3,246,47.93Z"/><path class="cls-12" d="M230.63,49.55c4.16,4.65-5.18,5.28-8.4,4.13a3,3,0,0,0-3,.7c-1.7,1.44-2.65,4.35-1.55,6.08,1.41,2.2-2.73,4.19-7.46,3.28L208.47,63c2.13,0,7.41-.35,5.3-3.88-1.4-2.35-.36-4.88,1.61-6.54h0A7.1,7.1,0,0,1,221.6,51c4.59,1.25,7.31-2.19,3.44-4.8s2-6.16,3.77-7.41c1.36-1,3-1.06,3.69-1.48-1.32,1.79-5.39,8-2.12,12a1.51,1.51,0,0,0,.2.26Z"/><path class="cls-12" d="M210.18,63.74a13.38,13.38,0,0,1-2.56-.78s.33,0,.85,0Z"/><path class="cls-12" d="M232.87,36.77a.5.5,0,0,1-.11.27l0,0a.8.8,0,0,1-.24.2c.19-.27.32-.45.36-.49Z"/><path class="cls-12" d="M213.36,47.2c-2.09,0-6.1-.58-8.55,1.4a5.71,5.71,0,0,0-2,3.82c-.54,3.71-1.12,5.84-2.58,6.7-1,.62-2.51.61-4.71.08a9.48,9.48,0,0,0,2.3-1.28c1.09-.82,2-2,1.14-3.51s0-4.54,1.87-6.9h0c1.78-2.18,4.48-3.79,7.61-3.12,7.31,1.56,9.51-1.74,9.82-3,.39-1.71-2.87-2.25-4.88-2l-.11-.16c.55-.67,2.73-2.87,6.13.18C223.37,42.93,216.28,47.2,213.36,47.2Z"/><path class="cls-12" d="M213.39,39.35l-.24,0,.13-.18Z"/><path class="cls-12" d="M200.73,40.73c1.35,2.3,1,5.64-2.19,5.74,0,0,2.82-1,.63-4.27s-3-5.74-.84-7.62,1.15-4.07-.1-4.49c0,0,5-2,2.92,6.05C201.15,36.14,199.37,38.44,200.73,40.73Z"/><path class="cls-12" d="M189.56,45.74s-4.48,3-4.06-5.74C185.5,40,186.33,44.91,189.56,45.74Z"/><path class="cls-12" d="M176,54.2c-6.7.51-6.39,9.3-4.64,10.55-.88-.51-5.08-3.34-2.36-8.78,3-6,6.58-2.4,7.21-4.18s-2.39-1.68-3.43-3.92a1.15,1.15,0,0,1-.12-.25c-.94-2.5,2.09-8.25,4-9.91s3.76-9.81,2.19-12.53c0,0,3.66,2.72-.31,13.26-1.88,5-2,7.48-1.56,8.71a1.49,1.49,0,0,0,1.56,1.2C179.75,49,182.89,53.68,176,54.2Z"/><path class="cls-12" d="M185.5,69.54a7.54,7.54,0,0,1,2.38,4.95,10.13,10.13,0,0,1-.61,5,9.19,9.19,0,0,0-1.2-4.87,4.86,4.86,0,0,0-1.72-1.71c-2.61-1.46-7.41-5.52-.94-8.65s2-6.89,2-6.89c3.55,1.25,4,3.13,2.92,5.63S181.33,65.78,185.5,69.54Z"/><path class="cls-12" d="M165.15,80.18a6,6,0,0,0-2.22-4.42c-1.56-1.35-4.09-2.42-8-2.57-8-.32-7-4.38-5.11-7.62s2.4-3.86-2.29-3.34a5,5,0,0,1-4.09-1.42c-2.05-2-2.58-5.62.32-8.6,4.39-4.48,6.79.31,6.79.31-1.25-2.29-9.39,2.51-2.92,4.91l.58.21c6,2.19,7.43,2.26,6.93,4.48s-9.4,6.17,3.12,7.73c6.15.77,7.93,3.35,8.14,5.73A7.22,7.22,0,0,1,165.15,80.18Z"/><path class="cls-12" d="M161.91,48.14s-10.12,5.23-10.43-4.38,4.79-3.45,1.67-12.31c0,0,4.37,1,2.29,9.59S160.66,48.66,161.91,48.14Z"/><path class="cls-12" d="M135.37,67.34a4,4,0,0,0,1.84,1.37l.29.1a9.05,9.05,0,0,1-2.66-1c-2.35-1.35-4.76-4.36-.17-10.82,0,0,3.35-1,1.16-3.33s.31-5.75,2.19-5.64c0,0-2,4.06,1.56,4.91s-.62,7.3-3.23,7.71C134.31,61,133.61,65,135.37,67.34Z"/><path class="cls-12" d="M129,59.61c.24-.22,3.45-3.18-1.27-4.89-4.91-1.77-3.87-5.85-2.92-7.62s1.14-5.32-4.71-6.89c-1.52-.41,10.44-.11,7.94,5.53s1.77,7.52,3.33,8.15S132.17,58.77,129,59.61Z"/><path class="cls-12" d="M138.9,78.14c-3.55,1.86-2.75,1.68-5-.82a29.87,29.87,0,0,0-4.44-4l-.13-.09c-8.66-6.57-2.71-1.67-16,1.35-11.81,2.7-12.27-3.21-12.45-4.69a1.19,1.19,0,0,0,0-.22c1.47,4.08,3.55,4.29,6.55,3.56s-1.36-1.67,5.21-.42,2-2.19,6.89-5.63c4-2.82,8.55-.49,12.14,3.8a28.76,28.76,0,0,1,2.26,3.18,12.78,12.78,0,0,0,2.45,3.07A3.1,3.1,0,0,0,138.9,78.14Z"/><path class="cls-12" d="M140,77.57a1.86,1.86,0,0,1-1.09.57C139.23,78,139.59,77.78,140,77.57Z"/><path class="cls-12" d="M126.43,109.71c-5,4.8-1.87,4.28-2.92,6.26s-4.91,3.34-6.36,1.88c0,0,5.42-.42,3.85-3.75s1.57-4.39,3.35-6.16,2-8.78-.69-13.28C124.38,95.62,131.18,105.16,126.43,109.71Z"/><path class="cls-12" d="M130.81,90.83c-1.25,1.77-2.71,1.56-5.31-2.3a5.06,5.06,0,0,0-2.32-2,3,3,0,0,0-2.21.06h0a7.46,7.46,0,0,0-3.41,3.84c-2,4.17-2.92,1.46-8.87.1s-5.21,3.34-5.21,3.34c-2.31-1.77-1.36-8.46,3.65-6.78s4.79,3.13,7.83-1.88c2.22-3.69,5-4.84,7.64-2.75h0a8.26,8.26,0,0,1,1.6,1.7,14.26,14.26,0,0,1,1.09,1.77C128.52,92,130.81,90.83,130.81,90.83Z"/><path class="cls-12" d="M176.73,71.83s-2.57-.5-2.1,3.33a15,15,0,0,0,.33,1.58c1.46,5.53-6.79,6.88-6.79,6.88,4.7-2,4.81-2.4,4.39-8.14a1.7,1.7,0,0,1,0-.22C172.26,69.8,176.73,71.83,176.73,71.83Z"/><path class="cls-12" d="M150.86,87.67c.3-1.57.49-4.06-3.34-5.51-3-1.12-5.09-3.23-5.32-5.29a3.1,3.1,0,0,1,.3-1.81c1.25-2.5,5.85.32,4.6,1.26a4.18,4.18,0,0,1-.49.31c-1.46.83-3.85,1.7.8,3.66C152.27,82.33,151,87.28,150.86,87.67Z"/></g></svg>