<svg data-name="trAvatar" xmlns="http://www.w3.org/2000/svg" id="avatar" viewBox="0 0 144.31 169.15"><defs><style>.cls-2{fill:#010101}.cls-4{fill:#231f20}.cls-5{fill:#4fbdd6}.cls-6{fill:#d8967c}.cls-8{fill:#fff}.cls-10{fill:#d8d9da}.cls-11{fill:#f89749}</style></defs><path d="M0 0h144.24v169.14H0z" style="fill:none"/><path d="M121.83 123.15c-7.26-2.46-23.36-6.01-30.88-7.95.01.08-30.27-.32-30.27-.32l-7.27 1.44C14.62 124.01 1.23 120.18 0 169.14h144.24c.4-11.05-.83-38.67-22.41-45.98Z" style="fill:#70cde2"/><g id="orange_x5F_stripes"><path d="M133.9 132.65H7.3c5.35-7.59 17.04-11.38 25.44-12.59 2.54-.49 28.04-.19 28.04-.19-.76 12.3 26.01 16.88 30.13-.08 0 0 16.28 0 17.87.02 5.84 1.27 15.6 3.84 18.16 5 2.99 1.9 5.26 4.65 6.97 7.85ZM.87 157.86c.3-3.08.99-9.89 1.86-12.73h135.14c.75 4.45.98 8.9.99 12.72H.87Z" class="cls-11"/></g><g id="shirt_x5F_shade"><path d="M97.15 119.78c1.11 15.16-15.5 19.42-21.6 18.79-15.39.47-23.58-10.33-22.14-22.24 0 0 .01 0 0 0-1.49 15.14 13.76 21.02 21.88 20.54 13.61.88 22.24-9.28 21.67-19.84q.165 1.44.18 2.76ZM144.24 169.14s-5.82-1.03-5.85.01c.9-37.43-11.46-44.35-11.46-44.35 19.37 3.84 17.31 44.34 17.31 44.34M29.95 155.11c-.03 1.77-.19 11.66-.28 13.91h-1.45c.26-.53 1.44-11.18 1.73-13.91M118.39 155.11c-.03 1.77.03 12.05 0 14.04l-1.66-.09c.22-.5 1.37-11.18 1.66-13.96Z" class="cls-5"/></g><path d="M123.27 89.12c-3.08 8.63-23.1 14.88-33.76 12.99 0 0-5.65 11.89 1.57 16.09-1.35 17.82-33.51 16.71-30.37-2.39 1.02-1.3 6.27-5.25 6.77-15.58-7.56-2.44-11.79-9.82-12.17-23.63-2.46 1.02-5.11-3.39-5.11-3.39-6.42-6.96-3.37-11.55-3.37-11.55 2.01-2.28 5.87-.09 7.57 1.07-.08-2.14-.11-4.3-.1-6.42 4.51-40.01 58.84-29.81 64.4-11.98 1.34 3.63 2.32 8.18 3.04 11.53 0 0 1.5 5.46 1.96 10.75.69 12.24-.44 22.51-.44 22.51Z" style="fill:#e2ab90"/><g id="skin_x5F_shade"><path d="M125.3 83.2c.21 9.9-11.42 21.32-33.87 20.45-2.02 2.82-4.28 9.06-.46 11.76.11.9.16 1.87.1 2.8-7.22-4.2-17.43-10.61-23.53-17.94h.02c10.67 1.89 47.74 2.43 51.15-12.14 0 0 3.01-11.82.11-32.76-.71-3.17-1.66-6.49-2.92-9.9-.91.22-4.82-3.37-6.7-3.7-5.05-2.96-5.23 5.57-9.02 1.88.64.63 2.35-5.52 3.07-5.74 2.37-1.64 10.61-.93 12.31-.73 1.03.3.73 3.04 2.51 5.64 1.29 3.04 3.55 9.19 4.29 13 1.6 8.35 3.04 21.36 2.93 27.37ZM56.09 71.24c-.43 1.98-3.37 1.81-3.94 1.29-3.29-2.12-.16-4.93.81-4.77-1.03-3.47-5.07-3.21-5.07-3.21.23-.12 4.25-1.72 6.23 3.24-2.44 1.23-1.36 4.99 1.61 3.1l.35.36ZM96.03 41.31c-1.86-.52-5.35-2.4-8.59-1.96-1.43 1.05-5.87 1.87-8.34.75-8.49-3.85-7.99 2.02-8.21 2.08-.22.05-3.53-1.07-5.36-.93-3.1.38.24 6.16-4.69 4.12-3.65-2.23 3.59 4.06-2.1 10.78-.72.84-4.43-1.12-4.45.15.51-24.57 19.59-25.88 21.61-26.27 2.57-.83 16.57 1.22 18.39 5.49.34.79 1.01 5.39 1.74 5.78Z" class="cls-6"/></g><path id="mouth" d="M97.78 89.12s-9.23 7.12-14.17.41c0 0-3.91-6.09 5.9-9.56 0 0 2.3 7.83 8.27 9.15" class="cls-8"/><g id="nose"><path d="m98.48 78.88-2.52.5s-.37-1.68 2.52-.5M101.45 80.85c2.54-3.16.1-5.51.1-5.51-3.01-2.59-6.67.57-6.84.71 3.85-4.49 7.08-2.18 7.08-2.18 3.98 3.13-.16 6.82-.34 6.98" class="cls-4"/></g><g id="freckles"><path d="M87 73.89c0 .34-.53.34-.53 0s.54-.34.53 0M83.58 76.57c0 .55-.87.56-.86 0 0-.56.87-.56.86 0M78.17 72.97c0 .51-.8.51-.79 0 0-.51.8-.51.79 0M99.53 67.86c0 .47-.73.48-.73 0 0-.47.73-.47.73 0M110.15 72.45c0 .42-.67.42-.66 0 0-.43.67-.43.66 0M115.23 73.93c0 .47-.73.47-.73 0 0-.48.73-.47.73 0M110.35 78.84c0 .68-1.06.68-1.06 0s1.06-.68 1.06 0M120.04 71.72c0 .34-.53.34-.53 0s.53-.34.53 0M74.61 76.7c.01.64-1 .64-.99 0 0-.64 1-.65.99 0M67.16 70.04c0 .38-.6.39-.59 0 0-.38.6-.38.59 0" class="cls-4"/></g><g id="eyes"><g id="eye_x5F_whites"><path d="M95.95 59.63c-.05 10.39-27.01 15.15-27.01-1.57 0-5.52 25.77-2.37 26.65-.52.35.63.49 1.34.36 2.09M128.69 58.99c-.05 10.69-22.54 14.31-24.09-.26-.1-.91 24.09-5.51 24.09.26" class="cls-8"/></g><g id="eye_x5F_shade"><path d="M95.59 57.53s.45.58.31.75c-9.42-2.45-26.59-1.36-27.06 0 0 0-.01-.22.03-.56.47-3.33 25.11-2.19 26.72-.19M128.82 58.46s.01.34-.13.52c-1.84-2.22-22.69-1.35-24.19-.18 0 0 .04-.26.2-.58.15-1.28 23.14-3.75 24.12.23Z" class="cls-10"/></g><g id="eyes-2" data-name="eyes"><path d="M95.66 57.55s-.02 0-.06-.01c-.51-.15-3.8-1.03-11.81-1.2 2.78 2.55-.41 6.02-4.17 5.9-3.89.14-7.05-3.59-4.02-6.07-3.18.13-6.19.35-6.72 1.55q-.03.06-.03.12s-.2-3.35 3.33-3.66l21.54 1.72s1.48.48 1.96 1.65ZM128.73 58.62c-.12-1.67-8.73-1.62-12.2-1.49 2.5 2.23.11 5.23-3.72 5.11-3.16.2-6.23-2.56-3.5-4.84-2.35.21-4.02.35-4.71.92 0 0 .42-1.73 2.36-1.86 0 0 17.4-.7 19.2-.77.06-.14 3.21.61 2.57 2.94Z" class="cls-2"/></g><g id="eye_x5F_highlights"><path d="M77.86 57.59c.02.98-1.52.97-1.5 0-.02-.97 1.51-.97 1.5 0M111.46 58.54c.01.92-1.43.92-1.42 0-.01-.92 1.43-.92 1.42 0" class="cls-8"/></g></g><path d="M127.11 34.33c-2.04-.77-1.41.07-4.2 2.46-2.79 2.38-4.04.09-2.39-1.24 1.67-1.36.9-2.31.58-3.44 0 0-1.32-.04-2.23-1.3-2.71-3.75 4.91-1.17 4.94-5.98-1.49-2.52-6.12-3.74-6.28-1.19-.48 3.3-3.15 1.43-2.17 3.74.83 1.95-5.59 0-1.57-4.16 1.75-2 3.77-3.87 1.31-5.23-1.56-.47-4.87-1.3-4.45.26.54 2.04-3.1.33-2.04 3.36.46 1.33-2.44 1.01-4.24-.2-1.79-1.21.92-2.86 1.74-3.44.75-.57-.31-4.49-3.44-5.31-2.88-.75-2.72 8.46-4.11 7.61-2.49-1.86-2.01 1.86-4-2.84-.53-1.26-.13-6.61-2.48-4.26-1.86 1.86-6.22-1.69-4.39 3.17.45 1.22.44 5.78-.84 3.04-1.86-4-4.35-.18-3.46-2.13 1.33-2.93.72-8.28-2.1-4.52-1.99 2.65-7.67-2.58-3.81 5.72.59 1.27-2.53-.31-1.73 2.09.29.87-3.61 2.32-3.1-1.95.51-4.3-1.82-5.01-2.66-3.73-.42.63-2.99-.79-4-.09-1.82 1.27-.75 3.82.01 5.91.46 1.28.32 3.12-.9 3.05-1.12-.06-2.03-1.46-2.04-1.51-.12-.59-2.22-1.63-2.6-2.14-.41-.54 0-1.91-2.93-2.38-2.93-.48-6.26.95-5.65 4.63 1.34 6.87 2.38 1.04 5.52 3.95 1.5 1.36 1.09 2.18.62 2.25-.48.07-2.03-1.54-2.5-.18-.37 1.05-6.37.37-6.7.47-3.31 1.22-5.81 2.62-1.29 6.92.54.45-.07 1.29 4.56.82s.75 1.29.75 1.29c-.96.75-5.31.48-5.38.48-6.98.95-3.88 3.88-.89 5.17.02 3.84 2.68.07 4.46-.25 1.87.03-.37 3.41-.59 3.63-1.37 1.33.95 7.08 1.71 8.52 2.03 2.34 3.42-.64 5.69-.58 1.3-.11 1.4-1.78 1.89-2.68 2.29-3.27-3.41-10.23.2-8.1 4.93 2.04 1.58-3.74 4.69-4.12 1.84-.14 5.14.98 5.36.93.22-.06.97-1.31 1.37-1.75 1.83-2.31 6.96-.37 7.02-.38-.19.05 4.32 1.94 8.15-.7 2.54-.44 5.79 1.01 7.42 1.53 1.18.2 1.25 1.1 2.05 1.74 1.68.65 3.04 1.36 4.17 2.35 1.05 1.18 3.49-2.85 4.2-3.07 1.88-1.24 10.1 4.3 13.39.13 2.27 1.43 3.78-.02 4.43-.84 0 0 1.68-1.3 4.4-.84 0 0 4.9-3.05.5-4.7Zm-57.13 6.34c.05-.15.08-.29.11-.43-.01.13-.05.28-.11.43" style="fill:#512e18"/></svg>