<svg id="Layer_1" data-name="Layer 1" xmlns="http://www.w3.org/2000/svg" viewBox="0 0 311.46 365.16"><defs><style>.cls-1{fill:none;}.cls-2{fill:#85a9cd;}.cls-3{fill:#35536c;}.cls-4{fill:#371847;}.cls-13,.cls-5{fill:#010101;}.cls-6{fill:#434344;}.cls-7{fill:#e42327;}.cls-8{fill:#b92025;}.cls-9{fill:#e2ab90;}.cls-10{fill:#9f4c24;opacity:0.25;}.cls-11{fill:#231f20;}.cls-12{fill:#fff;}.cls-13{opacity:0.23;}</style></defs><rect class="cls-1" x="0.49" width="310.96" height="364.63"/><g id="shirt"><g id="shirt-2" data-name="shirt"><path class="cls-2" d="M178.19,264.7a11.55,11.55,0,0,0-1.24.18,10.54,10.54,0,0,0-4.12,1.75,21.86,21.86,0,0,1,2.89-6.57,7.71,7.71,0,0,1,.71-.95A48.28,48.28,0,0,0,178.19,264.7Z"/><path class="cls-2" d="M177,265.12a8.07,8.07,0,0,0-4.28,1.86l.09-.35a10.54,10.54,0,0,1,4.12-1.75A1.68,1.68,0,0,0,177,265.12Z"/><path class="cls-2" d="M281.15,274c-1.63-.95-4.7-2.81-6.54-3.9C276.84,271.28,279,272.57,281.15,274Z"/><path class="cls-2" d="M176.54,292.19c.11.44.25.91.38,1.42C176.79,293.11,176.66,292.63,176.54,292.19Zm-1-2.93c.1.28.22.6.33.94C175.8,289.86,175.69,289.55,175.58,289.26Z"/><path class="cls-2" d="M308,314.09c-2.86-17.5-12.61-30-24.85-38.73,3.29,3.26,14.25,19.42,11.91,88.76l-26.91.22s2.51-77.25-16.72-100.06a19.28,19.28,0,0,0-4.76-4.21,46,46,0,0,1-.86,16.06c-1.83,7.66-6.12,16.16-15.2,23.58.11-.34,2.36-7-5.12-10.23,0,0-1-.44-2.54-1.25s-3.86-2.05-6.28-3.6c-.74-.48-1.51-1-2.28-1.52a24.5,24.5,0,0,1-2.23,4.79,1.21,1.21,0,0,1,.2.14l2.79-1.88h0l1.38-.93A16.13,16.13,0,0,1,214,289.5a19.13,19.13,0,0,1-10.53,6.27l-.27-.26c-.65-.64-2.39-2.37-4.46-4.46-.61-.61-1.25-1.26-1.89-1.93-.24-.25-.49-.49-.72-.74h0l-.43-.45.8.61h0l.68.27L197,289l2.21,1.65,4.41,3.31,4.58-3.09-7-2.34L193.81,286l-5.54-1.85a10.74,10.74,0,0,1-.93.58c-2.42,1.37-9.05,4.42-14.74.25l-.55-.07h0l-7.85,2.71,2.43-.74-7.57,13.45a81.66,81.66,0,0,1-12.26-6.71l-2.67.92s-.6-1.37-1.38-3.69c-10.91-7.88-24.44-20.95-31-40.33.71,1.71,8.89,20.87,30.2,37.51-1.89-6.74-3.79-17.62-.41-27.56a30.68,30.68,0,0,1,1.65-3.91l18.64,6.9c-1-1-2.06-1.92-3.22-2.88l-.5-.41s-14.43-9.31-17.21-22.79a22.59,22.59,0,0,1-.4-2.89.28.28,0,0,1,0-.09s-.28.84-.67,2.25c-1.07,3.87-2.86,12.11-1.33,19.26a18.67,18.67,0,0,0,1.47,4.44c-.49-.2-13.55-5.8-18.08-22.87-2.35,5.32-4.29,9.83-4.29,9.83l0,.08,0,.05h0c-6.88,2.71-22.28,8.36-37.84,11.14,0,0-19.53,2.93-37.63,10.51l26.05-8s35.26,4.75,31.05,104l211.58,0S311.27,334.21,308,314.09ZM180.74,365s-1,.12-1,0c.08-1.62.14-3.23.2-4.83s.09-3.2.13-4.79.06-3.16.07-4.73c.09-7.93,0-15.58-.35-22.69L179.7,326c0-.6-.07-1.19-.09-1.78s-.06-1.05-.09-1.56c0-.66-.07-1.32-.11-2l-.09-1.37c-.12-1.64-.23-3.23-.36-4.77q-.11-1.47-.24-2.88c-.05-.49-.1-1-.14-1.47l-.18-1.75c-.2-2-.43-4-.65-5.79-.07-.47-.13-.94-.19-1.4-.25-1.73-.49-3.35-.75-4.86,0-.27-.09-.55-.14-.81-.09-.51-.18-1-.27-1.48s-.14-.73-.22-1.08-.19-.93-.29-1.38-.17-.71-.25-1.06c-.15-.58-.28-1.12-.43-1.62-.09-.32-.19-.63-.28-.92-.17-.55-.35-1.06-.53-1.5a6.23,6.23,0,0,1,.36.69c.07.15.15.32.23.53s.16.36.24.56.14.34.21.52.07.21.11.32l0,.07c.11.29.22.6.33.94.19.58.41,1.25.63,2,.12.44.25.92.38,1.42.3,1.13.61,2.42.91,3.87,0,.25.11.5.16.75l.15.77c.31,1.57.61,3.32.9,5.27.05.32.1.65.14,1q.49,3.38.9,7.48c.07.84.15,1.69.23,2.58.23,2.65.42,5.52.58,8.64,0,.48.05,1,.07,1.46C181.44,335.84,181.48,348.84,180.74,365Zm5.9-48.44a4.62,4.62,0,0,1,5.65-3.34,4.79,4.79,0,0,1,2.69,6.1,4.61,4.61,0,0,1-5.65,3.34A4.79,4.79,0,0,1,186.64,316.54Zm9.32,44a4.6,4.6,0,0,1-5.64,3.34,4.78,4.78,0,0,1-2.7-6.09,4.62,4.62,0,0,1,5.66-3.34A4.77,4.77,0,0,1,196,360.58Z"/><path class="cls-2" d="M99.21,365.08H0c.85-31.19,5.49-51.29,9.35-62.86,3-8.88,5.48-12.74,5.48-12.74,5-8.94,15.84-15.6,27.28-20.39l26.05-8S103.42,265.82,99.21,365.08Z"/><path class="cls-2" d="M142.74,290.87c-10.91-7.88-24.44-20.95-31-40.33.71,1.71,8.89,20.87,30.2,37.51C142.18,289.1,142.48,290,142.74,290.87Z"/><path class="cls-2" d="M166.62,286.9l-7.57,13.45a81.66,81.66,0,0,1-12.26-6.71l1.93-.66,14.21-4.9,0-.06,1.22-.38Z"/><path class="cls-2" d="M180.74,365s-1,.12-1,0c.08-1.62.14-3.23.2-4.83s.09-3.2.13-4.79.06-3.16.07-4.73c.09-7.93,0-15.58-.35-22.69L179.7,326c0-.6-.07-1.19-.09-1.78s-.06-1.05-.09-1.56c0-.66-.07-1.32-.11-2l-.09-1.37c-.12-1.64-.23-3.23-.36-4.77q-.11-1.47-.24-2.88c-.05-.49-.1-1-.14-1.47l-.18-1.75c-.2-2-.43-4-.65-5.79-.07-.47-.13-.94-.19-1.4-.25-1.73-.49-3.35-.75-4.86,0-.27-.09-.55-.14-.81-.09-.51-.18-1-.27-1.48s-.14-.73-.22-1.08-.19-.93-.29-1.38-.17-.71-.25-1.06c-.15-.58-.28-1.12-.43-1.62-.09-.32-.19-.63-.28-.92-.17-.55-.35-1.06-.53-1.5a6.23,6.23,0,0,1,.36.69c.07.15.15.32.23.53s.16.36.24.56.14.34.21.52.07.21.11.32l0,.07c.11.29.22.6.33.94.19.58.41,1.25.63,2,.12.44.25.92.38,1.42.3,1.13.61,2.42.91,3.87,0,.25.11.5.16.75l.15.77c.31,1.57.61,3.32.9,5.27.05.32.1.65.14,1q.49,3.38.9,7.48c.07.84.15,1.69.23,2.58.23,2.65.42,5.52.58,8.64,0,.48.05,1,.07,1.46C181.44,335.84,181.48,348.84,180.74,365Z"/><path class="cls-2" d="M195,319.3a4.61,4.61,0,0,1-5.65,3.34,4.79,4.79,0,0,1-2.69-6.1,4.62,4.62,0,0,1,5.65-3.34A4.79,4.79,0,0,1,195,319.3Z"/><path class="cls-2" d="M196,360.58a4.6,4.6,0,0,1-5.64,3.34,4.78,4.78,0,0,1-2.7-6.09,4.62,4.62,0,0,1,5.66-3.34A4.77,4.77,0,0,1,196,360.58Z"/><polygon class="cls-2" points="197.16 288.82 197.01 288.95 196.48 288.55 197.16 288.82"/><path class="cls-2" d="M212.34,288l-.48.32c.09-.16.19-.31.28-.46A1.21,1.21,0,0,1,212.34,288Z"/><path class="cls-2" d="M229.34,281l-1.05-.32c-.34-.1-.69-.21-1-.33s-.52-.17-.77-.27c.05-.13.09-.27.13-.4.16.09.31.18.46.25l.54.28C228.54,280.68,229.14,280.94,229.34,281Z"/></g><g id="shirt_shadows"><path class="cls-3" d="M180.74,365s-1,.12-1,0c.08-1.62.14-3.23.2-4.83s.09-3.2.13-4.79.06-3.16.07-4.73c.09-7.93,0-15.58-.35-22.69L179.7,326c0-.6-.07-1.19-.09-1.78s-.06-1.05-.09-1.56c0-.66-.07-1.32-.11-2l-.09-1.37c-.12-1.64-.23-3.23-.36-4.77q-.11-1.47-.24-2.88c-.05-.49-.1-1-.14-1.47l-.18-1.75c-.2-2-.43-4-.65-5.79-.07-.47-.13-.94-.19-1.4-.25-1.73-.49-3.35-.75-4.86,0-.27-.09-.55-.14-.81-.09-.51-.18-1-.27-1.48s-.14-.73-.22-1.08-.19-.93-.29-1.38-.17-.71-.25-1.06c-.15-.58-.28-1.12-.43-1.62-.09-.32-.19-.63-.28-.92-.17-.55-.35-1.06-.53-1.5a6.23,6.23,0,0,1,.36.69c.07.15.15.32.23.53s.16.36.24.56.14.34.21.52.07.21.11.32l0,.07c.11.29.22.6.33.94.19.58.41,1.25.63,2,.12.44.25.92.38,1.42.3,1.13.61,2.42.91,3.87,0,.25.11.5.16.75l.15.77c.31,1.57.61,3.32.9,5.27.05.32.1.65.14,1q.49,3.38.9,7.48c.07.84.15,1.69.23,2.58.23,2.65.42,5.52.58,8.64,0,.48.05,1,.07,1.46C181.44,335.84,181.48,348.84,180.74,365Z"/><path class="cls-3" d="M142.74,290.87c-10.91-7.88-24.44-20.95-31-40.33.71,1.71,8.89,20.87,30.2,37.51C142.18,289.1,142.48,290,142.74,290.87Z"/><path class="cls-3" d="M166.62,286.9l-7.57,13.45a81.66,81.66,0,0,1-12.26-6.71l1.93-.66c2.38,1.57,4.88,3.11,7.53,4.57l6.68-9.47,0-.06,1.22-.38Z"/><path class="cls-3" d="M216.52,285.22A16.13,16.13,0,0,1,214,289.5a19.13,19.13,0,0,1-10.53,6.27l-.27-.26c-.65-.64-2.39-2.37-4.46-4.46-.61-.61-1.25-1.26-1.89-1.93-.24-.25-.49-.49-.72-.74h0l-.43-.45.8.61h0l.53.4,2.21,1.65,4.41,3.31,4.58-3.09h0l1.25.41.23.08a9.19,9.19,0,0,0,.63-.8,21.71,21.71,0,0,0,1.53-2.15l.48-.32,2.79-1.88h0Z"/></g></g><g id="suspenders"><path class="cls-4" d="M99.21,365.08v0l-29.44.06a.42.42,0,0,1,0-.07c.22-2.76,6.55-86-27.67-96l26.05-8S103.42,265.82,99.21,365.08Z"/><path class="cls-4" d="M295,364.12l-26.91.22s2.51-77.25-16.72-100.06a19.28,19.28,0,0,0-4.76-4.21h.14c.64.05,3.2.24,6.68.58l.42.5c.27.35.54.7.79,1.05,6.82,9.34,7.39,20.63,7.39,20.63l.69-.49a30.27,30.27,0,0,0,10.35-13h0c.49.24,1,.49,1.44.75l.05,0c1.84,1.09,4.91,3,6.54,3.9l.1.07c.63.41,1.26.84,1.88,1.3C286.42,278.62,297.38,294.78,295,364.12Z"/></g><path class="cls-4" d="M214.37,283.11a24.5,24.5,0,0,1-2.23,4.79c-.09.15-.19.3-.28.46a21.71,21.71,0,0,1-1.53,2.15,9.19,9.19,0,0,1-.63.8l-.23-.08-1.25-.41h0l-7-2.34L193.81,286l-5.54-1.85a10.74,10.74,0,0,1-.93.58c-2.42,1.37-9.05,4.42-14.74.25l-.23-.18-.32.11h0l-7.85,2.71L163,288l0,.06L148.72,293l-1.93.66-2.67.92s-.6-1.37-1.38-3.69c-.26-.83-.56-1.77-.84-2.82-1.89-6.74-3.79-17.62-.41-27.56a30.68,30.68,0,0,1,1.65-3.91l18.64,6.9a47.29,47.29,0,0,1,9.95,13.2,34.94,34.94,0,0,1,1-9.7,8.07,8.07,0,0,1,4.28-1.86,1.68,1.68,0,0,1-.07-.24,11.55,11.55,0,0,1,1.24-.18,40.48,40.48,0,0,0,9.51,14.85l.16.16c.18.18.4.38.62.58l.21.2a3.59,3.59,0,0,0,.33.29l.11.09c.7.62,1.4,1.19,2.1,1.72l.69.51c.47.35.93.66,1.39,1l.67.43.67.41c1,.59,1.94,1.1,2.83,1.53.5.24,1,.46,1.43.65l.14.06.59.25c.33.14.66.25,1,.37l.88.32,0,0,.45.14,1,.31.25.07c.82.21,1.34.31,1.45.33a6.23,6.23,0,0,1-.55-.49,5.11,5.11,0,0,1-.45-.48.24.24,0,0,1-.06-.08c-.15-.17-.29-.34-.43-.53s-.26-.37-.39-.58a3.58,3.58,0,0,1-.25-.42.75.75,0,0,1-.07-.12c-.08-.13-.15-.26-.22-.4a4.18,4.18,0,0,1-.28-.56q-.09-.18-.18-.39l-.11-.23c-.14-.32-.26-.64-.39-1s-.23-.62-.33-.94-.16-.53-.24-.82-.13-.43-.19-.66-.14-.53-.2-.8c-.18-.76-.34-1.55-.49-2.35-.06-.33-.11-.66-.16-1l-.15-1c-.12-.79-.21-1.59-.3-2.39-.05-.51-.1-1-.13-1.53,0-.19,0-.38-.05-.57s0-.59-.06-.87c0-.12,0-.23,0-.34,0-.42-.05-.83-.07-1.24-.16-3.34-.11-6.22-.06-7.82l.29-.14c1.23,5.54,5,11.81,5,11.81l.23.37c.17.29.35.56.55.84a8.86,8.86,0,0,0,.53.72,2.86,2.86,0,0,0,.22.3l.41.53c.26.31.53.62.8.91s.44.5.68.74.49.51.75.76A45.1,45.1,0,0,0,214.37,283.11Z"/><g id="buttons"><path class="cls-5" d="M195,319.3a4.61,4.61,0,0,1-5.65,3.34,4.79,4.79,0,0,1-2.69-6.1,4.62,4.62,0,0,1,5.65-3.34A4.79,4.79,0,0,1,195,319.3Z"/><path class="cls-5" d="M196,360.58a4.6,4.6,0,0,1-5.64,3.34,4.78,4.78,0,0,1-2.7-6.09,4.62,4.62,0,0,1,5.66-3.34A4.77,4.77,0,0,1,196,360.58Z"/></g><g id="hat"><path class="cls-6" d="M274.69,80c0,.24,0,.5-.05.75a23.47,23.47,0,0,0-9.73-12.56s-3.89-2.73-7.39-10.09c0,0-8.25-16-14-13.73l-1.37,1.17-.28.24a2.06,2.06,0,0,0-.14-.38.21.21,0,0,0-.05-.12,1.88,1.88,0,0,0-.14-.29.89.89,0,0,0-.09-.16l-.1-.16a2.9,2.9,0,0,0-.24-.38,11.41,11.41,0,0,0-4.5-3.45l-.51-.23a23.43,23.43,0,0,0-3.35-1.18c-.28-.09-.58-.17-.88-.24-.61-.15-1.26-.29-1.95-.43a91.06,91.06,0,0,0-19.62-.29c-1,.07-2,.17-3.05.28l-1.12.13L205,39l-.28,0-.52.06-1.54.22-1.88.29h0l-1.11.19c-.66.11-1.33.23-2,.37-.85.15-1.72.33-2.59.53s-1.57.34-2.36.53h0l-2.39.6-1.58.42-1.35.38c-1.66.48-3.34,1-5,1.6a11.42,11.42,0,0,0-1.12.39c-.71.24-1.42.5-2.13.77l-1.72.66c-.73.3-1.46.59-2.2.91-1.07.45-2.15.92-3.24,1.43l-1.39.65c-1,.47-2,1-3,1.5l-1.31.69c-.52.27-1,.55-1.55.84s-1.14.64-1.71,1-.84.49-1.27.76-.84.5-1.26.77-1,.59-1.45.9l-1.45,1c-.49.32-1,.64-1.45,1l-.26.18c-.83.56-1.65,1.14-2.46,1.75q-2.79,2-5.54,4.35c-.34.28-.68.58-1,.86s-.42.38-.63.55-.68.59-1,.9l-.92.83c-.41.37-.81.74-1.2,1.12s-.8.75-1.2,1.15l-.7.67a120.63,120.63,0,0,0-13.5,15.9c-.37.51-.73,1-1.09,1.54-1.16,1.67-2.29,3.39-3.41,5.17-.31.5-.63,1-.93,1.53-.44.69-.85,1.39-1.27,2.11a163.73,163.73,0,0,0-12.68,27.32c-3.5-.67-6.93-.26-9.45,2.42a2,2,0,0,0-.2.21,14.34,14.34,0,0,0-1.74,4.85,21.49,21.49,0,0,0-.17,7.16,5.07,5.07,0,0,0,.09.54l-.09.1-.16.15-.18.15a3,3,0,0,1-.34.25,9.38,9.38,0,0,1-2.33,1.14c-4.07,1-3.51-2.72-8.16-3.84h-.24c-2.52,0-4.5.26-6.84,2.43a20.22,20.22,0,0,0-2.29,2.63,54.86,54.86,0,0,0-3.78,6.13l0,.06a1.57,1.57,0,0,0-.14.25,2.29,2.29,0,0,1,.4-.28l.05,0,.65-.37h0l0,0,0,0,.07,0,.12-.06.12-.06.1-.05.39-.19a7.83,7.83,0,0,1,1.33-.46c.19-.05.39-.09.57-.12l.43-.07a10.7,10.7,0,0,1,1.24-.1,14.68,14.68,0,0,1,3.31.3l.33.08a10.19,10.19,0,0,0,1.84.79,9.5,9.5,0,0,0,4.27.45,2.27,2.27,0,0,0,.35,0,1.65,1.65,0,0,0,.32-.06l.15,0a7.42,7.42,0,0,0,2.21-.81l.06,0a2.17,2.17,0,0,1,0,.26l.14-.06c-.13.05.86,2.37-2.68,8.77a74.42,74.42,0,0,1-5.85,8.79c-.56.68-1.06,1.27-1.47,1.73a13.35,13.35,0,0,1-1.21,1.19,2.91,2.91,0,0,0,.4-.05s.07,0,.21,0h0a13.62,13.62,0,0,0,4.32-1.79h0a4.89,4.89,0,0,0,.63-.4l.1-.06a32.64,32.64,0,0,0,5.36-4.51c0,.17-.06.34-.1.5a31,31,0,0,1-1.07,4.22c-.09.26-.17.51-.26.76l-.21.53c-.14.35-.27.7-.41,1q-.1.26-.21.48c-.07.17-.14.33-.21.47l-.21.46c-3.74,6.15-10.47,10.58-15.83.48-1.13-2.15-2-9.78-3.89-8.66-3.89,2.38-7.79-.22-11.69-21.65-5.58-30.71,11.36-75.59,21.43-87.43,0,0,26.12-39.92,57.18-29.07,0,0,17.59-16.48,49-1.51,0,0,71.11-5.24,82.71,30.69C266.85,51.8,275.45,66,274.69,80Z"/><g id="hat_shadows"><path class="cls-5" d="M181.06,20.43c-59.83,27-77.23,78.84-82.29,105.28a2,2,0,0,0-.2.21,14.34,14.34,0,0,0-1.74,4.85c1.26-26,9.41-40.9,9.41-40.9C135.39,31.47,179.68,20.74,181.06,20.43Z"/><path class="cls-5" d="M77.85,160.81a63,63,0,0,1-1.76-14.42v-.18l.43-.07a10.7,10.7,0,0,1,1.24-.1v.14A115.5,115.5,0,0,0,77.85,160.81Z"/><path class="cls-5" d="M112.87,65.08c-1.77,1.84-29.22,30.77-34.45,73.66a.49.49,0,0,0,0,.12,20.22,20.22,0,0,0-2.29,2.63c0-.12,0-.24,0-.36.69-18.33,7.39-47.1,36.66-76Z"/><path class="cls-5" d="M65.36,92s21.3-48.15,73-69.68C138.37,22.27,88.92,47.79,65.36,92Z"/></g></g><path id="hair_beard" class="cls-7" d="M281.5,116.86a66.22,66.22,0,0,0-8.62-.53c.22,1,.41,2,.58,2.86.05.23.09.46.13.68.2,1,.36,2,.49,2.74l.06.33c.11.57.21,1.13.31,1.71h0l8-.32A20.27,20.27,0,0,0,281.5,116.86Zm6,62.49c10.39,17.12,5.29,47.81,5.29,47.81C299.84,203.23,291.9,186.27,287.53,179.35Zm-23.92,21.06S248,188,235.77,184.2c-.22-.07,2.63,1.51,6.86,4.13l.29.17a149.32,149.32,0,0,1,20.55,15s4.92-2.73,5.38-11.2C268.71,193.35,267.76,199.28,263.61,200.41ZM241.85,171.5c-.17.24-.34.46-.49.68,0,0,0,0,0,0h0a12,12,0,0,1-2.29,4.25,16.32,16.32,0,0,0,3.68-4.89C242.17,171.51,241.85,171.5,241.85,171.5Zm-9.45,13.07-.5.09-.2,0-1.1.22c-.56.12-1.11.24-1.65.38l-.73.19c-.94.25-1.86.52-2.74.83-.41.12-.81.27-1.2.42s-.94.35-1.41.54c-.91.37-1.79.77-2.64,1.17h0l-.69.34c-.58.29-1.15.59-1.69.9-.27.16-.55.3-.81.46l-.78.46a3,3,0,0,0-.38.24l-.38.23c-.25.15-.5.31-.73.48s-.48.31-.7.47c-.7.47-1.35.94-2,1.4l-.6.47-1.11.9-.52.44c-.33.29-.66.57-1,.85l-.44.4c-.28.27-.54.51-.78.76s-.25.23-.36.35a29.49,29.49,0,0,0-2,2.27c-5.78.68-10.38-7-10.66-7.46,3.46,10.23,11.77,9.12,11.77,9.12.39-.49.79-1,1.21-1.44.18-.23.37-.44.57-.65a4.86,4.86,0,0,1,.38-.41c.22-.24.43-.47.67-.7s.37-.38.57-.57c.49-.49,1-1,1.49-1.41q.44-.39.87-.75c.29-.25.59-.5.88-.73l.89-.7c.57-.45,1.16-.87,1.74-1.29l.84-.58c.34-.22.67-.45,1-.66l.89-.56c.6-.37,1.19-.72,1.78-1.05.14-.09.29-.16.43-.24l.31-.17c.16-.1.31-.18.47-.26l1.19-.61a60.94,60.94,0,0,1,9.66-3.95l.44-.13,1-.29C233.27,184.43,232.83,184.49,232.4,184.57ZM221.83,45.13c-2.38,6.93-27.7,10.39-27.7,10.39C164.69,64,165.77,73.06,165.77,73.06c1.31-9.31,26-15.15,26-15.15C222.7,53.79,221.83,45.13,221.83,45.13ZM188.69,280.49a3.59,3.59,0,0,0,.33.29C188.91,280.67,188.79,280.58,188.69,280.49Zm-.61-.58a2.09,2.09,0,0,1-.22-.2c.18.18.4.38.62.58ZM98.91,210.82c.21-1.3,2.74-15.44,19-23.49C117.94,187.33,100.47,189.71,98.91,210.82Z"/><g id="hair"><path id="hair-2" data-name="hair" class="cls-7" d="M212.1,193.41c.61-.46,1.26-.93,2-1.4C213.36,192.47,212.71,193,212.1,193.41Z"/><path class="cls-7" d="M278.49,162.87c0,.2,0,.41,0,.6a33.24,33.24,0,0,1,.12,4,34.6,34.6,0,0,1-.27,3.59,41.84,41.84,0,0,1-9.14,21,20.26,20.26,0,0,0-5-10.91c-.16-.18-.31-.35-.48-.51s-.24-.26-.37-.38a3,3,0,0,0-.36-.35c-.28-.28-.57-.54-.87-.8l-.27-.22c-.27-.22-.53-.44-.8-.64l-.33-.25c-.44-.33-.89-.64-1.35-.92a3.22,3.22,0,0,0-.39-.25c-.47-.3-.95-.58-1.43-.83-.22-.13-.46-.25-.69-.37-.72-.37-1.44-.7-2.15-1-.23-.1-.47-.2-.7-.28-.76-.31-1.51-.58-2.24-.81l-.88-.28-.87-.25h0l-.83-.22h-.06c-.26-.07-.51-.14-.77-.19l-.39-.09-.78-.17-.56-.11-.53-.1a3.65,3.65,0,0,0-.46-.07l-.43-.07c-.86-.14-1.58-.23-2.13-.29l-.33,0a16.32,16.32,0,0,1-3.68,4.89,12,12,0,0,0,2.29-4.25l-.29.39a33,33,0,0,1-3.31,4.47l-.11.09a3,3,0,0,1-.28.24,2.4,2.4,0,0,1-.38.27c-.08.05-.16.08-.24.12a.05.05,0,0,1-.05,0l-.17.08a2,2,0,0,1-.36.13,2.33,2.33,0,0,1-.36.08.12.12,0,0,1-.08,0h-.08a3.49,3.49,0,0,1-1.11,0l-.48-.09-.1,0-.41-.12c-.21-.06-.42-.13-.65-.22l-1.06-.42a54.54,54.54,0,0,1-7.73-3.79c-20.21-4.93-29.67,17.89-29.67,17.89-17.94,0-29.66-9.43-36.7-18.25,0,.07.1.14.15.22.8,1.06,1.62,2.13,2.48,3.22.4.51-.7-.56-2.48-3.22-.21-.26-.4-.53-.59-.79-.95-1.22-1.81-2.42-2.57-3.58l-.28-.43A54.32,54.32,0,0,1,149,157.94c-10-36.34-3.11-58.2-2.88-59a36,36,0,0,1,6.44-12.61c1.47,6.2,7.33,9.94,14.47,9.36,0,0,0-.1,0-.17-.43-1.25-2.74-8.73,2.87-12.58a4.89,4.89,0,0,1,3.83-.86l.23-.06c.87-.2,1.86.47,3,1.61.3.23.55.43.76.61,5.09,4.25,7.83,11.65,17.48,11.65,5.83,0,9.46-5.22,10.38-6.71a13.27,13.27,0,0,1-2.85,0c-2.6,0-6.09-.55-7.52-3.81a12.88,12.88,0,0,1,.8-11.42c5.43-9.11,23.68-10.57,30.1-11.48,7.61-1.07,12.35-3.86,14.82-7.16l.09-.12c.61.52,1.29,1.14,2,1.86,5.55,5.57,14,17.13,20.56,30.87a115.16,115.16,0,0,1,5.84,15l.09.29c.31,1,.62,2,.9,3l.3,0c3.53-.41,4.12,0,4.44.55a1.22,1.22,0,0,1-.26,1.57l-.16.16.12,0a6.64,6.64,0,0,1,4.68.7c.2.1.39.2.6.29l.19.07.15.15a8.83,8.83,0,0,1,1.92,3.87c5.19,1.65,11.52-.8,12.79-5.73-15-1.71-15.77-16.56-20.4-27.77,0,.24,0,.5-.05.75a23.47,23.47,0,0,0-9.73-12.56s-3.89-2.73-7.39-10.09c0,0-8.25-16-14-13.73l-1.37,1.17-.28.24a2.06,2.06,0,0,0-.14-.38.21.21,0,0,0-.05-.12l-.14-.29a.89.89,0,0,0-.09-.16l-.1-.16c-.06-.12-.15-.24-.24-.38a11.41,11.41,0,0,0-4.5-3.45l-.51-.23a23.43,23.43,0,0,0-3.35-1.18c-.28-.09-.58-.17-.88-.24-.61-.15-1.26-.29-1.95-.43a91.06,91.06,0,0,0-19.62-.29c-1,.07-2,.17-3.05.28l-1.12.13L205,39l-.28,0-.52.06-1.54.22-1.88.29h0l-1.11.19-2,.37c-.85.15-1.72.33-2.59.53s-1.57.34-2.36.53h0l-2.39.6-1.58.42-1.35.38c-1.66.48-3.34,1-5,1.6-.38.12-.75.25-1.12.39-.71.24-1.42.5-2.13.77l-1.72.66c-.73.3-1.46.59-2.2.91-1.07.45-2.15.92-3.24,1.43l-1.39.65c-1,.47-2,1-3,1.5l-1.31.69c-.52.27-1,.55-1.55.84s-1.14.64-1.71,1-.84.49-1.27.76-.84.5-1.26.77-1,.6-1.45.9l-1.45,1c-.49.32-1,.64-1.45,1l-.26.18c-.83.57-1.65,1.15-2.46,1.75q-2.79,2-5.54,4.35c-.34.28-.68.58-1,.86s-.42.38-.63.55-.68.59-1,.9l-.92.83c-.41.37-.81.74-1.2,1.12s-.8.75-1.2,1.15l-.7.67a120.63,120.63,0,0,0-13.5,15.9c-.37.51-.73,1-1.09,1.54-1.16,1.67-2.29,3.39-3.41,5.17-.31.5-.63,1-.93,1.53-.44.69-.85,1.39-1.27,2.11a163.73,163.73,0,0,0-12.68,27.32c.42.08.84.17,1.27.28.27.07.55.15.82.24l.66.2A31,31,0,0,1,115,125.7c.38.18.77.38,1.14.58,1.12.59,2.15,1.19,3.07,1.77l.69.45c.35.22.67.44,1,.65s.48.32.69.48c.53.37,1,.69,1.23.89l.22.18,0,0a138.49,138.49,0,0,1-2-17.18c1.71,13.71,13.56,54.39,13.93,55.66-1.65-3.45-3.1-6.92-4.38-10.36-.17.52-.33,1-.51,1.52a29.41,29.41,0,0,1-2.19,4.84c-.2.33-.39.63-.58.92l-.35.48c-.18.24-.36.48-.55.7a7.55,7.55,0,0,1-.61.65,2.76,2.76,0,0,1-.3.29,2.44,2.44,0,0,1-.3.27l-.46.36-.48.31a5.37,5.37,0,0,1-.66.36l-.27.11a6.51,6.51,0,0,1-.66.23l-.3.07a3.14,3.14,0,0,1-.46.08l-.14,0-.28,0c-6.62.41-13.08-10.35-13.08-10.35-7.78-8.44-10.82-15.68-11.68-21.28l-.09.1-.16.15-.18.15a3,3,0,0,1-.34.25,9.38,9.38,0,0,1-2.33,1.14c-4.07,1-3.51-2.72-8.16-3.84h-.24c-2.52,0-4.5.26-6.84,2.43a20.22,20.22,0,0,0-2.29,2.63,54.86,54.86,0,0,0-3.78,6.13l0,.06,0,.13.31-.16.05,0,.65-.37h0l0,0,0,0,.07,0,.12-.06.12-.06.1-.05a2.33,2.33,0,0,1,.39-.19,7.83,7.83,0,0,1,1.33-.46c.19-.05.39-.09.57-.12l.43-.07a10.7,10.7,0,0,1,1.24-.1,14.68,14.68,0,0,1,3.31.3l.33.08a10.19,10.19,0,0,0,1.84.79,13.49,13.49,0,0,0,4.27.45,2.27,2.27,0,0,0,.35,0,1.65,1.65,0,0,0,.32-.06l.15,0a7.42,7.42,0,0,0,2.21-.81l.06,0a2.17,2.17,0,0,1,0,.26l.14-.06c-.13.05.86,2.37-2.68,8.77a74.42,74.42,0,0,1-5.85,8.79c-.56.68-1.06,1.27-1.47,1.73a13.35,13.35,0,0,1-1.21,1.19,2.91,2.91,0,0,0,.4-.05l.21,0h0a13.62,13.62,0,0,0,4.32-1.79h0l.63-.4.1-.06a32.64,32.64,0,0,0,5.36-4.51c0,.17-.06.34-.1.5a31,31,0,0,1-1.07,4.22c-.09.26-.17.51-.26.76l-.21.53c-.14.35-.27.7-.41,1q-.1.26-.21.48c-.06.16-.14.32-.21.47l-.21.46a32,32,0,0,1-16.1,15.25c10.32,5.21,19.92-2,19.92-2-7.47,10.79-6.65,19.15-6.65,19.15a18,18,0,0,1,6.54-7.2c4.15-2.19,7-1.19,7-1.19-7,7.47-6.16,19.59-6.16,19.59C93.15,231.35,81.14,236,81.14,236c19.44,2.81,24.56-16.9,24.56-16.9,3.32,4.87-3.59,14.33-3.59,14.33A22.66,22.66,0,0,0,120.38,222a52.17,52.17,0,0,0,.59,11.46,41,41,0,0,0,.86,4c4.53,17.07,17.59,22.67,18.08,22.87a18.67,18.67,0,0,1-1.47-4.44c-1.53-7.15.26-15.39,1.33-19.26.39-1.41.67-2.25.67-2.25a.28.28,0,0,0,0,.09,22.59,22.59,0,0,0,.4,2.89c2.78,13.48,17.21,22.79,17.21,22.79l.5.41c1.16,1,2.23,1.93,3.22,2.88a47.29,47.29,0,0,1,9.95,13.2,34.94,34.94,0,0,1,1-9.7l.09-.35a21.86,21.86,0,0,1,2.89-6.57,7.71,7.71,0,0,1,.71-.95,48.28,48.28,0,0,0,1.76,5.59,40.48,40.48,0,0,0,9.51,14.85l.16.16a2.09,2.09,0,0,0,.22.2l.4.38.21.2c.1.09.22.18.33.29l.11.09c.7.62,1.4,1.19,2.1,1.72l.69.51c.47.35.93.66,1.39,1l.67.43.67.41c1,.59,1.94,1.1,2.83,1.53.5.24,1,.46,1.43.65l.14.06.59.25c.33.14.66.25,1,.37l.88.32,0,0,.45.14,1,.31.25.07c.82.21,1.34.31,1.45.33a6.23,6.23,0,0,1-.55-.49,5.11,5.11,0,0,1-.45-.48.24.24,0,0,1-.06-.08c-.15-.17-.29-.34-.43-.53s-.26-.37-.39-.58a3.58,3.58,0,0,1-.25-.42.75.75,0,0,1-.07-.12c-.08-.13-.15-.26-.22-.4a4.18,4.18,0,0,1-.28-.56q-.09-.18-.18-.39l-.11-.23c-.14-.32-.26-.64-.39-1s-.23-.62-.33-.94-.16-.53-.24-.82-.13-.43-.19-.66-.14-.53-.2-.8c-.18-.76-.34-1.55-.49-2.35-.06-.33-.11-.66-.16-1l-.15-1c-.12-.79-.21-1.59-.3-2.39-.05-.51-.1-1-.13-1.53,0-.19,0-.38-.05-.57s0-.59-.06-.87c0-.12,0-.23,0-.34,0-.42-.05-.83-.07-1.24-.16-3.34-.11-6.22-.06-7.82,0-.86.06-1.35.06-1.35.06.4.14.8.23,1.21,1.23,5.54,5,11.81,5,11.81l.23.37c.18.29.36.56.55.84s.34.49.53.72a2.86,2.86,0,0,0,.22.3l.41.53c.26.31.53.62.8.91s.44.5.68.74.49.51.75.76a45.1,45.1,0,0,0,6,4.92c.77.53,1.54,1,2.28,1.52,2.42,1.55,4.67,2.78,6.28,3.6s2.54,1.24,2.54,1.25c7.48,3.25,5.23,9.89,5.12,10.23,9.08-7.42,13.37-15.92,15.2-23.58a46,46,0,0,0,.86-16.06v0a36.48,36.48,0,0,0-1.22-6.13,28.5,28.5,0,0,1,8,6.73l.42.5c.27.35.54.7.79,1.05,6.82,9.34,7.39,20.63,7.39,20.63l.69-.49a30.27,30.27,0,0,0,10.35-13l0-.06a35.32,35.32,0,0,0,1.63-5l.06-.25a44.41,44.41,0,0,0-.23-20c15.1,2.56,15.1,14.58,15.1,14.58C321.89,201.19,280,164.15,278.49,162.87ZM194.13,55.52s25.32-3.46,27.7-10.39c0,0,.87,8.66-30.08,12.78,0,0-24.67,5.84-26,15.15C165.77,73.06,164.69,64,194.13,55.52ZM98.91,210.82c1.56-21.11,19-23.49,19-23.49C101.65,195.38,99.12,209.52,98.91,210.82Zm63.17-15.88c-14.17,22.67-.37,45.74.21,46.69C144.11,218.54,161.35,195.87,162.08,194.94Zm66.21,85.76c-.34-.09-.69-.21-1-.33s-.52-.17-.77-.27a37.41,37.41,0,0,1-5.27-2.33l-.68-.38-.66-.38c-.66-.39-1.29-.79-1.9-1.21l-.61-.42-.84-.62-.86-.68h0a34.12,34.12,0,0,1-10.63-15.54,41.3,41.3,0,0,1-2.26-14.92,46.81,46.81,0,0,0,3.67,14.28,44.44,44.44,0,0,0,9,13.34c.65.67,1.31,1.3,2,1.89.35.33.72.64,1.07.95,1.2,1,2.37,1.93,3.47,2.71.27.2.53.38.8.55s.64.43.94.63.44.29.65.41.37.24.55.34a3.22,3.22,0,0,0,.46.27c.46.28.89.51,1.27.72.16.09.31.18.46.25l.54.28c.91.45,1.51.71,1.71.79Zm14.63-92.2-1.14,1.7c-.44.66-.9,1.28-1.34,1.86a22.41,22.41,0,0,1-3.3,3.45A9.75,9.75,0,0,1,231,198h-.48c-5.32-.33-9.08-5.91-10.28-8-.59.33-1.18.68-1.78,1.05l-.89.56c-.34.21-.67.44-1,.66l-.84.58c-.58.42-1.17.84-1.74,1.29l-.89.7c-.29.23-.59.48-.88.73s-.58.49-.87.75c-.5.45-1,.92-1.49,1.41-.2.19-.39.37-.57.57s-.45.46-.67.7a4.86,4.86,0,0,0-.38.41c-.2.21-.39.42-.57.65-.42.47-.82,1-1.21,1.44,0,0-8.31,1.11-11.77-9.12.28.46,4.88,8.14,10.66,7.46a29.49,29.49,0,0,1,2-2.27c.11-.12.23-.23.36-.35s.5-.49.78-.76l.44-.4c.29-.28.62-.56,1-.85l.52-.44,1.11-.9.6-.47c.61-.46,1.26-.94,2-1.4.22-.16.46-.32.7-.47s.48-.33.73-.48l.38-.23a3,3,0,0,1,.38-.24l.78-.46c.26-.16.54-.3.81-.46.54-.31,1.11-.61,1.69-.9l.69-.34h0c.85-.4,1.73-.8,2.64-1.17.47-.19.93-.37,1.41-.54s.79-.3,1.2-.42c.88-.31,1.8-.58,2.74-.83l.73-.19c.54-.14,1.09-.26,1.65-.38l1.1-.22.2,0,.5-.09c.43-.08.87-.14,1.33-.21l-1,.29-.44.13a60.94,60.94,0,0,0-9.66,3.95l-1.19.61a18.7,18.7,0,0,0,3.76,2.15,15.73,15.73,0,0,0,5,1.25,16.85,16.85,0,0,0,10.89-3.21l1.56-1.2c-4.23-2.62-7.08-4.2-6.86-4.13,12.19,3.75,27.84,16.21,27.84,16.21,4.15-1.13,5.1-7.06,5.24-8.15-.46,8.47-5.38,11.2-5.38,11.2A149.32,149.32,0,0,0,242.92,188.5Zm27.18,70.26s3-32.46-19.25-48.69C251.55,210.32,276.51,220.12,270.1,258.76Zm17.43-79.41c4.37,6.92,12.31,23.88,5.29,47.81C292.82,227.16,297.92,196.47,287.53,179.35Z"/><g id="hair_shadows"><path class="cls-8" d="M130.61,158.86h0a160.92,160.92,0,0,1-7.52-28.11,138.49,138.49,0,0,1-2-17.18c1.71,13.71,13.56,54.39,13.93,55.66C133.34,165.77,131.89,162.3,130.61,158.86Z"/><path class="cls-8" d="M268.85,192.26c-.46,8.47-5.38,11.2-5.38,11.2a149.32,149.32,0,0,0-20.55-15l-.29-.17c-4.23-2.62-7.08-4.2-6.86-4.13,12.19,3.75,27.84,16.21,27.84,16.21C267.76,199.28,268.71,193.35,268.85,192.26Z"/><path class="cls-8" d="M233.73,184.36l-1,.29-.44.13a60.94,60.94,0,0,0-9.66,3.95c-.38.18-.79.39-1.19.61-.16.08-.31.16-.47.26l-.31.17c-.14.08-.29.15-.43.24-.59.33-1.18.68-1.78,1.05-.29.17-.59.37-.89.56s-.67.44-1,.66l-.84.58c-.58.42-1.17.84-1.74,1.29-.3.22-.59.45-.89.7s-.59.47-.88.73-.58.49-.87.75c-.5.45-1,.92-1.49,1.41-.2.19-.39.37-.57.57s-.45.46-.67.7a4.86,4.86,0,0,0-.38.41c-.2.21-.39.42-.57.65-.42.47-.82,1-1.21,1.44,0,0-8.31,1.11-11.77-9.12.28.46,4.88,8.14,10.66,7.46a29.49,29.49,0,0,1,2-2.27c.11-.12.23-.23.36-.35s.5-.49.78-.76l.44-.4c.29-.28.62-.56,1-.85l.52-.44,1.11-.9.6-.47c.61-.46,1.26-.94,2-1.4.22-.16.46-.32.7-.47s.48-.33.73-.48l.38-.23a3,3,0,0,1,.38-.24l.78-.46c.26-.16.54-.3.81-.46.54-.31,1.11-.61,1.69-.9l.69-.34h0c.85-.4,1.73-.8,2.64-1.17.47-.19.93-.37,1.41-.54s.79-.3,1.2-.42c.88-.31,1.8-.58,2.74-.83l.73-.19c.54-.14,1.09-.26,1.65-.38l1.1-.22.2,0,.5-.09C232.83,184.49,233.27,184.43,233.73,184.36Z"/><path class="cls-8" d="M270.1,258.76s3-32.46-19.25-48.69C251.55,210.32,276.51,220.12,270.1,258.76Z"/><path class="cls-8" d="M229.34,281l-1.05-.32c-.34-.1-.69-.21-1-.33s-.52-.17-.77-.27a37.41,37.41,0,0,1-5.27-2.33l-.68-.38-.66-.38c-.66-.39-1.29-.79-1.9-1.21l-.61-.42-.84-.62-.86-.68h0a34.12,34.12,0,0,1-10.63-15.54,41.3,41.3,0,0,1-2.26-14.92,46.81,46.81,0,0,0,3.67,14.28,44.44,44.44,0,0,0,9,13.34c.65.67,1.31,1.3,2,1.89.35.33.72.64,1.07.95,1.2,1,2.37,1.93,3.47,2.71.27.2.53.38.8.55s.64.43.94.63.44.29.65.41.37.24.55.34a3.22,3.22,0,0,0,.46.27c.46.28.89.51,1.27.72.16.09.31.18.46.25l.54.28C228.54,280.68,229.14,280.94,229.34,281Z"/><path class="cls-8" d="M292.82,227.16s5.1-30.69-5.29-47.81C291.9,186.27,299.84,203.23,292.82,227.16Z"/><path class="cls-8" d="M162.29,241.63c-18.18-23.09-.94-45.76-.21-46.69C147.91,217.61,161.71,240.68,162.29,241.63Z"/><path class="cls-8" d="M191.75,57.91s-24.67,5.84-26,15.15c0,0-1.08-9.1,28.36-17.54,0,0,25.32-3.46,27.7-10.39C221.83,45.13,222.7,53.79,191.75,57.91Z"/><path class="cls-8" d="M117.94,187.33c-16.29,8-18.82,22.19-19,23.49C100.47,189.71,117.94,187.33,117.94,187.33Z"/></g></g><g id="skin"><g id="skin-2" data-name="skin"><path id="face" class="cls-9" d="M278.51,163.47c0-.19,0-.4,0-.6-.06-1.67-.13-3.32-.23-4.94v-.11q-.19-3.44-.45-6.72c-.51.11-1,.23-1.58.33l-.89.16a43.27,43.27,0,0,1-4.39.49l-.5,0c-.72,0-1.45.06-2.21.07,0,0-.64,0-1.71-.1-5.43-.47-22.09-3.27-24.15-19.94a5.16,5.16,0,0,1,0-1.47,5.27,5.27,0,0,1,.16-.79.24.24,0,0,1,0-.08h0l0-.08.14-.39v0l0-.05c0-.08.08-.17.12-.26a3.79,3.79,0,0,1,.18-.34,2.38,2.38,0,0,1,.18-.3,5.84,5.84,0,0,1,4.63-2.62l17.7-.71,8.8-.36h.05c-.1-.58-.2-1.14-.31-1.71l-.06-.33c-.41-2.16-.85-4.26-1.3-6.28a81.72,81.72,0,0,0-8.17.37,67.13,67.13,0,0,0-17.36,3.91,1.07,1.07,0,0,1-.39.07,1.67,1.67,0,0,1-.92-.33,10.88,10.88,0,0,1-4.1-8l0-.58.51-.3a43.82,43.82,0,0,1,6.53-3.15,1.3,1.3,0,0,1,1.11,0,1.82,1.82,0,0,1,.81,1.27c.53-.27,1.36-.73,2.07-1.13a28.55,28.55,0,0,1,3-1.57c.66-.24,1.55-.24,2.09,1.08.59-.25,1.51-.74,2.35-1.18s1.78-.94,2.43-1.23a3.71,3.71,0,0,1,.5-.2c1.19-.44,2,.54,2.46,1.12a3.8,3.8,0,0,0,.42.47,23.65,23.65,0,0,1,4.19-.83c-.28-1-.57-2-.85-3l-.09-.29a115.16,115.16,0,0,0-5.84-15c-6.55-13.74-15-25.3-20.56-30.87-.69-.6-1.4-1.18-2.1-1.74-2.47,3.3-7.21,6.09-14.82,7.16-6.42.91-24.67,2.37-30.1,11.48a12.88,12.88,0,0,0-.8,11.42c1.43,3.26,4.92,3.86,7.52,3.81a14.83,14.83,0,0,0,3.07-.35l-.22.4c-.92,1.49-4.55,6.71-10.38,6.71-9.65,0-12.39-7.4-17.48-11.65-.21-.18-.46-.38-.76-.61a7.87,7.87,0,0,0-3.19-1.55,4.89,4.89,0,0,0-3.83.86c-5.61,3.85-3.3,11.33-2.87,12.58l.06.17H167c-7.14.58-13-3.16-14.47-9.36A36,36,0,0,0,146.07,99c-.23.76-7.1,22.62,2.88,59a54.32,54.32,0,0,0,5.49,10.56l.28.43c.76,1.16,1.62,2.36,2.57,3.58l.43.56h0c7,8.82,18.76,18.25,36.7,18.25,0,0,9.46-22.82,29.67-17.89a54.54,54.54,0,0,0,7.73,3.79l1.06.42c.23.09.44.16.65.22l.41.12.1,0,.48.09a3.49,3.49,0,0,0,1.11,0h.08a.12.12,0,0,0,.08,0,2.33,2.33,0,0,0,.36-.08,2,2,0,0,0,.36-.13l.17-.08a.05.05,0,0,0,.05,0c.08,0,.16-.07.24-.12a3.28,3.28,0,0,0,.38-.27,3,3,0,0,0,.28-.24l.11-.09a33,33,0,0,0,3.31-4.47l.29-.39h0s0,0,0,0c.15-.22.32-.44.49-.68,0,0,.32,0,.89.07l.33,0c.55.06,1.27.15,2.13.29l.43.07a3.65,3.65,0,0,1,.46.07l.53.1.56.11.78.17.39.09c.26.05.51.12.77.19h.06l.83.22h0l.87.25.88.28c.73.23,1.48.5,2.24.81.23.08.47.18.7.28.71.3,1.43.63,2.15,1,.23.12.47.24.69.37.48.25,1,.53,1.43.83a3.22,3.22,0,0,1,.39.25c.46.28.91.59,1.35.92l.33.25c.27.2.53.41.8.64l.27.22c.3.26.59.52.87.8a3,3,0,0,1,.36.35c.13.12.25.25.37.38s.32.33.48.51a20.26,20.26,0,0,1,5,10.91,41.84,41.84,0,0,0,9.14-21,34.6,34.6,0,0,0,.27-3.59Q278.59,165.44,278.51,163.47Zm-116.06-33.8a8.09,8.09,0,0,1,.19-2,.17.17,0,0,1,0-.07c.24-2.13,1.46-6.48,7.37-7l48.15,3.84s3.3,1.08,4.37,3.68l-.18,0-.05-.06s0,0,0,.05c-1.3-.37-8.74-2.28-26.32-2.64a7.08,7.08,0,0,1,.87.86,5.72,5.72,0,0,1,1.45,3.82c0,4.69-5.23,8.5-11.66,8.5S175,134.84,175,130.15a6,6,0,0,1,1.69-4.2,6.07,6.07,0,0,1,1-.87c-7.25.19-14.28,1-15,3.49a3.85,3.85,0,0,0,0,.48A1.56,1.56,0,0,0,162.45,129.67Z"/><path class="cls-9" d="M130.61,158.85h0c-.17.52-.33,1-.51,1.52a29.41,29.41,0,0,1-2.19,4.84c-.2.33-.4.63-.58.92l-.35.48c-.18.24-.36.48-.55.7a7.55,7.55,0,0,1-.61.65,2.76,2.76,0,0,1-.3.29c-.1.1-.2.18-.3.27l-.46.36-.48.31a5.37,5.37,0,0,1-.66.36l-.27.11a6.51,6.51,0,0,1-.66.23l-.3.07a3.14,3.14,0,0,1-.46.08l-.14,0-.28,0c-6.62.41-13.08-10.35-13.08-10.35-7.78-8.44-10.82-15.68-11.68-21.28a5.07,5.07,0,0,1-.09-.54,21.49,21.49,0,0,1,.17-7.16,14.34,14.34,0,0,1,1.74-4.85,2,2,0,0,1,.2-.21c2.52-2.68,6-3.09,9.45-2.42.42.08.84.17,1.27.28.27.07.55.15.82.24l.66.2A31,31,0,0,1,115,125.7c.38.18.77.38,1.14.58,1.12.59,2.15,1.19,3.07,1.77l.69.45c.35.22.67.44,1,.65s.48.32.69.48c.53.37,1,.69,1.23.89l.22.18,0,0A160.92,160.92,0,0,0,130.61,158.85Z"/></g><g id="skin_shadows"><path class="cls-10" d="M145.45,137.35c2.31,18.31,8.62,30.2,12.27,35.72h0c0,.07.1.14.15.22-.21-.26-.4-.53-.59-.79-.9-1.2-1.75-2.39-2.57-3.58l-.28-.43A54.32,54.32,0,0,1,149,157.94c-10-36.34-3.11-58.2-2.88-59a36,36,0,0,1,6.44-12.61c1.47,6.2,7.33,9.94,14.47,9.36a1.13,1.13,0,0,0,0,.12s-9.73,3-15.26-7.64C151.56,87.89,141.27,104.1,145.45,137.35Z"/><path class="cls-10" d="M167,95.56c-.43-1.25-2.74-8.73,2.87-12.58a4.89,4.89,0,0,1,3.83-.86C166.11,84.05,166.78,93.75,167,95.56Z"/><path class="cls-10" d="M189.66,96.47c-5.09-1.48-9.47-9.33-12.8-12.8.3.23.55.43.76.61,5.09,4.25,7.83,11.65,17.48,11.65,5.83,0,9.46-5.22,10.38-6.71h.19C208,89,201,99.77,189.66,96.47Z"/><path class="cls-10" d="M270.32,106.15h-.05a23.65,23.65,0,0,0-4.19.83,3.8,3.8,0,0,1-.42-.47c-.48-.58-1.27-1.56-2.46-1.12a3.71,3.71,0,0,0-.5.2c-3.62-17.39-10.24-34.74-21.81-48.67-1.68,2.06-2.48,3.35-5.9,5.18-5.36,2.87-20.58,2.58-26.24,4.43-1.74.57-13.89,6.29-13.42,13.3.18,2.69.89,8.52,7.3,9.33-2.6,0-6.09-.55-7.52-3.81a12.88,12.88,0,0,1,.8-11.42c5.43-9.11,23.68-10.57,30.1-11.48,7.61-1.07,12.35-3.86,14.82-7.16l.09-.12c.61.52,1.29,1.14,2,1.86,5.55,5.57,14,17.13,20.56,30.87a115.16,115.16,0,0,1,5.84,15l.09.29C269.73,104.18,270,105.18,270.32,106.15Z"/><path class="cls-10" d="M274.45,124.65h-.05l-8.8.36h0c-.27-2.75-.59-5.51-1-8.31a81.72,81.72,0,0,1,8.17-.37h.1c.22,1,.41,2,.58,2.86.05.23.09.46.13.68.2,1,.36,2,.49,2.74l.06.33C274.25,123.51,274.35,124.07,274.45,124.65Z"/><path class="cls-10" d="M278.36,171a41.84,41.84,0,0,1-9.14,21,20.26,20.26,0,0,0-5-10.91,245.8,245.8,0,0,0,2.32-29c1.07.1,1.71.1,1.71.1.76,0,1.49,0,2.21-.07l.5,0a43.27,43.27,0,0,0,4.39-.49l.89-.16c.54-.1,1.07-.22,1.58-.33l.11,0c.14,2.21.26,4.46.34,6.75v.11C278.39,162.15,278.44,166.52,278.36,171Z"/><path class="cls-10" d="M124.87,155.06a4,4,0,0,1-5.63.24c-3.34-4.29,2-8,2-8-4.44-12.34-13.42-8.35-13.94-8.07,0,0,9-.64,11.32,8,0,0-3,0-4.7,4.27a6.44,6.44,0,0,0,2.88,7.59c.33.21,6.52,3.42,8.82-3.21Z"/></g></g><g id="nose"><path class="cls-11" d="M242.74,171.57a16.32,16.32,0,0,1-3.68,4.89,12,12,0,0,0,2.29-4.25h0s0,0,0,0a8.55,8.55,0,0,0-2.08-8c-6.73-5.78-14.92,1.27-15.28,1.59,8.61-10,15.82-4.86,15.82-4.86C244.48,164.53,244.17,168.53,242.74,171.57Z"/><path class="cls-11" d="M226.79,173.2s-.84-3.75,5.64-1.13Z"/></g><g id="eyes"><g id="eye_whites"><path class="cls-12" d="M223.07,132.67c-1.57,8.74-7.9,21.72-31.86,20.53,0,0-26-.41-28.52-24,0,0,0-.08,0-.12a3.85,3.85,0,0,1,0-.48c.76-2.45,7.79-3.3,15-3.49a6.07,6.07,0,0,0-1,.87,6,6,0,0,0-1.69,4.2c0,4.69,5.23,8.5,11.66,8.5s11.66-3.81,11.66-8.5a5.72,5.72,0,0,0-1.45-3.82,7.08,7.08,0,0,0-.87-.86c17.58.36,25,2.27,26.32,2.64a5,5,0,0,1,.42.91A6.9,6.9,0,0,1,223.07,132.67Z"/><path class="cls-12" d="M296.37,130.35s0,.05,0,.08c0,.27-.07.53-.1.81-1,6.91-4.88,16.57-18.34,19.83l-.11,0a43.82,43.82,0,0,1-9.57,1.08s-.64,0-1.71-.1c-5.43-.47-22.09-3.27-24.15-19.94a5.16,5.16,0,0,1,0-1.47,5.27,5.27,0,0,1,.16-.79c.92-1,5.16-1.66,10.53-2a7.4,7.4,0,0,0-1,1,5,5,0,0,0-1.36,3.56c.18,3.19,4,6.29,10.23,6.29l1.06,0a12,12,0,0,0,7.23-2.46,6,6,0,0,0,2.26-4.58c0-.1,0-.2,0-.3a5.24,5.24,0,0,0-1.33-3.2,6.54,6.54,0,0,0-.91-.82c6.73-.09,12.06,0,12.06,0C292.84,126.77,295.77,129.56,296.37,130.35Z"/></g><g id="eyes_black"><path class="cls-5" d="M222.54,128.17c-1.07-2.6-4.37-3.68-4.37-3.68L170,120.65c-5.91.51-7.13,4.86-7.37,7a.17.17,0,0,0,0,.07,8.09,8.09,0,0,0-.19,2,1.56,1.56,0,0,1,.23-.62,3.85,3.85,0,0,1,0-.48c.76-2.45,7.79-3.3,15-3.49a6.07,6.07,0,0,0-1,.87,6,6,0,0,0-1.69,4.2c0,4.69,5.23,8.5,11.66,8.5s11.66-3.81,11.66-8.5a5.72,5.72,0,0,0-1.45-3.82,7.08,7.08,0,0,0-.87-.86c17.58.36,25,2.27,26.32,2.64,0,0,0,0,0-.05l.05.06ZM181,129.81a1.68,1.68,0,1,1,1.68-1.68A1.68,1.68,0,0,1,181,129.81Z"/><path class="cls-5" d="M182.64,128.13a1.68,1.68,0,1,1-1.68-1.68A1.68,1.68,0,0,1,182.64,128.13Z"/><path class="cls-5" d="M222.36,128.12h0s0,0,0-.05Z"/><path class="cls-5" d="M296.5,130.57l0-.07-.09-.15c-.6-.79-3.53-3.58-15.09-3.1,0,0-5.33-.09-12.06,0a6.54,6.54,0,0,1,.91.82,5.24,5.24,0,0,1,1.33,3.2c0,.1,0,.2,0,.3a6,6,0,0,1-2.26,4.58,12,12,0,0,1-7.23,2.46l-1.06,0c-6.22,0-10.05-3.1-10.23-6.29a5,5,0,0,1,1.36-3.56,7.4,7.4,0,0,1,1-1c-5.37.39-9.61,1-10.53,2a.24.24,0,0,1,0-.08h0l0-.08.14-.39v0l0-.05c0-.08.08-.17.12-.26a3.79,3.79,0,0,1,.18-.34,2.38,2.38,0,0,1,.18-.3,5.84,5.84,0,0,1,4.63-2.62l17.7-.71,8.8-.36h.05l8-.32,1.34-.06,6.93-.28H291l.15,0h.05l.38.06a9.21,9.21,0,0,1,1.52.44.16.16,0,0,1,.09,0A5,5,0,0,1,296.5,130.57Z"/><path class="cls-5" d="M282.41,124.34l-8,.32h-.05l-8.8.36-17.7.71a5.84,5.84,0,0,0-4.63,2.62,5.63,5.63,0,0,1,4.55-2.64l17.78-.7,8.8-.36h.05Z"/><path class="cls-5" d="M290.82,124h0Z"/></g><g id="eye_shadow"><path class="cls-13" d="M177.7,125.08a6.07,6.07,0,0,0-1,.87c-6.56.23-12.75,1-14,3.1a3.85,3.85,0,0,1,0-.48C163.42,126.12,170.45,125.27,177.7,125.08Z"/><path class="cls-13" d="M222.89,129.06l-.14,0c-1.11-.32-8.6-2.26-25.87-2.69a7.08,7.08,0,0,0-.87-.86c17.58.36,25,2.27,26.32,2.64,0,0,0,0,0-.05l.05.06A3.79,3.79,0,0,1,222.89,129.06Z"/><path class="cls-13" d="M253.09,127.83a7.4,7.4,0,0,0-1,1c-4.61.39-8.31,1-9.65,1.88a2.31,2.31,0,0,0-.23.18,5.39,5.39,0,0,1,.58-1.53l-.14.39,0,.08h0a.24.24,0,0,0,0,.08C243.48,128.87,247.72,128.22,253.09,127.83Z"/><path class="cls-13" d="M296.46,130.5a6,6,0,0,1-.1.92l-.1-.18c-.54-.74-3.36-3.64-15.11-3.15,0,0-4.79-.07-11,0a6.54,6.54,0,0,0-.91-.82c6.73-.09,12.06,0,12.06,0,11.56-.48,14.49,2.31,15.09,3.1Z"/></g><g id="eye_highlights"><path class="cls-12" d="M182.64,128.13a1.68,1.68,0,1,1-1.68-1.68A1.68,1.68,0,0,1,182.64,128.13Z"/><circle class="cls-12" cx="256.17" cy="130.24" r="1.58"/></g></g><g id="mouth"><path class="cls-12" d="M239.48,191.67c-.28.36-.55.68-.84,1a14.87,14.87,0,0,1-4,3.32,7.53,7.53,0,0,1-4.11,1c-3.9-.22-7-3.75-8.61-6.09a18,18,0,0,0,5.07,2.29h0a16.43,16.43,0,0,0,8.42.05h0A18.86,18.86,0,0,0,239.48,191.67Z"/><path id="outline" class="cls-11" d="M242.63,188.33l-1.56,1.2a16.85,16.85,0,0,1-10.89,3.21,15.73,15.73,0,0,1-5-1.25,18.7,18.7,0,0,1-3.76-2.15c-.16.08-.31.16-.47.26l-.31.17c-.14.08-.29.15-.43.24,1.2,2.05,5,7.63,10.28,8H231a9.75,9.75,0,0,0,6.18-2.47,22.41,22.41,0,0,0,3.3-3.45c.44-.58.9-1.2,1.34-1.86l1.14-1.7Zm-4,4.34a14.87,14.87,0,0,1-4,3.32,7.53,7.53,0,0,1-4.11,1c-3.9-.22-7-3.75-8.61-6.09a18,18,0,0,0,5.07,2.29h0a16.43,16.43,0,0,0,8.42.05h0a18.86,18.86,0,0,0,4-1.56C239.2,192,238.93,192.35,238.64,192.67Z"/></g><g id="eyebrows"><path class="cls-5" d="M221,120.39a1.23,1.23,0,0,1-1.54.89,241.35,241.35,0,0,0-25.61-5.82c-14-2.24-29.75-.32-29.91-.3l-2.36.29,5.53-7,.17-.08c.2-.13,5.14-2.91,13.63-.72,1.34.35,1.66-.15,2.15-.91a2.16,2.16,0,0,1,1.62-1.23c1.42-.12,3.38.65,5.26,1.41a12.91,12.91,0,0,0,3.73,1.16,2.45,2.45,0,0,0,.47-.06,4,4,0,0,0-.13-.41,1.53,1.53,0,0,1,.11-1.61,1.27,1.27,0,0,1,1.32-.33c1.94.46,4.57,1.08,7,1.69a1,1,0,0,1,.1-.81c.46-.82,1.49-.54,2-.42a18.42,18.42,0,0,1,5,2.4A26.33,26.33,0,0,0,212.2,110a1,1,0,0,1,.22-.66c.51-.71,1.4-.4,1.74-.28,2.76,1,5.05,1.88,6.79,2.71C222.49,112.51,221.28,119.62,221,120.39Z"/><path class="cls-5" d="M282.92,117.14l-1.34-.27h-.08a66.22,66.22,0,0,0-8.62-.53h-.1a81.72,81.72,0,0,0-8.17.37,67.13,67.13,0,0,0-17.36,3.91,1.07,1.07,0,0,1-.39.07,1.67,1.67,0,0,1-.92-.33,10.88,10.88,0,0,1-4.1-8l0-.58.51-.3a43.82,43.82,0,0,1,6.53-3.15,1.3,1.3,0,0,1,1.11,0,1.82,1.82,0,0,1,.81,1.27c.53-.27,1.36-.73,2.07-1.13a28.55,28.55,0,0,1,3-1.57c.66-.24,1.55-.24,2.09,1.08.59-.25,1.51-.74,2.35-1.18s1.78-.94,2.43-1.23a3.71,3.71,0,0,1,.5-.2c1.19-.44,2,.54,2.46,1.12a3.8,3.8,0,0,0,.42.47,23.65,23.65,0,0,1,4.19-.83h.05l.3,0c3.53-.41,4.12,0,4.44.55a1.22,1.22,0,0,1-.26,1.57l-.16.16.12,0a6.64,6.64,0,0,1,4.68.7c.2.1.39.2.6.29l.19.07.15.15a8.83,8.83,0,0,1,1.92,3.87,18.71,18.71,0,0,1,.45,2.34Z"/></g></svg>