<svg id="Layer_1" data-name="Layer 1" xmlns="http://www.w3.org/2000/svg" viewBox="0 0 316.19 356.39"><defs><style>.cls-1{fill:#85a9cd;}.cls-2{fill:#35536c;}.cls-3{fill:#371847;}.cls-12,.cls-4{fill:#010101;}.cls-5{fill:#434344;}.cls-6{fill:#e42327;}.cls-7{fill:#b92025;}.cls-8{fill:#e2ab90;}.cls-9{fill:#9f4c24;opacity:0.25;}.cls-10{fill:#231f20;}.cls-11{fill:#fff;}.cls-12{opacity:0.23;}</style></defs><g id="shirt"><g id="shirt-2" data-name="shirt"><path class="cls-1" d="M181.27,254.19a11.94,11.94,0,0,0-1.26.18,10.76,10.76,0,0,0-4.19,1.78,22.5,22.5,0,0,1,2.94-6.68,8.86,8.86,0,0,1,.72-1A49.39,49.39,0,0,0,181.27,254.19Z"/><path class="cls-1" d="M180.08,254.62a8.18,8.18,0,0,0-4.35,1.89l.09-.36a10.76,10.76,0,0,1,4.19-1.78A1.82,1.82,0,0,0,180.08,254.62Z"/><path class="cls-1" d="M286,263.64c-1.65-1-4.78-2.86-6.65-4Q282.77,261.49,286,263.64Z"/><path class="cls-1" d="M179.59,282.15c.12.45.26.93.39,1.45C179.85,283.09,179.72,282.6,179.59,282.15Zm-1-3c.1.29.22.61.33,1C178.84,279.78,178.73,279.47,178.62,279.17Z"/><path class="cls-1" d="M313.31,304.43c-2.91-17.8-12.83-30.56-25.28-39.4,3.34,3.32,14.49,19.76,12.11,90.3l-27.37.22s2.55-78.58-17-101.79a19.72,19.72,0,0,0-4.84-4.28,46.66,46.66,0,0,1-.88,16.34c-1.86,7.79-6.22,16.44-15.46,24,.11-.34,2.4-7.1-5.21-10.4,0,0-1-.45-2.58-1.27s-3.93-2.09-6.39-3.67c-.76-.48-1.54-1-2.32-1.54a24.75,24.75,0,0,1-2.27,4.87,1.21,1.21,0,0,1,.2.14l2.84-1.91h0l1.41-.95a16.57,16.57,0,0,1-2.6,4.36A19.46,19.46,0,0,1,207,285.8l-.28-.27c-.66-.65-2.43-2.41-4.53-4.54l-1.93-2-.73-.75h0l-.44-.46.82.62h0l.69.28-.15.13,2.25,1.68,4.48,3.36,4.66-3.14-7.14-2.38-7.51-2.5L191.53,274s-.34.24-.95.59c-2.46,1.39-9.21,4.49-15,.25l-.56-.07h0l-8,2.76,2.47-.76-7.7,13.69a83.22,83.22,0,0,1-12.47-6.83l-2.72.94s-.61-1.4-1.4-3.76c-11.1-8-24.86-21.31-31.58-41,.72,1.74,9.05,21.24,30.72,38.16-1.92-6.85-3.85-17.92-.41-28a29.8,29.8,0,0,1,1.68-4l19,7c-1-1-2.1-2-3.28-2.93l-.51-.42s-14.68-9.47-17.5-23.18a21.9,21.9,0,0,1-.41-2.94.28.28,0,0,1,0-.09s-.29.85-.68,2.28c-1.09,3.94-2.91,12.32-1.36,19.6a19.28,19.28,0,0,0,1.5,4.51c-.5-.2-13.78-5.9-18.39-23.26-2.39,5.41-4.37,10-4.37,10l0,.08,0,.05h0c-7,2.76-22.66,8.51-38.49,11.33,0,0-19.87,3-38.28,10.7l26.5-8.18s35.87,4.83,31.59,105.81l215.24,0S316.65,324.9,313.31,304.43ZM183.87,356.2s-1,.13-1,0c.08-1.64.14-3.28.2-4.91s.09-3.25.13-4.87.07-3.22.08-4.81c.09-8.07,0-15.85-.36-23.09l-.09-1.95c0-.61-.07-1.21-.09-1.81l-.09-1.59-.12-2-.09-1.4c-.12-1.66-.23-3.28-.36-4.85-.08-1-.16-2-.25-2.93-.05-.5-.1-1-.14-1.49l-.18-1.78c-.21-2.06-.44-4-.67-5.89-.07-.48-.13-1-.19-1.43-.25-1.76-.5-3.41-.76-4.94,0-.28-.09-.56-.14-.83-.1-.52-.19-1-.28-1.5s-.14-.74-.22-1.1-.2-.95-.3-1.4-.17-.73-.25-1.08c-.15-.59-.29-1.14-.44-1.65-.09-.33-.19-.64-.28-.94-.18-.56-.36-1.07-.54-1.52a5.75,5.75,0,0,1,.36.7c.07.15.16.33.24.54s.16.36.24.57.14.34.21.53l.12.32,0,.07c.11.3.22.61.33,1,.2.59.42,1.27.64,2,.13.45.26.94.39,1.45.31,1.15.62,2.46.93,3.94.05.25.11.5.16.76s.1.52.15.78c.32,1.6.62,3.38.92,5.36.05.33.1.67.14,1,.33,2.29.64,4.82.91,7.61.08.85.16,1.72.24,2.62.23,2.7.43,5.62.59,8.79,0,.49,0,1,.07,1.49C184.58,326.56,184.62,339.78,183.87,356.2Zm6-49.27a4.7,4.7,0,0,1,5.75-3.4c2.34.77,3.56,3.55,2.73,6.2a4.69,4.69,0,0,1-5.74,3.4A4.86,4.86,0,0,1,189.87,306.93Zm9.48,44.8a4.69,4.69,0,0,1-5.74,3.4,4.86,4.86,0,0,1-2.74-6.2,4.7,4.7,0,0,1,5.75-3.4C199,346.3,200.18,349.08,199.35,351.73Z"/><path class="cls-1" d="M100.93,356.31H0c.86-31.73,5.58-52.18,9.51-63.95,3-9,5.58-13,5.58-13,5.07-9.1,16.11-15.87,27.75-20.74l26.5-8.18S105.21,255.33,100.93,356.31Z"/><path class="cls-1" d="M145.21,280.81c-11.1-8-24.86-21.31-31.58-41,.72,1.74,9.05,21.24,30.72,38.16C144.64,279,144.94,280,145.21,280.81Z"/><path class="cls-1" d="M169.5,276.77l-7.7,13.69a83.22,83.22,0,0,1-12.47-6.83l2-.67,14.46-5,0-.06,1.24-.38Z"/><path class="cls-1" d="M183.87,356.2s-1,.13-1,0c.08-1.64.14-3.28.2-4.91s.09-3.25.13-4.87.07-3.22.08-4.81c.09-8.07,0-15.85-.36-23.09l-.09-1.95c0-.61-.07-1.21-.09-1.81l-.09-1.59-.12-2-.09-1.4c-.12-1.66-.23-3.28-.36-4.85-.08-1-.16-2-.25-2.93-.05-.5-.1-1-.14-1.49l-.18-1.78c-.21-2.06-.44-4-.67-5.89-.07-.48-.13-1-.19-1.43-.25-1.76-.5-3.41-.76-4.94,0-.28-.09-.56-.14-.83-.1-.52-.19-1-.28-1.5s-.14-.74-.22-1.1-.2-.95-.3-1.4-.17-.73-.25-1.08c-.15-.59-.29-1.14-.44-1.65-.09-.33-.19-.64-.28-.94-.18-.56-.36-1.07-.54-1.52a5.75,5.75,0,0,1,.36.7c.07.15.16.33.24.54s.16.36.24.57.14.34.21.53l.12.32,0,.07c.11.3.22.61.33,1,.2.59.42,1.27.64,2,.13.45.26.94.39,1.45.31,1.15.62,2.46.93,3.94.05.25.11.5.16.76s.1.52.15.78c.32,1.6.62,3.38.92,5.36.05.33.1.67.14,1,.33,2.29.64,4.82.91,7.61.08.85.16,1.72.24,2.62.23,2.7.43,5.62.59,8.79,0,.49,0,1,.07,1.49C184.58,326.56,184.62,339.78,183.87,356.2Z"/><path class="cls-1" d="M198.35,309.73a4.69,4.69,0,0,1-5.74,3.4,4.86,4.86,0,0,1-2.74-6.2,4.7,4.7,0,0,1,5.75-3.4C198,304.3,199.18,307.08,198.35,309.73Z"/><path class="cls-1" d="M199.35,351.73a4.69,4.69,0,0,1-5.74,3.4,4.86,4.86,0,0,1-2.74-6.2,4.7,4.7,0,0,1,5.75-3.4C199,346.3,200.18,349.08,199.35,351.73Z"/><polygon class="cls-1" points="200.57 278.73 200.42 278.86 199.88 278.45 200.57 278.73"/><path class="cls-1" d="M216,277.93l-.49.33.29-.47A1.21,1.21,0,0,1,216,277.93Z"/><path class="cls-1" d="M233.31,270.79l-1.07-.32-1-.34c-.26-.08-.53-.17-.78-.27.05-.14.09-.28.13-.41l.47.25.55.29C232.49,270.45,233.1,270.71,233.31,270.79Z"/></g><g id="shirt_shadows"><path class="cls-2" d="M183.87,356.2s-1,.13-1,0c.08-1.64.14-3.28.2-4.91s.09-3.25.13-4.87.07-3.22.08-4.81c.09-8.07,0-15.85-.36-23.09l-.09-1.95c0-.61-.07-1.21-.09-1.81l-.09-1.59-.12-2-.09-1.4c-.12-1.66-.23-3.28-.36-4.85-.08-1-.16-2-.25-2.93-.05-.5-.1-1-.14-1.49l-.18-1.78c-.21-2.06-.44-4-.67-5.89-.07-.48-.13-1-.19-1.43-.25-1.76-.5-3.41-.76-4.94,0-.28-.09-.56-.14-.83-.1-.52-.19-1-.28-1.5s-.14-.74-.22-1.1-.2-.95-.3-1.4-.17-.73-.25-1.08c-.15-.59-.29-1.14-.44-1.65-.09-.33-.19-.64-.28-.94-.18-.56-.36-1.07-.54-1.52a5.75,5.75,0,0,1,.36.7c.07.15.16.33.24.54s.16.36.24.57.14.34.21.53l.12.32,0,.07c.11.3.22.61.33,1,.2.59.42,1.27.64,2,.13.45.26.94.39,1.45.31,1.15.62,2.46.93,3.94.05.25.11.5.16.76s.1.52.15.78c.32,1.6.62,3.38.92,5.36.05.33.1.67.14,1,.33,2.29.64,4.82.91,7.61.08.85.16,1.72.24,2.62.23,2.7.43,5.62.59,8.79,0,.49,0,1,.07,1.49C184.58,326.56,184.62,339.78,183.87,356.2Z"/><path class="cls-2" d="M145.21,280.81c-11.1-8-24.86-21.31-31.58-41,.72,1.74,9.05,21.24,30.72,38.16C144.64,279,144.94,280,145.21,280.81Z"/><path class="cls-2" d="M169.5,276.77l-7.7,13.69a83.22,83.22,0,0,1-12.47-6.83l2-.67c2.42,1.6,5,3.16,7.66,4.65l6.8-9.64,0-.06,1.24-.38Z"/><path class="cls-2" d="M220.27,275.06a16.57,16.57,0,0,1-2.6,4.36A19.46,19.46,0,0,1,207,285.8l-.28-.27c-.66-.65-2.43-2.41-4.53-4.54l-1.93-2-.73-.75h0l-.44-.46.82.62h0l.54.41,2.25,1.68,4.48,3.36,4.66-3.14h0l1.27.42.24.08c.23-.27.44-.54.64-.81a21.93,21.93,0,0,0,1.55-2.19l.49-.33,2.84-1.91h0Z"/></g></g><g id="suspenders"><path class="cls-3" d="M100.93,356.31v0L71,356.39a.42.42,0,0,1,0-.07c.22-2.81,6.66-87.5-28.15-97.64l26.5-8.18S105.21,255.33,100.93,356.31Z"/><path class="cls-3" d="M300.14,355.33l-27.37.22s2.55-78.58-17-101.79a19.72,19.72,0,0,0-4.84-4.28h.14c.65.05,3.25.24,6.79.59l.43.51c.28.35.55.71.81,1.07,6.93,9.5,7.51,21,7.51,21l.71-.5a30.78,30.78,0,0,0,10.52-13.26h0c.5.24,1,.5,1.47.76l.05,0c1.87,1.11,5,3,6.65,4l.11.07c.64.42,1.28.86,1.91,1.32C291.37,268.35,302.52,284.79,300.14,355.33Z"/></g><path class="cls-3" d="M218.08,272.92a24.75,24.75,0,0,1-2.27,4.87l-.29.47a21.93,21.93,0,0,1-1.55,2.19c-.2.27-.41.54-.64.81l-.24-.08-1.27-.42h0l-7.14-2.38-7.51-2.5L191.53,274s-.34.24-.95.59c-2.46,1.39-9.21,4.49-15,.25l-.24-.18-.32.11h0l-8,2.76-1.24.38,0,.06-14.46,5-2,.67-2.72.94s-.61-1.4-1.4-3.76c-.27-.84-.57-1.8-.86-2.87-1.92-6.85-3.85-17.92-.41-28a29.8,29.8,0,0,1,1.68-4l19,7a48.16,48.16,0,0,1,10.12,13.43,35.64,35.64,0,0,1,1-9.87,8.18,8.18,0,0,1,4.35-1.89,1.82,1.82,0,0,1-.07-.25,11.94,11.94,0,0,1,1.26-.18A41.08,41.08,0,0,0,191,269.3l.16.16c.18.18.41.39.63.59l.21.2.34.3.11.09c.71.63,1.43,1.21,2.14,1.75l.7.52c.48.35.95.67,1.41,1l.69.44c.23.15.45.29.68.42,1,.6,2,1.12,2.88,1.56.5.24,1,.46,1.45.66l.14.06.6.25,1,.38.9.32.05,0,.45.15,1.05.31.26.07c.83.22,1.36.32,1.47.34a6.47,6.47,0,0,1-.56-.5c-.16-.15-.31-.32-.46-.49a.24.24,0,0,1-.06-.08c-.15-.17-.29-.35-.43-.54s-.27-.38-.4-.59a4.45,4.45,0,0,1-.26-.43.75.75,0,0,1-.07-.12c-.08-.13-.15-.26-.22-.4s-.2-.37-.29-.57l-.18-.4a2.56,2.56,0,0,1-.11-.24c-.14-.32-.27-.65-.4-1s-.23-.63-.33-1-.17-.54-.25-.83-.13-.44-.19-.67-.14-.54-.2-.82c-.19-.77-.35-1.57-.5-2.39-.06-.33-.11-.67-.17-1l-.15-1c-.12-.81-.21-1.62-.3-2.43,0-.52-.1-1-.14-1.56,0-.19,0-.39-.05-.58l-.06-.89c0-.12,0-.23,0-.34,0-.43-.05-.85-.07-1.26-.16-3.4-.11-6.33-.06-8l.3-.14c1.25,5.63,5.08,12,5.08,12s.15.26.24.38a8.88,8.88,0,0,0,.56.85c.16.25.34.5.53.74l.23.3.42.54q.39.48.81.93t.69.75c.24.26.5.52.76.77A46.77,46.77,0,0,0,218.08,272.92Z"/><g id="buttons"><path class="cls-4" d="M198.35,309.73a4.69,4.69,0,0,1-5.74,3.4,4.86,4.86,0,0,1-2.74-6.2,4.7,4.7,0,0,1,5.75-3.4C198,304.3,199.18,307.08,198.35,309.73Z"/><path class="cls-4" d="M199.35,351.73a4.69,4.69,0,0,1-5.74,3.4,4.86,4.86,0,0,1-2.74-6.2,4.7,4.7,0,0,1,5.75-3.4C199,346.3,200.18,349.08,199.35,351.73Z"/></g><g id="hat"><path class="cls-5" d="M279.44,66.24c0,.25,0,.51-.05.77a23.89,23.89,0,0,0-9.9-12.78s-4-2.78-7.52-10.27c0,0-8.39-16.25-14.23-14l-1.39,1.19-.29.24a2.28,2.28,0,0,0-.14-.39.21.21,0,0,0,0-.12,1.88,1.88,0,0,0-.14-.29.89.89,0,0,0-.09-.16,1.06,1.06,0,0,0-.1-.17c-.07-.12-.15-.24-.25-.38a11.51,11.51,0,0,0-4.58-3.51l-.52-.24a23.68,23.68,0,0,0-3.4-1.2q-.43-.13-.9-.24c-.62-.16-1.28-.3-2-.44a92.94,92.94,0,0,0-20-.3c-1,.08-2,.18-3.1.29l-1.14.13-1.16.14-.29,0-.53.07-1.56.22-1.92.3h0l-1.13.19c-.67.11-1.35.23-2,.37q-1.31.24-2.64.54l-2.4.54h0l-2.43.61-1.61.43-1.37.39q-2.53.74-5.13,1.62c-.38.12-.76.25-1.14.4q-1.08.38-2.16.78l-1.75.68c-.74.3-1.49.6-2.24.92-1.09.46-2.19.94-3.3,1.46l-1.41.66c-1,.48-2,1-3.06,1.52-.44.23-.89.46-1.34.71s-1,.56-1.57.85-1.16.65-1.74,1c-.43.25-.86.5-1.29.77s-.86.51-1.29.78-1,.6-1.47.92-1,.64-1.48,1-1,.65-1.47,1l-.27.19c-.84.57-1.67,1.16-2.5,1.78q-2.83,2.07-5.63,4.42l-1,.88-.64.56-1,.91-.94.85c-.41.37-.82.75-1.22,1.14s-.81.76-1.22,1.16l-.71.69A122.67,122.67,0,0,0,129.81,72c-.38.52-.75,1-1.11,1.57-1.18,1.7-2.33,3.45-3.47,5.26-.32.51-.64,1-1,1.55-.44.71-.86,1.42-1.29,2.15a167.44,167.44,0,0,0-12.9,27.79c-3.56-.68-7-.26-9.61,2.46l-.2.22a14.71,14.71,0,0,0-1.78,4.93,22.28,22.28,0,0,0-.17,7.29c0,.18,0,.36.09.55l-.09.1-.16.15-.18.15-.35.26a9.72,9.72,0,0,1-2.37,1.16c-4.14,1.05-3.57-2.77-8.3-3.91h-.25c-2.56,0-4.57.26-7,2.47a19.62,19.62,0,0,0-2.33,2.68,56.18,56.18,0,0,0-3.85,6.23l0,.07a1.57,1.57,0,0,0-.14.25,2.5,2.5,0,0,1,.41-.29l0,0c.16-.1.38-.22.66-.37h0l0,0,0,0,.07,0,.12-.07.12-.06.11,0,.39-.19a8.19,8.19,0,0,1,1.36-.47c.19-.05.39-.09.58-.12l.43-.07a11.21,11.21,0,0,1,1.27-.1,15.14,15.14,0,0,1,3.36.3l.34.08a10.58,10.58,0,0,0,1.87.81,9.53,9.53,0,0,0,4.34.45,2.23,2.23,0,0,0,.36-.05,1.91,1.91,0,0,0,.33-.06l.15,0a7.64,7.64,0,0,0,2.25-.82l.06,0a2.17,2.17,0,0,1,0,.26l.14-.06c-.13,0,.87,2.41-2.73,8.92a73.72,73.72,0,0,1-6,8.94c-.57.7-1.08,1.3-1.49,1.76a15.55,15.55,0,0,1-1.23,1.22l.4-.06s.07,0,.22,0h0A13.61,13.61,0,0,0,86,153.25h0a4.85,4.85,0,0,0,.64-.4l.1-.07a33,33,0,0,0,5.46-4.58c0,.17-.06.34-.1.51A33.61,33.61,0,0,1,91,153l-.27.77-.21.54-.42,1-.21.49c-.07.17-.14.33-.22.48l-.21.46c-3.8,6.26-10.65,10.77-16.1.49-1.15-2.19-2.09-10-4-8.81-4,2.42-7.93-.22-11.89-22C51.81,95.2,69,49.54,79.29,37.49c0,0,26.57-40.61,58.17-29.57,0,0,17.89-16.76,49.87-1.53,0,0,72.34-5.33,84.14,31.22C271.47,37.61,280.21,52,279.44,66.24Z"/><g id="hat_shadows"><path class="cls-4" d="M184.19,5.69c-60.86,27.46-78.56,80.21-83.71,107.1l-.2.22a14.71,14.71,0,0,0-1.78,4.93c1.29-26.47,9.58-41.61,9.58-41.61C137.73,16.92,182.79,6,184.19,5.69Z"/><path class="cls-4" d="M79.2,148.5a63.76,63.76,0,0,1-1.79-14.67v-.18l.43-.07a11.21,11.21,0,0,1,1.27-.1v.11a0,0,0,0,0,0,0A115.74,115.74,0,0,0,79.2,148.5Z"/><path class="cls-4" d="M114.82,51.12c-1.8,1.87-29.72,31.3-35,74.93a.49.49,0,0,0,0,.12,19.62,19.62,0,0,0-2.33,2.68c0-.12,0-.25,0-.37.7-18.65,7.51-47.91,37.29-77.29Z"/><path class="cls-4" d="M66.49,78.46s21.67-49,74.27-70.89C140.76,7.57,90.46,33.53,66.49,78.46Z"/></g></g><path id="hair_beard" class="cls-6" d="M286.37,103.79a67.59,67.59,0,0,0-8.77-.54c.22,1,.42,2,.59,2.91.05.24.09.47.13.69.21,1.07.37,2,.5,2.79l.06.34c.11.58.22,1.15.32,1.74h0l8.09-.33A20.53,20.53,0,0,0,286.37,103.79Zm6.13,63.57c10.57,17.42,5.39,48.64,5.39,48.64C305,191.66,297,174.4,292.5,167.36Zm-24.33,21.43s-15.92-12.68-28.32-16.49c-.23-.07,2.67,1.53,7,4.2l.29.17A152.39,152.39,0,0,1,268,191.89s5-2.78,5.47-11.39C273.36,181.6,272.39,187.64,268.17,188.79ZM246,159.38l-.5.69s0,0,0,0h0a12,12,0,0,1-2.32,4.32,16.51,16.51,0,0,0,3.74-5C246.36,159.39,246,159.38,246,159.38Zm-9.61,13.29-.51.09a1.2,1.2,0,0,0-.2,0l-1.12.22c-.57.12-1.13.24-1.68.39l-.74.19q-1.44.38-2.79.84c-.42.13-.82.28-1.22.43s-1,.36-1.43.55c-.93.38-1.83.78-2.69,1.19h0l-.7.35c-.59.29-1.17.6-1.72.91l-.83.47-.79.47a4.11,4.11,0,0,0-.39.24l-.38.24q-.39.22-.75.48l-.71.48c-.71.48-1.37,1-2,1.43l-.61.47-1.13.92-.53.45c-.34.29-.67.58-1,.86l-.44.41-.8.77q-.19.18-.36.36a28.18,28.18,0,0,0-2.08,2.31c-5.88.69-10.56-7.12-10.84-7.59,3.52,10.41,12,9.28,12,9.28.4-.5.8-1,1.23-1.47.18-.23.38-.45.58-.66s.25-.28.39-.42.44-.48.68-.71.38-.39.58-.58c.5-.5,1-1,1.52-1.43.29-.27.58-.52.88-.77l.9-.74.9-.71c.58-.46,1.18-.89,1.77-1.31.29-.21.58-.4.86-.59s.68-.46,1-.67.61-.39.91-.57c.61-.38,1.21-.74,1.81-1.07.14-.09.29-.17.44-.25l.31-.17c.16-.1.32-.18.48-.26l1.21-.63a62.07,62.07,0,0,1,9.83-4l.45-.14,1-.29C237.31,172.53,236.86,172.59,236.42,172.67ZM225.67,30.82c-2.42,7-28.18,10.57-28.18,10.57-30,8.59-28.85,17.84-28.85,17.84,1.33-9.47,26.43-15.41,26.43-15.41C226.55,39.63,225.67,30.82,225.67,30.82ZM192,270.25l.34.3C192.18,270.44,192.06,270.34,192,270.25Zm-.62-.59a2.09,2.09,0,0,1-.22-.2c.18.18.41.39.63.59Zm-90.71-70.28c.21-1.33,2.79-15.71,19.36-23.9C120,175.48,102.21,177.9,100.62,199.38Z"/><g id="hair"><path id="hair-2" data-name="hair" class="cls-6" d="M215.77,181.67c.62-.47,1.28-.95,2-1.43C217.05,180.71,216.39,181.2,215.77,181.67Z"/><path class="cls-6" d="M283.31,150.6c0,.2,0,.41,0,.61a34.35,34.35,0,0,1,.12,4,33.12,33.12,0,0,1-.28,3.65,42.49,42.49,0,0,1-9.29,21.32,20.64,20.64,0,0,0-5.1-11.1c-.16-.18-.32-.35-.49-.52s-.24-.26-.37-.38a4.17,4.17,0,0,0-.37-.36c-.29-.28-.58-.55-.89-.81l-.27-.23-.81-.65-.34-.25c-.45-.34-.91-.65-1.37-.94a4.37,4.37,0,0,0-.4-.25c-.48-.31-1-.59-1.45-.85-.23-.13-.47-.25-.71-.37-.73-.38-1.46-.72-2.18-1l-.72-.29c-.77-.31-1.53-.58-2.27-.82l-.9-.28-.89-.26h0l-.84-.22h-.06l-.78-.2-.4-.09-.79-.17-.57-.11-.54-.1-.47-.08-.44-.07c-.87-.14-1.61-.23-2.17-.29l-.33,0a16.51,16.51,0,0,1-3.74,5,12,12,0,0,0,2.32-4.32l-.29.4a32.69,32.69,0,0,1-3.37,4.54l-.11.1a3,3,0,0,1-.28.24,3,3,0,0,1-.39.27l-.24.13-.06,0-.17.08a1.82,1.82,0,0,1-.37.13,2.33,2.33,0,0,1-.36.08.12.12,0,0,1-.08,0h-.08a3.61,3.61,0,0,1-1.13,0l-.49-.09-.1,0-.42-.12c-.21-.06-.43-.14-.66-.23l-1.08-.42a55.45,55.45,0,0,1-7.86-3.86c-20.56-5-30.19,18.2-30.19,18.2-18.25,0-30.17-9.59-37.33-18.57,0,.08.1.15.15.23q1.21,1.62,2.52,3.27c.41.52-.71-.57-2.52-3.27q-.31-.41-.6-.81c-1-1.24-1.84-2.46-2.61-3.64-.11-.15-.2-.29-.29-.43a55.69,55.69,0,0,1-5.58-10.75c-10.16-37-3.17-59.2-2.93-60a36.6,36.6,0,0,1,6.55-12.83c1.49,6.31,7.45,10.12,14.72,9.53,0,0,0-.11,0-.18-.44-1.27-2.79-8.88,2.92-12.79a5,5,0,0,1,3.89-.88l.24-.06c.88-.2,1.89.48,3,1.64.3.23.56.44.77.62,5.18,4.32,8,11.85,17.78,11.85,5.94,0,9.63-5.31,10.56-6.83a13.12,13.12,0,0,1-2.9,0c-2.64,0-6.19-.56-7.64-3.87a13.08,13.08,0,0,1,.81-11.62c5.52-9.27,24.09-10.75,30.62-11.68,7.74-1.09,12.56-3.93,15.08-7.28l.09-.12c.62.52,1.31,1.15,2,1.89,5.65,5.66,14.25,17.42,20.92,31.4A118.28,118.28,0,0,1,274,89.56l.09.29c.32,1,.63,2.06.92,3.05l.3,0c3.59-.42,4.19,0,4.52.56a1.24,1.24,0,0,1-.27,1.59l-.16.17.12,0a6.76,6.76,0,0,1,4.76.72l.61.29.2.07.15.16a8.83,8.83,0,0,1,1.95,3.93c5.28,1.68,11.72-.81,13-5.83-15.21-1.74-16-16.84-20.75-28.25,0,.25,0,.51-.05.77a23.89,23.89,0,0,0-9.9-12.78s-4-2.78-7.52-10.27c0,0-8.39-16.25-14.23-14l-1.39,1.19-.29.24a2.28,2.28,0,0,0-.14-.39.21.21,0,0,0,0-.12l-.14-.29a.89.89,0,0,0-.09-.16,1.06,1.06,0,0,0-.1-.17c-.07-.12-.16-.24-.25-.38a11.51,11.51,0,0,0-4.58-3.51l-.52-.24a23.68,23.68,0,0,0-3.4-1.2q-.43-.13-.9-.24c-.62-.16-1.28-.3-2-.44a92.94,92.94,0,0,0-20-.3c-1,.08-2,.18-3.1.29l-1.14.13-1.16.14-.29,0-.53.07-1.56.22-1.92.3h0l-1.13.19-2,.37q-1.31.24-2.64.54l-2.4.54h0l-2.43.61-1.61.43-1.37.39q-2.53.74-5.13,1.62l-1.14.4q-1.08.38-2.16.78l-1.75.68c-.74.3-1.49.6-2.24.92-1.09.46-2.19.94-3.3,1.46l-1.41.66c-1,.48-2,1-3.06,1.52-.44.23-.89.46-1.34.71s-1,.56-1.57.85-1.16.65-1.74,1c-.43.25-.86.5-1.29.77s-.86.51-1.29.78l-1.47.92c-.49.31-1,.64-1.48,1s-1,.65-1.47,1l-.27.19c-.84.58-1.67,1.17-2.5,1.78q-2.83,2.07-5.63,4.42l-1,.88-.64.56-1,.91-.94.85c-.41.37-.82.75-1.22,1.14s-.81.76-1.22,1.16l-.71.69A122.67,122.67,0,0,0,129.81,72c-.38.52-.75,1-1.11,1.57-1.18,1.7-2.33,3.45-3.47,5.26-.32.51-.64,1-1,1.55-.44.71-.86,1.42-1.29,2.15a167.44,167.44,0,0,0-12.9,27.79c.43.08.86.18,1.29.29s.56.15.84.24.45.13.67.21a30.64,30.64,0,0,1,4.13,1.71l1.16.59c1.14.6,2.19,1.22,3.12,1.81l.7.45q.54.34,1,.66c.25.17.49.33.7.49.54.38,1,.7,1.25.91l.23.18,0,0a141.9,141.9,0,0,1-2.07-17.48c1.74,13.95,13.8,55.34,14.18,56.63-1.68-3.51-3.16-7-4.46-10.54-.17.53-.34,1-.52,1.54a28.94,28.94,0,0,1-2.23,4.93c-.2.33-.39.64-.59.93l-.35.49c-.19.25-.37.49-.56.71s-.41.46-.62.67-.2.2-.31.29a3.84,3.84,0,0,1-.3.28l-.47.36c-.16.11-.32.22-.49.32a5.48,5.48,0,0,1-.67.36l-.28.12a5.9,5.9,0,0,1-.67.23l-.3.07a3.55,3.55,0,0,1-.47.08l-.14,0-.29,0c-6.73.42-13.3-10.53-13.3-10.53-7.92-8.58-11-15.95-11.89-21.64l-.09.1-.16.15-.18.15-.35.26a9.72,9.72,0,0,1-2.37,1.16c-4.14,1.05-3.57-2.77-8.3-3.91h-.25c-2.56,0-4.57.26-7,2.47a19.62,19.62,0,0,0-2.33,2.68,56.18,56.18,0,0,0-3.85,6.23l0,.07,0,.13.32-.17,0,0c.16-.1.38-.22.66-.37h0l0,0,0,0,.07,0,.12-.07.12-.06.11,0a2.33,2.33,0,0,1,.39-.19,8.19,8.19,0,0,1,1.36-.47c.19-.05.39-.09.58-.12l.43-.07a11.21,11.21,0,0,1,1.27-.1,15.14,15.14,0,0,1,3.36.3l.34.08a10.58,10.58,0,0,0,1.87.81,13.66,13.66,0,0,0,4.34.45,2.23,2.23,0,0,0,.36-.05,1.91,1.91,0,0,0,.33-.06l.15,0a7.64,7.64,0,0,0,2.25-.82l.06,0a2.17,2.17,0,0,1,0,.26l.14-.06c-.13,0,.87,2.41-2.73,8.92a73.72,73.72,0,0,1-6,8.94c-.57.7-1.08,1.3-1.49,1.76a15.55,15.55,0,0,1-1.23,1.22l.4-.06.22,0h0A13.61,13.61,0,0,0,86,153.25h0l.64-.4.1-.07a33,33,0,0,0,5.46-4.58c0,.17-.06.34-.1.51A33.61,33.61,0,0,1,91,153l-.27.77-.21.54-.42,1-.21.49a5.11,5.11,0,0,1-.22.48l-.21.46A32.58,32.58,0,0,1,73.06,172.3c10.5,5.3,20.27-2.07,20.27-2.07-7.6,11-6.77,19.48-6.77,19.48a18.29,18.29,0,0,1,6.66-7.32c4.22-2.23,7.15-1.21,7.15-1.21-7.15,7.6-6.27,19.93-6.27,19.93C94.76,220.26,82.54,225,82.54,225c19.78,2.86,25-17.19,25-17.19,3.38,4.95-3.65,14.58-3.65,14.58a23.05,23.05,0,0,0,18.58-11.6,53.35,53.35,0,0,0,.6,11.66c.24,1.43.53,2.79.88,4.08,4.61,17.36,17.89,23.06,18.39,23.26a19.28,19.28,0,0,1-1.5-4.51c-1.55-7.28.27-15.66,1.36-19.6.39-1.43.68-2.28.68-2.28a.28.28,0,0,0,0,.09,21.9,21.9,0,0,0,.41,2.94c2.82,13.71,17.5,23.18,17.5,23.18l.51.42c1.18,1,2.27,2,3.28,2.93a48.16,48.16,0,0,1,10.12,13.43,35.64,35.64,0,0,1,1-9.87l.09-.36a22.5,22.5,0,0,1,2.94-6.68,8.86,8.86,0,0,1,.72-1,49.39,49.39,0,0,0,1.79,5.69A41.08,41.08,0,0,0,191,269.3l.16.16a2.09,2.09,0,0,0,.22.2l.41.39.21.2c.11.09.23.19.34.3l.11.09c.71.63,1.43,1.21,2.14,1.75l.7.52c.48.35.95.67,1.41,1l.69.44c.23.15.45.29.68.42,1,.6,2,1.12,2.88,1.56.5.24,1,.46,1.45.66l.14.06.6.25,1,.38.9.32.05,0,.45.15,1.05.31.26.07c.83.22,1.36.32,1.47.34a6.47,6.47,0,0,1-.56-.5c-.16-.15-.31-.32-.46-.49a.24.24,0,0,1-.06-.08c-.15-.17-.29-.35-.43-.54s-.27-.38-.4-.59a4.45,4.45,0,0,1-.26-.43.75.75,0,0,1-.07-.12c-.08-.13-.15-.26-.22-.4s-.2-.37-.29-.57l-.18-.4a2.56,2.56,0,0,1-.11-.24c-.14-.32-.27-.65-.4-1s-.23-.63-.33-1-.17-.54-.25-.83-.13-.44-.19-.67-.14-.54-.2-.82c-.19-.77-.35-1.57-.5-2.39-.06-.33-.11-.67-.17-1l-.15-1c-.12-.81-.21-1.62-.3-2.43,0-.52-.1-1-.14-1.56,0-.19,0-.39-.05-.58l-.06-.89c0-.12,0-.23,0-.34,0-.43-.05-.85-.07-1.26-.16-3.4-.11-6.33-.06-8,0-.87.06-1.37.06-1.37q.09.6.24,1.23c1.25,5.63,5.08,12,5.08,12s.15.26.24.38c.18.29.36.57.56.85s.34.5.53.74l.23.3.42.54q.39.48.81.93t.69.75c.24.26.5.52.76.77a46.77,46.77,0,0,0,6.13,5c.78.54,1.56,1.06,2.32,1.54,2.46,1.58,4.75,2.83,6.39,3.67s2.58,1.26,2.58,1.27c7.61,3.3,5.32,10.06,5.21,10.4,9.24-7.54,13.6-16.19,15.46-24a46.66,46.66,0,0,0,.88-16.34v0a38,38,0,0,0-1.24-6.24,28.84,28.84,0,0,1,8.17,6.85l.43.51c.28.35.55.71.81,1.07,6.93,9.5,7.51,21,7.51,21l.71-.5a30.78,30.78,0,0,0,10.52-13.26l0-.06a34.14,34.14,0,0,0,1.66-5.11l.06-.25a45.11,45.11,0,0,0-.23-20.39c15.36,2.6,15.36,14.83,15.36,14.83C327.46,189.58,284.81,151.9,283.31,150.6ZM197.49,41.39s25.76-3.52,28.18-10.57c0,0,.88,8.81-30.6,13,0,0-25.1,5.94-26.43,15.41C168.64,59.23,167.54,50,197.49,41.39Zm-96.87,158c1.59-21.48,19.36-23.9,19.36-23.9C103.41,183.67,100.83,198.05,100.62,199.38Zm64.26-16.16c-14.41,23.06-.37,46.53.22,47.5C146.6,207.23,164.14,184.17,164.88,183.22Zm67.36,87.25c-.35-.1-.7-.22-1-.34s-.53-.17-.78-.27a38.83,38.83,0,0,1-5.36-2.37l-.7-.39-.67-.39c-.67-.39-1.31-.8-1.93-1.23l-.62-.43-.85-.63c-.3-.22-.59-.46-.88-.69h0a34.68,34.68,0,0,1-10.81-15.81,42,42,0,0,1-2.3-15.18A47.64,47.64,0,0,0,210,247.26a45.09,45.09,0,0,0,9.16,13.57c.66.68,1.33,1.32,2,1.92.36.34.73.66,1.09,1,1.22,1,2.41,2,3.53,2.76.27.2.54.38.81.56l1,.64.66.42.56.34a4.83,4.83,0,0,0,.47.28c.47.28.9.52,1.29.73l.47.25.55.29c.92.46,1.53.72,1.74.8Zm14.88-93.8L246,178.4c-.45.67-.91,1.3-1.36,1.89a22.3,22.3,0,0,1-3.36,3.51,9.91,9.91,0,0,1-6.28,2.52l-.49,0c-5.42-.33-9.24-6-10.46-8.09-.6.33-1.2.69-1.81,1.07-.3.18-.61.37-.91.57s-.68.44-1,.67-.57.38-.86.59c-.59.42-1.19.85-1.77,1.31l-.9.71-.9.74c-.3.25-.59.5-.88.77-.51.45-1,.93-1.52,1.43-.2.19-.4.38-.58.58s-.46.47-.68.71-.27.28-.39.42-.4.43-.58.66c-.43.48-.83,1-1.23,1.47,0,0-8.45,1.13-12-9.28.28.47,5,8.28,10.84,7.59a28.18,28.18,0,0,1,2.08-2.31q.16-.18.36-.36l.8-.77.44-.41c.3-.28.63-.57,1-.86l.53-.45,1.13-.92.61-.47c.62-.47,1.28-1,2-1.43l.71-.48q.36-.25.75-.48l.38-.24a4.11,4.11,0,0,1,.39-.24l.79-.47.83-.47c.55-.31,1.13-.62,1.72-.91l.7-.35h0c.86-.41,1.76-.81,2.69-1.19.47-.19.94-.38,1.43-.55s.8-.3,1.22-.43q1.35-.47,2.79-.84l.74-.19c.55-.15,1.11-.27,1.68-.39l1.12-.22a1.2,1.2,0,0,1,.2,0l.51-.09c.44-.08.89-.14,1.35-.21l-1,.29-.45.14a62.07,62.07,0,0,0-9.83,4l-1.21.63a19.05,19.05,0,0,0,3.83,2.18,15.7,15.7,0,0,0,5.09,1.27,17.14,17.14,0,0,0,11.08-3.26l1.59-1.22c-4.31-2.67-7.21-4.27-7-4.2,12.4,3.81,28.32,16.49,28.32,16.49,4.22-1.15,5.19-7.19,5.33-8.29-.47,8.61-5.47,11.39-5.47,11.39A152.39,152.39,0,0,0,247.12,176.67Zm27.65,71.48s3.08-33-19.58-49.54C255.9,198.87,281.29,208.84,274.77,248.15Zm17.73-80.79c4.45,7,12.53,24.3,5.39,48.64C297.89,216,303.07,184.78,292.5,167.36Z"/><g id="hair_shadows"><path class="cls-7" d="M132.87,146.52h0a163,163,0,0,1-7.65-28.6,141.9,141.9,0,0,1-2.07-17.48c1.74,13.95,13.8,55.34,14.18,56.63C135.65,153.55,134.17,150,132.87,146.52Z"/><path class="cls-7" d="M273.5,180.5c-.47,8.61-5.47,11.39-5.47,11.39a152.39,152.39,0,0,0-20.91-15.22l-.29-.17c-4.31-2.67-7.21-4.27-7-4.2,12.4,3.81,28.32,16.49,28.32,16.49C272.39,187.64,273.36,181.6,273.5,180.5Z"/><path class="cls-7" d="M237.77,172.46l-1,.29-.45.14a62.07,62.07,0,0,0-9.83,4c-.39.19-.8.4-1.21.63-.16.08-.32.16-.48.26l-.31.17c-.15.08-.3.16-.44.25-.6.33-1.2.69-1.81,1.07-.3.17-.6.37-.91.57s-.68.44-1,.67-.57.38-.86.59c-.59.42-1.19.85-1.77,1.31-.3.22-.6.46-.9.71s-.6.48-.9.74-.59.5-.88.77c-.51.45-1,.93-1.52,1.43-.2.19-.4.38-.58.58s-.46.47-.68.71-.27.28-.39.42-.4.43-.58.66c-.43.48-.83,1-1.23,1.47,0,0-8.45,1.13-12-9.28.28.47,5,8.28,10.84,7.59a28.18,28.18,0,0,1,2.08-2.31q.16-.18.36-.36l.8-.77.44-.41c.3-.28.63-.57,1-.86l.53-.45,1.13-.92.61-.47c.62-.47,1.28-1,2-1.43l.71-.48q.36-.25.75-.48l.38-.24a4.11,4.11,0,0,1,.39-.24l.79-.47.83-.47c.55-.31,1.13-.62,1.72-.91l.7-.35h0c.86-.41,1.76-.81,2.69-1.19.47-.19.94-.38,1.43-.55s.8-.3,1.22-.43q1.35-.47,2.79-.84l.74-.19c.55-.15,1.11-.27,1.68-.39l1.12-.22a1.2,1.2,0,0,1,.2,0l.51-.09C236.86,172.59,237.31,172.53,237.77,172.46Z"/><path class="cls-7" d="M274.77,248.15s3.08-33-19.58-49.54C255.9,198.87,281.29,208.84,274.77,248.15Z"/><path class="cls-7" d="M233.31,270.79l-1.07-.32-1-.34c-.26-.08-.53-.17-.78-.27a38.83,38.83,0,0,1-5.36-2.37l-.7-.39-.67-.39c-.67-.39-1.31-.8-1.93-1.23l-.62-.43-.85-.63c-.3-.22-.59-.46-.88-.69h0a34.68,34.68,0,0,1-10.81-15.81,42,42,0,0,1-2.3-15.18A47.64,47.64,0,0,0,210,247.26a45.09,45.09,0,0,0,9.16,13.57c.66.68,1.33,1.32,2,1.92.36.34.73.66,1.09,1,1.22,1,2.41,2,3.53,2.76.27.2.54.38.81.56l1,.64.66.42.56.34a4.83,4.83,0,0,0,.47.28c.47.28.9.52,1.29.73l.47.25.55.29C232.49,270.45,233.1,270.71,233.31,270.79Z"/><path class="cls-7" d="M297.89,216s5.18-31.22-5.39-48.64C297,174.4,305,191.66,297.89,216Z"/><path class="cls-7" d="M165.1,230.72c-18.5-23.49-1-46.55-.22-47.5C150.47,206.28,164.51,229.75,165.1,230.72Z"/><path class="cls-7" d="M195.07,43.82S170,49.76,168.64,59.23c0,0-1.1-9.25,28.85-17.84,0,0,25.76-3.52,28.18-10.57C225.67,30.82,226.55,39.63,195.07,43.82Z"/><path class="cls-7" d="M120,175.48c-16.57,8.19-19.15,22.57-19.36,23.9C102.21,177.9,120,175.48,120,175.48Z"/></g></g><g id="skin"><g id="skin-2" data-name="skin"><path id="face" class="cls-8" d="M283.33,151.21c0-.2,0-.41,0-.61-.06-1.7-.14-3.38-.24-5v-.11q-.19-3.5-.45-6.84c-.52.12-1.06.24-1.61.34l-.91.16a41.88,41.88,0,0,1-4.46.5l-.51,0c-.73,0-1.48.06-2.25.07,0,0-.65,0-1.74-.1-5.52-.48-22.47-3.33-24.57-20.28a5.37,5.37,0,0,1,0-1.5,4.38,4.38,0,0,1,.17-.8.24.24,0,0,1,0-.08h0l0-.09.14-.39v0l0,0c0-.09.08-.18.12-.27a3.79,3.79,0,0,1,.18-.34,3.21,3.21,0,0,1,.19-.31,5.92,5.92,0,0,1,4.71-2.66l18-.73,9-.36h.05c-.1-.59-.21-1.16-.32-1.74l-.06-.34q-.63-3.3-1.32-6.39a81.77,81.77,0,0,0-8.31.38,68.22,68.22,0,0,0-17.66,4,1.16,1.16,0,0,1-.4.07,1.75,1.75,0,0,1-.94-.34A11.1,11.1,0,0,1,246,99.19l0-.59.52-.3a44.09,44.09,0,0,1,6.64-3.21,1.35,1.35,0,0,1,1.13,0,1.87,1.87,0,0,1,.83,1.3c.54-.28,1.38-.75,2.1-1.15a27.7,27.7,0,0,1,3.05-1.6c.67-.24,1.57-.24,2.12,1.1.6-.26,1.54-.75,2.39-1.2s1.81-1,2.47-1.25a4.64,4.64,0,0,1,.51-.21c1.21-.44,2,.55,2.51,1.14a3.28,3.28,0,0,0,.42.48,24.51,24.51,0,0,1,4.26-.84c-.28-1-.57-2.06-.86-3.06l-.09-.29a118.28,118.28,0,0,0-5.94-15.22c-6.67-14-15.27-25.74-20.92-31.4-.7-.61-1.42-1.2-2.13-1.77-2.52,3.35-7.34,6.19-15.08,7.28-6.53.93-25.1,2.41-30.62,11.68a13.08,13.08,0,0,0-.81,11.62c1.45,3.31,5,3.92,7.64,3.87a15.32,15.32,0,0,0,3.13-.35s-.08.15-.23.4c-.93,1.52-4.62,6.83-10.56,6.83-9.81,0-12.6-7.53-17.78-11.85-.21-.18-.47-.39-.77-.62a8,8,0,0,0-3.25-1.58,5,5,0,0,0-3.89.88c-5.71,3.91-3.36,11.52-2.92,12.79l.06.18h0c-7.27.59-13.23-3.22-14.72-9.53A36.6,36.6,0,0,0,148.6,85.6c-.24.78-7.23,23,2.93,60a55.69,55.69,0,0,0,5.58,10.75c.09.14.18.28.29.43.77,1.18,1.64,2.4,2.61,3.64l.44.57h0c7.16,9,19.08,18.57,37.33,18.57,0,0,9.63-23.21,30.19-18.2a55.45,55.45,0,0,0,7.86,3.86l1.08.42c.23.09.45.17.66.23l.42.12.1,0,.49.09a3.61,3.61,0,0,0,1.13,0h.08a.12.12,0,0,0,.08,0,2.33,2.33,0,0,0,.36-.08,1.82,1.82,0,0,0,.37-.13l.17-.08.06,0,.24-.13.39-.27a3,3,0,0,0,.28-.24l.11-.1a32.69,32.69,0,0,0,3.37-4.54l.29-.4h0s0,0,0,0l.5-.69s.33,0,.91.07l.33,0c.56.06,1.3.15,2.17.29l.44.07.47.08.54.1.57.11.79.17.4.09.78.2h.06l.84.22h0l.89.26.9.28c.74.24,1.5.51,2.27.82l.72.29c.72.3,1.45.64,2.18,1,.24.12.48.24.71.37.48.26,1,.54,1.45.85a4.37,4.37,0,0,1,.4.25c.46.29.92.6,1.37.94l.34.25c.27.21.54.42.81.65l.27.23c.31.26.6.53.89.81a4.17,4.17,0,0,1,.37.36c.13.12.25.25.37.38s.33.34.49.52a20.64,20.64,0,0,1,5.1,11.1,42.49,42.49,0,0,0,9.29-21.32,33.12,33.12,0,0,0,.28-3.65C283.42,153.88,283.38,152.54,283.33,151.21ZM165.26,116.82a8.34,8.34,0,0,1,.19-2,.17.17,0,0,1,0-.07c.25-2.17,1.49-6.59,7.5-7.11l49,3.9s3.36,1.1,4.45,3.75l-.18,0-.05-.06s0,0,0,0c-1.33-.38-8.9-2.32-26.78-2.69a7.41,7.41,0,0,1,.89.88,5.82,5.82,0,0,1,1.47,3.88c0,4.77-5.32,8.65-11.86,8.65S178,122.08,178,117.31a6.07,6.07,0,0,1,1.72-4.27,6.24,6.24,0,0,1,1-.89c-7.37.2-14.52,1.06-15.3,3.55a3.93,3.93,0,0,0,0,.49A1.66,1.66,0,0,0,165.26,116.82Z"/><path class="cls-8" d="M132.87,146.51h0c-.17.53-.34,1-.52,1.54a28.94,28.94,0,0,1-2.23,4.93c-.2.33-.4.64-.59.93l-.35.49c-.19.25-.37.49-.56.71s-.41.46-.62.67-.2.2-.31.29l-.3.28-.47.36c-.16.11-.32.22-.49.32a5.48,5.48,0,0,1-.67.36l-.28.12a5.9,5.9,0,0,1-.67.23l-.3.07a3.55,3.55,0,0,1-.47.08l-.14,0-.29,0c-6.73.42-13.3-10.53-13.3-10.53-7.92-8.58-11-15.95-11.89-21.64,0-.19-.07-.37-.09-.55a22.28,22.28,0,0,1,.17-7.29,14.71,14.71,0,0,1,1.78-4.93l.2-.22c2.56-2.72,6-3.14,9.61-2.46.43.08.86.18,1.29.29s.56.15.84.24.45.13.67.21a30.64,30.64,0,0,1,4.13,1.71l1.16.59c1.14.6,2.19,1.22,3.12,1.81l.7.45q.54.34,1,.66c.25.17.49.33.7.49.54.38,1,.7,1.25.91l.23.18,0,0A163,163,0,0,0,132.87,146.51Z"/></g><g id="skin_shadows"><path class="cls-9" d="M148,124.64c2.35,18.62,8.76,30.72,12.48,36.33h0c0,.08.1.15.15.23q-.31-.41-.6-.81-1.37-1.83-2.61-3.64c-.11-.15-.2-.29-.29-.43a55.69,55.69,0,0,1-5.58-10.75c-10.16-37-3.17-59.2-2.93-60a36.6,36.6,0,0,1,6.55-12.83c1.49,6.31,7.45,10.12,14.72,9.53a1.13,1.13,0,0,0,0,.12s-9.9,3-15.53-7.77C154.18,74.32,143.71,90.81,148,124.64Z"/><path class="cls-9" d="M169.86,82.12c-.44-1.27-2.79-8.88,2.92-12.79a5,5,0,0,1,3.89-.88C169,70.41,169.66,80.28,169.86,82.12Z"/><path class="cls-9" d="M192.94,83.05c-5.18-1.51-9.63-9.49-13-13,.3.23.56.44.77.62,5.18,4.32,8,11.85,17.78,11.85,5.94,0,9.63-5.31,10.56-6.83h.2C211.55,75.44,204.51,86.41,192.94,83.05Z"/><path class="cls-9" d="M275,92.9h-.06a24.51,24.51,0,0,0-4.26.84,3.28,3.28,0,0,1-.42-.48c-.49-.59-1.3-1.58-2.51-1.14a4.64,4.64,0,0,0-.51.21C263.56,74.65,256.83,57,245.06,42.83c-1.71,2.09-2.53,3.4-6,5.26-5.45,2.92-20.93,2.63-26.69,4.51-1.77.58-14.13,6.4-13.65,13.53.18,2.74.9,8.67,7.42,9.49-2.64,0-6.19-.56-7.64-3.87a13.08,13.08,0,0,1,.81-11.62c5.52-9.27,24.09-10.75,30.62-11.68,7.74-1.09,12.56-3.93,15.08-7.28l.09-.12c.62.52,1.31,1.15,2,1.89,5.65,5.66,14.25,17.42,20.92,31.4A118.28,118.28,0,0,1,274,89.56l.09.29C274.4,90.89,274.71,91.91,275,92.9Z"/><path class="cls-9" d="M279.2,111.72h-.05l-9,.36h0c-.27-2.79-.6-5.6-1-8.45a81.77,81.77,0,0,1,8.31-.38h.1c.22,1,.42,2,.59,2.91.05.24.09.47.13.69.21,1.07.37,2,.5,2.79l.06.34C279,110.56,279.1,111.13,279.2,111.72Z"/><path class="cls-9" d="M283.17,158.89a42.49,42.49,0,0,1-9.29,21.32,20.64,20.64,0,0,0-5.1-11.1,249.56,249.56,0,0,0,2.36-29.49c1.09.1,1.74.1,1.74.1.77,0,1.52,0,2.25-.07l.51,0a41.88,41.88,0,0,0,4.46-.5L281,139c.55-.1,1.09-.22,1.61-.34l.11,0c.14,2.25.26,4.54.34,6.87v.11C283.21,149.87,283.26,154.31,283.17,158.89Z"/><path class="cls-9" d="M127,142.65a4.06,4.06,0,0,1-5.73.25c-3.39-4.36,2.08-8.1,2.08-8.1-4.52-12.55-13.66-8.5-14.18-8.2,0,0,9.17-.66,11.51,8.15,0,0-3,0-4.78,4.35a6.55,6.55,0,0,0,2.93,7.71c.34.22,6.64,3.48,9-3.26Z"/></g></g><g id="nose"><path class="cls-10" d="M246.94,159.45a16.51,16.51,0,0,1-3.74,5,12,12,0,0,0,2.32-4.32h0s0,0,0,0a8.69,8.69,0,0,0-2.11-8.18c-6.85-5.88-15.18,1.29-15.55,1.62,8.76-10.23,16.1-4.95,16.1-4.95C248.71,152.29,248.39,156.36,246.94,159.45Z"/><path class="cls-10" d="M230.71,161.11s-.85-3.82,5.74-1.15Z"/></g><g id="eyes"><g id="eye_whites"><path class="cls-11" d="M226.93,119.88c-1.6,8.89-8,22.09-32.41,20.88,0,0-26.45-.42-29-24.45,0,0,0-.08,0-.12a3.93,3.93,0,0,1,0-.49c.78-2.49,7.93-3.35,15.3-3.55a6.24,6.24,0,0,0-1,.89,6.07,6.07,0,0,0-1.72,4.27c0,4.77,5.32,8.65,11.86,8.65s11.86-3.88,11.86-8.65a5.82,5.82,0,0,0-1.47-3.88,7.41,7.41,0,0,0-.89-.88c17.88.37,25.45,2.31,26.78,2.69a5.1,5.1,0,0,1,.42.92A7,7,0,0,1,226.93,119.88Z"/><path class="cls-11" d="M301.5,117.52s0,0,0,.08c0,.27-.07.54-.11.82-1,7-5,16.86-18.65,20.17l-.11,0a44.09,44.09,0,0,1-9.74,1.1s-.65,0-1.74-.1c-5.52-.48-22.47-3.33-24.57-20.28a5.37,5.37,0,0,1,0-1.5,4.38,4.38,0,0,1,.17-.8c.93-1,5.25-1.69,10.71-2.09a7.69,7.69,0,0,0-1.06,1,5,5,0,0,0-1.38,3.62c.18,3.25,4.08,6.4,10.4,6.4l1.08,0a12.23,12.23,0,0,0,7.36-2.5,6.11,6.11,0,0,0,2.3-4.66c0-.11,0-.21,0-.31a5.33,5.33,0,0,0-1.36-3.25,6.75,6.75,0,0,0-.92-.84c6.84-.09,12.27,0,12.27,0C297.91,113.87,300.89,116.71,301.5,117.52Z"/></g><g id="eyes_black"><path class="cls-4" d="M226.39,115.3c-1.09-2.65-4.45-3.75-4.45-3.75l-49-3.9c-6,.52-7.25,4.94-7.5,7.11a.17.17,0,0,0,0,.07,8.34,8.34,0,0,0-.19,2,1.66,1.66,0,0,1,.23-.63,3.93,3.93,0,0,1,0-.49c.78-2.49,7.93-3.35,15.3-3.55a6.24,6.24,0,0,0-1,.89,6.07,6.07,0,0,0-1.72,4.27c0,4.77,5.32,8.65,11.86,8.65s11.86-3.88,11.86-8.65a5.82,5.82,0,0,0-1.47-3.88,7.41,7.41,0,0,0-.89-.88c17.88.37,25.45,2.31,26.78,2.69,0,0,0,0,0,0l.05.06ZM184.09,117a1.71,1.71,0,1,1,1.71-1.71A1.71,1.71,0,0,1,184.09,117Z"/><path class="cls-4" d="M185.8,115.26a1.71,1.71,0,1,1-1.71-1.71A1.72,1.72,0,0,1,185.8,115.26Z"/><path class="cls-4" d="M226.21,115.25h0s0,0,0,0Z"/><path class="cls-4" d="M301.63,117.74l0-.07-.09-.15c-.61-.81-3.59-3.65-15.35-3.16,0,0-5.43-.09-12.27,0a6.75,6.75,0,0,1,.92.84,5.33,5.33,0,0,1,1.36,3.25c0,.1,0,.2,0,.31a6.11,6.11,0,0,1-2.3,4.66,12.23,12.23,0,0,1-7.36,2.5l-1.08,0c-6.32,0-10.22-3.15-10.4-6.4a5,5,0,0,1,1.38-3.62,7.69,7.69,0,0,1,1.06-1c-5.46.4-9.78,1.06-10.71,2.09a.24.24,0,0,1,0-.08h0l0-.09.14-.39v0l0,0c0-.09.08-.18.12-.27a3.79,3.79,0,0,1,.18-.34,3.21,3.21,0,0,1,.19-.31,5.92,5.92,0,0,1,4.71-2.66l18-.73,9-.36h.05l8.09-.33,1.37-.06,7-.28H296l.16,0h.05l.38.06a9.45,9.45,0,0,1,1.55.44l.09,0A5,5,0,0,1,301.63,117.74Z"/><path class="cls-4" d="M287.29,111.4l-8.09.33h-.05l-9,.36-18,.73a5.92,5.92,0,0,0-4.71,2.66,5.7,5.7,0,0,1,4.63-2.68l18.08-.72,9-.36h.05Z"/><path class="cls-4" d="M295.85,111.07h0Z"/></g><g id="eye_shadow"><path class="cls-12" d="M180.77,112.15a6.24,6.24,0,0,0-1,.89c-6.68.23-13,1-14.27,3.15a3.93,3.93,0,0,1,0-.49C166.25,113.21,173.4,112.35,180.77,112.15Z"/><path class="cls-12" d="M226.75,116.2l-.15,0c-1.13-.32-8.75-2.3-26.31-2.73a7.41,7.41,0,0,0-.89-.88c17.88.37,25.45,2.31,26.78,2.69,0,0,0,0,0,0l.05.06A4.24,4.24,0,0,1,226.75,116.2Z"/><path class="cls-12" d="M257.47,115a7.69,7.69,0,0,0-1.06,1c-4.69.4-8.45,1-9.82,1.91a2.31,2.31,0,0,0-.23.18,5.36,5.36,0,0,1,.59-1.55l-.14.39,0,.09h0a.24.24,0,0,0,0,.08C247.69,116,252,115.35,257.47,115Z"/><path class="cls-12" d="M301.59,117.67a6.14,6.14,0,0,1-.1.93,1.92,1.92,0,0,0-.11-.18c-.54-.75-3.41-3.7-15.37-3.2,0,0-4.87-.08-11.21,0a6.75,6.75,0,0,0-.92-.84c6.84-.09,12.27,0,12.27,0,11.76-.49,14.74,2.35,15.35,3.16Z"/></g><g id="eye_highlights"><path class="cls-11" d="M185.8,115.26a1.71,1.71,0,1,1-1.71-1.71A1.72,1.72,0,0,1,185.8,115.26Z"/><circle class="cls-11" cx="260.6" cy="117.41" r="1.61"/></g></g><g id="mouth"><path class="cls-11" d="M243.62,179.9c-.28.36-.56.69-.85,1a15,15,0,0,1-4.05,3.38,7.69,7.69,0,0,1-4.18,1c-4-.23-7.1-3.82-8.76-6.2a18.37,18.37,0,0,0,5.16,2.33h0a16.64,16.64,0,0,0,8.56.05h0A18.8,18.8,0,0,0,243.62,179.9Z"/><path id="outline" class="cls-10" d="M246.83,176.5l-1.59,1.22A17.14,17.14,0,0,1,234.16,181a15.7,15.7,0,0,1-5.09-1.27,19.05,19.05,0,0,1-3.83-2.18c-.16.08-.32.16-.48.26l-.31.17c-.15.08-.3.16-.44.25,1.22,2.08,5,7.76,10.46,8.09l.49,0a9.91,9.91,0,0,0,6.28-2.52,22.3,22.3,0,0,0,3.36-3.51c.45-.59.91-1.22,1.36-1.89l1.16-1.73Zm-4.06,4.41a15,15,0,0,1-4.05,3.38,7.69,7.69,0,0,1-4.18,1c-4-.23-7.1-3.82-8.76-6.2a18.37,18.37,0,0,0,5.16,2.33h0a16.64,16.64,0,0,0,8.56.05h0a18.8,18.8,0,0,0,4.09-1.58C243.34,180.26,243.06,180.59,242.77,180.91Z"/></g><g id="eyebrows"><path class="cls-4" d="M224.8,107.38a1.24,1.24,0,0,1-1.56.91,245.16,245.16,0,0,0-26.06-5.92c-14.19-2.28-30.26-.33-30.42-.31l-2.41.3L170,95.21l.17-.09c.21-.13,5.23-3,13.87-.73,1.36.36,1.69-.15,2.19-.92a2.21,2.21,0,0,1,1.64-1.26c1.45-.12,3.44.67,5.36,1.44A13.12,13.12,0,0,0,197,94.83a2.6,2.6,0,0,0,.48-.06,4.17,4.17,0,0,0-.13-.42,1.54,1.54,0,0,1,.11-1.64,1.3,1.3,0,0,1,1.34-.33c2,.47,4.65,1.1,7.16,1.72a1,1,0,0,1,.1-.83c.47-.83,1.52-.55,2-.42a18.58,18.58,0,0,1,5.06,2.44,25.38,25.38,0,0,0,2.72,1.53,1.07,1.07,0,0,1,.22-.67c.52-.72,1.43-.4,1.77-.28,2.81,1,5.14,1.91,6.91,2.75C226.34,99.37,225.11,106.6,224.8,107.38Z"/><path class="cls-4" d="M287.81,104.08l-1.36-.28h-.08a67.59,67.59,0,0,0-8.77-.54h-.1a81.77,81.77,0,0,0-8.31.38,68.22,68.22,0,0,0-17.66,4,1.16,1.16,0,0,1-.4.07,1.75,1.75,0,0,1-.94-.34A11.1,11.1,0,0,1,246,99.19l0-.59.52-.3a44.09,44.09,0,0,1,6.64-3.21,1.35,1.35,0,0,1,1.13,0,1.87,1.87,0,0,1,.83,1.3c.54-.28,1.38-.75,2.1-1.15a27.7,27.7,0,0,1,3.05-1.6c.67-.24,1.57-.24,2.12,1.1.6-.26,1.54-.75,2.39-1.2s1.81-1,2.47-1.25a4.64,4.64,0,0,1,.51-.21c1.21-.44,2,.55,2.51,1.14a3.28,3.28,0,0,0,.42.48,24.51,24.51,0,0,1,4.26-.84H275l.3,0c3.59-.42,4.19,0,4.52.56a1.24,1.24,0,0,1-.27,1.59l-.16.17.12,0a6.76,6.76,0,0,1,4.76.72l.61.29.2.07.15.16a8.83,8.83,0,0,1,1.95,3.93,18,18,0,0,1,.46,2.38Z"/></g></svg>