<svg data-name="trAvatar" xmlns="http://www.w3.org/2000/svg" id="avatar" viewBox="0 0 144.33 169.22"><defs><style>.cls-2,.cls-3{fill:#010101}.cls-4{fill:#231f20}.cls-5{fill:#371847}.cls-7{fill:#b92025}.cls-8{fill:#35536c}.cls-9{fill:#9f4c24;opacity:.25}.cls-11{fill:#fff}.cls-3{opacity:.23}</style></defs><path d="M.23 0h144.11v168.97H.23z" style="fill:none"/><g id="shirt"><path id="shirt-2" d="M144.03 169.17S11.31 169.2 0 169.2c.56-51.09 20.52-42.66 54.49-54.52 0-.01-.02-.06-.02-.06 7.37-24.5 54.15-1.77 59.84 5.9 31.44 8.66 29.57 26.34 29.72 48.64Z" data-name="shirt" style="fill:#85a9cd"/><g id="shirt_x5F_shadows"><path d="m83.76 169.14-.76.09c-.12-10.15.52-26.72-2.18-36.42 4.24 12.41 3.11 22.01 2.94 36.33M79.12 129.94l-5.42 9.25s-1.94-.79-4.71-2.5c-6.42-3.37-14.14-11.58-17.22-20.54.48 1.11 6.01 12.73 17.13 19.63 1.12.74 2.26 1.44 3.49 2.12.03-.04 6.35-7.84 6.72-7.96ZM100.34 132.17c-.49 2.65-5.81 5.26-6.06 4.89-.71-.69-3.55-3.57-3.61-3.64.98.74 2.7 2.02 3.69 2.77 0 0 5.56-3.75 5.98-4.03Z" class="cls-8"/></g></g><g id="suspenders"><path d="m45.98 169.19-13.64.04c.1-1.31 3.05-39.87-12.82-44.51l12.07-3.73s16.34 2.2 14.39 48.2M136.72 169.17l-12.46.05c-.29-.43 1.9-40.16-9.96-48.7 0 0 6.66 1.42 12.26 4.28 8.87 5.47 9.94 7.29 10.16 44.37" class="cls-5"/></g><path d="M101.63 121.56c-.86 8.51-3.51 12.33-4.45 13.44l-9.93-3.31c-1.4.88-4.51 2.42-7.37.3-.51.17-11.61 4-13.09 4.51-1.86-4.72-3.37-11.71-.45-17.6 7.59 2.72 13.41 6.01 13.72 4.82.77-.69 1.96-.93 1.95-.97.18-.04 11.16-1.51 19.63-1.19Z" class="cls-5"/><g id="buttons"><path d="M90.35 147.97c-.87 2.87-4.79 1.52-3.86-1.28.88-2.87 4.79-1.53 3.86 1.28M90.81 167.1c-.87 2.87-4.79 1.52-3.86-1.28.88-2.87 4.79-1.53 3.86 1.28" class="cls-2"/></g><g id="skin"><path id="skin-2" d="M124.54 90.92c-20.32 19.69-50.13 7.04-51.99 6.08-5.58.27-27.7-20.24-27.73-32.82-.11-51.9 50.61-58.43 66.71-40.8 4.94 4.04 17.29 14.93 17.53 52.39 1.07 4.75.22 11.91-4.52 15.16Z" data-name="skin" style="fill:#e2ab90"/><g id="skin_x5F_shadows"><path d="M128.99 79.25c-.71 5.81-4.23 9.71-4.23 9.71-.31-2.13-1.18-3.78-2.32-5.06.87-15.01 2.04-44.16-10.81-57.52-2.41 4.35-10.84 3.22-14.89 4.45-11.26 2.88-9.49 12.88-1.52 10.51.92-.15-1.35 6.39-7.33 3.36-19.21-9.71 3.14-35.04 22.68-22.68 11.05 13.86 19.09 27.74 18.42 57.23M57.87 71.86c-2.98 2.17-4.26-2.1-1.66-3.58-2.06-5.72-6.22-3.87-6.46-3.74 0 0 4.18-.3 5.25 3.71-5.68 1.67.4 9.71 3.25 4.01l-.37-.41Z" class="cls-9"/></g></g><g id="hair"><path d="M121.44 131.06c.42-1.38-2.62-11.43-7.71-13.4 1.91 7.1.21 15.54-6.88 21.22 1.81-6.52-13.06-5.96-14.66-18.4.02 3.96-.45 10.16 2.67 13.42-9.02-1.73-12.17-10.02-13.11-13.83-1.52 1.89-2.28 5.09-2.17 8.15-2.08-6.47-13.22-9.51-14.5-19.58-.88 2.7-2.07 8.23-.25 12.02-3.29-.7-10.29-9.17-9.06-17.76 0 0-9.17 7.78-18.18 6.47 8.61-4.57 2.09-12.03 8.12-19.95-1.57-.36-5.2 3.99-8.88 2.24 0 0 8.01-7.93 5.14-17.26-.1.13-3.21 3.86-5.13 3.18-8.63-7.85-2.05-18.46 1.07-18.22 2.64.89 4.15 7.06 6.9 4.83.5 4.04 11.24 23.61 15.7 9.45-2.29-6.52-3.13-10.64-3.48-13.04-2.01-1.51-4.37-2.93-6.9-3.45 12.3-44.54 62.66-63.05 77.14-19.75 0-.12.02-.24.02-.35 2.15 5.2 2.53 12.08 9.45 12.87-.59 2.29-3.52 3.42-5.93 2.66-.12-.5.13 4.19.05 5.05l-3.68.15c-.17-.95-1.19-5.68-1.82-8.59h-.1c-2.09-8.18-8.77-19.45-13.62-23.61-3.97 5.57-16.05 1.83-20.86 8.69-2.07 3.67-.31 7.87 4.43 7.08-4.18 6.57-9.83 1.41-13.26-2.57-4.24-3.22-5.77 3.98-4.58 5.59-3.31.27-6.03-1.46-6.71-4.34-9.07 13.05-4.3 49.38 19.42 48.64 10.31-18.77 19.3.64 21.98-9.19 0 0 12.16.6 12.69 9.49 0 0 4.72-5.64 4.3-13.49 20.79 28.08-1.23 52.12-7.61 55.59Z" style="fill:#e42327"/><g id="hair_x5F_shadows"><path d="M60.53 73.62c-2.42-5.8-4.44-17.32-4.43-21 .79 6.35 6.29 25.21 6.46 25.8-.77-1.6-1.44-3.21-2.03-4.8M124.59 89.1c-.21 3.92-2.49 5.19-2.49 5.19-3.66-3.38-9.64-7.06-12.84-8.92 5.65 1.74 12.9 7.51 12.9 7.51 1.92-.52 2.36-3.28 2.43-3.78M108.31 85.44c-4.16 1.08-9.81 4.16-12.66 7.95 0 0-3.85.51-5.45-4.23.13.21 2.26 3.77 4.94 3.46 3.14-3.78 8.22-6.54 13.17-7.18M125.17 119.92s1.4-15.04-8.92-22.57c.32.12 11.89 4.66 8.92 22.57M106.28 130.23c-2.33-.66-4.48-1.71-6.33-3.22-4.17-2.46-6.58-11.86-5.97-14.12.73 7.82 5.54 14.25 12.3 17.34M75.21 111.98c-8.43-10.7-.44-21.21-.1-21.64-6.56 10.5-.17 21.2.1 21.64" class="cls-7"/></g></g><g id="hat"><path d="M127.27 37.4c-1.15-4.69-4.86-4.38-7.94-10.5-.1-.06-4.6-9-7.25-5.71-2.87-4.84-11.56-3.7-19.06-2.85-20.78 3.05-36.21 19.22-42.88 38.79-4.28-1.1-5.33 2.41-5.32 7.04.26 5.64-7.37-7.82-11.39 4.38.52-3.42 6.17.98 8.54-.58 0 .04-.37 4.02-5.12 9.58.04-.05 5.13-3.36 5.12-3.18 0 4.19-4.95 10.69-8.58 4.14-.52-1-.95-4.53-1.8-4.01-1.8 1.1-3.61-.1-5.42-10.03C23.58 42.98 36.34 5.8 62.6 10.48c0 0 10.17-3.71 26.19-2.15 40.15 3.91 39.28 28.64 38.47 29.06Z" style="fill:#434344"/><g id="hat_x5F_shadows"><path d="M83.9 9.47C54.32 23.23 48.81 46.23 44.87 60.6 44.14 30.44 80.14 7.97 83.9 9.47M36.08 74.52s-.7-3.2-.77-7.3c.25-.05.52.12.77.11 0 0-.05.4-.04.41-.13 2.19-.12 4.46.04 6.78" class="cls-2"/><path d="M52.3 30.16c-.81.82-13.54 13.95-15.92 33.78-.33.31-.7.41-1.08.92.3-8.65 3.35-21.25 17-34.7M30.29 42.61s9.87-22.32 33.83-32.29c0 0-22.91 11.83-33.83 32.29" class="cls-2"/></g></g><g id="nose"><path d="M112.49 79.51c-.6 1.28-1.61 2.19-1.7 2.26.56-.7.89-1.36 1.06-1.97.9-6.96-7.23-4.46-8.04-2.99 5.98-6.39 10.45-.87 8.69 2.71ZM105.1 80.26s-.39-1.74 2.61-.52z" class="cls-4"/></g><g id="eyes"><g id="eye_x5F_whites"><path d="M103.37 61.48c-.05 10.76-25.33 15.71-28.09-1.39-.98-6.06 26.96-1.35 27.57-1.18.35.64.55 1.44.52 2.57M137.34 60.41c-.67 11.04-20.27 15.71-25.02.83-1.08-3.98 24.43-4.23 25.02-.83" class="cls-11"/></g><g id="eye_x5F_shadow"><path d="M103.05 59.37s.37.64.24.78c-7.46-1.85-24.85-1.85-27.9-.36-.52-4.18 26.4-3.09 27.66-.43ZM137.34 60.41c0 .19.09.65-.06.81-2.01-3-23.87-1.3-25.06-.58 0 0 .51-1.03.51-1.01.42-.47 23.64-3.39 24.61.79Z" class="cls-3"/></g><g id="eyes_x5F_black"><path d="M103.05 59.37s-.01-.02-.02-.03v.02c-.61-.17-4.05-1.05-12.2-1.22 2.87 2.65-.43 6.22-4.33 6.11-4.03.14-7.3-3.71-4.16-6.29-6.37-.81-7.05 2.03-7.06 2.13-.2-1.5.27-3.79 3.51-4.18l22.31 1.77s1.53.5 2.03 1.71c0 0-.04 0-.08-.02M137.4 60.51c-.8-1.79-7.22-1.63-12.64-1.54 2.71 2.3-.32 5.42-3.36 5.27-3.84.33-7.01-2.61-4.12-5-2.49.18-4.46.48-4.88.95a2.67 2.67 0 0 1 2.47-1.92c2.72-.11 16.27-.66 16.61-.67 2.2-.05 6.37-.84 5.91 2.92Z" class="cls-2"/></g><g id="eye_x5F_highlights"><path d="M84.64 59.38c.01 1.01-1.57 1.01-1.55 0-.01-1.01 1.57-1.01 1.55 0M119.45 60.36c.01.95-1.48.95-1.47 0-.01-.95 1.48-.95 1.47 0" class="cls-11"/></g></g><path id="mouth" d="M112.57 87.36c-2.95 5.45-7.79 5.73-10.52.7.18-.11.38-.21.56-.31 3.68 2.63 8.24 1.37 9.96-.39" class="cls-4"/><g id="eyebrows"><path d="M102.4 55.79c-.46 1.22-6.06-1.52-12.58-2.28-7.77-1.09-13.25-.15-14.96 0 2.8-3.19 2.09-4.79 8.96-3.63.62.16.77-.07 1-.42 1.04-1.69 9.56.52 10.51.79.33-1.39 6.5 1.52 7.06 1.56.72.34.15 3.64.01 3.99ZM131.11 54.29c-9.83-2.67-18.84 5.76-19.05-2.5.49-.27 6.72-3.18 7.47-1.74 1.17-.44 9.23-1.66 7.75.18 2.94-.57 3.67 1.87 3.84 4.05Z" class="cls-2"/></g></svg>