<svg xmlns="http://www.w3.org/2000/svg" viewBox="0 0 310.97 373.35"><defs><style>.cls-1{isolation:isolate;}.cls-2{fill:#654218;}.cls-3{fill:#2a1c0f;mix-blend-mode:multiply;opacity:0.29;}.cls-4{fill:#010101;}.cls-5{fill:#053a59;opacity:0.61;}.cls-6{fill:#86ac62;}.cls-7{fill:#658345;}.cls-8{fill:#fff;}.cls-9{fill:#fba931;}.cls-10{fill:#ce8429;}.cls-11,.cls-12{fill:#8c8c8c;}.cls-12{opacity:0.65;}.cls-13{fill:#353635;}.cls-14{fill:#1f1c1c;}</style></defs><g class="cls-1"><g id="Layer_1" data-name="Layer 1"><g id="skin"><path class="cls-2" d="M189,247.38c-3.9,8.11-18,10.41-18,10.41-10.69-5.2-16-12-17.68-16h0c2.77-7.19,6.75-18.05,8.58-27.58A105.68,105.68,0,0,0,192.68,232C190.44,236.16,188.2,241.9,189,247.38Z"/><path class="cls-2" d="M192.09,113c-13.88,0-25.17,10.72-25.17,23.89s11.29,23.88,25.17,23.88,25.17-10.71,25.17-23.88S206,113,192.09,113Zm83.81,48a28.33,28.33,0,0,1-10.2,3.35,27.55,27.55,0,0,1-3.77.25c-15.35,0-27.84-11.92-27.84-26.57a24.78,24.78,0,0,1,.3-3.88c-5.5-4-12.46-.92-14.29,0a23.48,23.48,0,0,1,.16,2.79c0,14.82-12.64,26.88-28.17,26.88s-28.17-12.06-28.17-26.88a25.76,25.76,0,0,1,.17-2.93l-55.55,5.68-.09-.86a6.52,6.52,0,0,0-3.77,2.13s-7,10.45,7.66,26.28c0,0,8.23,13.72,14.41,5.34,11.38,18.9,23.49,32.25,35.05,41.68A105.68,105.68,0,0,0,192.68,232c13.94,5,23.81,4.76,25.28,4.69h.19a24.12,24.12,0,0,0,4.7-.76c25.07-6.5,44-50.7,44-50.7a226.3,226.3,0,0,0,9.62-24.68C276.3,160.68,276.1,160.79,275.9,160.9Zm8.61-51.48-1.12-1c-3.16-2.79-7.7-4.24-12.51-4.9a70.08,70.08,0,0,0-23.45,1.4,1.11,1.11,0,0,1-1.26-.47,3.42,3.42,0,0,1-.53-2.71,2.57,2.57,0,0,1,1.55-1.62l.21-.06c.76-.14,12.55-2.3,23.17-.54,5.53.91,10.73,2.88,13.89,6.75h0c.1.11.19.23.28.35l.13.16.15.6c-.37-22.07-6.1-35.85-8.13-40.09l-.49.24c-5,2.42-8.45,3.69-11.6,1.7-3.5-2.22-4.63-1.09-5.1.53a2.88,2.88,0,0,1-2.54,2.13,5.2,5.2,0,0,1-5.09-2.75,2.31,2.31,0,0,0-.32-.45,15.9,15.9,0,0,0-8.82-4.95,3.07,3.07,0,0,1-1-.33c-1.28-.74-1.43-3-5,0A14.48,14.48,0,0,0,233,70.54c-.32,1.77-5.86-.11-7.54-.76-4.07-1.56-3.58-4.33-8.1-7.16-.78-.49-7.06-2.27-7.91-2.63-3-1.28-8.47-1.94-15.51-2.46a2.84,2.84,0,0,0-1.38.26,17.73,17.73,0,0,1-10.66,1,3,3,0,0,0-.42,0c-1.05,0-5.76,0-8.17.89a2.84,2.84,0,0,1-1.23.15A18.13,18.13,0,0,1,163.73,57a2.82,2.82,0,0,0-4,.83c-1.11,1.79-2.58,3.68-3.89,3.68h-.74c.06.75.16,2.67-.34,2.8s-8.81-2.7-12.82-2a2.83,2.83,0,0,0-2.07,1.54,11.76,11.76,0,0,0-.95,2.48,2.9,2.9,0,0,0,0,1.06c.21,1.52.46,6.67-6.06,4.71a3,3,0,0,1-.89-.47c-1-.73-3.38-2.29-2.88,1.08,0,0,6.18,11.3,2.34,17.4a2.65,2.65,0,0,0-.27.53l-4.22,11.68c-3.35,8.58-9.25,9.53-11.82,12.16-.83.85-3.8,16-5.55,21.67l0,.08c0,.11-.09.21-.13.31l55.31-5.66c2.86-11.94,14.09-20.88,27.46-20.88s24.68,9,27.49,21c2.89-1.34,9.54-3.62,15.5-.06,3.23-11.26,14-19.55,26.85-19.55a28.82,28.82,0,0,1,9.21,1.5A28,28,0,0,1,284,121.75a6.8,6.8,0,0,1,.46.6c.4-4.4.57-8.55.58-12.46ZM192.09,113c-13.88,0-25.17,10.72-25.17,23.89s11.29,23.88,25.17,23.88,25.17-10.71,25.17-23.88S206,113,192.09,113Z"/></g><g id="skin_shade"><path class="cls-3" d="M188.93,247.43c-1.8,3.68-5.69,6.15-9.41,7.76-1.29-6.41-6.24-27.62-17.59-41,0,0,10.42,8.19,30.56,17.9C192.49,232.08,188.29,239.9,188.93,247.43Z"/><path class="cls-3" d="M275.9,160.9a228.6,228.6,0,0,1-9.57,24.49S247.65,229,222.85,235.94a24.58,24.58,0,0,1-5.23.9l.34-.13c3.58-1.43,34.39-15.32,47.74-72.46A28.33,28.33,0,0,0,275.9,160.9Z"/><path class="cls-3" d="M284.46,106.28c-3.16-3.87-8.36-5.84-13.89-6.75A77.42,77.42,0,0,0,268,84.64c-.29-1-3.45-9.88-8.43-10.83-1.94-.37-4.22.79-5.41-1.07-7-10.95-13.95-10.3-18.77.69-1.16,2.66-10.91-1.2-12.79-3.22-2.31-2.47-2.33-5.69-6.87-6.35-4.08-.59-5.35-3.48-10.39-3.81-4.33-.28-6.88-2.6-11.55-1.65-3.64.75-6,2.08-10.82,1.32s-6.62,2.34-11.4,1.24a22.29,22.29,0,0,1-7.44-2.77c-2.23-1.37-3.19,4.68-5.57,4-2.84-.83-.86,3.78-3.42,2.93-2.18-.72-5.12-1.24-8.5-2.23a18.87,18.87,0,0,0-5.2,0c-.72.12-1.12,2.2-.5,3.14.4.6,1.16,9.74-8.59,6.19-.24-.09-1.83-1.2-1.32.8.08.34,7.12,8.83,2,17-1.53,2.44-4.3,16.77-10.24,20.4-.34.21-5.9,3.39-6.07,4-1.7,5.81-5.6,17.75-7.24,21.8,1.75-5.66,4.72-20.82,5.55-21.67,2.57-2.63,8.47-3.58,11.82-12.16l4.22-11.68a2.65,2.65,0,0,1,.27-.53c3.84-6.1-2.34-17.4-2.34-17.4-.5-3.37,1.92-1.81,2.88-1.08a3,3,0,0,0,.89.47c6.52,2,6.27-3.19,6.06-4.71a2.9,2.9,0,0,1,0-1.06,11.76,11.76,0,0,1,.95-2.48,2.83,2.83,0,0,1,2.07-1.54c4-.66,12.29,2.17,12.82,2s.4-2,.34-2.8h.74c1.31,0,2.78-1.89,3.89-3.68a2.82,2.82,0,0,1,4-.83A18.13,18.13,0,0,0,172,59.76a2.84,2.84,0,0,0,1.23-.15c2.41-.91,7.12-.9,8.17-.89a3,3,0,0,1,.42,0,17.73,17.73,0,0,0,10.66-1,2.84,2.84,0,0,1,1.38-.26c7,.52,12.54,1.18,15.51,2.46.85.36,7.13,2.14,7.91,2.63,4.52,2.83,4,5.6,8.1,7.16,1.68.65,7.22,2.53,7.54.76a14.48,14.48,0,0,1,3.95-7.16c3.61-3,3.76-.69,5,0a3.07,3.07,0,0,0,1,.33,15.9,15.9,0,0,1,8.82,4.95,2.31,2.31,0,0,1,.32.45,5.2,5.2,0,0,0,5.09,2.75,2.88,2.88,0,0,0,2.54-2.13c.47-1.62,1.6-2.75,5.1-.53,3.15,2,6.64.72,11.6-1.7C278.44,71.81,283.9,85.11,284.46,106.28Z"/><path class="cls-3" d="M284.51,109.42c0,3.87-.14,8-.51,12.33a28,28,0,0,0-12.86-8.89c0-3.12-.09-6.25-.26-9.33,4.81.66,9.35,2.11,12.51,4.9Z"/><path class="cls-3" d="M123.41,161.26a4,4,0,0,1-5.19.21c-3.08-3.55,1.88-6.59,1.88-6.59-4.09-10.22-12.38-6.92-12.85-6.68,0,0,8.31-.53,10.44,6.63,0,0-2.75,0-4.34,3.54,0,0-1.59,3.89,2.66,6.28.3.17,6,2.83,8.13-2.65Z"/></g><g id="nose"><path class="cls-4" d="M226.45,168.22S235,160.58,242,166.6c0,0,5.58,5.34-.23,12.54,0,0,10-8.61.78-15.88C242.56,163.26,235.22,158,226.45,168.22Z"/><path class="cls-4" d="M229.31,175.8s-.86-3.81,5.73-1.14Z"/></g><g id="hair"><path id="hair_color" class="cls-4" d="M284.63,63.52c-2.94,1.35-5.49,2.68-7.74,3.79l-.49.24c-5,2.42-8.45,3.69-11.6,1.7-3.5-2.22-4.63-1.09-5.1.53a2.88,2.88,0,0,1-2.54,2.13,5.2,5.2,0,0,1-5.09-2.75,2.31,2.31,0,0,0-.32-.45,15.9,15.9,0,0,0-8.82-4.95,3.07,3.07,0,0,1-1-.33c-1.28-.74-1.43-3-5,0A14.48,14.48,0,0,0,233,70.54c-.32,1.77-5.86-.11-7.54-.76-4.07-1.56-3.58-4.33-8.1-7.16-.78-.49-7.06-2.27-7.91-2.63-3-1.28-8.47-1.94-15.51-2.46a2.84,2.84,0,0,0-1.38.26,17.73,17.73,0,0,1-10.66,1,3,3,0,0,0-.42,0c-1.05,0-5.76,0-8.17.89a2.84,2.84,0,0,1-1.23.15A18.13,18.13,0,0,1,163.73,57a2.82,2.82,0,0,0-4,.83c-1.11,1.79-2.58,3.68-3.89,3.68h-.74c0-.18,0-.3,0-.3s-1.31.24,0,.3c.06.75.16,2.67-.34,2.8s-8.81-2.7-12.82-2a2.83,2.83,0,0,0-2.07,1.54,11.76,11.76,0,0,0-.95,2.48,2.9,2.9,0,0,0,0,1.06c.21,1.52.46,6.67-6.06,4.71a3,3,0,0,1-.89-.47c-1-.73-3.38-2.29-2.88,1.08,0,0,6.18,11.3,2.34,17.4a2.65,2.65,0,0,0-.27.53l-4.22,11.68c-3.35,8.58-9.25,9.53-11.82,12.16-.83.85-3.8,16-5.55,21.67l0,.08c-.07.18-.14.34-.21.49l0,.07c-.36,1-.65,1.59-.84,1.43l-3.2-11.12c-.14-.12-3.18-7.54-3.2-7.72-3-24.68-2.35-42,2.26-45.21a23.48,23.48,0,0,0,7.11-4.33c.61-.58-1.64.3-2.23.91-1,1.07-3.46,2.48-7.73-.37,0,0-9.76-4.49-7.43-8a14.84,14.84,0,0,1,9.44-3.71c.16,0,10.07.62,12.24-1.09,0,0,8.82-4-1.71-2.94s-8.82-1.08-10.37-1.86-5-10.53-3.87-12.39c.83-1.42,5.12-2.85,7.08-3.43a2.66,2.66,0,0,1,1.76,0c3.2,1.2,5.82.7,8.19,3.05a3.12,3.12,0,0,0,.77.58c1.23.6,4.55,2,5.42-.56a5.18,5.18,0,0,1,4.49-3.71c1.09-.16,2-2-1.39-5.11s-4.8-2.17-6.81-1.24-4.34.62-5.73-7.74,6.19-11.62,12.85-10.53,5.73,4.18,6.66,5.42,2.83,10.77,3.07,12a2,2,0,0,1,0,.24c.1.84.83,6.09,3.39,6.23,2.79.16,12.08-.77,9.29-8.36-2-5.37-4.33-11.83-5.54-15.14a2.84,2.84,0,0,1,1.16-3.39c3.27-2,5.31-6.67,9.49-8.26,2.61-1,7.44,3.57,6.82,13.32s9.91,9.45,10.84,7.59,1.7-5.11.15-7.9-1.86-14.86,8.67-13S188.77,11,188.77,11.8s.78,9.14,5,6.2,2.63-6.82,1.24-9.45,3.56-5.88,10.84-3.87,6,6.5,6.35,9.6,7,11.61,9.75,9,1.7-8.21.78-10.22S221.91-1.67,229,.19s12.55,3.25,10.53,7.74-.31,11.61-2.94,15.33,2.63,9.91,5.11,7.43,6.66-13.16,5.42-17.8c-1-3.85,7.84-1.32,10.9-.34A2.83,2.83,0,0,1,260,15.9c-.41,1.72-1.87,4.34-5.7,8.29-9.13,9.45-.3,16.72,3.1,13.32s6-10.84,5.42-12.39,6.81-4.49,12.39.46.46,8.68-3.41,13.94-2.08,11.22,0,15.57c1.9,4,3.2,4.52,6,3,7.37-3.93-1.37-8.36,3.58-8.05S294.38,59,284.63,63.52Z"/><g id="hair_highlights"><path class="cls-5" d="M283.47,52.78s5.67,4.7,2.4,7.8c0,0-1.53,1.33-4.61.71A12.11,12.11,0,0,0,273,63.41s-5.76,5.32-9.13,2.4c0,0-3.45-1.69-4.22.88s-2.31,4.34-6.53-.44c0,0-2.6-3.63-8.94-4.87,0,0,6.34-.36,9.61,2s4.42-.26,4.42-.26,3.17-2.84,6.63-.71,7.3-2.3,7.3-2.3a12.83,12.83,0,0,1,9-1.6S286.45,58.1,283.47,52.78Z"/><path class="cls-5" d="M274.84,26.68s2.05,1.86-1.16,5.67c0,0-4.91,4.24-4,6.61,0,0,2.23,5.51-4.37,6.27,0,0-7.5-1.7-10.36.59,0,0,1.61-3.64,9-3s1.78-5.5,1.78-5.5-3.57-4.15,2.95-4.49C268.68,32.78,275.46,31.34,274.84,26.68Z"/><path class="cls-5" d="M242.49,43.12s7.13,3.69.82,5.08-3.76,1.72-4.5,4.26,5.24,4.5-4.42,4.17,2,3.44-.25,6.8-5.4,3.52-7.28,2.21-3.36-2.38-5.24-2c0,0,2.45-2,6.79.25s3.69-3,.08-4.67-.32-6.79,3.28-6.79,4.17.24,3.93-2.87S239.79,48,241.1,47,243.72,44.92,242.49,43.12Z"/><path class="cls-5" d="M255.58,17a1.19,1.19,0,0,1,.17.24c.39.7,1.06,2.84-2.56,6.12-4.46,4.05-5.12,6.72-4.27,8.57,0,0,.13,2.08-5.6.22,0,0,4.69.71,3.16-2.83s3.57-4.64,4.64-6.51,1.1-2.54,3-2.81S255.58,17,255.58,17Z"/><path class="cls-5" d="M206.63,8.77s5.28-2.1,3.08,6.38c0,0-1.87,2.42-.44,4.85s1.1,5.94-2.31,6.05c0,0,3-1.1.66-4.51s-3.2-6.06-.88-8S208,9.21,206.63,8.77Z"/><path class="cls-5" d="M188.42,12.59s.88,5.17,4.29,6.05C192.71,18.64,188,21.84,188.42,12.59Z"/><path class="cls-5" d="M179.62,29.32c-4,1.23-4.94,3.88-4.66,6,.18,1.44,1,2.61,1.82,2.81-.73-.1-3.28-.6-4.11-2.48a4.06,4.06,0,0,1,.13-3.19c2-5.13,6.28-3.43,6.6-4.87s-3-.52-4.39-2.07.63-6.45,2.24-8.14,2.05-8,0-9.55c0,0,4.22,1,2.09,9.59s1.81,7.1,1.81,7.1C182.51,24.6,186.57,27.15,179.62,29.32Z"/><path class="cls-5" d="M213.52,55.13c-.06.62,2.53-6.49-1.87-10.46s1.87-4.29,3-6.93.66-4.63-3.08-6c0,0,4.73,4-2.1,7.27s-1.76,7.59,1,9.14S213.63,53.92,213.52,55.13Z"/><path class="cls-5" d="M119.39,12.81c-1.61-.43,11-.11,8.36,5.83s1.88,7.93,3.53,8.59.88,5.17-2.53,6.06c0,0,3.85-3.31-1.33-5.18s-4.07-6.16-3.08-8S125.55,14.46,119.39,12.81Z"/><path class="cls-5" d="M120.88,71s13,16.89,4.67,24.75-3.11,7-4.84,10.24-8.12,5.46-10.54,3.07c0,0,9-.68,6.39-6.15s2.6-7.16,5.53-10.07S125.38,78.35,120.88,71Z"/><path class="cls-5" d="M136,56.62c-1.77,1.19-3.07.62-4.14-3.32-.08-.29-.16-.61-.24-.94a6.87,6.87,0,0,0-.56-1.59c-1.55-3.08-4.89-2.49-8,.45-3.53,3.37-3.43.34-8.78-3.24s-6.4,1.33-6.4,1.33c-1.6-2.61,1.84-8.84,6.15-5.31s3.55,4.89,8.42,1.1,9-2.58,9.91,4.61c0,0,0,.1,0,.15a21.08,21.08,0,0,0,.51,2.66C134,56.81,136,56.62,136,56.62Z"/><path class="cls-5" d="M180.49,54.49s8.7-1.43,7.16-7.26,1.87-5.18,1.87-5.18-4.84-2.2-4.4,3.85S185.45,52.4,180.49,54.49Z"/><path class="cls-5" d="M161.57,53.58c.32-1.65.52-4.27-3.53-5.8a9.12,9.12,0,0,1-5.32-4.49,3.54,3.54,0,0,1,0-3,.43.43,0,0,1,0-.07,2.21,2.21,0,0,1,2.73-.86c1.51.41,2.85,1.67,2.08,2.25a7.59,7.59,0,0,1-.88.52c-1.52.83-3.32,1.76,1.21,3.67C163.06,48,161.72,53.18,161.57,53.58Z"/></g></g><path id="sweater" class="cls-6" d="M311,373.31H.32C-2.28,310,12,294.48,12,294.48c12.08-17.05,45.23-23.21,45.23-23.21,61.1-11.13,72.46-14.44,72.46-14.44a.14.14,0,0,1,0,.06l-.29.22C132,299,169.24,318.5,169.24,318.5c36.34-24.31,37.12-56.52,37.13-58.67L267,275.54c35,7.57,40.36,32.91,41.44,50.43C310.37,356.76,311,373.31,311,373.31Z"/><g id="sweater_shade"><path id="sweater_vneck" class="cls-7" d="M119.73,259.24s3.57,51.15,49.37,70.58c0,0,38.5-14.08,47.05-67,0,0,2.95,44.88-47.65,70.19C168.5,333,120,313.61,119.73,259.24Z"/><path class="cls-7" d="M299.32,295.85c-.24-.82,9.42,7.8,9.69,42l2,35.47-11.92-.74S306.05,318.19,299.32,295.85Z"/><path class="cls-7" d="M56.52,373.31c-.33-1.3,1.62-24,1.62-24s1.67,24,1.65,24C59.26,373.4,56.52,373.31,56.52,373.31Z"/><path class="cls-7" d="M255,373.31c-.33-1.3,1.62-24,1.62-24s1.67,24,1.65,24C257.78,373.4,255,373.31,255,373.31Z"/></g><path id="shirt" class="cls-8" d="M206.37,259.72v.11c0,2.15-.79,34.36-37.13,58.67,0,0-37.22-19.48-39.82-61.39l.29-.22,23-17.44a6.24,6.24,0,0,0,.55,2.29h0c1.64,4,7,10.84,17.68,16a41,41,0,0,0,8.62-2.6c3.72-1.61,7.61-4.08,9.41-7.76,0,0,0,0,0-.05-.12-1.28.15-1.49.66-.95Z"/><path id="tie" class="cls-9" d="M173.88,283.78s7.8,11.24,9,24.07c0,0-6.63,7.58-13.45,10.95,0,0-7-3.12-15.24-11.07,0,0,2.56-17.29,10.56-24.25,0,0-2.67-1.18-.31-3.79a19.85,19.85,0,0,1-10.26-10.4c-.19-.49-.37-1-.53-1.53l17-9.16,13.16,9.83a3.21,3.21,0,0,1-.37,1.75c-.75,1.8-3,5-9.42,9.72C174,279.9,176.41,282.25,173.88,283.78Z"/><g id="tie_shade"><path class="cls-10" d="M153.67,267.61l17-9.15,13.16,9.83s.85,3.68-9.79,11.46c0,0,2.42,2.35-.1,3.89,0,0,7.8,11.23,9,24.07,0,0-6.63,7.58-13.45,11,0,0,9-6.45,8.83-9.45,0,0,1.17-14.93-5.26-25.58,0,0,2.56-1-.33-3.62,0,0,9.77-10.93,5.92-13.89-2.18-1.67-4.82-3.94-7.09-5.77C169.51,258.74,154.34,269.88,153.67,267.61Z"/><path class="cls-10" d="M163.76,279.47a23.13,23.13,0,0,0,10.11.31S167.87,284.35,163.76,279.47Z"/><path class="cls-10" d="M164.6,283.36s2.22,1.23,9.17.31C173.77,283.67,168.08,287.47,164.6,283.36Z"/></g><g id="shirt_shade"><path class="cls-11" d="M183.41,270.18a3.21,3.21,0,0,0,.37-1.75l-13.16-9.83-17,9.16c.16.53.34,1,.53,1.53L134,278l36.53-20L201,281Z"/><path class="cls-11" d="M129.38,257s23.12-17.59,23.28-17.67.84-.3,1.25.52a1.08,1.08,0,0,0-1.09.06c-3.57,2.56-17.49,13.23-23.41,17.53Z"/><path class="cls-11" d="M206.33,259.75S189.83,246,189.72,246s-.6-.23-.9.41a.72.72,0,0,1,.79.05c2.54,2,12.47,10.3,16.69,13.66C206.3,260.09,206.32,259.74,206.33,259.75Z"/><path class="cls-12" d="M133.88,278l2.22-1s10.44,26.88,33.33,41.56C169.43,318.55,145.64,307.81,133.88,278Z"/></g><path id="mouth" class="cls-8" d="M214.62,177.31s5.24,17.8,18.82,20.82c0,0-21,16.2-32.23.93C201.21,199.06,192.31,185.22,214.62,177.31Z"/><g id="glasses"><path id="glasses_frames" class="cls-4" d="M284.46,122.35a6.8,6.8,0,0,0-.46-.6,28,28,0,0,0-12.86-8.89,28.82,28.82,0,0,0-9.21-1.5c-12.8,0-23.62,8.29-26.85,19.55-6-3.56-12.61-1.28-15.5.06-2.81-12-14.07-21-27.49-21s-24.6,8.94-27.46,20.88l-55.31,5.66-1.09.11.22,2.13.09.86,55.55-5.68a25.76,25.76,0,0,0-.17,2.93c0,14.82,12.64,26.88,28.17,26.88s28.17-12.06,28.17-26.88a23.48,23.48,0,0,0-.16-2.79c1.83-.92,8.79-4,14.29,0a24.78,24.78,0,0,0-.3,3.88c0,14.65,12.49,26.57,27.84,26.57a27.55,27.55,0,0,0,3.77-.25,28.33,28.33,0,0,0,10.2-3.35c.2-.11.4-.22.59-.34a26.33,26.33,0,0,0,13.28-22.63A25.58,25.58,0,0,0,284.46,122.35Zm-92.37,38.37c-13.88,0-25.17-10.71-25.17-23.88S178.21,113,192.09,113s25.17,10.72,25.17,23.89S206,160.72,192.09,160.72ZM277.91,156a7.38,7.38,0,0,1-.64.5,25.79,25.79,0,0,1-15.34,5.05c-13.69,0-24.84-10.57-24.84-23.57s11.15-23.57,24.84-23.57a25.85,25.85,0,0,1,9.19,1.67h0a24.53,24.53,0,0,1,12.42,10.29c.15.25.3.5.43.75a22.4,22.4,0,0,1,2.8,10.85A23,23,0,0,1,277.91,156Z"/><g id="lenses"><path class="cls-13" d="M217.26,136.84c0,13.17-11.29,23.88-25.17,23.88S166.92,150,166.92,136.84,178.21,113,192.09,113,217.26,123.67,217.26,136.84Z"/><path class="cls-13" d="M284,127.08c-.13-.25-.28-.5-.43-.75A24.53,24.53,0,0,0,271.12,116h0a25.85,25.85,0,0,0-9.19-1.67c-13.69,0-24.84,10.57-24.84,23.57s11.15,23.57,24.84,23.57a25.79,25.79,0,0,0,15.34-5.05,7.38,7.38,0,0,0,.64-.5,23,23,0,0,0,8.86-18A22.4,22.4,0,0,0,284,127.08ZM241,133s-.52-4.9,4.66-9.88c0,0,5.5-5.1,10.62-4.29,0,0-4.38.08-9.87,4.9A17,17,0,0,0,241,133Zm13.45,2.62a1.51,1.51,0,0,1,.58-2,25.7,25.7,0,0,1,26.34,2,1.5,1.5,0,1,1-1.71,2.46c-.43-.3-.87-.58-1.3-.84a6.33,6.33,0,0,1,.08,2.09,6.42,6.42,0,0,1-2.24,4.16,5.83,5.83,0,0,1-3.75,1.38,5.48,5.48,0,0,1-.7,0,5.71,5.71,0,0,1-3.35-1.65,6.48,6.48,0,0,1,.15-9.21,22.87,22.87,0,0,0-12.06,2.29A1.51,1.51,0,0,1,254.45,135.58Zm24.42,17c-.21.2-.43.41-.67.61a22.31,22.31,0,0,1-11.28,5.44,25.31,25.31,0,0,1-12-1.1,35.39,35.39,0,0,0,12.41-.82,19.89,19.89,0,0,0,12-8l.19-.28a16.47,16.47,0,0,0,.86-1.49A25.19,25.19,0,0,0,283,134.17c0-.65-.1-1.32-.19-2a28.74,28.74,0,0,0-1.13-5,13.85,13.85,0,0,1,1.49,2.49c.13.26.26.55.39.86,1.66,3.92,3.08,10.95-2.22,19.34A18.14,18.14,0,0,1,278.87,152.62Z"/></g><g id="glasses_lowlight"><path class="cls-14" d="M212.26,126.36s7.84,9.72-.34,22.68c0,0-8.89,13.4-26.4,7.74,0,0,16.93,2.4,24.38-8.82C209.9,148,216.35,139.15,212.26,126.36Z"/><path class="cls-14" d="M281.3,149.84a18.14,18.14,0,0,1-2.43,2.78c-.21.2-.43.41-.67.61a22.31,22.31,0,0,1-11.28,5.44,25.31,25.31,0,0,1-12-1.1,35.39,35.39,0,0,0,12.41-.82,19.89,19.89,0,0,0,12-8l.19-.28a16.47,16.47,0,0,0,.86-1.49A25.19,25.19,0,0,0,283,134.17c0-.65-.1-1.32-.19-2a28.74,28.74,0,0,0-1.13-5,13.85,13.85,0,0,1,1.49,2.49c.13.26.26.55.39.86C285.18,134.42,286.6,141.45,281.3,149.84Z"/></g><g id="glasses_highlight"><path class="cls-8" d="M170.35,134.72s-1.78-8.19,6-14.69c0,0,6.83-6,16-3.85a22.36,22.36,0,0,0-14.9,4.75A20.54,20.54,0,0,0,170.35,134.72Z"/><path class="cls-8" d="M256.28,118.79s-4.38.08-9.87,4.9A17,17,0,0,0,241,133s-.52-4.9,4.66-9.88C245.66,123.08,251.16,118,256.28,118.79Z"/></g></g><g id="eyes"><path class="cls-4" d="M210.4,139.6a1.43,1.43,0,0,1-.88.29,1.48,1.48,0,0,1-1.21-.62c-.19-.26-.38-.5-.58-.74a6.81,6.81,0,1,1-11.4-5.16c-8-.65-16.08,2.3-16.21,2.35a1.5,1.5,0,1,1-1-2.81,48.06,48.06,0,0,1,12.11-2.54c8.89-.67,15.66,1.8,19.54,7.14A1.49,1.49,0,0,1,210.4,139.6Z"/><path class="cls-4" d="M281.75,137.62a1.5,1.5,0,0,1-2.09.37c-.43-.3-.87-.58-1.3-.84a6.33,6.33,0,0,1,.08,2.09,6.42,6.42,0,0,1-2.24,4.16,5.83,5.83,0,0,1-3.75,1.38,5.48,5.48,0,0,1-.7,0,5.71,5.71,0,0,1-3.35-1.65,6.48,6.48,0,0,1,.15-9.21,22.87,22.87,0,0,0-12.06,2.29,1.5,1.5,0,0,1-1.46-2.63,25.7,25.7,0,0,1,26.34,2A1.51,1.51,0,0,1,281.75,137.62Z"/></g><g id="eyebrows"><path class="cls-4" d="M214.91,102.47l-.46.53-.66-.26c-25.5-10-54.79,1.6-55.08,1.72l-.83-1.82c28.75-14.81,56.06-5.46,56.34-5.37l.16.06.13.11a3.29,3.29,0,0,1,1.33,2.31A3.94,3.94,0,0,1,214.91,102.47Z"/><path class="cls-4" d="M285.79,110.55l-.75-.66-.53-.47-1.12-1c-3.16-2.79-7.7-4.24-12.51-4.9a70.08,70.08,0,0,0-23.45,1.4,1.11,1.11,0,0,1-1.26-.47,3.42,3.42,0,0,1-.53-2.71,2.57,2.57,0,0,1,1.55-1.62l.21-.06c.76-.14,12.55-2.3,23.17-.54,5.53.91,10.73,2.88,13.89,6.75h0c.1.11.19.23.28.35l.13.16.15.6h0Z"/></g></g></g></svg>