<svg xmlns="http://www.w3.org/2000/svg" viewBox="0 0 310.96 364.63"><defs><style>.cls-1{isolation:isolate;}.cls-2{fill:none;}.cls-3{fill:#654218;}.cls-4{fill:#2a1c0f;mix-blend-mode:multiply;opacity:0.29;}.cls-5{fill:#010101;}.cls-6{fill:#053a59;opacity:0.61;}.cls-7{fill:#86ac62;}.cls-8{fill:#658345;}.cls-9{fill:#fff;}.cls-10{fill:#fba931;}.cls-11{fill:#ce8429;}.cls-12,.cls-13{fill:#8c8c8c;}.cls-13{opacity:0.65;}.cls-14{fill:#353635;}.cls-15{fill:#1f1c1c;}</style></defs><g class="cls-1"><g id="Layer_1" data-name="Layer 1"><rect class="cls-2" width="310.96" height="364.63"/><g id="skin"><path class="cls-3" d="M188.28,241.67c-3.79,7.89-17.55,10.13-17.55,10.13-10.4-5.06-15.61-11.72-17.2-15.61h0c2.69-7,6.56-17.55,8.34-26.82a102.9,102.9,0,0,0,30,17.37C189.73,230.76,187.55,236.34,188.28,241.67Z"/><path class="cls-3" d="M191.34,110.92c-13.5,0-24.49,10.42-24.49,23.23s11,23.23,24.49,23.23,24.48-10.42,24.48-23.23S204.84,110.92,191.34,110.92Zm81.51,46.63a27.24,27.24,0,0,1-9.92,3.26,26,26,0,0,1-3.66.25c-14.93,0-27.08-11.6-27.08-25.85a24.59,24.59,0,0,1,.29-3.77c-5.35-3.88-12.12-.9-13.9,0a22.15,22.15,0,0,1,.16,2.71c0,14.42-12.3,26.15-27.4,26.15s-27.4-11.73-27.4-26.15a26.92,26.92,0,0,1,.16-2.85l-54,5.53L110,136a6.35,6.35,0,0,0-3.66,2.07s-6.77,10.17,7.45,25.56c0,0,8,13.35,14,5.2,11.07,18.38,22.85,31.37,34.09,40.54a102.9,102.9,0,0,0,30,17.37c13.56,4.89,23.16,4.63,24.59,4.56h.18a23.65,23.65,0,0,0,4.58-.74c24.38-6.32,42.81-49.31,42.81-49.31a219.81,219.81,0,0,0,9.36-24A6.65,6.65,0,0,1,272.85,157.55Zm8.38-50.07-1.09-1c-3.07-2.71-7.49-4.12-12.17-4.77a68,68,0,0,0-22.81,1.37,1.09,1.09,0,0,1-1.22-.46,3.31,3.31,0,0,1-.52-2.64,2.52,2.52,0,0,1,1.51-1.57l.2-.06c.74-.14,12.21-2.24,22.54-.53,5.38.89,10.44,2.8,13.51,6.57h0a2.88,2.88,0,0,1,.27.34l.13.15.15.59c-.36-21.47-5.94-34.87-7.91-39l-.48.24c-4.82,2.35-8.22,3.59-11.28,1.65-3.41-2.16-4.51-1.06-5,.52A2.81,2.81,0,0,1,254.63,71a5,5,0,0,1-4.95-2.68,2.18,2.18,0,0,0-.32-.43,15.41,15.41,0,0,0-8.57-4.82,2.94,2.94,0,0,1-1-.32c-1.24-.72-1.39-2.94-4.9,0a14.1,14.1,0,0,0-3.84,7c-.31,1.72-5.7-.11-7.34-.74-3.95-1.52-3.48-4.22-7.87-7-.76-.47-6.87-2.21-7.7-2.56-2.89-1.24-8.24-1.88-15.08-2.39a2.83,2.83,0,0,0-1.35.25,17.16,17.16,0,0,1-10.36,1,3,3,0,0,0-.41,0c-1,0-5.6,0-7.95.86a2.71,2.71,0,0,1-1.2.15,17.73,17.73,0,0,1-8.08-2.68,2.74,2.74,0,0,0-3.94.8c-1.08,1.74-2.51,3.58-3.78,3.58h-.72c.06.73.15,2.6-.33,2.73s-8.57-2.63-12.47-2a2.73,2.73,0,0,0-2,1.5,11.31,11.31,0,0,0-.93,2.41,2.74,2.74,0,0,0,0,1c.21,1.48.45,6.49-5.89,4.58a3,3,0,0,1-.87-.45c-.93-.71-3.28-2.23-2.8,1,0,0,6,11,2.28,16.92a2.11,2.11,0,0,0-.26.52l-4.11,11.36c-3.26,8.34-9,9.27-11.5,11.83-.8.82-3.69,15.57-5.39,21.07l0,.08c0,.11-.09.2-.13.3l53.8-5.5c2.78-11.62,13.7-20.31,26.71-20.31s24,8.76,26.73,20.44c2.82-1.3,9.28-3.52,15.08-.06,3.14-10.95,13.67-19,26.12-19a27.8,27.8,0,0,1,9,1.46,27.18,27.18,0,0,1,12.51,8.65,5.26,5.26,0,0,1,.45.58c.39-4.28.55-8.32.56-12.12Zm-89.89,3.44c-13.5,0-24.49,10.42-24.49,23.23s11,23.23,24.49,23.23,24.48-10.42,24.48-23.23S204.84,110.92,191.34,110.92Z"/></g><g id="skin_shade"><path class="cls-4" d="M188.26,241.72c-1.75,3.58-5.53,6-9.15,7.55C177.86,243,173,222.4,162,209.38c0,0,10.14,8,29.73,17.41C191.73,226.79,187.64,234.39,188.26,241.72Z"/><path class="cls-4" d="M272.85,157.55a221.93,221.93,0,0,1-9.3,23.82s-18.17,42.39-42.29,49.17a24,24,0,0,1-5.09.88l.33-.13c3.48-1.39,33.45-14.9,46.43-70.48A27.24,27.24,0,0,0,272.85,157.55Z"/><path class="cls-4" d="M281.18,104.43c-3.07-3.77-8.13-5.68-13.51-6.57a75.11,75.11,0,0,0-2.53-14.48c-.28-.95-3.35-9.61-8.2-10.53-1.89-.36-4.1.76-5.26-1-6.79-10.65-13.57-10-18.26.67-1.13,2.58-10.61-1.17-12.44-3.14-2.24-2.4-2.26-5.53-6.68-6.17-4-.58-5.2-3.39-10.11-3.71-4.21-.27-6.69-2.53-11.23-1.6-3.54.73-5.87,2-10.52,1.28s-6.44,2.28-11.09,1.21a21.76,21.76,0,0,1-7.24-2.7c-2.17-1.33-3.1,4.56-5.42,3.86-2.76-.8-.83,3.68-3.32,2.85-2.12-.7-5-1.2-8.27-2.16a17.87,17.87,0,0,0-5.06,0c-.7.11-1.09,2.14-.48,3,.39.58,1.12,9.47-8.36,6-.23-.09-1.78-1.17-1.28.78.07.33,6.92,8.59,2,16.49-1.49,2.37-4.18,16.31-10,19.84-.33.2-5.74,3.29-5.9,3.85-1.66,5.65-5.45,17.26-7,21.2,1.7-5.5,4.59-20.25,5.39-21.07,2.5-2.56,8.24-3.49,11.5-11.83L132,89.17a2.11,2.11,0,0,1,.26-.52C136,82.72,130,71.73,130,71.73c-.48-3.28,1.87-1.76,2.8-1a3,3,0,0,0,.87.45c6.34,1.91,6.1-3.1,5.89-4.58a2.74,2.74,0,0,1,0-1,11.31,11.31,0,0,1,.93-2.41,2.73,2.73,0,0,1,2-1.5c3.9-.64,12,2.11,12.47,2s.39-2,.33-2.73H156c1.27,0,2.7-1.84,3.78-3.58a2.74,2.74,0,0,1,3.94-.8,17.73,17.73,0,0,0,8.08,2.68A2.71,2.71,0,0,0,173,59c2.35-.88,6.93-.87,7.95-.86a3,3,0,0,1,.41,0,17.16,17.16,0,0,0,10.36-1A2.83,2.83,0,0,1,193.1,57c6.84.51,12.19,1.15,15.08,2.39.83.35,6.94,2.09,7.7,2.56,4.39,2.75,3.92,5.45,7.87,7,1.64.63,7,2.46,7.34.74a14.1,14.1,0,0,1,3.84-7c3.51-2.89,3.66-.67,4.9,0a2.94,2.94,0,0,0,1,.32,15.41,15.41,0,0,1,8.57,4.82,2.18,2.18,0,0,1,.32.43A5,5,0,0,0,254.63,71a2.81,2.81,0,0,0,2.47-2.07c.45-1.58,1.55-2.68,5-.52,3.06,1.94,6.46.7,11.28-1.65C275.33,70.9,280.64,83.84,281.18,104.43Z"/><path class="cls-4" d="M281.23,107.48c0,3.77-.14,7.76-.5,12a27.18,27.18,0,0,0-12.51-8.65c0-3-.08-6.08-.25-9.08,4.68.65,9.1,2.06,12.17,4.77Z"/><path class="cls-4" d="M124.54,157.91a3.87,3.87,0,0,1-5.05.2c-3-3.45,1.83-6.41,1.83-6.41-4-9.93-12-6.72-12.5-6.49,0,0,8.09-.52,10.15,6.45,0,0-2.67,0-4.21,3.44,0,0-1.55,3.78,2.58,6.11.3.17,5.85,2.75,7.91-2.58Z"/></g><g id="nose"><path class="cls-5" d="M224.76,164.68s8.32-7.43,15.14-1.58c0,0,5.42,5.19-.23,12.2,0,0,9.75-8.38.76-15.44C240.43,159.86,233.29,154.73,224.76,164.68Z"/><path class="cls-5" d="M227.54,172.06s-.84-3.71,5.57-1.12Z"/></g><g id="hair"><path id="hair_color" class="cls-5" d="M281.35,62.84c-2.86,1.31-5.34,2.6-7.53,3.68l-.48.24c-4.82,2.35-8.22,3.59-11.28,1.65-3.41-2.16-4.51-1.06-5,.52A2.81,2.81,0,0,1,254.63,71a5,5,0,0,1-4.95-2.68,2.18,2.18,0,0,0-.32-.43,15.41,15.41,0,0,0-8.57-4.82,2.94,2.94,0,0,1-1-.32c-1.24-.72-1.39-2.94-4.9,0a14.1,14.1,0,0,0-3.84,7c-.31,1.72-5.7-.11-7.34-.74-3.95-1.52-3.48-4.22-7.87-7-.76-.47-6.87-2.21-7.7-2.56-2.89-1.24-8.24-1.88-15.08-2.39a2.83,2.83,0,0,0-1.35.25,17.16,17.16,0,0,1-10.36,1,3,3,0,0,0-.41,0c-1,0-5.6,0-7.95.86a2.71,2.71,0,0,1-1.2.15,17.73,17.73,0,0,1-8.08-2.68,2.74,2.74,0,0,0-3.94.8c-1.08,1.74-2.51,3.58-3.78,3.58h-.72c0-.17,0-.29,0-.29s-1.27.23,0,.29c.06.73.15,2.6-.33,2.73s-8.57-2.63-12.47-2a2.73,2.73,0,0,0-2,1.5,11.31,11.31,0,0,0-.93,2.41,2.74,2.74,0,0,0,0,1c.21,1.48.45,6.49-5.89,4.58a3,3,0,0,1-.87-.45c-.93-.71-3.28-2.23-2.8,1,0,0,6,11,2.28,16.92a2.11,2.11,0,0,0-.26.52l-4.11,11.36c-3.26,8.34-9,9.27-11.5,11.83-.8.82-3.69,15.57-5.39,21.07l0,.08c-.07.18-.14.33-.21.48l0,.07c-.35,1-.63,1.54-.82,1.39l-3.11-10.82c-.13-.12-3.09-7.33-3.11-7.51-2.93-24-2.29-40.9,2.2-44a22.9,22.9,0,0,0,6.91-4.21c.6-.57-1.59.29-2.17.88-1,1-3.36,2.41-7.51-.36,0,0-9.5-4.37-7.23-7.83A14.41,14.41,0,0,1,105.12,58c.16,0,9.79.61,11.91-1.06,0,0,8.57-3.91-1.67-2.86s-8.58-1.05-10.08-1.81-4.83-10.24-3.77-12c.81-1.38,5-2.77,6.89-3.33a2.51,2.51,0,0,1,1.71.05c3.11,1.16,5.66.68,8,3a2.81,2.81,0,0,0,.75.57c1.19.58,4.42,1.89,5.27-.55a5.05,5.05,0,0,1,4.36-3.61c1.06-.15,2-1.95-1.35-5s-4.67-2.11-6.62-1.2-4.22.6-5.58-7.53,6-11.3,12.5-10.24,5.58,4.06,6.48,5.27,2.75,10.47,3,11.62a2.23,2.23,0,0,1,0,.23c.09.82.8,5.93,3.29,6.06,2.72.16,11.75-.74,9-8.13-1.92-5.22-4.21-11.5-5.39-14.72A2.76,2.76,0,0,1,145,9.42c3.18-2,5.16-6.49,9.23-8,2.54-1,7.24,3.47,6.63,13s9.64,9.19,10.55,7.38,1.65-5,.14-7.68S169.73-.41,180,1.39s8.13,10.39,8.13,11.14.76,8.89,4.82,6,2.56-6.63,1.21-9.19,3.46-5.72,10.54-3.76,5.88,6.32,6.18,9.33,6.77,11.3,9.48,8.74,1.65-8,.76-9.94-.76-14.31,6.17-12.5,12.2,3.16,10.24,7.53-.3,11.29-2.86,14.91,2.56,9.64,5,7.23,6.48-12.8,5.27-17.32c-1-3.74,7.63-1.28,10.6-.33a2.76,2.76,0,0,1,1.87,3.26c-.4,1.67-1.82,4.22-5.54,8.06-8.88,9.19-.3,16.27,3,13s5.88-10.54,5.27-12,6.63-4.37,12,.45.45,8.44-3.31,13.55-2,10.92,0,15.15c1.85,3.87,3.11,4.39,5.86,2.93,7.17-3.83-1.33-8.14,3.48-7.83S290.83,58.47,281.35,62.84Z"/><g id="hair_highlights"><path class="cls-6" d="M280.22,52.4S285.74,57,282.56,60c0,0-1.5,1.29-4.49.69a11.74,11.74,0,0,0-8,2.07s-5.61,5.17-8.88,2.33c0,0-3.36-1.64-4.11.86s-2.24,4.22-6.35-.43c0,0-2.53-3.54-8.69-4.74,0,0,6.16-.35,9.34,2s4.3-.26,4.3-.26,3.08-2.76,6.45-.69,7.1-2.24,7.1-2.24A12.48,12.48,0,0,1,278,58S283.12,57.57,280.22,52.4Z"/><path class="cls-6" d="M271.82,27s2,1.81-1.13,5.52c0,0-4.77,4.12-3.9,6.42,0,0,2.17,5.36-4.26,6.1,0,0-7.29-1.65-10.07.58,0,0,1.57-3.54,8.77-3S263,37.31,263,37.31s-3.47-4,2.86-4.37C265.83,32.94,272.43,31.54,271.82,27Z"/><path class="cls-6" d="M240.36,43s6.93,3.59.8,4.94-3.66,1.67-4.38,4.14,5.1,4.38-4.3,4.06,1.91,3.35-.24,6.61-5.25,3.43-7.09,2.15-3.26-2.31-5.09-2c0,0,2.39-1.91,6.61.24s3.58-2.87.08-4.54S226.43,52,229.93,52s4.06.24,3.83-2.78,4-1.44,5.25-2.47S241.56,44.76,240.36,43Z"/><path class="cls-6" d="M253.1,17.59a1.55,1.55,0,0,1,.16.24c.37.68,1,2.76-2.49,6-4.34,3.94-5,6.54-4.15,8.33,0,0,.12,2-5.45.22,0,0,4.56.69,3.08-2.76s3.47-4.5,4.51-6.32,1.06-2.48,2.91-2.74S253.1,17.59,253.1,17.59Z"/><path class="cls-6" d="M205.48,9.59s5.14-2,3,6.21c0,0-1.82,2.35-.43,4.71s1.07,5.78-2.25,5.89c0,0,2.89-1.07.64-4.39s-3.1-5.89-.86-7.82S206.76,10,205.48,9.59Z"/><path class="cls-6" d="M187.77,13.3s.85,5,4.17,5.89C191.94,19.19,187.34,22.3,187.77,13.3Z"/><path class="cls-6" d="M179.21,29.57c-3.85,1.2-4.81,3.78-4.54,5.79.18,1.4,1,2.54,1.78,2.73-.71-.09-3.2-.58-4-2.41a4,4,0,0,1,.12-3.1c1.94-5,6.11-3.34,6.42-4.74s-2.9-.5-4.27-2,.62-6.28,2.18-7.92,2-7.79,0-9.29c0,0,4.11,1,2,9.33s1.76,6.91,1.76,6.91C182,25,186,27.46,179.21,29.57Z"/><path class="cls-6" d="M212.18,54.68c-.05.61,2.46-6.31-1.82-10.17s1.82-4.18,2.89-6.75.64-4.49-3-5.78c0,0,4.61,3.86-2,7.07s-1.71,7.39,1,8.89S212.29,53.51,212.18,54.68Z"/><path class="cls-6" d="M120.63,13.52c-1.57-.42,10.7-.11,8.13,5.67s1.82,7.71,3.43,8.35.86,5-2.46,5.89c0,0,3.75-3.21-1.29-5s-4-6-3-7.82S126.62,15.12,120.63,13.52Z"/><path class="cls-6" d="M122.08,70.12s12.61,16.44,4.54,24.08-3,6.8-4.71,10-7.9,5.31-10.25,3c0,0,8.74-.66,6.22-6s2.52-7,5.38-9.8S126.45,77.26,122.08,70.12Z"/><path class="cls-6" d="M136.75,56.13c-1.72,1.15-3,.6-4-3.23l-.23-.92a6.91,6.91,0,0,0-.54-1.54c-1.51-3-4.76-2.43-7.75.43-3.43,3.28-3.33.33-8.54-3.15s-6.22,1.3-6.22,1.3c-1.56-2.54,1.79-8.6,6-5.17s3.45,4.76,8.19,1.07,8.75-2.51,9.64,4.49c0,0,0,.09,0,.14a20.26,20.26,0,0,0,.5,2.59C134.87,56.31,136.75,56.13,136.75,56.13Z"/><path class="cls-6" d="M180.06,54.06s8.46-1.39,7-7.07,1.82-5,1.82-5-4.71-2.14-4.28,3.75S184.88,52,180.06,54.06Z"/><path class="cls-6" d="M161.65,53.17c.31-1.61.51-4.15-3.43-5.64A8.87,8.87,0,0,1,153,43.16a3.46,3.46,0,0,1,0-2.92.43.43,0,0,1,0-.07,2.16,2.16,0,0,1,2.66-.83c1.47.4,2.77,1.62,2,2.19a7.28,7.28,0,0,1-.86.5c-1.47.81-3.23,1.71,1.18,3.57C163.1,47.7,161.8,52.78,161.65,53.17Z"/></g></g><path id="sweater" class="cls-7" d="M307,364.16H4.81c-2.53-61.54,11.36-76.68,11.36-76.68,11.75-16.58,44-22.57,44-22.57,59.43-10.83,70.48-14.05,70.48-14.05a.14.14,0,0,1,0,.06l-.28.21c2.53,40.77,38.73,59.71,38.73,59.71,35.35-23.64,36.11-55,36.12-57.06l59,15.28c34.08,7.36,39.25,32,40.3,49.05C306.38,348.06,307,364.16,307,364.16Z"/><g id="sweater_shade"><path id="sweater_vneck" class="cls-8" d="M121,253.21s3.47,49.75,48,68.65c0,0,37.44-13.69,45.76-65.18,0,0,2.87,43.66-46.35,68.27C168.39,325,121.26,306.1,121,253.21Z"/><path class="cls-8" d="M295.64,288.82c-.24-.8,9.16,7.59,9.43,40.84l1.9,34.5-11.59-.72S302.19,310.55,295.64,288.82Z"/><path class="cls-8" d="M59.47,364.16c-.31-1.26,1.58-23.36,1.58-23.36s1.62,23.37,1.6,23.37C62.14,364.25,59.47,364.16,59.47,364.16Z"/><path class="cls-8" d="M252.57,364.16c-.32-1.26,1.58-23.36,1.58-23.36s1.62,23.37,1.6,23.37C255.24,364.25,252.57,364.16,252.57,364.16Z"/></g><path id="shirt" class="cls-9" d="M205.23,253.67v.11c0,2.09-.77,33.42-36.12,57.06,0,0-36.2-18.94-38.73-59.71l.28-.21L153,234a6.05,6.05,0,0,0,.54,2.22h0c1.59,3.89,6.8,10.55,17.2,15.61a40.45,40.45,0,0,0,8.38-2.53c3.62-1.57,7.4-4,9.15-7.55,0,0,0,0,0-.05-.11-1.25.15-1.45.64-.92Z"/><path id="tie" class="cls-10" d="M173.62,277.07s7.59,10.94,8.73,23.42c0,0-6.45,7.37-13.08,10.65,0,0-6.78-3-14.83-10.77,0,0,2.49-16.82,10.27-23.59,0,0-2.59-1.15-.3-3.68a19.35,19.35,0,0,1-10-10.12c-.18-.48-.36-1-.51-1.49l16.53-8.91,12.8,9.56a3.11,3.11,0,0,1-.36,1.71c-.73,1.75-2.9,4.87-9.16,9.45C173.73,273.3,176.09,275.59,173.62,277.07Z"/><g id="tie_shade"><path class="cls-11" d="M154,261.35l16.53-8.9L183.3,262s.82,3.58-9.52,11.15c0,0,2.35,2.29-.11,3.78,0,0,7.59,10.93,8.72,23.41,0,0-6.44,7.37-13.08,10.65,0,0,8.77-6.27,8.59-9.19,0,0,1.14-14.52-5.12-24.88,0,0,2.49-1-.31-3.51,0,0,9.49-10.64,5.75-13.52-2.12-1.62-4.69-3.83-6.9-5.61C169.38,252.73,154.62,263.56,154,261.35Z"/><path class="cls-11" d="M163.79,272.89a22.52,22.52,0,0,0,9.83.3S167.78,277.63,163.79,272.89Z"/><path class="cls-11" d="M164.61,276.67s2.15,1.19,8.91.3C173.52,277,168,280.67,164.61,276.67Z"/></g><g id="shirt_shade"><path class="cls-12" d="M182.89,263.85a3.11,3.11,0,0,0,.36-1.71l-12.8-9.56-16.53,8.91c.15.52.33,1,.51,1.49l-19.61,8.51,35.53-19.41L200,274.35Z"/><path class="cls-12" d="M130.34,251s22.49-17.11,22.65-17.18.81-.3,1.22.5a1,1,0,0,0-1.07.06c-3.47,2.48-17,12.87-22.76,17C130.38,251.45,130.35,251,130.34,251Z"/><path class="cls-12" d="M205.19,253.7S189.14,240.36,189,240.31s-.58-.24-.87.39a.69.69,0,0,1,.76.05c2.48,1.93,12.14,10,16.24,13.28C205.16,254,205.18,253.69,205.19,253.7Z"/><path class="cls-13" d="M134.72,271.47l2.16-1S147,296.62,169.3,310.9C169.3,310.9,146.16,300.45,134.72,271.47Z"/></g><path id="mouth" class="cls-9" d="M213.26,173.52s5.09,17.31,18.3,20.25c0,0-20.43,15.76-31.35.91C200.21,194.68,191.56,181.22,213.26,173.52Z"/><g id="glasses"><path id="glasses_frames" class="cls-5" d="M281.18,120.06a5.26,5.26,0,0,0-.45-.58,27.18,27.18,0,0,0-12.51-8.65,27.8,27.8,0,0,0-9-1.46c-12.45,0-23,8.06-26.12,19-5.8-3.46-12.26-1.24-15.08.06C215.34,116.76,204.39,108,191.34,108s-23.93,8.69-26.71,20.31l-53.8,5.5-1.06.11L110,136l.09.84,54-5.53a26.92,26.92,0,0,0-.16,2.85c0,14.42,12.29,26.15,27.4,26.15s27.4-11.73,27.4-26.15a22.15,22.15,0,0,0-.16-2.71c1.78-.9,8.55-3.88,13.9,0a24.59,24.59,0,0,0-.29,3.77c0,14.25,12.15,25.85,27.08,25.85a26,26,0,0,0,3.66-.25,27.24,27.24,0,0,0,9.92-3.26,6.65,6.65,0,0,0,.58-.33,25.62,25.62,0,0,0,12.92-22A24.87,24.87,0,0,0,281.18,120.06Zm-89.84,37.32c-13.5,0-24.49-10.42-24.49-23.23s11-23.23,24.49-23.23,24.48,10.42,24.48,23.23S204.84,157.38,191.34,157.38Zm83.47-4.64a7,7,0,0,1-.62.49,24.68,24.68,0,0,1-10.57,4.53,25,25,0,0,1-4.35.38c-13.32,0-24.16-10.28-24.16-22.93s10.84-22.92,24.16-22.92a25.19,25.19,0,0,1,8.94,1.62h0a24,24,0,0,1,12.08,10c.14.24.29.49.41.73a21.8,21.8,0,0,1,2.73,10.55A22.4,22.4,0,0,1,274.81,152.74Z"/><g id="lenses"><path class="cls-14" d="M215.82,134.15c0,12.81-11,23.23-24.48,23.23S166.85,147,166.85,134.15s11-23.23,24.49-23.23S215.82,121.34,215.82,134.15Z"/><path class="cls-14" d="M280.7,124.66c-.12-.24-.27-.49-.41-.73a24,24,0,0,0-12.08-10h0a25.19,25.19,0,0,0-8.94-1.62c-13.32,0-24.16,10.28-24.16,22.92s10.84,22.93,24.16,22.93a25,25,0,0,0,4.35-.38,24.68,24.68,0,0,0,10.57-4.53,7,7,0,0,0,.62-.49,22.4,22.4,0,0,0,8.62-17.53A21.8,21.8,0,0,0,280.7,124.66Zm-41.79,5.72s-.51-4.77,4.53-9.61c0,0,5.35-5,10.33-4.17,0,0-4.26.07-9.6,4.76A16.51,16.51,0,0,0,238.91,130.38ZM252,132.93a1.47,1.47,0,0,1,.57-2,25,25,0,0,1,25.61,1.94,1.45,1.45,0,0,1-.83,2.65,1.43,1.43,0,0,1-.83-.26c-.42-.29-.84-.56-1.26-.82a6.61,6.61,0,0,1,.08,2,6.3,6.3,0,0,1-2.18,4,5.66,5.66,0,0,1-3.65,1.35,5.17,5.17,0,0,1-.68,0,5.54,5.54,0,0,1-3.26-1.61,6.3,6.3,0,0,1,.15-9A22.32,22.32,0,0,0,254,133.5,1.47,1.47,0,0,1,252,132.93Zm23.75,16.57a7.49,7.49,0,0,1-.65.59,21.63,21.63,0,0,1-11,5.3,24.65,24.65,0,0,1-11.69-1.07,34.58,34.58,0,0,0,12.07-.8,19.37,19.37,0,0,0,11.64-7.78l.19-.28c.18-.28.48-.76.83-1.44a24.51,24.51,0,0,0,2.56-12.46c0-.64-.1-1.29-.18-2a28.79,28.79,0,0,0-1.1-4.87,13.27,13.27,0,0,1,1.45,2.42c.12.25.25.53.38.84,1.61,3.81,3,10.65-2.16,18.81A17.9,17.9,0,0,1,275.74,149.5Z"/></g><g id="glasses_lowlight"><path class="cls-15" d="M211,124s7.64,9.46-.33,22.07c0,0-8.64,13-25.67,7.52,0,0,16.47,2.33,23.71-8.58C208.66,145,214.94,136.4,211,124Z"/><path class="cls-15" d="M278.11,146.8a17.9,17.9,0,0,1-2.37,2.7,7.49,7.49,0,0,1-.65.59,21.63,21.63,0,0,1-11,5.3,24.65,24.65,0,0,1-11.69-1.07,34.58,34.58,0,0,0,12.07-.8,19.37,19.37,0,0,0,11.64-7.78l.19-.28c.18-.28.48-.76.83-1.44a24.51,24.51,0,0,0,2.56-12.46c0-.64-.1-1.29-.18-2a28.79,28.79,0,0,0-1.1-4.87,13.27,13.27,0,0,1,1.45,2.42c.12.25.25.53.38.84C281.88,131.8,283.26,138.64,278.11,146.8Z"/></g><g id="glasses_highlight"><path class="cls-9" d="M170.19,132.09s-1.73-8,5.84-14.29c0,0,6.64-5.83,15.58-3.74a21.73,21.73,0,0,0-14.49,4.62A20,20,0,0,0,170.19,132.09Z"/><path class="cls-9" d="M253.77,116.6s-4.26.07-9.6,4.76a16.51,16.51,0,0,0-5.26,9s-.51-4.77,4.53-9.61C243.44,120.77,248.79,115.81,253.77,116.6Z"/></g></g><g id="eyes"><path class="cls-5" d="M209.15,136.84a1.46,1.46,0,0,1-2-.32c-.18-.26-.37-.49-.56-.72a6.62,6.62,0,1,1-11.09-5c-7.73-.63-15.64,2.23-15.77,2.28a1.46,1.46,0,0,1-1-2.73,46.91,46.91,0,0,1,11.78-2.47c8.65-.65,15.23,1.75,19,6.94A1.46,1.46,0,0,1,209.15,136.84Z"/><path class="cls-5" d="M278.54,134.91a1.44,1.44,0,0,1-1.2.62,1.43,1.43,0,0,1-.83-.26c-.42-.29-.84-.56-1.26-.82a6.61,6.61,0,0,1,.08,2,6.3,6.3,0,0,1-2.18,4,5.66,5.66,0,0,1-3.65,1.35,5.17,5.17,0,0,1-.68,0,5.54,5.54,0,0,1-3.26-1.61,6.3,6.3,0,0,1,.15-9A22.32,22.32,0,0,0,254,133.5a1.46,1.46,0,1,1-1.42-2.56,25,25,0,0,1,25.61,1.94A1.45,1.45,0,0,1,278.54,134.91Z"/></g><g id="eyebrows"><path class="cls-5" d="M213.53,100.72l-.45.52-.64-.25c-24.8-9.69-53.29,1.55-53.57,1.67l-.81-1.77a75.33,75.33,0,0,1,54.8-5.23l.16.06.12.11a3.19,3.19,0,0,1,1.3,2.25A3.81,3.81,0,0,1,213.53,100.72Z"/><path class="cls-5" d="M282.47,108.58l-.73-.64-.51-.46-1.09-1c-3.07-2.71-7.49-4.12-12.17-4.77a68,68,0,0,0-22.81,1.37,1.09,1.09,0,0,1-1.22-.46,3.31,3.31,0,0,1-.52-2.64,2.52,2.52,0,0,1,1.51-1.57l.2-.06c.74-.14,12.21-2.24,22.54-.53,5.38.89,10.44,2.8,13.51,6.57h0a2.88,2.88,0,0,1,.27.34l.13.15.15.59h0Z"/></g></g></g></svg>