<svg data-name="trAvatar" xmlns="http://www.w3.org/2000/svg" id="avatar" viewBox="0 0 142.77 167.45"><defs><style>.cls-2{fill:none}.cls-3{fill:#231f20}.cls-5{fill:#c4c4c4}.cls-7{fill:#020202}.cls-9{fill:#fff}.cls-2{stroke:#020202;stroke-linecap:round;stroke-miterlimit:10}.cls-10{fill:#b41f59}.cls-11{fill:#fff6e8}.cls-12{fill:#d19479}</style></defs><path d="M0 0h142.77v167.41H0z" style="fill:none"/><path d="m130.03 167.39-124.55.06c1.64-54.3 15.34-43.9 46.07-51.97 10.83.43 33.92 2.25 39.5 2.12 18.18 2.4 30.42 10.27 30.34 10.25 8.62 4.64 8.63 39.55 8.63 39.55Z" style="fill:#ee327a"/><g id="shirt_shade"><path d="M123.83 167.37s7.45-30.91-3.54-40.19c.08.02.16.05.24.08 11.88 4.18 9.36 27.03 9.49 40.13zM30.23 167.39s1.49-5.09.31-14.31l2.75 14.32h-3.06ZM109.92 167.35s1.38-4.16.68-11.79l1.84 11.83z" class="cls-10"/></g><path id="skin" d="M84.67 101.97c-4.93 10.9.51 16.93.28 16.45.68-.25 5.87 3.68 6.24 3.06a86 86 0 0 1 2.3 10.39c2.22 14.48.41 28.22-17.97 27.03-25.85-.88-22.83-29.23-23.95-43.43.67-.17 5.78-1.5 8.48-2.77 0 0 3.76-3.32 4.84-14.36-.16-.06-5.05-2.57-7.07-6.15v-.03c-3.02-4.63-3.4-16.44-3.4-16.44-2.43.53-4.94-2.84-5.21-3.24v-.03c-5.02-6.54-4.65-11.07-1.89-12.07-.03-35.7 29.43-30.5 29.43-30.5 12.49-4.01 33.6-6.16 40.74 14.36 1.1 3.16 2.39 6.33 3.11 9.59-.07-.05-.13-.09-.2-.13 1.92 6.19 2.38 14.51 2.89 19.66 2.39 24.36-17.65 28.12-38.61 28.61Z" style="fill:#e2ab90"/><g id="skin_shade"><path d="M55.47 70.5c-.47 1.68-2.52 2.02-3.91 1.28-3.26-2.1-.15-4.88.81-4.72-1.02-3.45-5.02-3.19-5.02-3.19.23-.11 4.21-1.7 6.18 3.21-2.27 1.04-1.58 4.97 1.57 3.07l.37.34ZM123.77 82.12c-.09 2.36-1.99 14.58-17.33 18.28-3.39.82-9.92 2.54-21.77 1.93-.97 2.41-3.74 10.51.12 13.14.01.82.47 1.61 1.08 2.13-.21.28-.36.59-.46.92-2.71-.72-14.27-6.29-20.97-20.36.7.1 5.44 2.08 14.74 1.85 21.43-.52 54.75-3.73 34.06-58.58-.65-1.74 3.45.21 2.44-1.34 5.25 8.03 9.14 27.74 8.08 42.02Z" class="cls-12"/><path id="cleavage" d="M76.15 158.91h-.66c.36-1.84-.59-5.48-.64-5.67 1.55 2.75 1.16 5.26 1.29 5.67Z" class="cls-12"/></g><g id="nose"><path d="M102.72 80.96c2.53-3.13.1-5.46.1-5.46-2.98-2.57-6.62.56-6.78.7 3.82-4.45 7.02-2.15 7.02-2.15 3.94 3.09-.16 6.76-.34 6.91M99.78 79.01l-2.5.5s-.37-1.67 2.5-.5" class="cls-3"/></g><path id="mouth" d="M96.94 88.08s-9.15 7.06-14.04.41c0 0-3.88-6.03 5.84-9.47 0 .05 2.05 7.89 8.2 9.06" class="cls-9"/><path d="M132.19 60.81s.84 7.4-8.63 8.26c-1.38-12.23-4.62-21.81-6.08-24.82-3.99 1.84-7.12 1.84-12.11-2.36-.72 5.92-19.46 3.06-29.07-7.84 2.02 4.86-7.17 9.66-17.77 7.1 0 0 5.39 6.49-1.25 8.11 0 0 4.52 8.02 1.38 11.19-.51.17-6.65-.08-6.78.66-8.11-3.9-8.01 5.62-2.64 11.34v.03c.27.39 2.65 3.64 5.09 3.26v.03l.11-.06s.38 11.81 3.4 16.44c-.22.57-3.25 6.55-13.15 1.82-7.28 3.15-23.1-3.12-18.52-16.64.17.05.22.03.12-.04-.04 0-.09 0-.12.04-10.26-3.45-11.9-27.54 1.48-32.92 0 0-10.85-11.4 5.97-16.87 0 0-1.88-9.32 7.99-14.41 0 0 10.94-8.14 16.99 1.6 0 0-2.15-11.37 13.84-13.82 0 0 12.89-3.37 17.19 5.46 3.1-3.46 23.99-5.29 26.29 11.99 0 0 16.86-2.37 16.28 15.15 0 0 4.74 7.46-1.02 12.33 0 0 5.67 4.08 1.02 14.96Z" style="fill:#8d6956"/><g id="glasses"><path d="M126.03 63.5c-.65 16.36-25.92 14.56-24.14-1.6-1.97-.88-4.19-.65-6.21-.04 1.21 16.66-25.14 17.02-24.45.36-3.61-.04-14.07-.14-17.83-.18v-.06c-.5-.32-1.02-.6-1.55-.85.1-.74 6.29-.5 6.78-.66l12.43-.53c.19 0 .38.01.57.06 2.93-11.56 21.22-11.29 23.78.36 2.02-1.27 4.89-1.64 6.87-.1 3.73-12.45 23.63-10.27 23.76 3.25Z" class="cls-7"/><g id="lenses"><path d="M94.44 63.02c-.25 13.66-21.68 13.67-21.93 0 .25-13.68 21.69-13.67 21.93 0M124.71 63.51c.02 1.77-.47 3.56-1.4 5.07h-.02v.04c-5.09 8.94-20.48 5.21-20.2-5.12.21-13.4 21.34-13.63 21.62.02Z" class="cls-9"/></g><g id="eyes"><path id="eye" d="M89.65 63.72c-.47.35-.92-.07-1.17-.47-.64 5.48-8.77 1.8-4.97-2.25-4.43-.54-6.95 1.84-7.91.64.02-1.69 4.29-1.62 5.65-1.96 3.17-.46 9.21 1.35 8.39 4.03Z" class="cls-7"/><path id="eye-2" d="M120.75 62.85c-.42.59-1.05.08-1.47-.21.48 5.77-7.94 2.99-4.27-1.4-2.02-.66-5.54 1.62-6.16.72a.647.647 0 0 1 .26-.89c3.69-1.85 8.11-1.52 11.48.87.3.2.38.61.17.91Z" class="cls-7"/></g><g id="lense_highlight"><path d="M92.44 58.49c3.11 2.87 1.62 16.67-11.62 13.25 0 0 7.38 1.05 10.62-3.84-.02 0 2.79-3.84 1.01-9.41ZM123.18 67.52c-.12.25-2.31 6.13-12.17 4.55 1.81.29 10.37-.39 11.57-5.74.23-.63.89-4.75.08-7.5 0 0 2.33 3.25.52 8.69" class="cls-5"/></g><path d="M66.48 61.27s-.79 15.58-3.13 26.97c-3.86 18.8-10.19 21.1-10.86 26.64M124.71 68.55s2.79 22.79-4.42 32.7c0 0-6.99 11.54-30.41 14.23" class="cls-2"/></g><g id="necklace"><g id="beads"><path d="M90.51 117.05c-.94-.8-3.33-1.13-4.66.59 0 0-.89-.63-1.08-2.13-.46-4.95 6.02-4.56 6.29-.49 0 .79-.18 1.51-.55 2.03M60.47 114.98c-.01.91-.4 1.8-1.09 2.39a3.14 3.14 0 0 0-3.16.57c-1.32-.48-2.15-1.78-2.08-3.18.17-3.97 6.47-3.77 6.33.22" class="cls-11"/><path d="M91.63 119.89c.02 1.29-.83 2.51-2.04 2.95-.65-1.49-2.49-2.24-4-1.64-1.96-4.71 5.88-6.37 6.04-1.31M61.24 121.91c-1 .23-1.84.99-2.2 1.95-3.38.96-5.43-4.04-2.38-5.76 1.99-1.28 5.62.21 4.59 3.81Z" class="cls-11"/><path d="M89.87 124.6c.03 2.06-2.05 3.64-4.02 3.04-.14-1.25-1.06-2.35-2.29-2.67-.57-4.33 6.3-4.73 6.3-.37ZM65.15 125.54c-1.04.49-1.76 1.57-1.78 2.72-2.71 1.44-5.77-1.91-4.09-4.48 1.51-2.73 6.27-1.73 5.87 1.75Z" class="cls-11"/><path d="M68.87 130.91c-1.89 2.26-5.79.59-5.52-2.33.17-3.68 5.86-3.86 6.26-.19-.5.57-.74 2.52-.74 2.52" class="cls-11"/><path d="M85.88 128.45c.07 2.47-2.92 4.05-4.93 2.63-.33 3.02-4.71 3.71-5.97.96-1.12 3.23-6.24 2.47-6.11-1.36.05-.69.33-1.36.8-1.87 1.43-1.67 4.26-1.27 5.19.71.18.36.29.75.32 1.15.02-.47-.05-.94-.23-1.38.76-1.7 3.05-2.34 4.58-1.29h.04c.8.54 1.31 1.43 1.38 2.4.06-1.09-.43-2.14-1.32-2.77.79-3.38 5.83-3.28 6.26.81Z" class="cls-11"/></g></g></svg>