<svg id="Layer_1" data-name="Layer 1" xmlns="http://www.w3.org/2000/svg" viewBox="0 0 310.96 364.63"><defs><style>.cls-1{fill:none;}.cls-2{fill:#e2ab90;}.cls-3{fill:#d19479;}.cls-4{fill:#ee2f79;}.cls-5{fill:#b31f58;}.cls-6{fill:#231f20;}.cls-7{fill:#fff;}.cls-8{fill:#010101;}.cls-9{fill:#c4c4c4;}.cls-10{fill:#f6e4cd;}.cls-11{fill:#fff6e7;}.cls-12{fill:#8d6855;}.cls-13{fill:#937366;}</style></defs><rect class="cls-1" width="310.96" height="364.63"/><g id="skin"><path id="chest" class="cls-2" d="M150,284.23a2.1,2.1,0,0,0,0,.36,2.12,2.12,0,0,1,.05-.44S150.05,284.2,150,284.23Zm0,.4a3.64,3.64,0,0,0,0,.48v.07l.08-.08A1.88,1.88,0,0,1,150,284.63Zm0-.4a2.1,2.1,0,0,0,0,.36,2.12,2.12,0,0,1,.05-.44S150.05,284.2,150,284.23Zm0,.4a3.64,3.64,0,0,0,0,.48v.07l.08-.08A1.88,1.88,0,0,1,150,284.63Zm0,0a3.64,3.64,0,0,0,0,.48v.07l.08-.08A1.88,1.88,0,0,1,150,284.63Zm0-.4a2.1,2.1,0,0,0,0,.36,2.12,2.12,0,0,1,.05-.44S150.05,284.2,150,284.23Zm0,.4a3.64,3.64,0,0,0,0,.48v.07l.08-.08A1.88,1.88,0,0,1,150,284.63Zm0,0a3.64,3.64,0,0,0,0,.48v.07l.08-.08A1.88,1.88,0,0,1,150,284.63Zm0-.4a2.1,2.1,0,0,0,0,.36,2.12,2.12,0,0,1,.05-.44S150.05,284.2,150,284.23Zm0,.4a3.64,3.64,0,0,0,0,.48v.07l.08-.08A1.88,1.88,0,0,1,150,284.63Zm0,0a3.64,3.64,0,0,0,0,.48v.07l.08-.08A1.88,1.88,0,0,1,150,284.63Zm0-.4a2.1,2.1,0,0,0,0,.36,2.12,2.12,0,0,1,.05-.44S150.05,284.2,150,284.23Zm0,.4a3.64,3.64,0,0,0,0,.48v.07l.08-.08A1.88,1.88,0,0,1,150,284.63Zm0,0a3.64,3.64,0,0,0,0,.48v.07l.08-.08A1.88,1.88,0,0,1,150,284.63Zm0-.4a2.1,2.1,0,0,0,0,.36,2.12,2.12,0,0,1,.05-.44S150.05,284.2,150,284.23Zm0,.4a3.64,3.64,0,0,0,0,.48v.07l.08-.08A1.88,1.88,0,0,1,150,284.63Zm0,0a3.64,3.64,0,0,0,0,.48v.07l.08-.08A1.88,1.88,0,0,1,150,284.63Zm0-.4a2.1,2.1,0,0,0,0,.36,2.12,2.12,0,0,1,.05-.44S150.05,284.2,150,284.23Zm0,.4a3.64,3.64,0,0,0,0,.48v.07l.08-.08A1.88,1.88,0,0,1,150,284.63Zm0,0a3.64,3.64,0,0,0,0,.48v.07l.08-.08A1.88,1.88,0,0,1,150,284.63Zm0-.4a2.1,2.1,0,0,0,0,.36,2.12,2.12,0,0,1,.05-.44S150.05,284.2,150,284.23Zm0,.4a3.64,3.64,0,0,0,0,.48v.07l.08-.08A1.88,1.88,0,0,1,150,284.63Zm0,0a3.64,3.64,0,0,0,0,.48v.07l.08-.08A1.88,1.88,0,0,1,150,284.63Zm0-.4a2.1,2.1,0,0,0,0,.36,2.12,2.12,0,0,1,.05-.44S150.05,284.2,150,284.23Zm0,.4a3.64,3.64,0,0,0,0,.48v.07l.08-.08A1.88,1.88,0,0,1,150,284.63Zm0,0a3.64,3.64,0,0,0,0,.48v.07l.08-.08A1.88,1.88,0,0,1,150,284.63Zm0-.4a2.1,2.1,0,0,0,0,.36,2.12,2.12,0,0,1,.05-.44S150.05,284.2,150,284.23Zm0,.4a3.64,3.64,0,0,0,0,.48v.07l.08-.08A1.88,1.88,0,0,1,150,284.63Zm0,0a3.64,3.64,0,0,0,0,.48v.07l.08-.08A1.88,1.88,0,0,1,150,284.63Zm0-.4a2.1,2.1,0,0,0,0,.36,2.12,2.12,0,0,1,.05-.44S150.05,284.2,150,284.23Zm0,.4a3.64,3.64,0,0,0,0,.48v.07l.08-.08A1.88,1.88,0,0,1,150,284.63Zm0,0a3.64,3.64,0,0,0,0,.48v.07l.08-.08A1.88,1.88,0,0,1,150,284.63Zm0-.4a2.1,2.1,0,0,0,0,.36,2.12,2.12,0,0,1,.05-.44S150.05,284.2,150,284.23Zm0,.4a3.64,3.64,0,0,0,0,.48v.07l.08-.08A1.88,1.88,0,0,1,150,284.63Zm0,0a3.64,3.64,0,0,0,0,.48v.07l.08-.08A1.88,1.88,0,0,1,150,284.63Zm0-.4a2.1,2.1,0,0,0,0,.36,2.12,2.12,0,0,1,.05-.44S150.05,284.2,150,284.23Zm0,.4a3.64,3.64,0,0,0,0,.48v.07l.08-.08A1.88,1.88,0,0,1,150,284.63Zm0,0a3.64,3.64,0,0,0,0,.48v.07l.08-.08A1.88,1.88,0,0,1,150,284.63Zm0-.4a2.1,2.1,0,0,0,0,.36,2.12,2.12,0,0,1,.05-.44S150.05,284.2,150,284.23Zm0,.4a3.64,3.64,0,0,0,0,.48v.07l.08-.08A1.88,1.88,0,0,1,150,284.63Zm0,0a3.64,3.64,0,0,0,0,.48v.07l.08-.08A1.88,1.88,0,0,1,150,284.63Zm0-.4a2.1,2.1,0,0,0,0,.36,2.12,2.12,0,0,1,.05-.44S150.05,284.2,150,284.23Zm0,.4a3.64,3.64,0,0,0,0,.48v.07l.08-.08A1.88,1.88,0,0,1,150,284.63Zm0,0a3.64,3.64,0,0,0,0,.48v.07l.08-.08A1.88,1.88,0,0,1,150,284.63Zm0-.4a2.1,2.1,0,0,0,0,.36,2.12,2.12,0,0,1,.05-.44S150.05,284.2,150,284.23Zm0,.4a3.64,3.64,0,0,0,0,.48v.07l.08-.08A1.88,1.88,0,0,1,150,284.63Zm-24.69-28.26a4.87,4.87,0,0,0,1.08-.17A5.53,5.53,0,0,0,125.35,256.37ZM150,284.63a3.64,3.64,0,0,0,0,.48v.07l.08-.08A1.88,1.88,0,0,1,150,284.63Zm0-.4a2.1,2.1,0,0,0,0,.36,2.12,2.12,0,0,1,.05-.44S150.05,284.2,150,284.23Zm0,.4a3.64,3.64,0,0,0,0,.48v.07l.08-.08A1.88,1.88,0,0,1,150,284.63Zm-24.69-28.26a4.87,4.87,0,0,0,1.08-.17A5.53,5.53,0,0,0,125.35,256.37ZM150,284.63a3.64,3.64,0,0,0,0,.48v.07l.08-.08A1.88,1.88,0,0,1,150,284.63Zm-24.69-28.26a4.87,4.87,0,0,0,1.08-.17A5.53,5.53,0,0,0,125.35,256.37ZM150,284.63a3.64,3.64,0,0,0,0,.48v.07l.08-.08A1.88,1.88,0,0,1,150,284.63Zm-24.69-28.26a4.87,4.87,0,0,0,1.08-.17A5.53,5.53,0,0,0,125.35,256.37ZM150,284.63a3.64,3.64,0,0,0,0,.48v.07l.08-.08A1.88,1.88,0,0,1,150,284.63Zm0-.4a2.1,2.1,0,0,0,0,.36,2.12,2.12,0,0,1,.05-.44S150.05,284.2,150,284.23Zm-24.66-27.86a4.87,4.87,0,0,0,1.08-.17A5.53,5.53,0,0,0,125.35,256.37ZM150,284.63a3.64,3.64,0,0,0,0,.48v.07l.08-.08A1.88,1.88,0,0,1,150,284.63Zm0-.4a2.1,2.1,0,0,0,0,.36,2.12,2.12,0,0,1,.05-.44S150.05,284.2,150,284.23Zm-24.66-27.86a4.87,4.87,0,0,0,1.08-.17A5.53,5.53,0,0,0,125.35,256.37ZM150,284.63a3.64,3.64,0,0,0,0,.48v.07l.08-.08A1.88,1.88,0,0,1,150,284.63Zm0-.4a2.1,2.1,0,0,0,0,.36,2.12,2.12,0,0,1,.05-.44S150.05,284.2,150,284.23Zm-24.66-27.86a4.87,4.87,0,0,0,1.08-.17A5.53,5.53,0,0,0,125.35,256.37ZM150,284.63a3.64,3.64,0,0,0,0,.48v.07l.08-.08A1.88,1.88,0,0,1,150,284.63Zm0-.4a2.1,2.1,0,0,0,0,.36,2.12,2.12,0,0,1,.05-.44S150.05,284.2,150,284.23Zm-24.66-27.86a4.87,4.87,0,0,0,1.08-.17A5.53,5.53,0,0,0,125.35,256.37ZM150,284.63a3.64,3.64,0,0,0,0,.48v.07l.08-.08A1.88,1.88,0,0,1,150,284.63Zm0-.4a2.1,2.1,0,0,0,0,.36,2.12,2.12,0,0,1,.05-.44S150.05,284.2,150,284.23Zm-77.5,80.38-6-31.2c2.57,20.08-.67,31.17-.67,31.17ZM73.62,259c6.3-1,11.32-1.86,15.53-2.67C84.18,257.25,79,258.16,73.62,259Zm51.73-2.64a4.87,4.87,0,0,0,1.08-.17A5.53,5.53,0,0,0,125.35,256.37ZM150,284.63a3.64,3.64,0,0,0,0,.48v.07l.08-.08A1.88,1.88,0,0,1,150,284.63Zm0-.4a2.1,2.1,0,0,0,0,.36,2.12,2.12,0,0,1,.05-.44S150.05,284.2,150,284.23Zm53.61,3a188.13,188.13,0,0,0-5-22.64,6.83,6.83,0,0,1-3.5,2.94,6.88,6.88,0,0,1,.63,2.87,3.64,3.64,0,0,1,0,.48,3.71,3.71,0,0,1,0,.47,6.89,6.89,0,0,1-6.9,6.89A6.66,6.66,0,0,1,187,278a5.29,5.29,0,0,1,.06.8,3.15,3.15,0,0,1,0,.44h0a0,0,0,0,1,0,0h0a3.59,3.59,0,0,1,0,.47,6.89,6.89,0,0,1-10.73,5.73,6.89,6.89,0,0,1-13,2.09A6.89,6.89,0,0,1,150,285.18a6.8,6.8,0,0,1-5.13,2.31,6.9,6.9,0,0,1-6.89-6.9,3.87,3.87,0,0,1,0-.48h0s0,0,0,0h0a0,0,0,0,1,0,0,3.11,3.11,0,0,1,0-.43,1.27,1.27,0,0,1,0-.28,6.68,6.68,0,0,1-3,.7,6.89,6.89,0,0,1-6.9-6.89,3.87,3.87,0,0,1,0-.48,3.59,3.59,0,0,1,0-.47,6.78,6.78,0,0,1,.46-2.47A6.28,6.28,0,0,1,127,270a6.9,6.9,0,0,1-6.9-6.89,3.71,3.71,0,0,1,0-.47,3.87,3.87,0,0,1,0-.48,6.79,6.79,0,0,1,2.39-5.2,6.89,6.89,0,0,1-4.52-6.47,3.4,3.4,0,0,1,0-.45c-.9.25-1.84.51-2.81.75-.54.15-1.09.29-1.64.42l-1.22.31c2.24,3.71-1.45,38.8,6.63,62.06,7.83,22.57,24.48,28.12,32.28,30.41a57.72,57.72,0,0,0,13.26,2.12v0h.8c9.91.38,20.09-1.42,26.37-5.61,8-5.35,10.66-11.28,12.23-20.37A99.81,99.81,0,0,0,203.62,287.26Zm-53.53-3.11s0,.05-.08.08a2.1,2.1,0,0,0,0,.36A2.12,2.12,0,0,1,150.09,284.15Zm-.05.48a3.64,3.64,0,0,0,0,.48v.07l.08-.08A1.88,1.88,0,0,1,150,284.63Zm-24.69-28.26a4.87,4.87,0,0,0,1.08-.17A5.53,5.53,0,0,0,125.35,256.37ZM244.9,364.57l-4-25.76c1.51,16.62-1.48,25.68-1.48,25.68ZM150,284.23a2.1,2.1,0,0,0,0,.36,2.12,2.12,0,0,1,.05-.44S150.05,284.2,150,284.23Zm0,.4a3.64,3.64,0,0,0,0,.48v.07l.08-.08A1.88,1.88,0,0,1,150,284.63Zm-24.69-28.26a4.87,4.87,0,0,0,1.08-.17A5.53,5.53,0,0,0,125.35,256.37ZM150,284.23a2.1,2.1,0,0,0,0,.36,2.12,2.12,0,0,1,.05-.44S150.05,284.2,150,284.23Zm0,.4a3.64,3.64,0,0,0,0,.48v.07l.08-.08A1.88,1.88,0,0,1,150,284.63Zm-24.69-28.26a4.87,4.87,0,0,0,1.08-.17A5.53,5.53,0,0,0,125.35,256.37ZM150,284.23a2.1,2.1,0,0,0,0,.36,2.12,2.12,0,0,1,.05-.44S150.05,284.2,150,284.23Zm0,.4a3.64,3.64,0,0,0,0,.48v.07l.08-.08A1.88,1.88,0,0,1,150,284.63Zm-24.69-28.26a4.87,4.87,0,0,0,1.08-.17A5.53,5.53,0,0,0,125.35,256.37ZM150,284.23a2.1,2.1,0,0,0,0,.36,2.12,2.12,0,0,1,.05-.44S150.05,284.2,150,284.23Zm0,.4a3.64,3.64,0,0,0,0,.48v.07l.08-.08A1.88,1.88,0,0,1,150,284.63Zm-24.69-28.26a4.87,4.87,0,0,0,1.08-.17A5.53,5.53,0,0,0,125.35,256.37ZM150,284.23a2.1,2.1,0,0,0,0,.36,2.12,2.12,0,0,1,.05-.44S150.05,284.2,150,284.23Zm0,.4a3.64,3.64,0,0,0,0,.48v.07l.08-.08A1.88,1.88,0,0,1,150,284.63Zm-24.69-28.26a4.87,4.87,0,0,0,1.08-.17A5.53,5.53,0,0,0,125.35,256.37ZM150,284.23a2.1,2.1,0,0,0,0,.36,2.12,2.12,0,0,1,.05-.44S150.05,284.2,150,284.23Zm0,.4a3.64,3.64,0,0,0,0,.48v.07l.08-.08A1.88,1.88,0,0,1,150,284.63Zm-24.69-28.26a4.87,4.87,0,0,0,1.08-.17A5.53,5.53,0,0,0,125.35,256.37ZM150,284.63a3.64,3.64,0,0,0,0,.48v.07l.08-.08A1.88,1.88,0,0,1,150,284.63Zm-24.69-28.26a4.87,4.87,0,0,0,1.08-.17A5.53,5.53,0,0,0,125.35,256.37ZM150,284.63a3.64,3.64,0,0,0,0,.48v.07l.08-.08A1.88,1.88,0,0,1,150,284.63Zm0-.4a2.1,2.1,0,0,0,0,.36,2.12,2.12,0,0,1,.05-.44S150.05,284.2,150,284.23Zm0,.4a3.64,3.64,0,0,0,0,.48v.07l.08-.08A1.88,1.88,0,0,1,150,284.63Zm-24.69-28.26a4.87,4.87,0,0,0,1.08-.17A5.53,5.53,0,0,0,125.35,256.37ZM150,284.63a3.64,3.64,0,0,0,0,.48v.07l.08-.08A1.88,1.88,0,0,1,150,284.63Zm0-.4a2.1,2.1,0,0,0,0,.36,2.12,2.12,0,0,1,.05-.44S150.05,284.2,150,284.23Zm0,.4a3.64,3.64,0,0,0,0,.48v.07l.08-.08A1.88,1.88,0,0,1,150,284.63Zm0,0a3.64,3.64,0,0,0,0,.48v.07l.08-.08A1.88,1.88,0,0,1,150,284.63Zm0-.4a2.1,2.1,0,0,0,0,.36,2.12,2.12,0,0,1,.05-.44S150.05,284.2,150,284.23Zm0,.4a3.64,3.64,0,0,0,0,.48v.07l.08-.08A1.88,1.88,0,0,1,150,284.63Zm0,0a3.64,3.64,0,0,0,0,.48v.07l.08-.08A1.88,1.88,0,0,1,150,284.63Zm0-.4a2.1,2.1,0,0,0,0,.36,2.12,2.12,0,0,1,.05-.44S150.05,284.2,150,284.23Zm0,.4a3.64,3.64,0,0,0,0,.48v.07l.08-.08A1.88,1.88,0,0,1,150,284.63Zm0,0a3.64,3.64,0,0,0,0,.48v.07l.08-.08A1.88,1.88,0,0,1,150,284.63Zm0-.4a2.1,2.1,0,0,0,0,.36,2.12,2.12,0,0,1,.05-.44S150.05,284.2,150,284.23Zm0,.4a3.64,3.64,0,0,0,0,.48v.07l.08-.08A1.88,1.88,0,0,1,150,284.63Zm0,0a3.64,3.64,0,0,0,0,.48v.07l.08-.08A1.88,1.88,0,0,1,150,284.63Zm0-.4a2.1,2.1,0,0,0,0,.36,2.12,2.12,0,0,1,.05-.44S150.05,284.2,150,284.23Zm0,.4a3.64,3.64,0,0,0,0,.48v.07l.08-.08A1.88,1.88,0,0,1,150,284.63Zm0,0a3.64,3.64,0,0,0,0,.48v.07l.08-.08A1.88,1.88,0,0,1,150,284.63Zm0-.4a2.1,2.1,0,0,0,0,.36,2.12,2.12,0,0,1,.05-.44S150.05,284.2,150,284.23Zm0,.4a3.64,3.64,0,0,0,0,.48v.07l.08-.08A1.88,1.88,0,0,1,150,284.63Zm0,0a3.64,3.64,0,0,0,0,.48v.07l.08-.08A1.88,1.88,0,0,1,150,284.63Zm0-.4a2.1,2.1,0,0,0,0,.36,2.12,2.12,0,0,1,.05-.44S150.05,284.2,150,284.23Zm0,.4a3.64,3.64,0,0,0,0,.48v.07l.08-.08A1.88,1.88,0,0,1,150,284.63Zm0,0a3.64,3.64,0,0,0,0,.48v.07l.08-.08A1.88,1.88,0,0,1,150,284.63Zm0-.4a2.1,2.1,0,0,0,0,.36,2.12,2.12,0,0,1,.05-.44S150.05,284.2,150,284.23Zm0,.4a3.64,3.64,0,0,0,0,.48v.07l.08-.08A1.88,1.88,0,0,1,150,284.63Zm0,0a3.64,3.64,0,0,0,0,.48v.07l.08-.08A1.88,1.88,0,0,1,150,284.63Zm0-.4a2.1,2.1,0,0,0,0,.36,2.12,2.12,0,0,1,.05-.44S150.05,284.2,150,284.23Zm0,.4a3.64,3.64,0,0,0,0,.48v.07l.08-.08A1.88,1.88,0,0,1,150,284.63Zm0,0a3.64,3.64,0,0,0,0,.48v.07l.08-.08A1.88,1.88,0,0,1,150,284.63Zm0-.4a2.1,2.1,0,0,0,0,.36,2.12,2.12,0,0,1,.05-.44S150.05,284.2,150,284.23Zm0,.4a3.64,3.64,0,0,0,0,.48v.07l.08-.08A1.88,1.88,0,0,1,150,284.63Zm0,0a3.64,3.64,0,0,0,0,.48v.07l.08-.08A1.88,1.88,0,0,1,150,284.63Zm0-.4a2.1,2.1,0,0,0,0,.36,2.12,2.12,0,0,1,.05-.44S150.05,284.2,150,284.23Zm0,.4a3.64,3.64,0,0,0,0,.48v.07l.08-.08A1.88,1.88,0,0,1,150,284.63Zm0,0a3.64,3.64,0,0,0,0,.48v.07l.08-.08A1.88,1.88,0,0,1,150,284.63Zm0-.4a2.1,2.1,0,0,0,0,.36,2.12,2.12,0,0,1,.05-.44S150.05,284.2,150,284.23Zm0,.4a3.64,3.64,0,0,0,0,.48v.07l.08-.08A1.88,1.88,0,0,1,150,284.63Zm0,0a3.64,3.64,0,0,0,0,.48v.07l.08-.08A1.88,1.88,0,0,1,150,284.63Zm0-.4a2.1,2.1,0,0,0,0,.36,2.12,2.12,0,0,1,.05-.44S150.05,284.2,150,284.23Zm0,.4a3.64,3.64,0,0,0,0,.48v.07l.08-.08A1.88,1.88,0,0,1,150,284.63Zm0,0a3.64,3.64,0,0,0,0,.48v.07l.08-.08A1.88,1.88,0,0,1,150,284.63Zm0-.4a2.1,2.1,0,0,0,0,.36,2.12,2.12,0,0,1,.05-.44S150.05,284.2,150,284.23Zm0,.4a3.64,3.64,0,0,0,0,.48v.07l.08-.08A1.88,1.88,0,0,1,150,284.63Zm0,0a3.64,3.64,0,0,0,0,.48v.07l.08-.08A1.88,1.88,0,0,1,150,284.63Zm0-.4a2.1,2.1,0,0,0,0,.36,2.12,2.12,0,0,1,.05-.44S150.05,284.2,150,284.23Zm0,.4a3.64,3.64,0,0,0,0,.48v.07l.08-.08A1.88,1.88,0,0,1,150,284.63Zm0,0a3.64,3.64,0,0,0,0,.48v.07l.08-.08A1.88,1.88,0,0,1,150,284.63Zm0-.4a2.1,2.1,0,0,0,0,.36,2.12,2.12,0,0,1,.05-.44S150.05,284.2,150,284.23Zm0,.4a3.64,3.64,0,0,0,0,.48v.07l.08-.08A1.88,1.88,0,0,1,150,284.63Z"/><path id="neck" class="cls-2" d="M182,270.43a3.64,3.64,0,0,0,0,.48,3.71,3.71,0,0,0,0,.47,5.55,5.55,0,0,0,.06.82,6.32,6.32,0,0,0-1.85-.27,6.88,6.88,0,0,0-6.82,5.93,6.91,6.91,0,0,0-10.27,3.25,6.88,6.88,0,0,0-6.18-3.84,6.81,6.81,0,0,0-5.12,2.3,6.9,6.9,0,0,0-6.9-6.82,6.81,6.81,0,0,0-3,.69,1.18,1.18,0,0,0,0-.27,3.87,3.87,0,0,0,0-.48,3.59,3.59,0,0,0,0-.47,6.89,6.89,0,0,0-6.89-6.9,6.3,6.3,0,0,0-1.64.21,6.72,6.72,0,0,0,.46-2.46,3.71,3.71,0,0,0,0-.47,3.87,3.87,0,0,0,0-.48,6.86,6.86,0,0,0-4.51-6.46,6.82,6.82,0,0,0,2.3-4.28,4.8,4.8,0,0,0,.08-.93h0a3.44,3.44,0,0,0,0-.46,3.87,3.87,0,0,0,0-.48,6.85,6.85,0,0,0-1.17-3.83c1.29-.55,3.27-3.16,5.17-6.83.12-.21.24-.44.36-.68,3.18-6.38,6.05-15.57,5-22.87,15.89,31.19,38.68,40.84,45,43a6.56,6.56,0,0,0-.27,1.9c0,.16,0,.32,0,.47s0,.31,0,.48a6.68,6.68,0,0,0,.62,2.86A6.88,6.88,0,0,0,182,270.43Z"/><path id="lower_face" class="cls-2" d="M248.1,163.5c-14.56,0-26.42-11.31-26.42-25.21a23.56,23.56,0,0,1,.26-3.48,16.55,16.55,0,0,0-2.94-.92,16.18,16.18,0,0,0-3.5-.38,23.09,23.09,0,0,0-3.73.4c-1.09.21-2.27.51-3.35.81.08.83.13,1.68.13,2.53,0,14.06-12,25.51-26.73,25.51s-26.72-11.45-26.72-25.51c0-.59,0-1.17.07-1.74h-.26l-9.63-.11c0,.49-.1,1.79-.16,3.28-1,28-4.72,51.87-11,71.28a36.37,36.37,0,0,0,6.29,4s-.05-.1-.08-.15,0-.05.51.17a62.73,62.73,0,0,0,6.57,2.56h0c2.49.26,12.3,1.23,25.11,1.45h0c29.57.52,75.08-2.93,83.1-28.17,0,0,3.48-11.06,4.13-28.92A27.55,27.55,0,0,1,248.1,163.5Zm-67.52,29.23s-8.45-13.13,12.72-20.63l0,0c0,.11.11.38.26.8,1.2,3.44,6.42,16.43,17.57,18.9C211.15,191.84,191.23,207.22,180.58,192.73Zm31.31-19.55s-.81-3.63,5.44-1.09Zm11.84,3.15c5.5-6.82.22-11.89.22-11.89-6.5-5.59-14.41,1.21-14.76,1.53,8.31-9.7,15.28-4.69,15.28-4.69C233.05,168,224.12,176,223.73,176.33Z"/><path id="ear" class="cls-2" d="M116.33,135.09c0,.06,0,.1,0,.15l-.21-.15h.2v-.15a32.39,32.39,0,0,0-3.38-1.85.11.11,0,0,0,0,.06c-.37-.2-.75-.39-1.14-.58l-.09,0c-3.92-1.64-9.26-2.79-11.74,1.41,0,0-4.9,9.74,7.2,23.84a0,0,0,0,0,0,0,.15.15,0,0,1,0,.06c.6.85,5.77,7.94,11.09,7.1l.25-.05h0s.83,25.73,7.4,35.81l0,.07a34.59,34.59,0,0,0,6.65,7.85c6.06-19.1,9.63-42.54,10.67-70.05,0-1.58.09-2.57.14-3.22Zm1.28,21.81a7.75,7.75,0,0,1-5.32-.57c-4.45-2.5-2.78-6.57-2.78-6.57,1.67-3.7,4.54-3.7,4.54-3.7-2.22-7.51-10.93-6.95-10.93-6.95.5-.25,9.17-3.71,13.45,7,0,0-5.19,3.18-2,6.9a4.56,4.56,0,0,0,2.77.93,4.16,4.16,0,0,0,2.66-1.14l.77.76A5.19,5.19,0,0,1,117.61,156.9Z"/><path id="forehead" class="cls-2" d="M262.66,117.25a26,26,0,0,0-7.23-3.19l-.78-.21a27.38,27.38,0,0,0-6.55-.79c-12,0-22.15,7.68-25.35,18.16l-.21-.15c-.35-.23-.69-.5-1.06-.71s-.76-.37-1.16-.54a11.64,11.64,0,0,0-5-.78,15.46,15.46,0,0,0-4.72,1,15.22,15.22,0,0,0-2.8,1.39c-2.76-11.28-13.38-19.7-26-19.7-12.34,0-22.76,8-25.8,18.91a3.64,3.64,0,0,0-1.24-.14l-27.06,1.15c6.84-6.92-3-24.38-3-24.38,14.47-3.53,2.72-17.67,2.72-17.67A56.54,56.54,0,0,0,141,91c30.22-.64,25.18-16.84,25.18-16.84,11.25,12.18,27.64,19,27.64,19,32.15,12.21,35.69-1.93,35.69-1.93,8,7.5,15.47,8.13,20.38,7.29a17,17,0,0,0,6-2.15c.36.73.72,1.49,1.05,2.28.17.39.33.79.5,1.19l.49,1.22.28.74c.12.34.26.69.38,1s.34,1,.5,1.43c.23.67.45,1.35.67,2a2.17,2.17,0,0,0,.07.24,6.17,6.17,0,0,1,.19.61c.15.49.3,1,.44,1.48.08.3.17.59.25.89s.15.51.21.76c.14.46.26.92.38,1.39s.21.8.32,1.2.2.79.29,1.2c.15.6.29,1.21.44,1.8S262.56,116.78,262.66,117.25Z"/></g><g id="skin_shade"><path class="cls-3" d="M253.83,90.4a14,14,0,0,1-6.33,1.85c-.26-.64-.54-1.3-.82-2a19.15,19.15,0,0,0,6.13-2.18C253.14,88.84,253.49,89.6,253.83,90.4Z"/><path class="cls-3" d="M262.66,117.25a26,26,0,0,0-7.23-3.19l-.78-.21c-1.28-5-2.85-10.11-4.75-15.36a17,17,0,0,0,6-2.15c.36.73.72,1.49,1.05,2.28.17.39.33.79.5,1.19l.49,1.22.28.74c.12.34.26.69.38,1s.34,1,.5,1.43c.23.67.45,1.35.67,2a2.17,2.17,0,0,0,.07.24,6.17,6.17,0,0,1,.19.61c.15.49.3,1,.44,1.48.08.3.17.59.25.89s.15.51.21.76c.14.46.26.92.38,1.39s.21.8.32,1.2.2.79.29,1.2c.15.6.29,1.21.44,1.8S262.56,116.78,262.66,117.25Z"/><path class="cls-3" d="M268.29,147.07h0c-.27.54-.55,1.09-.89,1.65h0c-.17.32-.36.62-.56.93a21.13,21.13,0,0,1-6.91,6.05c0-.71,0-1.44,0-2.18a16.86,16.86,0,0,0,5-4.89,18.74,18.74,0,0,0,2.07-4.14h0a23.4,23.4,0,0,0,.71-2.3C267.92,143.79,268.12,145.42,268.29,147.07Z"/><path class="cls-3" d="M120.81,153.55a5.19,5.19,0,0,1-3.2,3.35,7.75,7.75,0,0,1-5.32-.57c-4.45-2.5-2.78-6.57-2.78-6.57,1.67-3.7,4.54-3.7,4.54-3.7-2.22-7.51-10.93-6.95-10.93-6.95.5-.25,9.17-3.71,13.45,7,0,0-5.19,3.18-2,6.9a4.56,4.56,0,0,0,2.77.93,4.16,4.16,0,0,0,2.66-1.14Z"/><path class="cls-3" d="M269.59,178.86a33.77,33.77,0,0,1-4,14.73,0,0,0,0,0,0,0c-4.34,8.71-13.59,19.17-33.3,25l-.27.09h-.05a.24.24,0,0,1-.12,0l-.36.11-.3.08-.35.1-.4.1-.44.12c-4.7,1.25-21.85,5.16-45.57,3.69h0c-.07.18-.16.38-.25.6-.8,2.2-3.28,8.77-3.75,15.27l-.06,1a22.58,22.58,0,0,0,.27,4.68l.06.32a15.94,15.94,0,0,0,1.59,4.29.83.83,0,0,0,.07.13,9.15,9.15,0,0,0,1.36,1.7l.09.1.28.16a.71.71,0,0,1,.14.1,2.9,2.9,0,0,1,.31.19l.15.09h0a1.75,1.75,0,0,0,0,.33,3.88,3.88,0,0,0,.18.9,6.71,6.71,0,0,0,2.18,3.42,6.34,6.34,0,0,0-1,2c-6.28-2.15-29.07-11.8-45-43-.23-.43-.45-.88-.67-1.34,0,0-.05-.1-.08-.15s0-.05.51.17a62.73,62.73,0,0,0,6.57,2.56h0c2.49.26,12.3,1.23,25.11,1.45h0c29.57.52,75.08-2.93,83.1-28.17,0,0,3.48-11.06,4.13-28.92l.71-.34a26.63,26.63,0,0,0,8.4-6.74l.29-.36c.24,4.35.38,8.88.39,13.63a1.92,1.92,0,0,1,0,.24Q269.72,172.93,269.59,178.86Z"/><path id="cleavage" class="cls-3" d="M165.87,346.11h-1.43v0c.78-4-1.29-11.93-1.39-12.35C166.42,339.75,165.57,345.22,165.87,346.11Z"/></g><path id="shirt" class="cls-4" d="M283.21,325.25c0-.54,0-1.08,0-1.61l0,0,0,40.94-13.48,0S285.93,297.22,262,277a4.64,4.64,0,0,1,.52.18l-.73-.4-.79-.4c-.27-.16-.56-.29-.84-.42s-.81-.39-1.23-.57-1.11-.48-1.68-.71c-.32-.14-.66-.27-1-.39-1.28-.49-2.63-.94-4-1.35l-1.34-.38-1.14-.29c-.55-.15-1.11-.28-1.68-.4h0l-.09,0c-2.34-.89-39.93-15.09-49.67-15.73a6.16,6.16,0,0,1,.76,1.29,6.7,6.7,0,0,1,.59,2.81,3.62,3.62,0,0,1,0,.47,3.77,3.77,0,0,1,0,.48,6.76,6.76,0,0,1-.95,3.49,188.13,188.13,0,0,1,5,22.64,99.81,99.81,0,0,1,.22,32.87c-1.57,9.09-4.2,15-12.23,20.37-6.28,4.19-16.46,6-26.37,5.61h-.8v0A57.72,57.72,0,0,1,151.19,344c-7.8-2.29-24.45-7.84-32.28-30.41-8.08-23.26-4.39-58.35-6.63-62.06-6.53,1.6-14.13,3.19-22.38,4.72l-.75.14c-4.21.81-9.23,1.68-15.53,2.67l-2.3.37c-.5.09-1,.16-1.5.24l-5.41.82s-31.59,4.76-41.33,29.22c0,0-8.55,9.74-11.15,75l271.28-.05S283.45,344.05,283.21,325.25ZM65.85,364.58s3.24-11.09.67-31.17l6,31.2Zm173.57-.09s3-9.06,1.48-25.68l4,25.76Z"/><g id="shirt_shade"><path class="cls-5" d="M269.71,364.54S285.93,297.22,262,277a4.64,4.64,0,0,1,.52.18l0,0c3.18,1.26,18.94,9,20.67,39v7.47l0,40.94Z"/><path class="cls-5" d="M65.85,364.58s3.24-11.09.67-31.17l6,31.2Z"/><path class="cls-5" d="M239.42,364.49s3-9.06,1.48-25.68l4,25.76Z"/></g><g id="nose"><path class="cls-6" d="M223.73,176.33c5.5-6.82.22-11.89.22-11.89-6.5-5.59-14.41,1.21-14.76,1.53,8.31-9.7,15.28-4.69,15.28-4.69C233.05,168,224.12,176,223.73,176.33Z"/><path class="cls-6" d="M217.33,172.09l-5.44,1.09S211.08,169.55,217.33,172.09Z"/></g><g id="glasses"><g id="lenses"><path id="lense" class="cls-7" d="M181.82,114.58c-13.16,0-23.88,10.17-23.88,22.67s10.72,22.66,23.88,22.66,23.88-10.17,23.88-22.66S195,114.58,181.82,114.58Zm-17.11,19.67a1.43,1.43,0,0,1,.84-1.83A46.84,46.84,0,0,1,177,130c8.43-.63,14.86,1.71,18.55,6.78a1.43,1.43,0,0,1-.32,2,1.36,1.36,0,0,1-.84.27,1.39,1.39,0,0,1-1.15-.58c-.18-.25-.36-.48-.55-.71a6.46,6.46,0,0,1-12.91-.15,6.37,6.37,0,0,1,2.09-4.74c-7.54-.62-15.25,2.18-15.38,2.23A1.43,1.43,0,0,1,164.71,134.25Z"/><path id="lense-2" data-name="lense" class="cls-7" d="M265.35,123.05c-.42-.43-.85-.84-1.3-1.24l-.16-.13-.35-.3h0l-.85-.65-.1-.07a1.31,1.31,0,0,0-.27-.21,23.6,23.6,0,0,0-6.87-3.41c-.26-.09-.51-.16-.77-.23a24,24,0,0,0-6.57-.89c-13,0-23.57,10-23.57,22.38s10.57,22.36,23.57,22.36A24.52,24.52,0,0,0,259.22,158a7.73,7.73,0,0,0,.69-.37,23.23,23.23,0,0,0,7.67-6.76,4.92,4.92,0,0,0,.29-.41c.24-.34.45-.67.66-1,0,0,0,0,0-.08h.05a6.32,6.32,0,0,0,.33-.56h0a1.63,1.63,0,0,0,.11-.17c.33-.6.63-1.22.9-1.85.08-.21.18-.42.26-.63h0a2.68,2.68,0,0,1,.12-.3,1.92,1.92,0,0,0,.11-.31,6.45,6.45,0,0,0,.21-.62,3.36,3.36,0,0,0,.14-.45s0,0,0,0a4.74,4.74,0,0,0,.15-.5.17.17,0,0,0,0-.07c.05-.15.08-.3.12-.45s.11-.48.17-.73.1-.48.14-.73.09-.5.12-.74l.09-.74c0-.36.07-.71.09-1.07v-.06c0-.35,0-.71,0-1.06A21.77,21.77,0,0,0,265.35,123.05ZM237.07,135a1.41,1.41,0,0,1,.56-1.93,24.37,24.37,0,0,1,25,1.89,1.42,1.42,0,0,1-.8,2.59,1.45,1.45,0,0,1-.82-.26c-.41-.28-.83-.55-1.23-.8a5.94,5.94,0,0,1,.07,2,5.68,5.68,0,0,1-.58,1.94,5.83,5.83,0,0,1-1.33,1.83,5.59,5.59,0,0,1-3.77,1.49,5.08,5.08,0,0,1-.67,0,5.82,5.82,0,0,1-4.87-6.62,6,6,0,0,1,1.84-3.69A21.78,21.78,0,0,0,239,135.52,1.43,1.43,0,0,1,237.07,135Zm31.62,11.24c-.13.29-.26.58-.4.87h0c-.27.54-.55,1.09-.89,1.65h0c-.17.32-.36.62-.56.93a21.13,21.13,0,0,1-6.91,6.05c-4.18,2.31-10.23,3.85-18.14,1.29,0,0,10.38,1.47,18.13-3.47a16.86,16.86,0,0,0,5-4.89,18.74,18.74,0,0,0,2.07-4.14h0a23.4,23.4,0,0,0,.71-2.3c.15-.58.28-1.2.4-1.85h0a25.37,25.37,0,0,0-.94-12.19S273.25,135.68,268.69,146.2Z"/></g><g id="eyes"><path id="eye" class="cls-8" d="M195.27,138.78a1.36,1.36,0,0,1-.84.27,1.39,1.39,0,0,1-1.15-.58c-.18-.25-.36-.48-.55-.71a6.46,6.46,0,0,1-12.91-.15,6.37,6.37,0,0,1,2.09-4.74c-7.54-.62-15.25,2.18-15.38,2.23a1.43,1.43,0,0,1-1-2.68A46.84,46.84,0,0,1,177,130c8.43-.63,14.86,1.71,18.55,6.78A1.43,1.43,0,0,1,195.27,138.78Z"/><path id="eye-2" data-name="eye" class="cls-8" d="M263,136.9a1.43,1.43,0,0,1-1.16.61,1.45,1.45,0,0,1-.82-.26c-.41-.28-.83-.55-1.23-.8a5.94,5.94,0,0,1,.07,2,5.68,5.68,0,0,1-.58,1.94,5.83,5.83,0,0,1-1.33,1.83,5.59,5.59,0,0,1-3.77,1.49,5.08,5.08,0,0,1-.67,0,5.82,5.82,0,0,1-4.87-6.62,6,6,0,0,1,1.84-3.69A21.78,21.78,0,0,0,239,135.52a1.43,1.43,0,0,1-1.93-.56,1.41,1.41,0,0,1,.56-1.93,24.37,24.37,0,0,1,25,1.89A1.42,1.42,0,0,1,263,136.9Z"/></g><path id="frames" class="cls-8" d="M265.74,119.51c-.49-.42-.94-.76-1.34-1.07l-.48-.35c-.41-.29-.83-.58-1.26-.83h0a26,26,0,0,0-7.23-3.19l-.78-.21a27.38,27.38,0,0,0-6.55-.79c-12,0-22.15,7.68-25.35,18.16l-.21-.15c-.35-.23-.69-.5-1.06-.71s-.76-.37-1.16-.54a11.64,11.64,0,0,0-5-.78,15.46,15.46,0,0,0-4.72,1,15.22,15.22,0,0,0-2.8,1.39c-2.76-11.28-13.38-19.7-26-19.7-12.34,0-22.76,8-25.8,18.91a3.64,3.64,0,0,0-1.24-.14l-27.06,1.15-13.18.57a1.91,1.91,0,0,0-1.59.87,32.39,32.39,0,0,1,3.38,1.85v.15l27.05.29,1.9,0,9.63.11h.26c0,.57-.07,1.15-.07,1.74,0,14.06,12,25.51,26.72,25.51s26.73-11.45,26.73-25.51c0-.85-.05-1.7-.13-2.53,1.08-.3,2.26-.6,3.35-.81a23.09,23.09,0,0,1,3.73-.4,16.18,16.18,0,0,1,3.5.38,16.55,16.55,0,0,1,2.94.92,23.56,23.56,0,0,0-.26,3.48c0,13.9,11.86,25.21,26.42,25.21a27.55,27.55,0,0,0,11.71-2.61l.71-.34a26.63,26.63,0,0,0,8.4-6.74l.29-.36c.22-.28.43-.57.64-.85s.28-.39.39-.57.23-.34.34-.51c.31-.44.58-.9.86-1.39v0a.93.93,0,0,0,.05-.1c.14-.24.26-.47.38-.72a.73.73,0,0,0,.05-.09c.22-.43.42-.86.6-1.3a23.89,23.89,0,0,0,2-9.61A24.8,24.8,0,0,0,265.74,119.51Zm-83.92,40.4c-13.16,0-23.88-10.17-23.88-22.66s10.72-22.67,23.88-22.67,23.88,10.17,23.88,22.67S195,159.91,181.82,159.91Zm89.83-20.56v.06c0,.36,0,.71-.09,1.07l-.09.74c0,.24-.07.49-.12.74s-.08.49-.14.73-.11.49-.17.73-.07.3-.12.45a.17.17,0,0,1,0,.07,4.74,4.74,0,0,1-.15.5s0,0,0,0a3.36,3.36,0,0,1-.14.45,6.45,6.45,0,0,1-.21.62,1.92,1.92,0,0,1-.11.31,2.68,2.68,0,0,0-.12.3h0c-.08.21-.18.42-.26.63-.27.63-.57,1.25-.9,1.85a1.63,1.63,0,0,1-.11.17h0a6.32,6.32,0,0,1-.33.56.59.59,0,0,1,0,.08c-.21.34-.42.67-.66,1a4.92,4.92,0,0,1-.29.41,23.23,23.23,0,0,1-7.67,6.76,7.73,7.73,0,0,1-.69.37,24.52,24.52,0,0,1-11.12,2.65c-13,0-23.57-10-23.57-22.36s10.57-22.38,23.57-22.38a24,24,0,0,1,6.57.89c.26.07.51.14.77.23a23.6,23.6,0,0,1,6.87,3.41,1.31,1.31,0,0,1,.27.21l.1.07.85.65h0l.35.3.16.13c.45.4.88.81,1.3,1.24a21.77,21.77,0,0,1,6.32,15.24C271.67,138.64,271.67,139,271.65,139.35Z"/><g id="lense_highlight"><path class="cls-9" d="M201.33,127.4s7.45,9.23-.32,21.53c0,0-8.43,12.71-25,7.33,0,0,16.07,2.28,23.13-8.36C199.09,147.9,205.22,139.54,201.33,127.4Z"/><path class="cls-9" d="M268.69,146.2c-.13.29-.26.58-.4.87h0c-.27.54-.55,1.09-.89,1.65h0c-.17.32-.36.62-.56.93a21.13,21.13,0,0,1-6.91,6.05c-4.18,2.31-10.23,3.85-18.14,1.29,0,0,10.38,1.47,18.13-3.47a16.86,16.86,0,0,0,5-4.89,18.74,18.74,0,0,0,2.07-4.14h0a23.4,23.4,0,0,0,.71-2.3c.15-.58.28-1.2.4-1.85h0a25.37,25.37,0,0,0-.94-12.19S273.25,135.68,268.69,146.2Z"/></g><g id="glasses_strap"><path id="glasses_strap_left" class="cls-8" d="M273.12,190.34c-.63,20.95-11.18,37.26-31.37,48.49-11.71,6.5-26.25,11.06-43.26,13.58l-.18,0h-.09a7.12,7.12,0,0,0,.16-1.47,3.22,3.22,0,0,0,0-.43h0v0c26.83-4,71.59-17.15,72.87-60.23.52-17.49-.13-31.36-.64-38.77.31-.44.58-.9.86-1.39v0a.93.93,0,0,0,.05-.1c.14-.24.26-.47.38-.72a1,1,0,0,1,.52.77C272.9,157.09,273.68,171.67,273.12,190.34Z"/><path id="glasses_strap_rt" class="cls-8" d="M145.28,135.4c0,.49-.1,1.79-.16,3.28-1,28-4.72,51.87-11,71.28A126.41,126.41,0,0,1,122.63,236c-4.63,7.75-6.73,11.5-7.49,14.72,0,0,0,0,0,0a1,1,0,0,1-.92.73l-.22,0a1,1,0,0,1-.71-1.14c.82-3.49,3-7.34,7.72-15.28a125.33,125.33,0,0,0,11.57-26.4h0c6.06-19.1,9.63-42.54,10.67-70.05,0-1.58.09-2.57.14-3.22Z"/></g></g><g id="necklace"><g id="bead_shade"><path class="cls-10" d="M198.38,250a3.75,3.75,0,0,1,0,.48,6.87,6.87,0,0,0-6.86-6.43,6.34,6.34,0,0,0-1.86.27.37.37,0,0,0-.18.05,6.82,6.82,0,0,0-4.83,6.11,3.75,3.75,0,0,1,0-.48,6.89,6.89,0,0,1,4.57-6.49,6.9,6.9,0,0,0-6.35-4.2,6.75,6.75,0,0,0-2.51.47l.06-1a6.89,6.89,0,0,1,9.09,4.61,6.55,6.55,0,0,1,2-.32A6.9,6.9,0,0,1,198.38,250Z"/><path class="cls-10" d="M187.06,278.82a3.15,3.15,0,0,1,0,.44,5.14,5.14,0,0,0-.23-1.3,4.33,4.33,0,0,0-.4-1.09,6.79,6.79,0,0,0-3.78-3.53,2.4,2.4,0,0,0-.4-.14,6.71,6.71,0,0,0-2.05-.32,6.86,6.86,0,0,0-6.65,5.11,6.87,6.87,0,0,1,2.88,5.61,3,3,0,0,1,0,.43,6.87,6.87,0,0,0-3-5.22l-.08,0a6.71,6.71,0,0,0-3.76-1.12,6.85,6.85,0,0,0-6.21,3.92h0a6.89,6.89,0,0,1,.5,2.58,3,3,0,0,1,0,.42,6.47,6.47,0,0,0-.69-2.51h0a2.47,2.47,0,0,0-.19-.36,6.88,6.88,0,0,0-11.11-1.19s0,0,0,0a.2.2,0,0,0-.08.08,6.78,6.78,0,0,0-1.61,3.55s0,.05-.08.08v-.07a6.85,6.85,0,0,1,1.69-4.51,6.88,6.88,0,0,0-6.82-5.95,6.72,6.72,0,0,0-3.1.74,1.87,1.87,0,0,0-.31.17,6.84,6.84,0,0,0-3,3.59,5.33,5.33,0,0,0-.32,1.12,4.52,4.52,0,0,0-.09.75,3.11,3.11,0,0,1,0-.43,1.27,1.27,0,0,1,0-.28,5.36,5.36,0,0,1,.1-1,6.86,6.86,0,0,1,3.67-4.88.22.22,0,0,1,.11-.05,6.81,6.81,0,0,1,3-.69,6.9,6.9,0,0,1,6.9,6.82,6.81,6.81,0,0,1,5.12-2.3,6.88,6.88,0,0,1,6.18,3.84,6.91,6.91,0,0,1,10.27-3.25,6.88,6.88,0,0,1,6.82-5.93,6.32,6.32,0,0,1,1.85.27.49.49,0,0,1,.2.05A6.85,6.85,0,0,1,186.8,277a4.31,4.31,0,0,1,.2,1A5.29,5.29,0,0,1,187.06,278.82Z"/><path class="cls-10" d="M136.07,238.16c-.12.24-.24.47-.36.68a6.89,6.89,0,0,0-10.57,3.78,6.9,6.9,0,0,1,6.57,6.88,3.87,3.87,0,0,1,0,.48,6.87,6.87,0,0,0-6.73-6.42h-.13A6.88,6.88,0,0,0,118,250a3.87,3.87,0,0,1,0-.48,6.9,6.9,0,0,1,6.9-6.9H125a6.87,6.87,0,0,1,6.81-6A6.8,6.8,0,0,1,136.07,238.16Z"/><path class="cls-10" d="M199.57,260.18a3.62,3.62,0,0,1,0,.47,6.74,6.74,0,0,0-1.25-3.51,5.47,5.47,0,0,0-1-1.08,3.92,3.92,0,0,0-.67-.55,3.47,3.47,0,0,0-.57-.37,6.79,6.79,0,0,0-3.41-.91,6.56,6.56,0,0,0-1.73.22,6.88,6.88,0,0,0-2.68,1.36c-.07.07-.15.12-.22.2a6.25,6.25,0,0,0-.57.58,6.54,6.54,0,0,0-1.13,1.79,6.21,6.21,0,0,0-.55,2.27c0-.15,0-.31,0-.47a6.56,6.56,0,0,1,.27-1.9,6.34,6.34,0,0,1,1-2,5.2,5.2,0,0,1,.46-.59,4.59,4.59,0,0,1,.54-.54,6.23,6.23,0,0,1,1.68-1.14h0a6.83,6.83,0,0,1,6.95.6,4.91,4.91,0,0,1,.47.36,6.27,6.27,0,0,1,1.08,1.16,6.16,6.16,0,0,1,.76,1.29A6.7,6.7,0,0,1,199.57,260.18Z"/><path class="cls-10" d="M133.84,262.12a3.87,3.87,0,0,1,0,.48,6.9,6.9,0,0,0-6.86-6.43,4.41,4.41,0,0,0-.52,0,5.53,5.53,0,0,0-1.08.17,6.29,6.29,0,0,0-2,.82,6.81,6.81,0,0,0-3.29,5.41,3.87,3.87,0,0,1,0-.48,6.79,6.79,0,0,1,2.39-5.2,5.16,5.16,0,0,1,.93-.68,6.74,6.74,0,0,1,3.58-1,6.85,6.85,0,0,1,1.45.16,4.57,4.57,0,0,1,.93.28A6.86,6.86,0,0,1,133.84,262.12Z"/><path class="cls-10" d="M195.75,270.43a3.64,3.64,0,0,1,0,.48,6.55,6.55,0,0,0-1-3.2,5.61,5.61,0,0,0-.58-.8,6.87,6.87,0,0,0-5.26-2.43,6.12,6.12,0,0,0-1.42.16,3.1,3.1,0,0,0-.58.15,6.85,6.85,0,0,0-4.86,6.12,3.64,3.64,0,0,1,0-.48,6.88,6.88,0,0,1,4.45-6.44,3.81,3.81,0,0,1,.44-.15,6.63,6.63,0,0,1,2-.3,6.89,6.89,0,0,1,5.84,3.22,5.15,5.15,0,0,1,.43.8A6.88,6.88,0,0,1,195.75,270.43Z"/><path class="cls-10" d="M141.91,272.22a3.59,3.59,0,0,1,0,.47,6.87,6.87,0,0,0-6.86-6.42,6.5,6.5,0,0,0-2.17.36,5.39,5.39,0,0,0-1.21.52,6.65,6.65,0,0,0-1.32,1,6.34,6.34,0,0,0-1.2,1.48,6.5,6.5,0,0,0-1,3.08,3.59,3.59,0,0,1,0-.47,6.78,6.78,0,0,1,.46-2.47,5.53,5.53,0,0,1,.54-1.09,6.79,6.79,0,0,1,3.73-3,2.46,2.46,0,0,1,.53-.15,6.3,6.3,0,0,1,1.64-.21A6.89,6.89,0,0,1,141.91,272.22Z"/></g><g id="beads"><path class="cls-11" d="M135.71,238.84c-1.9,3.67-3.88,6.28-5.17,6.83a6.83,6.83,0,0,0-5.4-3,6.89,6.89,0,0,1,10.57-3.78Z"/><path class="cls-11" d="M198.38,251a7.12,7.12,0,0,1-.16,1.47,6.61,6.61,0,0,1-1.08,2.47,4.91,4.91,0,0,0-.47-.36,6.83,6.83,0,0,0-6.95-.6h0A6.23,6.23,0,0,0,188,255.1a4.59,4.59,0,0,0-.54.54,5.2,5.2,0,0,0-.46.59,6.71,6.71,0,0,1-2.18-3.42,3.88,3.88,0,0,1-.18-.9,1.75,1.75,0,0,1,0-.33h0l-.15-.09a2.9,2.9,0,0,0-.31-.19.71.71,0,0,0-.14-.1l-.37-.26a9.15,9.15,0,0,1-1.36-1.7.83.83,0,0,1-.07-.13,15.94,15.94,0,0,1-1.59-4.29l-.06-.32a22.58,22.58,0,0,1-.27-4.68,6.75,6.75,0,0,1,2.51-.47,6.9,6.9,0,0,1,6.35,4.2,6.89,6.89,0,0,0-4.57,6.49,3.75,3.75,0,0,0,0,.48,6.82,6.82,0,0,1,4.83-6.11.37.37,0,0,1,.18-.05,6.34,6.34,0,0,1,1.86-.27,6.87,6.87,0,0,1,6.86,6.43h0v0h0A3.22,3.22,0,0,1,198.38,251Z"/><path class="cls-11" d="M131.71,250.44h0a4.8,4.8,0,0,1-.08.93,6.82,6.82,0,0,1-2.3,4.28,4.57,4.57,0,0,0-.93-.28,6.85,6.85,0,0,0-1.45-.16,6.74,6.74,0,0,0-3.58,1,5.16,5.16,0,0,0-.93.68,6.89,6.89,0,0,1-4.52-6.47,3.4,3.4,0,0,1,0-.45s0,0,0,0a6.88,6.88,0,0,1,6.87-6.43H125a6.87,6.87,0,0,1,6.73,6.42A3.44,3.44,0,0,1,131.71,250.44Z"/><path class="cls-11" d="M199.57,261.13a6.76,6.76,0,0,1-.95,3.49,6.83,6.83,0,0,1-3.5,2.94,5.15,5.15,0,0,0-.43-.8,6.89,6.89,0,0,0-5.84-3.22,6.63,6.63,0,0,0-2,.3,3.81,3.81,0,0,0-.44.15,6.68,6.68,0,0,1-.62-2.86c0-.17,0-.32,0-.48a6.21,6.21,0,0,1,.55-2.27,6.54,6.54,0,0,1,1.13-1.79,6.25,6.25,0,0,1,.57-.58c.07-.08.15-.13.22-.2a6.88,6.88,0,0,1,2.68-1.36,6.56,6.56,0,0,1,1.73-.22,6.79,6.79,0,0,1,3.41.91,3.47,3.47,0,0,1,.57.37,3.92,3.92,0,0,1,.67.55,5.47,5.47,0,0,1,1,1.08,6.74,6.74,0,0,1,1.25,3.51A3.77,3.77,0,0,1,199.57,261.13Z"/><path class="cls-11" d="M133.84,263.07a6.72,6.72,0,0,1-.46,2.46,2.46,2.46,0,0,0-.53.15,6.79,6.79,0,0,0-3.73,3,5.53,5.53,0,0,0-.54,1.09A6.28,6.28,0,0,1,127,270a6.9,6.9,0,0,1-6.9-6.89,3.71,3.71,0,0,1,0-.47,6.81,6.81,0,0,1,3.29-5.41,6.29,6.29,0,0,1,2-.82,4.87,4.87,0,0,0,1.08-.17,4.41,4.41,0,0,1,.52,0,6.9,6.9,0,0,1,6.86,6.43A3.71,3.71,0,0,1,133.84,263.07Z"/><path class="cls-11" d="M195.75,271.38a6.89,6.89,0,0,1-6.9,6.89A6.66,6.66,0,0,1,187,278a4.31,4.31,0,0,0-.2-1,6.85,6.85,0,0,0-4.58-4.76.49.49,0,0,0-.2-.05,5.55,5.55,0,0,1-.06-.82,3.71,3.71,0,0,1,0-.47,6.85,6.85,0,0,1,4.86-6.12,3.1,3.1,0,0,1,.58-.15,6.12,6.12,0,0,1,1.42-.16,6.87,6.87,0,0,1,5.26,2.43,5.61,5.61,0,0,1,.58.8,6.55,6.55,0,0,1,1,3.2A3.71,3.71,0,0,1,195.75,271.38Z"/><path class="cls-11" d="M141.91,273.17a1.18,1.18,0,0,1,0,.27.22.22,0,0,0-.11.05,6.86,6.86,0,0,0-3.67,4.88,5.36,5.36,0,0,0-.1,1,6.68,6.68,0,0,1-3,.7,6.89,6.89,0,0,1-6.9-6.89,3.87,3.87,0,0,1,0-.48,6.5,6.5,0,0,1,1-3.08,6.34,6.34,0,0,1,1.2-1.48,6.65,6.65,0,0,1,1.32-1,5.39,5.39,0,0,1,1.21-.52,6.5,6.5,0,0,1,2.17-.36,6.87,6.87,0,0,1,6.86,6.42A3.87,3.87,0,0,1,141.91,273.17Z"/><path class="cls-11" d="M150,284.23a2.1,2.1,0,0,0,0,.36h0s0,0,0,0h0a3.64,3.64,0,0,0,0,.48v.07a6.8,6.8,0,0,1-5.13,2.31,6.9,6.9,0,0,1-6.89-6.9,3.87,3.87,0,0,1,0-.48v0h0a0,0,0,0,1,0,0,4.52,4.52,0,0,1,.09-.75,5.33,5.33,0,0,1,.32-1.12,6.84,6.84,0,0,1,3-3.59,1.87,1.87,0,0,1,.31-.17,6.72,6.72,0,0,1,3.1-.74,6.88,6.88,0,0,1,6.82,5.95,6.85,6.85,0,0,0-1.69,4.51Z"/><path class="cls-11" d="M187.06,279.77a6.89,6.89,0,0,1-10.73,5.73,6.89,6.89,0,0,1-13,2.09A6.89,6.89,0,0,1,150,285.18l.08-.08a1.88,1.88,0,0,1-.05-.47v0h0a2.12,2.12,0,0,1,.05-.44,6.78,6.78,0,0,1,1.61-3.55.2.2,0,0,1,.08-.08s0,0,0,0a6.88,6.88,0,0,1,11.11,1.19,2.47,2.47,0,0,1,.19.36h0a6.47,6.47,0,0,1,.69,2.51,3,3,0,0,0,0-.42,6.89,6.89,0,0,0-.5-2.58h0a6.85,6.85,0,0,1,6.21-3.92,6.71,6.71,0,0,1,3.76,1.12l.08,0a6.87,6.87,0,0,1,3,5.22,3,3,0,0,0,0-.43,6.87,6.87,0,0,0-2.88-5.61,6.86,6.86,0,0,1,6.65-5.11,6.71,6.71,0,0,1,2.05.32,2.4,2.4,0,0,1,.4.14,6.79,6.79,0,0,1,3.78,3.53,4.33,4.33,0,0,1,.4,1.09,5.14,5.14,0,0,1,.23,1.3h0a0,0,0,0,1,0,0h0A3.59,3.59,0,0,1,187.06,279.77Z"/></g></g><path id="mouth" class="cls-7" d="M211.15,191.84s-19.92,15.38-30.57.89c0,0-8.45-13.13,12.72-20.63l0,0c0,.11.11.38.26.8C194.78,176.38,200,189.37,211.15,191.84Z"/><path id="hair" class="cls-12" d="M285.71,99.87C298.25,89.26,287.93,73,287.93,73c7-10.45-4.75-18.68-4.75-18.68C276.53,34.32,252.46,40,252.46,40c-1-17.68-17.1-25.66-17.1-25.66-22-12.93-40.17-.45-40.17-.45C185.83-5.33,157.76,2,157.76,2,122.93,7.33,127.62,32.1,127.62,32.1c-13.18-21.22-37-3.48-37-3.48C69.11,39.7,73.21,60,73.21,60c-36.64,11.9-13,36.73-13,36.73-29.13,11.72-20.39,46.9-20.39,46.9C38.49,160.19,54.33,167.73,57,168.45a.27.27,0,0,1,.25-.09c.23.16.12.19-.25.09-1.63,1.39-4,18.74,5.17,27.69,15.84,15.53,35.16,8.55,35.16,8.55,21.52,10.32,28.11-2.76,28.63-3.89l0-.07c-6.57-10.08-7.4-35.81-7.4-35.81h0l-.24.12a.2.2,0,0,1,0-.07c-5.32.84-10.49-6.25-11.09-7.1a.15.15,0,0,0,0-.06,0,0,0,0,1,0,0C95.06,143.69,100,134,100,134c2.48-4.2,7.82-3,11.74-1.41l.09,0c.41.17.79.35,1.16.52a1.91,1.91,0,0,1,1.59-.87l13.18-.57c6.84-6.92-3-24.38-3-24.38,14.47-3.53,2.72-17.67,2.72-17.67A56.54,56.54,0,0,0,141,91c30.22-.64,25.18-16.84,25.18-16.84,11.25,12.18,27.64,19,27.64,19,32.15,12.21,35.69-1.93,35.69-1.93,8,7.5,15.47,8.13,20.38,7.29a17,17,0,0,0,6-2.15c.36.73.72,1.49,1.05,2.28.17.39.33.79.5,1.19l.49,1.22.28.74c.12.34.26.69.38,1s.34,1,.5,1.43c.23.67.45,1.35.67,2a2.17,2.17,0,0,0,.07.24,6.17,6.17,0,0,1,.19.61c.15.49.3,1,.44,1.48.08.3.17.59.25.89s.15.51.21.76c.14.46.26.92.38,1.39s.21.8.32,1.2.2.79.29,1.2c.15.6.29,1.21.44,1.8s.22.94.32,1.41h0c.43.25.85.54,1.26.83l.48.35c.4.31.85.65,1.34,1.07a24.8,24.8,0,0,1,8.78,18.78,23.89,23.89,0,0,1-2,9.61c-.18.44-.38.87-.6,1.3,20.62-1.86,16-16.71,16-16.71C298.06,108.74,285.71,99.87,285.71,99.87ZM45.5,129.61c0-.41,0-.65,0-.65,2.19,29.12,21.24,32,21.24,32C45.51,161.53,45.37,134.22,45.5,129.61Zm57.17,46.64s-1.54,18.83-21.24,18.17c0,0,19.08-5.33,16.42-18.6-.22-1.09-.44-15.33-16-26.06C81.46,149.48,100.91,152.39,102.67,176.25Zm.87-58.9S97,127,81.21,122c0,0,29.13,5.7,28-30.87C109.24,91.08,116.69,105.31,103.54,117.35Zm-9-83c.22-.23,28.33-14.62,33.49,14.45C128.06,48.82,120,25.17,94.57,34.37Zm52.77,36.57s27.13-5.24,29.14-24.44a25.73,25.73,0,0,0-1.12-10.16,26.46,26.46,0,0,1,2.46,10C178.22,55.25,173.63,67.45,147.34,70.94Zm65.9-54.53c.63,0,35.83,7.44,24.34,47.56C238.15,61.47,244.53,30.48,213.24,16.41Zm41.34,73.51a4.79,4.79,0,0,1-.75.48,14,14,0,0,1-6.33,1.85c-3.48.26-7.93-.34-13.64-2.26a34.82,34.82,0,0,0,12.82.31,19.15,19.15,0,0,0,6.13-2.18l.68-.42a14.3,14.3,0,0,0,6.17-9.32C259.69,78.26,260.25,85.92,254.58,89.92Zm14.28-43.06c-.7-.63,14.67,2.62,9.19,26.26C278.05,73.12,279.36,56.27,268.86,46.86Zm10.28,91.29c8.84-20.83,1.91-33.57,1.36-34.53C292.68,116.75,278.79,139,279.14,138.15Z"/><g id="hair_highlights"><path class="cls-13" d="M278.05,73.12s1.31-16.85-9.19-26.26C268.16,46.23,283.53,49.48,278.05,73.12Z"/><path class="cls-13" d="M254.58,89.92a4.79,4.79,0,0,1-.75.48,14,14,0,0,1-6.33,1.85c-3.48.26-7.93-.34-13.64-2.26a34.82,34.82,0,0,0,12.82.31,19.15,19.15,0,0,0,6.13-2.18l.68-.42a14.3,14.3,0,0,0,6.17-9.32C259.69,78.26,260.25,85.92,254.58,89.92Z"/><path class="cls-13" d="M237.58,64c.57-2.5,6.95-33.49-24.34-47.56C213.87,16.4,249.07,23.85,237.58,64Z"/><path class="cls-13" d="M147.34,70.94s27.13-5.24,29.14-24.44a25.73,25.73,0,0,0-1.12-10.16,26.46,26.46,0,0,1,2.46,10C178.22,55.25,173.63,67.45,147.34,70.94Z"/><path class="cls-13" d="M128.06,48.82S120,25.17,94.57,34.37C94.79,34.14,122.9,19.75,128.06,48.82Z"/><path class="cls-13" d="M103.54,117.35S97,127,81.21,122c0,0,29.13,5.7,28-30.87C109.24,91.08,116.69,105.31,103.54,117.35Z"/><path class="cls-13" d="M102.67,176.25s-1.54,18.83-21.24,18.17c0,0,19.08-5.33,16.42-18.6-.22-1.09-.44-15.33-16-26.06C81.46,149.48,100.91,152.39,102.67,176.25Z"/><path class="cls-13" d="M66.76,160.93c-21.25.6-21.39-26.71-21.26-31.32,0-.41,0-.65,0-.65C47.71,158.08,66.76,160.93,66.76,160.93Z"/><path class="cls-13" d="M279.14,138.15c8.84-20.83,1.91-33.57,1.36-34.53C292.68,116.75,278.79,139,279.14,138.15Z"/></g></svg>