<svg id="Layer_1" data-name="Layer 1" xmlns="http://www.w3.org/2000/svg" viewBox="0 0 295.06 383.61"><defs><style>.cls-1{fill:#e2ab90;}.cls-2{fill:#d19479;}.cls-3{fill:#ee2f79;}.cls-4{fill:#b31f58;}.cls-5{fill:#231f20;}.cls-6{fill:#fff;}.cls-7{fill:#010101;}.cls-8{fill:#c4c4c4;}.cls-9{fill:#f6e4cd;}.cls-10{fill:#fff6e7;}.cls-11{fill:#8d6855;}.cls-12{fill:#937366;}</style></defs><g id="skin"><path id="chest" class="cls-1" d="M145.51,298.89a2.43,2.43,0,0,0,0,.38,2.42,2.42,0,0,1,.05-.47A.22.22,0,0,1,145.51,298.89Zm0,.42a4.07,4.07,0,0,0,0,.5v.08a.22.22,0,0,0,.08-.09A2,2,0,0,1,145.54,299.31Zm0-.42a2.43,2.43,0,0,0,0,.38,2.42,2.42,0,0,1,.05-.47A.22.22,0,0,1,145.51,298.89Zm0,.42a4.07,4.07,0,0,0,0,.5v.08a.22.22,0,0,0,.08-.09A2,2,0,0,1,145.54,299.31Zm0,0a4.07,4.07,0,0,0,0,.5v.08a.22.22,0,0,0,.08-.09A2,2,0,0,1,145.54,299.31Zm0-.42a2.43,2.43,0,0,0,0,.38,2.42,2.42,0,0,1,.05-.47A.22.22,0,0,1,145.51,298.89Zm0,.42a4.07,4.07,0,0,0,0,.5v.08a.22.22,0,0,0,.08-.09A2,2,0,0,1,145.54,299.31Zm0,0a4.07,4.07,0,0,0,0,.5v.08a.22.22,0,0,0,.08-.09A2,2,0,0,1,145.54,299.31Zm0-.42a2.43,2.43,0,0,0,0,.38,2.42,2.42,0,0,1,.05-.47A.22.22,0,0,1,145.51,298.89Zm0,.42a4.07,4.07,0,0,0,0,.5v.08a.22.22,0,0,0,.08-.09A2,2,0,0,1,145.54,299.31Zm0,0a4.07,4.07,0,0,0,0,.5v.08a.22.22,0,0,0,.08-.09A2,2,0,0,1,145.54,299.31Zm0-.42a2.43,2.43,0,0,0,0,.38,2.42,2.42,0,0,1,.05-.47A.22.22,0,0,1,145.51,298.89Zm0,.42a4.07,4.07,0,0,0,0,.5v.08a.22.22,0,0,0,.08-.09A2,2,0,0,1,145.54,299.31Zm0,0a4.07,4.07,0,0,0,0,.5v.08a.22.22,0,0,0,.08-.09A2,2,0,0,1,145.54,299.31Zm0-.42a2.43,2.43,0,0,0,0,.38,2.42,2.42,0,0,1,.05-.47A.22.22,0,0,1,145.51,298.89Zm0,.42a4.07,4.07,0,0,0,0,.5v.08a.22.22,0,0,0,.08-.09A2,2,0,0,1,145.54,299.31Zm0,0a4.07,4.07,0,0,0,0,.5v.08a.22.22,0,0,0,.08-.09A2,2,0,0,1,145.54,299.31Zm0-.42a2.43,2.43,0,0,0,0,.38,2.42,2.42,0,0,1,.05-.47A.22.22,0,0,1,145.51,298.89Zm0,.42a4.07,4.07,0,0,0,0,.5v.08a.22.22,0,0,0,.08-.09A2,2,0,0,1,145.54,299.31Zm0,0a4.07,4.07,0,0,0,0,.5v.08a.22.22,0,0,0,.08-.09A2,2,0,0,1,145.54,299.31Zm0-.42a2.43,2.43,0,0,0,0,.38,2.42,2.42,0,0,1,.05-.47A.22.22,0,0,1,145.51,298.89Zm0,.42a4.07,4.07,0,0,0,0,.5v.08a.22.22,0,0,0,.08-.09A2,2,0,0,1,145.54,299.31Zm0,0a4.07,4.07,0,0,0,0,.5v.08a.22.22,0,0,0,.08-.09A2,2,0,0,1,145.54,299.31Zm0-.42a2.43,2.43,0,0,0,0,.38,2.42,2.42,0,0,1,.05-.47A.22.22,0,0,1,145.51,298.89Zm0,.42a4.07,4.07,0,0,0,0,.5v.08a.22.22,0,0,0,.08-.09A2,2,0,0,1,145.54,299.31Zm0,0a4.07,4.07,0,0,0,0,.5v.08a.22.22,0,0,0,.08-.09A2,2,0,0,1,145.54,299.31Zm0-.42a2.43,2.43,0,0,0,0,.38,2.42,2.42,0,0,1,.05-.47A.22.22,0,0,1,145.51,298.89Zm0,.42a4.07,4.07,0,0,0,0,.5v.08a.22.22,0,0,0,.08-.09A2,2,0,0,1,145.54,299.31Zm0,0a4.07,4.07,0,0,0,0,.5v.08a.22.22,0,0,0,.08-.09A2,2,0,0,1,145.54,299.31Zm0-.42a2.43,2.43,0,0,0,0,.38,2.42,2.42,0,0,1,.05-.47A.22.22,0,0,1,145.51,298.89Zm0,.42a4.07,4.07,0,0,0,0,.5v.08a.22.22,0,0,0,.08-.09A2,2,0,0,1,145.54,299.31Zm0,0a4.07,4.07,0,0,0,0,.5v.08a.22.22,0,0,0,.08-.09A2,2,0,0,1,145.54,299.31Zm0-.42a2.43,2.43,0,0,0,0,.38,2.42,2.42,0,0,1,.05-.47A.22.22,0,0,1,145.51,298.89Zm0,.42a4.07,4.07,0,0,0,0,.5v.08a.22.22,0,0,0,.08-.09A2,2,0,0,1,145.54,299.31Zm0,0a4.07,4.07,0,0,0,0,.5v.08a.22.22,0,0,0,.08-.09A2,2,0,0,1,145.54,299.31Zm0-.42a2.43,2.43,0,0,0,0,.38,2.42,2.42,0,0,1,.05-.47A.22.22,0,0,1,145.51,298.89Zm0,.42a4.07,4.07,0,0,0,0,.5v.08a.22.22,0,0,0,.08-.09A2,2,0,0,1,145.54,299.31Zm0,0a4.07,4.07,0,0,0,0,.5v.08a.22.22,0,0,0,.08-.09A2,2,0,0,1,145.54,299.31Zm0-.42a2.43,2.43,0,0,0,0,.38,2.42,2.42,0,0,1,.05-.47A.22.22,0,0,1,145.51,298.89Zm0,.42a4.07,4.07,0,0,0,0,.5v.08a.22.22,0,0,0,.08-.09A2,2,0,0,1,145.54,299.31Zm0,0a4.07,4.07,0,0,0,0,.5v.08a.22.22,0,0,0,.08-.09A2,2,0,0,1,145.54,299.31Zm0-.42a2.43,2.43,0,0,0,0,.38,2.42,2.42,0,0,1,.05-.47A.22.22,0,0,1,145.51,298.89Zm0,.42a4.07,4.07,0,0,0,0,.5v.08a.22.22,0,0,0,.08-.09A2,2,0,0,1,145.54,299.31Zm0,0a4.07,4.07,0,0,0,0,.5v.08a.22.22,0,0,0,.08-.09A2,2,0,0,1,145.54,299.31Zm0-.42a2.43,2.43,0,0,0,0,.38,2.42,2.42,0,0,1,.05-.47A.22.22,0,0,1,145.51,298.89Zm0,.42a4.07,4.07,0,0,0,0,.5v.08a.22.22,0,0,0,.08-.09A2,2,0,0,1,145.54,299.31Zm-26-29.78a5.42,5.42,0,0,0,1.14-.18A5.42,5.42,0,0,0,119.52,269.53Zm26,29.78a4.07,4.07,0,0,0,0,.5v.08a.22.22,0,0,0,.08-.09A2,2,0,0,1,145.54,299.31Zm0-.42a2.43,2.43,0,0,0,0,.38,2.42,2.42,0,0,1,.05-.47A.22.22,0,0,1,145.51,298.89Zm0,.42a4.07,4.07,0,0,0,0,.5v.08a.22.22,0,0,0,.08-.09A2,2,0,0,1,145.54,299.31Zm-26-29.78a5.42,5.42,0,0,0,1.14-.18A5.42,5.42,0,0,0,119.52,269.53Zm26,29.78a4.07,4.07,0,0,0,0,.5v.08a.22.22,0,0,0,.08-.09A2,2,0,0,1,145.54,299.31Zm-26-29.78a5.42,5.42,0,0,0,1.14-.18A5.42,5.42,0,0,0,119.52,269.53Zm26,29.78a4.07,4.07,0,0,0,0,.5v.08a.22.22,0,0,0,.08-.09A2,2,0,0,1,145.54,299.31Zm-26-29.78a5.42,5.42,0,0,0,1.14-.18A5.42,5.42,0,0,0,119.52,269.53Zm26,29.78a4.07,4.07,0,0,0,0,.5v.08a.22.22,0,0,0,.08-.09A2,2,0,0,1,145.54,299.31Zm0-.42a2.43,2.43,0,0,0,0,.38,2.42,2.42,0,0,1,.05-.47A.22.22,0,0,1,145.51,298.89Zm-26-29.36a5.42,5.42,0,0,0,1.14-.18A5.42,5.42,0,0,0,119.52,269.53Zm26,29.78a4.07,4.07,0,0,0,0,.5v.08a.22.22,0,0,0,.08-.09A2,2,0,0,1,145.54,299.31Zm0-.42a2.43,2.43,0,0,0,0,.38,2.42,2.42,0,0,1,.05-.47A.22.22,0,0,1,145.51,298.89Zm-26-29.36a5.42,5.42,0,0,0,1.14-.18A5.42,5.42,0,0,0,119.52,269.53Zm26,29.78a4.07,4.07,0,0,0,0,.5v.08a.22.22,0,0,0,.08-.09A2,2,0,0,1,145.54,299.31Zm0-.42a2.43,2.43,0,0,0,0,.38,2.42,2.42,0,0,1,.05-.47A.22.22,0,0,1,145.51,298.89Zm-26-29.36a5.42,5.42,0,0,0,1.14-.18A5.42,5.42,0,0,0,119.52,269.53Zm26,29.78a4.07,4.07,0,0,0,0,.5v.08a.22.22,0,0,0,.08-.09A2,2,0,0,1,145.54,299.31Zm0-.42a2.43,2.43,0,0,0,0,.38,2.42,2.42,0,0,1,.05-.47A.22.22,0,0,1,145.51,298.89Zm-26-29.36a5.42,5.42,0,0,0,1.14-.18A5.42,5.42,0,0,0,119.52,269.53Zm26,29.78a4.07,4.07,0,0,0,0,.5v.08a.22.22,0,0,0,.08-.09A2,2,0,0,1,145.54,299.31Zm0-.42a2.43,2.43,0,0,0,0,.38,2.42,2.42,0,0,1,.05-.47A.22.22,0,0,1,145.51,298.89Zm-81.67,84.7-6.31-32.88c2.7,21.16-.71,32.85-.71,32.85ZM65,272.31c6.64-1,11.93-2,16.36-2.81C76.14,270.46,70.65,271.41,65,272.31Zm54.51-2.78a5.42,5.42,0,0,0,1.14-.18A5.42,5.42,0,0,0,119.52,269.53Zm26,29.78a4.07,4.07,0,0,0,0,.5v.08a.22.22,0,0,0,.08-.09A2,2,0,0,1,145.54,299.31Zm0-.42a2.43,2.43,0,0,0,0,.38,2.42,2.42,0,0,1,.05-.47A.22.22,0,0,1,145.51,298.89ZM202,302.08a198.34,198.34,0,0,0-5.27-23.86,7.18,7.18,0,0,1-3.68,3.1,7.29,7.29,0,0,1,.66,3,4.07,4.07,0,0,1,0,.5,4.19,4.19,0,0,1,0,.5,7.26,7.26,0,0,1-7.27,7.26,7,7,0,0,1-1.95-.27,6,6,0,0,1,.06.85,3.55,3.55,0,0,1,0,.46h0a0,0,0,0,1,0,0h0a4.07,4.07,0,0,1,0,.5,7.27,7.27,0,0,1-11.31,6,7.25,7.25,0,0,1-13.69,2.2,7.26,7.26,0,0,1-14-2.54,7.25,7.25,0,0,1-12.67-4.84,4.07,4.07,0,0,1,0-.5h0s0,0,0,0h0a0,0,0,0,1,0,0,3.29,3.29,0,0,1,0-.45,1.37,1.37,0,0,1,0-.29,7.08,7.08,0,0,1-3.15.73,7.26,7.26,0,0,1-7.27-7.26,4.19,4.19,0,0,1,0-.5,4.07,4.07,0,0,1,0-.5,7,7,0,0,1,.49-2.6,6.54,6.54,0,0,1-1.72.22,7.27,7.27,0,0,1-7.27-7.26,4.19,4.19,0,0,1,0-.5,4.07,4.07,0,0,1,0-.5,7.18,7.18,0,0,1,2.51-5.48,7.26,7.26,0,0,1-4.76-6.82,3.59,3.59,0,0,1,0-.47c-1,.26-1.94.53-3,.79l-1.73.44-1.28.32c2.36,3.92-1.53,40.89,7,65.41,8.26,23.78,25.8,29.63,34,32a61.54,61.54,0,0,0,14,2.24s0,0,0,0h.84c10.44.4,21.17-1.5,27.79-5.91,8.46-5.64,11.23-11.89,12.88-21.47A105.07,105.07,0,0,0,202,302.08Zm-56.41-3.28a.22.22,0,0,1-.08.09,2.43,2.43,0,0,0,0,.38A2.42,2.42,0,0,1,145.59,298.8Zm-.05.51a4.07,4.07,0,0,0,0,.5v.08a.22.22,0,0,0,.08-.09A2,2,0,0,1,145.54,299.31Zm-26-29.78a5.42,5.42,0,0,0,1.14-.18A5.42,5.42,0,0,0,119.52,269.53Zm126,114-4.21-27.15c1.59,17.52-1.56,27.07-1.56,27.07Zm-100-84.66a2.43,2.43,0,0,0,0,.38,2.42,2.42,0,0,1,.05-.47A.22.22,0,0,1,145.51,298.89Zm0,.42a4.07,4.07,0,0,0,0,.5v.08a.22.22,0,0,0,.08-.09A2,2,0,0,1,145.54,299.31Zm-26-29.78a5.42,5.42,0,0,0,1.14-.18A5.42,5.42,0,0,0,119.52,269.53Zm26,29.36a2.43,2.43,0,0,0,0,.38,2.42,2.42,0,0,1,.05-.47A.22.22,0,0,1,145.51,298.89Zm0,.42a4.07,4.07,0,0,0,0,.5v.08a.22.22,0,0,0,.08-.09A2,2,0,0,1,145.54,299.31Zm-26-29.78a5.42,5.42,0,0,0,1.14-.18A5.42,5.42,0,0,0,119.52,269.53Zm26,29.36a2.43,2.43,0,0,0,0,.38,2.42,2.42,0,0,1,.05-.47A.22.22,0,0,1,145.51,298.89Zm0,.42a4.07,4.07,0,0,0,0,.5v.08a.22.22,0,0,0,.08-.09A2,2,0,0,1,145.54,299.31Zm-26-29.78a5.42,5.42,0,0,0,1.14-.18A5.42,5.42,0,0,0,119.52,269.53Zm26,29.36a2.43,2.43,0,0,0,0,.38,2.42,2.42,0,0,1,.05-.47A.22.22,0,0,1,145.51,298.89Zm0,.42a4.07,4.07,0,0,0,0,.5v.08a.22.22,0,0,0,.08-.09A2,2,0,0,1,145.54,299.31Zm-26-29.78a5.42,5.42,0,0,0,1.14-.18A5.42,5.42,0,0,0,119.52,269.53Zm26,29.36a2.43,2.43,0,0,0,0,.38,2.42,2.42,0,0,1,.05-.47A.22.22,0,0,1,145.51,298.89Zm0,.42a4.07,4.07,0,0,0,0,.5v.08a.22.22,0,0,0,.08-.09A2,2,0,0,1,145.54,299.31Zm-26-29.78a5.42,5.42,0,0,0,1.14-.18A5.42,5.42,0,0,0,119.52,269.53Zm26,29.36a2.43,2.43,0,0,0,0,.38,2.42,2.42,0,0,1,.05-.47A.22.22,0,0,1,145.51,298.89Zm0,.42a4.07,4.07,0,0,0,0,.5v.08a.22.22,0,0,0,.08-.09A2,2,0,0,1,145.54,299.31Zm-26-29.78a5.42,5.42,0,0,0,1.14-.18A5.42,5.42,0,0,0,119.52,269.53Zm26,29.78a4.07,4.07,0,0,0,0,.5v.08a.22.22,0,0,0,.08-.09A2,2,0,0,1,145.54,299.31Zm-26-29.78a5.42,5.42,0,0,0,1.14-.18A5.42,5.42,0,0,0,119.52,269.53Zm26,29.78a4.07,4.07,0,0,0,0,.5v.08a.22.22,0,0,0,.08-.09A2,2,0,0,1,145.54,299.31Zm0-.42a2.43,2.43,0,0,0,0,.38,2.42,2.42,0,0,1,.05-.47A.22.22,0,0,1,145.51,298.89Zm0,.42a4.07,4.07,0,0,0,0,.5v.08a.22.22,0,0,0,.08-.09A2,2,0,0,1,145.54,299.31Zm-26-29.78a5.42,5.42,0,0,0,1.14-.18A5.42,5.42,0,0,0,119.52,269.53Zm26,29.78a4.07,4.07,0,0,0,0,.5v.08a.22.22,0,0,0,.08-.09A2,2,0,0,1,145.54,299.31Zm0-.42a2.43,2.43,0,0,0,0,.38,2.42,2.42,0,0,1,.05-.47A.22.22,0,0,1,145.51,298.89Zm0,.42a4.07,4.07,0,0,0,0,.5v.08a.22.22,0,0,0,.08-.09A2,2,0,0,1,145.54,299.31Zm0,0a4.07,4.07,0,0,0,0,.5v.08a.22.22,0,0,0,.08-.09A2,2,0,0,1,145.54,299.31Zm0-.42a2.43,2.43,0,0,0,0,.38,2.42,2.42,0,0,1,.05-.47A.22.22,0,0,1,145.51,298.89Zm0,.42a4.07,4.07,0,0,0,0,.5v.08a.22.22,0,0,0,.08-.09A2,2,0,0,1,145.54,299.31Zm0,0a4.07,4.07,0,0,0,0,.5v.08a.22.22,0,0,0,.08-.09A2,2,0,0,1,145.54,299.31Zm0-.42a2.43,2.43,0,0,0,0,.38,2.42,2.42,0,0,1,.05-.47A.22.22,0,0,1,145.51,298.89Zm0,.42a4.07,4.07,0,0,0,0,.5v.08a.22.22,0,0,0,.08-.09A2,2,0,0,1,145.54,299.31Zm0,0a4.07,4.07,0,0,0,0,.5v.08a.22.22,0,0,0,.08-.09A2,2,0,0,1,145.54,299.31Zm0-.42a2.43,2.43,0,0,0,0,.38,2.42,2.42,0,0,1,.05-.47A.22.22,0,0,1,145.51,298.89Zm0,.42a4.07,4.07,0,0,0,0,.5v.08a.22.22,0,0,0,.08-.09A2,2,0,0,1,145.54,299.31Zm0,0a4.07,4.07,0,0,0,0,.5v.08a.22.22,0,0,0,.08-.09A2,2,0,0,1,145.54,299.31Zm0-.42a2.43,2.43,0,0,0,0,.38,2.42,2.42,0,0,1,.05-.47A.22.22,0,0,1,145.51,298.89Zm0,.42a4.07,4.07,0,0,0,0,.5v.08a.22.22,0,0,0,.08-.09A2,2,0,0,1,145.54,299.31Zm0,0a4.07,4.07,0,0,0,0,.5v.08a.22.22,0,0,0,.08-.09A2,2,0,0,1,145.54,299.31Zm0-.42a2.43,2.43,0,0,0,0,.38,2.42,2.42,0,0,1,.05-.47A.22.22,0,0,1,145.51,298.89Zm0,.42a4.07,4.07,0,0,0,0,.5v.08a.22.22,0,0,0,.08-.09A2,2,0,0,1,145.54,299.31Zm0,0a4.07,4.07,0,0,0,0,.5v.08a.22.22,0,0,0,.08-.09A2,2,0,0,1,145.54,299.31Zm0-.42a2.43,2.43,0,0,0,0,.38,2.42,2.42,0,0,1,.05-.47A.22.22,0,0,1,145.51,298.89Zm0,.42a4.07,4.07,0,0,0,0,.5v.08a.22.22,0,0,0,.08-.09A2,2,0,0,1,145.54,299.31Zm0,0a4.07,4.07,0,0,0,0,.5v.08a.22.22,0,0,0,.08-.09A2,2,0,0,1,145.54,299.31Zm0-.42a2.43,2.43,0,0,0,0,.38,2.42,2.42,0,0,1,.05-.47A.22.22,0,0,1,145.51,298.89Zm0,.42a4.07,4.07,0,0,0,0,.5v.08a.22.22,0,0,0,.08-.09A2,2,0,0,1,145.54,299.31Zm0,0a4.07,4.07,0,0,0,0,.5v.08a.22.22,0,0,0,.08-.09A2,2,0,0,1,145.54,299.31Zm0-.42a2.43,2.43,0,0,0,0,.38,2.42,2.42,0,0,1,.05-.47A.22.22,0,0,1,145.51,298.89Zm0,.42a4.07,4.07,0,0,0,0,.5v.08a.22.22,0,0,0,.08-.09A2,2,0,0,1,145.54,299.31Zm0,0a4.07,4.07,0,0,0,0,.5v.08a.22.22,0,0,0,.08-.09A2,2,0,0,1,145.54,299.31Zm0-.42a2.43,2.43,0,0,0,0,.38,2.42,2.42,0,0,1,.05-.47A.22.22,0,0,1,145.51,298.89Zm0,.42a4.07,4.07,0,0,0,0,.5v.08a.22.22,0,0,0,.08-.09A2,2,0,0,1,145.54,299.31Zm0,0a4.07,4.07,0,0,0,0,.5v.08a.22.22,0,0,0,.08-.09A2,2,0,0,1,145.54,299.31Zm0-.42a2.43,2.43,0,0,0,0,.38,2.42,2.42,0,0,1,.05-.47A.22.22,0,0,1,145.51,298.89Zm0,.42a4.07,4.07,0,0,0,0,.5v.08a.22.22,0,0,0,.08-.09A2,2,0,0,1,145.54,299.31Zm0,0a4.07,4.07,0,0,0,0,.5v.08a.22.22,0,0,0,.08-.09A2,2,0,0,1,145.54,299.31Zm0-.42a2.43,2.43,0,0,0,0,.38,2.42,2.42,0,0,1,.05-.47A.22.22,0,0,1,145.51,298.89Zm0,.42a4.07,4.07,0,0,0,0,.5v.08a.22.22,0,0,0,.08-.09A2,2,0,0,1,145.54,299.31Zm0,0a4.07,4.07,0,0,0,0,.5v.08a.22.22,0,0,0,.08-.09A2,2,0,0,1,145.54,299.31Zm0-.42a2.43,2.43,0,0,0,0,.38,2.42,2.42,0,0,1,.05-.47A.22.22,0,0,1,145.51,298.89Zm0,.42a4.07,4.07,0,0,0,0,.5v.08a.22.22,0,0,0,.08-.09A2,2,0,0,1,145.54,299.31Zm0,0a4.07,4.07,0,0,0,0,.5v.08a.22.22,0,0,0,.08-.09A2,2,0,0,1,145.54,299.31Zm0-.42a2.43,2.43,0,0,0,0,.38,2.42,2.42,0,0,1,.05-.47A.22.22,0,0,1,145.51,298.89Zm0,.42a4.07,4.07,0,0,0,0,.5v.08a.22.22,0,0,0,.08-.09A2,2,0,0,1,145.54,299.31Zm0,0a4.07,4.07,0,0,0,0,.5v.08a.22.22,0,0,0,.08-.09A2,2,0,0,1,145.54,299.31Zm0-.42a2.43,2.43,0,0,0,0,.38,2.42,2.42,0,0,1,.05-.47A.22.22,0,0,1,145.51,298.89Zm0,.42a4.07,4.07,0,0,0,0,.5v.08a.22.22,0,0,0,.08-.09A2,2,0,0,1,145.54,299.31Zm0,0a4.07,4.07,0,0,0,0,.5v.08a.22.22,0,0,0,.08-.09A2,2,0,0,1,145.54,299.31Zm0-.42a2.43,2.43,0,0,0,0,.38,2.42,2.42,0,0,1,.05-.47A.22.22,0,0,1,145.51,298.89Zm0,.42a4.07,4.07,0,0,0,0,.5v.08a.22.22,0,0,0,.08-.09A2,2,0,0,1,145.54,299.31Z"/><path id="neck" class="cls-1" d="M179.18,284.35a4.07,4.07,0,0,0,0,.5,4.19,4.19,0,0,0,0,.5,6.11,6.11,0,0,0,.06.86,6.62,6.62,0,0,0-2-.28,7.25,7.25,0,0,0-7.19,6.25,7.17,7.17,0,0,0-4-1.23,7.25,7.25,0,0,0-6.78,4.65A7.24,7.24,0,0,0,147.37,294a7.26,7.26,0,0,0-7.27-7.19,7.08,7.08,0,0,0-3.15.73,1.37,1.37,0,0,0,0-.29,4.19,4.19,0,0,0,0-.5,4.07,4.07,0,0,0,0-.5,7.26,7.26,0,0,0-7.26-7.27,6.56,6.56,0,0,0-1.73.22,7,7,0,0,0,.49-2.59,4.19,4.19,0,0,0,0-.5,4.07,4.07,0,0,0,0-.5,7.23,7.23,0,0,0-4.75-6.81,7.22,7.22,0,0,0,2.42-4.51,5.33,5.33,0,0,0,.08-1h0a3.91,3.91,0,0,0,0-.49,4.07,4.07,0,0,0,0-.5,7.21,7.21,0,0,0-1.23-4c1.36-.58,3.45-3.33,5.45-7.19.13-.23.25-.47.38-.72,3.35-6.72,6.37-16.41,5.3-24.1,16.74,32.87,40.76,43,47.38,45.3a6.91,6.91,0,0,0-.29,2,4.07,4.07,0,0,0,0,.5,4.19,4.19,0,0,0,0,.5,7.1,7.1,0,0,0,.66,3A7.25,7.25,0,0,0,179.18,284.35Z"/><path id="lower_face" class="cls-1" d="M248.88,171.66c-15.35,0-27.84-11.92-27.84-26.57a24.64,24.64,0,0,1,.27-3.66,17.79,17.79,0,0,0-3.1-1,17.24,17.24,0,0,0-3.69-.4,24.55,24.55,0,0,0-3.93.42c-1.15.22-2.39.54-3.53.85a26.22,26.22,0,0,1,.14,2.67c0,14.82-12.63,26.88-28.17,26.88S150.87,158.82,150.87,144c0-.62,0-1.23.08-1.84h-.28l-10.15-.11c0,.52-.1,1.89-.16,3.45-1.1,29.53-5,54.67-11.58,75.12a39.32,39.32,0,0,0,6.63,4.21c0-.05,0-.11-.08-.16-.18-.14,0,0,.54.18a66.43,66.43,0,0,0,6.92,2.69h0c2.62.28,13,1.3,26.46,1.53h0c31.16.55,79.12-3.09,87.57-29.68,0,0,3.67-11.66,4.36-30.48A29.07,29.07,0,0,1,248.88,171.66Zm-71.16,30.8s-8.9-13.83,13.41-21.74l0,.05c0,.11.12.4.27.84,1.27,3.62,6.77,17.31,18.52,19.92C209.94,201.53,189,217.73,177.72,202.46Zm33-20.6s-.86-3.82,5.73-1.15Zm12.48,3.32c5.79-7.19.23-12.53.23-12.53-6.85-5.89-15.19,1.28-15.56,1.61,8.76-10.22,16.1-4.94,16.1-4.94C233,176.42,223.61,184.82,223.2,185.18Z"/><path id="ear" class="cls-1" d="M110,141.72c0,.06,0,.11,0,.16l-.23-.16H110v-.16a35.6,35.6,0,0,0-3.57-1.95.19.19,0,0,0,0,.07c-.39-.21-.79-.41-1.2-.61l-.09,0c-4.13-1.72-9.76-2.94-12.37,1.49,0,0-5.17,10.26,7.58,25.12a0,0,0,0,0,0,0l0,.07c.63.89,6.08,8.37,11.68,7.48l.26-.05h0s.87,27.11,7.79,37.73a.46.46,0,0,1,0,.08,36.48,36.48,0,0,0,7,8.27c6.39-20.13,10.15-44.83,11.24-73.82.06-1.66.1-2.71.15-3.39Zm1.34,23a8.2,8.2,0,0,1-5.6-.6c-4.69-2.64-2.93-6.93-2.93-6.93,1.76-3.9,4.78-3.9,4.78-3.9C105.27,145.37,96.1,146,96.1,146c.52-.26,9.66-3.91,14.17,7.36,0,0-5.47,3.36-2.07,7.28a4.85,4.85,0,0,0,2.92,1,4.42,4.42,0,0,0,2.81-1.21l.81.81A5.5,5.5,0,0,1,111.36,164.71Z"/><path id="forehead" class="cls-1" d="M264.22,122.92a27.69,27.69,0,0,0-7.62-3.36l-.82-.22a28.71,28.71,0,0,0-6.9-.83c-12.64,0-23.35,8.09-26.72,19.13l-.22-.15c-.37-.25-.73-.53-1.12-.75s-.8-.39-1.22-.57a12.23,12.23,0,0,0-5.22-.82,16.69,16.69,0,0,0-7.93,2.51c-2.91-11.88-14.1-20.75-27.42-20.75-13,0-24,8.46-27.19,19.92a4,4,0,0,0-1.31-.15L122,138.1c7.21-7.3-3.17-25.69-3.17-25.69,15.25-3.73,2.86-18.63,2.86-18.63A59.47,59.47,0,0,0,136,95.26c31.85-.68,26.54-17.75,26.54-17.75,11.85,12.84,29.13,20,29.13,20,33.88,12.87,37.61-2,37.61-2,8.48,7.9,16.3,8.57,21.47,7.68a17.93,17.93,0,0,0,6.31-2.26c.38.77.75,1.57,1.1,2.4.18.41.35.83.53,1.25s.34.85.51,1.29q.15.38.3.78c.13.36.27.73.4,1.1s.36,1,.53,1.5c.24.71.47,1.42.7,2.14a1.83,1.83,0,0,0,.08.25c.07.21.14.43.2.65.16.51.31,1,.46,1.56l.27.93c.07.27.15.54.22.81.14.48.27,1,.4,1.46l.33,1.26c.1.42.21.84.31,1.27.16.63.31,1.27.46,1.9S264.11,122.43,264.22,122.92Z"/></g><g id="skin_shade"><path class="cls-2" d="M254.92,94.63a14.82,14.82,0,0,1-6.68,2c-.27-.68-.56-1.37-.86-2.06a20.16,20.16,0,0,0,6.46-2.3C254.19,93,254.56,93.78,254.92,94.63Z"/><path class="cls-2" d="M264.22,122.92a27.69,27.69,0,0,0-7.62-3.36l-.82-.22c-1.35-5.25-3-10.66-5-16.19a17.93,17.93,0,0,0,6.31-2.26c.38.77.75,1.57,1.1,2.4.18.41.35.83.53,1.25s.34.85.51,1.29q.15.38.3.78c.13.36.27.73.4,1.1s.36,1,.53,1.5c.24.71.47,1.42.7,2.14a1.83,1.83,0,0,0,.08.25c.07.21.14.43.2.65.16.51.31,1,.46,1.56l.27.93c.07.27.15.54.22.81.14.48.27,1,.4,1.46l.33,1.26c.1.42.21.84.31,1.27.16.63.31,1.27.46,1.9S264.11,122.43,264.22,122.92Z"/><path class="cls-2" d="M270.15,154.35h0c-.28.57-.58,1.15-.93,1.74h0c-.18.33-.38.65-.59,1a22.25,22.25,0,0,1-7.29,6.37c0-.75,0-1.52,0-2.3a17.69,17.69,0,0,0,5.28-5.15,19.63,19.63,0,0,0,2.18-4.36h0a22.68,22.68,0,0,0,.75-2.43C269.76,150.89,270,152.61,270.15,154.35Z"/><path class="cls-2" d="M114.74,161.18a5.5,5.5,0,0,1-3.38,3.53,8.2,8.2,0,0,1-5.6-.6c-4.69-2.64-2.93-6.93-2.93-6.93,1.76-3.9,4.78-3.9,4.78-3.9C105.27,145.37,96.1,146,96.1,146c.52-.26,9.66-3.91,14.17,7.36,0,0-5.47,3.36-2.07,7.28a4.85,4.85,0,0,0,2.92,1,4.42,4.42,0,0,0,2.81-1.21Z"/><path class="cls-2" d="M271.52,187.85c0,.61,0,7.32-4.26,15.52l0,0c-4.57,9.18-14.32,20.2-35.09,26.37l-.28.09h-.05l-.13,0-.38.11-.32.09-.37.1-.42.11-.46.12c-5,1.32-23,5.44-48,3.89h0l-.27.63c-.84,2.32-3.45,9.25-3.95,16.1l-.06,1a24.31,24.31,0,0,0,.28,4.93c0,.11,0,.23.07.34a16.62,16.62,0,0,0,1.67,4.52.46.46,0,0,0,.08.13,9.43,9.43,0,0,0,1.43,1.8l.09.1.3.17.15.1.32.2.16.1h0a2,2,0,0,0,.05.35,4.33,4.33,0,0,0,.19.95,7.07,7.07,0,0,0,2.3,3.6,6.71,6.71,0,0,0-1,2.16c-6.62-2.26-30.64-12.43-47.38-45.3-.24-.46-.48-.93-.71-1.41,0-.05,0-.11-.08-.16-.18-.14,0,0,.54.18a66.43,66.43,0,0,0,6.92,2.69h0c2.62.28,13,1.3,26.46,1.53h0c31.16.55,79.12-3.09,87.57-29.68,0,0,3.67-11.66,4.36-30.48l.74-.36a28,28,0,0,0,8.86-7.1l.3-.38q.39,6.87.41,14.36a2.26,2.26,0,0,1,0,.26Q271.67,181.6,271.52,187.85Z"/><path id="cleavage" class="cls-2" d="M162.22,364.1h-1.5s0,0,0,0c.82-4.19-1.36-12.58-1.47-13C162.8,357.4,161.91,363.16,162.22,364.1Z"/></g><path id="shirt" class="cls-3" d="M285.88,342.11l0-1.69,0,0,0,43.14-14.21,0s17.09-70.94-8.18-92.27a3.91,3.91,0,0,1,.55.19c-.25-.15-.51-.29-.77-.42l-.83-.43c-.29-.16-.59-.3-.89-.44s-.85-.41-1.29-.6-1.17-.51-1.77-.75l-1.05-.41c-1.35-.51-2.77-1-4.25-1.42l-1.42-.4-1.2-.31q-.87-.22-1.77-.42h0l-.09,0c-2.47-.94-42.08-15.9-52.35-16.58a6.39,6.39,0,0,1,.8,1.36,7.11,7.11,0,0,1,.63,3,4.07,4.07,0,0,1,0,.5,4.19,4.19,0,0,1,0,.5,7.05,7.05,0,0,1-1,3.68A198.34,198.34,0,0,1,202,302.08a105.07,105.07,0,0,1,.23,34.64c-1.65,9.58-4.42,15.83-12.88,21.47-6.62,4.41-17.35,6.31-27.79,5.91h-.84s0,0,0,0a61.54,61.54,0,0,1-14-2.24c-8.22-2.41-25.76-8.26-34-32-8.51-24.52-4.62-61.49-7-65.41-6.88,1.69-14.89,3.37-23.59,5l-.79.15c-4.43.85-9.72,1.77-16.36,2.81l-2.43.39L61,273l-5.7.87s-33.29,5-43.55,30.79c0,0-9,10.26-11.75,79l285.88-.05S286.13,361.93,285.88,342.11ZM56.82,383.56s3.41-11.69.71-32.85l6.31,32.88Zm182.91-.09s3.15-9.55,1.56-27.07l4.21,27.15Z"/><g id="shirt_shade"><path class="cls-4" d="M271.65,383.52s17.09-70.94-8.18-92.27a3.91,3.91,0,0,1,.55.19l0,0c3.35,1.33,20,9.53,21.78,41.07v7.87l0,43.14Z"/><path class="cls-4" d="M56.82,383.56s3.41-11.69.71-32.85l6.31,32.88Z"/><path class="cls-4" d="M239.73,383.47s3.15-9.55,1.56-27.07l4.21,27.15Z"/></g><g id="nose"><path class="cls-5" d="M223.2,185.18c5.79-7.19.23-12.53.23-12.53-6.85-5.89-15.19,1.28-15.56,1.61,8.76-10.22,16.1-4.94,16.1-4.94C233,176.42,223.61,184.82,223.2,185.18Z"/><path class="cls-5" d="M216.45,180.71l-5.73,1.15S209.86,178,216.45,180.71Z"/></g><g id="glasses"><g id="lenses"><path id="lense" class="cls-6" d="M179,120.11c-13.87,0-25.16,10.72-25.16,23.89s11.29,23.88,25.16,23.88S204.2,157.16,204.2,144,192.91,120.11,179,120.11Zm-18,20.73a1.5,1.5,0,0,1,.88-1.93A49,49,0,0,1,174,136.38c8.89-.67,15.66,1.8,19.55,7.14a1.5,1.5,0,0,1-.34,2.09,1.43,1.43,0,0,1-.88.29,1.48,1.48,0,0,1-1.21-.62c-.19-.26-.38-.5-.58-.74a6.81,6.81,0,1,1-11.4-5.16c-7.95-.65-16.08,2.3-16.21,2.35A1.5,1.5,0,0,1,161,140.84Z"/><path id="lense-2" data-name="lense" class="cls-6" d="M267.05,129c-.44-.45-.89-.88-1.37-1.3l-.16-.14-.37-.32h0c-.33-.25-.62-.48-.9-.68l-.1-.08a2,2,0,0,0-.29-.22,24.87,24.87,0,0,0-7.24-3.59q-.41-.14-.81-.24a25.29,25.29,0,0,0-6.92-.94c-13.7,0-24.84,10.58-24.84,23.58s11.14,23.57,24.84,23.57a25.9,25.9,0,0,0,11.72-2.79l.72-.39a24.48,24.48,0,0,0,8.09-7.13,5.18,5.18,0,0,0,.3-.43c.25-.36.48-.71.7-1.07,0,0,0,0,0-.08h.05c.12-.19.24-.39.35-.59h0a1.74,1.74,0,0,0,.11-.18,19.51,19.51,0,0,0,.95-2c.09-.22.19-.44.27-.66h0c0-.11.09-.22.13-.32a2.19,2.19,0,0,0,.12-.33c.08-.21.15-.43.22-.65s.11-.31.15-.47v0a5.26,5.26,0,0,0,.15-.53.11.11,0,0,0,0-.08c.05-.15.08-.31.12-.47l.18-.77c.06-.25.11-.51.15-.77s.09-.52.12-.78.07-.52.1-.78.07-.75.09-1.13v-.06c0-.37,0-.75,0-1.12A23,23,0,0,0,267.05,129Zm-29.8,12.56a1.5,1.5,0,0,1,.59-2,25.71,25.71,0,0,1,21.84-.55,26.64,26.64,0,0,1,4.49,2.54,1.5,1.5,0,1,1-1.71,2.46c-.43-.3-.87-.58-1.3-.84a6.26,6.26,0,0,1,.08,2.08,6.34,6.34,0,0,1-.61,2,6.17,6.17,0,0,1-1.41,1.92,5.88,5.88,0,0,1-4,1.58,5.58,5.58,0,0,1-.7,0,6.14,6.14,0,0,1-5.14-7,6.32,6.32,0,0,1,1.94-3.89,22.87,22.87,0,0,0-12.06,2.29A1.52,1.52,0,0,1,237.25,141.59Zm33.32,11.84c-.13.31-.27.61-.42.92h0c-.28.57-.58,1.15-.93,1.74h0c-.18.33-.38.65-.59,1a22.25,22.25,0,0,1-7.29,6.37c-4.4,2.44-10.78,4.06-19.11,1.36,0,0,10.94,1.55,19.1-3.66a17.69,17.69,0,0,0,5.28-5.15,19.63,19.63,0,0,0,2.18-4.36h0a22.68,22.68,0,0,0,.75-2.43c.16-.61.3-1.26.42-1.94v0a26.74,26.74,0,0,0-1-12.84S275.38,142.34,270.57,153.43Z"/></g><g id="eyes"><path id="eye" class="cls-7" d="M193.2,145.61a1.43,1.43,0,0,1-.88.29,1.48,1.48,0,0,1-1.21-.62c-.19-.26-.38-.5-.58-.74a6.81,6.81,0,1,1-11.4-5.16c-7.95-.65-16.08,2.3-16.21,2.35a1.5,1.5,0,0,1-1-2.82A49,49,0,0,1,174,136.38c8.89-.67,15.66,1.8,19.55,7.14A1.5,1.5,0,0,1,193.2,145.61Z"/><path id="eye-2" data-name="eye" class="cls-7" d="M264.55,143.63a1.5,1.5,0,0,1-2.09.37c-.43-.3-.87-.58-1.3-.84a6.26,6.26,0,0,1,.08,2.08,6.34,6.34,0,0,1-.61,2,6.17,6.17,0,0,1-1.41,1.92,5.88,5.88,0,0,1-4,1.58,5.58,5.58,0,0,1-.7,0,6.14,6.14,0,0,1-5.14-7,6.32,6.32,0,0,1,1.94-3.89,22.87,22.87,0,0,0-12.06,2.29,1.52,1.52,0,0,1-2-.59,1.5,1.5,0,0,1,.59-2,25.71,25.71,0,0,1,21.84-.55,26.64,26.64,0,0,1,4.49,2.54A1.51,1.51,0,0,1,264.55,143.63Z"/></g><path id="frames" class="cls-7" d="M267.47,125.3c-.52-.44-1-.8-1.42-1.12-.17-.14-.35-.27-.5-.37-.43-.31-.88-.61-1.33-.88h0a27.69,27.69,0,0,0-7.62-3.36l-.82-.22a28.71,28.71,0,0,0-6.9-.83c-12.64,0-23.35,8.09-26.72,19.13l-.22-.15c-.37-.25-.73-.53-1.12-.75s-.8-.39-1.22-.57a12.23,12.23,0,0,0-5.22-.82,16.69,16.69,0,0,0-7.93,2.51c-2.91-11.88-14.1-20.75-27.42-20.75-13,0-24,8.46-27.19,19.92a4,4,0,0,0-1.31-.15L122,138.1l-13.89.6a2,2,0,0,0-1.68.91,35.6,35.6,0,0,1,3.57,1.95v.16l28.5.31,2,0,10.15.11H151c-.06.61-.08,1.22-.08,1.84,0,14.82,12.63,26.88,28.16,26.88S207.2,158.82,207.2,144a26.22,26.22,0,0,0-.14-2.67c1.14-.31,2.38-.63,3.53-.85a24.55,24.55,0,0,1,3.93-.42,17.24,17.24,0,0,1,3.69.4,17.79,17.79,0,0,1,3.1,1,24.64,24.64,0,0,0-.27,3.66c0,14.65,12.49,26.57,27.84,26.57a29.07,29.07,0,0,0,12.34-2.75l.74-.36a28,28,0,0,0,8.86-7.1l.3-.38.68-.9c.15-.2.29-.41.41-.6l.36-.53c.32-.47.61-.95.9-1.47v0l.06-.11c.14-.25.27-.49.4-.75,0,0,0-.07.05-.1.23-.45.44-.91.63-1.37a25.2,25.2,0,0,0,2.11-10.13A26.14,26.14,0,0,0,267.47,125.3ZM179,167.88c-13.87,0-25.16-10.72-25.16-23.88s11.29-23.89,25.16-23.89S204.2,130.83,204.2,144,192.91,167.88,179,167.88Zm94.66-21.67v.06c0,.38-.05.75-.09,1.13s-.06.52-.1.78-.07.52-.12.78-.09.52-.15.77l-.18.77c0,.16-.07.32-.12.47a.11.11,0,0,1,0,.08,5.26,5.26,0,0,1-.15.53v0c0,.16-.1.31-.15.47s-.14.44-.22.65a2.19,2.19,0,0,1-.12.33c0,.1-.09.21-.13.32h0c-.08.22-.18.44-.27.66a19.51,19.51,0,0,1-.95,2,1.74,1.74,0,0,1-.11.18h0c-.11.2-.23.4-.35.59l0,.08c-.22.36-.45.71-.7,1.07a5.18,5.18,0,0,1-.3.43,24.48,24.48,0,0,1-8.09,7.13l-.72.39a25.9,25.9,0,0,1-11.72,2.79c-13.7,0-24.84-10.57-24.84-23.57s11.14-23.58,24.84-23.58a25.29,25.29,0,0,1,6.92.94q.4.1.81.24a24.87,24.87,0,0,1,7.24,3.59,2,2,0,0,1,.29.22l.1.08c.28.2.57.43.9.68h0l.37.32.16.14c.48.42.93.85,1.37,1.3a23,23,0,0,1,6.67,16.06C273.72,145.46,273.71,145.84,273.69,146.21Z"/><g id="lense_highlight"><path class="cls-8" d="M199.59,133.62s7.85,9.72-.34,22.69c0,0-8.88,13.39-26.4,7.73,0,0,16.94,2.4,24.38-8.82C197.23,155.22,203.69,146.41,199.59,133.62Z"/><path class="cls-8" d="M270.57,153.43c-.13.31-.27.61-.42.92h0c-.28.57-.58,1.15-.93,1.74h0c-.18.33-.38.65-.59,1a22.25,22.25,0,0,1-7.29,6.37c-4.4,2.44-10.78,4.06-19.11,1.36,0,0,10.94,1.55,19.1-3.66a17.69,17.69,0,0,0,5.28-5.15,19.63,19.63,0,0,0,2.18-4.36h0a22.68,22.68,0,0,0,.75-2.43c.16-.61.3-1.26.42-1.94v0a26.74,26.74,0,0,0-1-12.84S275.38,142.34,270.57,153.43Z"/></g><g id="glasses_strap"><path id="glasses_strap_left" class="cls-7" d="M275.24,200c-.66,22.07-11.78,39.26-33.06,51.09-12.33,6.85-27.66,11.66-45.58,14.32l-.19,0h-.1a7.22,7.22,0,0,0,.17-1.55,3.4,3.4,0,0,0,0-.45v0c28.27-4.23,75.44-18.07,76.79-63.47.55-18.43-.14-33-.67-40.85.32-.47.61-.95.9-1.47v0l.06-.11c.14-.25.27-.49.4-.75a1,1,0,0,1,.54.81A423.8,423.8,0,0,1,275.24,200Z"/><path id="glasses_strap_rt" class="cls-7" d="M140.52,142.05c0,.52-.1,1.89-.16,3.45-1.1,29.53-5,54.67-11.58,75.12a133.11,133.11,0,0,1-12.12,27.47c-4.88,8.17-7.1,12.12-7.9,15.52v0a1,1,0,0,1-1,.77.85.85,0,0,1-.23,0,.94.94,0,0,1-.52-.32,1,1,0,0,1-.23-.88c.87-3.67,3.15-7.73,8.14-16.1a132.22,132.22,0,0,0,12.19-27.82h0c6.39-20.13,10.15-44.83,11.24-73.82.06-1.66.1-2.71.15-3.39Z"/></g></g><g id="necklace"><g id="bead_shade"><path class="cls-9" d="M196.48,262.85a4.07,4.07,0,0,1,0,.5,7.24,7.24,0,0,0-7.23-6.77,6.68,6.68,0,0,0-2,.28.41.41,0,0,0-.19.05,7.21,7.21,0,0,0-5.09,6.44,4.07,4.07,0,0,1,0-.5,7.25,7.25,0,0,1,4.82-6.84,7.29,7.29,0,0,0-6.7-4.43,7,7,0,0,0-2.64.5l.06-1a7.13,7.13,0,0,1,2.58-.48,7.26,7.26,0,0,1,7,5.33,7,7,0,0,1,2.15-.33A7.26,7.26,0,0,1,196.48,262.85Z"/><path class="cls-9" d="M184.55,293.19a3.55,3.55,0,0,1,0,.46,5.25,5.25,0,0,0-.24-1.37,4.81,4.81,0,0,0-.42-1.15,7.18,7.18,0,0,0-4-3.72l-.42-.15a7.07,7.07,0,0,0-2.16-.33,7.24,7.24,0,0,0-7,5.38,7.24,7.24,0,0,1,3,5.91,3.44,3.44,0,0,1,0,.46,7.22,7.22,0,0,0-3.19-5.5l-.08-.05a7.15,7.15,0,0,0-4-1.18,7.23,7.23,0,0,0-6.55,4.13h0a7.24,7.24,0,0,1,.53,2.72,3.4,3.4,0,0,1,0,.45,6.79,6.79,0,0,0-.73-2.65h0a2,2,0,0,0-.2-.38A7.25,7.25,0,0,0,147.37,295s0,0,0,0a.2.2,0,0,0-.08.08,7.12,7.12,0,0,0-1.7,3.74.22.22,0,0,1-.08.09v-.08a7.21,7.21,0,0,1,1.78-4.75,7.25,7.25,0,0,0-7.19-6.27,7.13,7.13,0,0,0-3.26.78,1.74,1.74,0,0,0-.33.18,7.19,7.19,0,0,0-3.21,3.78,5.89,5.89,0,0,0-.33,1.18,5.17,5.17,0,0,0-.1.79,3.29,3.29,0,0,1,0-.45,1.37,1.37,0,0,1,0-.29,5.19,5.19,0,0,1,.11-1.05,7.22,7.22,0,0,1,3.87-5.14.22.22,0,0,1,.11-.05,7.08,7.08,0,0,1,3.15-.73,7.26,7.26,0,0,1,7.27,7.19,7.24,7.24,0,0,1,11.91,1.62,7.25,7.25,0,0,1,6.78-4.65,7.17,7.17,0,0,1,4,1.23,7.25,7.25,0,0,1,7.19-6.25,6.62,6.62,0,0,1,2,.28.54.54,0,0,1,.21.05,7.23,7.23,0,0,1,4.83,5,4.74,4.74,0,0,1,.21,1.06A6,6,0,0,1,184.55,293.19Z"/><path class="cls-9" d="M130.82,250.34c-.13.25-.25.49-.38.72a7.25,7.25,0,0,0-11.14,4,7.26,7.26,0,0,1,6.92,7.25,4.07,4.07,0,0,1,0,.5A7.24,7.24,0,0,0,119.1,256H119a7.25,7.25,0,0,0-7.24,6.77,4.07,4.07,0,0,1,0-.5A7.27,7.27,0,0,1,119,255h.14a7.25,7.25,0,0,1,11.72-4.69Z"/><path class="cls-9" d="M197.74,273.54a4.07,4.07,0,0,1,0,.5,7,7,0,0,0-1.31-3.7,6.44,6.44,0,0,0-1-1.14,4.87,4.87,0,0,0-.71-.58,3.85,3.85,0,0,0-.6-.39,7.2,7.2,0,0,0-3.6-1,6.83,6.83,0,0,0-1.82.24,7.12,7.12,0,0,0-2.82,1.43,2.29,2.29,0,0,0-.23.21,4.93,4.93,0,0,0-.6.61,6.9,6.9,0,0,0-1.2,1.89,6.6,6.6,0,0,0-.57,2.39,4.07,4.07,0,0,1,0-.5,6.91,6.91,0,0,1,.29-2,6.71,6.71,0,0,1,1-2.16,5.8,5.8,0,0,1,.49-.62,4.31,4.31,0,0,1,.56-.57,6.66,6.66,0,0,1,1.77-1.2h0a7,7,0,0,1,3.13-.72,7.09,7.09,0,0,1,4.2,1.35,4.3,4.3,0,0,1,.49.38,6.28,6.28,0,0,1,1.14,1.22,6.39,6.39,0,0,1,.8,1.36A7.11,7.11,0,0,1,197.74,273.54Z"/><path class="cls-9" d="M128.47,275.59a4.07,4.07,0,0,1,0,.5,7.22,7.22,0,0,0-5.7-6.6,7,7,0,0,0-1.53-.17,4.93,4.93,0,0,0-.55,0,5.42,5.42,0,0,0-1.14.18,6.74,6.74,0,0,0-2.09.86,7.17,7.17,0,0,0-3.46,5.7,4.07,4.07,0,0,1,0-.5,7.18,7.18,0,0,1,2.51-5.48,5.61,5.61,0,0,1,1-.72,7.18,7.18,0,0,1,3.78-1.07,7,7,0,0,1,1.53.17,4.62,4.62,0,0,1,1,.29A7.23,7.23,0,0,1,128.47,275.59Z"/><path class="cls-9" d="M193.71,284.35a4.07,4.07,0,0,1,0,.5,7,7,0,0,0-1.09-3.37,5.63,5.63,0,0,0-.61-.84,7.24,7.24,0,0,0-5.54-2.56,6.82,6.82,0,0,0-1.5.16,4.57,4.57,0,0,0-.61.16,7.21,7.21,0,0,0-5.12,6.45,4.07,4.07,0,0,1,0-.5,7.25,7.25,0,0,1,4.69-6.79,2.51,2.51,0,0,1,.46-.16,7,7,0,0,1,2.11-.32,7.24,7.24,0,0,1,6.15,3.4,5.73,5.73,0,0,1,.46.84A7.29,7.29,0,0,1,193.71,284.35Z"/><path class="cls-9" d="M137,286.23a4.07,4.07,0,0,1,0,.5,7.24,7.24,0,0,0-7.23-6.77,7,7,0,0,0-2.29.38,6,6,0,0,0-1.27.55,6.68,6.68,0,0,0-1.39,1,6.58,6.58,0,0,0-1.27,1.56,7,7,0,0,0-1,3.25,4.07,4.07,0,0,1,0-.5,7,7,0,0,1,.49-2.6,5.56,5.56,0,0,1,.56-1.15,7.18,7.18,0,0,1,3.93-3.14,2.75,2.75,0,0,1,.56-.16,6.56,6.56,0,0,1,1.73-.22A7.26,7.26,0,0,1,137,286.23Z"/></g><g id="beads"><path class="cls-10" d="M130.44,251.06c-2,3.86-4.09,6.61-5.45,7.19A7.19,7.19,0,0,0,119.3,255a7.25,7.25,0,0,1,11.14-4Z"/><path class="cls-10" d="M196.48,263.85a7.22,7.22,0,0,1-.17,1.55,6.91,6.91,0,0,1-1.14,2.6,4.3,4.3,0,0,0-.49-.38,7.09,7.09,0,0,0-4.2-1.35,7,7,0,0,0-3.13.72h0a6.66,6.66,0,0,0-1.77,1.2,4.31,4.31,0,0,0-.56.57,5.8,5.8,0,0,0-.49.62,7.07,7.07,0,0,1-2.3-3.6,4.33,4.33,0,0,1-.19-.95,2,2,0,0,1-.05-.35h0l-.16-.1-.32-.2-.15-.1-.39-.27a9.43,9.43,0,0,1-1.43-1.8.46.46,0,0,1-.08-.13,16.62,16.62,0,0,1-1.67-4.52c0-.11-.05-.23-.07-.34a24.31,24.31,0,0,1-.28-4.93,7,7,0,0,1,2.64-.5,7.29,7.29,0,0,1,6.7,4.43,7.25,7.25,0,0,0-4.82,6.84,4.07,4.07,0,0,0,0,.5,7.21,7.21,0,0,1,5.09-6.44.41.41,0,0,1,.19-.05,6.68,6.68,0,0,1,2-.28,7.24,7.24,0,0,1,7.23,6.77h0v0A3.4,3.4,0,0,1,196.48,263.85Z"/><path class="cls-10" d="M126.22,263.28h0a5.33,5.33,0,0,1-.08,1,7.22,7.22,0,0,1-2.42,4.51,4.62,4.62,0,0,0-1-.29,7,7,0,0,0-1.53-.17,7.18,7.18,0,0,0-3.78,1.07,5.61,5.61,0,0,0-1,.72,7.26,7.26,0,0,1-4.76-6.82,3.59,3.59,0,0,1,0-.47,0,0,0,0,1,0,0A7.25,7.25,0,0,1,119,256h.14a7.24,7.24,0,0,1,7.09,6.76A3.91,3.91,0,0,1,126.22,263.28Z"/><path class="cls-10" d="M197.74,274.54a7.05,7.05,0,0,1-1,3.68,7.18,7.18,0,0,1-3.68,3.1,5.73,5.73,0,0,0-.46-.84,7.24,7.24,0,0,0-6.15-3.4,7,7,0,0,0-2.11.32,2.51,2.51,0,0,0-.46.16,7.1,7.1,0,0,1-.66-3,4.19,4.19,0,0,1,0-.5,6.6,6.6,0,0,1,.57-2.39,6.9,6.9,0,0,1,1.2-1.89,4.93,4.93,0,0,1,.6-.61,2.29,2.29,0,0,1,.23-.21,7.12,7.12,0,0,1,2.82-1.43,6.83,6.83,0,0,1,1.82-.24,7.2,7.2,0,0,1,3.6,1,3.85,3.85,0,0,1,.6.39,4.87,4.87,0,0,1,.71.58,6.44,6.44,0,0,1,1,1.14,7,7,0,0,1,1.31,3.7A4.19,4.19,0,0,1,197.74,274.54Z"/><path class="cls-10" d="M128.47,276.59a7,7,0,0,1-.49,2.59,2.75,2.75,0,0,0-.56.16,7.18,7.18,0,0,0-3.93,3.14,5.56,5.56,0,0,0-.56,1.15,6.54,6.54,0,0,1-1.72.22,7.27,7.27,0,0,1-7.27-7.26,4.19,4.19,0,0,1,0-.5,7.17,7.17,0,0,1,3.46-5.7,6.74,6.74,0,0,1,2.09-.86,5.42,5.42,0,0,0,1.14-.18,4.93,4.93,0,0,1,.55,0,7,7,0,0,1,1.53.17,7.22,7.22,0,0,1,5.7,6.6A4.19,4.19,0,0,1,128.47,276.59Z"/><path class="cls-10" d="M193.71,285.35a7.26,7.26,0,0,1-7.27,7.26,7,7,0,0,1-1.95-.27,4.74,4.74,0,0,0-.21-1.06,7.23,7.23,0,0,0-4.83-5,.54.54,0,0,0-.21-.05,6.11,6.11,0,0,1-.06-.86,4.19,4.19,0,0,1,0-.5,7.21,7.21,0,0,1,5.12-6.45,4.57,4.57,0,0,1,.61-.16,6.82,6.82,0,0,1,1.5-.16,7.24,7.24,0,0,1,5.54,2.56,5.63,5.63,0,0,1,.61.84,7,7,0,0,1,1.09,3.37A4.19,4.19,0,0,1,193.71,285.35Z"/><path class="cls-10" d="M137,287.23a1.37,1.37,0,0,1,0,.29.22.22,0,0,0-.11.05,7.22,7.22,0,0,0-3.87,5.14,5.19,5.19,0,0,0-.11,1.05,7.08,7.08,0,0,1-3.15.73,7.26,7.26,0,0,1-7.27-7.26,4.19,4.19,0,0,1,0-.5,7,7,0,0,1,1-3.25,6.58,6.58,0,0,1,1.27-1.56,6.68,6.68,0,0,1,1.39-1,6,6,0,0,1,1.27-.55,7,7,0,0,1,2.29-.38,7.24,7.24,0,0,1,7.23,6.77A4.19,4.19,0,0,1,137,287.23Z"/><path class="cls-10" d="M145.51,298.89a2.43,2.43,0,0,0,0,.38h0s0,0,0,0h0a4.07,4.07,0,0,0,0,.5v.08a7.25,7.25,0,0,1-12.67-4.84,4.07,4.07,0,0,1,0-.5v0h0a0,0,0,0,1,0,0,5.17,5.17,0,0,1,.1-.79,5.89,5.89,0,0,1,.33-1.18,7.19,7.19,0,0,1,3.21-3.78,1.74,1.74,0,0,1,.33-.18,7.13,7.13,0,0,1,3.26-.78,7.25,7.25,0,0,1,7.19,6.27,7.21,7.21,0,0,0-1.78,4.75Z"/><path class="cls-10" d="M184.55,294.19a7.27,7.27,0,0,1-11.31,6,7.25,7.25,0,0,1-13.69,2.2,7.26,7.26,0,0,1-14-2.54.22.22,0,0,0,.08-.09,2,2,0,0,1-.05-.49v0h0a2.42,2.42,0,0,1,.05-.47,7.12,7.12,0,0,1,1.7-3.74.2.2,0,0,1,.08-.08s0,0,0,0a7.25,7.25,0,0,1,11.71,1.25,2,2,0,0,1,.2.38h0a6.79,6.79,0,0,1,.73,2.65,3.4,3.4,0,0,0,0-.45,7.24,7.24,0,0,0-.53-2.72h0a7.23,7.23,0,0,1,6.55-4.13,7.15,7.15,0,0,1,4,1.18l.08.05a7.22,7.22,0,0,1,3.19,5.5,3.44,3.44,0,0,0,0-.46,7.24,7.24,0,0,0-3-5.91,7.24,7.24,0,0,1,7-5.38,7.07,7.07,0,0,1,2.16.33l.42.15a7.18,7.18,0,0,1,4,3.72,4.81,4.81,0,0,1,.42,1.15,5.25,5.25,0,0,1,.24,1.37h0a0,0,0,0,1,0,0h0A4.07,4.07,0,0,1,184.55,294.19Z"/></g></g><path id="mouth" class="cls-6" d="M209.94,201.53s-21,16.2-32.22.93c0,0-8.9-13.83,13.41-21.74l0,.05c0,.11.12.4.27.84C192.69,185.23,198.19,198.92,209.94,201.53Z"/><path id="hair" class="cls-11" d="M288.51,104.61c13.22-11.18,2.34-28.37,2.34-28.37,7.34-11-5-19.69-5-19.69-7-21-32.37-15-32.37-15-1-18.64-18-27-18-27C212.29.87,193.12,14,193.12,14c-9.86-20.27-39.44-12.6-39.44-12.6C117,7.09,121.91,33.19,121.91,33.19c-13.89-22.36-39-3.67-39-3.67-22.69,11.68-18.36,33-18.36,33C26,75.1,50.9,101.27,50.9,101.27c-30.7,12.35-21.49,49.42-21.49,49.42-1.42,17.48,15.27,25.43,18,26.19a.28.28,0,0,1,.26-.1c.25.17.13.2-.26.1-1.72,1.46-4.17,19.75,5.45,29.18,16.69,16.36,37.05,9,37.05,9,22.68,10.87,29.62-2.91,30.17-4.1a.46.46,0,0,0,0-.08c-6.92-10.62-7.79-37.73-7.79-37.73h0l-.25.12a.2.2,0,0,1,0-.07c-5.6.89-11-6.59-11.68-7.48l0-.07a0,0,0,0,1,0,0c-12.75-14.86-7.58-25.12-7.58-25.12,2.61-4.43,8.24-3.21,12.37-1.49l.09,0c.43.18.83.36,1.22.54a2,2,0,0,1,1.68-.91l13.89-.6c7.21-7.3-3.17-25.69-3.17-25.69,15.25-3.73,2.86-18.63,2.86-18.63A59.47,59.47,0,0,0,136,95.26c31.85-.68,26.54-17.75,26.54-17.75,11.85,12.84,29.13,20,29.13,20,33.88,12.87,37.61-2,37.61-2,8.48,7.9,16.3,8.57,21.47,7.68a17.93,17.93,0,0,0,6.31-2.26c.38.77.75,1.57,1.1,2.4.18.41.35.83.53,1.25s.34.85.51,1.29q.15.38.3.78c.13.36.27.73.4,1.1s.36,1,.53,1.5c.24.71.47,1.42.7,2.14a1.83,1.83,0,0,0,.08.25c.07.21.14.43.2.65.16.51.31,1,.46,1.56l.27.93c.07.27.15.54.22.81.14.48.27,1,.4,1.46l.33,1.26c.1.42.21.84.31,1.27.16.63.31,1.27.46,1.9s.23,1,.34,1.48h0c.45.27.9.57,1.33.88.15.1.33.23.5.37.43.32.9.68,1.42,1.12a26.14,26.14,0,0,1,9.25,19.79,25.2,25.2,0,0,1-2.11,10.13c-.19.46-.4.92-.63,1.37,21.73-2,16.87-17.61,16.87-17.61C301.53,114,288.51,104.61,288.51,104.61ZM35.37,136c0-.44,0-.69,0-.69C37.7,166,57.78,169,57.78,169,35.38,169.58,35.24,140.81,35.37,136ZM95.62,185.1S94,204.94,73.24,204.25c0,0,20.1-5.62,17.3-19.61-.23-1.15-.46-16.15-16.84-27.46C73.27,156.89,93.77,160,95.62,185.1ZM96.54,123S89.62,133.18,73,127.88c0,0,30.69,6,29.53-32.54C102.54,95.34,110.39,110.34,96.54,123ZM87.08,35.58c.24-.24,29.86-15.4,35.3,15.23C122.38,50.81,113.85,25.89,87.08,35.58Zm55.61,38.54s28.59-5.52,30.71-25.76a27.05,27.05,0,0,0-1.18-10.7,28,28,0,0,1,2.6,10.52C175.24,57.59,170.4,70.44,142.69,74.12Zm69.45-57.46c.67,0,37.76,7.84,25.65,50.12C238.39,64.14,245.11,31.48,212.14,16.66Zm43.57,77.46a5.92,5.92,0,0,1-.79.51,14.82,14.82,0,0,1-6.68,2c-3.66.27-8.35-.36-14.37-2.38a37,37,0,0,0,13.51.32,20.16,20.16,0,0,0,6.46-2.3l.72-.44a15.07,15.07,0,0,0,6.5-9.82C261.09,81.83,261.68,89.91,255.71,94.12Zm15-45.38c-.73-.66,15.46,2.76,9.69,27.68C280.44,76.42,281.82,58.66,270.75,48.74ZM281.59,145c9.31-21.95,2-35.38,1.43-36.39C295.86,122.4,281.22,145.83,281.59,145Z"/><g id="hair_highlights"><path class="cls-12" d="M280.44,76.42s1.38-17.76-9.69-27.68C270,48.08,286.21,51.5,280.44,76.42Z"/><path class="cls-12" d="M255.71,94.12a5.92,5.92,0,0,1-.79.51,14.82,14.82,0,0,1-6.68,2c-3.66.27-8.35-.36-14.37-2.38a37,37,0,0,0,13.51.32,20.16,20.16,0,0,0,6.46-2.3l.72-.44a15.07,15.07,0,0,0,6.5-9.82C261.09,81.83,261.68,89.91,255.71,94.12Z"/><path class="cls-12" d="M237.79,66.78c.6-2.64,7.32-35.3-25.65-50.12C212.81,16.65,249.9,24.5,237.79,66.78Z"/><path class="cls-12" d="M142.69,74.12s28.59-5.52,30.71-25.76a27.05,27.05,0,0,0-1.18-10.7,28,28,0,0,1,2.6,10.52C175.24,57.59,170.4,70.44,142.69,74.12Z"/><path class="cls-12" d="M122.38,50.81s-8.53-24.92-35.3-15.23C87.32,35.34,116.94,20.18,122.38,50.81Z"/><path class="cls-12" d="M96.54,123S89.62,133.18,73,127.88c0,0,30.69,6,29.53-32.54C102.54,95.34,110.39,110.34,96.54,123Z"/><path class="cls-12" d="M95.62,185.1S94,204.94,73.24,204.25c0,0,20.1-5.62,17.3-19.61-.23-1.15-.46-16.15-16.84-27.46C73.27,156.89,93.77,160,95.62,185.1Z"/><path class="cls-12" d="M57.78,169c-22.4.63-22.54-28.14-22.41-33,0-.44,0-.69,0-.69C37.7,166,57.78,169,57.78,169Z"/><path class="cls-12" d="M281.59,145c9.31-21.95,2-35.38,1.43-36.39C295.86,122.4,281.22,145.83,281.59,145Z"/></g></svg>