<svg id="Layer_1" data-name="Layer 1" xmlns="http://www.w3.org/2000/svg" viewBox="0 0 318.77 375.13"><defs><style>.cls-1{fill:#fff;}.cls-2{fill:#cfcfce;}.cls-3{fill:#556e4f;}.cls-4{fill:#3d4f37;}.cls-5{fill:#e2ab90;}.cls-6{fill:#b96458;opacity:0.25;}.cls-7{fill:#010101;}.cls-8{fill:#3c1e11;}.cls-9{fill:#4f2618;}.cls-10{fill:#60381c;}.cls-11{fill:#552c0f;}.cls-12{fill:#373a37;}.cls-13{fill:#2c140b;}</style></defs><path id="tshirt" class="cls-1" d="M211.83,289.19a40.56,40.56,0,0,0-1.11,15.68c2.69,30.57-5.09,70.15-5.09,70.15H210v.11l-4.75-.1-31.08-.77c.11-5,.72-51.3-12.35-75.47-.94-1.73-25.84-36.53-16-47.05l16-2.45c0,.21,0,.41,0,.63-.82,10.23,6.12,22.05,25.64,22.05.31,0,12.94-.67,15.33-10.37a16.78,16.78,0,0,0-.12-7.64l.23,0h0l8.87,2C217.32,270.33,214,281.1,211.83,289.19Z"/><path id="neckline" class="cls-2" d="M153.09,250.55c-.63,31.73,31.08,30,31,30.1,30.77.8,26.81-25.28,26.81-25.28s8.12,27.43-27.58,27.71c0,0-33.43.71-31.49-31.59,0-.14-.12-.52-.11-.67Z"/><g id="sweatshirt"><path class="cls-3" d="M161.76,298.79c-.93-1.71-25.24-35.7-16.36-46.66l.07-.09.27-.3,16-2.45,1-.16a65,65,0,0,0,6.7-13.83s-8.87-2.53-44.71,1.91c0,0-51.08,5.26-49.33,22.61l-.15.05-.91.27c-1.31.38-3.76,1.07-6.9,1.86-1.29.32-36.88,4.95-49.76,24.17,0,0-16.62,20-17.74,88.58l174.1-.05s0-.15,0-.44C174.22,369.26,174.83,323,161.76,298.79Zm-33.51,23.45c3.47-23.7-2.68-37.23-6.25-42.8a20.11,20.11,0,0,0-2.29-3l4.42.85a15.86,15.86,0,0,1,1.3,1.86c.16.26.33.54.51.86,3.05,5.36,8.54,18.9,5,43.06a147.15,147.15,0,0,0-1.5,16.89,131.88,131.88,0,0,0,1.35,24.93C125.24,348.06,128.25,322.24,128.25,322.24Z"/><path class="cls-3" d="M315.07,302.23a39.07,39.07,0,0,0-11-20.18,48.28,48.28,0,0,0-9.6-7.31,56.62,56.62,0,0,0-16.41-6.48l-40.29-8.6c.23-7.35-7.36-12.45-15.64-15.81-.1.05-.21.08-.31.12l-1.41.5.19-1.22c-1.23-.46-2.46-.89-3.68-1.28a22.65,22.65,0,0,1-4.24,1.64c-1.2.39-2.44.78-3.74,1.32-.24.1-.5.21-.75.33l-.51.24-1.91.92.59-1.74.09-.27,0-.1a7.78,7.78,0,0,0,.36-5l-2.12-.43A6.62,6.62,0,0,1,201,241.8l-.28.11a17.28,17.28,0,0,0,.24,8l.12.41a13,13,0,0,0,1.57,3.54l.13,0,8.79,1.79c0,.12.1.24.14.36,5.63,14.27,2.28,25,.14,33.13a40.56,40.56,0,0,0-1.11,15.68c1.06,12.05.49,25.5-.58,37.37-1.43,15.8-3.76,28.81-4.37,32a1.28,1.28,0,0,0,0,.17l-.12.59h113C319.74,317.83,315.07,302.23,315.07,302.23Zm-79.53,14.82c2.65-29.47-3.15-43.93-6.07-49.15a15.56,15.56,0,0,0-1.54-2.36l.58-.27a2.14,2.14,0,0,1,.1.22h.08s0,0,0,0l0-.26,2.73-1.28a18.65,18.65,0,0,1,1.36,2.3.08.08,0,0,0,0,.05c2.91,5.66,9.14,21.81,5.43,51.74a178.87,178.87,0,0,0-2,22,161.56,161.56,0,0,0,1.18,26.53C231.59,346.24,235.54,317.05,235.54,317.05Z"/></g><g id="sweatshirt_shadows"><path id="sweatshirt_shadow" class="cls-4" d="M145.65,252c.23-.1-18.2,1.95-13.91,25.24C131.74,277.26,132.45,257.59,145.65,252Z"/><path id="sweatshirt_shadow-2" data-name="sweatshirt_shadow" class="cls-4" d="M122.17,267.18s-57-17.34,3.63-23.12c0,0,28.4-3.63,39.47-1.81C165.27,242.25,80,245,122.17,267.18Z"/><path class="cls-1" d="M129.44,339.92a131.88,131.88,0,0,0,1.35,24.93c-5.55-16.79-2.54-42.61-2.54-42.61,3.47-23.7-2.68-37.23-6.25-42.8a20.11,20.11,0,0,0-2.29-3l4.42.85a15.86,15.86,0,0,1,1.3,1.86c.16.26.33.54.51.86,3.05,5.36,8.54,18.9,5,43.06A147.15,147.15,0,0,0,129.44,339.92Z"/><path class="cls-4" d="M132.94,325s-3.48,21.07-.15,41.82c-2.71-8.18-3.38-18.5-3.35-26.93a147.15,147.15,0,0,1,1.5-16.89c3.54-24.16-1.95-37.7-5-43.06-.18-.32-.35-.6-.51-.86l.7.14s.22.26.6.79C129,283.33,137,297.07,132.94,325Z"/><path class="cls-4" d="M239.42,368.61s0,0,0-.06l0,.1Z"/><path class="cls-4" d="M240.23,320s-4.12,24.06-.82,48.56c-2.54-8.88-3.22-19.44-3.18-28.53a178.87,178.87,0,0,1,2-22c3.71-29.93-2.52-46.08-5.43-51.74a.08.08,0,0,1,0-.05l.64-.3a0,0,0,0,0,0,0C233.86,266.52,244.89,282.37,240.23,320Z"/><path class="cls-4" d="M206.52,244.31l0,.1-.09.27c-1.56-.48-3.24-1-5.07-1.45C201.12,243.17,203.27,243.55,206.52,244.31Z"/><path class="cls-4" d="M224.86,256s1.18-4.93-16.63-10.77c.25-.12.51-.23.75-.33C217.24,247.05,229.13,251.15,224.86,256Z"/><path class="cls-4" d="M228.69,265.18l0,.26s0,0,0,0h-.08a2.14,2.14,0,0,0-.1-.22,2.3,2.3,0,0,0-.18-.43c-3.09-6.36-15.81-8.93-16.64-9.14.73.06,17.25.41,17,8.94A4.89,4.89,0,0,1,228.69,265.18Z"/><path class="cls-4" d="M233.43,265.92l-.63.33a.08.08,0,0,1,0-.05,18.65,18.65,0,0,0-1.36-2.3l-2.73,1.28,0,.26s0,0,0,0h-.08a2.14,2.14,0,0,0-.1-.22l-.58.27a15.56,15.56,0,0,1,1.54,2.36c-.81.87-2.29,3.13-.51,6.86,0,0,3.9,7.84-3.27,14.91,0,0-5.95,6.48-8.73,24.4l-11.27,60.84.06-.48a1.28,1.28,0,0,1,0-.17c.37-3.07,2.06-16.68,4.37-32,3.2-21.14,7.58-45.55,11.35-50.1,2.24-2.71,4.45-5.85,4.62-6.07,6.72-9-6.62-15.17,2.22-21.23l.2-.14.19-.06c1.24-.38,8.28-2.65,9.11-4.92C237.83,259.72,239.1,262.82,233.43,265.92Z"/><path class="cls-4" d="M174,374.27c0-.19-12.46-79.62-41.69-94a48.4,48.4,0,0,1-5.57-.23l-.79-.07c-.18-.32-.35-.6-.51-.86a15.86,15.86,0,0,0-1.3-1.86l-4.42-.85a20.11,20.11,0,0,1,2.29,3,57.7,57.7,0,0,1-17.09-5.5c-.12-.06-4.67-1.92-15.67-2.56,0,0-14.63-.55-14.84-11.24v0l.92-.55c0,.11,0,.21,0,.31-.06,5.87,5.9,7.15,5.89,7.44,5.89,2.24,18.38,1.27,24.4,4.43,14.79,6.05,26.47,6,26.47,6C154.53,281.2,173.81,347.79,174,374.27Z"/><path id="sweatshirt_shadow-3" data-name="sweatshirt_shadow" class="cls-4" d="M293.18,274.36c-1.05-.49,23.94,4.78,23.43,54.17l1.5,46-11.78-.35S322.31,288.07,293.18,274.36Z"/><path id="right_armpit" class="cls-4" d="M60.82,374c-.32-1.83,1.62-33.77,1.62-33.77S64.11,374,64.09,374A31.51,31.51,0,0,1,60.82,374Z"/><path id="left_armpit" class="cls-4" d="M282.7,374c-.32-1.83,1.62-33.77,1.62-33.77S286,374,286,374A31.51,31.51,0,0,1,282.7,374Z"/></g><g id="drawstrings"><path class="cls-1" d="M236.23,340a161.56,161.56,0,0,0,1.18,26.53c-5.82-20.31-1.87-49.5-1.87-49.5,2.65-29.47-3.15-43.93-6.07-49.15a15.56,15.56,0,0,0-1.54-2.36l.58-.27a2.14,2.14,0,0,1,.1.22h.08s0,0,0,0l0-.26,2.73-1.28a18.65,18.65,0,0,1,1.36,2.3.08.08,0,0,0,0,.05c2.91,5.66,9.14,21.81,5.43,51.74A178.87,178.87,0,0,0,236.23,340Z"/><path class="cls-1" d="M228.69,265.48h-.08a2.14,2.14,0,0,0-.1-.22l.18-.09,0,.26S228.69,265.48,228.69,265.48Z"/><path class="cls-1" d="M237.42,366.61s0,0,0-.06l0,.1Z"/></g><g id="skin"><path class="cls-5" d="M202.68,261.6c-2.39,9.7-15,10.37-15.33,10.37-19.52,0-26.46-11.82-25.64-22.05a3.08,3.08,0,0,0,.61-.24c.87-.39,5.38-8.9,9-18.92,4.5,3.15,9.4,5.87,14.12,6.12l.71,0,.2-.69a3.71,3.71,0,0,0,.11-2l.09-.06c2.07,1.55,2.43,1.91,1.63,4.32l-.7,2.08,2.49-1.29.85-.44a5.84,5.84,0,0,0,2.86-2.82c.29.51.56,1,.84,1.57s.62,1.19,1,1.77l.85,1.46,1.62-3.46c.1.18.2.34.29.49.68,1.16,1,1.64.19,3.2l-.95,1.9,2-.66c.41-.13.78-.26,1.14-.4-.77,4-.48,8.31,2.1,12.05l0,0-.23,0A16.78,16.78,0,0,1,202.68,261.6Z"/><path class="cls-5" d="M239.67,206.06s-11.08,6.69-15.4-2.36c0,0-4.44,8.65-21.9,1.58,0,0,5.47-13.12,24.39-11.42C226.76,193.86,239.14,192.78,239.67,206.06Z"/><path class="cls-5" d="M281.31,145.78a1.49,1.49,0,0,1-1.23.64,1.51,1.51,0,0,1-.86-.27A22.5,22.5,0,0,0,266.46,142c.14.16.27.32.4.5a6.53,6.53,0,0,1-1.08,8.75,5.82,5.82,0,0,1-3.74,1.38,5.63,5.63,0,0,1-.71,0,6.3,6.3,0,0,1-4.77-8.48l-.51.26a1.5,1.5,0,1,1-1.45-2.62,25.65,25.65,0,0,1,26.33,2A1.51,1.51,0,0,1,281.31,145.78Z"/><path class="cls-5" d="M129.87,142.19c.4.61.85,1.25,1.36,1.9l-1.56,1.24,0-.06-.19-.21a16.19,16.19,0,0,0-1.49-1.4l0,.08a36.28,36.28,0,0,0-5.13-3,22.1,22.1,0,0,0-2.59-1c3.43.26,6.34.83,7,.71l1.38-.24.25.45c.12.2.23.4.36.61S129.66,141.88,129.87,142.19Z"/><path class="cls-5" d="M159.47,137a1.19,1.19,0,0,1-.29-.13l-.12-.09C159.19,136.9,159.33,137,159.47,137Z"/><path class="cls-5" d="M166.46,148.8c-.09-1.17-1.24-8.36-1-11.18.42-4.67,5-4.86,5.39-5.12h0c15.6-1.68,41.86,0,41.86,0a4.81,4.81,0,0,1,5,3.38l.1-.1c0,.3.09.61.12.95a0,0,0,0,1,0,0,20.32,20.32,0,0,1,0,2.93,46.29,46.29,0,0,1-1,7.22s-3.34,15.51-29.51,14.3h-.12s-11.61-.5-15.6-3.46a8.53,8.53,0,0,1-2.55-2.19,10.76,10.76,0,0,1-1.76-3,19.66,19.66,0,0,1-1-3.49A1.85,1.85,0,0,1,166.46,148.8Z"/><path class="cls-5" d="M272,163.16l-.44,0,.44,0,.3,0Z"/><path class="cls-5" d="M279.29,166.21l1.25-.21h0q-1.71,4.88-3.77,10-1.45,3.63-3.12,7.37l.05-.53,0-.26v-.13l-2.17,4.46c-2.45,5-11.92,17.37-18.35,21.13l-.08.05A8.21,8.21,0,0,1,251,209c-.07-.38-.14-.82-.21-1.29a43.77,43.77,0,0,0-3.25-12c-1.32-2.74-4.61-7.15-7.8-8.38-1.14-.44-7-2.63-11.12-2.46a35.87,35.87,0,0,1-7-.78c-3.37-.58-6.84-1.18-9.85-.63-7.36,1.35-17.39,10.85-21.26,18.18l-4.35-1.37c-12.78-4-30.3-9.43-35.67-19.06-6-10.84-11.15-29.89-10-43,7.33-1.25,15.34-2.64,17-3a0,0,0,0,1,0,0,5,5,0,0,0,1.38,1.31l0,0c0,.11.07.33.11.55.23,1.21.38,2.68.55,4.09s.4,2.86.67,4.29l.74,4.4a23.12,23.12,0,0,0,1.52,4.87,15.05,15.05,0,0,0,7.08,7.68c3.17,1.54,14.61,2.21,17.67,2.13,23.53.8,30.37-10.13,32.24-14.92,1.65-3.45,2.28-6.49,5.56-10.46,2-2.14,6.34-3.09,8.59-3.13,2.14.16,6.6.33,8.75,5.78a66.27,66.27,0,0,0,1.9,7.11,0,0,0,0,0,0,0c.08,1.61,1.41,18.94,25.68,17.91h1.22l.56,0,.69,0c1.27-.07,2.81-.19,4.39-.36C277.55,166.45,278.43,166.34,279.29,166.21Z"/><path class="cls-5" d="M290.31,121.64h0l-.21-.27a2.47,2.47,0,0,0-.21-.27c-.11-.14-.22-.28-.34-.41a23.79,23.79,0,0,0-6.1-5.14l-.11-.06a24.34,24.34,0,0,0-2.52-1.21v-.05l-.17-.08c-13.16-5.52-28.57,1.81-28.77,1.9a1,1,0,0,0-.35.26c-2.23,2.38-.87,7.75-.7,8.35a1.18,1.18,0,0,0,.64.77,1.23,1.23,0,0,0,1,0c.18-.09,14.76-6.84,27.41-3.51a21.25,21.25,0,0,1,7.74,3.73c.3.23.6.47.89.72h0l.16.13-1.75-.08-3.66,0h-3.8s0-.09,0-.13h-.19l-10.84,0h-11c-.59,0-1.24,0-1.88.06s-1.27.1-1.91.19a17.11,17.11,0,0,0-3.95.94,9.24,9.24,0,0,0-2.08,1.12,7.29,7.29,0,0,0-2,2.11,5.71,5.71,0,0,0-.35.64.16.16,0,0,0-.28,0c-2,2.23-4.8.55-6.16,0a16.83,16.83,0,0,0-7.17-1.33c-2.39.09-4.83.68-7.32,1-1.63.24-2.55.36-3.67-.44l-.21-.35a6.5,6.5,0,0,0-2.05-2,10.2,10.2,0,0,0-2.32-1.06,23.72,23.72,0,0,0-4.56-.9c-.75-.08-1.5-.13-2.24-.17s-1.52-.07-2.22-.06h-13l-17.36-.06-4.34,0-4.37.16c-1.46.06-2.92.13-4.4.26-.74.06-1.5.14-2.27.25a11.1,11.1,0,0,0-2.53.65l-.6.3a2.07,2.07,0,0,0-.25.19c-.12.1-.23.18-.35.29-3.46.09-10.82,1-17.93,2-11.14-11.83-1.86-41,.83-48.6,9.16,13.58,15.75,11.76,16,11.67l1-.3-.32-1a12.72,12.72,0,0,1,3.88-14.34l.14-.12c28.31-30.26,80.38-9.48,80.9-9.27l.41.17.39-.19c9.78-4.5,18.48-5.63,25.94-3.38q1.23.38,2.43.87a25.17,25.17,0,0,1,5.06,2.85L277,69c.5.37,1,.76,1.43,1.17l.55.49a32.18,32.18,0,0,1,7.77,11.25L288,85.3l0-.22.11-.52c0,.16.07.31.1.47A126.2,126.2,0,0,1,290.31,121.64Z"/><path class="cls-5" d="M136,172.92a7.9,7.9,0,0,1-.43,1.94c-.13.32-.39.86-.75.9h-.1c-6.58,12.09-16-4.65-16-4.65-15.42-17.78-8.08-29.51-8.08-29.51a7.52,7.52,0,0,1,.93-.94,5.78,5.78,0,0,1,.71-.51h0a7,7,0,0,1,3.33-1,12.57,12.57,0,0,1,4.59.67,22.1,22.1,0,0,1,2.59,1,36.28,36.28,0,0,1,5.13,3h0C134,153.59,136.71,166.91,136,172.92Z"/></g><g id="skin_shodows"><path class="cls-6" d="M202.73,261.6c-3.54-2.1-5.86-4-5.82-5.34a160.89,160.89,0,0,0-6-17.39,5.84,5.84,0,0,0,2.86-2.82c.29.51.56,1,.84,1.57s.62,1.19,1,1.77l.85,1.46,1.62-3.46c.1.18.2.34.29.49.68,1.16,1,1.64.19,3.2l-.95,1.9,2-.66c.42-.14.81-.27,1.18-.41a17.28,17.28,0,0,0,.24,8l.12.41a13,13,0,0,0,1.57,3.54l.13,0,.06.11-.26-.06A16.78,16.78,0,0,1,202.73,261.6Z"/><path class="cls-6" d="M280.72,166c-1.19,3.27-2.51,6.59-4,10-.74,1.74-1.52,3.51-2.33,5.29,0,0-.24.55-.69,1.55l0-.39-.06.13-2.11,4.33c-2.46,5.06-12,17.47-18.43,21.18l0-.05c6.58-10.08,13-23.48,17.83-41l.56,0,.69,0c1.27-.07,2.81-.19,4.39-.36.87-.09,1.75-.2,2.6-.34l1.25-.2Z"/><path class="cls-6" d="M288.68,126.5l-1.75-.08-3.66,0h-3.8s0-.09,0-.13c.19-1.39.38-2.83.56-4.29a21.42,21.42,0,0,1,7.57,3.6c.3.23.6.47.89.72h0Z"/><path class="cls-6" d="M290.43,121.8v0l-.12-.16c-.14-.19-.29-.37-.43-.55s-.22-.28-.34-.41a21.22,21.22,0,0,0-6.1-5.14l-.11-.06a24.34,24.34,0,0,0-2.52-1.21v-.05c1.43-18.53,0-39.67-11.63-48.77-.3-.24-.31-.42-.1-.53q1.23.38,2.43.87A25.49,25.49,0,0,1,277,69c.5.37,1,.76,1.43,1.17A32.1,32.1,0,0,1,287,82l1.09,3,.13.35.08-.4.06-.32A122.7,122.7,0,0,1,290.43,121.8Z"/><path id="ear_shadow" class="cls-6" d="M134.44,165.27a4.42,4.42,0,0,1-6,.25c-3.58-4.4,2.19-8.17,2.19-8.17-4.77-12.65-14.4-8.56-15-8.27,0,0,9.67-.66,12.14,8.22,0,0-3.19,0-5,4.38a6.45,6.45,0,0,0,3.08,7.78c.36.22,7,3.51,9.47-3.28Z"/></g><path id="mouth" class="cls-7" d="M215.7,194.45c-.31-.27,6.06,18.72,20.13,2.17C235.83,196.62,222.7,205.24,215.7,194.45Z"/><g id="nose"><path id="nostril" class="cls-7" d="M222.8,183.93s-.85-3.81,5.74-1.14Z"/><path class="cls-7" d="M238.21,186.83l-.55-.19a8.67,8.67,0,0,0-1.49-9.84c-6.85-5.88-15.18,1.29-15.55,1.62,8.76-10.23,16.1-4.95,16.1-4.95C242.87,178.31,240.49,183.74,238.21,186.83Z"/></g><g id="eyebrows"><path class="cls-8" d="M217.08,125.85a1.15,1.15,0,0,1-.69.66,1.12,1.12,0,0,1-.4.07,1.17,1.17,0,0,1-.55-.13c-25.13-13.15-56.62-2.45-56.94-2.34a1.18,1.18,0,0,1-1.42-.54,1.2,1.2,0,0,1,.31-1.5c17.45-13.74,35.49-12.94,47.56-9.85,5.22,1.34,11,3.69,11.77,4.81h0C219,121,217.16,125.65,217.08,125.85Z"/><path class="cls-8" d="M291,122.89v3a1.22,1.22,0,0,1-.16.6l-.36,0h-.21l-.38,0-1.32-.06h0c-.29-.25-.59-.49-.89-.72a21.25,21.25,0,0,0-7.74-3.73c-12.65-3.33-27.23,3.42-27.41,3.51a1.23,1.23,0,0,1-1,0,1.18,1.18,0,0,1-.64-.77c-.17-.6-1.53-6,.7-8.35a1,1,0,0,1,.35-.26c.2-.09,15.61-7.42,28.77-1.9l.17.08v.05a24.34,24.34,0,0,1,2.52,1.21l.11.06a23.79,23.79,0,0,1,6.1,5.14c.12.13.23.27.34.41a2.47,2.47,0,0,1,.21.27l.21.27h0l.12.16v0l.23.3.06.08A1.18,1.18,0,0,1,291,122.89Z"/><path class="cls-8" d="M280.81,114.24a21.93,21.93,0,0,1,2.52,1.26,24.34,24.34,0,0,0-2.52-1.21Z"/><path class="cls-8" d="M290.43,121.8v0l-.12-.16c-.14-.19-.29-.37-.43-.55.15.17.29.35.43.53Z"/></g><path id="beard" class="cls-9" d="M271.57,186.88c-2.46,5.06-12,17.47-18.43,21.18A8.21,8.21,0,0,1,251,209c-.07-.38-.14-.82-.21-1.29a43.77,43.77,0,0,0-3.25-12c-1.32-2.74-4.61-7.15-7.8-8.38-.27-.1-.81-.31-1.53-.55l-.55-.19c-2.38-.79-6.16-1.84-9-1.72a35.87,35.87,0,0,1-7-.78c-3.37-.58-6.84-1.18-9.85-.63-7.36,1.35-17.39,10.85-21.26,18.18l-4.35-1.37c-12.78-4-30.3-9.43-35.67-19.06-6-10.84-11.15-29.89-10-43-4.88.84-9.46,1.61-11.67,2l.25.45c.12.2.23.4.36.61s.37.59.58.9c.4.61.85,1.25,1.36,1.9l-1.56,1.24a14.57,14.57,0,0,0-1.73-1.67c6.79,11.12,9.43,26.73,7.67,31.2-.13.32-.39.86-.75.9l-.42.05-.09.14-.14.21c-.25.38-.36.54,1.78,9.35,1.35,5.56,2.78,11,3.82,14.6,2.26,7.73,14.75,18.64,20.62,22.5,1.4.92,3.11,2.25,4.93,3.66s3.88,3,6,4.49c4.5,3.15,9.4,5.87,14.12,6.12l.71,0,.2-.69a3.71,3.71,0,0,0,.11-2l.09-.06c2.07,1.55,2.43,1.91,1.63,4.32l-.7,2.08,2.49-1.29.85-.44a5.84,5.84,0,0,0,2.86-2.82c.29.51.56,1,.84,1.57s.62,1.19,1,1.77l.85,1.46,1.62-3.46c.1.18.2.34.29.49.68,1.16,1,1.64.19,3.2l-.95,1.9,2-.66c.41-.13.78-.26,1.14-.4h0l.28-.11a6.62,6.62,0,0,0,3.78-2.93,6.88,6.88,0,0,0,.71-2,7.91,7.91,0,0,1,1.41,2.44,7.78,7.78,0,0,1-.36,5l0,.1-.09.27-.59,1.74,1.91-.92.51-.24c.25-.12.51-.23.75-.33,1.3-.54,2.54-.93,3.74-1.32A22.65,22.65,0,0,0,217,242a8.05,8.05,0,0,0,3.47-3.57,9.53,9.53,0,0,1,.25,4.59l0,.26-.19,1.22,1.41-.5c.1,0,.21-.07.31-.12a13.87,13.87,0,0,0,8.34-7.54,4.51,4.51,0,0,1,.9,4.59l-.57,2.07,1.86-1.06c12.35-7,20.36-14,26-22.6,7.08-10.83,13.52-21.42,14.55-31.95l.4-4,.05-.53,0-.39Zm-47.3,16.82s-4.44,8.65-21.9,1.58c0,0,5.47-13.12,24.39-11.42,0,0,12.38-1.08,12.91,12.2C239.67,206.06,228.59,212.75,224.27,203.7Z"/><g id="beard_highlights"><path id="beard_highlight" class="cls-10" d="M175,228.9s-4.59-5.9-3.56-15.72l-3.26-1.79S168.61,225.92,175,228.9Z"/><path id="beard_highlight-2" data-name="beard_highlight" class="cls-10" d="M201.77,233.06s8.47-4.87,1.77-14.1c0,0,1.27-.7-.26.28C203.21,219.28,206.09,224.17,201.77,233.06Z"/><path id="beard_highlight-3" data-name="beard_highlight" class="cls-10" d="M223.48,241.87s9-6.38,6.74-12.22c0,0,1.34-.94-.33.3C229.82,230,230.44,233.28,223.48,241.87Z"/><path id="beard_highlight-4" data-name="beard_highlight" class="cls-10" d="M260.12,213.69s8.28-5,1.42-11.56c0,0,1.24-.73-.25.26C261.22,202.43,264.19,206,260.12,213.69Z"/><path id="beard_highlight-5" data-name="beard_highlight" class="cls-10" d="M145.59,188.55c.15.13-6.65-2.55-1.73-10.19l2-.18S141.42,185,145.59,188.55Z"/><path id="beard_highlight-6" data-name="beard_highlight" class="cls-10" d="M245.19,209.49s11.08,15.66-4.91,21.61C240.28,231.1,260.24,226.58,245.19,209.49Z"/><path id="beard_highlight-7" data-name="beard_highlight" class="cls-10" d="M227.56,212.17s5.95,9.45-2.25,15.62C225.31,227.79,231.34,222.12,227.56,212.17Z"/><path id="beard_highlight-8" data-name="beard_highlight" class="cls-10" d="M188.83,203.48s-11.05,12.84-2.25,19.53C186.58,223,183,214.17,188.83,203.48Z"/><path id="beard_highlight-9" data-name="beard_highlight" class="cls-10" d="M156.7,192.75s-5.36,10.78,1.56,14.47A19.37,19.37,0,0,1,156.7,192.75Z"/></g><g id="hair"><path class="cls-8" d="M288.7,81.76l-.32,1.62-.23,1.18-.15.74-1.22-3.39c0-.12-4.28-11.56-15.44-16.23q-1.2-.5-2.43-.87c-7.46-2.25-16.16-1.12-25.94,3.38l-.39.19-.41-.17c-.52-.21-52.59-21-80.9,9.27l-.14.12a12.72,12.72,0,0,0-3.88,14.34l.32,1-1,.3c-.28.09-6.87,1.91-16-11.67-2.69,7.63-12,36.77-.83,48.6-4.57.62-9,1.27-12.27,1.73l-1,.14c-1.48.21-2.63.36-3.3.43l-8.25,4.32-3.46,1.81.29,1.75.51-.14.1,0a5.78,5.78,0,0,0-.71.51l-.52.16-.89.28-.34-.86c-.18-.44-17.09-43.92,2.23-78.42.25-.5.9-2.19.32-3-.41-.6-1.54-.84-3.18-.67l-4.44.44,3.82-2.29a9.16,9.16,0,0,1,9,.06A8,8,0,0,0,116,51.85c-2.08-2.73-6-4.3-11.64-4.66L103,47.1l.51-1.28c.1-.27,2.68-6.65,8.27-7.91,3-.68,6.18.23,9.54,2.71.87-5.4,3.91-16.31,14.23-18.26l2-.37-.92,1.81c0,.07-3.4,6.88-.82,14.13,1-4.24,3.7-11.57,10.2-14.52l.6-.27.49.44c.49.45.32,1,.16,1.45-1.32,3.95-.74,4.56-.71,4.59s.31.08,1-.2,1.66-2.48,2.41-4.24c1.51-3.51,3.39-7.88,7-8.73l1.7-.4-.51,1.67a8.61,8.61,0,0,0,.08,5.34,1.92,1.92,0,0,0,1.23,1.28c11.32-6.91,10.42-16.21,10.38-16.61l-.18-1.62,1.53.57c.19.08,4.69,1.81,5.45,5.36a21.15,21.15,0,0,1,.2,5.09c0,.77-.06,1.75,0,2.31,1.29-.55,3.13-3.2,4.63-5.37,2.55-3.68,5.21-7.49,8.21-7.19l1.71.17-1,1.41s-1.51,2.19-.71,4.14c.59,1.43,2.34,2.52,5.09,3.19C195,12.18,196.71,2,208.27.38L210.91,0l-1.74,2a14.59,14.59,0,0,0-2.67,6.23,5.12,5.12,0,0,0,2.46,5,2.17,2.17,0,0,0,2.8-.52,9.92,9.92,0,0,1,13.66-1.29l.77.63-.63.77c-2.3,2.82-4.39,6.55-3.84,7.59.13.25.69.36,1.49.29a8.27,8.27,0,0,0,6.81-5,6.7,6.7,0,0,0-1-7l-1.48-1.83,2.34.21a9.1,9.1,0,0,1,5.78,3.06,9.16,9.16,0,0,1,1.9,6.42c.23-.14.47-.31.68-.45a26.42,26.42,0,0,1,2.81-1.67,10,10,0,0,1,5.09-.72L248,14l-1.17,1.39s-2.51,3-2.1,5.63a3.61,3.61,0,0,0,1.84,2.55,2,2,0,0,0,1.9.29c2-.74,3.6-4.52,4-5.92l.5-1.58,1.17,1.18a20.84,20.84,0,0,1,3.6,4.83l.36.88c.57,1.38,1.61,4,2.66,4.06,6.81.7,7.73-5.73,7.77-6l.27-2,1.44,1.48a11.75,11.75,0,0,1,2.53,11,23.43,23.43,0,0,1,3.09-1.41,7.68,7.68,0,0,1,6.45.79L284,32.22l-1.88.66a2.64,2.64,0,0,0-1.33,1.63c-.59,1.65-.58,4.93,2.87,11.17C288.38,54.22,292.33,63.41,288.7,81.76Z"/><path class="cls-8" d="M131.23,144.09l-1.56,1.24,0-.06-.19-.21a16.19,16.19,0,0,0-1.49-1.4,16.72,16.72,0,0,0-5.08-2.88,22.1,22.1,0,0,0-2.59-1c3.43.26,6.34.83,7,.71l1.38-.24.25.45c.12.2.23.4.36.61s.37.59.58.9C130.27,142.8,130.72,143.44,131.23,144.09Z"/></g><g id="hair_highlights"><path id="hair_highlight" class="cls-11" d="M136.55,22.68s-5.17,7.41-.19,16.91l-4.5,2.85S127.56,27.74,136.55,22.68Z"/><path id="hair_highlight-2" data-name="hair_highlight" class="cls-11" d="M185.65,20.35S200.51,27.53,185,39c0,0,2.23,1-.43-.4C184.47,38.54,191.38,32.42,185.65,20.35Z"/><path id="hair_highlight-3" data-name="hair_highlight" class="cls-11" d="M241.37,17S244,28.25,234.72,31.4c0,0,.41,1.66,0-.47C234.69,30.84,239.18,28.64,241.37,17Z"/><path id="hair_highlight-4" data-name="hair_highlight" class="cls-11" d="M280.75,52.76s9.58,7.38-4.46,12.16c0,0,1.44,1.08-.24-.34C276,64.52,282.46,61.72,280.75,52.76Z"/><path id="hair_highlight-5" data-name="hair_highlight" class="cls-11" d="M109,44.62c-.32,0,10.92-2.92,12.31,6.47L119,52.69S117.72,44.24,109,44.62Z"/><path id="hair_highlight-6" data-name="hair_highlight" class="cls-11" d="M241.22,48.28s34.33.77,22-20.25C263.27,28,282.39,52.24,241.22,48.28Z"/><path id="hair_highlight-7" data-name="hair_highlight" class="cls-11" d="M203.32,56.24s17.59-5.79,16-19.69C219.28,36.55,219.14,48.06,203.32,56.24Z"/><path id="hair_highlight-8" data-name="hair_highlight" class="cls-11" d="M152.25,49.48S143,33.38,160,29C160,29,149.6,37,152.25,49.48Z"/><path id="hair_highlight-9" data-name="hair_highlight" class="cls-11" d="M142.62,66.84s1.89,13.94,9.9,20.35C152.52,87.19,140.4,80.58,142.62,66.84Z"/><path id="hair_highlight-10" data-name="hair_highlight" class="cls-11" d="M112.09,79.65s-3.75,13.57,1.09,22.61C113.18,102.26,104.64,91.41,112.09,79.65Z"/><path id="hair_highlight-11" data-name="hair_highlight" class="cls-11" d="M125.41,67.59s-7.27,15.73,5.06,31.47C130.47,99.06,113.4,84.39,125.41,67.59Z"/><path id="hair_highlight-12" data-name="hair_highlight" class="cls-11" d="M120.61,102.07a24.59,24.59,0,0,0,8.94,20.27S116.72,115.34,120.61,102.07Z"/><path id="hair_highlight-13" data-name="hair_highlight" class="cls-11" d="M108.94,109.15s1.89,20.66,10.08,26l-4.41-.12S107.08,127.58,108.94,109.15Z"/></g><g id="glasses"><g id="lenses"><g id="right"><path class="cls-12" d="M218,139.69a46.29,46.29,0,0,1-1,7.22s-3.34,15.51-29.51,14.3h-.12s-11.61-.5-15.6-3.46a8.53,8.53,0,0,1-2.55-2.19,10.76,10.76,0,0,1-1.76-3,19.66,19.66,0,0,1-1-3.49,1.85,1.85,0,0,1,0-.23c-.09-1.17-1.24-8.36-1-11.18.42-4.67,5-4.86,5.39-5.12h0c15.6-1.68,41.86,0,41.86,0a4.81,4.81,0,0,1,5,3.38l.1-.1c0,.3.09.61.12.95a0,0,0,0,1,0,0A20.32,20.32,0,0,1,218,139.69Z"/></g><g id="left"><path class="cls-12" d="M281.31,145.78a1.49,1.49,0,0,1-1.23.64,1.51,1.51,0,0,1-.86-.27A22.5,22.5,0,0,0,266.46,142c.14.16.27.32.4.5a6.53,6.53,0,0,1-1.08,8.75,5.82,5.82,0,0,1-3.74,1.38,5.63,5.63,0,0,1-.71,0,6.3,6.3,0,0,1-4.77-8.48l-.51.26a1.5,1.5,0,1,1-1.45-2.62,25.65,25.65,0,0,1,26.33,2A1.51,1.51,0,0,1,281.31,145.78Z"/></g></g><path id="frames" class="cls-13" d="M288.52,126.37h0l-1.75-.08-3.66,0h-3.61s0,.09,0,.13h3.8l3.66,0,1.75.08Zm-177.11,12.2.29,1.75.51-.14.1,0h0a7,7,0,0,1,3.33-1c-.28-.76-.55-1.54-.81-2.33Z"/><path class="cls-13" d="M299.52,130.94c0-.24,0-.46,0-.69s0-.38-.1-.7a3.3,3.3,0,0,0-.31-.9,2.94,2.94,0,0,0-.36-.46,1.84,1.84,0,0,0-.19-.2l-.15-.11-.32-.21A7.12,7.12,0,0,0,296,127q-1-.18-1.89-.27c-1.11-.12-2.21-.19-3.31-.24l-.36,0h-.21l-.38,0-1.32-.06.16.13-1.75-.08-3.66,0h-3.8s0-.09,0-.13h-.19l-10.84,0h-11c-.59,0-1.24,0-1.88.06s-1.27.1-1.91.19a17.11,17.11,0,0,0-3.95.94,9.24,9.24,0,0,0-2.08,1.12,7.29,7.29,0,0,0-2,2.11,5.71,5.71,0,0,0-.35.64.16.16,0,0,0-.28,0c-2,2.23-4.8.55-6.16,0a16.83,16.83,0,0,0-7.17-1.33c-2.39.09-4.83.68-7.32,1-1.63.24-2.55.36-3.67-.44l-.21-.35a6.5,6.5,0,0,0-2.05-2,10.2,10.2,0,0,0-2.32-1.06,23.72,23.72,0,0,0-4.56-.9c-.75-.08-1.5-.13-2.24-.17s-1.52-.07-2.22-.06h-13l-17.36-.06-4.34,0-4.37.16c-1.46.06-2.92.13-4.4.26-.74.06-1.5.14-2.27.25a11.1,11.1,0,0,0-2.53.65l-.6.3a2.07,2.07,0,0,0-.25.19c-.12.1-.23.18-.35.29-3.46.09-10.82,1-17.93,2-4.57.62-9,1.27-12.27,1.73l-1,.14c-1.48.21-2.63.36-3.3.43l-8.25,4.32c.26.79.53,1.57.81,2.33a12.57,12.57,0,0,1,4.59.67c3.43.26,6.34.83,7,.71l1.38-.24c2.21-.37,6.79-1.14,11.67-2,7.33-1.25,15.34-2.64,17-3a0,0,0,0,1,0,0,5,5,0,0,0,1.38,1.31l0,0c0,.11.07.33.11.55.23,1.21.38,2.68.55,4.09s.4,2.86.67,4.29l.74,4.4a23.12,23.12,0,0,0,1.52,4.87,15.05,15.05,0,0,0,7.08,7.68c3.17,1.54,14.61,2.21,17.67,2.13,23.53.8,30.37-10.13,32.24-14.92,1.65-3.45,2.28-6.49,5.56-10.46,2-2.14,6.34-3.09,8.59-3.13,2.14.16,6.6.33,8.75,5.78a66.27,66.27,0,0,0,1.9,7.11,0,0,0,0,0,0,0c.08,1.61,1.41,18.94,25.68,17.91h1.22l.56,0,.69,0c1.27-.07,2.81-.19,4.39-.36.86-.1,1.74-.21,2.6-.34l1.25-.21.13,0a15.25,15.25,0,0,0,4.3-1.27,17.57,17.57,0,0,0,6.87-8.09,31.83,31.83,0,0,0,1.86-5.14l1.15-4.63c.4-1.51.74-3,1.07-4.52s.61-3,.95-4.32c.05-.22.12-.44.15-.56l0,0a6,6,0,0,0,1.32-1.38,6.85,6.85,0,0,0,.84-1.86A9.58,9.58,0,0,0,299.52,130.94Zm-140.34,6-.12-.09c.13.08.27.15.41.22A1.19,1.19,0,0,1,159.18,136.91ZM218,139.69a46.29,46.29,0,0,1-1,7.22s-3.34,15.51-29.51,14.3h-.12s-11.61-.5-15.6-3.46a8.53,8.53,0,0,1-2.55-2.19,10.76,10.76,0,0,1-1.76-3,19.66,19.66,0,0,1-1-3.49,1.85,1.85,0,0,1,0-.23c-.09-1.17-1.24-8.36-1-11.18.42-4.67,5-4.86,5.39-5.12h0c15.6-1.68,41.86,0,41.86,0a4.81,4.81,0,0,1,5,3.38l.1-.1c0,.3.09.61.12.95a0,0,0,0,1,0,0A20.32,20.32,0,0,1,218,139.69Zm71.08,10.58-.06.23a26.58,26.58,0,0,1-1.26,3.68,13.75,13.75,0,0,1-1.84,3.2,9.75,9.75,0,0,1-2.41,2.31,6.87,6.87,0,0,1-.9.64l-.24.13h0c-.21.12-.43.23-.67.35l-.48.22-.51.21-.59.22-.88.29-.9.26-.81.21-1,.22c-.4.09-.79.16-1.18.23l-1.09.18-1,.14-1,.12-.3,0-.44,0c-1,.1-1.58.13-1.58.13h-.11c-22.19,1.28-23.16-15.07-23.16-15.07a52.21,52.21,0,0,1,.42-10.82,0,0,0,0,0,0,0c.63-2.16,2-4.33,4.9-4.33,0,0,14-1.12,26.33-.7l2.38.11,1.16.07,1.71.13.83.07.81.08,1.06.12,1,.13a1.44,1.44,0,0,0,.27.1l.17.05.5.17a4.38,4.38,0,0,1,.57.24l.35.2c1.06.66,2.16,1.94,2.05,4.62C291.14,141.45,289.31,149,289.1,150.27Z"/><path class="cls-12" d="M289.2,133.86l-.35-.2-.57-.24-.5-.17-.17-.05a1.44,1.44,0,0,1-.27-.1l-1-.13-1.06-.12-.81-.08-.83-.07-1.71-.13-1.16-.07-2.38-.11c-12.28-.42-26.33.7-26.33.7-2.91,0-4.27,2.17-4.9,4.33a0,0,0,0,1,0,0,52.21,52.21,0,0,0-.42,10.82s1,16.35,23.16,15.07H270s.61,0,1.58-.13l.44,0,.3,0,1-.12,1-.14,1.09-.18c.39-.07.78-.14,1.18-.23l1-.22.81-.21.9-.26.88-.29.59-.22.51-.21.48-.22c.24-.12.46-.23.67-.35h0l.24-.13a6.87,6.87,0,0,0,.9-.64,9.75,9.75,0,0,0,2.41-2.31,13.75,13.75,0,0,0,1.84-3.2A26.58,26.58,0,0,0,289,150.5l.06-.23c.21-1.24,2-8.82,2.15-11.79C291.36,135.8,290.26,134.52,289.2,133.86Zm-7.89,11.92a1.49,1.49,0,0,1-1.23.64,1.51,1.51,0,0,1-.86-.27A22.5,22.5,0,0,0,266.46,142c.14.16.27.32.4.5a6.53,6.53,0,0,1-1.08,8.75,5.82,5.82,0,0,1-3.74,1.38,5.63,5.63,0,0,1-.71,0,6.3,6.3,0,0,1-4.77-8.48l-.51.26a1.5,1.5,0,1,1-1.45-2.62,25.65,25.65,0,0,1,26.33,2A1.51,1.51,0,0,1,281.31,145.78Z"/></g><g id="eyes"><path id="right_eye" class="cls-7" d="M215.07,146.21a1.53,1.53,0,0,1-.88.28,1.51,1.51,0,0,1-1.22-.61c-3-4.12-7.71-5.65-12.44-5.95a6.73,6.73,0,0,1,1.89,4.7,6.81,6.81,0,1,1-12.5-3.74,41.25,41.25,0,0,0-5.13,1.43,1.5,1.5,0,0,1-1-2.81A48.7,48.7,0,0,1,195.85,137c8.91-.67,15.67,1.81,19.55,7.14A1.5,1.5,0,0,1,215.07,146.21Z"/><g id="left_eye"><path class="cls-7" d="M281.31,145.78a1.49,1.49,0,0,1-1.23.64,1.51,1.51,0,0,1-.86-.27A22.5,22.5,0,0,0,266.46,142c.14.16.27.32.4.5a6.53,6.53,0,0,1-1.08,8.75,5.82,5.82,0,0,1-3.74,1.38,5.63,5.63,0,0,1-.71,0,6.3,6.3,0,0,1-4.77-8.48l-.51.26a1.5,1.5,0,1,1-1.45-2.62,25.65,25.65,0,0,1,26.33,2A1.51,1.51,0,0,1,281.31,145.78Z"/></g></g></svg>