<svg xmlns="http://www.w3.org/2000/svg" id="avatar" data-name="trAvatar" viewBox="0 0 143.78 168.82"><defs><style>.cls-2{fill:#552c0f}.cls-3{fill:#010101}.cls-5{fill:#3d4f37}.cls-7{fill:#e2ab90}.cls-8{fill:#fff}.cls-9{fill:#b96458;opacity:.25}.cls-10{fill:#3c1e11}.cls-13{fill:#60381c}</style></defs><path d="M0 0h143.78v168.59H0z" style="fill:none"/><path id="sweatshirt" d="m143.34 168.76-143.25.05c2.48-47.85 10.14-45.17 34.05-51.79-.79-7.79 22.16-10.15 22.16-10.15 17.95-2.76 36.36.59 39.4 1.53 4.16 1.14 11.6 3.85 11.36 8.55 31.98 6.74 37.49 4.86 36.28 51.81" style="fill:#556e4f"/><g id="sweatshirt_x5F_shadows"><path id="sweatshirt_x5F_shadow" d="M55.13 120.33s-25.59-7.79 1.63-10.38c0 0 12.76-1.63 17.73-.82 0 0-38.32 1.21-19.36 11.2" class="cls-5"/><path d="M103.32 120.65c-.37.39-1.03 1.41-.23 3.08 0 0 1.83 3.15-1.39 6.32 0 0-5.42 5.59-8.15 38.71 0-.02-.94 0-.94 0 .24-1.37 1.5-7.78 2.03-14.72 1.69-22.08 6.02-23.68 7.17-25.23 3.02-4.04-2.97-6.82 1-9.53.03-.02 4.27-1.73 4.27-2.3 0 0 2.15.85-3.75 3.68Zm-43.64 5.55c13.13 6.46 18.72 42.13 18.72 42.22-.08-11.89-8.74-41.8-18.83-43.35 0 0-5.24.02-11.89-2.7-2.7-1.42-12.14 1.53-13.6-5.33 0-.03-.41.11-.41.11.82 7.3 11.04 4.6 13.7 6.21s12.3 2.84 12.3 2.84Z" class="cls-5"/><path id="sweatshirt_x5F_shadow-2" d="M131.93 123.55c-.47-.22 11.79 2.2 11.56 24.38l-.36 20.61-5.29-.16s7.18-38.68-5.91-44.84Z" class="cls-5" data-name="sweatshirt_x5F_shadow"/><path id="right_x5F_armpit" d="M27.58 168.74c-.15-.82.73-15.17.73-15.17s.75 15.17.74 15.17c-.24.05-1.47 0-1.47 0" class="cls-5"/><path id="left_x5F_armpit" d="M127.23 168.79c-.15-.82.73-15.17.73-15.17s.75 15.17.74 15.17c-.24.05-1.47 0-1.47 0" class="cls-5"/><path id="string" d="M58.39 153c-.11 3.27-.03 7.24.61 11.2-2.49-7.54-1.14-19.14-1.14-19.14 1.56-10.64-1.2-16.72-2.81-19.22-.59-.93-1.03-1.37-1.03-1.37l1.99.38s.23.27.58.84c.07.12.15.24.23.39 1.37 2.41 3.84 8.49 2.25 19.34 0 0-.52 3.14-.67 7.59Z" class="cls-8"/><path id="string-2" d="M106.37 152.8c-.11 3.89.47 8.36 1.1 13.06-3.34-9.47-1.14-22.75-1.14-22.75 1.46-18.95-3.7-23.51-3.7-23.51l1.57-.74s5.11 7.35 3.15 23.5c0 0-.83 5.16-.98 10.44" class="cls-8" data-name="string"/></g><path id="tshirt" d="M95.4 130.21c-.93 3.49-.6 5.87-.5 7.04 1.21 13.73-2.29 31.51-2.29 31.51s-12.8.08-14.13.05c.05-2.25.3-23.43-5.57-34.29-.42-.78-11.61-16.41-7.19-21.13 0 0 7.06-1.49 25.52 1-.01 0 4.1.94 4.1.94 2.53 6.41 1.02 11.25.06 14.88" class="cls-8"/><path id="neckline" d="M69.02 112.86c-.29 14.25 13.96 13.48 13.92 13.52 13.82.36 12.04-11.36 12.04-11.36 5.67 14.25-26.58 19.54-26.58-2.04l.61-.12Z" style="fill:#cfcfce"/><g id="skin"><path d="m84.13 106.17-.17.28.06-.25c.05 0 .08-.02.12-.03Z" class="cls-7"/><path d="M130.18 40.53c-2.53-29.57-63.51-54.25-80.04 17.76-1.31 1.78-.63 2.78.5 5.06-1.89.09-3.74 4.88 3.16 13.83 0 0 4.24 7.52 7.19 2.09.49-.16 16.96 20.85 16.26 25.12-.74 4.57-4.18 8.27-4.19 8.36-1.35 8.49 14.57 14.39 18.42 5.1 0-.02.02-.05.02-.07.22-.93.24-2.06-.06-3.39 0 0-1.16-3.18-.95-4.83.03-.26 1.31-3.75 1.31-3.75-.24.07 22.77-1.14 31.61-23.55 0 .11 10.89-16.66 6.77-41.73m-46.01 65.91.06-.25c.05 0 .08-.02.12-.03l-.17.28Z" class="cls-7"/></g><g id="skin_x5F_shodows"><path d="M91.31 117.82c-4.44-2.86-5.72-6.62-5.32-10.21 1.09-9.85 4.33 1.71 4.43 1.37-.85 2.88 1.71 5.06.89 8.84m39.68-63.83c.15 13.35-6.96 32.27-17.2 39.78 4.37-3.21 11.25-25.62 12.84-42.63v-.06c.69-8.4-.45-17.39-5.32-21.58 5.92 0 7.88 6.18 8.39 8.3.94 4.31 1.71 9.97 1.28 16.2Z" class="cls-9"/><path id="ear_x5F_shadow" d="M60.64 74.56c-3.1 2.15-4.43-2.07-1.73-3.55-2.14-5.68-6.47-3.85-6.71-3.72 0 0 4.34-.3 5.45 3.69-1.11-.16-4.38 3.06-.88 5.46.16.1 3.14 1.57 4.25-1.48l-.38-.41Z" class="cls-9"/></g><path id="mouth" d="M97.13 87.66c-.14-.12 2.73 8.41 9.04.97 0 0-5.9 3.87-9.04-.97" class="cls-3"/><g id="nose"><path id="nostril" d="M100.33 82.94s-.39-1.71 2.57-.51z" class="cls-3"/><path d="M107.25 84.24c1.01-2.82-.92-4.5-.92-4.5-3.08-2.64-6.82.58-6.98.73 3.93-4.59 7.23-2.22 7.23-2.22 2.76 2.17 1.69 4.61.67 6Z" class="cls-3"/></g><path id="eyebrows" d="M97.76 56.85c-12.7-4.61-24.25-1.72-26.31-.78a.55.55 0 0 1-.64-.24c7.96-8.34 20.2-6.67 26.79-2.94 1.02 1.77.19 3.87.16 3.96m33.17-1.33c-.02.21.06 1.45-.07 1.61-.27-.02-3.52-1.7-4.9-2.05-6.16-1.61-12.14 1.82-12.76 1.58-.54-.38-1.04-3.09.18-4.21.05-.05 7.17-3.36 13-.82v.02c1.7.69 4.56 3.66 4.55 3.86Z" class="cls-10"/><path id="beard" d="M112.97 94.2c-.43-5.63-3.4-11.03-10.05-10.82-2.3.07-5.3-1.07-7.59-.63-3.31.61-7.81 4.87-9.55 8.17-6.07-1.95-15.22-4.34-17.97-9.18-2.72-4.87-5.01-13.42-4.51-19.32-2.19.38-4.25.72-5.24.89-.5.07-.4.36-.33 1.54 2.89 5.14 4.96 12.74 2.92 14.44-.65.36 2.12 9.63 2.41 10.91 1.95 5.48 15.3 17.31 20.82 16.53.61-.09 1.77 2.05.6 1.65 7.65 2.61 7.65.04 7.65.04.72.76 1.72 2.49.58 2.57 10.45-.74 10.55-3.11 11.09-4.54.8.87.48 1.95.15 2.99 11.04-5.87 18.15-16.03 19.27-27.19 0 0-6.73 10.68-10.24 11.94Zm-11.98-2.38s-1.99 3.88-9.84.71c0 0 2.46-5.89 10.95-5.13 0 0 5.56-.49 5.8 5.48 0 0-4.98 3-6.92-1.06Z" style="fill:#4f2618"/><g id="beard_x5F_highlights"><path id="beard_x5F_highlight" d="M93.7 107.34s3.8-2.18.8-6.33c0 0 .57-.32-.12.13-.03.02 1.26 2.21-.68 6.21Z" class="cls-13"/><path id="beard_x5F_highlight-2" d="M110.38 94.42s4.98 7.04-2.2 9.71c0 0 8.97-2.03 2.2-9.71" class="cls-13" data-name="beard_x5F_highlight"/><path id="beard_x5F_highlight-3" d="M85.07 91.72s-4.96 5.76-1.01 8.77c0 0-1.62-3.97 1.01-8.77" class="cls-13" data-name="beard_x5F_highlight"/></g><path id="hair" d="M129.93 38.56s-1.77-7.21-8.89-9.13c-6.59-1.77-11.82 1.6-11.83 1.6-.02.01-5.72-4-15.34-3.76-6.82.17-17.36.76-23.04 9.25-1.43 2.14.2 5.53.2 5.53s-3.53.99-7.64-5.11c-1.21 3.43-5.38 16.51-.37 21.83-2.05.28-4.06.57-5.51.78l-.47.06c-.66.09-1.18.16-1.48.19l-3.71 1.94-1.55.81.13.79.23-.06h.04c-.11.07-.22.14-.32.23-.08.02-.16.04-.23.07l-.4.13-.15-.39c-.08-.2-7.68-19.73 1-35.22.11-.22.38-.97.14-1.37-.78-1.34-3.42-.1-3.42-.1s2.02-3.64 5.74-1c-.21-4.85-6.57-4.15-6.57-4.15s1.28-6.47 8.23-2.91c1.07-7.99 7.29-8.37 7.29-8.37-.21.42-1.18 2.26-.24 2.86 1.54.98 5.85-2.92 6.62-3.7 2.07-2.09 3.11-1.83 3.11-1.83s-1.76 1.51-1.04 3.19c.12.29.5.85 1.4.53 5.08-2.3 5.41-7.29 14.34-7.77 0 0-2.09 3.04 1.52 3.93.11-1.62.88-6.18 6.08-6.92l1.19-.17s-4.28 5.12 2.47 8.33c.11.05 4.73 2.48 6.11-1.26.93-2.52-1.1-3.98-1.1-3.98s4.95-.56 4.5 4.35c2.41-2.12 4.67-1.17 4.67-1.17s-.54 6.32 3.67 5.08c10.65-3.11 12.5 3.11 12.5 3.11s-1.17.13-1.44 1.03c-.23.75-.1 2.13 1.29 5.02 4.84 10.1 2.27 17.72 2.27 17.72ZM59.2 65.04l-.7.56s-.01-.01-.02-.03l-.09-.09c-.13-.13-.35-.36-.67-.63-.51-.43-1.28-.94-2.28-1.29-.38-.18-.77-.33-1.16-.46 1.54.12 2.85.37 3.16.32l.62-.11c.04.07.08.13.11.2.05.09.1.18.16.27.08.13.17.26.26.4.18.27.38.56.61.85Z" class="cls-10"/><g id="hair_x5F_highlights"><path id="hair_x5F_highlight" d="M61.59 10.52s-2.32 3.33-.09 7.59l-2.02 1.28s-1.93-6.6 2.11-8.87" class="cls-2"/><path id="hair_x5F_highlight-2" d="M83.64 9.47s6.67 3.22-.29 8.37c0 0 1 .47-.19-.18-.05-.03 3.05-2.78.48-8.2Z" class="cls-2" data-name="hair_x5F_highlight"/><path id="hair_x5F_highlight-3" d="M108.6 22.01s15.42.35 9.9-9.09c0 0 8.59 10.87-9.9 9.09" class="cls-2" data-name="hair_x5F_highlight"/><path id="hair_x5F_highlight-4" d="M91.58 25.59s7.9-2.6 7.17-8.84c0 0-.06 5.17-7.17 8.84" class="cls-2" data-name="hair_x5F_highlight"/></g><g id="glasses"><path id="frames" d="M134.78 59.14c.07-2.47-3.06-2-4.94-2.05h-12.29c-6.3.04-7.26 2.69-7.26 2.69-2.66-1.49-6.07-2.65-10.94 0 0 0-.22-3.13-6.04-2.79-3.52 0-10.06-.01-13.65-.03-2.43.13-6.54-.37-8.58.93-3.49.13-11.47 1.43-15.51 1.93l-5.58 2.61c.12.35.32.59.45.93 2.35-.52 6.43.18 7.01.07 2.54-.43 12.42-1.97 14.01-2.26.18.26.69 10.64 4.92 12.16 9.2 3.31 21.02-.01 22.42-5.74.5-1.56.57-5.79.57-5.79 4.7-2.31 10.03-.84 10.63-.14 0 0-.09 3.77-.06 5.64.11 6 7.69 9.58 18.43 6.74 2.84-.75 4.19-7.83 5.32-11.95.89-.58 1.23-1.99 1.12-2.92Z"/><g id="lenses"><path id="right" d="M131.07 62.52c-.69 3.87-.69 7.81-3.98 9.87-9.15 3.92-16.12-1.18-16.03-5.47-.02.02-.18-2.99.19-4.86.58-3.2 6.75-2.25 14.03-2.27 2.51 0 5.79-.63 5.78 2.73Zm-33.33 3.79s-.83 7.1-13.31 6.42c-2.18-.12-8.81.4-9.41-5.57-.21-2.06-1.62-7.1 1.98-7.32 8.65-.28 20.39-1.28 21.07 1.52 0 0-.31 4.95-.33 4.95" style="fill:#373a37"/></g></g><g id="eyes"><path id="right_x5F_eye" d="M96.85 66c-1.15.79-2.41-2.97-6.53-2.82 4.06 6.13-7.64 7.2-4.77.43-1.36.3-2.28.63-2.3.64-.81.32-1.27-.9-.47-1.26 7.81-3.54 14.8.41 14.07 3.01" class="cls-3"/><path id="left_x5F_eye" d="M126.6 65.8c-.5.97-4.37-2.23-6.67-1.72 3.43 4.95-5.86 7.01-4.45.95-4.7.32 4.33-5.19 10.95-.17.31.21.38.63.17.94" class="cls-3"/></g></svg>