<svg xmlns="http://www.w3.org/2000/svg" viewBox="0 0 295.19 352.97"><defs><style>.cls-1{isolation:isolate;}.cls-2{fill:#9d7373;}.cls-3{fill:#725355;}.cls-4{fill:#555655;}.cls-5{fill:#333;}.cls-6{fill:#69441a;}.cls-7{fill:#2a1c0f;mix-blend-mode:multiply;opacity:0.29;}.cls-8{fill:#010101;}.cls-9{fill:#fff;}.cls-10{fill:#c4c4c4;}</style></defs><g class="cls-1"><g id="Layer_1" data-name="Layer 1"><path id="turtleneck" class="cls-2" d="M141.39,312.59v0h.05C141.5,312.63,141.48,312.61,141.39,312.59Zm66,21.32s13.55-3.71,24.78,2.18c0-11-.9-20.65-.9-20.65-.43-5.7-.77-13.46-1-20.14a111.88,111.88,0,0,0-24.41-6.83s15-.47,24.41,6.73c-.27-7.71-.4-14-.4-14,0-3-.13-5.77-.3-8.34-2.87-1-16.42-5.81-24.56-7.23,0,0,0,0,0,0,1.06-.06,16.39,1,24.56,7a100.89,100.89,0,0,0-2.88-18.74h0c-1.4-.63-11.36-5-28.07-8.49a0,0,0,0,0,0,0,75.91,75.91,0,0,0-5.54-8.95.07.07,0,0,0,.06,0,.12.12,0,0,0,.08,0l.12,0s0,0,0,0a3.13,3.13,0,0,1-.5-1.88,1.48,1.48,0,0,1,0-.21,3.32,3.32,0,0,1,.06-.44c.39-2,2.23-4,3.17-6.39,0,0,0,0,0,0s.08-.2.13-.31a.08.08,0,0,0,0-.05.27.27,0,0,0,0-.12v0l0,0h0a7.19,7.19,0,0,0,.29-1.3,11,11,0,0,0-.56-4.41c0-.06,0-.12-.05-.17-.64-2.17-1.48-4.23-1.12-6.11h0l-.64-.7c-.52-.59-1-1.19-1.51-1.8s-.83-1-1.25-1.51c-.19,3.11-1.51,6.2-3.4,7.51l-1.82,1.26.26-2.2a8.39,8.39,0,0,0-3.77-7.78,8.16,8.16,0,0,0-2.92,5.68l-.06.89-.88.05c-6.63.39-12.71-2.6-18.56-5.5a82,82,0,0,0-8.43-3.78A76.16,76.16,0,0,0,139.53,204c-1.6-.29-3.25-.59-4.88-.92a31.38,31.38,0,0,0,1.79,4.21h0c.21.44.45.91.7,1.4a2.91,2.91,0,0,1,.31.93h0a3.26,3.26,0,0,1-.05,1.39,1.55,1.55,0,0,1-.06.23,5.29,5.29,0,0,1-.39,1.09c-1.2,2.58-4,5.26-4.79,7.56-2.34,6.7,2.88,11,1.5,12a34.5,34.5,0,0,1-5.32,3.34.89.89,0,0,1,.07.28,3.54,3.54,0,0,0-.58.69c-1.27,1.87-1.41,5.29-.86,9.7l-1.17.13s0,.1,0,.15L127,246c.77,6.09,2.88,14.06,5.23,22.4h-.31l0,.1.3-.06c2.08,7.36,4.35,15,6.06,21.95h-.22a.14.14,0,0,0,0,.07l.2,0a101,101,0,0,1,2.46,12.69c3.28,29.55,2.34,44.77,2,48.58a16.56,16.56,0,0,0-2.08-.54c0,.12,0,.23-.05.33.63.07,1.24.15,1.85.25l.27,0c0,.18,0,.33-.05.46v0l64-.06c0-.33.06-.84.1-1.53,0-.05,0-.09,0-.14,2.24-.77,14-3.38,24.47,1.12a131.87,131.87,0,0,0,.82-15.39A76.1,76.1,0,0,0,207.36,333.91Z"/><g id="turtleneck_shade" data-name="turtleneck shade"><path id="neck_shade" data-name="neck shade" class="cls-3" d="M196,227.37a2.72,2.72,0,0,0,.12-.25,36,36,0,0,1-2.74,5.57,2.68,2.68,0,0,0-.56,1.1,3.32,3.32,0,0,0-.06.44,1.48,1.48,0,0,0,0,.21,3.9,3.9,0,0,0,.52,1.87h0l-.11.07a.12.12,0,0,1-.08,0,.07.07,0,0,1-.06,0c-10.44,6.56-24.5,2.69-24.5,2.69,5.83.39,13.74-1.29,13.74-1.29,10.62-3.5,3.88-3.37,3.88-3.37-28.36,2.14-39.18-4.42-39.75-4.78,6.23,1.8,21.48,1.54,21.48,1.54,23,1.29,27.31-2.38,28.14-3.86C196,227.39,196,227.38,196,227.37Z"/><path class="cls-3" d="M136.44,207.32c-.14-.27,6.75,4.73,33.48,8.69,0,0-21.8-.19-33-3.66,0,0,.91-1.8.54-2.7Z"/><path class="cls-3" d="M147.58,324.67v27.5H142.7c0-.13,0-.28.05-.46l-.27,0c-.61-.1-1.22-.18-1.85-.25,0-.1,0-.21.05-.33a16.56,16.56,0,0,1,2.08.54c.34-3.81,1.28-19-2-48.58a101,101,0,0,0-2.46-12.69l-.2,0a.14.14,0,0,1,0-.07h.22c-1.71-6.93-4-14.59-6.06-21.95l-.3.06,0-.1h.31c-2.35-8.34-4.46-16.31-5.23-22.4l-1.16.27s0-.1,0-.15L127,246c-.55-4.41-.41-7.83.86-9.7a114.22,114.22,0,0,0,9.71,36.13S147.58,290.86,147.58,324.67Z"/></g><g id="sweater"><path id="sweater-2" data-name="sweater" class="cls-4" d="M232.32,352.63l62.87.13c-1.62-47.72-9-67.06-9-67.06-7.74-24.46-29.09-30.09-29.09-30.09l-33.31-11.27c-20.14-10.93-28.89-8.6-30.49-8l-.12,0a.12.12,0,0,1-.08,0,.07.07,0,0,1-.06,0,75.91,75.91,0,0,1,5.54,8.95c1.36.12,19.7,1.9,28.06,8.44-.42-1.61-.84-3-1.22-4.13-1.08-3.27-1.85-4.8-1.56-5.08,0,0,1.54,3,3.21,5.62.32.49.64,1,.95,1.4,0,0,5.41,9.39,4.2,38.55a187.5,187.5,0,0,0,1.1,27.95s2.07,17.95-.9,33.95ZM269,318.58s1.5,30.26,1.64,33.5c0,.17,0,.26,0,.28a31.48,31.48,0,0,1-3.27,0c0-.06,0-.14,0-.26C267.15,348.54,269,318.58,269,318.58Z"/><path id="sweater-3" data-name="sweater" class="cls-4" d="M231.31,351.64a3.93,3.93,0,0,1-.06.48,4.43,4.43,0,0,1-.06.51l-24.48-.05,0-.43c0-.33.06-.84.1-1.53C216.58,348.89,229.61,351.31,231.31,351.64Z"/><path class="cls-4" d="M232.14,336.21a131.87,131.87,0,0,1-.82,15.39c-10.47-4.5-22.23-1.89-24.47-1.12.17-2.92.45-8.75.51-16.57A76.1,76.1,0,0,1,232.14,336.21Z"/><path class="cls-4" d="M229.53,272.67c-8.17-6-23.5-7.09-24.56-7-.09-.93-.21-1.77-.34-2.47a62.82,62.82,0,0,0-6-17.74c16.71,3.5,26.67,7.86,28.07,8.49h0A100.89,100.89,0,0,1,229.53,272.67Z"/><path class="cls-4" d="M232.14,336.09c-11.23-5.89-24.78-2.18-24.78-2.18,0-6.31-.05-13.92-.47-22.33a.11.11,0,0,0,0-.05c-.22-4.45-.53-9.12-.95-13.95-.21-2.37.09-22.39-1-31.92,8.14,1.42,21.69,6.2,24.56,7.23.17,2.57.27,5.34.3,8.34,0,0,.13,6.26.4,14-9.44-7.2-24.41-6.73-24.41-6.73a111.88,111.88,0,0,1,24.41,6.83c.23,6.68.57,14.44,1,20.14C231.24,315.44,232.15,325.06,232.14,336.09Z"/><path id="rt_side_sweater" data-name="rt side sweater" class="cls-4" d="M113,316.24c-.71-18.21-7.69-38.91-7.69-38.91-2.72-8.3-5.58-27.9-6-31.11,0-.29-.07-.45-.07-.45-.79-4.22-.15-5.63.36-6.1C94,241.26,56.9,252,52.47,253.09c-1.28.32-27,7.15-38,25.31,0,0-13,18.63-14.49,74.57l114.21-.28v-.45C114.12,334,113,316.24,113,316.24ZM48.75,352.36a31.48,31.48,0,0,1-3.27,0,.06.06,0,0,0,0,0c-.29-2.22,1.63-33.73,1.63-33.73s1.59,32.09,1.65,33.72Z"/><path class="cls-4" d="M127.84,236.25c-1.27,1.87-1.41,5.29-.86,9.7l-1.17.13c-4.11.5-17.11,2.44-24,7.67-.51-2.93-.93-5.61-1.23-7.91a57.39,57.39,0,0,1-.57-6.31l.19-.06c6.74-3.94,26.83-7.62,28.14-4.19a.89.89,0,0,1,.07.28A3.54,3.54,0,0,0,127.84,236.25Z"/><path class="cls-4" d="M132.22,268.36h-.31c-2.7.11-17.34,1.73-25,8.67-2.1-7.77-3.86-16.08-5.08-23.05a129.35,129.35,0,0,1,24-7.76L127,246C127.76,252.05,129.87,260,132.22,268.36Z"/><path class="cls-4" d="M138.3,290.36h-.22c-2.4,0-16.5.2-25.91,7.84-2.3-10.76-5.13-20.78-5.13-20.78l-.09-.33c1.21-.51,16.06-6.74,25-8.61l.3-.06C134.32,275.77,136.59,283.43,138.3,290.36Z"/><path class="cls-4" d="M142.76,351.65a16.56,16.56,0,0,0-2.08-.54c-4.42-.91-14.92-2.2-24.72,1.13h-.6c.25-4.61.3-9.94.26-15.07a94.83,94.83,0,0,1,26.28-2.25l1.1.05s-.39-.1-1.1-.23c-3.67-.71-15.81-2.5-26.28,2.23-.06-8.41-.4-16.26-.55-19.54a93.39,93.39,0,0,1,26.32-4.8h.05c.06,0,0,0-.05,0a41.8,41.8,0,0,0-26.33,4.63c0-.9-.07-1.4-.07-1.4a133.46,133.46,0,0,0-2.77-17.4,114.55,114.55,0,0,1,25.88-8l.2,0a101,101,0,0,1,2.46,12.69C144,332.62,143.1,347.84,142.76,351.65Z"/><path class="cls-4" d="M142.75,351.72c0,.18,0,.33-.05.46v0c0,.27,0,.41,0,.41l-27.32.07a.22.22,0,0,1,0-.08c.55-.09,1.38-.22,2.44-.37h0c4.92-.7,14.61-1.75,22.82-.8.63.07,1.24.15,1.85.25Z"/></g><g id="sweater_shade" data-name="sweater shade"><path id="left_ribbing" data-name="left ribbing" class="cls-5" d="M232.41,352.12l-.09.51h-.07l-1.06,0v0a4.43,4.43,0,0,0,.06-.51,3.93,3.93,0,0,0,.06-.48c-1.7-.33-14.73-2.75-24.47-1,0-.05,0-.09,0-.14,2.24-.77,14-3.38,24.47,1.12a131.87,131.87,0,0,0,.82-15.39,76.1,76.1,0,0,0-24.78-2.3s13.55-3.71,24.78,2.18c0-11-.9-20.65-.9-20.65-.43-5.7-.77-13.46-1-20.14a111.88,111.88,0,0,0-24.41-6.83s15-.47,24.41,6.73c-.27-7.71-.4-14-.4-14,0-3-.13-5.77-.3-8.34-2.87-1-16.42-5.81-24.56-7.23,0,0,0,0,0,0,1.06-.06,16.39,1,24.56,7a100.89,100.89,0,0,0-2.88-18.74h0c-1.4-.63-11.36-5-28.07-8.49a0,0,0,0,0,0,0c1.36.12,19.7,1.9,28.06,8.44-.42-1.61-.84-3-1.22-4.13-1.08-3.27-1.85-4.8-1.56-5.08,0,0,1.54,3,3.21,5.62.32.49.64,1,.95,1.4,0,0,5.41,9.39,4.2,38.55a187.5,187.5,0,0,0,1.1,27.95S235.38,336.12,232.41,352.12Z"/><path class="cls-5" d="M206.78,311.58c-.73,0,12.71-2.21,24.46,3.86A95.56,95.56,0,0,0,206.78,311.58Z"/><path class="cls-5" d="M48.75,352.3v.06a31.48,31.48,0,0,1-3.27,0,.06.06,0,0,0,0,0c-.29-2.22,1.63-33.73,1.63-33.73S48.69,350.67,48.75,352.3Z"/><path class="cls-5" d="M270.63,352.36a31.48,31.48,0,0,1-3.27,0c0-.06,0-.14,0-.26-.18-3.55,1.65-33.51,1.65-33.51s1.5,30.26,1.64,33.5C270.63,352.25,270.63,352.34,270.63,352.36Z"/><path class="cls-5" d="M115.62,337.17c0,5.13,0,10.46-.26,15.07,0,.07,0,.15,0,.22.21-.08.41-.16.62-.22,9.8-3.33,20.3-2,24.72-1.13,0,.12,0,.23-.05.33-8.21-.95-17.9.1-22.82.8h0c-1.06.15-1.89.28-2.44.37a.22.22,0,0,0,0,.08h0l-1.12.13v-.59c-.09-18.27-1.25-36-1.25-36-.71-18.21-7.69-38.91-7.69-38.91-2.72-8.3-5.58-27.9-6-31.11,0-.29-.07-.45-.07-.45-.79-4.22-.15-5.63.36-6.1a.8.8,0,0,1,.49-.24v.1a57.39,57.39,0,0,0,.57,6.31c.3,2.3.72,5,1.23,7.91,6.88-5.23,19.88-7.17,24-7.67,0,0,0,.1,0,.15a129.35,129.35,0,0,0-24,7.76c1.22,7,3,15.28,5.08,23.05,7.63-6.94,22.27-8.56,25-8.67l0,.1c-8.93,1.87-23.78,8.1-25,8.61l.09.33s2.83,10,5.13,20.78c9.41-7.64,23.51-7.86,25.91-7.84a.14.14,0,0,0,0,.07,114.55,114.55,0,0,0-25.88,8,133.46,133.46,0,0,1,2.77,17.4s0,.5.07,1.4a41.8,41.8,0,0,1,26.33-4.63v0a93.39,93.39,0,0,0-26.32,4.8c.15,3.28.49,11.13.55,19.54,10.47-4.73,22.61-2.94,26.28-2.23.71.13,1.1.23,1.1.23l-1.1-.05A94.83,94.83,0,0,0,115.62,337.17Z"/></g><g id="skin"><path id="face" class="cls-6" d="M261,145c-.06-1.35-.12-2.68-.19-4a.35.35,0,0,0,0-.12c-.36-6.58-.92-12.77-1.61-18.56a48.92,48.92,0,0,1-7.19.58s-.4,0-1,0c-4.69-.31-24-2.73-26.29-21.2a5.43,5.43,0,0,1-.05-.9,14,14,0,0,0-3.71-1,29.57,29.57,0,0,0-4.64-.23c-1.58.07-3.19.2-4.81.42-.81.1-1.62.22-2.44.34l-1.22.2-.61.1h-.07a7.37,7.37,0,0,1-.12,1.62c-1.48,8.29-7.43,21.78-30.33,21.78-1,0-2,0-3.11-.08-.24,0-26.53-.7-29.84-24.25h-.33l-17.2-.23a66.85,66.85,0,0,0,53.61,61.22,26.39,26.39,0,0,1,17.21-17.29,51.23,51.23,0,0,1,10.86-1.64c2.07-.16,4.22-.33,6.28-.65,1-.15,2-.34,3-.53a34.65,34.65,0,0,1,7.77-.85,21.11,21.11,0,0,1,14.66,7.43A32.57,32.57,0,0,1,246.52,161a17.69,17.69,0,0,0,2.56-.82,5.62,5.62,0,0,0,.56-.25,18.93,18.93,0,0,0,10.45-11.82l.06-5.29.84,2.1h0Zm-34.3,8.59c-.38-.27-.75-.52-1.13-.74a17.71,17.71,0,0,0-9-2.48,30.6,30.6,0,0,0-13.89,3.42c-.22.11-.44.24-.65.36a23.17,23.17,0,0,0-10.85,14c21.52,5.41,24.41-4.59,24.41-4.59,7.12,9.29,18,.56,18,.56A18.19,18.19,0,0,0,226.72,153.58ZM253.88,93c-.57-2.32-1.17-4.53-1.77-6.65H252c-2.37.15-4.88.42-7.45.84a63.17,63.17,0,0,0-11.88,3,1,1,0,0,1-.39.07,1.33,1.33,0,0,1-.74-.24c-1-.69-2.62-3.64-2.77-7.8l0-.75.56-.18a24.9,24.9,0,0,1,5.95-3.15,1.41,1.41,0,0,1,1.14.06,1.92,1.92,0,0,1,.85,1.32c.56-.28,1.47-.77,2.23-1.18s1.39-.75,1.9-1a11.24,11.24,0,0,1,1.25-.58,1.59,1.59,0,0,1,2.15,1.13c.63-.26,1.63-.77,2.53-1.23l1.36-.69a.31.31,0,0,0,.1,0,136.7,136.7,0,0,0-6.23-14.84c-.2-.39-.36-.72-.51-1s-.22-.45-.33-.66c-1.15-2.21-2.13-3.91-2.86-5.09,0,0,0,0,0,0-.88-1.42-1.39-2.11-1.39-2.11l-.14-.2c-19.66-27.33-51.55-32.75-51.55-32.75a94.71,94.71,0,0,0-17.58-.82c-.09.66-.18,1.06-.18,1.11,0,.34-.95.34-.95.34s-.15-.17-.23-.26l0,.26a7.18,7.18,0,0,0-2.09-1.2c-41.53,3.78-58.44,36.84-58.44,36.84-5.32,9-7.24,24.53-7.44,41.14l44.48-2.81a2.67,2.67,0,0,1,1.1.14l.05,0a12.42,12.42,0,0,1,1-1.67l.41-.49.28-.33a.6.6,0,0,0,.08-.08.1.1,0,0,0,.05,0l.41-.39,0,0a8.87,8.87,0,0,1,3-1.63l.46-.13a1,1,0,0,1,.25-.06l.26,0a7.93,7.93,0,0,1,.89-.13h.17l48.11,3.76h.14a8,8,0,0,1,5.56,3.07A8.09,8.09,0,0,1,207,99.29l.34-.19c.39-.21.78-.39,1.18-.57a24,24,0,0,1,2.45-.91,23,23,0,0,1,5.18-1,14.59,14.59,0,0,1,5.39.52A9.05,9.05,0,0,1,224.9,99a6.85,6.85,0,0,1,1.37-2.56,7,7,0,0,1,5-2.45l3.18-.13,11.76-.48,7.61-.3h.06S253.88,93,253.88,93Zm-49.52-3.86a1.29,1.29,0,0,1-1.21,1,1.16,1.16,0,0,1-.35-.06,244.47,244.47,0,0,0-26.06-5.92c-14.19-2.28-30.25-.32-30.41-.3l-2.42.3L149.55,77l.16-.1c.21-.12,5.24-3,13.87-.72,1.36.35,1.69-.15,2.19-.92A2.26,2.26,0,0,1,167.41,74c1.46-.11,3.44.68,5.36,1.45a13.22,13.22,0,0,0,3.79,1.17,1.93,1.93,0,0,0,.48-.06,3.31,3.31,0,0,0-.13-.41A1.54,1.54,0,0,1,177,74.5a1.28,1.28,0,0,1,1.34-.33c2,.46,4.64,1.1,7.15,1.72a1.06,1.06,0,0,1,.1-.84c.47-.83,1.52-.55,2-.41a18.56,18.56,0,0,1,5.06,2.43,25.61,25.61,0,0,0,2.73,1.54,1.06,1.06,0,0,1,.21-.67c.52-.72,1.43-.4,1.78-.28a71.41,71.41,0,0,1,6.9,2.75C205.9,81.16,204.67,88.39,204.36,89.16Zm.24,9.07c-1.49-.42-8.67-2.2-25-2.62a6.78,6.78,0,0,1,1.16,3.73c0,4.77-5.32,8.65-11.86,8.65S157,104.11,157,99.34a6.88,6.88,0,0,1,1.45-4.14c-6.11.26-10.31,1-12.11,1.93a2.38,2.38,0,0,0-.79.58,5,5,0,0,0,0,.67c0,.11,0,.21,0,.32,1.1,9.39,6.08,16.15,14.79,20.08a37.59,37.59,0,0,0,13.22,3.15c22.77,1.14,29.65-10.28,31.41-20.05A6.09,6.09,0,0,0,204.6,98.23ZM151.6,90l-.11,0h.11Z"/><path id="ear" class="cls-6" d="M105.26,117.61l-.69-1.53a142.82,142.82,0,0,1-5.88-14.36c-.13-.4-.24-.76-.34-1.09-.9-.53-1.89-1.07-2.93-1.58h0a31.45,31.45,0,0,0-3-1.32c-4.86-1.84-10.22-2.4-13.71,1.56,0,0-9.11,13.68,10,34.41,0,0,5.51,9.2,11.62,10.41a.86.86,0,0,1,.62-.32l.41-.11a7.29,7.29,0,0,0,1.43-.55c3.47-1.75,6-6,6.26-10.53C109.4,127.29,107.27,122.08,105.26,117.61Zm-5.1,12.15a8.75,8.75,0,0,1-4.79-.8c-4.68-2.64-2.92-6.93-2.92-6.93,1.75-3.91,4.78-3.91,4.78-3.91-2.35-7.9-11.52-7.32-11.52-7.32.5-.25,8.86-3.58,13.54,5.94.22.45.44.92.64,1.43a5.65,5.65,0,0,0-.54.38c-1.28,1-4.26,3.76-1.54,6.89a4.8,4.8,0,0,0,2.07.91,4.19,4.19,0,0,0,3.66-1.13l.81.81A5.37,5.37,0,0,1,100.16,129.76Z"/></g><g id="face_shade" data-name="face shade"><path id="face_shade-2" data-name="face shade" class="cls-7" d="M248.67,76l-1.36.69c-.9.46-1.9,1-2.53,1.23a1.59,1.59,0,0,0-2.15-1.13,11.24,11.24,0,0,0-1.25.58,184,184,0,0,0-11.06-25.16s-6.3-14.8-26.27-26.8c1.22.5,21.08,9,34.36,28.42,0,0,.23.29.41.5,0,0,0,0,0,0l.21.25a52.76,52.76,0,0,1,2.65,4.84q.17.31.33.66c.15.28.31.61.51,1A153,153,0,0,1,248.67,76Z"/><path id="face_shade-3" data-name="face shade" class="cls-7" d="M253.83,93.08l-7.61.3s0,0,0,0q-.75-3-1.65-6.13c2.57-.42,5.08-.69,7.45-.84.61,2.11,1.22,4.33,1.81,6.64C253.82,93,253.83,93.06,253.83,93.08Z"/><path id="face_shade-4" data-name="face shade" class="cls-7" d="M261,144.91l-.84-2.1-.06,5.29a18.93,18.93,0,0,1-10.45,11.82A162,162,0,0,0,251,122.84c.62,0,1,0,1,0a48.92,48.92,0,0,0,7.19-.58h0c.71,5.83,1.26,12,1.58,18.57a.35.35,0,0,1,0,.12C260.89,142.28,261,143.59,261,144.91Z"/><path id="ear_shade" data-name="ear shade" class="cls-6" d="M104.35,126a5.37,5.37,0,0,1-4.19,3.73,8.75,8.75,0,0,1-4.79-.8c-4.68-2.64-2.92-6.93-2.92-6.93,1.75-3.91,4.78-3.91,4.78-3.91-2.35-7.9-11.52-7.32-11.52-7.32.5-.25,8.86-3.58,13.54,5.94.22.45.44.92.64,1.43a5.65,5.65,0,0,0-.54.38c-1.28,1-4.26,3.76-1.54,6.89a4.8,4.8,0,0,0,2.07.91,4.19,4.19,0,0,0,3.66-1.13Z"/><path class="cls-7" d="M104.35,126a5.37,5.37,0,0,1-4.19,3.73,8.75,8.75,0,0,1-4.79-.8c-4.68-2.64-2.92-6.93-2.92-6.93,1.75-3.91,4.78-3.91,4.78-3.91-2.35-7.9-11.52-7.32-11.52-7.32.5-.25,8.86-3.58,13.54,5.94.22.45.44.92.64,1.43a5.65,5.65,0,0,0-.54.38c-1.28,1-4.26,3.76-1.54,6.89a4.8,4.8,0,0,0,2.07.91,4.19,4.19,0,0,0,3.66-1.13Z"/></g><path id="rt_eyebrow" data-name="rt eyebrow" class="cls-8" d="M204.36,89.16a1.29,1.29,0,0,1-1.21,1,1.16,1.16,0,0,1-.35-.06,244.47,244.47,0,0,0-26.06-5.92c-14.19-2.28-30.25-.32-30.41-.3l-2.42.3L149.55,77l.16-.1c.21-.12,5.24-3,13.87-.72,1.36.35,1.69-.15,2.19-.92A2.26,2.26,0,0,1,167.41,74c1.46-.11,3.44.68,5.36,1.45a13.22,13.22,0,0,0,3.79,1.17,1.93,1.93,0,0,0,.48-.06,3.31,3.31,0,0,0-.13-.41A1.54,1.54,0,0,1,177,74.5a1.28,1.28,0,0,1,1.34-.33c2,.46,4.64,1.1,7.15,1.72a1.06,1.06,0,0,1,.1-.84c.47-.83,1.52-.55,2-.41a18.56,18.56,0,0,1,5.06,2.43,25.61,25.61,0,0,0,2.73,1.54,1.06,1.06,0,0,1,.21-.67c.52-.72,1.43-.4,1.78-.28a71.41,71.41,0,0,1,6.9,2.75C205.9,81.16,204.67,88.39,204.36,89.16Z"/><path id="left_eyebrow" data-name="left eyebrow" class="cls-8" d="M271.12,87.18l-1.36-.27a88,88,0,0,0-17.65-.54H252c-2.37.15-4.88.42-7.45.84a63.17,63.17,0,0,0-11.88,3,1,1,0,0,1-.39.07,1.33,1.33,0,0,1-.74-.24c-1-.69-2.62-3.64-2.77-7.8l0-.75.56-.18a24.9,24.9,0,0,1,5.95-3.15,1.41,1.41,0,0,1,1.14.06,1.92,1.92,0,0,1,.85,1.32c.56-.28,1.47-.77,2.23-1.18s1.39-.75,1.9-1a11.24,11.24,0,0,1,1.25-.58,1.59,1.59,0,0,1,2.15,1.13c.63-.26,1.63-.77,2.53-1.23l1.36-.69a.31.31,0,0,0,.1,0,17.49,17.49,0,0,1,1.62-.72c1.22-.43,2,.55,2.54,1.14a4.4,4.4,0,0,0,.46.49,29.7,29.7,0,0,1,4.82-.9c3.71-.41,4.32,0,4.65.58a1.25,1.25,0,0,1-.3,1.59l-.18.17.07,0,.12,0c3.15-.49,4.42.3,5.55,1l.32.23c1.76,1.73,2.34,5,2.5,6.33Z"/><g id="nose"><path id="nostril" class="cls-8" d="M212.47,135.67s-.7-3.92,4.68-1.18Z"/><path id="nose-2" data-name="nose" class="cls-8" d="M209.77,128s8.56-7.64,15.57-1.63c0,0,5.57,5.34-.24,12.55,0,0,10-8.61.78-15.88C225.88,123.05,218.54,117.77,209.77,128Z"/></g><path id="mouth" class="cls-8" d="M226.72,153.58c-11.32,16-21.23,5.53-24.66.56.21-.12.43-.25.65-.36,8.41,6.95,18,2.32,22.88-.94C226,153.06,226.34,153.31,226.72,153.58Z"/><path id="beard_and_glasses" data-name="beard and glasses" class="cls-8" d="M281.39,97.21a.06.06,0,0,1,0,0,6.91,6.91,0,0,0-6.9-4.93l-20.59.83h-.06l-7.61.3-11.76.48-3.18.13a7,7,0,0,0-5,2.45A6.85,6.85,0,0,0,224.9,99a9.05,9.05,0,0,0-3.34-1.83,14.59,14.59,0,0,0-5.39-.52,23,23,0,0,0-5.18,1,24,24,0,0,0-2.45.91c-.4.18-.79.36-1.18.57l-.34.19a8.09,8.09,0,0,0-1.53-3.44,8,8,0,0,0-5.56-3.07h-.14L151.68,89h-.17a7.93,7.93,0,0,0-.89.13l-.26,0a1,1,0,0,0-.25.06l-.46.13a8.87,8.87,0,0,0-3,1.63l0,0-.41.39a.1.1,0,0,1-.05,0,.6.6,0,0,1-.08.08l-.28.33-.41.49a12.42,12.42,0,0,0-1,1.67l-.05,0a2.67,2.67,0,0,0-1.1-.14L98.81,96.68,93.34,97h0a1,1,0,0,0-.89.71,31.45,31.45,0,0,1,3,1.32h0l2.52,0,.07.29c.09.39.2.79.34,1.26s.21.69.34,1.09a142.82,142.82,0,0,0,5.88,14.36l.69,1.53c2,4.47,4.14,9.68,3.81,15-.28,4.55-2.79,8.78-6.26,10.53a7.29,7.29,0,0,1-1.43.55l-.41.11a.86.86,0,0,0-.62.32c-.39.59-.25,2.48.3,9.66,0,.73.09,1.26.1,1.44l0,.61c.52,9.52,1,18.51,5.74,27.16A38.73,38.73,0,0,0,126,200.66a50.55,50.55,0,0,0,8.11,2.33l.51.11h0c1.63.33,3.28.63,4.88.92a76.16,76.16,0,0,1,12.28,2.92,82,82,0,0,1,8.43,3.78c5.85,2.9,11.93,5.89,18.56,5.5l.88-.05.06-.89a8.16,8.16,0,0,1,2.92-5.68,8.39,8.39,0,0,1,3.77,7.78l-.26,2.2,1.82-1.26c1.89-1.31,3.21-4.4,3.4-7.51.42.49.83,1,1.25,1.51s1,1.21,1.51,1.8l.64.7h0l.62.69.46-1.83c.12-.48.24-.95.35-1.43a11.92,11.92,0,0,1,.2,6.82l-.51,1.86c0,.05,0,.11.05.17l1.84-.86a12.46,12.46,0,0,0,6.87-10.17,14.27,14.27,0,0,1,3.93,11.33l-.25,2.12,1.79-1.16a25.39,25.39,0,0,0,11.05-16.88,10.73,10.73,0,0,1,1.4,4.92l.17,2.73,1.63-2.19,6.56-8.79.53-.71a17,17,0,0,1,4.21,11.81l-.09,2.12,1.69-1.28a81,81,0,0,0,14.22-13.62A64.2,64.2,0,0,0,261,184.93c5.21-12.41,5.62-26,1.13-37.28L261,145l0-.07h0l-.84-2.1-.06,5.29a18.93,18.93,0,0,1-10.45,11.82,5.62,5.62,0,0,1-.56.25,17.69,17.69,0,0,1-2.56.82,32.57,32.57,0,0,0-6.89-13.84A21.11,21.11,0,0,0,225,139.72a34.65,34.65,0,0,0-7.77.85c-1,.19-2,.38-3,.53-2.06.32-4.21.49-6.28.65a51.23,51.23,0,0,0-10.86,1.64,26.39,26.39,0,0,0-17.21,17.29,66.85,66.85,0,0,1-53.61-61.22l17.2.23h.33c3.31,23.55,29.6,24.25,29.84,24.25,1.07,0,2.11.08,3.11.08,22.9,0,28.85-13.49,30.33-21.78a7.37,7.37,0,0,0,.12-1.62h.07l.61-.1,1.22-.2c.82-.12,1.63-.24,2.44-.34,1.62-.22,3.23-.35,4.81-.42a29.57,29.57,0,0,1,4.64.23,14,14,0,0,1,3.71,1,5.43,5.43,0,0,0,.05.9c2.29,18.47,21.6,20.89,26.29,21.2.62,0,1,0,1,0a48.92,48.92,0,0,0,7.19-.58h0c17.24-2.78,21.45-14.77,22.36-22.31a1.1,1.1,0,0,0,0-.18v0A10,10,0,0,0,281.39,97.21Zm-21.57,75s-2.89,24.14-20.61,36.35C239.66,208,254.14,190.06,259.82,172.16Zm-48.11,43.46a17.7,17.7,0,0,0-1.34-9.94c-.4-1-.83-1.87-1.23-2.65h0a27.33,27.33,0,0,0-2.08-3.37c-.28-.39-.55-.79-.81-1.17-5.38-8.15-5.18-15-5.18-15,2.22,9.76,6.21,13.08,6.21,13.08.29.53.57,1,.82,1.56.89,1.71,1.61,3.26,2.2,4.67.41,1,.76,1.9,1,2.75C214.06,213.53,211.71,215.62,211.71,215.62Zm22-27.18a31,31,0,0,1-3.44,8.63,41.89,41.89,0,0,1-2.73,4.13,4.68,4.68,0,0,1-.29.37l.21-.34a35.89,35.89,0,0,0,2-3.88,42.41,42.41,0,0,0,2.56-7.84h0a36.83,36.83,0,0,0,.08-16.24S235.81,179.27,233.74,188.44Zm-31.68-34.3c.21-.12.43-.25.65-.36a30.6,30.6,0,0,1,13.89-3.42,17.71,17.71,0,0,1,9,2.48c.38.22.75.47,1.13.74a18.19,18.19,0,0,1,6.92,10.56s-10.9,8.73-18-.56c0,0-2.89,10-24.41,4.59A23.17,23.17,0,0,1,202.06,154.14Zm-46.89,19.8c.65,13.76,9.34,23.5,14,27.76l.29.26c1.37,1.23,2.33,1.94,2.54,2.1a30.27,30.27,0,0,1-3.54-2.09h0l-.82-.58C154,191.44,155,174.63,155.17,173.94ZM151.6,90h-.11Zm53.48,11.88c-1.76,9.77-8.64,21.19-31.41,20.05a37.59,37.59,0,0,1-13.22-3.15c-8.71-3.93-13.69-10.69-14.79-20.08,0-.11,0-.21,0-.32a5,5,0,0,1,0-.67,2.38,2.38,0,0,1,.79-.58c1.8-.94,6-1.67,12.11-1.93A6.88,6.88,0,0,0,157,99.34c0,4.77,5.32,8.65,11.86,8.65s11.86-3.88,11.86-8.65a6.78,6.78,0,0,0-1.16-3.73c16.34.42,23.52,2.2,25,2.62A6.09,6.09,0,0,1,205.08,101.88ZM259,120.28h0a43.81,43.81,0,0,1-6.95.61s-.46,0-1.18-.06c-4.72-.35-22.08-2.79-24.14-19.43a4.9,4.9,0,0,1,0-1.38.94.94,0,0,0,.35-.25c.6-.69,3.67-1.24,8.2-1.63a5,5,0,0,0-1.24,3.45c.18,3.25,4.08,6.4,10.4,6.4l1.07,0a15.47,15.47,0,0,0,3.64-.6,9.88,9.88,0,0,0,3.73-1.9,6.12,6.12,0,0,0,2.3-4.67c0-.1,0-.21,0-.31a5.28,5.28,0,0,0-1.23-3.11h1c3.38,0,6.85,0,10.26,0,.91,0,1.76-.06,2.57-.06,8.74,0,11.28,2.09,11.82,2.69C277.78,114,267.75,118.78,259,120.28Z"/><g id="beard_highlights" data-name="beard highlights"><path class="cls-5" d="M259.82,172.16s-2.89,24.14-20.61,36.35C239.66,208,254.14,190.06,259.82,172.16Z"/><path class="cls-5" d="M233.74,188.44a31,31,0,0,1-3.44,8.63,41.89,41.89,0,0,1-2.73,4.13l-.08,0a35.89,35.89,0,0,0,2-3.88,42.41,42.41,0,0,0,2.56-7.84h0a36.83,36.83,0,0,0,.08-16.24S235.81,179.27,233.74,188.44Z"/><path class="cls-5" d="M211.71,215.62a17.7,17.7,0,0,0-1.34-9.94c-.4-1-.83-1.87-1.23-2.65h0a27.33,27.33,0,0,0-2.08-3.37c-.28-.39-.55-.79-.81-1.17-5.38-8.15-5.18-15-5.18-15,2.22,9.76,6.21,13.08,6.21,13.08.29.53.57,1,.82,1.56.89,1.71,1.61,3.26,2.2,4.67.41,1,.76,1.9,1,2.75C214.06,213.53,211.71,215.62,211.71,215.62Z"/><path class="cls-5" d="M172,204.06a30.27,30.27,0,0,1-3.54-2.09h0l-.82-.58C154,191.44,155,174.63,155.17,173.94c.65,13.76,9.34,23.5,14,27.76l.29.26C170.8,203.19,171.76,203.9,172,204.06Z"/></g><path id="hair" class="cls-8" d="M168.16,18.45c-.09.66-.18,1.06-.18,1.11,0,.34-.95.34-.95.34s-.15-.17-.23-.26l0,.26a7.18,7.18,0,0,0-2.09-1.2c-5.68-2.25-17-1.51-17-1.51s9.46-3,15.93-.7C154,8.32,141.35,8.21,141.35,8.21,164,2.44,166.9,18.43,166.9,18.43,165.32,4.33,149.66-.07,150.48,0,169.28,1.58,168.72,14.55,168.16,18.45Z"/><path id="rt_lense" data-name="rt lense" class="cls-9" d="M205.08,101.88c-1.76,9.77-8.64,21.19-31.41,20.05a37.59,37.59,0,0,1-13.22-3.15c-8.71-3.93-13.69-10.69-14.79-20.08,0-.11,0-.21,0-.32a5,5,0,0,1,0-.67,2.38,2.38,0,0,1,.79-.58c1.8-.94,6-1.67,12.11-1.93A6.88,6.88,0,0,0,157,99.34c0,4.77,5.32,8.65,11.86,8.65s11.86-3.88,11.86-8.65a6.78,6.78,0,0,0-1.16-3.73c16.34.42,23.52,2.2,25,2.62A6.09,6.09,0,0,1,205.08,101.88Z"/><path id="left_lense" data-name="left lense" class="cls-9" d="M267.75,97.34c-.81,0-1.66,0-2.57.06-3.41-.05-6.88-.07-10.26,0h-1a5.28,5.28,0,0,1,1.23,3.11c0,.1,0,.21,0,.31a6.12,6.12,0,0,1-2.3,4.67,9.88,9.88,0,0,1-3.73,1.9,15.47,15.47,0,0,1-3.64.6l-1.07,0c-6.32,0-10.22-3.15-10.4-6.4a5,5,0,0,1,1.24-3.45c-4.53.39-7.6.94-8.2,1.63a.94.94,0,0,1-.35.25,4.9,4.9,0,0,0,0,1.38c2.06,16.64,19.42,19.08,24.14,19.43.72.06,1.15.06,1.18.06a43.81,43.81,0,0,0,6.95-.61h0c8.76-1.5,18.79-6.32,20.58-20.25C279,99.43,276.49,97.34,267.75,97.34ZM272,112.68s-4.48,3.91-13.35,5h0a39.25,39.25,0,0,1-8.05.13,47.81,47.81,0,0,1-5-.66s2,.16,4.9.12a56.24,56.24,0,0,0,8-.66h0c4.23-.68,8.58-2,11.49-4.54,0,0,6.46-5.09,2.36-12.48C272.33,99.58,280.18,105.19,272,112.68Z"/><path id="rt_lense_shade" data-name="rt lense shade" class="cls-10" d="M197.41,97.35s9.06,6.88-.39,16c0,0-10.25,9.47-30.46,5.47,0,0,19.54,1.7,28.13-6.24C194.69,112.62,202.13,106.4,197.41,97.35Z"/><path class="cls-10" d="M272,112.68s-4.48,3.91-13.35,5h0a39.25,39.25,0,0,1-8.05.13,47.81,47.81,0,0,1-5-.66s2,.16,4.9.12a56.24,56.24,0,0,0,8-.66h0c4.23-.68,8.58-2,11.49-4.54,0,0,6.46-5.09,2.36-12.48C272.33,99.58,280.18,105.19,272,112.68Z"/></g></g></svg>