<svg xmlns="http://www.w3.org/2000/svg" viewBox="0 0 310.96 364.63"><defs><style>.cls-1{isolation:isolate;}.cls-2{fill:none;}.cls-3{fill:#9d7373;}.cls-4{fill:#725355;}.cls-5{fill:#555655;}.cls-6{fill:#333;}.cls-7{fill:#69441a;}.cls-8{fill:#2a1c0f;mix-blend-mode:multiply;opacity:0.29;}.cls-9{fill:#010101;}.cls-10{fill:#fff;}.cls-11{fill:#c4c4c4;}</style></defs><g class="cls-1"><g id="Layer_1" data-name="Layer 1"><rect class="cls-2" width="310.96" height="364.63"/><path id="turtleneck" class="cls-3" d="M148.39,322.78v0h.05C148.5,322.82,148.48,322.8,148.39,322.78Zm67.83,21.92s13.93-3.81,25.48,2.25c0-11.35-.93-21.24-.93-21.24-.44-5.86-.79-13.84-1-20.71a115.35,115.35,0,0,0-25.1-7s15.39-.48,25.1,6.92c-.28-7.93-.41-14.36-.41-14.36,0-3.09-.14-5.94-.31-8.58-2.95-1.06-16.89-6-25.26-7.43v0c1.09-.06,16.86,1.07,25.26,7.23a104.45,104.45,0,0,0-3-19.27h0c-1.44-.64-11.69-5.13-28.87-8.73h0a78.24,78.24,0,0,0-5.69-9.2.07.07,0,0,0,.06,0,.12.12,0,0,0,.08,0l.12-.05v0a3.24,3.24,0,0,1-.51-1.94,1.48,1.48,0,0,1,0-.21,3.62,3.62,0,0,1,.06-.46c.4-2.06,2.29-4.16,3.26-6.57,0,0,0,0,0,0s.08-.2.13-.32a.08.08,0,0,0,0-.05.27.27,0,0,0,0-.12v0s0,0,0,0h0a7.62,7.62,0,0,0,.29-1.34,11.25,11.25,0,0,0-.57-4.53c0-.07,0-.13-.05-.18-.66-2.23-1.53-4.35-1.16-6.28h0l-.65-.72c-.54-.61-1-1.22-1.56-1.85s-.85-1.05-1.28-1.55c-.2,3.19-1.55,6.37-3.5,7.72l-1.87,1.29.27-2.26a8.64,8.64,0,0,0-3.88-8,8.37,8.37,0,0,0-3,5.84l-.06.92-.91.05c-6.81.4-13.07-2.68-19.08-5.66a82.38,82.38,0,0,0-8.67-3.88,78.14,78.14,0,0,0-12.63-3c-1.64-.29-3.34-.6-5-.94a31.63,31.63,0,0,0,1.84,4.33h0c.21.45.46.93.72,1.44a2.94,2.94,0,0,1,.31.95h0a3.14,3.14,0,0,1-.05,1.43,1.68,1.68,0,0,1-.06.24,5,5,0,0,1-.4,1.12c-1.23,2.65-4.1,5.41-4.92,7.77-2.41,6.89,3,11.32,1.54,12.36a35.82,35.82,0,0,1-5.47,3.44.89.89,0,0,1,.07.28,4.1,4.1,0,0,0-.6.71c-1.3,1.93-1.45,5.44-.88,10l-1.2.13c0,.05,0,.11,0,.16l1.19-.28c.79,6.26,3,14.46,5.38,23h-.32l0,.1.31-.06c2.14,7.57,4.47,15.45,6.23,22.57H145a.24.24,0,0,0,0,.08l.21-.05A104.51,104.51,0,0,1,147.74,313c3.37,30.39,2.4,46,2,50a15.44,15.44,0,0,0-2.13-.56c0,.12,0,.24-.06.34.65.07,1.28.15,1.91.26l.27,0c0,.18,0,.34-.05.47v0l65.85-.06c0-.34.06-.86.11-1.57,0-.05,0-.1,0-.15,2.3-.79,14.39-3.47,25.16,1.15a137,137,0,0,0,.84-15.82A78.21,78.21,0,0,0,216.22,344.7Z"/><g id="turtleneck_shade" data-name="turtleneck shade"><path id="neck_shade" data-name="neck shade" class="cls-4" d="M204.57,235.15a2.72,2.72,0,0,0,.12-.25,36.66,36.66,0,0,1-2.81,5.72,2.71,2.71,0,0,0-.58,1.13,3.62,3.62,0,0,0-.06.46,1.48,1.48,0,0,0,0,.21,4.08,4.08,0,0,0,.53,1.93h0l-.11.07a.12.12,0,0,1-.08,0,.07.07,0,0,1-.06,0c-10.74,6.75-25.2,2.77-25.2,2.77,6,.4,14.13-1.33,14.13-1.33,10.92-3.6,4-3.47,4-3.47-29.16,2.21-40.29-4.54-40.87-4.91,6.4,1.85,22.08,1.58,22.08,1.58,23.64,1.33,28.09-2.44,28.94-4C204.56,235.17,204.57,235.16,204.57,235.15Z"/><path class="cls-4" d="M143.29,214.54c-.14-.28,7,4.86,34.44,8.93,0,0-22.43-.19-33.94-3.76,0,0,.94-1.85.55-2.77C144.16,216.51,143.39,214.74,143.29,214.54Z"/><path class="cls-4" d="M154.75,335.2v28.28h-5c0-.13,0-.29.05-.47l-.27,0c-.63-.11-1.26-.19-1.91-.26,0-.1,0-.22.06-.34a15.44,15.44,0,0,1,2.13.56c.35-3.92,1.32-19.57-2-50a104.51,104.51,0,0,0-2.53-13.05L145,300a.24.24,0,0,1,0-.08h.23c-1.76-7.12-4.09-15-6.23-22.57l-.31.06,0-.1H139c-2.42-8.57-4.59-16.77-5.38-23l-1.19.28c0-.05,0-.11,0-.16l1.2-.13c-.57-4.54-.42-8,.88-10a117.37,117.37,0,0,0,10,37.16S154.75,300.44,154.75,335.2Z"/></g><g id="sweater"><path id="sweater-2" data-name="sweater" class="cls-5" d="M241.89,364l64.64.14c-1.66-49.07-9.26-69-9.26-69-8-25.15-29.91-30.94-29.91-30.94L233.1,252.6c-20.71-11.24-29.7-8.84-31.35-8.22l-.12.05a.12.12,0,0,1-.08,0,.07.07,0,0,1-.06,0,78.24,78.24,0,0,1,5.69,9.2c1.4.13,20.26,2,28.85,8.68-.43-1.65-.86-3.06-1.25-4.24-1.11-3.37-1.9-4.94-1.6-5.23,0,0,1.58,3.11,3.3,5.78.33.5.65,1,1,1.44,0,0,5.57,9.66,4.32,39.64a192.7,192.7,0,0,0,1.13,28.74S245,347,242,363.43Zm37.69-35s1.54,31.12,1.69,34.45c0,.17,0,.27,0,.29a33.22,33.22,0,0,1-3.36,0c0-.07,0-.15,0-.27C277.7,359.75,279.58,328.94,279.58,328.94Z"/><path id="sweater-3" data-name="sweater" class="cls-5" d="M240.85,362.94a4.36,4.36,0,0,1-.06.49c0,.17,0,.35-.07.52l-25.17-.05,0-.44c0-.34.06-.86.11-1.57C225.7,360.11,239.1,362.6,240.85,362.94Z"/><path class="cls-5" d="M241.7,347.07a137,137,0,0,1-.84,15.82c-10.77-4.62-22.86-1.94-25.16-1.15.17-3,.46-9,.52-17A78.21,78.21,0,0,1,241.7,347.07Z"/><path class="cls-5" d="M239,281.73c-8.4-6.16-24.17-7.29-25.26-7.23-.09-.95-.21-1.81-.35-2.53a64.61,64.61,0,0,0-6.22-18.25c17.18,3.6,27.43,8.09,28.87,8.73h0A104.45,104.45,0,0,1,239,281.73Z"/><path class="cls-5" d="M241.7,347c-11.55-6.06-25.48-2.25-25.48-2.25,0-6.48-.05-14.31-.48-23a.11.11,0,0,0,0-.05c-.23-4.57-.55-9.38-1-14.34-.22-2.44.09-23-1-32.82C222.14,276,236.08,280.9,239,282c.17,2.64.27,5.49.31,8.58,0,0,.13,6.43.41,14.36-9.71-7.4-25.1-6.92-25.1-6.92a115.35,115.35,0,0,1,25.1,7c.23,6.87.58,14.85,1,20.71C240.77,325.71,241.71,335.6,241.7,347Z"/><path id="rt_side_sweater" data-name="rt side sweater" class="cls-5" d="M119.15,326.53c-.73-18.72-7.91-40-7.91-40-2.79-8.54-5.73-28.69-6.2-32-.05-.3-.07-.47-.07-.47-.81-4.34-.15-5.79.37-6.27-5.65,1.64-43.83,12.66-48.39,13.8-1.31.33-27.75,7.35-39.05,26,0,0-13.33,19.15-14.9,76.67L120.44,364v-.47C120.35,344.77,119.15,326.53,119.15,326.53Zm-66,37.15a33.22,33.22,0,0,1-3.36,0s0,0,0-.05c-.3-2.28,1.67-34.68,1.67-34.68s1.64,33,1.7,34.67Z"/><path class="cls-5" d="M134.45,244.28c-1.3,1.93-1.45,5.44-.88,10l-1.2.13c-4.23.52-17.6,2.51-24.67,7.89-.53-3-1-5.77-1.27-8.13a58.71,58.71,0,0,1-.58-6.49l.19-.06c6.93-4.06,27.59-7.84,28.94-4.31a.89.89,0,0,1,.07.28A4.1,4.1,0,0,0,134.45,244.28Z"/><path class="cls-5" d="M139,277.3h-.32c-2.78.12-17.83,1.78-25.68,8.92-2.16-8-4-16.54-5.22-23.7a132,132,0,0,1,24.65-8l1.19-.28C134.37,260.53,136.54,268.73,139,277.3Z"/><path class="cls-5" d="M145.21,299.92H145c-2.47,0-17,.21-26.64,8.06-2.37-11.06-5.27-21.36-5.27-21.36l-.1-.34c1.25-.53,16.52-6.93,25.7-8.86l.31-.06C141.12,284.92,143.45,292.8,145.21,299.92Z"/><path class="cls-5" d="M149.79,363a15.44,15.44,0,0,0-2.13-.56c-4.55-.94-15.35-2.26-25.42,1.16h-.62c.26-4.74.31-10.22.27-15.49a97.72,97.72,0,0,1,27-2.32l1.13.05s-.4-.1-1.13-.23c-3.77-.73-16.26-2.57-27,2.29-.06-8.65-.41-16.72-.57-20.09a96.32,96.32,0,0,1,27.07-4.94h.05c.06,0,0,0-.05,0-1.18-.34-14.76-2.3-27.08,4.76,0-.92-.07-1.44-.07-1.44a137.24,137.24,0,0,0-2.85-17.89A117.81,117.81,0,0,1,145,300l.21-.05A104.51,104.51,0,0,1,147.74,313C151.11,343.38,150.14,359,149.79,363Z"/><path class="cls-5" d="M149.78,363c0,.18,0,.34-.05.47v0c0,.28,0,.42,0,.42l-28.09.08a.25.25,0,0,1,0-.09l2.51-.38h0c5.06-.72,15-1.8,23.46-.82.65.07,1.28.15,1.91.26Z"/></g><g id="sweater_shade" data-name="sweater shade"><path id="left_ribbing" data-name="left ribbing" class="cls-6" d="M242,363.43l-.09.52h-.08l-1.09,0v0c0-.17.05-.35.07-.52a4.36,4.36,0,0,0,.06-.49c-1.75-.34-15.15-2.83-25.16-1.05,0-.05,0-.1,0-.15,2.3-.79,14.39-3.47,25.16,1.15a137,137,0,0,0,.84-15.82,78.21,78.21,0,0,0-25.48-2.37s13.93-3.81,25.48,2.25c0-11.35-.93-21.24-.93-21.24-.44-5.86-.79-13.84-1-20.71a115.35,115.35,0,0,0-25.1-7s15.39-.48,25.1,6.92c-.28-7.93-.41-14.36-.41-14.36,0-3.09-.14-5.94-.31-8.58-2.95-1.06-16.89-6-25.26-7.43v0c1.09-.06,16.86,1.07,25.26,7.23a104.45,104.45,0,0,0-3-19.27h0c-1.44-.64-11.69-5.13-28.87-8.73h0c1.4.13,20.26,2,28.85,8.68-.43-1.65-.86-3.06-1.25-4.24-1.11-3.37-1.9-4.94-1.6-5.23,0,0,1.58,3.11,3.3,5.78.33.5.65,1,1,1.44,0,0,5.57,9.66,4.32,39.64a192.7,192.7,0,0,0,1.13,28.74S245,347,242,363.43Z"/><path class="cls-6" d="M215.63,321.74c-.76,0,13.06-2.27,25.14,4A98.16,98.16,0,0,0,215.63,321.74Z"/><path class="cls-6" d="M53.13,363.61v.07a33.22,33.22,0,0,1-3.36,0s0,0,0-.05c-.3-2.28,1.67-34.68,1.67-34.68S53.07,361.94,53.13,363.61Z"/><path class="cls-6" d="M281.28,363.68a33.22,33.22,0,0,1-3.36,0c0-.07,0-.15,0-.27-.18-3.65,1.7-34.46,1.7-34.46s1.54,31.12,1.69,34.45C281.28,363.56,281.28,363.66,281.28,363.68Z"/><path class="cls-6" d="M121.89,348.06c0,5.27,0,10.75-.27,15.49,0,.07,0,.16,0,.23.22-.08.42-.17.64-.23,10.07-3.42,20.87-2.1,25.42-1.16,0,.12,0,.24-.06.34-8.44-1-18.4.1-23.46.82h0l-2.51.38a.25.25,0,0,0,0,.09h0l-1.15.13v-.61c-.09-18.78-1.29-37-1.29-37-.73-18.72-7.91-40-7.91-40-2.79-8.54-5.73-28.69-6.2-32-.05-.3-.07-.47-.07-.47-.81-4.34-.15-5.79.37-6.27a.83.83,0,0,1,.51-.25v.11a58.71,58.71,0,0,0,.58,6.49c.31,2.36.74,5.12,1.27,8.13,7.07-5.38,20.44-7.37,24.67-7.89,0,.05,0,.11,0,.16a132,132,0,0,0-24.65,8c1.25,7.16,3.06,15.71,5.22,23.7,7.85-7.14,22.9-8.8,25.68-8.92l0,.1c-9.18,1.93-24.45,8.33-25.7,8.86l.1.34s2.9,10.3,5.27,21.36c9.68-7.85,24.17-8.08,26.64-8.06a.24.24,0,0,0,0,.08,117.81,117.81,0,0,0-26.61,8.22,137.24,137.24,0,0,1,2.85,17.89s0,.52.07,1.44c12.32-7.06,25.9-5.1,27.08-4.76v0a96.32,96.32,0,0,0-27.07,4.94c.16,3.37.51,11.44.57,20.09,10.76-4.86,23.25-3,27-2.29.73.13,1.13.23,1.13.23l-1.13-.05A97.72,97.72,0,0,0,121.89,348.06Z"/></g><g id="skin"><path id="face" class="cls-7" d="M271.4,150.45c-.07-1.39-.13-2.76-.2-4.12a.35.35,0,0,0,0-.12c-.37-6.77-.95-13.13-1.65-19.09a50.28,50.28,0,0,1-7.4.6s-.41,0-1.05,0c-4.82-.32-24.67-2.81-27-21.8a5.8,5.8,0,0,1-.05-.93,14.44,14.44,0,0,0-3.82-1,30,30,0,0,0-4.77-.24c-1.62.07-3.28.21-4.94.43l-2.51.35-1.26.21-.62.1H216a7.83,7.83,0,0,1-.12,1.67c-1.52,8.52-7.64,22.39-31.19,22.39-1,0-2.09,0-3.19-.08-.25,0-27.28-.72-30.69-24.94l-.1,0h-.24l-17.68-.24a68.73,68.73,0,0,0,55.12,63,27.14,27.14,0,0,1,17.7-17.78,52.78,52.78,0,0,1,11.17-1.69c2.12-.16,4.33-.34,6.45-.66,1-.16,2.07-.35,3.1-.55a35.38,35.38,0,0,1,8-.87,21.65,21.65,0,0,1,15.07,7.64,33.47,33.47,0,0,1,7.09,14.23,18.71,18.71,0,0,0,2.63-.85,5.79,5.79,0,0,0,.57-.25,19.44,19.44,0,0,0,10.75-12.16l.06-5.44.87,2.16h0Zm-35.27,8.83a12.78,12.78,0,0,0-1.16-.76,18.19,18.19,0,0,0-9.25-2.55,31.46,31.46,0,0,0-14.28,3.51l-.67.37a23.88,23.88,0,0,0-11.16,14.43c22.13,5.56,25.1-4.72,25.1-4.72,7.32,9.55,18.53.58,18.53.58C241.78,164.7,239,161.33,236.13,159.28ZM264.05,97c-.58-2.39-1.2-4.66-1.82-6.84h-.1c-2.44.15-5,.43-7.66.86a65.16,65.16,0,0,0-12.21,3.11,1.12,1.12,0,0,1-.41.07,1.36,1.36,0,0,1-.76-.25c-1.06-.71-2.69-3.74-2.84-8l0-.77.58-.18a25.49,25.49,0,0,1,6.12-3.24,1.44,1.44,0,0,1,1.17.06,1.94,1.94,0,0,1,.87,1.36c.58-.29,1.52-.8,2.3-1.22l1.95-1a12.45,12.45,0,0,1,1.29-.59c.7-.24,1.63-.23,2.21,1.16.65-.27,1.67-.79,2.6-1.26.48-.25,1-.5,1.4-.71a.33.33,0,0,0,.1-.06,139.3,139.3,0,0,0-6.41-15.26c-.2-.4-.37-.74-.52-1s-.23-.47-.34-.68c-1.18-2.27-2.19-4-2.94-5.24l0,0c-.91-1.46-1.43-2.17-1.43-2.17l-.14-.2c-20.22-28.1-53-33.68-53-33.68a97.56,97.56,0,0,0-18.08-.84c-.09.68-.18,1.09-.18,1.14,0,.35-1,.35-1,.35s-.15-.17-.24-.27l0,.27a7.32,7.32,0,0,0-2.15-1.23c-42.7,3.88-60.09,37.88-60.09,37.88-5.47,9.24-7.44,25.22-7.65,42.3l45.74-2.89a2.82,2.82,0,0,1,1.13.14.05.05,0,0,1,.05,0,12.55,12.55,0,0,1,1-1.72l.42-.51c.09-.11.2-.22.29-.34l.08-.08a.1.1,0,0,0,0,0l.42-.4,0,0a9.08,9.08,0,0,1,3-1.68l.47-.13a1.1,1.1,0,0,1,.26-.06l.27,0a7.91,7.91,0,0,1,.91-.14H159l49.47,3.87h.14a8.25,8.25,0,0,1,5.72,3.16,8.39,8.39,0,0,1,1.57,3.53l.35-.19c.4-.22.8-.4,1.21-.59a23.89,23.89,0,0,1,2.52-.93,23.24,23.24,0,0,1,5.33-1,15.18,15.18,0,0,1,5.54.53,9.31,9.31,0,0,1,3.44,1.89,7.1,7.1,0,0,1,1.4-2.64A7.2,7.2,0,0,1,240.82,98l3.27-.13,12.09-.49,7.82-.31h.07S264.05,97,264.05,97Zm-50.91-4a1.34,1.34,0,0,1-1.25,1,1.14,1.14,0,0,1-.36-.07,249.81,249.81,0,0,0-26.8-6.08c-14.59-2.35-31.1-.33-31.26-.31l-2.49.31,5.8-7.36.16-.1c.22-.12,5.39-3,14.26-.74,1.4.36,1.74-.15,2.25-1a2.34,2.34,0,0,1,1.69-1.3c1.5-.11,3.54.7,5.51,1.49a13.51,13.51,0,0,0,3.9,1.2,2,2,0,0,0,.49-.06,3.49,3.49,0,0,0-.13-.42A1.61,1.61,0,0,1,185,78a1.35,1.35,0,0,1,1.38-.34l7.35,1.77a1.08,1.08,0,0,1,.11-.86c.48-.85,1.56-.57,2.08-.42a18.94,18.94,0,0,1,5.21,2.5,27,27,0,0,0,2.8,1.58,1.07,1.07,0,0,1,.22-.69c.53-.74,1.47-.41,1.83-.29A74.73,74.73,0,0,1,213.1,84C214.72,84.81,213.45,92.25,213.14,93Zm.24,9.32c-1.53-.43-8.91-2.26-25.71-2.69a7,7,0,0,1,1.19,3.84c0,4.9-5.47,8.89-12.2,8.89s-12.19-4-12.19-8.89A7,7,0,0,1,166,99.25c-6.28.27-10.6,1-12.45,2a2.56,2.56,0,0,0-.82.6,4,4,0,0,0,.05.69c0,.11,0,.21,0,.33,1.13,9.65,6.25,16.6,15.2,20.64a38.58,38.58,0,0,0,13.6,3.24c23.41,1.18,30.49-10.57,32.3-20.61A6.3,6.3,0,0,0,213.38,102.36Zm-54.5-8.46-.11,0h.11Z"/><path id="ear" class="cls-7" d="M111.23,122.29l-.7-1.57a145.33,145.33,0,0,1-6-14.77c-.13-.41-.25-.78-.35-1.12-.93-.54-1.94-1.1-3-1.62h0a30.9,30.9,0,0,0-3.1-1.36c-5-1.89-10.51-2.47-14.1,1.6,0,0-9.36,14.07,10.33,35.39,0,0,5.66,9.46,12,10.7a.85.85,0,0,1,.63-.33l.43-.11a8,8,0,0,0,1.47-.57c3.56-1.8,6.14-6.15,6.43-10.82C115.49,132.25,113.3,126.89,111.23,122.29ZM106,134.78a8.82,8.82,0,0,1-4.92-.82c-4.82-2.71-3-7.12-3-7.12,1.8-4,4.92-4,4.92-4-2.42-8.13-11.85-7.53-11.85-7.53.52-.26,9.11-3.68,13.92,6.11a15.45,15.45,0,0,1,.66,1.47,5.59,5.59,0,0,0-.55.39c-1.32,1-4.38,3.86-1.59,7.08a5,5,0,0,0,2.13.94,4.35,4.35,0,0,0,3.77-1.16l.83.83A5.5,5.5,0,0,1,106,134.78Z"/></g><g id="face_shade" data-name="face shade"><path id="face_shade-2" data-name="face shade" class="cls-8" d="M258.7,79.51c-.44.21-.92.46-1.4.71-.93.47-2,1-2.6,1.26-.58-1.39-1.51-1.4-2.21-1.16a12.45,12.45,0,0,0-1.29.59A189.32,189.32,0,0,0,239.83,55s-6.48-15.21-27-27.55c1.25.51,21.67,9.21,35.33,29.22a5.82,5.82,0,0,0,.42.51l0,0c.1.13.2.24.22.26a54.22,54.22,0,0,1,2.72,5c.11.21.23.44.34.68s.32.62.52,1A159.48,159.48,0,0,1,258.7,79.51Z"/><path id="face_shade-3" data-name="face shade" class="cls-8" d="M264,97.07l-7.82.31s0,0,0,0c-.52-2.08-1.08-4.18-1.7-6.31,2.64-.43,5.22-.71,7.66-.86.63,2.17,1.26,4.45,1.86,6.83C264,97,264,97.05,264,97.07Z"/><path id="face_shade-4" data-name="face shade" class="cls-8" d="M271.37,150.36l-.87-2.16-.06,5.44a19.44,19.44,0,0,1-10.75,12.16,166.16,166.16,0,0,0,1.4-38.13c.64,0,1,0,1.05,0a50.28,50.28,0,0,0,7.4-.6h0c.73,6,1.29,12.36,1.62,19.1a.35.35,0,0,1,0,.12C271.26,147.66,271.32,149,271.37,150.36Z"/><path id="ear_shade" data-name="ear shade" class="cls-7" d="M110.3,131a5.5,5.5,0,0,1-4.31,3.83,8.82,8.82,0,0,1-4.92-.82c-4.82-2.71-3-7.12-3-7.12,1.8-4,4.92-4,4.92-4-2.42-8.13-11.85-7.53-11.85-7.53.52-.26,9.11-3.68,13.92,6.11a15.45,15.45,0,0,1,.66,1.47,5.59,5.59,0,0,0-.55.39c-1.32,1-4.38,3.86-1.59,7.08a5,5,0,0,0,2.13.94,4.35,4.35,0,0,0,3.77-1.16Z"/><path class="cls-8" d="M110.3,131a5.5,5.5,0,0,1-4.31,3.83,8.82,8.82,0,0,1-4.92-.82c-4.82-2.71-3-7.12-3-7.12,1.8-4,4.92-4,4.92-4-2.42-8.13-11.85-7.53-11.85-7.53.52-.26,9.11-3.68,13.92,6.11a15.45,15.45,0,0,1,.66,1.47,5.59,5.59,0,0,0-.55.39c-1.32,1-4.38,3.86-1.59,7.08a5,5,0,0,0,2.13.94,4.35,4.35,0,0,0,3.77-1.16Z"/></g><path id="rt_eyebrow" data-name="rt eyebrow" class="cls-9" d="M213.14,93a1.34,1.34,0,0,1-1.25,1,1.14,1.14,0,0,1-.36-.07,249.81,249.81,0,0,0-26.8-6.08c-14.59-2.35-31.1-.33-31.26-.31l-2.49.31,5.8-7.36.16-.1c.22-.12,5.39-3,14.26-.74,1.4.36,1.74-.15,2.25-1a2.34,2.34,0,0,1,1.69-1.3c1.5-.11,3.54.7,5.51,1.49a13.51,13.51,0,0,0,3.9,1.2,2,2,0,0,0,.49-.06,3.49,3.49,0,0,0-.13-.42A1.61,1.61,0,0,1,185,78a1.35,1.35,0,0,1,1.38-.34l7.35,1.77a1.08,1.08,0,0,1,.11-.86c.48-.85,1.56-.57,2.08-.42a18.94,18.94,0,0,1,5.21,2.5,27,27,0,0,0,2.8,1.58,1.07,1.07,0,0,1,.22-.69c.53-.74,1.47-.41,1.83-.29A74.73,74.73,0,0,1,213.1,84C214.72,84.81,213.45,92.25,213.14,93Z"/><path id="left_eyebrow" data-name="left eyebrow" class="cls-9" d="M281.78,91l-1.4-.28a90.58,90.58,0,0,0-18.15-.55h-.1c-2.44.15-5,.43-7.66.86a65.16,65.16,0,0,0-12.21,3.11,1.12,1.12,0,0,1-.41.07,1.36,1.36,0,0,1-.76-.25c-1.06-.71-2.69-3.74-2.84-8l0-.77.58-.18a25.49,25.49,0,0,1,6.12-3.24,1.44,1.44,0,0,1,1.17.06,1.94,1.94,0,0,1,.87,1.36c.58-.29,1.52-.8,2.3-1.22l1.95-1a12.45,12.45,0,0,1,1.29-.59c.7-.24,1.63-.23,2.21,1.16.65-.27,1.67-.79,2.6-1.26.48-.25,1-.5,1.4-.71a.33.33,0,0,0,.1-.06c.68-.32,1.25-.59,1.67-.74,1.25-.44,2.09.57,2.61,1.18a4.58,4.58,0,0,0,.47.5,30.74,30.74,0,0,1,5-.93c3.81-.42,4.44.05,4.78.6A1.29,1.29,0,0,1,273,81.7a1.54,1.54,0,0,1-.19.17l.08,0,.12,0c3.24-.5,4.55.31,5.71,1l.33.23c1.81,1.78,2.4,5.15,2.57,6.51Z"/><g id="nose"><path id="nostril" class="cls-9" d="M221.47,140.86s-.72-4,4.82-1.21Z"/><path id="nose-2" data-name="nose" class="cls-9" d="M218.7,133s8.8-7.85,16-1.67c0,0,5.74,5.49-.23,12.9,0,0,10.31-8.85.8-16.33C235.27,127.88,227.72,122.46,218.7,133Z"/></g><path id="mouth" class="cls-9" d="M236.13,159.28c-11.64,16.5-21.83,5.68-25.36.57l.67-.37c8.65,7.15,18.53,2.39,23.53-1A12.78,12.78,0,0,1,236.13,159.28Z"/><path id="beard_and_glasses" data-name="beard and glasses" class="cls-9" d="M292.34,101.32a.11.11,0,0,1,0,0,7.11,7.11,0,0,0-7.09-5.07l-21.17.86H264l-7.82.31-12.09.49-3.27.13a7.2,7.2,0,0,0-5.16,2.52,7.1,7.1,0,0,0-1.4,2.64,9.31,9.31,0,0,0-3.44-1.89,15.18,15.18,0,0,0-5.54-.53,23.24,23.24,0,0,0-5.33,1,23.89,23.89,0,0,0-2.52.93c-.41.19-.81.37-1.21.59l-.35.19a8.39,8.39,0,0,0-1.57-3.53,8.25,8.25,0,0,0-5.72-3.16h-.14L159,92.87h-.18a7.91,7.91,0,0,0-.91.14l-.27,0a1.1,1.1,0,0,0-.26.06l-.47.13a9.08,9.08,0,0,0-3,1.68l0,0-.42.4a.1.1,0,0,1,0,0l-.08.08c-.09.12-.2.23-.29.34l-.42.51a12.55,12.55,0,0,0-1,1.72.05.05,0,0,0-.05,0,2.82,2.82,0,0,0-1.13-.14l-45.74,2.89-5.62.35h0a1,1,0,0,0-.92.73,30.9,30.9,0,0,1,3.1,1.36h0l2.59,0,.07.3c.09.4.21.81.35,1.29s.22.71.35,1.12a145.33,145.33,0,0,0,6,14.77l.7,1.57c2.07,4.6,4.26,10,3.92,15.42-.29,4.67-2.87,9-6.43,10.82a8,8,0,0,1-1.47.57l-.43.11a.85.85,0,0,0-.63.33c-.41.61-.26,2.55.3,9.93.06.75.1,1.3.11,1.48l0,.63c.53,9.79,1,19,5.9,27.93a39.84,39.84,0,0,0,20.05,18.18,52.89,52.89,0,0,0,8.34,2.39l.52.12h0c1.67.34,3.37.65,5,.94a78.14,78.14,0,0,1,12.63,3,82.38,82.38,0,0,1,8.67,3.88c6,3,12.27,6.06,19.08,5.66l.91-.05.06-.92a8.37,8.37,0,0,1,3-5.84,8.64,8.64,0,0,1,3.88,8l-.27,2.26,1.87-1.29c1.95-1.35,3.3-4.53,3.5-7.72.43.5.85,1,1.28,1.55s1,1.24,1.56,1.85l.65.72h0l.64.71.48-1.88.36-1.47a12.23,12.23,0,0,1,.2,7l-.52,1.91c0,.05,0,.11.05.18l1.89-.89a12.79,12.79,0,0,0,7.06-10.46A14.72,14.72,0,0,1,217.5,229l-.26,2.17,1.84-1.19a26.11,26.11,0,0,0,11.36-17.35,11,11,0,0,1,1.44,5.05l.18,2.81,1.67-2.25c2.25-3,4.49-6,6.75-9l.54-.73a17.45,17.45,0,0,1,4.33,12.14l-.09,2.18,1.74-1.31a83.44,83.44,0,0,0,14.62-14,65.64,65.64,0,0,0,9.7-16c5.36-12.76,5.78-26.72,1.17-38.33l-1.09-2.73,0-.08h0l-.87-2.16-.06,5.44a19.44,19.44,0,0,1-10.75,12.16,5.79,5.79,0,0,1-.57.25,18.71,18.71,0,0,1-2.63.85,33.47,33.47,0,0,0-7.09-14.23A21.65,21.65,0,0,0,234.33,145a35.38,35.38,0,0,0-8,.87c-1,.2-2.06.39-3.1.55-2.12.32-4.33.5-6.45.66a52.78,52.78,0,0,0-11.17,1.69,27.14,27.14,0,0,0-17.7,17.78,68.73,68.73,0,0,1-55.12-63l17.68.24h.24l.1,0c3.41,24.22,30.44,24.94,30.69,24.94,1.1.05,2.17.08,3.19.08,23.55,0,29.67-13.87,31.19-22.39a7.83,7.83,0,0,0,.12-1.67h.08l.62-.1,1.26-.21,2.51-.35c1.66-.22,3.32-.36,4.94-.43a30,30,0,0,1,4.77.24,14.44,14.44,0,0,1,3.82,1,5.8,5.8,0,0,0,.05.93c2.36,19,22.21,21.48,27,21.8.64,0,1,0,1.05,0a50.28,50.28,0,0,0,7.4-.6h0c17.72-2.85,22.05-15.18,23-22.94a1.1,1.1,0,0,0,0-.18v0A10.09,10.09,0,0,0,292.34,101.32Zm-22.18,77.06s-3,24.83-21.19,37.38C249.43,215.18,264.32,196.79,270.16,178.38Zm-49.47,44.69a18.21,18.21,0,0,0-1.37-10.22c-.42-1-.86-1.92-1.27-2.72h0a28,28,0,0,0-2.14-3.47c-.29-.4-.56-.81-.83-1.2-5.53-8.38-5.33-15.45-5.33-15.45,2.28,10,6.39,13.45,6.39,13.45.3.55.58,1.08.84,1.61.92,1.75,1.66,3.35,2.26,4.8.42,1,.78,1.95,1.07,2.83C223.11,220.92,220.69,223.07,220.69,223.07Zm22.66-27.95a32,32,0,0,1-3.54,8.88,42.47,42.47,0,0,1-2.81,4.24,2.63,2.63,0,0,1-.3.38c0-.07.12-.18.22-.35a35.81,35.81,0,0,0,2-4,43.38,43.38,0,0,0,2.64-8.07h0a37.85,37.85,0,0,0,.08-16.7S245.47,185.69,243.35,195.12Zm-32.58-35.27.67-.37A31.46,31.46,0,0,1,225.72,156a18.19,18.19,0,0,1,9.25,2.55,12.78,12.78,0,0,1,1.16.76c2.9,2.05,5.65,5.42,7.11,10.86,0,0-11.21,9-18.53-.58,0,0-3,10.28-25.1,4.72A23.88,23.88,0,0,1,210.77,159.85Zm-48.21,20.36c.66,14.15,9.6,24.17,14.36,28.55a2.52,2.52,0,0,1,.3.27c1.41,1.26,2.39,2,2.61,2.15a29.78,29.78,0,0,1-3.64-2.14h0l-.84-.6C161.36,198.21,162.42,180.92,162.56,180.21ZM158.88,93.9h-.11Zm55,12.22c-1.81,10-8.89,21.79-32.3,20.61a38.58,38.58,0,0,1-13.6-3.24c-8.95-4-14.07-11-15.2-20.64,0-.12,0-.22,0-.33a4,4,0,0,1-.05-.69,2.56,2.56,0,0,1,.82-.6c1.85-1,6.17-1.71,12.45-2a7,7,0,0,0-1.49,4.26c0,4.9,5.47,8.89,12.19,8.89s12.2-4,12.2-8.89a7,7,0,0,0-1.19-3.84c16.8.43,24.18,2.26,25.71,2.69A6.3,6.3,0,0,1,213.88,106.12ZM269.31,125h0a45.19,45.19,0,0,1-7.15.62s-.47,0-1.21-.06c-4.85-.36-22.71-2.87-24.82-20a4.51,4.51,0,0,1,0-1.42,1.07,1.07,0,0,0,.36-.25c.61-.71,3.77-1.28,8.43-1.68a5.15,5.15,0,0,0-1.28,3.55c.19,3.34,4.2,6.58,10.7,6.58l1.1,0a15.8,15.8,0,0,0,3.74-.62,10.23,10.23,0,0,0,3.84-2,6.29,6.29,0,0,0,2.36-4.8c0-.11,0-.22,0-.32a5.45,5.45,0,0,0-1.26-3.2h1c3.48,0,7.05,0,10.55,0,.94,0,1.81-.06,2.65-.06,9,0,11.6,2.15,12.15,2.76C288.63,118.54,278.32,123.49,269.31,125Z"/><g id="beard_highlights" data-name="beard highlights"><path class="cls-6" d="M270.16,178.38s-3,24.83-21.19,37.38C249.43,215.18,264.32,196.79,270.16,178.38Z"/><path class="cls-6" d="M243.35,195.12a32,32,0,0,1-3.54,8.88,42.47,42.47,0,0,1-2.81,4.24l-.08,0a35.81,35.81,0,0,0,2-4,43.38,43.38,0,0,0,2.64-8.07h0a37.85,37.85,0,0,0,.08-16.7S245.47,185.69,243.35,195.12Z"/><path class="cls-6" d="M220.69,223.07a18.21,18.21,0,0,0-1.37-10.22c-.42-1-.86-1.92-1.27-2.72h0a28,28,0,0,0-2.14-3.47c-.29-.4-.56-.81-.83-1.2-5.53-8.38-5.33-15.45-5.33-15.45,2.28,10,6.39,13.45,6.39,13.45.3.55.58,1.08.84,1.61.92,1.75,1.66,3.35,2.26,4.8.42,1,.78,1.95,1.07,2.83C223.11,220.92,220.69,223.07,220.69,223.07Z"/><path class="cls-6" d="M179.83,211.18a29.78,29.78,0,0,1-3.64-2.14h0l-.84-.6c-14-10.23-12.92-27.52-12.78-28.23.66,14.15,9.6,24.17,14.36,28.55a2.52,2.52,0,0,1,.3.27C178.63,210.29,179.61,211,179.83,211.18Z"/></g><path id="hair" class="cls-9" d="M175.91,20.33c-.09.68-.18,1.09-.18,1.14,0,.35-1,.35-1,.35s-.15-.17-.24-.27l0,.27a7.32,7.32,0,0,0-2.15-1.23C166.5,18.27,154.86,19,154.86,19s9.73-3.1,16.38-.72c-9.92-8.4-22.9-8.51-22.9-8.51,23.24-5.93,26.28,10.51,26.28,10.51-1.63-14.5-17.73-19-16.89-18.95C177.06,3,176.49,16.32,175.91,20.33Z"/><path id="rt_lense" data-name="rt lense" class="cls-10" d="M213.88,106.12c-1.81,10-8.89,21.79-32.3,20.61a38.58,38.58,0,0,1-13.6-3.24c-8.95-4-14.07-11-15.2-20.64,0-.12,0-.22,0-.33a4,4,0,0,1-.05-.69,2.56,2.56,0,0,1,.82-.6c1.85-1,6.17-1.71,12.45-2a7,7,0,0,0-1.49,4.26c0,4.9,5.47,8.89,12.19,8.89s12.2-4,12.2-8.89a7,7,0,0,0-1.19-3.84c16.8.43,24.18,2.26,25.71,2.69A6.3,6.3,0,0,1,213.88,106.12Z"/><path id="left_lense" data-name="left lense" class="cls-10" d="M278.32,101.45c-.84,0-1.71,0-2.65.06-3.5-.05-7.07-.07-10.55,0h-1a5.45,5.45,0,0,1,1.26,3.2c0,.1,0,.21,0,.32a6.29,6.29,0,0,1-2.36,4.8,10.23,10.23,0,0,1-3.84,2,15.8,15.8,0,0,1-3.74.62l-1.1,0c-6.5,0-10.51-3.24-10.7-6.58a5.15,5.15,0,0,1,1.28-3.55c-4.66.4-7.82,1-8.43,1.68a1.07,1.07,0,0,1-.36.25,4.51,4.51,0,0,0,0,1.42c2.11,17.11,20,19.62,24.82,20,.74.06,1.18.06,1.21.06a45.19,45.19,0,0,0,7.15-.62h0c9-1.55,19.32-6.5,21.16-20.83C289.92,103.6,287.3,101.45,278.32,101.45Zm4.36,15.77s-4.61,4-13.73,5.13h0a40.72,40.72,0,0,1-8.28.14,51,51,0,0,1-5.1-.68s2,.16,5,.12a56.67,56.67,0,0,0,8.19-.68h0c4.35-.7,8.83-2.06,11.82-4.67,0,0,6.64-5.23,2.43-12.83C283,103.75,291.1,109.52,282.68,117.22Z"/><path id="rt_lense_shade" data-name="rt lense shade" class="cls-11" d="M206,101.46s9.31,7.07-.41,16.49c0,0-10.53,9.74-31.32,5.62,0,0,20.1,1.75,28.93-6.41C203.19,117.16,210.85,110.76,206,101.46Z"/><path class="cls-11" d="M282.68,117.22s-4.61,4-13.73,5.13h0a40.72,40.72,0,0,1-8.28.14,51,51,0,0,1-5.1-.68s2,.16,5,.12a56.67,56.67,0,0,0,8.19-.68h0c4.35-.7,8.83-2.06,11.82-4.67,0,0,6.64-5.23,2.43-12.83C283,103.75,291.1,109.52,282.68,117.22Z"/></g></g></svg>