<svg id="Layer_1" data-name="Layer 1" xmlns="http://www.w3.org/2000/svg" viewBox="0 0 287.9 424.58"><defs><style>.cls-1{fill:#821a1a;}.cls-2{fill:#640e0e;}.cls-3{fill:#fbaf33;}.cls-4{fill:#c79763;}.cls-5{fill:#b77e45;}.cls-6{fill:#fff;}.cls-7{fill:#010101;}.cls-8{fill:#cccccb;}.cls-9{fill:#053a59;}</style></defs><path id="shirt" class="cls-1" d="M284.1,355.82a.22.22,0,0,1,0-.08,135.2,135.2,0,0,0-1.89-15.47,10.35,10.35,0,0,1,.89,1.94c-4.78-14.7-14.6-26.19-32.95-16.17h.05c.82-.29,4.19-1.13,7,2.54h0c3.74,4.83,6.58,17.42,1.61,49.22,0,0,1.94-43-8.85-51.71l-2.42-.69-.43-.11L183,307.15v.28c.14,7.26-2.6,12.11-6.34,15.34a2.25,2.25,0,0,1-.24.21c-.13.1-.26.2-.38.31l0,0-.3.22-.31.24c-.21.16-.43.31-.65.46l-.67.44c-.56.36-1.14.69-1.72,1s-1.17.59-1.76.84h0q-.71.32-1.41.57l-.8.29c-.2.07-.39.14-.58.19l-.93.29c-.65.19-1.27.35-1.88.49l-.9.2-.17,0c-.47.1-.92.18-1.36.26l-.62.09-.76.11c-.73.1-1.38.16-1.92.2l-.83.06c-.66,0-1,0-1,0-30,.53-33.81-24.4-34.09-25.17h0s0,0,0,0-3.55,1.27-11.08,3.68l-1.34.43c-12.27,4-29.68,9.35-48.35,14.1l-.26.07q-5.25,1.44-11,3L51,325.3c-3.76-1.7-39.46-16.59-46,26.9,0,0-6.68,27.52-4.57,71.86l208.12.36h71.85C280.81,421.66,286.19,386.29,284.1,355.82ZM60.15,377.27s1.93-43-8.86-51.72C51.29,325.55,69.46,317.6,60.15,377.27Zm97.14-26.49c-46.55,0-50-29.12-50.57-40.56.29,2.09,5.56,35.47,50.13,36.87.5,0,39.7-.11,41.73-34.63C198.72,313.68,202.5,350.78,157.29,350.78Z"/><g id="shirt_shade" data-name="shirt shade"><path class="cls-2" d="M60.15,377.27s1.93-43-8.86-51.72C51.29,325.55,69.46,317.6,60.15,377.27Z"/><path class="cls-2" d="M157.29,350.78c-46.55,0-50-29.12-50.57-40.56.29,2.09,5.56,35.47,50.13,36.87.5,0,39.7-.11,41.73-34.63C198.72,313.68,202.5,350.78,157.29,350.78Z"/><path class="cls-2" d="M258.85,377.82s1.94-43-8.85-51.71l0,0,.14,0h0c.82-.29,4.19-1.13,7,2.54h0C261,333.43,263.82,346,258.85,377.82Z"/><path class="cls-2" d="M287,417.72a.57.57,0,0,1,0,.13c-.07,1.32-.15,2.66-.23,4,0,.68-.09,1.37-.13,2.07l0,.46s0,.1,0,.15l-6.25,0v0a1.06,1.06,0,0,0,0-.14c.43-2.75,5.81-38.12,3.72-68.59a.22.22,0,0,1,0-.08,135.2,135.2,0,0,0-1.89-15.47,10.35,10.35,0,0,1,.89,1.94,54,54,0,0,1,2.45,9.9c.19,1.09.38,2.27.55,3.55.05.31.09.63.13.95.13,1,.26,2.08.38,3.2C287.88,371.52,288.55,389.76,287,417.72Z"/></g><path id="earring" class="cls-3" d="M251.25,260.53a35.77,35.77,0,0,1-2.57,10,30.38,30.38,0,0,1-5.59,8.79,24.12,24.12,0,0,1-8.71,6,21.21,21.21,0,0,1-10.58,1.29,21.68,21.68,0,0,1-8.58-3.11h0c-.4-.25-.8-.51-1.19-.78-.6-.42-1.18-.86-1.74-1.34.5-.43,1-.89,1.51-1.36s1-.95,1.52-1.45c.34.25.69.5,1,.73a18.55,18.55,0,0,0,2.33,1.32h0a17.89,17.89,0,0,0,5.67,1.68,16.87,16.87,0,0,0,8.37-1.14c5.31-2.18,9.41-7,11.67-12.45a31.45,31.45,0,0,0,2.18-8.67,35.68,35.68,0,0,0-.31-9,30.71,30.71,0,0,0-1.86-6.8.09.09,0,0,0,0-.07,28.94,28.94,0,0,0-3.91-7c.28-.76.55-1.54.82-2.33s.48-1.43.72-2.16a28.8,28.8,0,0,1,4.82,6.22.25.25,0,0,1,0,.07c.29.49.55,1,.81,1.48a33,33,0,0,1,3.21,9.78A37.52,37.52,0,0,1,251.25,260.53Z"/><g id="skin"><path class="cls-4" d="M224.12,182.88l.29-.38c3-3.87,15.69-18.94,30.64-20,.27-4.52.37-9,.21-13.27-8.49-1.23-19.85,3-20,3.06l-.79.3-.43-.73a4,4,0,0,1-.47-2.79,2.52,2.52,0,0,1,1.28-1.54l.22-.08c.69-.19,11.37-2.95,20-1.3-.87-12.36-4.25-22.18-12.44-23.78-9.68-1.89-22.94.21-22.94.21s-58.72-28.63-98.79,10c0-.44,0-.87,0-1.3l-.21.36c-3.34,13.18-3.86,31.87,1.84,58.34a132.55,132.55,0,0,1,1.48,43.68,30.88,30.88,0,0,1,2.44,4.11,33.23,33.23,0,0,1,3.18,10,38.46,38.46,0,0,1,.28,9.59c3,3.11,6,5.94,8.94,8.5,2.7,13.16-8.5,35.38-10.3,36.5,0,0-1.91.69-5.32,1.87.28.77,4.11,25.7,34.09,25.17,0,0,.37,0,1,0l.83-.06c.54,0,1.19-.1,1.92-.2l.76-.11.62-.09c.44-.08.89-.16,1.36-.26l.17,0,.9-.2c.61-.14,1.23-.3,1.88-.49l.93-.29c.19-.05.38-.12.58-.19l.8-.29,1.41-.57h0c.59-.26,1.18-.54,1.76-.84s1.16-.63,1.72-1l.67-.44c.22-.15.44-.3.65-.46l.31-.24.31-.24h0l.54-.45.53-.48.35-.33a17.54,17.54,0,0,0,3.79-5.39c.1-.22.2-.45.29-.69s.17-.41.24-.62.13-.37.19-.56.15-.45.21-.68.11-.42.16-.63a.94.94,0,0,0,0-.16c-.89,2.1-10,1-14.2-1,0,0-9-26.53-23-41.5-.57-.61-1.14-1.2-1.73-1.78.72.62,12.21,10.28,31.3,17.66.68.23,1.35.44,2,.64,12.16,3.73,20.42,3.35,21.26,3.31h0c.45-.17,6.41-2.42,14.23-9.27.5-.43,1-.89,1.51-1.36s1-.95,1.52-1.45c8.21-8,17.81-21,25.18-41.36.28-.76.55-1.54.82-2.33s.48-1.43.72-2.16a188.88,188.88,0,0,0,6.62-27.34s.68-2.88,1.61-7.57A19.37,19.37,0,0,1,248,198c-18.4-.32-24.34-12.65-24.83-13.76l-.09.08.08-.1,0-.06c.27-.35.53-.69.81-1A1.79,1.79,0,0,1,224.12,182.88Zm-87.22-33.3-.34.33-1.39-1.44.05-.05c30-28.66,56.6-5.54,56.86-5.3a3.28,3.28,0,0,1,1.3,2.28,3.94,3.94,0,0,1-.93,2.72l-.66.75-.75-.65C164.65,125.45,140.16,146.55,136.9,149.58Zm33.2,47.54s-32.07-1.92-28-29.41h0l.56-3.56c30.61-13.87,51.49,8.83,56.74,15.46l0,0,.74.87c.69.75,1.37,1.53,2.05,2.33A36.68,36.68,0,0,1,170.1,197.12Zm34.28,57.79c-1,.53-2.14,1.06-3.33,1.55-7.05,2.92-16.63,4.45-23-4.25,0,0-8.9-13.84,13.41-21.75,0,0,3.07,10.42,10.58,16.65a21.59,21.59,0,0,0,2.7,1.92,18.32,18.32,0,0,0,5.54,2.24A43.74,43.74,0,0,1,204.38,254.91Zm1.73-25.79s-.86-3.81,5.74-1.14Zm16.69-2.8a11.89,11.89,0,0,1-.81,1.85,16.92,16.92,0,0,1-3.39,4.28c5.78-7.2.22-12.54.22-12.54-6.85-5.88-15.18,1.29-15.55,1.62,8.76-10.23,16.1-4.95,16.1-4.95C223.54,219.86,223.79,223.41,222.8,226.32Z"/><path class="cls-4" d="M115.2,183.41a142,142,0,0,1-4.58-23.33,150.42,150.42,0,0,0-1.91,37.22L104,198.63l-1.29-.81-.11-.08c-2.46-1.75-8-5.26-12.79-5.14a6.67,6.67,0,0,0-5.09,2.26s-7,10.44,7.66,26.27c0,0,8.17,13.6,14.33,5.44q4.22,7,8.55,13l0,0q1.66,2.31,3.33,4.49c.52-2.58,1-5.29,1.28-8.16a28.76,28.76,0,0,0-2.77-3.63A22.39,22.39,0,0,0,110,227a17.84,17.84,0,0,0-2.84-1,6,6,0,0,0-.61-.15l-.29-.07a21.7,21.7,0,0,0-5.12-.47h0a1,1,0,0,1-.25-2,19,19,0,0,1,3.54-.48h.24a19.87,19.87,0,0,1,6.61.92,23.72,23.72,0,0,1,9.06,5.43l.17.16C121.14,216.71,119.82,201.52,115.2,183.41ZM102,218.78H102a7.6,7.6,0,0,1-4.42-.67c-4.18-2.35-2.61-6.18-2.61-6.18a6.94,6.94,0,0,1,1.35-2,6.46,6.46,0,0,1,.65-.57,4.2,4.2,0,0,1,2.26-.87,8.52,8.52,0,0,0-5.3-5.68,12.39,12.39,0,0,0-2.66-.7,12.23,12.23,0,0,0-2.31-.14,8.36,8.36,0,0,1,1.87-.53,9.21,9.21,0,0,1,2.46-.11c2.73.22,6.13,1.76,8.31,7.21,0,0-3,1.87-2.83,4.39h0c.41.78.8,1.52,1.19,2.23a3.86,3.86,0,0,0,4.9-.35l.72.72A4.79,4.79,0,0,1,102,218.78Z"/></g><g id="skin_shade" data-name="skin shade"><path class="cls-5" d="M264.32,151.52c-2-3.08-5.4-4.68-9.23-5.41-.87-12.36-4.25-22.18-12.44-23.78-9.68-1.89-22.94.21-22.94.21s-58.72-28.63-98.79,10c0-.44,0-.87,0-1.3,9-15.45,19.53-20.31,19.53-20.31,40.74-18.2,79,10.19,79,10.19,14.5-5.25,25.3-3.4,25.3-3.4,9,.29,13.58,8,14.12,8.92a.08.08,0,0,1,0,0l0,.05.1.27s0,.09.05.13.11.33.17.5a100.31,100.31,0,0,1,4.85,22.24.13.13,0,0,1,0,.06C264.21,150.42,264.27,151,264.32,151.52Z"/><path class="cls-5" d="M264.88,163.92a22.3,22.3,0,0,0-9.83-1.46c.27-4.52.37-9,.21-13.27a14.28,14.28,0,0,1,4,1.15,8.12,8.12,0,0,1,4.45,5l.86-.23C264.79,157.87,264.89,160.81,264.88,163.92Z"/><path class="cls-5" d="M261.9,193.06a206.65,206.65,0,0,1-15.08,45.88l-.12.27s-.35.83-1,2.27c-.35.74-.78,1.65-1.3,2.7-4.12,8.37-13.47,25.47-25.72,36.44q-.85.76-1.74,1.5c-.57.47-1.15.94-1.73,1.38a44.49,44.49,0,0,1-4,2.74l-.85.5c-.79.44-1.58.86-2.38,1.24a29.24,29.24,0,0,1-4.89,1.83c-.42.12-.84.22-1.25.31a22.05,22.05,0,0,1-2.41.41l-.48.05c-.28,0-.57.06-.85.07h0c.45-.17,6.41-2.42,14.23-9.27.5-.43,1-.89,1.51-1.36s1-.95,1.52-1.45c8.21-8,17.81-21,25.18-41.36.28-.76.55-1.54.82-2.33s.48-1.43.72-2.16a188.88,188.88,0,0,0,6.62-27.34s.68-2.88,1.61-7.57A25.27,25.27,0,0,0,261.9,193.06Z"/><path class="cls-5" d="M183,308.1c0,.18,0,.39,0,.64s0,.34,0,.5a.06.06,0,0,1,0,0q0,.17,0,.36c0,.06,0,.12,0,.18a.06.06,0,0,1,0,0,.62.62,0,0,1,0,.13.28.28,0,0,1,0,.09.45.45,0,0,1,0,.11l0,.26c0,.19,0,.38-.07.57s0,.26,0,.39c-.08.51-.17,1.08-.29,1.7h0a1.09,1.09,0,0,1,0,.17c-.89,2.1-10,1-14.2-1,0,0-9-26.53-23-41.5-.57-.61-1.14-1.2-1.73-1.78.72.62,12.21,10.28,31.3,17.66.65.25,1.3.5,2,.74l.1,0a15.4,15.4,0,0,0-.68,1.65c0,.09-.06.18-.09.28-.82,2.45-1.83,6.87-.31,11.22a2.09,2.09,0,0,0,.08.23c.06.16.12.32.19.49a13.44,13.44,0,0,0,2,3.33s1.26.78,2.56,1.49c0,0,0,0,0,0a11.46,11.46,0,0,0,2.31,1s0,0,0,.15a.45.45,0,0,1,0,.12,1.84,1.84,0,0,1,0,.26,1.27,1.27,0,0,1,0,.2A.76.76,0,0,1,183,308.1Z"/><path class="cls-5" d="M105.54,215.51a4.79,4.79,0,0,1-3.53,3.27H102a7.6,7.6,0,0,1-4.42-.67c-4.18-2.35-2.61-6.18-2.61-6.18a6.94,6.94,0,0,1,1.35-2,6.46,6.46,0,0,1,.65-.57,4.2,4.2,0,0,1,2.26-.87,8.52,8.52,0,0,0-5.3-5.68,12.39,12.39,0,0,0-2.66-.7,12.23,12.23,0,0,0-2.31-.14,8.36,8.36,0,0,1,1.87-.53,9.21,9.21,0,0,1,2.46-.11c2.73.22,6.13,1.76,8.31,7.21,0,0-3,1.87-2.83,4.39h0c.41.78.8,1.52,1.19,2.23a3.86,3.86,0,0,0,4.9-.35Z"/></g><g id="rt_earring" data-name="rt earring"><path class="cls-3" d="M130,257.28a34.73,34.73,0,0,1-2.93,11,29.94,29.94,0,0,1-6,8.81,23.82,23.82,0,0,1-9.2,5.76,21.39,21.39,0,0,1-10.91.71,20.24,20.24,0,0,1-3.18-.89c.78-.58,1.53-1.18,2.26-1.8s1.52-1.31,2.24-2a16.54,16.54,0,0,0,8-.75c5.4-1.9,9.68-6.56,12.1-12a30.87,30.87,0,0,0,2.52-14.52c0-1.07-.16-2.14-.3-3.19a32.9,32.9,0,0,0-1.87-7.12c.31-1.4.58-2.8.83-4.19.21-1.21.41-2.41.57-3.61a30.88,30.88,0,0,1,2.44,4.11,33.23,33.23,0,0,1,3.18,10A38.46,38.46,0,0,1,130,257.28Z"/><path class="cls-3" d="M101.78,278.86c-.7.75-1.36,1.41-2,2-.79.75-1.49,1.36-2.08,1.85a24,24,0,0,1-6.57-3.7,31.29,31.29,0,0,1-10.8-17.6,36.88,36.88,0,0,1-.95-10.26,35.69,35.69,0,0,1,2.13-10,34.48,34.48,0,0,1,4.91-8.94,23.83,23.83,0,0,1,7.25-6.4l.48-.28a1,1,0,0,1,1.35.41,1,1,0,0,1-.19,1.19.64.64,0,0,1-.15.13l0,0a23,23,0,0,0-6.58,6.49,31.22,31.22,0,0,0-4.06,8.4A32.16,32.16,0,0,0,83,251.27a32.83,32.83,0,0,0,1.19,9.14,27.61,27.61,0,0,0,9.71,14.95A19,19,0,0,0,101.78,278.86Z"/><path class="cls-3" d="M120.46,229.35c0,1-.12,2.06-.2,3.06-.09,1.2-.21,2.37-.34,3.52a28.76,28.76,0,0,0-2.77-3.63A22.39,22.39,0,0,0,110,227a17.84,17.84,0,0,0-2.84-1,6,6,0,0,0-.61-.15l-.29-.07a21.7,21.7,0,0,0-5.12-.47h0a1,1,0,0,1-.25-2,19,19,0,0,1,3.54-.48h.24a19.87,19.87,0,0,1,6.61.92,23.72,23.72,0,0,1,9.06,5.43Z"/></g><path id="mouth" class="cls-6" d="M210.25,251.27a43.74,43.74,0,0,1-5.87,3.64c-1,.53-2.14,1.06-3.33,1.55-7.05,2.92-16.63,4.45-23-4.25,0,0-8.9-13.84,13.41-21.75,0,0,3.07,10.42,10.58,16.65a21.59,21.59,0,0,0,2.7,1.92A18.32,18.32,0,0,0,210.25,251.27Z"/><g id="nose"><path class="cls-7" d="M211.85,228l-5.74,1.14S205.25,225.31,211.85,228Z"/><path class="cls-7" d="M222.8,226.32a11.89,11.89,0,0,1-.81,1.85,16.92,16.92,0,0,1-3.39,4.28c5.78-7.2.22-12.54.22-12.54-6.85-5.88-15.18,1.29-15.55,1.62,8.76-10.23,16.1-4.95,16.1-4.95C223.54,219.86,223.79,223.41,222.8,226.32Z"/></g><g id="eyes"><g id="eye_black" data-name="eye black"><path class="cls-7" d="M175.62,169.36a11.8,11.8,0,0,0-1.85-3.3,54.09,54.09,0,0,1,26.89,15.29s-.32-.48-1-1.3l-.3-.39,0,0c-5.25-6.63-26.13-29.33-56.74-15.46l-.56,3.56h0l.15-.06a54.05,54.05,0,0,1,10.92-2.48,13.51,13.51,0,0,0-1.69,2,11.73,11.73,0,0,0,2.64,16.21,13.89,13.89,0,0,0,8.38,2.75,15.09,15.09,0,0,0,2-.14c7.38-1,12.64-7.41,11.72-14.22A11.08,11.08,0,0,0,175.62,169.36ZM169,172.94a1.84,1.84,0,1,1,2-1.74A1.85,1.85,0,0,1,169,172.94Z"/><path class="cls-7" d="M269.3,166.16A24.77,24.77,0,0,0,265,164l-.07,0a22.3,22.3,0,0,0-9.83-1.46c-15,1.1-27.61,16.17-30.64,20l-.29.38-.22.28-.16.22c.24-.24.46-.48.69-.72a61.61,61.61,0,0,1,9.88-8.46,9.13,9.13,0,0,0-.59,1.53,10.24,10.24,0,0,0-.3,1.38,9.91,9.91,0,0,0,2,7.39,12.06,12.06,0,0,0,8,4.54,14,14,0,0,0,1.69.11,12,12,0,0,0,7.13-2.32,9.79,9.79,0,0,0,2-14l-.08-.1a11.57,11.57,0,0,0-4.08-3.28,12.34,12.34,0,0,0-3.39-1.09,34.49,34.49,0,0,1,8-1.26,31.76,31.76,0,0,1,10.09,1.24l.07,0a23.37,23.37,0,0,1,4.87,2l.07,0Zm-19.94,6a1.85,1.85,0,1,1-2,1.74A1.85,1.85,0,0,1,249.36,172.18Z"/></g><g id="eye_white" data-name="eye white"><path id="eye_white-2" data-name="eye white" class="cls-6" d="M202.19,182.86a36.68,36.68,0,0,1-32.09,14.26s-32.07-1.92-28-29.41l.15-.06a54.05,54.05,0,0,1,10.92-2.48,13.51,13.51,0,0,0-1.69,2,11.73,11.73,0,0,0,2.64,16.21,13.89,13.89,0,0,0,8.38,2.75,15.09,15.09,0,0,0,2-.14c7.38-1,12.64-7.41,11.72-14.22a11.08,11.08,0,0,0-.6-2.43,11.8,11.8,0,0,0-1.85-3.3,54.09,54.09,0,0,1,26.89,15.29s-.32-.48-1-1.3c.16.16.3.32.44.48C200.83,181.28,201.51,182.06,202.19,182.86Z"/><path id="eye_white-3" data-name="eye white" class="cls-6" d="M262,193l-.08.06a25.27,25.27,0,0,1-11.67,4.75A19.37,19.37,0,0,1,248,198c-18.4-.32-24.34-12.65-24.83-13.76a61.86,61.86,0,0,1,10.59-8.53,10.24,10.24,0,0,0-.3,1.38,9.91,9.91,0,0,0,2,7.39,12.06,12.06,0,0,0,8,4.54,14,14,0,0,0,1.69.11,12,12,0,0,0,7.13-2.32,9.79,9.79,0,0,0,2-14l-.08-.1a11.57,11.57,0,0,0-4.08-3.28,36,36,0,0,1,4.46-.4,33.93,33.93,0,0,1,10.18,1.26l.07,0a25.13,25.13,0,0,1,5.12,2C270.51,183.1,266.63,189.37,262,193Z"/></g><g id="eye_sparkle" data-name="eye sparkle"><path id="eye_sparkle-2" data-name="eye sparkle" class="cls-6" d="M170.93,171.2a1.84,1.84,0,1,1-1.73-1.94A1.85,1.85,0,0,1,170.93,171.2Z"/><path id="eye_sparkle-3" data-name="eye sparkle" class="cls-6" d="M251.09,174.13a1.84,1.84,0,1,1-1.73-1.95A1.85,1.85,0,0,1,251.09,174.13Z"/></g><g id="eye_shade" data-name="eye shade"><g id="eye_shade-2" data-name="eye shade"><path class="cls-8" d="M153.16,165.17a13.51,13.51,0,0,0-1.69,2,51.46,51.46,0,0,0-9.4,1.53l.17-1.07A54.05,54.05,0,0,1,153.16,165.17Z"/><path class="cls-8" d="M201.59,182.4a72.09,72.09,0,0,0-26-13,11.8,11.8,0,0,0-1.85-3.3,54.09,54.09,0,0,1,26.89,15.29s-.32-.48-1-1.3l-.3-.39.74.87C201.09,181.69,201.59,182.4,201.59,182.4Z"/></g><g id="eye_shade-3" data-name="eye shade"><path class="cls-8" d="M234.31,174.2a9.13,9.13,0,0,0-.59,1.53,61.86,61.86,0,0,0-10.59,8.53l-.09.08.08-.1c.17-.22.62-.78,1.31-1.58A61.61,61.61,0,0,1,234.31,174.2Z"/><path class="cls-8" d="M269.91,172.3a25.13,25.13,0,0,0-5.12-2l-.07,0A33.93,33.93,0,0,0,254.54,169a36,36,0,0,0-4.46.4,12.34,12.34,0,0,0-3.39-1.09,34.49,34.49,0,0,1,8-1.26,31.76,31.76,0,0,1,10.09,1.24l.07,0a23.37,23.37,0,0,1,4.87,2v.06C269.82,171,269.87,171.68,269.91,172.3Z"/></g></g></g><g id="eyebrows"><path class="cls-7" d="M192.45,148.12l-.66.75-.75-.65c-26.39-22.77-50.88-1.67-54.14,1.36l-.34.33-1.39-1.44.05-.05c30-28.66,56.6-5.54,56.86-5.3a3.28,3.28,0,0,1,1.3,2.28A3.94,3.94,0,0,1,192.45,148.12Z"/><path class="cls-7" d="M265.67,154.81l-1,.26-.07,0-.86.23a8.12,8.12,0,0,0-4.45-5,14.28,14.28,0,0,0-4-1.15c-8.49-1.23-19.85,3-20,3.06l-.79.3-.43-.73a4,4,0,0,1-.47-2.79,2.52,2.52,0,0,1,1.28-1.54l.22-.08c.69-.19,11.37-2.95,20-1.3,3.83.73,7.25,2.33,9.23,5.41l.08.13,0,.06.12.21a10.67,10.67,0,0,1,1,2.36Z"/></g><path id="hair" class="cls-7" d="M254.64,79.09c-15.44-13.72-43.94-16-43.94-16-31.84-4-38.89-10.36-38.89-10.36,9.93-15.19,3.68-32.8,3.68-32.8C166.4-2.2,144.25.07,144.25.07c-24.14,1.79-26.12,16.47-26.12,16.47-36.41-1.3-40.84,15.07-40.84,15.07-24.48,14.47-8.57,27.53-8.57,27.53C62.16,85.67,88.59,89.81,88.59,89.81,48.84,130.13,60.2,179.54,60.2,179.54c3.4,25,30.67,43.74,30.67,43.74.92.86,1.86,1.69,2.82,2.48l.48-.28a1,1,0,0,1,1.35.41,1,1,0,0,1-.19,1.19,90.69,90.69,0,0,0,16.2,10s8.11,9.86,3.78,2.53l0,0q-4.32-6-8.55-13c-6.16,8.16-14.33-5.44-14.33-5.44-14.62-15.83-7.66-26.27-7.66-26.27a6.67,6.67,0,0,1,5.09-2.26c4.76-.12,10.33,3.39,12.79,5.14l.11.08,1.29.81,4.68-1.33a150.42,150.42,0,0,1,1.91-37.22,142,142,0,0,0,4.58,23.33c4.62,18.11,5.94,33.3,5.26,45.94,0,1-.12,2.06-.2,3.06-.09,1.2-.21,2.37-.34,3.52-.33,2.87-.76,5.58-1.28,8.16C115,262,107.29,273,101.78,278.86c-.7.75-1.36,1.41-2,2-.79.75-1.49,1.36-2.08,1.85l-.44.36c.16-.11.31-.23.46-.35.78-.58,1.53-1.18,2.26-1.8s1.52-1.31,2.24-2c9.75-9,15.57-20.25,18.92-31.65.58-2,1.08-3.94,1.52-5.91.31-1.4.58-2.8.83-4.19.21-1.21.41-2.41.57-3.61a132.55,132.55,0,0,0-1.48-43.68c-5.7-26.47-5.18-45.16-1.84-58.34q.1-.47.24-.93c0,.18,0,.38,0,.57,9-15.45,19.53-20.31,19.53-20.31,40.74-18.2,79,10.19,79,10.19,14.5-5.25,25.3-3.4,25.3-3.4,9,.29,13.58,8,14.12,8.92a.08.08,0,0,1,0,0l0,.05.1.27s0,.09.05.13.11.33.17.5a100.31,100.31,0,0,1,4.85,22.24.13.13,0,0,1,0,.06c.08.48.14.89.19,1.22l0,.2c0,.16.05.3.07.41l.12.21c7.09-8.37,9.24-24.35,9.24-24.35C276,94.35,254.64,79.09,254.64,79.09ZM75.26,55.49C77.11,77.11,95.3,79,95.3,79,71.84,82.91,75.26,55.49,75.26,55.49ZM63.94,147.37c-3.55,35.11,19,64.07,19,64.07C57.3,192,63.5,150.13,63.94,147.37ZM92.5,184.56a63.08,63.08,0,0,1-9.7-23C76.55,130,97.65,103.42,98.23,102.7A126.8,126.8,0,0,0,89,129a0,0,0,0,0,0,0C81.4,162.07,92,183.58,92.5,184.56ZM84.23,31c13.36,11.05,25.22,7.57,25.82,7.39C95.55,48.62,84.23,31,84.23,31Zm45.23,66.77c-.39.21-.86.47-1.4.81-.22.13-.45.27-.69.43-.59.38-1.25.83-2,1.35l-.43.33-.22.16-.33.26-.34.27-.45.37c-.2.16-.4.33-.61.52-.42.35-.85.74-1.29,1.15l-.48.46-.25.24-.53.53c-.24.23-.47.48-.7.73s-.34.35-.5.54-.52.57-.77.87-.33.38-.49.58-.33.39-.49.6l-.3.38c-.15.18-.29.37-.43.56l-.26.34-.23.31-.12.17a.76.76,0,0,1-.08.11c-.1.13-.19.27-.29.41a3.62,3.62,0,0,0-.22.32c-.16.22-.31.45-.46.69l-.27.41c-.17.26-.34.53-.5.8l-.19.32a1.06,1.06,0,0,0-.12.2l0,.06,0,0a.6.6,0,0,0-.09.15.43.43,0,0,0,0,.07l0,0c0,.07-.09.15-.14.23s-.19.34-.28.51l-.41.76a48.8,48.8,0,0,0-2.3,5.07q-.24.61-.45,1.23c-.15.41-.29.82-.42,1.24-.28.86-.53,1.71-.76,2.58-.11.39-.21.78-.3,1.18-.15.58-.28,1.17-.4,1.76s-.2,1-.28,1.47a1.16,1.16,0,0,0,0,.18.43.43,0,0,0,0,.11s0,.05,0,.08a.15.15,0,0,0,0,.07.77.77,0,0,0,0,.15l-.18,1.17c-.12.85-.22,1.71-.31,2.56,0,.15,0,.3,0,.46l0,.31a.76.76,0,0,0,0,.15c0,.31-.05.62-.07.94,0,.54-.07,1.07-.09,1.61s0,.85,0,1.28h0s0,0,0,0v.08c0,1.07,0,2.17,0,3.3v0q0,.73.06,1.5c0,.3,0,.6,0,.9,0,.11,0,.22,0,.34a1,1,0,0,0,0,.17c0,.32,0,.65.07,1,0,.66.11,1.32.18,2v0s0,0,0,0c0,.32.07.64.11,1s.07.63.11,1q0,.09,0,.21l0,.23c.08.61.17,1.24.27,1.87.08.46.15.94.24,1.41l.06.34c0,.25.08.49.13.74a.59.59,0,0,1,0,.13c0,.21.08.41.13.62s0,.26.08.4v0c0,.24.09.48.14.73a.05.05,0,0,1,0,0l0-.06a.14.14,0,0,0,0-.06l-.08-.22,0-.06a1.21,1.21,0,0,0,0-.14l-.13-.35a1.59,1.59,0,0,0-.07-.2c0-.07,0-.15-.08-.22-.1-.25-.19-.5-.28-.75-.17-.46-.32-.91-.47-1.37-.08-.23-.14-.45-.21-.67l-.21-.68s0,0,0-.05q-.33-1.12-.6-2.28c-.09-.34-.17-.69-.24-1s-.17-.78-.24-1.17-.15-.79-.22-1.19-.13-.79-.19-1.19c-.12-.79-.22-1.59-.31-2.39s-.15-1.6-.2-2.4a.49.49,0,0,1,0-.12c0-.15,0-.31,0-.47s0-.4,0-.6,0-.32,0-.48l0-.54a2.44,2.44,0,0,0,0-.27v-.09c0-.11,0-.22,0-.33v-.16c0-.23,0-.47,0-.71V136c0-.18,0-.38,0-.57s0-.44,0-.67,0-.65,0-1l0-.67c0-.29,0-.58,0-.88s0-.66.08-1c0-.19,0-.38,0-.57q.08-.76.18-1.53c0-.3.08-.61.13-.93,0-.16.06-.32.08-.48s.09-.52.14-.79l.15-.79c0-.17.07-.35.11-.53.07-.33.15-.66.23-1s.16-.67.26-1l.12-.45c0-.18.1-.36.16-.55s.2-.66.31-1,.14-.43.22-.65c0,0,0,0,0,0,.13-.37.27-.74.41-1.11.21-.57.45-1.13.7-1.7.11-.26.23-.52.35-.78s.33-.7.51-1,.39-.76.6-1.14.38-.68.58-1c.11-.18.21-.36.33-.54s.22-.37.35-.55c.21-.34.43-.68.67-1l0-.07c.25-.36.5-.72.78-1.08l.22-.3c.12-.15.23-.31.36-.46s.15-.19.23-.29h0c.1-.13.21-.27.33-.4a4.47,4.47,0,0,1,.29-.35h0c.15-.19.32-.38.49-.57l.3-.34c.16-.18.32-.36.5-.54s.55-.58.85-.87l.42-.41a.87.87,0,0,1,.16-.17l.53-.49c.23-.22.46-.42.69-.63l.64-.55c.21-.19.43-.37.66-.55l.22-.18q.23-.2.45-.36c.36-.28.72-.56,1.1-.83.2-.16.4-.3.61-.44a45.28,45.28,0,0,1,4.43-2.79l.86-.47c.73-.4,1.49-.78,2.28-1.16l.05,0,.18-.08a1.24,1.24,0,0,1,.2-.1ZM148.3,57.6c1.31-6.59-2.64-6.33-2.64-6.33-1.85,7.39-12.13,12.92-12.13,12.92,3.17-4.22.53-11.86-.26-8.44a3.19,3.19,0,0,1-.29.78c-1.49,3-7.09,4.76-7.09,4.76C136.7,46,108,27.28,108,27.28,133.53,24.38,138,55.49,138,55.49c9.59-9.07,4.15-23.75,4-24.25,8.22,6.53,6.89,9.51,6.62,10,10.74-13.43-.3-30.52-.3-30.52C171,29.92,148.3,57.6,148.3,57.6Zm62.24,48.84s.6-8.74-2.58-15.82c-.17-.37-.34-.73-.53-1.08a13.45,13.45,0,0,0-9.27-7.45c-16.8-3.58-19.6-8-19.76-8.23,7.06,6.09,16.31,4.86,20,5.72,7.23,1.65,10.68,6,12.2,10.78.09.29.18.58.25.86C212.86,98.56,210.54,106.44,210.54,106.44ZM266.9,137.7s2.64-55.7-36.33-60.33c-40.58-4.8-49.45-14.56-49.95-15.16,7.72,5.49,24.87,11.15,42.69,11C246,73,254.79,83.76,254.79,83.76,275.93,106.88,266.9,137.7,266.9,137.7Z"/><g id="hair_highlights" data-name="hair highlights"><path class="cls-9" d="M266.9,137.7s2.64-55.7-36.33-60.33c-40.58-4.8-49.45-14.56-49.95-15.16,7.72,5.49,24.87,11.15,42.69,11C246,73,254.79,83.76,254.79,83.76,275.93,106.88,266.9,137.7,266.9,137.7Z"/><path class="cls-9" d="M92.5,184.56a63.08,63.08,0,0,1-9.7-23C76.55,130,97.65,103.42,98.23,102.7A126.8,126.8,0,0,0,89,129a0,0,0,0,0,0,0C81.4,162.07,92,183.58,92.5,184.56Z"/><path class="cls-9" d="M210.54,106.44s.6-8.74-2.58-15.82c-.17-.37-.34-.73-.53-1.08a13.45,13.45,0,0,0-9.27-7.45c-16.8-3.58-19.6-8-19.76-8.23,7.06,6.09,16.31,4.86,20,5.72,7.23,1.65,10.68,6,12.2,10.78.09.29.18.58.25.86C212.86,98.56,210.54,106.44,210.54,106.44Z"/><path class="cls-9" d="M129.88,97.51l-.42.23c-.39.21-.86.47-1.4.81-.22.13-.45.27-.69.43-.59.38-1.25.83-2,1.35l-.43.32-.22.17-.33.26-.34.27-.45.37c-.2.16-.4.33-.61.52-.42.35-.85.74-1.29,1.15l-.48.46-.25.24-.53.53c-.24.23-.47.48-.7.73s-.34.35-.5.54-.52.57-.77.87-.33.38-.49.58-.33.39-.49.6l-.3.38c-.15.18-.29.37-.43.56l-.48.65c-.24.34-.49.67-.72,1s-.31.45-.46.69l-.27.41c-.4.61-.78,1.25-1.16,1.91-.18.31-.35.62-.52.94-.06.11-.12.22-.17.33s-.28.5-.4.75-.38.75-.56,1.14-.27.58-.4.87l-.39.89c-.35.82-.69,1.68-1,2.57l-.12.34-.15.44-.15.46c-.13.38-.25.77-.36,1.16s-.23.78-.34,1.18l-.21.8c-.11.43-.22.87-.32,1.32-.06.25-.12.5-.17.75s-.1.48-.14.72-.14.69-.2,1a2.5,2.5,0,0,0-.06.38s0,.05,0,.08a.15.15,0,0,0,0,.07.77.77,0,0,0,0,.15l-.06.32c0,.12,0,.23,0,.35s-.05.33-.07.5-.1.64-.14,1l0,.22-.06.55,0,.26c0,.18,0,.37,0,.56s0,.3,0,.46l0,.31a.76.76,0,0,0,0,.15c0,.31-.05.62-.07.94,0,.54-.07,1.07-.09,1.61s0,.85,0,1.28h0v.08c0,1.07,0,2.17,0,3.3v0q0,.73.06,1.5c0,.3,0,.6,0,.9,0,.11,0,.22,0,.34a1,1,0,0,0,0,.17c0,.32,0,.65.07,1,0,.66.11,1.32.18,2v0s0,0,0,0c0,.32.07.64.11,1s.07.63.11,1q0,.09,0,.21l0,.23c.08.61.17,1.24.27,1.87.08.46.15.94.24,1.41l.06.34c0,.25.08.49.13.74a.59.59,0,0,1,0,.13c0,.21.08.41.13.62s0,.26.08.4v0c0,.24.09.48.14.73a.05.05,0,0,1,0,0l0-.06v0l0,0-.08-.22,0-.06a1.21,1.21,0,0,0,0-.14l-.13-.35c0-.13-.1-.27-.15-.42s-.1-.28-.15-.43-.1-.31-.16-.47a.43.43,0,0,1,0-.05l-.09-.25c-.11-.35-.23-.73-.35-1.14,0-.05,0-.09,0-.14l-.09-.3-.31-1.08c0-.06,0-.12,0-.18s0-.2-.07-.3l0-.1c-.37-1.43-.74-3.07-1.07-4.88,0-.14,0-.29-.07-.43,0-.29-.1-.59-.14-.88s0-.3-.07-.45,0-.17,0-.26c0-.36-.1-.74-.15-1.12-.07-.61-.14-1.22-.2-1.85a.57.57,0,0,1,0-.13,0,0,0,0,0,0,0h0v-.07s0-.05,0-.08l-.09-1.16c0-.12,0-.25,0-.38a1.64,1.64,0,0,1,0-.22c0-.16,0-.32,0-.48l0-.54a2.44,2.44,0,0,0,0-.27v-.09c0-.11,0-.22,0-.33v-.16c0-.23,0-.47,0-.71s0-.43,0-.65,0-.44,0-.67,0-.65,0-1l0-.67c0-.29,0-.58,0-.88s0-.66.08-1c0-.19,0-.38,0-.57q.08-.76.18-1.53c0-.3.08-.61.13-.93,0-.16.06-.32.08-.48s.09-.52.14-.79l.15-.79c0-.17.07-.35.11-.53.07-.33.15-.66.23-1s.17-.67.26-1l.12-.45c0-.18.1-.36.16-.55s.2-.66.31-1,.14-.43.22-.65c0,0,0,0,0,0,.13-.37.27-.74.41-1.11.21-.57.45-1.13.7-1.7.11-.26.23-.52.35-.78s.33-.7.51-1,.39-.76.6-1.14.38-.68.58-1c.11-.18.21-.36.33-.54s.23-.37.35-.55c.22-.34.44-.68.67-1l0-.07q.38-.54.78-1.08l.22-.3c.12-.15.23-.31.36-.46s.15-.19.23-.29h0c.1-.13.21-.27.33-.4a4.47,4.47,0,0,1,.29-.35h0c.15-.19.32-.38.49-.57l.3-.34c.16-.18.32-.36.5-.54l.85-.87c.19-.2.38-.39.58-.58l.53-.49c.23-.22.46-.42.69-.63l.64-.55c.21-.19.43-.37.66-.55l.22-.18q.23-.2.45-.36c.36-.28.72-.56,1.1-.83.2-.15.4-.3.61-.44a45.28,45.28,0,0,1,4.43-2.79l.86-.47c.73-.4,1.49-.78,2.28-1.16l.05,0,.18-.08A1.24,1.24,0,0,1,129.88,97.51Z"/><path class="cls-9" d="M148.3,57.6c1.31-6.59-2.64-6.33-2.64-6.33-1.85,7.39-12.13,12.92-12.13,12.92,3.17-4.22.53-11.86-.26-8.44a3.19,3.19,0,0,1-.29.78c-1.49,3-7.09,4.76-7.09,4.76C136.7,46,108,27.28,108,27.28,133.53,24.38,138,55.49,138,55.49c9.59-9.07,4.15-23.75,4-24.25,8.22,6.53,6.89,9.51,6.62,10,10.74-13.43-.3-30.52-.3-30.52C171,29.92,148.3,57.6,148.3,57.6Z"/><path class="cls-9" d="M95.3,79c-23.46,4-20-23.47-20-23.47C77.11,77.11,95.3,79,95.3,79Z"/><path class="cls-9" d="M110.05,38.36C95.55,48.62,84.23,31,84.23,31,97.59,42,109.45,38.54,110.05,38.36Z"/><path class="cls-9" d="M82.94,211.44C57.3,192,63.5,150.13,63.94,147.37,60.39,182.48,82.94,211.44,82.94,211.44Z"/></g></svg>