<svg id="Layer_1" data-name="Layer 1" xmlns="http://www.w3.org/2000/svg" viewBox="0 0 310.96 364.63"><defs><style>.cls-1{fill:none;}.cls-2{fill:#821a1a;}.cls-3{fill:#640e0e;}.cls-4{fill:#fbaf33;}.cls-5{fill:#c79763;}.cls-6{fill:#b77e45;}.cls-7{fill:#fff;}.cls-8{fill:#010101;}.cls-9{fill:#cccccb;}.cls-10{fill:#053a59;}</style></defs><rect class="cls-1" width="310.96" height="364.63"/><path id="shirt" class="cls-2" d="M274.87,305.19a.17.17,0,0,1,0-.07,116.37,116.37,0,0,0-1.61-13.24,9.9,9.9,0,0,1,.76,1.66c-4.09-12.58-12.5-22.41-28.2-13.83h0c.7-.24,3.59-1,6,2.18h0c3.2,4.13,5.63,14.9,1.37,42.12,0,0,1.66-36.79-7.57-44.25l-2.07-.6-.37-.09-54.91-15.54v.24c.12,6.21-2.22,10.36-5.42,13.13a1.68,1.68,0,0,1-.21.18l-.32.26,0,0-.25.19-.27.2c-.18.14-.37.27-.56.39l-.57.38c-.48.31-1,.59-1.47.85s-1,.5-1.51.72h0c-.4.18-.8.34-1.2.49l-.69.24-.49.17c-.27.08-.53.17-.8.24-.56.17-1.09.3-1.61.42l-.77.17-.14,0c-.41.09-.79.15-1.17.22l-.53.08-.65.09c-.62.09-1.18.14-1.64.18l-.71.05-.88,0c-25.66.46-28.94-20.88-29.18-21.54h0s0,0,0,0-3,1.08-9.49,3.14l-1.14.37c-10.5,3.42-25.4,8-41.38,12.07l-.22.06q-4.5,1.23-9.4,2.54l-.27-.13c-3.22-1.45-33.77-14.2-39.34,23,0,0-5.72,23.55-3.91,61.5l178.1.31h61.49C272.06,361.53,276.66,331.27,274.87,305.19ZM83.22,323.55s1.65-36.8-7.58-44.26C75.64,279.29,91.19,272.48,83.22,323.55Zm83.13-22.67c-39.83,0-42.82-24.92-43.27-34.71.24,1.79,4.75,30.35,42.89,31.55.43,0,34-.09,35.72-29.64C201.81,269.13,205,300.88,166.35,300.88Z"/><g id="shirt_shade" data-name="shirt shade"><path class="cls-3" d="M83.22,323.55s1.65-36.8-7.58-44.26C75.64,279.29,91.19,272.48,83.22,323.55Z"/><path class="cls-3" d="M166.35,300.88c-39.83,0-42.82-24.92-43.27-34.71.24,1.79,4.75,30.35,42.89,31.55.43,0,34-.09,35.72-29.64C201.81,269.13,205,300.88,166.35,300.88Z"/><path class="cls-3" d="M253.26,324s1.66-36.79-7.57-44.25l0,0,.12,0h0c.7-.24,3.59-1,6,2.18h0C255.09,286,257.52,296.8,253.26,324Z"/><path class="cls-3" d="M277.36,358.16a.37.37,0,0,1,0,.11c-.06,1.13-.12,2.28-.19,3.45,0,.58-.08,1.17-.11,1.77l0,.4s0,.08,0,.13h-5.35v0a1,1,0,0,0,0-.12c.37-2.36,5-32.62,3.18-58.7a.17.17,0,0,1,0-.07,116.37,116.37,0,0,0-1.61-13.24,9.9,9.9,0,0,1,.76,1.66A46.43,46.43,0,0,1,276.1,302c.17.93.33,1.94.47,3,.05.27.08.54.12.82.11.86.22,1.78.32,2.73C278.11,318.63,278.68,334.24,277.36,358.16Z"/></g><path id="earring" class="cls-4" d="M246.76,223.64a30.59,30.59,0,0,1-2.2,8.55,26.28,26.28,0,0,1-4.78,7.53,20.81,20.81,0,0,1-7.46,5.15,18.13,18.13,0,0,1-9,1.1,18.43,18.43,0,0,1-7.34-2.66h0c-.34-.21-.68-.44-1-.67-.51-.36-1-.73-1.49-1.14.43-.37.86-.77,1.3-1.17s.86-.81,1.3-1.24c.29.22.59.43.89.63a17.83,17.83,0,0,0,2,1.13h0a15,15,0,0,0,4.85,1.44,14.49,14.49,0,0,0,7.16-1c4.55-1.87,8.06-6,10-10.66a26.94,26.94,0,0,0,1.86-7.42,30.55,30.55,0,0,0-.26-7.7,26.69,26.69,0,0,0-1.59-5.82.09.09,0,0,0,0-.06,24.91,24.91,0,0,0-3.34-6c.24-.65.47-1.32.7-2s.41-1.22.61-1.85a24.8,24.8,0,0,1,4.13,5.33s0,0,0,.06c.25.42.47.84.7,1.26a28.27,28.27,0,0,1,2.74,8.37A31.91,31.91,0,0,1,246.76,223.64Z"/><g id="skin"><path class="cls-5" d="M223.54,157.19l.25-.32c2.59-3.31,13.43-16.21,26.22-17.15.23-3.87.32-7.71.18-11.36-7.26-1.05-17,2.58-17.1,2.62l-.67.26-.37-.63a3.39,3.39,0,0,1-.4-2.38,2.15,2.15,0,0,1,1.09-1.32l.19-.07c.59-.16,9.73-2.53,17.12-1.11-.75-10.58-3.64-19-10.65-20.35-8.28-1.62-19.63.18-19.63.18s-50.25-24.5-84.54,8.51c0-.38,0-.74,0-1.11l-.18.31c-2.86,11.28-3.3,27.27,1.57,49.92a113.2,113.2,0,0,1,1.27,37.38,26.52,26.52,0,0,1,2.09,3.52,28.29,28.29,0,0,1,2.72,8.57,32.6,32.6,0,0,1,.24,8.2c2.56,2.66,5.12,5.09,7.65,7.28,2.31,11.26-7.27,30.27-8.81,31.23,0,0-1.64.59-4.56,1.6.24.66,3.52,22,29.18,21.54l.88,0,.71-.05c.46,0,1-.09,1.64-.18l.65-.09.53-.08c.38-.07.76-.13,1.17-.22l.14,0,.77-.17c.52-.12,1-.25,1.61-.42.27-.07.53-.16.8-.24l.49-.17.69-.24,1.2-.49h0c.51-.22,1-.46,1.51-.72s1-.54,1.47-.85l.57-.38c.19-.12.38-.25.56-.39l.27-.2.26-.21h0l.46-.38.45-.41.3-.28a15,15,0,0,0,3.25-4.62c.08-.19.17-.38.25-.59s.14-.35.2-.53.11-.32.16-.48a5.58,5.58,0,0,0,.18-.58c.05-.18.1-.36.14-.54a.32.32,0,0,0,0-.14c-.76,1.8-8.58.86-12.15-.82,0,0-7.73-22.7-19.7-35.51-.49-.52-1-1-1.48-1.53.62.54,10.45,8.8,26.79,15.12l1.72.55c10.4,3.19,17.47,2.86,18.19,2.83h0c.38-.15,5.48-2.07,12.17-7.93.43-.37.86-.77,1.3-1.17s.86-.81,1.3-1.24c7-6.88,15.24-18,21.55-35.39.24-.65.47-1.32.7-2s.41-1.22.61-1.85a160.28,160.28,0,0,0,5.67-23.39s.58-2.47,1.38-6.48a17,17,0,0,1-1.95.18c-15.74-.27-20.83-10.83-21.24-11.78l-.08.07.07-.08,0-.05c.23-.3.45-.59.69-.88ZM148.9,128.7l-.29.28-1.19-1.23,0,0c25.67-24.52,48.44-4.74,48.66-4.53a2.86,2.86,0,0,1,1.12,2,3.4,3.4,0,0,1-.8,2.33l-.56.64-.65-.56C172.65,108.05,151.69,126.1,148.9,128.7Zm28.41,40.68s-27.44-1.64-24-25.17h0l.48-3.05c26.19-11.87,44.06,7.56,48.55,13.23l0,0c.23.26.43.51.63.74.59.64,1.17,1.31,1.76,2A31.41,31.41,0,0,1,177.31,169.38Zm29.34,49.45c-.87.46-1.83.91-2.85,1.33-6,2.5-14.23,3.81-19.71-3.64,0,0-7.61-11.84,11.48-18.61,0,0,2.62,8.92,9.05,14.25a18.89,18.89,0,0,0,2.31,1.64,15.74,15.74,0,0,0,4.74,1.92A37.06,37.06,0,0,1,206.65,218.83Zm1.48-22.07s-.74-3.26,4.91-1Zm14.28-2.39a10.2,10.2,0,0,1-.69,1.58,14.37,14.37,0,0,1-2.9,3.66c5-6.16.19-10.73.19-10.73-5.87-5-13,1.11-13.31,1.39,7.5-8.76,13.78-4.24,13.78-4.24C223.05,188.84,223.26,191.88,222.41,194.37Z"/><path class="cls-5" d="M130.33,157.65a121.78,121.78,0,0,1-3.92-20,128.7,128.7,0,0,0-1.63,31.85l-4,1.14-1.1-.69-.09-.07c-2.11-1.5-6.88-4.5-11-4.4a5.72,5.72,0,0,0-4.36,1.94s-6,8.93,6.56,22.48c0,0,7,11.63,12.26,4.65,2.41,4,4.85,7.7,7.32,11.14h0q1.42,2,2.85,3.84c.44-2.2.81-4.52,1.09-7a24.67,24.67,0,0,0-2.37-3.1,19,19,0,0,0-6.12-4.52,15,15,0,0,0-2.43-.88,3,3,0,0,0-.52-.13,1,1,0,0,0-.25-.06,18.66,18.66,0,0,0-4.38-.41h0a.85.85,0,0,1-.88-.83.87.87,0,0,1,.66-.86,16.24,16.24,0,0,1,3-.41h.21a16.09,16.09,0,0,1,3.46.25,16.28,16.28,0,0,1,2.19.54,20.29,20.29,0,0,1,7.76,4.64l.14.14C135.42,186.14,134.29,173.14,130.33,157.65ZM119,187.92h0a6.45,6.45,0,0,1-3.78-.57,4.23,4.23,0,0,1-2.23-5.29,5.31,5.31,0,0,1,1.71-2.23,3.58,3.58,0,0,1,1.93-.75,7.3,7.3,0,0,0-4.53-4.86,11.55,11.55,0,0,0-2.28-.6,10.64,10.64,0,0,0-2-.12,7.05,7.05,0,0,1,1.6-.45,7.91,7.91,0,0,1,2.11-.09c2.33.18,5.24,1.5,7.11,6.17,0,0-2.61,1.6-2.42,3.75h0c.35.67.68,1.3,1,1.91a3.29,3.29,0,0,0,4.19-.3l.62.62A4.13,4.13,0,0,1,119,187.92Z"/></g><g id="skin_shade" data-name="skin shade"><path class="cls-6" d="M257.94,130.36c-1.69-2.64-4.62-4-7.89-4.63-.75-10.58-3.64-19-10.65-20.35-8.28-1.62-19.63.18-19.63.18s-50.25-24.5-84.54,8.51c0-.38,0-.74,0-1.11C143,99.74,152,95.58,152,95.58,186.85,80,219.6,104.3,219.6,104.3c12.41-4.49,21.65-2.91,21.65-2.91,7.67.25,11.62,6.81,12.08,7.63a.08.08,0,0,1,0,0s0,0,0,0,.06.15.08.23a.49.49,0,0,1,0,.11l.15.43a86.19,86.19,0,0,1,4.15,19,.11.11,0,0,1,0,0C257.85,129.41,257.9,129.88,257.94,130.36Z"/><path class="cls-6" d="M258.42,141a18.92,18.92,0,0,0-8.41-1.25c.23-3.87.32-7.71.18-11.36a12.22,12.22,0,0,1,3.45,1,6.92,6.92,0,0,1,3.81,4.26l.73-.2Q258.44,137,258.42,141Z"/><path class="cls-6" d="M255.87,165.9A176.45,176.45,0,0,1,243,205.17l-.1.23s-.3.71-.89,1.94c-.3.63-.66,1.41-1.11,2.31-3.52,7.16-11.53,21.8-22,31.19-.49.43-1,.86-1.49,1.28s-1,.8-1.48,1.18a39.4,39.4,0,0,1-3.43,2.35l-.73.42c-.67.38-1.35.74-2,1.06a23.91,23.91,0,0,1-4.19,1.57l-1.07.27a20.6,20.6,0,0,1-2.06.35l-.41,0c-.24,0-.49,0-.73.06h0c.38-.15,5.48-2.07,12.17-7.93.43-.37.86-.77,1.3-1.17s.86-.81,1.3-1.24c7-6.88,15.24-18,21.55-35.39.24-.65.47-1.32.7-2s.41-1.22.61-1.85a160.28,160.28,0,0,0,5.67-23.39s.58-2.47,1.38-6.48A21.55,21.55,0,0,0,255.87,165.9Z"/><path class="cls-6" d="M188.34,264.35c0,.16,0,.34,0,.55s0,.29,0,.43a0,0,0,0,1,0,0,3,3,0,0,0,0,.31c0,.05,0,.1,0,.15a.06.06,0,0,1,0,0,.45.45,0,0,1,0,.11.22.22,0,0,1,0,.08.31.31,0,0,1,0,.09c0,.07,0,.15,0,.22l-.06.49c0,.11,0,.22,0,.34-.07.43-.15.92-.25,1.45h0a.78.78,0,0,1-.05.14c-.76,1.8-8.58.86-12.15-.82,0,0-7.73-22.7-19.7-35.51-.49-.52-1-1-1.48-1.53.62.54,10.45,8.8,26.79,15.12.55.21,1.11.43,1.68.63l.09,0a11.75,11.75,0,0,0-.58,1.41l-.08.24a15.2,15.2,0,0,0-.27,9.6c0,.07,0,.13.07.2l.17.41a11.11,11.11,0,0,0,1.72,2.85s1.07.67,2.19,1.28l0,0a9.5,9.5,0,0,0,2,.86s0,0,0,.13a.31.31,0,0,1,0,.1,1.38,1.38,0,0,1,0,.22.91.91,0,0,1,0,.17A.62.62,0,0,1,188.34,264.35Z"/><path class="cls-6" d="M122.07,185.12a4.13,4.13,0,0,1-3,2.8h0a6.45,6.45,0,0,1-3.78-.57,4.23,4.23,0,0,1-2.23-5.29,5.31,5.31,0,0,1,1.71-2.23,3.58,3.58,0,0,1,1.93-.75,7.3,7.3,0,0,0-4.53-4.86,11.55,11.55,0,0,0-2.28-.6,10.64,10.64,0,0,0-2-.12,7.05,7.05,0,0,1,1.6-.45,7.91,7.91,0,0,1,2.11-.09c2.33.18,5.24,1.5,7.11,6.17,0,0-2.61,1.6-2.42,3.75h0c.35.67.68,1.3,1,1.91a3.29,3.29,0,0,0,4.19-.3Z"/></g><g id="rt_earring" data-name="rt earring"><path class="cls-4" d="M143,220.86a29.74,29.74,0,0,1-2.51,9.45,25.71,25.71,0,0,1-5.15,7.54,20.41,20.41,0,0,1-7.87,4.93,18.41,18.41,0,0,1-9.34.61,16.89,16.89,0,0,1-2.72-.77c.67-.49,1.31-1,1.93-1.54s1.31-1.12,1.92-1.69a14.18,14.18,0,0,0,6.84-.64c4.62-1.63,8.28-5.62,10.35-10.25a26.38,26.38,0,0,0,2.16-12.43c0-.92-.14-1.83-.26-2.73a27.74,27.74,0,0,0-1.6-6.09c.27-1.2.5-2.4.71-3.59.18-1,.35-2.06.49-3.09a26.52,26.52,0,0,1,2.09,3.52,28.29,28.29,0,0,1,2.72,8.57A32.6,32.6,0,0,1,143,220.86Z"/><path class="cls-4" d="M118.85,239.33c-.6.64-1.17,1.21-1.7,1.7s-1.27,1.17-1.78,1.59a20.74,20.74,0,0,1-5.62-3.17,26.72,26.72,0,0,1-9.24-15.06,31.27,31.27,0,0,1-.81-8.78,30.2,30.2,0,0,1,1.82-8.59,29.4,29.4,0,0,1,4.2-7.65,20.26,20.26,0,0,1,6.2-5.48l.42-.24a.85.85,0,0,1,1,1.37.69.69,0,0,1-.13.11l0,0a19.61,19.61,0,0,0-5.64,5.55,27,27,0,0,0-3.47,7.19,27.55,27.55,0,0,0-1.25,7.83,27.9,27.9,0,0,0,1,7.82,23.6,23.6,0,0,0,8.31,12.79A16.25,16.25,0,0,0,118.85,239.33Z"/><path class="cls-4" d="M134.83,197c0,.89-.1,1.76-.17,2.62-.07,1-.18,2-.29,3a24.67,24.67,0,0,0-2.37-3.1,19,19,0,0,0-6.12-4.52,15,15,0,0,0-2.43-.88,3,3,0,0,0-.52-.13,1,1,0,0,0-.25-.06,18.66,18.66,0,0,0-4.38-.41h0a.85.85,0,0,1-.88-.83.87.87,0,0,1,.66-.86,16.24,16.24,0,0,1,3-.41h.21a16.09,16.09,0,0,1,3.46.25,16.28,16.28,0,0,1,2.19.54,20.29,20.29,0,0,1,7.76,4.64Z"/></g><path id="mouth" class="cls-7" d="M211.67,215.72a37.06,37.06,0,0,1-5,3.11c-.87.46-1.83.91-2.85,1.33-6,2.5-14.23,3.81-19.71-3.64,0,0-7.61-11.84,11.48-18.61,0,0,2.62,8.92,9.05,14.25a18.89,18.89,0,0,0,2.31,1.64A15.74,15.74,0,0,0,211.67,215.72Z"/><g id="nose"><path class="cls-8" d="M213,195.79l-4.91,1S207.39,193.5,213,195.79Z"/><path class="cls-8" d="M222.41,194.37a10.2,10.2,0,0,1-.69,1.58,14.37,14.37,0,0,1-2.9,3.66c5-6.16.19-10.73.19-10.73-5.87-5-13,1.11-13.31,1.39,7.5-8.76,13.78-4.24,13.78-4.24C223.05,188.84,223.26,191.88,222.41,194.37Z"/></g><g id="eyes"><g id="eye_black" data-name="eye black"><path class="cls-8" d="M182,145.62a10,10,0,0,0-1.59-2.82,46.32,46.32,0,0,1,23,13.08s-.28-.41-.83-1.11l-.25-.33,0,0c-4.49-5.67-22.36-25.1-48.55-13.23l-.48,3.05h0l.13-.05a46.18,46.18,0,0,1,9.35-2.12,11.37,11.37,0,0,0-1.45,1.73,10,10,0,0,0,2.26,13.87A11.89,11.89,0,0,0,170.8,160a12.43,12.43,0,0,0,1.72-.12c6.32-.88,10.82-6.34,10-12.17A9.17,9.17,0,0,0,182,145.62Zm-5.68,3.07a1.58,1.58,0,1,1,.18-3.15A1.56,1.56,0,0,1,178,147.2,1.58,1.58,0,0,1,176.36,148.69Z"/><path class="cls-8" d="M262.21,142.88a21.82,21.82,0,0,0-3.73-1.89l-.06,0a18.92,18.92,0,0,0-8.41-1.25c-12.79.94-23.63,13.84-26.22,17.15l-.25.32a1.83,1.83,0,0,1-.19.24,1.64,1.64,0,0,1-.13.19c.2-.2.39-.41.59-.62a52.13,52.13,0,0,1,8.45-7.23,8.13,8.13,0,0,0-.5,1.3,9,9,0,0,0-.26,1.19,8.48,8.48,0,0,0,1.71,6.32,10.29,10.29,0,0,0,6.82,3.88,12,12,0,0,0,1.45.1,10.24,10.24,0,0,0,6.1-2,8.58,8.58,0,0,0,3.45-5.68,8.46,8.46,0,0,0-1.71-6.32l-.07-.09a10,10,0,0,0-3.49-2.81,10.69,10.69,0,0,0-2.9-.93,29.9,29.9,0,0,1,6.86-1.08,27.56,27.56,0,0,1,8.64,1.06l.06,0a19.88,19.88,0,0,1,4.16,1.7l.06,0ZM245.14,148a1.58,1.58,0,1,1-1.67,1.49A1.57,1.57,0,0,1,245.14,148Z"/></g><g id="eye_white" data-name="eye white"><path id="eye_white-2" data-name="eye white" class="cls-7" d="M204.78,157.18a31.41,31.41,0,0,1-27.47,12.2s-27.44-1.64-24-25.17l.13-.05a46.18,46.18,0,0,1,9.35-2.12,11.37,11.37,0,0,0-1.45,1.73,10,10,0,0,0,2.26,13.87A11.89,11.89,0,0,0,170.8,160a12.43,12.43,0,0,0,1.72-.12c6.32-.88,10.82-6.34,10-12.17a9.17,9.17,0,0,0-.51-2.08,10,10,0,0,0-1.59-2.82,46.32,46.32,0,0,1,23,13.08s-.28-.41-.83-1.11c.14.14.26.28.38.41C203.61,155.82,204.19,156.49,204.78,157.18Z"/><path id="eye_white-3" data-name="eye white" class="cls-7" d="M255.94,165.85a.18.18,0,0,1-.07.05,21.55,21.55,0,0,1-10,4.07,17,17,0,0,1-1.95.18c-15.74-.27-20.83-10.83-21.24-11.78a52.62,52.62,0,0,1,9.06-7.3,9,9,0,0,0-.26,1.19,8.48,8.48,0,0,0,1.71,6.32,10.29,10.29,0,0,0,6.82,3.88,12,12,0,0,0,1.45.1,10.24,10.24,0,0,0,6.1-2,8.58,8.58,0,0,0,3.45-5.68,8.46,8.46,0,0,0-1.71-6.32l-.07-.09a10,10,0,0,0-3.49-2.81,33,33,0,0,1,3.82-.34,29.31,29.31,0,0,1,8.71,1.08l.06,0a21.53,21.53,0,0,1,4.38,1.71C263.24,157.38,259.92,162.75,255.94,165.85Z"/></g><g id="eye_sparkle" data-name="eye sparkle"><path id="eye_sparkle-2" data-name="eye sparkle" class="cls-7" d="M178,147.2a1.58,1.58,0,1,1-1.48-1.66A1.56,1.56,0,0,1,178,147.2Z"/><path id="eye_sparkle-3" data-name="eye sparkle" class="cls-7" d="M246.62,149.71a1.58,1.58,0,1,1-1.48-1.67A1.57,1.57,0,0,1,246.62,149.71Z"/></g><g id="eye_shade" data-name="eye shade"><g id="eye_shade-2" data-name="eye shade"><path class="cls-9" d="M162.82,142a11.37,11.37,0,0,0-1.45,1.73,43.75,43.75,0,0,0-8,1.31l.14-.92A46.18,46.18,0,0,1,162.82,142Z"/><path class="cls-9" d="M204.26,156.78A61.86,61.86,0,0,0,182,145.62a10,10,0,0,0-1.59-2.82,46.32,46.32,0,0,1,23,13.08s-.28-.41-.83-1.11l-.25-.33c.23.26.43.51.63.74C203.83,156.17,204.26,156.78,204.26,156.78Z"/></g><g id="eye_shade-3" data-name="eye shade"><path class="cls-9" d="M232.26,149.77a8.13,8.13,0,0,0-.5,1.3,52.62,52.62,0,0,0-9.06,7.3l-.08.07.07-.08c.14-.19.53-.67,1.12-1.36A52.13,52.13,0,0,1,232.26,149.77Z"/><path class="cls-9" d="M262.73,148.14a21.53,21.53,0,0,0-4.38-1.71l-.06,0a29.31,29.31,0,0,0-8.71-1.08,33,33,0,0,0-3.82.34,10.69,10.69,0,0,0-2.9-.93,29.9,29.9,0,0,1,6.86-1.08,27.56,27.56,0,0,1,8.64,1.06l.06,0a19.88,19.88,0,0,1,4.16,1.7v.05C262.65,147.05,262.69,147.61,262.73,148.14Z"/></g></g></g><g id="eyebrows"><path class="cls-8" d="M196.44,127.45l-.56.64-.65-.56c-22.58-19.48-43.54-1.43-46.33,1.17l-.29.28-1.19-1.23,0,0c25.67-24.52,48.44-4.74,48.66-4.53a2.86,2.86,0,0,1,1.12,2A3.4,3.4,0,0,1,196.44,127.45Z"/><path class="cls-8" d="M259.1,133.17l-.86.22-.06,0-.73.2a6.92,6.92,0,0,0-3.81-4.26,12.22,12.22,0,0,0-3.45-1c-7.26-1.05-17,2.58-17.1,2.62l-.67.26-.37-.63a3.39,3.39,0,0,1-.4-2.38,2.15,2.15,0,0,1,1.09-1.32l.19-.07c.59-.16,9.73-2.53,17.12-1.11,3.27.62,6.2,2,7.89,4.63a.41.41,0,0,1,.07.11l0,.05.1.18a9.45,9.45,0,0,1,.86,2Z"/></g><path id="hair" class="cls-8" d="M249.66,68.37c-13.21-11.74-37.6-13.67-37.6-13.67-27.25-3.45-33.28-8.87-33.28-8.87,8.5-13,3.15-28.07,3.15-28.07-7.78-19-26.74-17-26.74-17-20.66,1.53-22.35,14.09-22.35,14.09-31.16-1.11-34.95,12.9-34.95,12.9-21,12.38-7.33,23.56-7.33,23.56-5.62,22.7,17,26.25,17,26.25-34,34.5-24.3,76.78-24.3,76.78,2.91,21.39,26.25,37.44,26.25,37.44.79.73,1.59,1.44,2.41,2.12l.42-.24a.85.85,0,0,1,1,1.37,77.3,77.3,0,0,0,13.86,8.55s6.94,8.44,3.24,2.16h0c-2.47-3.44-4.91-7.14-7.32-11.14-5.27,7-12.26-4.65-12.26-4.65-12.51-13.55-6.56-22.48-6.56-22.48a5.72,5.72,0,0,1,4.36-1.94c4.07-.1,8.84,2.9,11,4.4l.09.07,1.1.69,4-1.14a128.7,128.7,0,0,1,1.63-31.85,121.78,121.78,0,0,0,3.92,20c4,15.49,5.09,28.49,4.5,39.31,0,.89-.1,1.76-.17,2.62-.07,1-.18,2-.29,3-.28,2.46-.65,4.78-1.09,7-3.08,15.33-9.72,24.75-14.43,29.76-.6.64-1.17,1.21-1.7,1.7s-1.27,1.17-1.78,1.59l-.37.3q.19-.13.39-.3c.67-.49,1.31-1,1.93-1.54s1.31-1.12,1.92-1.69c8.35-7.73,13.33-17.33,16.19-27.09.5-1.68.93-3.37,1.3-5.05.27-1.2.5-2.4.71-3.59.18-1,.35-2.06.49-3.09a113.2,113.2,0,0,0-1.27-37.38c-4.87-22.65-4.43-38.64-1.57-49.92.06-.27.13-.53.21-.8,0,.15,0,.33,0,.49C143,99.74,152,95.58,152,95.58,186.85,80,219.6,104.3,219.6,104.3c12.41-4.49,21.65-2.91,21.65-2.91,7.67.25,11.62,6.81,12.08,7.63a.08.08,0,0,1,0,0s0,0,0,0,.06.15.08.23a.49.49,0,0,1,0,.11l.15.43a86.19,86.19,0,0,1,4.15,19,.11.11,0,0,1,0,0c.07.41.12.76.16,1.05l0,.17c0,.13,0,.25.06.35l.1.18c6.07-7.16,7.91-20.84,7.91-20.84C268,81.43,249.66,68.37,249.66,68.37ZM96.15,48.18c1.59,18.5,17.15,20.08,17.15,20.08C93.23,71.64,96.15,48.18,96.15,48.18ZM86.47,126.8c-3,30.05,16.25,54.83,16.25,54.83C80.78,165,86.09,129.17,86.47,126.8Zm24.44,31.83a53.87,53.87,0,0,1-8.3-19.69c-5.35-27,12.7-49.75,13.2-50.36a107.89,107.89,0,0,0-7.94,22.53,0,0,0,0,0,0,0C101.41,139.38,110.48,157.79,110.91,158.63ZM103.83,27.19c11.43,9.46,21.58,6.48,22.09,6.33C113.52,42.3,103.83,27.19,103.83,27.19Zm38.71,57.14c-.34.18-.74.41-1.2.7l-.59.36c-.51.33-1.07.71-1.67,1.16l-.37.28a1.33,1.33,0,0,1-.19.14l-.28.22-.29.23-.39.32-.52.44c-.36.3-.73.64-1.1,1-.14.13-.28.25-.41.39l-.22.21c-.15.14-.3.3-.45.45s-.4.41-.6.63a4.76,4.76,0,0,0-.43.46l-.66.74-.42.5c-.14.17-.28.33-.42.51l-.25.33c-.13.15-.25.31-.37.48s-.15.18-.22.29-.13.18-.2.26l-.1.15-.07.09c-.09.11-.16.23-.25.35a2.75,2.75,0,0,0-.19.28c-.13.19-.26.38-.39.59s-.15.23-.23.35-.29.45-.43.68-.11.18-.16.28a.5.5,0,0,0-.1.17l0,0,0,0a.42.42,0,0,0-.07.13s0,0,0,.06a0,0,0,0,0,0,0,1.22,1.22,0,0,0-.12.19,4.77,4.77,0,0,0-.24.44l-.36.65a41,41,0,0,0-2,4.34q-.21.52-.39,1c-.13.35-.25.7-.36,1.06-.24.74-.45,1.47-.65,2.21-.09.33-.18.67-.25,1-.13.5-.24,1-.35,1.51s-.17.83-.24,1.25l0,.16a.29.29,0,0,0,0,.09.64.64,0,0,0,0,.07v.06a.59.59,0,0,0,0,.13l-.16,1c-.1.73-.18,1.46-.26,2.19,0,.13,0,.26,0,.39l0,.27a.57.57,0,0,0,0,.13l-.06.8c0,.46-.06.92-.07,1.38s0,.73,0,1.1h0s0,0,0,0v.07c0,.92,0,1.86,0,2.83v0c0,.42,0,.85,0,1.28,0,.26,0,.52,0,.77a2.83,2.83,0,0,0,0,.29.76.76,0,0,0,0,.15c0,.27,0,.56.06.83,0,.56.09,1.13.15,1.7v0s0,0,0,0c0,.27.06.54.1.82s.06.54.09.82q0,.07,0,.18a1.5,1.5,0,0,0,0,.2c.07.52.15,1.06.23,1.6.07.39.13.8.21,1.2,0,.1,0,.2,0,.29s.07.42.11.64a.36.36,0,0,1,0,.11c0,.18.07.35.11.53s0,.22.07.34v0c0,.2.07.41.12.62,0,0,0,0,0,0l0-.05a.07.07,0,0,0,0,0c0-.06,0-.12-.07-.19l0-.05a.28.28,0,0,0,0-.12l-.11-.3a1.15,1.15,0,0,0-.06-.17c0-.06,0-.13-.07-.19l-.24-.64c-.14-.4-.27-.78-.4-1.18-.07-.19-.12-.38-.18-.57l-.18-.58s0,0,0,0q-.28-1-.51-2c-.08-.29-.15-.59-.21-.89s-.14-.66-.2-1-.13-.67-.19-1-.11-.67-.16-1c-.11-.68-.19-1.37-.27-2s-.13-1.37-.17-2a.41.41,0,0,1,0-.11c0-.12,0-.26,0-.4l0-.51c0-.14,0-.28,0-.41l0-.46a1.93,1.93,0,0,0,0-.24v-.07c0-.1,0-.19,0-.29v-.13c0-.2,0-.4,0-.61v-.07c0-.15,0-.32,0-.49s0-.37,0-.57,0-.56,0-.85,0-.38,0-.57,0-.5,0-.75,0-.57.07-.86a4.22,4.22,0,0,1,0-.49c0-.43.09-.87.15-1.31,0-.25.07-.52.11-.79a3.2,3.2,0,0,0,.07-.41l.12-.68c0-.22.09-.45.13-.67l.09-.46c.06-.28.13-.56.2-.85s.14-.57.22-.85l.11-.39c0-.15.08-.3.13-.47s.17-.56.27-.85.12-.37.19-.56c0,0,0,0,0,0,.11-.32.23-.64.35-1,.18-.49.38-1,.6-1.46.09-.22.19-.44.29-.67l.44-.89c.16-.33.34-.65.51-1l.5-.87c.1-.16.18-.31.28-.46s.19-.32.3-.48.37-.58.58-.87a.21.21,0,0,1,0-.06c.21-.31.43-.61.67-.92l.18-.26.31-.39a2.43,2.43,0,0,1,.2-.25h0a4.19,4.19,0,0,1,.28-.34,3.31,3.31,0,0,1,.25-.3h0c.13-.16.27-.33.42-.49l.25-.29c.14-.15.28-.31.43-.46s.47-.5.73-.75l.36-.35a.47.47,0,0,1,.14-.14c.15-.15.29-.28.45-.42l.59-.54c.18-.16.36-.32.55-.47s.36-.32.56-.47l.19-.16q.2-.17.39-.3c.3-.24.61-.48.94-.71a6.28,6.28,0,0,1,.52-.38,39.61,39.61,0,0,1,3.79-2.39l.74-.4q.93-.51,1.95-1l0,0a.69.69,0,0,1,.15-.07l.17-.08ZM158.66,50c1.12-5.64-2.26-5.41-2.26-5.41-1.58,6.32-10.38,11-10.38,11,2.71-3.61.45-10.15-.22-7.22a3.4,3.4,0,0,1-.25.67c-1.28,2.54-6.07,4.07-6.07,4.07C148.73,40.06,124.14,24,124.14,24c21.88-2.49,25.71,24.14,25.71,24.14,8.21-7.77,3.55-20.33,3.4-20.76,7,5.59,5.9,8.14,5.66,8.52,9.2-11.49-.25-26.12-.25-26.12C178.06,26.29,158.66,50,158.66,50Zm53.26,41.8s.51-7.48-2.21-13.54c-.14-.32-.29-.62-.45-.92a11.5,11.5,0,0,0-7.93-6.38c-14.38-3.06-16.78-6.81-16.91-7,6,5.21,14,4.16,17.14,4.89C207.75,70.2,210.7,74,212,78c.08.25.15.49.21.73C213.91,85,211.92,91.78,211.92,91.78Zm48.23,26.75s2.26-47.67-31.09-51.63c-34.72-4.11-42.32-12.46-42.74-13,6.6,4.7,21.28,9.54,36.53,9.39,19.4-.18,26.94,9.05,26.94,9.05C267.88,92.15,260.15,118.53,260.15,118.53Z"/><g id="hair_highlights" data-name="hair highlights"><path class="cls-10" d="M260.15,118.53s2.26-47.67-31.09-51.63c-34.72-4.11-42.32-12.46-42.74-13,6.6,4.7,21.28,9.54,36.53,9.39,19.4-.18,26.94,9.05,26.94,9.05C267.88,92.15,260.15,118.53,260.15,118.53Z"/><path class="cls-10" d="M110.91,158.63a53.87,53.87,0,0,1-8.3-19.69c-5.35-27,12.7-49.75,13.2-50.36a107.89,107.89,0,0,0-7.94,22.53,0,0,0,0,0,0,0C101.41,139.38,110.48,157.79,110.91,158.63Z"/><path class="cls-10" d="M211.92,91.78s.51-7.48-2.21-13.54c-.14-.32-.29-.62-.45-.92a11.5,11.5,0,0,0-7.93-6.38c-14.38-3.06-16.78-6.81-16.91-7,6,5.21,14,4.16,17.14,4.89C207.75,70.2,210.7,74,212,78c.08.25.15.49.21.73C213.91,85,211.92,91.78,211.92,91.78Z"/><path class="cls-10" d="M142.89,84.14l-.35.19c-.34.18-.74.41-1.2.7l-.59.36c-.51.33-1.07.71-1.67,1.16l-.37.27-.19.15-.28.22-.29.23-.39.32-.52.44c-.36.3-.73.64-1.1,1-.14.13-.28.25-.41.39l-.22.21c-.15.14-.3.3-.45.45s-.4.41-.6.63a4.76,4.76,0,0,0-.43.46l-.66.74-.42.5c-.14.17-.28.33-.42.51l-.25.33c-.13.15-.25.31-.37.48l-.42.56-.61.86c-.13.19-.26.38-.39.59s-.15.23-.23.35c-.34.52-.67,1.07-1,1.63-.16.27-.3.53-.45.81l-.15.28c-.12.21-.23.43-.34.64s-.32.64-.48,1-.23.49-.34.74l-.33.76c-.3.7-.59,1.44-.86,2.2,0,.1-.07.2-.1.29s-.09.25-.13.38-.09.26-.13.39c-.11.33-.21.66-.31,1s-.19.66-.29,1L125,108l-.27,1.13-.15.64-.12.62c-.06.3-.12.59-.17.9,0,.11,0,.21,0,.32a.64.64,0,0,0,0,.07v.06a.59.59,0,0,0,0,.13,2.56,2.56,0,0,0-.05.27c0,.11,0,.2,0,.3l-.06.43c0,.27-.08.55-.11.83l0,.19c0,.15,0,.31,0,.47l0,.22c0,.16,0,.32,0,.48s0,.26,0,.39l0,.27a.57.57,0,0,0,0,.13l-.06.8c0,.46-.06.92-.07,1.38s0,.73,0,1.1h0v.07c0,.92,0,1.86,0,2.83v0c0,.42,0,.85,0,1.28,0,.26,0,.52,0,.77a2.83,2.83,0,0,0,0,.29.76.76,0,0,0,0,.15c0,.27,0,.56.06.83,0,.56.09,1.13.15,1.7v0s0,0,0,0c0,.27.06.54.1.82s.06.54.09.82q0,.07,0,.18a1.5,1.5,0,0,0,0,.2c.07.52.15,1.06.23,1.6.07.39.13.8.21,1.2,0,.1,0,.2,0,.29s.07.42.11.64a.36.36,0,0,1,0,.11c0,.18.07.35.11.53s0,.22.07.34v0c0,.2.07.41.12.62,0,0,0,0,0,0l0-.05v0a.1.1,0,0,0,0,0c0-.06,0-.12-.07-.19l0-.05a.28.28,0,0,0,0-.12l-.11-.3c0-.11-.09-.23-.13-.36s-.08-.24-.13-.37-.08-.27-.13-.4a.43.43,0,0,1,0-.05c0-.06,0-.13-.08-.21-.09-.3-.2-.62-.3-1,0,0,0-.07,0-.12l-.08-.25c-.09-.29-.17-.6-.27-.93a.83.83,0,0,0,0-.15l-.06-.26a.24.24,0,0,1,0-.08c-.32-1.23-.64-2.63-.92-4.18l-.06-.37c0-.24-.09-.5-.12-.75s0-.26-.06-.38l0-.23c0-.31-.09-.63-.13-1-.06-.52-.12-1-.17-1.58a.41.41,0,0,1,0-.11h0v-.06a.56.56,0,0,1,0-.07c0-.32,0-.65-.08-1,0-.1,0-.21,0-.32a1.23,1.23,0,0,1,0-.19c0-.14,0-.28,0-.41l0-.46a1.93,1.93,0,0,0,0-.24v-.07c0-.1,0-.19,0-.29v-.13c0-.2,0-.4,0-.61s0-.37,0-.56,0-.37,0-.57,0-.56,0-.85,0-.38,0-.57,0-.5,0-.75,0-.57.07-.86a4.22,4.22,0,0,1,0-.49c0-.43.09-.87.15-1.31,0-.25.07-.52.11-.79a3.2,3.2,0,0,0,.07-.41l.12-.68c0-.22.09-.45.13-.67l.09-.46c.06-.28.13-.56.2-.85s.15-.57.22-.85l.11-.39c0-.15.08-.3.13-.47s.17-.56.27-.85.12-.37.19-.56c0,0,0,0,0,0,.11-.32.23-.64.35-1,.18-.49.38-1,.6-1.46.09-.22.19-.44.29-.67l.44-.89c.16-.33.34-.65.51-1l.5-.87c.1-.16.18-.31.28-.46s.2-.32.3-.48.38-.58.58-.87a.21.21,0,0,1,0-.06c.21-.31.44-.61.67-.92l.18-.26.31-.39a2.43,2.43,0,0,1,.2-.25h0a4.19,4.19,0,0,1,.28-.34,3.31,3.31,0,0,1,.25-.3h0c.13-.16.27-.33.42-.49l.25-.29c.14-.15.28-.31.43-.46l.73-.75c.16-.17.32-.33.5-.49s.29-.28.45-.42l.59-.54c.18-.16.36-.32.55-.47s.36-.32.56-.47l.19-.16q.2-.17.39-.3c.3-.24.61-.48.94-.71.17-.13.34-.26.52-.38a39.61,39.61,0,0,1,3.79-2.39l.74-.4q.93-.51,1.95-1l0,0a.69.69,0,0,1,.15-.07Z"/><path class="cls-10" d="M158.66,50c1.12-5.64-2.26-5.41-2.26-5.41-1.58,6.32-10.38,11-10.38,11,2.71-3.61.45-10.15-.22-7.22a3.4,3.4,0,0,1-.25.67c-1.28,2.54-6.07,4.07-6.07,4.07C148.73,40.06,124.14,24,124.14,24c21.88-2.49,25.71,24.14,25.71,24.14,8.21-7.77,3.55-20.33,3.4-20.76,7,5.59,5.9,8.14,5.66,8.52,9.2-11.49-.25-26.12-.25-26.12C178.06,26.29,158.66,50,158.66,50Z"/><path class="cls-10" d="M113.3,68.26C93.23,71.64,96.15,48.18,96.15,48.18,97.74,66.68,113.3,68.26,113.3,68.26Z"/><path class="cls-10" d="M125.92,33.52c-12.4,8.78-22.09-6.33-22.09-6.33C115.26,36.65,125.41,33.67,125.92,33.52Z"/><path class="cls-10" d="M102.72,181.63C80.78,165,86.09,129.17,86.47,126.8,83.43,156.85,102.72,181.63,102.72,181.63Z"/></g></svg>