<svg data-name="trAvatar" xmlns="http://www.w3.org/2000/svg" id="avatar" viewBox="0 0 142.77 167.41"><defs><style>.cls-3{fill:#010101}.cls-4{fill:#640e0e}.cls-6{fill:#fff}.cls-7{fill:#053a59}.cls-8{fill:#fbaf33}.cls-9{fill:#b77e45}.cls-10{fill:#cccccb}</style></defs><path d="M0 0h142.77v167.41H0z" style="fill:none"/><path d="M127.8 167.4c-18.67.04-91.8-.09-111.72-.12-1.13-28.25 2.86-46.75 19.75-39.28 9.54-2.48 20.88-5.8 28.14-8.36 0 0 .02-.02 0-.02 7.03.44 18.56.94 23.33 1.18 0 0 27.18 7.17 26.26 7.44h-.02c14.28-5.54 16.4 11.85 14.25 39.17Z" style="fill:#821a1a"/><g id="shirt_shade"><path d="M39.29 148.39s.75-16.92-3.46-20.35c0 0 7.1-3.13 3.46 20.35M77.25 137.97c-18.19 0-19.56-11.46-19.76-15.96.11.82 2.17 13.96 19.59 14.51.2 0 15.52-.04 16.31-13.63.05.48 1.53 15.08-16.14 15.08M116.95 148.61s.76-16.92-3.46-20.35h.02c.02 0 .03 0 .05-.02.32-.11 1.64-.44 2.75 1 1.46 1.9 2.57 6.86.63 19.37ZM127.74 167.4h-2.44c.41-1.17 3.04-23.95.78-33.57 3.09 10.05 2.44 26.35 1.67 33.57Z" class="cls-4"/></g><path id="earring" d="M113.98 102.45c-.29 6.8-7.67 13.23-14.08 9.04-.41-.24-.8-.53-1.16-.84.4-.35.8-.72 1.18-1.11 9.88 6.53 15.9-9.4 9.84-16.28q.315-.87.6-1.77c2.86 2.8 4.01 7.01 3.62 10.94Z" class="cls-8"/><path id="skin" d="M117.12 50.14c2.62 2.49 2.19 25.7-3.4 40.38-3.04 8-9.3 21.95-20.53 23.79-.37.02-3.55.17-8.33-1.3-.93 2.05-1.07 4.97.49 6.82 2.46 1.14 2.51 1.07 1.09 4.96-5.5 8.79-20.95 4.78-22.46-5.17 3.49-.33 6.6-8.44 6.1-15.1a54 54 0 0 1-3.49-3.34v-.07c-3.41-3.57-6.5-7.65-9.09-12.01-2.41 3.21-5.6-2.14-5.6-2.14-5.71-6.23-8.66-22.51-8.66-22.51-.55-53.28 78.49-39.59 73.89-14.3Z" style="fill:#c79763"/><g id="skin_shade"><path d="M119.3 64.43h-.03c-.32 14.68-11.68 58.51-34.44 48.62.01 0 .02 0 .04.01-1.21 2.2-1.15 7.01 2.39 7.77.73 3.74-2.56 3.15-5.76 2.01 0-.17-4.14-11.65-9.51-16.88 3.24 3.78 19.11 9.26 22.96 7.38 17.58-10.21 19.69-37.35 20.56-55.9h-.03c-.31-11.79-7.97-9.83-13.83-9.27 0 0-23.97-13.52-38.61 3.92 4.79-20.11 59.79-25.61 56.27 12.36ZM57.03 84.74c-.37 1.57-2.52 1.46-3.13 1.03-2.34-1.61-.66-3.64.65-3.8-.55-1.96-2.5-2.61-4.01-2.57 1.96-.63 3.72-.26 4.94 2.59-1.8.78-1.15 4.01 1.27 2.47z" class="cls-9"/></g><path id="rt_earring" d="M66.58 101.18c-2.26 13.76-12.7 9.93-12.7 9.94-8.88-3.46-9.47-17.55-1.48-22.34.42-.45 1.1.2.57.57-7.1 4.62-6.08 18.26 2.59 20.32 0 0 .2.04.19.04 7.56 1.06 10.57-8.87 7.98-14.8-1.3-4.21-5.1-5.98-8.84-6.71 2.86-1.94 7.83.9 9.42 3.7 1.86 2.68 2.58 6.04 2.27 9.27Z" class="cls-8"/><path id="mouth" d="M97.95 98.81c-9.76 8.17-20.33-3.12-7.36-8.19-.25.55 3.7 8.09 7.36 8.19" class="cls-6"/><g id="nose"><path d="m98.58 89.65-2.24.45s-.34-1.5 2.24-.45M102.86 88.99c-.17.83-1.53 2.41-1.64 2.41 2.26-2.83.09-4.93.09-4.93-2.68-2.31-5.93.51-6.08.64 4.86-5.3 8.64-1.07 7.63 1.88" class="cls-3"/></g><g id="eyes"><g id="eye_white"><path id="eye_white-2" d="M94.8 71.89s-4.18 6.21-12.54 5.61c0 0-12.53-.76-10.95-11.57 5.06-2.23 12.38-.65 12.38-.65 3.42.79 8.06 2.96 11.11 6.61" class="cls-6" data-name="eye_white"/><path id="eye_white-3" d="M118.17 75.88c-6.14 5.08-14.87-.99-15.18-3.44 1.41-1.41 1.69-2.6 4.17-4.03 2.78-1.58 5.67-2.91 5.67-2.91 2.48-.48 6.68.46 8.38 1.45.23 4.25-1.22 7.5-3.03 8.93Z" class="cls-6" data-name="eye_white"/></g><g id="eye_shade"><g id="eye_shade-2" data-name="eye_shade"><path d="M94.57 71.71c-10.24-8.64-23.26-5.39-23.26-5.39l.06-.42c14.41-4.99 23.2 5.79 23.2 5.81" class="cls-10"/><path d="M84.07 65.37c-.05-.01-.1-.03-.15-.03q.075 0 .15.03M83.92 65.35a1 1 0 0 0-.21-.05h-.01c.08 0 .15.03.23.05Z" class="cls-10"/></g><path id="eye_shade-3" d="M121.31 67.73c-1.71-.99-9.89-3.68-18.35 4.74 1.2-1.53 2.76-3.35 4.1-4.27 7.06-4.86 12.12-2.47 14.18-1.25.04.27.05.53.08.79Z" class="cls-10" data-name="eye_shade"/></g><g id="eye_black"><path d="M84.42 66.58c-.17-.47-.41-.91-.72-1.3 3.42.79 7.12 2.53 10.51 6.02-2.53-3.27-10.09-12.2-22.68-6.76l-.22 1.4c.44-.17 4.33-1 4.33-1-5.07 8.84 10.25 11.78 8.78 1.65ZM121.03 65.32c-6.24-5.01-16.16 3.75-17.81 6.78 1.34-1.44 2.81-2.72 4.13-3.61-2 4.09 3.79 7.64 7 4.97 3.05-2.11 1.33-6.9-2.16-7.28 2.88-.92 6.88-.49 9.04.79z" class="cls-3"/></g><g id="eye_sparkle"><path id="eye_sparkle-2" d="M82.58 67.3c-.02.4-.36.71-.76.68a.734.734 0 0 1-.68-.77c.02-.4.36-.7.76-.68.39.02.7.37.68.76Z" class="cls-6" data-name="eye_sparkle"/><path id="eye_sparkle-3" d="M113.91 68.45c-.02.4-.36.7-.76.68a.734.734 0 0 1-.68-.77c.02-.4.36-.71.76-.68.39.02.7.37.68.77" class="cls-6" data-name="eye_sparkle"/></g></g><g id="eyebrows"><path d="m90.99 58.22-.26.3c-10.09-9.26-20.27-1.05-21.59.41l-.54-.57c11.85-11.38 24.53-2.52 22.39-.14M119.61 60.85l-.75.2c-.93-4.44-11.43-1.09-11.43-1.09-.36-.37-.7-1.73.23-2.02 1.06-.55 11.47-2.07 11.95 2.91" class="cls-3"/></g><path d="M122.79 50.13s-.84 6.29-3.61 9.58c-1.48-11.25-2.96-16.52-17.61-12.14-.66-2.01-29.14-15.12-38.51 3.98 0-.08-.35.76-.34.69-4.96 15.88 12 37.02-8.82 59 8.83-9.32 10.75-25.23 6.91-39.15 0 0-1.21-3.99-1.79-9.18-.76 4.05-1.11 8.89-.75 14.65l-1.83.52c-1.64-1.07-5.36-3.78-7.54-1.49 0 0-2.61 3.64 2.99 10.34 0 0 3.19 5.35 5.6 2.14a75 75 0 0 0 3.35 5.13c1.69 2.88-7.72-4.77-8.45-5.44-10.93-10.13-23.5-27.36-2-53.5 0 0-10.33-1.63-7.76-12.07 0 0-6.22-5.14 3.35-10.83 0 0 1.73-6.44 15.96-5.93 3.12-11.84 31.27-7.51 20.98 14.25 8.59 6.31 41.16-.09 39.86 29.44Z" class="cls-3"/><g id="hair_highlights"><path d="M120.09 54.12c.6-30.44-20.58-20.19-33.72-29.71 3.02 2.16 9.72 4.39 16.68 4.32 19-1.32 18.75 22.35 17.04 25.39M51.93 72.56c-9.06-11.38-.79-29.65 2.24-32.21-1.75 3.7-2.9 7.17-3.63 10.36-2.96 12.97 1.19 21.48 1.39 21.85" class="cls-7"/><path d="M98.06 41.82C98.79 29.6 89.07 33.15 85.5 29c2.76 2.4 6.37 1.91 7.83 2.25 5.52.68 5.69 8.37 4.73 10.57M66.54 38.3c-5.74 3.08-8.82 9.71-8.86 16.11-.05 2.36.22 4.75.69 7.07 0-.01-.02-.03-.02-.05-.74-1.95-1.19-4.05-1.4-6.17-.92-7.04 2.89-14.1 9.43-16.89.05-.02.1-.05.15-.07ZM73.74 22.6c.51-2.59-1.03-2.49-1.03-2.49-.72 2.91-4.74 5.08-4.74 5.08 1.24-1.66.21-4.67-.1-3.32-.25 1.28-2.89 2.2-2.88 2.18 4.22-6.02-7.01-13.38-7.01-13.38 9.99-1.14 11.74 11.1 11.74 11.1 3.75-3.57 1.62-9.35 1.55-9.54 3.21 2.57 2.69 3.74 2.59 3.92 4.2-5.28-.12-12.01-.12-12.01 8.86 7.58 0 18.47 0 18.47ZM53.02 31c-9.17 1.55-7.83-9.24-7.83-9.24.72 8.51 7.83 9.24 7.83 9.24" class="cls-7"/></g></svg>