<svg id="Layer_1" data-name="Layer 1" xmlns="http://www.w3.org/2000/svg" viewBox="0 0 316.27 371.51"><defs><style>.cls-1{fill:#69441a;}.cls-2{fill:#502f09;}.cls-3{fill:#7cd2ee;}.cls-4{fill:#4097af;}.cls-5{fill:#010101;}.cls-6{fill:#c2882b;}.cls-7{fill:#a86a28;}.cls-8{fill:#fff;}.cls-9{fill:#231f20;}.cls-10{fill:#ccc;opacity:0.5;}.cls-11{fill:#053a59;}</style></defs><path id="skin" class="cls-1" d="M253.68,166.38a23,23,0,0,1-9.8,2.76c-16.21-.29-21.39-11.19-21.78-12.07l-.07.07.06-.08,0-.05c.21-.28.42-.54.65-.81l.07-.09.19-.25.42-.53.28-.35.31-.38c.25-.31.54-.65.86-1s.55-.64.86-1c.89-1,2-2.13,3.18-3.31.44-.43.89-.86,1.37-1.28.21-.19.42-.39.64-.57l.25-.23.84-.73c.34-.29.69-.58,1-.86l1-.78c.68-.52,1.38-1,2.11-1.52s1.47-1,2.23-1.41l1.16-.65,1.11-.57a29.4,29.4,0,0,1,2.7-1.18c.35-.14.71-.26,1.08-.38s.85-.28,1.28-.39.77-.21,1.16-.29l.19,0c.42-.1.84-.17,1.26-.24-1.3-4.54-2.86-9.2-4.73-13.95h-.39a51.6,51.6,0,0,0-12.51,2.8l-.79.31-.42-.74a3.59,3.59,0,0,1-.42-2.54,2.3,2.3,0,0,1,1.18-1.42l.21-.09A54.15,54.15,0,0,1,242.28,121c-.76-1.81-1.56-3.65-2.41-5.49-3.46.29-8.8-.92-15.78-7.43,0,0-3.27,13.07-33,1.78,0,0-16.33-6.23-25.54-17.52,0,0,3,15.74-24.94,16.33,0,0-6.79,1.88-11-1.66a1.47,1.47,0,0,1-.1.13c2.81,3.89,8.24,13.22-2.25,15.79,0,0,14.25,24.65-5,24.65l-.73,7-.58-.19a.11.11,0,0,0,0,.08l-.23-.15c-4.71-3-13.4-7.34-18.11-2,0,0-7.75,11.64,8.54,29.27A32,32,0,0,0,114.4,186a7.08,7.08,0,0,1,5.67-6,4.94,4.94,0,0,1,1-.11h.44a4.92,4.92,0,0,1,.67,0,4.46,4.46,0,0,1,.51.07l.29.05a.61.61,0,0,1,.13,0l.25.06.36.1a1.44,1.44,0,0,1,.32.13h0l.1,0h0l.08,0a2.52,2.52,0,0,1,.29.12,6.68,6.68,0,0,1,1,.59c.12.08.23.17.34.26a4.91,4.91,0,0,1,.63.57,4.12,4.12,0,0,1,.28.31,4,4,0,0,1,.26.32,2.52,2.52,0,0,1,.24.33.41.41,0,0,1,.07.11,3,3,0,0,1,.23.38,1,1,0,0,1,.07.15.25.25,0,0,0,0,.07,1.3,1.3,0,0,1,.08.17,0,0,0,0,1,0,0l0,.05h0l0,.08,0,.07,0,0a.85.85,0,0,1,.09.22h0v0h0c.05.12.09.25.13.37a.82.82,0,0,1,.06.19.73.73,0,0,1,.05.2,4.88,4.88,0,0,1,.12.55.07.07,0,0,0,0,.05,1.81,1.81,0,0,1,0,.23h0a1.33,1.33,0,0,1,0,.21,1.48,1.48,0,0,1,0,.21v-.14a4.17,4.17,0,0,1,.05.71,7.07,7.07,0,0,1-4.77,6.7c0,.19,0,.38,0,.58s0,.57,0,.88,0,.62,0,1c0,.11,0,.23,0,.35l0,.57a.28.28,0,0,0,0,.09c0,.35,0,.71.08,1.07s0,.57.08.87,0,.36,0,.54c0,.39.08.78.13,1.18.08.68.18,1.37.29,2.09l.06.38c0,.34.11.68.17,1a2.56,2.56,0,0,0,0,.27c.06.34.13.69.2,1s.11.55.17.82.15.69.23,1,.18.75.28,1.13.24.93.37,1.39.27.94.42,1.41.22.7.34,1.06.24.71.37,1.06.17.48.26.71.25.66.38,1,.31.77.48,1.15l.16.36c.11.26.23.53.36.8l0,.09q.31.67.66,1.35c.24.48.49.95.76,1.42l.08.15.36.62.08.13c.13.23.27.46.41.69s.29.46.44.68q.63,1,1.32,1.92l.23.3.13.18.09.11.12.16.45.57c.17.22.35.43.53.64s.27.31.4.46l.09.1.24.27a3.45,3.45,0,0,0,.26.28c.06.08.13.15.2.23l.12.12.06.07c.34.35.67.69,1,1s.46.45.7.66l.2.18c.24.23.49.44.75.66l.2.17.6.49a34.31,34.31,0,0,0,3.12,2.23l-.23.2a30.84,30.84,0,0,0,5.9,2.57c-.21,11.08-6.66,25.29-10.85,29.26,0,0-1.8,2.15-10,4.88a65.34,65.34,0,0,0,7.59,23c7.85,13.94,19.82,22.14,35.64,24.43l.43-.45.25-.23.23-.19a6.34,6.34,0,0,1,.81-.58l.32-.19a6,6,0,0,1,.72-.35l.4-.16a7.93,7.93,0,0,1,1.18-.33,7.36,7.36,0,0,1,1.25-.13h.23l.5,0a5.16,5.16,0,0,1,.79.09l.41.08.54.14a4,4,0,0,1,.45.15,4.62,4.62,0,0,1,.47.19l.4.19a4.36,4.36,0,0,1,.42.23l.39.25c.21.14.41.29.61.45l.38.34.05,0c10.29-2.61,31.95-11.57,37.33-41.28-2.19-.72-4.19-1.44-5.89-2.13-2.88-1.18-4.9-2.29-5.47-3.22-4.69-7.6-3.1-22-2.11-28.22-1,.1-2.14.19-3.25.26-.54.05-1.09.08-1.64.11-4.22.26-8.81.35-13.7.2h-.24c-1.69-.05-3.42-.13-5.17-.26-.3,0-.59,0-.89-.06s-.61,0-.92-.07l-.52,0-2.14-.19c-.51,0-1-.1-1.54-.16l-.7-.07-.34,0c-.86-.1-1.73-.2-2.61-.32-.23,0-.47-.06-.71-.1l-1.42-.2a4.61,4.61,0,0,1-.5-.07h-.06c-.87-.13-1.77-.27-2.66-.43l-1.54-.27-1.15-.21h0l-2.11-.42-.12,0-.5-.1h0c-.55-.11-1.12-.23-1.68-.37l-.39-.09-.68-.15-.37-.08q-1.07-.24-2.13-.51l-.07,0-.25-.06-.82-.21-.21-.06-.24-.06L153,238l-.27-.07c-.73-.2-1.46-.4-2.19-.62l-.15-.05-.23-.06-.2-.07h.19l.23,0h0l.26,0h0l.15,0,.17,0,.56,0,.34,0,.54,0h0a272.5,272.5,0,0,0,45.41.41h0c2.88-.25,5.77-.56,8.64-1,.63-.08,1.25-.17,1.88-.27l1.88-.29,1-.17.41-.07.21,0a2,2,0,0,0,.35-.06l.11,0q.82-.13,1.62-.3c.26,0,.51-.09.76-.15l.54-.11,1.24-.26L217,235l.62-.14c.64-.14,1.28-.29,1.91-.45l1.58-.4c.51-.13,1-.26,1.5-.41,1.14-.32,2.27-.66,3.37-1l1.69-.58.13,0,.28-.1.05,0,0,0,.37-.13.61-.23.4-.15c.33-.12.65-.25,1-.39l1.25-.52.28-.12.83-.38a1.59,1.59,0,0,0,.27-.12.18.18,0,0,0,.08-.05,2.06,2.06,0,0,0,.26-.12l.08,0,.12,0a6.63,6.63,0,0,0,.6-.29l1-.49c.23-.12.46-.24.68-.37q.81-.43,1.59-.9c.39-.23.77-.47,1.15-.71s.75-.48,1.11-.73l.26-.19,0,0,0,0c.24-.17.48-.34.71-.52a2.14,2.14,0,0,0,.26-.19c.26-.19.52-.39.77-.6s.66-.54,1-.82a12.23,12.23,0,0,0,.94-.85c.31-.29.6-.58.89-.88h0c.29-.3.58-.6.85-.91s.71-.84,1.05-1.27a23.38,23.38,0,0,0,3.82-7.22S256.25,193.89,253.68,166.38Zm-132,7.54h0c-2.39,3.42-6.87,1.33-7.14,1.18a6.38,6.38,0,0,1-1.78-1.44h0a4.48,4.48,0,0,1-1-2.39h0A4.81,4.81,0,0,1,112,169c1.54-3.42,4.19-3.42,4.19-3.42-2.06-6.93-10.1-6.41-10.1-6.41.46-.23,8.47-3.42,12.43,6.45,0,0-4.79,2.95-1.82,6.38a3.83,3.83,0,0,0,4.88-.09l.14-.11.71.71A6.16,6.16,0,0,1,121.71,173.92Zm28.19,63.17h0Zm-5.51-112.87L143,122.75c26.18-24.52,49.31-4.42,49.54-4.22a3,3,0,0,1,1.18,2.08,3.69,3.69,0,0,1-.84,2.49l-.66.75-.75-.65C169.22,104,148.35,120.68,144.39,124.22Zm31.24,44.13s-28.11-1.68-24.54-25.78h0l.49-3.12c26.83-12.16,45.13,7.73,49.73,13.54l0,0,.56.67s0,0,0,0c.63.68,1.25,1.38,1.86,2.11A32.13,32.13,0,0,1,175.63,168.35Zm5.16,39.75s-8.9-13.84,13.41-21.75c0,0,5.24,17.8,18.82,20.82C213,207.17,192,223.37,180.79,208.1ZM211.33,187s-.61-3.44,4.11-1Zm11.12,2.81c5-6.29.16-11,.16-11-5.86-5-13,.84-13.6,1.38,7.67-8.92,14.08-4.3,14.08-4.3C230.86,182.07,223.12,189.25,222.45,189.84Zm30.66,95.24s-18.66-4.22-32.09-8.47c-3.87,20.91-15.57,31.65-24.79,37A54.13,54.13,0,0,1,183.14,319a1.4,1.4,0,0,1,.09.17c.12.22.23.45.33.68s.15.38.21.57l.09.26c0,.09,0,.18.07.26a3.38,3.38,0,0,1,.09.41,7.21,7.21,0,0,1,.16,1.55,7.82,7.82,0,1,1-15.63,0c0-.22,0-.43,0-.64a4.26,4.26,0,0,1,.06-.5,3.06,3.06,0,0,1,.05-.32c0-.13.05-.25.08-.37a2.25,2.25,0,0,1,.09-.35,2.53,2.53,0,0,1,.12-.36,2.31,2.31,0,0,1,.1-.28,5.55,5.55,0,0,1,.24-.56c-36.73-6-43.13-42.38-43.95-48.61-7.63,2.35-19.93,5.05-39.58,7.16,1.72,7.85,15.09,66.08,85.19,64.45,75.53-1.75,83.89-47.58,84.45-56.58Z"/><g id="skin_shade"><path class="cls-2" d="M248.44,121.51a27.69,27.69,0,0,0-5.75-.54h-.37c-.76-1.81-1.56-3.65-2.41-5.49a8.46,8.46,0,0,0,4.57-1.63,26,26,0,0,1,1.86,3.06s0,0,0,0A46.28,46.28,0,0,1,248.44,121.51Z"/><path class="cls-2" d="M253.62,138a21,21,0,0,0-5.26.15c-1.3-4.55-2.86-9.2-4.73-14a21.16,21.16,0,0,1,5.35.29l.2,0,.39.09.08,0C251.09,128.66,252.41,133.23,253.62,138Z"/><path class="cls-2" d="M262.41,202s0,.1,0,.3,0,.91-.06,1.7l0,.34A34.16,34.16,0,0,1,251.43,226c-.16.17-.33.33-.5.48s-.52.45-.77.67-.77.68-1.18,1a.69.69,0,0,0-.13.11c-5,4.14-11.92,7.91-21.35,10.5a102.68,102.68,0,0,1-20,3.42l-.16,0h0l-1.67.13v0c-1,.1-2.14.19-3.25.26-.54.05-1.09.08-1.64.11-4.22.26-8.81.35-13.7.2h-.24c-1.69-.06-3.42-.14-5.17-.26-.3,0-.59,0-.89-.06l-.92-.07-.52,0-2.14-.19c-.51,0-1-.1-1.54-.16l-.7-.07-.34,0c-.86-.1-1.73-.2-2.61-.32l-.71-.1-1.42-.2-.52-.08h0c-.88-.13-1.77-.28-2.66-.43l-1.54-.27-1.15-.21h0c-.7-.14-1.4-.29-2.11-.42l-.12,0-.5-.1h0l-1.68-.37-.39-.09-.68-.15-2.78-.67-1.07-.27-.24-.06L153,238l-.27-.07-2.19-.62-.15-.05-.35-.11-.06,0h.17l.23,0h.15l.29,0h0l.17,0,.56,0,.34,0,.54,0h0a272.5,272.5,0,0,0,45.41.41h0c2.88-.25,5.77-.56,8.64-1,.63-.08,1.25-.17,1.88-.27s1.26-.18,1.88-.29l1-.17.41-.07a.78.78,0,0,0,.21,0,2,2,0,0,0,.35-.06l.11,0q.82-.13,1.62-.3c.26,0,.51-.09.76-.15l.54-.11c.41-.07.83-.16,1.24-.26L217,235l.62-.14c.64-.14,1.28-.29,1.91-.45s1.06-.25,1.58-.4,1-.26,1.5-.41c1.14-.32,2.27-.66,3.37-1,.57-.18,1.13-.38,1.69-.58l.13,0a1,1,0,0,0,.28-.1l.05,0,0,0,.37-.13.61-.23.4-.15c.33-.12.65-.25,1-.39s.84-.34,1.25-.52l.28-.12.83-.38a1.59,1.59,0,0,0,.27-.12.18.18,0,0,0,.08-.05,2.06,2.06,0,0,0,.26-.12l.08,0,.12,0a6.63,6.63,0,0,0,.6-.29l1-.49c.23-.12.46-.24.68-.37q.81-.43,1.59-.9c.39-.22.78-.46,1.15-.71s.75-.48,1.11-.73l.26-.19,0,0,0,0a8.58,8.58,0,0,0,.71-.52,2.14,2.14,0,0,0,.26-.19c.26-.19.52-.39.77-.6a33.13,33.13,0,0,0,1.92-1.67c.31-.29.6-.58.89-.88h0a12.06,12.06,0,0,0,.85-.91,15.71,15.71,0,0,0,1.05-1.27,23.38,23.38,0,0,0,3.82-7.22s5.85-18.59,3.28-46.1l0,0a17.84,17.84,0,0,0,5-4c1.78,10.26,2.86,18.58,3.14,20.86a.08.08,0,0,1,0,0c.05.38.07.58.07.58h0l0,0v0c.11,1.74.19,3.53.25,5.34,0,.49.05,1,.06,1.5s0,.8,0,1.2c0,1.15.07,2.3.1,3.47,0,.5,0,1,0,1.53,0,1.25,0,2.52,0,3.8C262.42,201.11,262.42,201.56,262.41,202Z"/></g><path id="shirt" class="cls-3" d="M303.11,324.58c-8.86-25.35-26.82-35.9-47.65-39.17,0,.16,0,.34,0,.54-.56,9-8.92,54.83-84.45,56.58-70.1,1.63-83.47-56.6-85.19-64.45-.06-.23-.1-.42-.13-.56s-38.31,4.1-59.24,29.69c0,0-22.28,23.16-26.42,64.27H279.66l-4.1-.08a24.77,24.77,0,0,0,1.36-6.24,50,50,0,0,0-.19-12l2.54,12,1.34,6.32h23.75c0-.88-2.12-56-23.09-74.52.55.22,18,7.73,27.86,48l7.11,26.48h0A429.66,429.66,0,0,0,303.11,324.58Zm-248,46.8a20.41,20.41,0,0,0,1.39-6.23,40.05,40.05,0,0,0-.77-11.7l3.6,11.7,1.93,6.25Z"/><g id="shirt_shade"><path class="cls-4" d="M304.36,371.48h0c0-.88-2.12-56-23.09-74.52.55.22,18,7.73,27.86,48l7.11,26.48v0Z"/><path class="cls-4" d="M56.53,365.15a40.05,40.05,0,0,0-.77-11.7l3.6,11.7,1.93,6.25-6.15,0A20.41,20.41,0,0,0,56.53,365.15Z"/><path class="cls-4" d="M280.61,371.47v0l-.95,0-4.1-.08a24.77,24.77,0,0,0,1.36-6.24,50,50,0,0,0-.19-12l2.54,12Z"/></g><g id="rt_eyebrow"><path class="cls-5" d="M192.92,123.1l-.66.75-.75-.65c-22.29-19.23-43.16-2.52-47.12,1L143,122.75c26.18-24.52,49.31-4.42,49.54-4.22a3,3,0,0,1,1.18,2.08A3.69,3.69,0,0,1,192.92,123.1Z"/></g><g id="necklace"><g id="chain"><path class="cls-5" d="M221.25,275.32c-.07.43-.15.86-.23,1.29-3.87,20.91-15.57,31.65-24.79,37A54.13,54.13,0,0,1,183.14,319l0-.08-.14-.22a7.8,7.8,0,0,0-1.18-1.45c10.29-2.61,31.95-11.57,37.33-41.28.07-.33.12-.66.18-1a1,1,0,0,1,1.15-.82A1,1,0,0,1,221.25,275.32Z"/><path class="cls-5" d="M170.54,317.71a2.79,2.79,0,0,0-.35.42c-.11.14-.22.29-.32.44a1.78,1.78,0,0,0-.17.27l-.12.2a.24.24,0,0,0-.06.11,2.19,2.19,0,0,0-.16.3l0,.08c-36.73-6-43.13-42.38-43.95-48.61-.08-.56-.11-.87-.11-.91a1,1,0,0,1,.92-1.08,1,1,0,0,1,1.08.91s0,.17,0,.45a65.34,65.34,0,0,0,7.59,23C142.75,307.22,154.72,315.42,170.54,317.71Z"/></g><g id="stone"><path id="base" class="cls-6" d="M184,321.36a3.38,3.38,0,0,0-.09-.41c0-.08,0-.17-.07-.26l-.09-.26q-.09-.29-.21-.57c-.1-.23-.21-.46-.33-.68l-.09-.17,0-.08-.14-.22a7.8,7.8,0,0,0-1.18-1.45l-.05,0-.38-.34c-.2-.16-.4-.31-.61-.45l-.39-.25a4.36,4.36,0,0,0-.42-.23l-.4-.19a4.62,4.62,0,0,0-.47-.19,4,4,0,0,0-.45-.15l-.54-.14-.41-.08a5.16,5.16,0,0,0-.79-.09l-.5,0h-.23a7.36,7.36,0,0,0-1.25.13,7.93,7.93,0,0,0-1.18.33l-.4.16a6,6,0,0,0-.72.35l-.32.19a6.34,6.34,0,0,0-.81.58l-.23.19-.25.23-.43.45a2.79,2.79,0,0,0-.35.42c-.11.14-.22.29-.32.44a1.78,1.78,0,0,0-.17.27l-.12.2a.24.24,0,0,0-.06.11c-.06.1-.11.2-.16.3l0,.08a5.55,5.55,0,0,0-.24.56,2.31,2.31,0,0,0-.1.28,2.53,2.53,0,0,0-.12.36,2.25,2.25,0,0,0-.09.35c0,.12-.06.24-.08.37a3.06,3.06,0,0,0-.05.32,4.26,4.26,0,0,0-.06.5c0,.21,0,.42,0,.64a7.82,7.82,0,1,0,15.63,0A7.21,7.21,0,0,0,184,321.36Zm-11.2-3.12a5.75,5.75,0,0,0-1.32,1.6,4.56,4.56,0,0,0-.63,2.19,2.87,2.87,0,0,1-.12-2.29A4.53,4.53,0,0,1,172,317.9l.08-.08c1.55-1.39,3.72-1.69,5-.73a.27.27,0,0,1,.08.07,4.82,4.82,0,0,0-4,.87Zm9.62,6.22a6.3,6.3,0,0,1-5.68,5c-2.35.12-3.78-1.83-3.39-1.56,3.39,2.37,7.07-1,7.07-1,1.7-1.71,1.93-5.21,1.94-5.21A5.81,5.81,0,0,1,182.44,324.46Z"/><path id="lowlight" class="cls-7" d="M182.44,324.46a6.3,6.3,0,0,1-5.68,5c-2.35.12-3.78-1.83-3.39-1.56,3.39,2.37,7.07-1,7.07-1,1.7-1.71,1.93-5.21,1.94-5.21A5.81,5.81,0,0,1,182.44,324.46Z"/><path id="highlight" class="cls-8" d="M177.12,317.16a4.82,4.82,0,0,0-4,.87l-.27.21a5.75,5.75,0,0,0-1.32,1.6,4.56,4.56,0,0,0-.63,2.19,2.87,2.87,0,0,1-.12-2.29A4.53,4.53,0,0,1,172,317.9l.08-.08c1.55-1.39,3.72-1.69,5-.73A.27.27,0,0,1,177.12,317.16Z"/></g></g><path id="mouth" class="cls-8" d="M213,207.17s-21,16.2-32.23.93c0,0-8.9-13.84,13.41-21.75C194.2,186.35,199.44,204.15,213,207.17Z"/><g id="nose"><path class="cls-9" d="M222.45,189.84c5-6.29.16-11,.16-11-5.86-5-13,.84-13.6,1.38,7.67-8.92,14.08-4.3,14.08-4.3C230.86,182.07,223.12,189.25,222.45,189.84Z"/><path class="cls-9" d="M215.44,186l-4.11,1S210.72,183.59,215.44,186Z"/></g><path id="ear" class="cls-5" d="M122.44,172.54a6.16,6.16,0,0,1-.73,1.38h0c-2.39,3.42-6.87,1.33-7.14,1.18a6.38,6.38,0,0,1-1.78-1.44h0a4.48,4.48,0,0,1-1-2.39h0A4.81,4.81,0,0,1,112,169c1.54-3.42,4.19-3.42,4.19-3.42-2.06-6.93-10.1-6.41-10.1-6.41.46-.23,8.47-3.42,12.43,6.45,0,0-4.79,2.95-1.82,6.38a3.83,3.83,0,0,0,4.88-.09l.14-.11Z"/><g id="rt_eye"><path id="rt_eye_white" class="cls-8" d="M203.75,155.85a32.13,32.13,0,0,1-28.12,12.5s-28.11-1.68-24.54-25.78l.12,0a47.27,47.27,0,0,1,9.37-2.15,11.6,11.6,0,0,0-1.45,1.76,10.41,10.41,0,0,0,2.41,14.29,12.31,12.31,0,0,0,7.42,2.43,13.16,13.16,0,0,0,1.77-.12c6-.84,10.48-5.74,10.48-11.23a10.51,10.51,0,0,0-.09-1.37,9.77,9.77,0,0,0-.5-2.07,10.21,10.21,0,0,0-1.59-2.89,47.28,47.28,0,0,1,23.37,13.34c-.05-.08-.3-.44-.73-1a1.8,1.8,0,0,1,.19.2s0,0,0,0C202.52,154.42,203.14,155.12,203.75,155.85Z"/><g id="rt_eye_shade"><path class="cls-10" d="M160.58,140.37a11.6,11.6,0,0,0-1.45,1.76,44.47,44.47,0,0,0-8.07,1.32l.15-.93A47.27,47.27,0,0,1,160.58,140.37Z"/><path class="cls-10" d="M203.22,155.44a63.26,63.26,0,0,0-22.6-11.38,10.21,10.21,0,0,0-1.59-2.89,47.28,47.28,0,0,1,23.37,13.34c-.05-.08-.3-.44-.73-1l0-.06-.32-.41.56.67s0,0,0,0C202.7,154.71,203.15,155.34,203.22,155.44Z"/></g><path id="rt_eye-2" data-name="rt_eye" class="cls-5" d="M180.62,144.06a10.21,10.21,0,0,0-1.59-2.89,47.28,47.28,0,0,1,23.37,13.34c-.05-.08-.3-.44-.73-1l0-.06-.32-.41,0,0c-4.6-5.81-22.9-25.7-49.73-13.54l-.49,3.12h0l.12,0a47.27,47.27,0,0,1,9.37-2.15,11.6,11.6,0,0,0-1.45,1.76,10.41,10.41,0,0,0,2.41,14.29,12.31,12.31,0,0,0,7.42,2.43,13.16,13.16,0,0,0,1.77-.12c6-.84,10.48-5.74,10.48-11.23a10.51,10.51,0,0,0-.09-1.37A9.77,9.77,0,0,0,180.62,144.06Zm-6,3.09a1.62,1.62,0,1,1,1.71-1.52A1.61,1.61,0,0,1,174.65,147.15Z"/><path id="highlight-2" data-name="highlight" class="cls-8" d="M176.36,145.63a1.62,1.62,0,1,1-1.52-1.71A1.62,1.62,0,0,1,176.36,145.63Z"/></g><g id="left_eye"><path id="left_eye_white" class="cls-8" d="M259.49,161.29l0,.05a.18.18,0,0,1,0,.07c-.24.33-.49.64-.74.94a17.84,17.84,0,0,1-5,4l0,0a23,23,0,0,1-9.8,2.76c-16.21-.29-21.39-11.19-21.78-12.07.39-.38.78-.76,1.17-1.12s.77-.72,1.16-1.07l1-.89c.44-.38.88-.74,1.32-1.1l1.09-.84c.44-.34.88-.66,1.31-1,.69-.5,1.38-1,2.06-1.39a7.65,7.65,0,0,0-.22,1.08,8.82,8.82,0,0,0,1.78,6.58,10.66,10.66,0,0,0,7.07,4,10.8,10.8,0,0,0,1.5.1c5,0,9.25-3.33,9.89-7.95a9.35,9.35,0,0,0-5.31-9.51c.68-.09,1.34-.17,2-.22l.88-.05,1,0h0a30.18,30.18,0,0,1,5.22.34l.87.15.12,0h0a24.17,24.17,0,0,1,7,2.36C263.49,153.28,261.9,158,259.49,161.29Z"/><g id="left_eye_shade"><path class="cls-10" d="M231.69,148.43a8.27,8.27,0,0,0-.46,1.26l.1-.06-.1.07c-.68.43-1.37.89-2.06,1.39-.43.3-.87.62-1.31,1l-1.09.84c-.44.36-.88.72-1.32,1.1l-1,.89c-.39.35-.78.7-1.16,1.07s-.78.74-1.17,1.12l-.07.07.06-.08c.14-.18.5-.62,1-1.26,0,0,0,0,0,0a54.61,54.61,0,0,1,8.56-7.39Z"/><path class="cls-10" d="M263.11,146.59a24.17,24.17,0,0,0-7-2.36h0l-.12,0-.87-.15a30.18,30.18,0,0,0-5.22-.34h0l-1,0-.88.05c-.64,0-1.3.13-2,.22a10.44,10.44,0,0,0-1.53-.63,10,10,0,0,0-1.36-.35,28.76,28.76,0,0,1,6.33-1h0a28.23,28.23,0,0,1,5.23.22l.82.13.14,0h0a23.17,23.17,0,0,1,7.32,2.45l0,.13C263.05,145.53,263.09,146.07,263.11,146.59Z"/></g><path id="left_eye-2" data-name="left_eye" class="cls-5" d="M262.58,141.21a20.64,20.64,0,0,0-8.06-3.07h0l-.18,0-.67-.09h0a21,21,0,0,0-5.26.15h0l-1.26.24-.19,0c-.39.09-.78.18-1.16.29s-.86.25-1.28.39l-1.08.38a29.4,29.4,0,0,0-2.7,1.18l-1.11.57-1.16.65c-.76.45-1.51.92-2.23,1.41s-1.43,1-2.11,1.52l-1,.78c-.36.28-.71.57-1,.86l-.84.73-.25.23c-.22.18-.43.38-.64.57-.48.42-.93.85-1.37,1.28-1.22,1.18-2.29,2.31-3.18,3.31l-.86,1c-.32.37-.61.71-.86,1l-.31.38-.28.35-.42.53-.19.25-.07.09,0,.07c.16-.16.3-.32.46-.47,0,0,0,0,0,0a54.61,54.61,0,0,1,8.56-7.39l0,.05a8.27,8.27,0,0,0-.46,1.26l.1-.06-.1.07a7.65,7.65,0,0,0-.22,1.08,8.82,8.82,0,0,0,1.78,6.58,10.66,10.66,0,0,0,7.07,4,10.8,10.8,0,0,0,1.5.1c5,0,9.25-3.33,9.89-7.95a9.35,9.35,0,0,0-5.31-9.51,10.44,10.44,0,0,0-1.53-.63,10,10,0,0,0-1.36-.35,28.76,28.76,0,0,1,6.33-1h0a28.23,28.23,0,0,1,5.23.22l.82.13.14,0h0a23.17,23.17,0,0,1,7.32,2.45h0l0,0Zm-17.48,5.28a1.62,1.62,0,1,1-1.71,1.52A1.61,1.61,0,0,1,245.1,146.49Z"/><path id="left_highlight" class="cls-8" d="M246.62,148.19a1.62,1.62,0,1,1-1.52-1.7A1.62,1.62,0,0,1,246.62,148.19Z"/></g><g id="earring"><path id="base-2" data-name="base" class="cls-6" d="M128.44,186.2v.14a1.48,1.48,0,0,0,0-.21,1.33,1.33,0,0,0,0-.21h0l0-.23a.07.07,0,0,1,0-.05,4.88,4.88,0,0,0-.12-.55.73.73,0,0,0-.05-.2.82.82,0,0,0-.06-.19c0-.12-.08-.25-.13-.37h0v0h0a.85.85,0,0,0-.09-.22l0,0,0-.07,0-.08h0l0-.05a0,0,0,0,0,0,0,1.3,1.3,0,0,0-.08-.17.25.25,0,0,1,0-.07,1,1,0,0,0-.07-.15,3,3,0,0,0-.23-.38.41.41,0,0,0-.07-.11,2.52,2.52,0,0,0-.24-.33,4,4,0,0,0-.26-.32,4.12,4.12,0,0,0-.28-.31,4.91,4.91,0,0,0-.63-.57c-.11-.09-.22-.18-.34-.26a6.68,6.68,0,0,0-1-.59,2.52,2.52,0,0,0-.29-.12l-.08,0h0l-.1,0h0l-.32-.13-.36-.1-.25-.06-.13,0-.29-.05a4.46,4.46,0,0,0-.51-.07,4.92,4.92,0,0,0-.67,0H121a4.94,4.94,0,0,0-1,.11,7.08,7.08,0,0,0-5.67,6,6,6,0,0,0-.07.95,7.09,7.09,0,0,0,7.08,7.09,6.55,6.55,0,0,0,1.94-.28,1.58,1.58,0,0,0,.37-.11,7.07,7.07,0,0,0,4.77-6.7A4.17,4.17,0,0,0,128.44,186.2Zm-12-.09a3.21,3.21,0,0,1,1.06-3.81c1.41-1.26,3.37-1.53,4.53-.66l.06.06a4.43,4.43,0,0,0-3.88,1A4.59,4.59,0,0,0,116.44,186.11Zm10.48,2.21a5.72,5.72,0,0,1-5.15,4.54c-2.13.1-3.42-1.66-3.07-1.41,3.07,2.14,6.4-.91,6.4-.91,1.54-1.55,1.76-4.72,1.77-4.72A5.39,5.39,0,0,1,126.92,188.32Z"/><path id="lowlight-2" data-name="lowlight" class="cls-7" d="M126.92,188.32a5.72,5.72,0,0,1-5.15,4.54c-2.13.1-3.42-1.66-3.07-1.41,3.07,2.14,6.4-.91,6.4-.91,1.54-1.55,1.76-4.72,1.77-4.72A5.39,5.39,0,0,1,126.92,188.32Z"/><path id="highlight-3" data-name="highlight" class="cls-8" d="M122.09,181.7a4.43,4.43,0,0,0-3.88,1,4.59,4.59,0,0,0-1.77,3.43,3.21,3.21,0,0,1,1.06-3.81c1.41-1.26,3.37-1.53,4.53-.66Z"/></g><path id="hair" class="cls-5" d="M286.53,90.18c8.8-17.27,7.52-29.53-5.79-31.84-6.15-18.43-22.58-19.69-22.58-19.69C257.27,22.32,224.31,15,224.31,15c-13.54-17.18-28.11-2.08-28.11-2.08-17.18-26-53.11-4.69-53.11-4.69C122.27-.09,115.39,11.19,112.9,14c-1.83,2-3.24,2.7-5.73,1.56C81.62,3.81,74.37,29.07,74.37,29.07c-26.55-1.57-16.66,20.3-16.66,20.3C27.6,44.74,42.77,89.6,42.77,89.6,16.71,90.76,30,128.4,30,128.4c.36,12,4.1,17.8,9,20,11,5-8.43-1.2-3.75,16.5-1.52,0-1.76,2.32-1,9.37.91,8.93,9.82,3.94,6.77,13-1.51,4.47,2.82,12.22,5.21,16.14,14.57,24,27.26-4.87,32.27,17.18,2.61,11.45,26.77,17.75,26.77,17.75,19.35,9.26,34.88-3.09,36.92-4.83l.23-.2a34.31,34.31,0,0,1-3.12-2.23l-.6-.49-.2-.17-.42-.35-.33-.31-.2-.18c-.24-.21-.47-.43-.7-.66s-.68-.67-1-1l-.06-.07-.12-.12c-.07-.08-.14-.15-.2-.23a3.45,3.45,0,0,1-.26-.28L135,227l-.09-.1c-.13-.15-.27-.3-.4-.46s-.36-.42-.53-.64l-.45-.57-.07-.08-.14-.19-.13-.18-.23-.3q-.69-.94-1.32-1.92c-.16-.23-.3-.46-.44-.68s-.28-.46-.41-.69l-.08-.13-.36-.62-.08-.15c-.27-.47-.52-.94-.76-1.42s-.45-.9-.66-1.35l0-.09c-.1-.2-.19-.41-.29-.62l-.07-.18-.16-.36c-.17-.38-.32-.76-.48-1.15s-.26-.66-.38-1-.18-.47-.26-.71-.25-.7-.37-1.06-.23-.71-.34-1.06-.29-.94-.42-1.41-.26-.93-.37-1.39-.2-.76-.28-1.13-.16-.7-.23-1-.12-.55-.17-.82-.14-.71-.2-1a2.56,2.56,0,0,1,0-.27c-.06-.35-.12-.69-.17-1l-.06-.38c-.11-.72-.21-1.41-.29-2.09,0-.4-.09-.79-.13-1.18,0-.18,0-.36,0-.54s-.06-.59-.08-.87-.07-.72-.08-1.07a.28.28,0,0,1,0-.09l0-.57c0-.12,0-.24,0-.35,0-.33,0-.65,0-1s0-.6,0-.88,0-.39,0-.58a1.58,1.58,0,0,1-.37.11,6.55,6.55,0,0,1-1.94.28,7.09,7.09,0,0,1-7.08-7.09,6,6,0,0,1,.07-.95,32,32,0,0,1-3.28-4.36c-16.29-17.63-8.54-29.27-8.54-29.27,4.71-5.34,13.4-1,18.11,2l.23.07.58.19.73-7c19.3,0,5-24.65,5-24.65,10.49-2.57,5.06-11.9,2.25-15.79l-.51-.69a6.42,6.42,0,0,0,.61.56c4.22,3.54,11,1.66,11,1.66,27.91-.59,24.94-16.33,24.94-16.33,9.21,11.29,25.54,17.52,25.54,17.52,29.7,11.29,33-1.78,33-1.78,7,6.51,12.32,7.72,15.78,7.43h0a8.46,8.46,0,0,0,4.57-1.63,26,26,0,0,1,1.86,3.06s0,0,0,0a46.28,46.28,0,0,1,2.08,4.54,27.69,27.69,0,0,0-5.75-.54h-.37a0,0,0,0,0,0,0,54.15,54.15,0,0,0-11.83,1.57l-.21.09a2.3,2.3,0,0,0-1.18,1.42,3.59,3.59,0,0,0,.42,2.54l.42.74.79-.31a51.6,51.6,0,0,1,12.51-2.8h.43a21.16,21.16,0,0,1,5.35.29l.2,0,.39.09.08,0c1.44,4,2.76,8.58,4,13.36h0l.67.09.18,0h0a20.64,20.64,0,0,1,8.06,3.07l.45,3.67,0,0s0,.09,0,.13l.2,1.65-.08,0c.38,6.69-1.21,11.39-3.62,14.7l0,.05a.18.18,0,0,1,0,.07c-.24.33-.49.64-.74.94,1.78,10.26,2.86,18.58,3.14,20.86a.08.08,0,0,1,0,0c.05.38.07.58.07.58h0l0,0c16.71-9.17,18.6-32.92,18.6-32.92,16.21-12.74,8.88-36.39,8.88-36.39C301,104.7,286.53,90.18,286.53,90.18Zm-251.23,39c.56.6,1.15,1.21,1.78,1.83.16.15.31.3.47.47A14.23,14.23,0,0,1,35.3,129.19Zm5.31-35.1c-14.31,19-9,30.42-5.34,35.06C15.64,107.68,41.26,93.22,40.61,94.09ZM83.77,59.62c-.12-.81,7.06,20.63-12.21,23.88C71.56,83.5,86.49,77.26,83.77,59.62Zm-16.54,59.2c.62,1,17.93,29.32-9.21,32.53C59,151.12,79.38,146.08,67.23,118.82ZM47.4,166.05c4.68,35.72,34.06,27.21,36.72,26.37C47.66,208.26,47.4,167.23,47.4,166.05Zm57.29,29.31c.72.76,21.11,26-13,25.5C91.64,220.86,119.85,218.68,104.69,195.36Zm-17.93-50s23.34,1.09,22.26-15.47C108.94,128.71,115.53,148.92,86.76,145.39Zm-2.14-48c1.06.38,30.95,10.82,47.74-5.44C132.36,91.92,117.17,114.44,84.62,97.36Zm18.36-70a58.55,58.55,0,0,0-7.09,1.71A43.43,43.43,0,0,1,103,27.38c12.24-2.16,31.11-1.14,33.45,24.63C136.43,52,129.73,23.45,103,27.38Zm64.4,3.31a19,19,0,0,1,3.24,2.81c5,4.9,12.06,15,3.28,27.45.21-.58,6.21-17.13-3.28-27.45A30.77,30.77,0,0,0,167.38,30.69Zm38.93,51.69c-7.05,4.64-18.42,6.5-36.76,1.12,0,0,17.89,3.64,31.86-2.73,8.27-3.78,15.17-11.06,16.18-24.68C217.59,56.09,219.18,73.89,206.31,82.38ZM182.85,17.27c.18-.22,36.73-10.45,42.35,20.36C225.2,37.63,217.59,14.55,182.85,17.27Zm58,88.53a17.77,17.77,0,0,1-2.28-1.25A20.8,20.8,0,0,1,232,97.74h0a26.48,26.48,0,0,1-1.38-2.61,27.23,27.23,0,0,1-2.19-7c9.23,22,32,17.91,32,17.91C251.83,108.59,245.48,107.94,240.83,105.8Zm15.88-19.87c.73-.57,17.3-13.79,3-36.09C259.23,49.16,281.37,71,256.71,85.93Zm11.37,48.33a2.7,2.7,0,0,1,.81-.12h.5C269,134.19,268.53,134.23,268.08,134.26Zm1.33-.12c15.17-1.86,14.15-17.52,14.15-17.52C287.47,134.57,273.83,134.18,269.41,134.14Z"/><g id="hair_highlights"><path class="cls-11" d="M269.41,134.14c15.17-1.86,14.15-17.52,14.15-17.52C287.47,134.57,273.83,134.18,269.41,134.14Z"/><path class="cls-11" d="M260.48,106c-8.65,2.56-15,1.91-19.65-.23a17.77,17.77,0,0,1-2.28-1.25A20.8,20.8,0,0,1,232,97.74h0a26.48,26.48,0,0,1-1.38-2.61,27.23,27.23,0,0,1-2.19-7C237.68,110.1,260.48,106,260.48,106Z"/><path class="cls-11" d="M256.71,85.93c.73-.57,17.3-13.79,3-36.09C259.23,49.16,281.37,71,256.71,85.93Z"/><path class="cls-11" d="M206.31,82.38c-7.05,4.64-18.42,6.5-36.76,1.12,0,0,17.89,3.64,31.86-2.73,8.27-3.78,15.17-11.06,16.18-24.68C217.59,56.09,219.18,73.89,206.31,82.38Z"/><path class="cls-11" d="M225.2,37.63s-7.61-23.08-42.35-20.36C183,17.05,219.58,6.82,225.2,37.63Z"/><path class="cls-11" d="M173.9,61c.21-.58,6.21-17.13-3.28-27.45C175.59,38.4,182.68,48.53,173.9,61Z"/><path class="cls-11" d="M132.36,91.92s-15.19,22.52-47.74,5.44C85.68,97.74,115.57,108.18,132.36,91.92Z"/><path class="cls-11" d="M136.43,52S129.73,23.45,103,27.38C115.22,25.22,134.09,26.24,136.43,52Z"/><path class="cls-11" d="M71.56,83.5s14.93-6.24,12.21-23.88C83.65,58.81,90.83,80.25,71.56,83.5Z"/><path class="cls-11" d="M86.76,145.39s23.34,1.09,22.26-15.47C108.94,128.71,115.53,148.92,86.76,145.39Z"/><path class="cls-11" d="M91.64,220.86s28.21-2.18,13-25.5C105.41,196.12,125.8,221.39,91.64,220.86Z"/><path class="cls-11" d="M84.12,192.42C47.66,208.26,47.4,167.23,47.4,166.05,52.08,201.77,81.46,193.26,84.12,192.42Z"/><path class="cls-11" d="M58,151.35c1-.23,21.36-5.27,9.21-32.53C67.85,119.83,85.16,148.14,58,151.35Z"/><path class="cls-11" d="M40.61,94.09c-14.31,19-9,30.42-5.34,35.06C15.64,107.68,41.26,93.22,40.61,94.09Z"/></g></svg>