<svg id="Layer_1" data-name="Layer 1" xmlns="http://www.w3.org/2000/svg" viewBox="0 0 327.04 356.39"><defs><style>.cls-1{fill:#e2ab90;}.cls-2{fill:#9f4c24;opacity:0.25;}.cls-3{fill:#010101;}.cls-4{fill:#737474;}.cls-5{fill:#606161;}.cls-6{fill:#323333;}.cls-7{fill:#171919;}.cls-8{fill:#fff;}.cls-9{fill:#6f3c18;}.cls-10{fill:#8a5335;}.cls-11{fill:#ccc;opacity:0.5;}.cls-12{fill:#bee1f7;}.cls-13{fill:#ffe6c5;}</style></defs><g id="skin"><path class="cls-1" d="M262.57,102.25a1.84,1.84,0,1,0,1.74,1.94A1.84,1.84,0,0,0,262.57,102.25ZM196,99h0l.22.09Zm0,0h0l.22.09Zm-13.55.3a1.84,1.84,0,1,0,1.74,2A1.84,1.84,0,0,0,182.41,99.32Zm0,0a1.84,1.84,0,1,0,1.74,2A1.84,1.84,0,0,0,182.41,99.32ZM196,99h0l.22.09Zm-13.55.3a1.84,1.84,0,1,0,1.74,2A1.84,1.84,0,0,0,182.41,99.32Zm-59.94,34.22c-3.39-3.91,2.08-7.27,2.08-7.27-4.52-11.27-13.66-7.63-14.18-7.36,0,0,9.17-.59,11.52,7.31,0,0-3,0-4.79,3.91,0,0-1.75,4.29,2.93,6.93.34.19,6.64,3.12,9-2.93l-.81-.81A4.38,4.38,0,0,1,122.47,133.54ZM196,99h0l.22.09Zm0,0h0l.22.09Z"/><path class="cls-1" d="M281.09,115.48l-.15.33a20.24,20.24,0,0,1-10.6,10.13,26.49,26.49,0,0,1-9.16,2.15c-18.53-.33-24.41-12.81-24.84-13.78a62,62,0,0,1,10.6-8.53,10.37,10.37,0,0,1,.46-1.24c0-.09.08-.18.13-.27l-1.24.87c-.35.25-.7.5-1,.77s-.58.44-.87.68-.5.39-.75.6-.78.64-1.18,1l-1.08,1c-1.26,1.14-2.54,2.37-3.82,3.72-.08.08-.15.17-.22.25s-.24.24-.36.36l.16-.22a1.79,1.79,0,0,1,.22-.28l.29-.38c2.9-3.71,14.63-17.69,28.74-19.83a22.62,22.62,0,0,1,9.8.6c-.91-3.29-1.86-6.38-2.81-9.26l-.4.1a8.12,8.12,0,0,0-4.45-5,16.3,16.3,0,0,0-6.31-1.36c-8.11-.31-17.58,3.22-17.7,3.27l-.8.3-.42-.73a4,4,0,0,1-.47-2.79,2.52,2.52,0,0,1,1.28-1.54l.21-.08A57.25,57.25,0,0,1,261,74.55c3.8.27,7.5,1.18,10.19,3.26-.9-2.44-1.79-4.69-2.64-6.75a.54.54,0,0,1,0-.11C266,65.6,260.6,56.17,252.05,50.87c-7.82-4.85-18.3-6.26-31.7,2,0,0-40.62-20.81-62.25-3.56,0,0-8.31,16.8,3.54,24.44a17.72,17.72,0,0,0,2.82,1.47A25.89,25.89,0,0,0,170,76.85a17.53,17.53,0,0,1-10.16,1A16.61,16.61,0,0,1,157,77c-4.43-1.76-9.2-5.84-12.94-14.48,0,0-26.7,39.33-4.63,56.81a32,32,0,0,0-8.46,1.78,58.41,58.41,0,0,0-7.76-5.58,1.27,1.27,0,0,0,0,.2c-.45-.33-1-.7-1.51-1.07-3.65-2.5-9.42-5.53-13.57-3.39a6.71,6.71,0,0,0-2.15,1.81s-7,11.68,7.7,29.37c0,0,6.24,11.59,12,8.47,1,10.38,1.94,17.24,1.94,17.24,3.34,22.81,19.76,30.42,25.34,32.37C154,211.19,152,219,149,224.36a43.82,43.82,0,0,0-7.86,15.71c-.12.46-.24.92-.35,1.38s-.21.91-.3,1.35a45.72,45.72,0,0,0-.76,12.79c.12,1.36.29,2.36.39,2.92,0,.16.06.29.08.4s0,.21.05.26a2.76,2.76,0,0,1,.06.4c.45,3,.84,6.14,1.2,9.29a1,1,0,0,1,0,.24c.19,1.7.37,3.4.54,5.11.16,1.52.31,3.05.46,4.59.09.27.06.88.15,1.15.19.54.7.77.9,1.31,0,0,0,0,0,0a53,53,0,0,0,3.79,8.21v0a1.19,1.19,0,0,0,.09.15,1.28,1.28,0,0,0,.11.2c5.45,9.22,14,15.8,27.4,15.59.27,0,24.13,1.27,31.78-24.23a0,0,0,0,1,0,0c.17-6.91.23-13.79.12-20.37a114.12,114.12,0,0,0-1-14.23v0A74.46,74.46,0,0,0,204.4,239h0q-.61-2.49-1.44-5l0-.13s0,0,0,0a.2.2,0,0,1,0-.08c-.1-.24-.2-.47-.29-.71a13.21,13.21,0,0,1-.43-1.35h0a15,15,0,0,1-.48-3.11v-.1a13.36,13.36,0,0,1,0-1.55c0-.12,0-.25,0-.4s0-.08,0-.21a1.34,1.34,0,0,1,0-.2.17.17,0,0,1,0-.07,28.72,28.72,0,0,1,2.75-9.4c.4-.84.8-1.64,1.2-2.37a46.49,46.49,0,0,1,2.6-4.17.86.86,0,0,1,.07-.1h0c.25-.36.47-.65.64-.88a6.92,6.92,0,0,1,1.05-.91c22.34-.28,35.54-4.59,35.54-4.59,1.76-.46,3.43-1,5-1.51l.16,0c33.53-11.49,33.66-40.33,33.66-40.33A246.44,246.44,0,0,0,281.09,115.48ZM120,137.06c-4.68-2.64-2.93-6.93-2.93-6.93,1.76-3.91,4.79-3.91,4.79-3.91-2.35-7.9-11.52-7.31-11.52-7.31.52-.27,9.66-3.91,14.18,7.36,0,0-5.47,3.36-2.08,7.27a4.38,4.38,0,0,0,5.73-.22l.81.81C126.67,140.18,120.37,137.25,120,137.06Zm35.82-42.84c30.82-14,51.77,9.15,56.84,15.6l0,0,.26.33.05.07c.56.73.85,1.16.85,1.16-.54-.55-1.09-1.09-1.64-1.61l-.1-.09,0,0a0,0,0,0,0,0,0l-.12-.11c-.73-.69-1.46-1.34-2.21-2l-.09-.07-.15-.14h0L209,107c-.59-.49-1.17-.95-1.77-1.39l-.84-.62-.07,0c-.13-.11-.27-.2-.41-.3l-.36-.26-.33-.22-.69-.47-.68-.44q-.45-.3-.9-.57c-.27-.17-.53-.33-.8-.48s-.73-.43-1.1-.63l-.61-.34-.48-.26-.37-.19c-.6-.32-1.21-.62-1.82-.9-.3-.15-.61-.29-.91-.42l-.68-.3L196,99h0l-.4-.16-.51-.21-.9-.35-1.36-.5c-.56-.2-1.12-.38-1.68-.56l-.54-.16-.62-.19-.27-.07-.88-.25-.18,0-1.57-.38-.08,0a11.29,11.29,0,0,1,1.58,2.6c.1.23.2.47.29.71a11.58,11.58,0,0,1,.6,2.42c.92,6.82-4.33,13.2-11.72,14.22a15.24,15.24,0,0,1-2,.14,13.94,13.94,0,0,1-8.37-2.74,11.76,11.76,0,0,1-2.66-16.21c.16-.25.34-.49.52-.72a16.22,16.22,0,0,1,1.18-1.31q-1,.12-1.86.27l-1.16.2-.28,0-.73.14h-.07l-.69.14-.26.06-.45.1-.35.07-.33.08-.64.16-.41.1-.38.1c-.25.06-.48.12-.7.19l-.64.18-.56.17-.47.15-.11,0-.1,0-.35.11-.37.13-.14.06h0Z"/></g><g id="skin_shade"><path class="cls-2" d="M150.67,356.22l-5.08-.11v-.06c0-.92.31-12.19,0-28.23-.28-13.57-1.29-30.71-3-47.72,0-.27,0-.47,0-.73-.69-6.9-1.31-13.7-2.36-20.36a42.2,42.2,0,0,1,2.46-23.54,1.12,1.12,0,0,1,.05-.13A45.26,45.26,0,0,1,149,224.48c-.52.89-7.95,14.35-2.57,55.12,0,0,.41,3.89,1,10.08.06.68.13,1.39.2,2.12.83,9.34,1.93,22.85,2.6,36.13.22,4.4.4,8.77.5,13,0,.17,0,.35,0,.52C150.82,346.77,150.83,351.82,150.67,356.22Z"/><path class="cls-2" d="M260.88,74.32s-7-15.81-8.83-23.45C260.6,56.17,266,65.6,268.47,71a37.61,37.61,0,0,1,1.72,4c.38,1,.76,2,1.15,3-2.7-2.18-6.48-3.13-10.37-3.41Z"/><path class="cls-2" d="M276.38,94h0c-.06-.21-.11-.41-.17-.61a22.62,22.62,0,0,0-9.8-.6,121.77,121.77,0,0,0-4.17-14.9,16.3,16.3,0,0,1,6.31,1.36,8.12,8.12,0,0,1,4.45,5l.4-.1h0l.1,0c.94,2.87,1.87,6,2.76,9.3Z"/><path class="cls-2" d="M284.32,160.77a13.77,13.77,0,0,1-.13,1.89c-.36,2.87-1.6,27.43-33.4,39.45l-.16,0q-2.87,1.09-6.08,2s-11.94,3.87-34.49,4.08l-1.69,1.79h0a.86.86,0,0,0-.07.1,35.1,35.1,0,0,0-2.6,4.17c-.4.73-.8,1.53-1.2,2.37a29.56,29.56,0,0,0-2.66,9c-.06.3-.09.55-.11.72s0,.2,0,.21,0,.28,0,.4a4.51,4.51,0,0,0,0,1.43s0,.08,0,.12,0,.23,0,.34.34,1.92.86,4.23c0,.2.09.4.14.6,0,0,0,0,0,0l0,.13a41,41,0,0,0,1.44,5h0a74.46,74.46,0,0,1,1.47,7.57v0c0,.82-.07,1.52-.13,1.93,0,0-36.4-27.4-52.53-47.45,0,0,1.48.49,4.15,1.22l.08,0c1.9.4,4.83,1,8.52,1.58a209.25,209.25,0,0,0,29.75,2.7h0c19.59.3,42.25-2.61,58.28-14.53,0,0,11.45-4.84,15.41-29.5a256.12,256.12,0,0,0,1.1-36.45,20.24,20.24,0,0,0,10.6-10.13A290.47,290.47,0,0,1,284.32,160.77Z"/><path class="cls-2" d="M129,134.13c-2.34,6.05-8.64,3.12-9,2.93-4.68-2.64-2.93-6.93-2.93-6.93,1.76-3.91,4.79-3.91,4.79-3.91-2.35-7.9-11.52-7.31-11.52-7.31.52-.27,9.66-3.91,14.18,7.36,0,0-5.47,3.36-2.08,7.27a4.38,4.38,0,0,0,5.73-.22Z"/></g><g id="nose"><path class="cls-3" d="M212.62,146s8.55-7.64,15.56-1.62c0,0,5.58,5.34-.23,12.54,0,0,10-8.61.78-15.87C228.73,141,221.39,135.76,212.62,146Z"/><path class="cls-3" d="M215.48,153.58s-.86-3.82,5.73-1.15Z"/></g><g id="shirt"><path id="shirt-2" data-name="shirt" class="cls-4" d="M201.41,356.1H145.57s.3-11-.17-28.11c-.36-13.15-2.8-48-2.75-48,0-.46-.11-1.41-.11-1.4.09.27.82,2.08,1,2.62,0,0,0,0,0,0a52.1,52.1,0,0,0,3.89,8.38,1.28,1.28,0,0,0,.11.2c5.45,9.22,14,15.8,27.4,15.59.27,0,24.13,1.27,31.78-24.23-.45,17.14-1.64,34.51-2.78,48.22C202.65,345.33,201.41,356.1,201.41,356.1Z"/><path id="shirt_shade" class="cls-5" d="M150.57,356.16l-5-.11h-.09s.18-11.13-.29-28.24c-.36-13.15-1.1-29.84-2.61-47.71q0-.17.06-.12c.05,0,.12.11.23.26s.29.47.48.83c0,0,0,0,0,0,1.28,2.36,3.7,7.68,3.89,8.38a.43.43,0,0,0,0,0c.1.72.2,1.48.3,2.27,1.16,9.32,2.18,22.84,2.72,36.13.19,4.4.32,8.78.38,13,0,.17,0,.35,0,.52C150.76,346.76,150.73,351.78,150.57,356.16Z"/></g><g id="jacket"><g id="jacket-2" data-name="jacket"><path class="cls-6" d="M314,275s0,0,0,0,0,0,0,0a46.5,46.5,0,0,0-27.32-19.56l-1.54-.44-.09,0-4.84-1.39-.25-.07L234,240.2a61.17,61.17,0,0,1,8.77,12.17,78.47,78.47,0,0,1,6.07,13.79,84.12,84.12,0,0,1,3.47,14.71,95.31,95.31,0,0,1,.93,15.11l-.11,1.33-1.16.16-15.81,2.12,15.26,16.82.37.43-.18.52-13.13,38.5a.48.48,0,0,1-.24.28H253l62.29,0C315.45,353.83,319,297.33,314,275Zm-22.35,81.06c-.32-1.3,1.63-24,1.63-24s1.64,23.74,1.64,24C294.44,356.15,291.69,356.06,291.69,356.06Z"/><path class="cls-6" d="M252.28,280.87a95.31,95.31,0,0,1,.93,15.11l-.11,1.33-1.16.16-15.81,2.12,15.26,16.82.37.43-.18.52-13.13,38.5a.48.48,0,0,1-.24.28h-.47l-36.55,0s1.27-11,2.59-26.84c1.14-13.71,2.33-31.08,2.78-48.22a0,0,0,0,1,0,0c.17-6.91.23-13.79.12-20.37a114.12,114.12,0,0,0-1-14.23v0a74.46,74.46,0,0,0-1.47-7.57h0q-.61-2.49-1.44-5l0-.13s0,0,0,0a19.21,19.21,0,0,1-1-4.83c0-.15,0-.3-.07-.46,3.89-.7,21.39.19,32.1,11.64h0l.11.12.08,0a61.17,61.17,0,0,1,8.77,12.17,78.47,78.47,0,0,1,6.07,13.79A84.12,84.12,0,0,1,252.28,280.87Z"/><path class="cls-6" d="M293.32,332s1.64,23.74,1.64,24c-.52.08-3.27,0-3.27,0C291.37,354.76,293.32,332,293.32,332Z"/><path class="cls-6" d="M315.31,356.1c.14-2.27,3.73-58.77-1.27-81.1.3.42.59.86.87,1.29,0,0,0,0,0,0a.42.42,0,0,1,.09.14,50.59,50.59,0,0,1,5.75,14.27s.15.48.41,1.47c0,.19.1.38.14.58s.15.6.23.95.2.88.31,1.34c.21,1,.45,2.11.71,3.42,0,0,0,0,0,.08s0,.14,0,.22a333.19,333.19,0,0,1,4,37c0,.32,0,.64.05,1l.09,2.15c.13,3.57.23,7.35.27,11.34l0,2.65c0,1,0,2.11,0,3.18Z"/><path class="cls-6" d="M314.91,276.29c-.28-.43-.57-.87-.87-1.29,0,0,0,0,0,0s0,0,0,0C314.34,275.37,314.63,275.83,314.91,276.29Z"/><path class="cls-6" d="M326.58,335.81a330.66,330.66,0,0,0-4-37.26A262.86,262.86,0,0,1,326.58,335.81Z"/><polygon class="cls-6" points="327.02 356.1 327.02 356.23 253.02 356.15 315.31 356.11 327.02 356.1"/><path class="cls-6" d="M149,224.43v0l0,0a36.23,36.23,0,0,0-6.27,10.86,1.12,1.12,0,0,0-.05.13A42.2,42.2,0,0,0,140.2,259c.93,6.32,1.7,12.94,2.34,19.63,0,.45.09.89.12,1.34q-.07,0-.06.12c1.51,17.87,2.25,34.56,2.61,47.71.47,17.11.29,28.24.29,28.24h.09v.06l-138.93.06H0c-.08-45.1,7-65.61,7-65.61,8-30.06,42.24-39.81,42.24-39.81l59.78-14.87c18.78-14.33,37.4-12.77,39.73-11.71C149,224.26,149.08,224.35,149,224.43Z"/><path class="cls-6" d="M145.59,356.05h-.09s.18-11.13-.29-28.24c-.36-13.15-1.1-29.84-2.61-47.71q0-.17.06-.12c1.58,16.87,2.32,34.07,2.67,47.83C145.74,343.77,145.6,355.13,145.59,356.05Z"/><path class="cls-6" d="M140.2,259a42.2,42.2,0,0,1,2.46-23.54A47.65,47.65,0,0,0,140.2,259Z"/></g><g id="jacket_shade"><path class="cls-7" d="M327,356.15h0l-11.72,0a.42.42,0,0,1,0-.07c.14-2.27,3.73-58.77-1.27-81.1,0,0,0,0,0,0s0,0,0,0c.33.07,3.82,3.88,7.11,17.25,0,.19.1.38.14.58s.15.63.23.95.2.88.31,1.34c.25,1.18.51,2.41.76,3.72.08.38.15.78.22,1.19.05.24.09.49.14.75s.1.52.14.78a274.71,274.71,0,0,1,3.53,35.28l.09,2.15c.1,2.29.17,4.66.23,7.11l0,4.23,0,2.65Z"/><path class="cls-7" d="M60.38,356.13c-.32-1.3,1.62-24,1.62-24s1.67,24,1.65,24C63.12,356.21,60.38,356.13,60.38,356.13Z"/><path class="cls-7" d="M295,356.07c-.52.08-3.27,0-3.27,0-.32-1.3,1.63-24,1.63-24S295,355.78,295,356.07Z"/></g><g id="lapels"><path class="cls-3" d="M253.21,296l-.11,1.33-1.16.16-15.81,2.12,15.26,16.82.37.43-.18.52-13.13,38.5a.48.48,0,0,1-.24.28.5.5,0,0,1-.4,0l-.07,0a.48.48,0,0,1-.24-.59l12-38.28-14.8-17.72-.56-.67.84-.15,15.09-4c.06-1.27.08-2.54.08-3.81a92.5,92.5,0,0,0-.51-9.69,82.39,82.39,0,0,0-2.85-14.41,78.61,78.61,0,0,0-5.44-13.68,59.85,59.85,0,0,0-8.17-12.23l0,0a.5.5,0,0,1,0-.7.52.52,0,0,1,.53-.09h0a.4.4,0,0,1,.15.1l0,0a61.17,61.17,0,0,1,8.77,12.17,78.47,78.47,0,0,1,6.07,13.79,84.12,84.12,0,0,1,3.47,14.71A95.31,95.31,0,0,1,253.21,296Z"/><path class="cls-3" d="M107.37,241l0,0a59.45,59.45,0,0,0-8.17,12.23A77.87,77.87,0,0,0,93.73,267a82.68,82.68,0,0,0-2.85,14.42,90.84,90.84,0,0,0-.42,13.5l15.08,4,.84.15-.56.67L91,317.45l12,38.28a.51.51,0,0,1-.33.63.5.5,0,0,1-.62-.32L89,317.55l-.18-.52.37-.44,15.26-16.82-15.82-2.12-1.16-.16-.11-1.33c0-.57,0-1.14,0-1.7a94,94,0,0,1,1-13.41,84.09,84.09,0,0,1,3.46-14.71,80.32,80.32,0,0,1,6.07-13.79,60.64,60.64,0,0,1,8.82-12.2.49.49,0,0,1,.7,0A.5.5,0,0,1,107.37,241Z"/></g></g><path id="mouth" class="cls-8" d="M203.22,154.36s5.23,17.8,18.81,20.82c0,0-21,16.2-32.23.93C189.8,176.11,180.9,162.27,203.22,154.36Z"/><path id="hair" class="cls-9" d="M275.51,14.27c2.79,4,2.83,9.08-1.75,11.75-3.65,2.13-9.05,1.36-9.05,1.36,7.6-5,5.07-15-2.33-17.78,2.72,4.79.29,8.47-1.19,9.58-2.43,1.79-7.47,1.61-12.11-1.94C226.67.13,197.23,3,197.23,3,160.9-8.19,142.4,15.26,142.4,15.26c-2.54-5.37,4-12.22,4-12.22-14.52,2.65-14.22,16.25-14.22,16.25s-5.69-7.66-14.25-6.82c-7.39.73-11.51,8.62-11.51,8.62,11.7.7,9.64,9.64,9.64,9.64-6.87-6.39-14.25.46-14.25.46,7.34-.92,8.73,3.68,8.73,3.68-18.58,33.18-3.53,73.39-2.37,76.37,4.15-2.14,9.92.89,13.57,3.39.51.28,1,.57,1.5.87a58.41,58.41,0,0,1,7.76,5.58,32,32,0,0,1,8.46-1.78c-22.07-17.48,4.63-56.81,4.63-56.81C147.8,71.13,152.57,75.21,157,77a16.61,16.61,0,0,0,2.84.86,17.53,17.53,0,0,0,10.16-1,25.89,25.89,0,0,1-5.54-1.59,17.72,17.72,0,0,1-2.82-1.47c-11.85-7.64-3.54-24.44-3.54-24.44,21.63-17.25,62.25,3.56,62.25,3.56,13.4-8.3,23.88-6.89,31.7-2C260.6,56.17,266,65.6,268.47,71c.52,1.11.68,1.38,1.72,4,9.45-1.56,20.76-13.28,21.42-29.59C292.73,17.5,275.51,14.27,275.51,14.27ZM119.83,57.54c-9.49,27.59,0,44.63.43,45.34C102.23,78.67,119.83,57.54,119.83,57.54Zm28-18.63h0c.11-.19.18-.29.18-.29l0,.17c-4.41,22.69,3.15,30,4.3,31C137,58.35,146.34,41.38,147.82,38.91Zm9-19.68s23.32-18.91,37.85-4C194.08,15,177.58,6.69,156.82,19.23Zm34.82,17.63c29,8.34,30.8-9.26,30.8-9.26C224.17,49.25,192.69,37.27,191.64,36.86Zm37-13.21c1.27.6,32.16,15.07,34.75-.46C263.39,23.19,265.15,46.51,228.64,23.65Zm43.13,43.57c17.61-16.37,10.45-41.52,9.74-43.85C294.85,55.86,272.32,67,271.77,67.22Z"/><g id="hair_highlights"><path class="cls-10" d="M271.77,67.22c17.61-16.37,10.45-41.52,9.74-43.85C294.85,55.86,272.32,67,271.77,67.22Z"/><path class="cls-10" d="M228.64,23.65c1.27.6,32.16,15.07,34.75-.46C263.39,23.19,265.15,46.51,228.64,23.65Z"/><path class="cls-10" d="M191.64,36.86c29,8.34,30.8-9.26,30.8-9.26C224.17,49.25,192.69,37.27,191.64,36.86Z"/><path class="cls-10" d="M152.28,69.76c-15.3-11.41-5.94-28.38-4.46-30.85h0c.11-.19.18-.29.18-.29l0,.17C143.57,61.47,151.13,68.79,152.28,69.76Z"/><path class="cls-10" d="M120.26,102.88c-18-24.21-.43-45.34-.43-45.34C110.34,85.13,119.85,102.17,120.26,102.88Z"/><path class="cls-10" d="M194.67,15.26c-.59-.3-17.09-8.57-37.85,4C156.82,19.23,180.14.32,194.67,15.26Z"/></g><g id="eyes"><g id="eye_whites"><path class="cls-8" d="M215.4,112.93a36.68,36.68,0,0,1-32.08,14.26s-32.08-1.92-28-29.42l.14-.06.37-.13.35-.11a1,1,0,0,1,.21-.07l.47-.15.56-.17.64-.18.7-.19.38-.1.41-.1c.41-.1.85-.21,1.32-.31l.45-.1,1-.2h0l.73-.14.28,0,1.16-.2q.9-.15,1.86-.27a16.22,16.22,0,0,0-1.18,1.31c-.18.23-.36.47-.52.72a11.76,11.76,0,0,0,2.66,16.21,13.94,13.94,0,0,0,8.37,2.74,15.24,15.24,0,0,0,2-.14c7.39-1,12.64-7.4,11.72-14.22a11.58,11.58,0,0,0-.6-2.42c-.09-.24-.19-.48-.29-.71a11.29,11.29,0,0,0-1.58-2.6l.08,0,1.57.38.18,0,.88.25.89.26.54.16c.56.18,1.12.36,1.68.56l1.36.5.9.35.51.21.4.17.22.09.68.3.91.42c.61.28,1.22.58,1.82.9l.37.19.48.26.61.34c.37.2.73.41,1.1.63l.8.48q.45.27.9.57l.68.44.69.47.33.22.36.26.41.3.07,0,.84.62c.6.44,1.18.9,1.77,1.39l.49.4h0l.15.14.09.07c.75.63,1.48,1.28,2.21,2l.12.11a0,0,0,0,1,0,0l0,0,.1.1c.55.52,1.1,1.06,1.64,1.61,0,0-.29-.43-.85-1.16l.24.24.2.24,0,0C214.15,111.47,214.77,112.19,215.4,112.93Z"/><path class="cls-8" d="M281.09,115.48l-.15.33a20.24,20.24,0,0,1-10.6,10.13,26.49,26.49,0,0,1-9.16,2.15c-18.53-.33-24.41-12.81-24.84-13.78a62,62,0,0,1,10.6-8.53,8.87,8.87,0,0,0-.3,1.39,9.9,9.9,0,0,0,2,7.39,12,12,0,0,0,8,4.54,12.51,12.51,0,0,0,1.71.12c5.24,0,9.81-3.3,11-8h0a7.58,7.58,0,0,0,.18-.95,9.8,9.8,0,0,0-1-5.82,11.22,11.22,0,0,0-5.17-5,35.67,35.67,0,0,1,4.33-.39A34.1,34.1,0,0,1,278,100.34h0a24.92,24.92,0,0,1,5.13,2A28.05,28.05,0,0,1,281.09,115.48Z"/><path class="cls-8" d="M247.53,104.27c-.05.09-.09.18-.13.27a10.37,10.37,0,0,0-.46,1.24,62,62,0,0,0-10.6,8.53v0l0,0c.27-.35.53-.69.81-1l-.16.22c.12-.12.23-.24.36-.36s.14-.17.22-.25c1.28-1.35,2.56-2.58,3.82-3.72l1.08-1c.4-.34.79-.67,1.18-1s.5-.41.75-.6.58-.46.87-.68.7-.52,1-.77Z"/></g><g id="eye_shade"><path class="cls-11" d="M164.51,95.5q.9-.15,1.86-.27a16.22,16.22,0,0,0-1.18,1.31c-.18.23-.36.47-.52.72a50.55,50.55,0,0,0-9.38,1.52l.17-1.07.37-.13.35-.11a1,1,0,0,1,.21-.07l.47-.15.56-.17.64-.18.7-.19.38-.1.41-.1c.41-.1.85-.21,1.32-.31l.45-.1,1-.2h0l.73-.14.28,0Z"/><path class="cls-11" d="M214.81,112.47a72,72,0,0,0-26-13c-.09-.24-.19-.48-.29-.71a11.29,11.29,0,0,0-1.58-2.6l.08,0,1.57.38.18,0,.88.25.89.26.54.16c.56.18,1.12.36,1.68.56l1.36.5.9.35.51.21.4.17.22.09.68.3.91.42c.61.28,1.22.58,1.82.9l.37.19.48.26.61.34c.37.2.73.41,1.1.63l.8.48q.45.27.9.57l.68.44.69.47.33.22.36.26.41.3.07,0,.84.62c.6.44,1.18.9,1.77,1.39l.49.4h0l.15.14.09.07c.75.63,1.48,1.28,2.21,2l.12.11a0,0,0,0,1,0,0l0,0,.1.1c.55.52,1.1,1.06,1.64,1.61,0,0-.29-.43-.85-1.16l-.05-.07-.26-.33.55.64.2.24,0,0C214.36,111.83,214.81,112.47,214.81,112.47Z"/><path class="cls-11" d="M247.53,104.27c-.05.09-.09.18-.13.27a10.37,10.37,0,0,0-.46,1.24,62,62,0,0,0-10.6,8.53l-.09.09.08-.11c.15-.19.49-.61,1-1.2.07-.08.14-.17.22-.25,1.28-1.35,2.56-2.58,3.82-3.72l1.08-1c.4-.34.79-.67,1.18-1s.5-.41.75-.6.58-.46.87-.68.7-.52,1-.77Z"/><path class="cls-11" d="M283.12,102.36a24.92,24.92,0,0,0-5.13-2h0a34.1,34.1,0,0,0-10.36-1.25,35.67,35.67,0,0,0-4.33.39,11,11,0,0,0-1.5-.61,9.84,9.84,0,0,0-1.87-.47c.53-.15,1-.28,1.56-.4l.71-.16.6-.12,1-.17,1.17-.18h.1l.83-.09.54,0,.88-.06a31.92,31.92,0,0,1,10.19,1c-.05-.24-.05-.24,0,0a24.83,24.83,0,0,1,5.5,2.16l.06.55C283.06,101.41,283.09,101.89,283.12,102.36Z"/></g><g id="eyes-2" data-name="eyes"><path class="cls-3" d="M213,110.26l-.05-.07-.26-.33,0,0c-5.07-6.45-26-29.57-56.84-15.6l-.56,3.56h0l.14-.06.37-.13.45-.15.11,0,.47-.15.56-.17.64-.18c.22-.07.45-.13.7-.19l.38-.1.41-.1,1-.24,1.06-.23.69-.14h.07l.73-.14.28,0,1.16-.2q.9-.15,1.86-.27a16.22,16.22,0,0,0-1.18,1.31c-.18.23-.36.47-.52.72a11.76,11.76,0,0,0,2.66,16.21,13.94,13.94,0,0,0,8.37,2.74,15.24,15.24,0,0,0,2-.14c7.39-1,12.64-7.4,11.72-14.22a11.58,11.58,0,0,0-.6-2.42c-.09-.24-.19-.48-.29-.71a11.29,11.29,0,0,0-1.58-2.6l.08,0c.52.12,1,.24,1.57.38l.18,0c.38.1.76.2,1.15.32s.77.22,1.16.35c.56.18,1.12.36,1.68.56s.91.32,1.36.5l.9.35.51.21.4.16.22.1.68.3c.3.13.61.27.91.42.61.28,1.22.58,1.82.9l.37.19.48.26.61.34c.37.2.73.41,1.1.63s.53.31.8.48.6.37.9.57l.68.44.69.47.33.22.36.26c.14.1.28.19.41.3l.07,0c.28.2.56.4.84.62.6.44,1.18.9,1.77,1.39l.49.4h0l.24.21c.75.63,1.48,1.28,2.21,2l.12.11a0,0,0,0,1,0,0l0,0,.1.1c.55.52,1.1,1.06,1.64,1.61C213.88,111.42,213.59,111,213,110.26ZM182.2,103a1.84,1.84,0,1,1,2-1.73A1.83,1.83,0,0,1,182.2,103Z"/><path class="cls-3" d="M184.15,101.27a1.84,1.84,0,1,1-1.74-2A1.84,1.84,0,0,1,184.15,101.27Z"/><path class="cls-3" d="M196,99l.22.1L196,99Z"/><path class="cls-3" d="M209.51,107.37l.24.21-.09-.07-.17-.15Z"/><path class="cls-3" d="M212.24,109.81l-.1-.09h0Z"/><path class="cls-3" d="M282.51,96.24a25.1,25.1,0,0,0-6.34-2.89,22.62,22.62,0,0,0-9.8-.6c-14.11,2.14-25.84,16.12-28.74,19.83l-.29.38-.22.28-.16.22.36-.36c.07-.08.14-.17.22-.25,1.28-1.35,2.56-2.58,3.82-3.72l1.08-.95c.4-.34.79-.67,1.18-1s.5-.41.75-.6.58-.46.87-.68.7-.53,1-.77l1.24-.87c-.05.09-.09.18-.13.27a10.37,10.37,0,0,0-.46,1.24,8.87,8.87,0,0,0-.3,1.39,9.9,9.9,0,0,0,2,7.39,12,12,0,0,0,8,4.54,12.51,12.51,0,0,0,1.71.12c5.24,0,9.81-3.3,11-8h0a7.58,7.58,0,0,0,.18-1,9.8,9.8,0,0,0-1-5.82,11.22,11.22,0,0,0-5.17-5,11,11,0,0,0-1.5-.61,9.84,9.84,0,0,0-1.87-.47c.53-.15,1-.28,1.56-.4l.71-.16.6-.12,1-.17,1.17-.18h.1l.83-.09.54,0,.88-.06a31.92,31.92,0,0,1,10.19,1,27,27,0,0,1,5.51,2.16l.06,0Zm-19.94,6a1.84,1.84,0,1,1-1.95,1.73A1.84,1.84,0,0,1,262.57,102.26Z"/><path class="cls-3" d="M264.31,104.19a1.85,1.85,0,1,1-1.74-1.94A1.85,1.85,0,0,1,264.31,104.19Z"/></g><g id="eye_highlights"><path class="cls-8" d="M184.15,101.27a1.84,1.84,0,1,1-1.74-2A1.84,1.84,0,0,1,184.15,101.27Z"/><path class="cls-8" d="M264.31,104.19a1.85,1.85,0,1,1-1.74-1.94A1.85,1.85,0,0,1,264.31,104.19Z"/></g></g><g id="eyebrows"><path class="cls-3" d="M152.62,82l-.38.35Z"/><path class="cls-3" d="M152.24,82.36l.38-.35Z"/><path class="cls-3" d="M159.84,77.83a45.89,45.89,0,0,0-6.72,5.07l-.34.32-1.39-1.43.05-.05A66.53,66.53,0,0,1,157,77,16.61,16.61,0,0,0,159.84,77.83Z"/><path class="cls-3" d="M208.67,81.44l-.65.75-.76-.65c-16.64-14.36-32.52-11.28-42.8-6.28a17.72,17.72,0,0,1-2.82-1.47c25.58-15.68,46.43,2.44,46.67,2.65a3.22,3.22,0,0,1,1.29,2.27A4,4,0,0,1,208.67,81.44Z"/><path class="cls-3" d="M274.89,83.67l-1.43.38-.1,0h0l-.4.1a8.12,8.12,0,0,0-4.45-5,16.3,16.3,0,0,0-6.31-1.36c-8.11-.31-17.58,3.22-17.7,3.27l-.8.3-.42-.73a4,4,0,0,1-.47-2.79,2.52,2.52,0,0,1,1.28-1.54l.21-.08A57.25,57.25,0,0,1,261,74.55c3.8.27,7.5,1.18,10.19,3.26l.18.14a10.13,10.13,0,0,1,3.44,5.19Z"/></g><g id="earring"><circle id="base" class="cls-8" cx="123.11" cy="144.78" r="4.42"/><path id="bottom_highlight" class="cls-12" d="M122.39,148.26c-.39,0,.76.21,1.17.21a3.37,3.37,0,0,0,3.37-3.37,3,3,0,0,0-.43-1.66s.31,2.13-.78,3.32A4.42,4.42,0,0,1,122.39,148.26Z"/><path id="top_highlight" class="cls-13" d="M123.6,141.62l-.08-.05a2.76,2.76,0,0,0-3.53,1,2.84,2.84,0,0,0-.12,3.39,3.82,3.82,0,0,1,.76-3.13A3.18,3.18,0,0,1,123.6,141.62Z"/></g></svg>