<svg id="Layer_1" data-name="Layer 1" xmlns="http://www.w3.org/2000/svg" xmlns:xlink="http://www.w3.org/1999/xlink" viewBox="0 0 356.47 370.26"><defs><style>.cls-1{fill:#fff;}.cls-2{fill:#d6b089;}.cls-3{fill:#9f4c24;opacity:0.25;}.cls-4{fill:#010101;}.cls-5{clip-path:url(#clip-path);}.cls-6{fill:#2c3583;}.cls-7{fill:#b9e5f4;opacity:0.69;}.cls-8{fill:#ed367d;}.cls-9{fill:#c61e61;}.cls-10{fill:#231f20;}.cls-11{fill:#787878;}.cls-12{fill:#ffc72b;}.cls-13{fill:#ccc;opacity:0.5;}</style><clipPath id="clip-path"><path id="white_ground" class="cls-1" d="M283.2,263.21c-5.17,33.65-80.49,32-80.86,32-78.61-1.3-78.94-33.62-79.58-40.11,0,0-18.11,2.26-35.46,4.78,0,0-42.17,5.89-57.38,31.12C29.92,291,6,320.79,6,367.37l347.1-.13s3.14-30-5.83-58.74c-6.19-19.85-25.49-36.4-53.34-42.37Z"/></clipPath></defs><g id="skin"><path class="cls-2" d="M174.08,293.13c-3.43-15.59-6-33.75-7.62-48-.26-2.21-.5-4.33-.72-6.33,4-5.31,8.64-15.66,8.48-25.07,0-.15,0-.3,0-.45s0-.37,0-.55c.46.1.71.13.71.13.82.24,1.64.48,2.46.7,23.21,6.52,42.52,7.66,57,6.85l0,.06h0c-.41.75-.78,1.5-1.13,2.23l-.09.2c-1.5,3.53-3.93,10.41-3.21,16.86a25.77,25.77,0,0,0,1.1,6.34l.06.19c.06.18.12.36.19.54a24,24,0,0,0,1.15,2.58c.11.22.23.42.33.6l.15.26.11.17a5.14,5.14,0,0,0,.32.49s0,0,0,0a1.1,1.1,0,0,0,.09.14h0l1.24.76c1.93,1,6.3,3.59,11.63,10.63l0,0A62.43,62.43,0,0,1,255,276.91a42.2,42.2,0,0,0,6,9.16S231,300.39,174.08,293.13Z"/><path class="cls-2" d="M304.57,173.6v-.11h0a310.72,310.72,0,0,0-1.69-32.86c0-.12,0-.24,0-.36-.57-5.34-1.28-10.38-2.06-15.11a1.71,1.71,0,0,1-.11.14,21.29,21.29,0,0,1-9.67,7,26.32,26.32,0,0,1-7.9,1.64c-18.46-.33-24.37-12.71-24.84-13.76a61.54,61.54,0,0,1,10.7-8.59,8.75,8.75,0,0,1,.59-1.46,61.88,61.88,0,0,0-10.5,9.06h0l-.18.17.59-.78.34-.44q.13-.15.27-.33c.22-.27.46-.57.74-.9l.9-1.06.34-.38c.57-.65,1.22-1.36,1.93-2.11l.86-.88.93-.93,1-1c.42-.39.85-.79,1.29-1.18.28-.26.57-.51.86-.75a.1.1,0,0,1,0,0l.57-.48c4.52-3.81,10.17-7.47,16.38-9a24.26,24.26,0,0,1,7.81-.66c-.09-.32-.2-.68-.32-1.07s-.17-.55-.27-.84c-.05-.14-.09-.28-.14-.42l-.18-.54-.06-.16c-.07-.23-.16-.47-.24-.71l-.06-.18-.54-1.49c-.85-2.29-2-5-3.4-8a28.48,28.48,0,0,0-7.27-.05,61,61,0,0,0-12.92,3.08l-.79.3-.42-.73a3.92,3.92,0,0,1-.47-2.78,2.52,2.52,0,0,1,1.28-1.55l.21-.08a61.34,61.34,0,0,1,11.72-1.77,37.53,37.53,0,0,1,7,.27l-.47-.91c-1.11-2.08-2.35-4.23-3.74-6.42l-.78-1.2c-.39-.6-.79-1.19-1.21-1.78a4,4,0,0,0-.22-.34s0,0,0,0l-.13-.18c-.68-1-1.38-1.92-2.1-2.87a1.34,1.34,0,0,0-.11-.14l0,0c-.2-.26-.4-.52-.61-.77-.37-.48-.75-1-1.13-1.42-.68-.82-1.38-1.64-2.09-2.45s-1.53-1.68-2.33-2.51l-.58-.6L271.2,60l0,0c-.32-.33-.65-.66-1-1s-.45-.45-.69-.68c-.42-.4-.85-.8-1.29-1.19s-.93-.84-1.4-1.24c-.65-.57-1.32-1.13-2-1.66a1.84,1.84,0,0,0-.22-.17l-.23-.19-.11-.09-.1-.09-.3-.23-.09-.07-.09-.06-.23-.19-.72-.55c-1-.72-2-1.43-3-2.12s-2.08-1.36-3.16-2a67.9,67.9,0,0,0-9-4.53c-.51-.22-1-.43-1.54-.63-.8-.31-1.61-.61-2.44-.9-.47-.17-.95-.33-1.44-.49-.75-.25-1.52-.48-2.31-.71-.57-.17-1.16-.33-1.75-.48s-1.39-.36-2.1-.52-1.42-.32-2.15-.47-1.45-.29-2.2-.41-1.36-.23-2.05-.33-1.51-.21-2.28-.3-1.51-.17-2.27-.24l-.76-.06-.26,0c-.55,0-1.11-.09-1.67-.12a79.84,79.84,0,0,0-42.8,28.13,74.85,74.85,0,0,0-7.14,11.25c-.68,1.3-1.33,2.64-1.95,4-.5,1.12-1,2.26-1.44,3.44a.11.11,0,0,0,0,.07A84.55,84.55,0,0,0,165.57,96a94.44,94.44,0,0,0-1.81,9.54s-4,54.1-1.1,99.56c0,.77.1,1.53.15,2.29a30.38,30.38,0,0,0,11.38,5.34c.46.1.71.13.71.13.82.24,1.64.48,2.46.7q5,1.41,9.78,2.49a169.57,169.57,0,0,0,47.24,4.36c19.34-1.09,30.1-5.68,30.1-5.68a68.44,68.44,0,0,0,19.06-7.21,3.79,3.79,0,0,0,.34-.2C305.88,194.38,304.57,173.6,304.57,173.6ZM208.92,102a11.73,11.73,0,0,1,1.85,3.26,10.94,10.94,0,0,1,.65,2.53,11.38,11.38,0,0,1,.1,1.54c0,6.2-5,11.73-11.83,12.68a15.09,15.09,0,0,1-2,.14,13.89,13.89,0,0,1-8.38-2.75,11.72,11.72,0,0,1-2.56-16.32,12.38,12.38,0,0,1,1.67-2,53.08,53.08,0,0,0-11,2.51l-.11,0,.32-2,.24-1.53c30.67-13.9,51.57,8.92,56.77,15.5l0,.06.29.36c.61.8.93,1.27.93,1.27A54.18,54.18,0,0,0,208.92,102Zm75.58,6.08a1.85,1.85,0,1,0,1.73,2A1.85,1.85,0,0,0,284.5,108.06Z"/></g><g id="skin_shading"><path class="cls-3" d="M175.71,213.87l.13,0Z"/><path class="cls-3" d="M279.85,81.46a108.28,108.28,0,0,0-7-14.3c-5.05-8.38-11.07-15.19-9.15-13.89l.09.06.09.07.3.23.1.09.11.09.23.19c1.19,1,3.29,2.9,6.59,5.92l0,0,.12.11,3.11,2.84a23,23,0,0,1,3.63,4.91l0,0a.08.08,0,0,1,0,0l1.19,1.89c0,.07-.05.14,0,.2,0-.1.43.23,1.07,1l.06.06s0,0,0,0A61.33,61.33,0,0,1,287,81.75l-.15,0A37.53,37.53,0,0,0,279.85,81.46Z"/><path class="cls-3" d="M293.92,98.48l-.2,0a24.26,24.26,0,0,0-7.81.66,108.84,108.84,0,0,0-4.07-12.51s-.21-.59-.6-1.62a28.48,28.48,0,0,1,7.27.05l.1,0A131.9,131.9,0,0,1,293.92,98.48Z"/><path class="cls-3" d="M304.62,172.69c0,.12,0,.41-.05.79h0c0,.47-.09,1.08-.16,1.64-.3,2.48-.24,19.9-20.53,32.22a3.79,3.79,0,0,1-.34.2,72.66,72.66,0,0,1-17.21,7.28s-36.31,14-90.49-.93c.77.18,4.94,1.15,11.3,2.18,20.14,3.24,62.23,7,87.65-11.89,0,0,11.45-4.85,15.42-29.51a258.68,258.68,0,0,0,.79-42.42,21.29,21.29,0,0,0,9.67-7c.83,4.66,1.57,9.65,2.17,15,0,.12,0,.24,0,.36A291.47,291.47,0,0,1,304.62,172.69Z"/><path class="cls-3" d="M255.91,279.06c-1-.7-62.94-45.11-81.69-65.3l-.57-.63.56.18c4.11,1.26,30.35,8.9,60,7.22,0,0-.44.82-1,2.2l-.09.2c-1.5,3.53-3.93,10.41-3.21,16.86a25.77,25.77,0,0,0,1.1,6.34l.06.19c.06.18.12.36.19.54a16.32,16.32,0,0,0,1.88,3.85,1.88,1.88,0,0,0,.12.18l.07.09a1.1,1.1,0,0,0,.09.14h0a2,2,0,0,0,.18.26c.05.05.42.18,1.06.5,1.93,1,6.3,3.59,11.63,10.63l0,0A88.88,88.88,0,0,1,255.91,279.06Z"/></g><path class="cls-4" d="M240.51,158.53s-.86-3.81,5.73-1.14Z"/><path class="cls-4" d="M239,151.77s8.56-7.65,15.56-1.63c0,0,5.58,5.34-.23,12.54,0,0,10-8.61.78-15.87C255.12,146.81,247.78,141.53,239,151.77Z"/><g id="shirt"><path id="white_ground-2" data-name="white_ground" class="cls-1" d="M283.2,263.21c-5.17,33.65-80.49,32-80.86,32-78.61-1.3-78.94-33.62-79.58-40.11,0,0-18.11,2.26-35.46,4.78,0,0-42.17,5.89-57.38,31.12C29.92,291,6,320.79,6,367.37l347.1-.13s3.14-30-5.83-58.74c-6.19-19.85-25.49-36.4-53.34-42.37Z"/><g class="cls-5"><polygon id="stripe_3" class="cls-6" points="356.19 328.19 2.86 328.13 4.83 318.49 354.89 318.32 356.19 328.19"/><polygon id="stripe_2" class="cls-6" points="356.47 367.86 0 370.26 2.41 358.47 355.12 358.3 356.47 367.86"/><polygon id="stripe_1" class="cls-6" points="344.96 290.12 16 290 17.97 279.46 343.38 279.57 344.96 290.12"/></g></g><g id="shirt_shading"><path class="cls-7" d="M282.9,260.89c32.72,7.57,57,25.51,63.36,43.9,4.35,12.64,7.74,32.06,7.23,57L353,368l-13.11.08S358.31,286,282.9,260.89Z"/><path class="cls-7" d="M88.08,347.67l6.31,20.48-7,0S90.77,360.84,88.08,347.67Z"/><path class="cls-7" d="M299.08,347.33l4.43,20.92-5.76-.11S300.82,360.83,299.08,347.33Z"/><path class="cls-7" d="M5.72,368.32s-1.55-55.09,33.74-88.67c0,0,30.3-16.53,65.08-22.72,0,0-49.41,12.74-62.15,25.48,0,0-29.79,26.34-33.06,86.08Z"/></g><path id="mouth" class="cls-1" d="M226.9,161s5.24,17.8,18.82,20.82c0,0-21,16.2-32.23.93C213.49,182.75,204.59,168.91,226.9,161Z"/><g id="hair"><path id="hair_color" class="cls-8" d="M285.21,36.78C248.55-10.45,196.31,1.3,196.31,1.3,134-4.17,114.13,48,114.13,48c-41.61,92.48-10.37,208.87-9.58,209.07.3.57.6,1.14.91,1.7,27.36,50.33,80,65.34,80,65.34-9.64-11.12-15.87-52.06-19-79-.26-2.21-.5-4.33-.72-6.33-1.17-10.78-1.74-18.08-1.74-18.08-.48-4.3-.87-8.77-1.19-13.33-.05-.76-.11-1.52-.15-2.29-2.93-45.46,1.1-99.56,1.1-99.56A94.44,94.44,0,0,1,165.57,96,84.55,84.55,0,0,1,169,85.12a.11.11,0,0,1,0-.07c.45-1.18.94-2.32,1.44-3.44.62-1.39,1.27-2.73,1.95-4a51.59,51.59,0,0,1,7.14-11.25,79.84,79.84,0,0,1,42.8-28.13c.56,0,1.12.07,1.67.12l.26,0,.76.06c.77.07,1.52.15,2.27.24s1.53.19,2.28.3,1.38.21,2.05.33,1.48.26,2.2.41,1.45.3,2.15.47,1.41.34,2.1.52,1.18.31,1.75.48c.79.23,1.56.46,2.31.71.49.16,1,.32,1.44.49.83.29,1.64.59,2.44.9.52.2,1,.41,1.54.63a67.9,67.9,0,0,1,9,4.53c1.08.64,2.13,1.31,3.16,2s2,1.4,3,2.12l.72.55.32.25.09.07.3.23.1.09.11.09.23.19a1.84,1.84,0,0,1,.22.17c.68.53,1.35,1.09,2,1.66.47.4.94.82,1.4,1.24s.87.79,1.29,1.19c.24.23.47.45.69.68s.67.65,1,1l0,0,.7.71c.8.83,1.57,1.66,2.33,2.51s1.41,1.63,2.09,2.45c.38.47.76.94,1.13,1.42.22.27.43.55.64.82a.08.08,0,0,1,0,0l.09.1c.72,1,1.42,1.91,2.1,2.87l.07.12c.11.14.21.29.3.43.42.59.82,1.18,1.21,1.78l.78,1.2c1.39,2.19,2.63,4.34,3.74,6.42l.47.91.15,0c5.31.77,10.05,3,11.59,8.36l.11.52-1.93.51a8.14,8.14,0,0,0-4.46-5,13.86,13.86,0,0,0-3.72-1.1l-.1,0c1.44,3,2.55,5.72,3.4,8l.54,1.49.06.18c.08.24.17.48.24.71l.06.16.18.54c.05.14.09.28.14.42q.15.44.27.84c.12.39.23.75.32,1.07l.2,0a22.17,22.17,0,0,1,6.88,1.76C306,62.67,285.21,36.78,285.21,36.78ZM124,52.94c-16.62,101.79-2.37,195.08-1.79,198.79C97.15,122.85,124,52.94,124,52.94Zm18.68,32.13,11.69,6.16.32.16,0,.35-1.12,8.84-.6-.25c-.95-.38-23.37-9.49-32-16.8l-.21-.18L122,74.19l.62.33,14.84,7.81-.07-.07c-.74-.84,9.53-62.07,58.87-68.51C193.62,14.34,150.87,24.82,142.66,85.07Z"/><g id="dark_hair"><path class="cls-9" d="M174.22,213.76c.16,9.41-4.52,19.76-8.48,25.07-1.17-10.78-1.74-18.08-1.74-18.08-.48-4.3-.87-8.77-1.19-13.33a30.38,30.38,0,0,0,11.38,5.34c0,.18,0,.36,0,.55S174.22,213.61,174.22,213.76Z"/><path class="cls-9" d="M184,208.18c-.68-1.13-25.39-42.6-18.41-112.15A84.55,84.55,0,0,1,169,85.12a.11.11,0,0,1,0-.07c.46-1.12,1-2.29,1.51-3.5s1.21-2.64,1.88-4a51.59,51.59,0,0,1,7.14-11.25l.12-.13c-.1.3-1.33,4.06-2.85,10.59-.25,1.06-.5,2.19-.76,3.39C171.05,103.62,164.61,153.65,184,208.18Z"/><path class="cls-9" d="M282.93,264.71c0,12.76,1.11,26,4.27,38,0,0-22.59-5.8-32.21-25.75a62.43,62.43,0,0,0-8.67-14.35l0,0c-5.33-7-9.7-9.68-11.63-10.63l-1.24-.76h0a1.1,1.1,0,0,1-.09-.14s0,0,0,0a5.14,5.14,0,0,1-.32-.49l-.11-.17-.15-.26-.33-.6a24,24,0,0,1-1.15-2.58c-.07-.18-.13-.36-.19-.54l-.06-.19a25.77,25.77,0,0,1-1.1-6.34c-.72-6.45,1.71-13.33,3.21-16.86l.09-.2c.35-.73.72-1.48,1.13-2.23h0c1.12,0,33-1.31,56.08-18C290.44,202.47,283,232.18,282.93,264.71Z"/><path class="cls-9" d="M233.31,251l-.06-.07a1.88,1.88,0,0,1-.12-.18c-.07-.12-.16-.25-.25-.41l.11.17A5.14,5.14,0,0,0,233.31,251Z"/><path class="cls-9" d="M229.9,239.79a25.77,25.77,0,0,0,1.1,6.34c-1.63-4.83-2.71-12.92,2.11-23.2C231.61,226.46,229.18,233.34,229.9,239.79Z"/><path class="cls-9" d="M246.29,262.52a48.68,48.68,0,0,0-11.63-10.63C236.59,252.84,241,255.48,246.29,262.52Z"/><path class="cls-9" d="M139.17,126.42s-.71,136.73,23.67,179.12C162.84,305.54,143.76,245.13,139.17,126.42Z"/><path class="cls-9" d="M122.19,251.73C97.15,122.85,124,52.94,124,52.94,107.36,154.73,121.61,248,122.19,251.73Z"/><path class="cls-9" d="M219.72,7.36S278,10.18,295.33,77C295.33,77,280.14,22.9,219.72,7.36Z"/><path class="cls-9" d="M136.47,92.91c-.06.31.06,15.19,2.7,22.6,0,0-.11-15.16,1.34-20.64Z"/><path class="cls-9" d="M196.27,13.75c-2.65.59-45.4,11.07-53.61,71.32,0,0-4.65-2.12-5.26-2.81C136.66,81.42,146.93,20.19,196.27,13.75Z"/><path class="cls-9" d="M232.09,27.14s42,12.37,50.52,41C282.61,68.12,271.3,44.1,232.09,27.14Z"/></g><path id="hair_part" class="cls-4" d="M196,1.36a68.46,68.46,0,0,1,17.58,15.27,51,51,0,0,1,6.32,9.92l1.2,2.71c.39.9.64,1.86,1,2.8l.46,1.41c.14.47.22,1,.33,1.45l.32,1.45.15.73a.77.77,0,0,1-.3.8l-1,.14a.85.85,0,0,1-.6-.63l-.13-.69-.27-1.39c-.1-.46-.16-.93-.28-1.39l-.42-1.35c-.3-.9-.52-1.82-.88-2.7l-1.09-2.63a54.34,54.34,0,0,0-5.91-9.76A69.06,69.06,0,0,0,204.76,9a67.3,67.3,0,0,0-9-7.27Z"/></g><g id="hair_clip"><path class="cls-10" d="M154.35,91.23l-11.69-6.16,0,0-.07,0a38.78,38.78,0,0,1-5-2.67l0,0-14.84-7.81-.62-.33-1.34,9.16.21.18c8.67,7.31,31.09,16.42,32,16.8l.6.25,1.12-8.84,0-.35Zm-2.28,7.1c-12-4-24.7-12.31-28.39-14.8,8.64,5.68,28.39,13.6,28.39,13.6Z"/><path id="clip_highlight" class="cls-11" d="M152.07,97.13v1.2c-12-4-24.7-12.31-28.39-14.8C132.32,89.21,152.07,97.13,152.07,97.13Z"/></g><path id="nosering" class="cls-12" d="M258,157a4.14,4.14,0,0,1,2.49.3,4.75,4.75,0,0,1,1.94,1.7,5.1,5.1,0,0,1,.8,2.5,5.32,5.32,0,0,1-.57,2.58,4.83,4.83,0,0,1-4.47,2.51,4,4,0,0,1-2.44-1,5,5,0,0,1-1.36-2,.5.5,0,0,1,.3-.64.51.51,0,0,1,.59.18v0a3.38,3.38,0,0,0,2.93,1.66,3.24,3.24,0,0,0,2.63-1.66,3.6,3.6,0,0,0,0-3.2,3.53,3.53,0,0,0-2.78-1.93h0a.51.51,0,0,1-.45-.55A.5.5,0,0,1,258,157Z"/><g id="eyebrows"><path class="cls-4" d="M170.47,81.61c-.5,1.12-1,2.26-1.44,3.44.46-1.12,1-2.29,1.51-3.5Zm55.62-.72a3.22,3.22,0,0,0-1.29-2.27c-.24-.22-21.8-19-48-1.83-.25,1.06-.5,2.19-.76,3.39,9.59-6.11,28.12-13.36,47.68,3.53l.76.65.65-.75A3.92,3.92,0,0,0,226.09,80.89Z"/><path class="cls-4" d="M298.72,90.63l-1.93.51a8.14,8.14,0,0,0-4.46-5,13.86,13.86,0,0,0-3.72-1.1l-.1,0a28.48,28.48,0,0,0-7.27-.05,61,61,0,0,0-12.92,3.08l-.79.3-.42-.73a3.92,3.92,0,0,1-.47-2.78,2.52,2.52,0,0,1,1.28-1.55l.21-.08a61.34,61.34,0,0,1,11.72-1.77,37.53,37.53,0,0,1,7,.27l.15,0c5.31.77,10.05,3,11.59,8.36Z"/></g><g id="eyes"><g id="eye_whites"><path class="cls-1" d="M237.33,118.74A36.68,36.68,0,0,1,205.24,133s-33.59-2-27.66-31.38l-.32,2,.11,0a53.08,53.08,0,0,1,11-2.51,12.38,12.38,0,0,0-1.67,2,11.72,11.72,0,0,0,2.56,16.32,13.89,13.89,0,0,0,8.38,2.75,15.09,15.09,0,0,0,2-.14c6.82-.95,11.83-6.48,11.83-12.68a11.38,11.38,0,0,0-.1-1.54,10.94,10.94,0,0,0-.65-2.53,11.73,11.73,0,0,0-1.85-3.26,54.18,54.18,0,0,1,26.93,15.3s-.32-.47-.93-1.27c.13.13.25.27.36.4C236,117.16,236.65,117.94,237.33,118.74Z"/><path class="cls-1" d="M300.78,125.15a1.71,1.71,0,0,1-.11.14,21.29,21.29,0,0,1-9.67,7,26.32,26.32,0,0,1-7.9,1.64c-18.46-.33-24.37-12.71-24.84-13.76a61.54,61.54,0,0,1,10.7-8.59,8.82,8.82,0,0,0-.35,1.54,9.91,9.91,0,0,0,2,7.39,12.06,12.06,0,0,0,8,4.54,14,14,0,0,0,1.69.11,11.53,11.53,0,0,0,9.61-4.9,9.64,9.64,0,0,0,1.55-4,9.93,9.93,0,0,0-2-7.4,10.77,10.77,0,0,0-1.68-1.76,11.73,11.73,0,0,0-2.63-1.7q1.14-.18,2.22-.27a34.47,34.47,0,0,1,8.71.27l.51.08a28.47,28.47,0,0,1,8.49,2.78C305.48,116,303.6,121.37,300.78,125.15Z"/></g><g id="eye_shade"><path class="cls-13" d="M188.41,101.1a12.38,12.38,0,0,0-1.67,2,51.1,51.1,0,0,0-9.52,1.54l.15-1A53.08,53.08,0,0,1,188.41,101.1Z"/><path class="cls-13" d="M236.73,118.28a72.06,72.06,0,0,0-26-13,11.73,11.73,0,0,0-1.85-3.26,54.18,54.18,0,0,1,26.93,15.3s-.32-.47-.93-1.27l-.29-.36c.24.27.45.52.65.76C236.23,117.57,236.73,118.28,236.73,118.28Z"/><path class="cls-13" d="M269.55,110.09a8.75,8.75,0,0,0-.59,1.46,61.54,61.54,0,0,0-10.7,8.59l-.08.08.07-.1c.13-.15.39-.49.8-1h0A61.88,61.88,0,0,1,269.55,110.09Z"/><path class="cls-13" d="M305.05,108.18a28.47,28.47,0,0,0-8.49-2.78l-.51-.08a34.47,34.47,0,0,0-8.71-.27q-1.08.09-2.22.27a12.52,12.52,0,0,0-3.3-1c.45-.12.89-.24,1.32-.34l1.3-.28,1.22-.22,1.28-.18.2,0,.85-.09c.67-.06,1.32-.1,2-.12.26,0,.52,0,.78,0h1.19l.62,0c.69,0,1.36.09,2,.16l.93.11.55.08.19,0,1.15.22.61.13.54.12.39.1.38.1c.67.18,1.28.37,1.84.56l.58.21.67.25.7.29a15.91,15.91,0,0,1,1.83.9C305,107,305,107.58,305.05,108.18Z"/></g><path class="cls-4" d="M210.77,105.24a11.73,11.73,0,0,0-1.85-3.26,54.18,54.18,0,0,1,26.93,15.3s-.32-.47-.93-1.27l-.29-.36,0-.06c-5.2-6.58-26.1-29.4-56.77-15.5l-.24,1.53-.32,2,.11,0a53.08,53.08,0,0,1,11-2.51,12.38,12.38,0,0,0-1.67,2,11.72,11.72,0,0,0,2.56,16.32,13.89,13.89,0,0,0,8.38,2.75,15.09,15.09,0,0,0,2-.14c6.82-.95,11.83-6.48,11.83-12.68a11.38,11.38,0,0,0-.1-1.54A10.94,10.94,0,0,0,210.77,105.24Zm-6.65,3.58a1.84,1.84,0,1,1,1.95-1.74A1.85,1.85,0,0,1,204.12,108.82Z"/><path class="cls-4" d="M304.88,106.18l-.24-2,0-.19-.23-1.9a25.45,25.45,0,0,0-3.59-1.9,22.17,22.17,0,0,0-6.88-1.76l-.2,0a24.26,24.26,0,0,0-7.81.66c-6.21,1.53-11.86,5.19-16.38,9l-.57.48a.1.1,0,0,0,0,0c-.29.24-.58.49-.86.75-.44.39-.87.79-1.29,1.18l-1,1-.93.93-.86.88c-.71.75-1.36,1.46-1.93,2.11l-.34.38-.9,1.06c-.28.33-.52.63-.74.9s-.18.23-.27.33l-.34.44-.59.78.18-.17h0a61.88,61.88,0,0,1,10.5-9.06,9.83,9.83,0,0,0-.94,3,9.91,9.91,0,0,0,2,7.39,12.06,12.06,0,0,0,8,4.54,14,14,0,0,0,1.69.11,11.53,11.53,0,0,0,9.61-4.9,9.64,9.64,0,0,0,1.55-4,9.93,9.93,0,0,0-2-7.4,10.77,10.77,0,0,0-1.68-1.76,11.73,11.73,0,0,0-2.63-1.7,12.52,12.52,0,0,0-3.3-1c.45-.12.89-.24,1.32-.34s.88-.2,1.3-.28.82-.16,1.22-.22l1.28-.18.2,0,.85-.09c.67-.06,1.32-.1,2-.12.26,0,.52,0,.78,0h1.19l.62,0c.69,0,1.36.08,2,.16l.93.11.55.08.19,0,1.15.22.61.13.54.12.39.1.38.1c.67.18,1.28.37,1.84.56l.58.21.67.25.7.29a15.91,15.91,0,0,1,1.83.9Zm-20.38,1.88a1.85,1.85,0,1,1-1.95,1.74A1.85,1.85,0,0,1,284.5,108.06Z"/><g id="eye_highlight"><path class="cls-1" d="M206.07,107.08a1.84,1.84,0,1,1-1.73-1.94A1.85,1.85,0,0,1,206.07,107.08Z"/><path class="cls-1" d="M286.23,110a1.84,1.84,0,1,1-1.73-2A1.85,1.85,0,0,1,286.23,110Z"/></g></g></svg>