<svg xmlns="http://www.w3.org/2000/svg" id="avatar" data-name="trAvatar" viewBox="0 0 143.72 168.52"><defs><style>.cls-2{fill:#537f79}.cls-3{fill:#010101}.cls-6{fill:#fff}</style></defs><path d="M0 0h143.72v168.52H0z" style="fill:none"/><path d="M143.43 168.13c-39.91 0-102.98.03-143.14.04.42-47.09 14.23-37.36 46.72-51.44 2.27-1.33.66-2.16.06-2.19-16.74-7.07-11.43-73.81-3.22-87.41 18.5-30.66 66.52-16.06 74.43 2.02 7.38 16.86 8.52 45.64 4.44 67.06-1.04 5.1-3.11 10.62-5.44 14.88-.22 1.94.58 3.97.18 5.97-.19 1.09-.66 2.15-1.65 3.03-4.13 4.65 2.48 6.78 6.08 8.2h.04c23.7 8.98 21.07 22.71 21.5 39.84" class="cls-3"/><path d="M131.41 133.13c-12.87-2.11-9.41 32.68-9.47 35.04l-56.28.07c5.44-6.71-.84-15.87 1.36-22.86.05-.25-33.91-8.78-35.71-22.9-.31-2.41 2.86-4.05 4.76-3.72 3.85.43 9.75-1.25 7.58-4.26-11.66-9.22-8.24-74.02.21-87.34 4.73-9.32 14.1-15.06 23.86-17.98 23.98-8.65 44.01 6.7 50.57 20 8.22 19.94 8.52 45.61 4.44 67.02-.99 5.27-3.34 10.75-5.5 15.22.05 2.94 1.25 6.39-1.42 8.7-1.99 1.76-1.02 5.58 1.62 5.87 8.62.95 19.11 5.43 13.98 7.13Z" style="fill:#81a29d"/><g id="hijab_shade"><path d="M65.91 144.97s24.97 5.31 61.72-11.6c0 0-32.31 13.18-61.72 11.6m-1.52-45.82s13.29 13.15 53.03 11.55c0 0-33.68 6.4-53.03-11.55" class="cls-2"/><path d="M48.36 94.03c-.22-.43 13.56 26.54 66.75 25.9 0 0-49.65 7.73-66.75-25.9" class="cls-2"/><path d="M114.7 124.51s-43.83 12.73-70.75-10.19c0 0 26.89 19.04 70.75 10.19m-79.02-6.2c-.23-.48 16.36 23.31 54.34 20.27 0 0-40.3 8.33-54.34-20.27" class="cls-2"/><path d="M63.58 132.65c7.82 1.18 15.25 2.11 22.32 1.94 18.49-.71 34.07-8.72 41.37-5.95 0 0-8.85.61-24.73 5.19 0 0-8.58 2.77-17.25 2.59-14.78-.3-31.73-5.28-21.71-3.77m48.87-41.02s5.13-9.29 7.21-23.71c0 0 1.25 13.69-7.21 23.71M61.66 16.32s-6.09 12.02-7.21 43.58c0 0-4.06-27.73 7.21-43.58m54.18 122.16c-.67 1.69-5.67 14.72-6.56 29.51 0 0 6.61-29.64 6.56-29.51m-10.6 3.14s-3.04 7.37-3.2 15.38c0 0-1.35-10.3 3.2-15.38m-20.51 8.97c.12-.47 0 9.29 1.92 17.47 0 0-4.13-8.54-1.92-17.47" class="cls-2"/></g><path d="M115.5 81.21s.33 15.97-20.23 24.41c0 0-9.79 4.8-24.51-2.47-.88-.43-1.77-.91-2.69-1.43 0 0-10.75-6.08-12.82-18.27 0 0-3.53-29 3.05-42.46 0 0 7.44-17.91 30.12-16.19 0 0 6.83.69 14.12 5.6 14.25 9.6 13.29 33.68 13.3 33.67.12 1.98-.02 13.45-.34 17.13Z" style="fill:#c79763"/><path id="skin_shade" d="M116.01 70.39c-.37 7.2.81 14-3.52 21.19-2.96 4.97-8.95 11.67-20.35 15.23-.05-.17-4.26 1.7-11.06.36h-.03c-2.6-.53-5.59-1.51-8.88-3.24-.47-.24-.92-.5-1.4-.78a43 43 0 0 1-3.58-2.29c9.31 6.86 39.95 9.91 43.44-15.77 0 0 1.28-7.2 1.45-16.61-.87-11.74-.37-22.27-6.73-32.79-1.53-2.52-3.08-5.04-2.81-5.29 3.92 3.06 7.04 5.59 10.14 13.96 1.62 4.06 3.72 15.34 3.32 26.02Z" style="fill:#9f4c24;opacity:.25"/><path id="mouth" d="M83.65 78.51s2.42 8.23 8.69 9.62c0 0-9.7 7.49-14.89.43 0 0-4.11-6.4 6.2-10.05" class="cls-6"/><path id="nose" d="M90.43 77.89s-.4-1.76 2.65-.53zm-1.32-3.51s3.95-3.53 7.19-.75c0 0 2.58 2.47-.11 5.8 0 0 4.63-3.98.36-7.34 0 0-3.39-2.44-7.45 2.29Z" class="cls-3"/><g id="eye_whites"><path id="rt_eye_white" d="M84.91 60.01s-4.95 7.29-14.83 6.59c0 0-14.72-.88-12.96-13.46 3.86-7.22 23.34 2.43 27.72 6.87-.03-.04-.06-.08-.09-.13.06.04.12.08.17.12Z" class="cls-6"/><path id="left_eye_white" d="M118.41 55.07c-.02 3.85-1.09 7.28-2.57 9-7.57 8.27-19.31-.42-19.53-4.06 1.88-1 13.33-9.28 22.1-4.94" class="cls-6"/></g><path id="eyes" d="M72.74 55.47c.82 4.96-5.99 8.42-10.01 5.44-3.43-2.16-3.05-7.32.39-9.27-4.36-.29-5.58.94-6.12 1.66l.25-1.93c8.18-7.14 24.39 4.22 27.57 8.64-5-2.79-9.12-4.71-12.52-6.01.21.46.36.94.43 1.46Zm45.67.46c-1.13-1.62-6.39-1.69-8.9-.95 3.18 1.75 3.41 6.68.05 8.39-3.77 2.28-9.4-1.44-7.94-5.82a80 80 0 0 0-5.22 2.4c4.79-3.96 21.36-14.57 22.02-4.02Z" class="cls-3"/><g id="eyebrows"><path id="rt_eyebrow" d="M83.89 45.97c-12.88-9.79-23.6-1.36-26.15.96-.41 0-.63-.55-.3-.82 14.05-13.34 28.98-2.91 26.45-.14" class="cls-3"/><path id="left_eyebrow" d="M113.49 48.44h-.02c-.23.1-.52-.04-.6-.28-1.25-5.32-13.4-1.79-13.67-1.51-.67.1-.87-.59-.77-1.49.63-1.38 5.72-1.97 10.57-1.35 1.97.21 5.57 2.59 4.48 4.63Z" class="cls-3"/></g></svg>