<svg id="Layer_1" data-name="Layer 1" xmlns="http://www.w3.org/2000/svg" viewBox="0 0 310.96 364.63"><defs><style>.cls-1{fill:none;}.cls-2{fill:#010101;}.cls-3{fill:#81a29d;}.cls-4{fill:#537f79;}.cls-5{fill:#c79763;}.cls-6{fill:#9f4c24;opacity:0.25;}.cls-7{fill:#fff;}</style></defs><rect class="cls-1" width="310.96" height="364.63"/><path id="dress" class="cls-2" d="M307.57,318.85C305.36,305,295.85,295.37,284.32,288a134.41,134.41,0,0,0-16.69-8.8h0c-1.27-.58-2.53-1.13-3.79-1.67h-.11c-3.87-1.68-7.53-3.22-11-4.68a7.82,7.82,0,0,1-2.12-13.06,10.94,10.94,0,0,0,3.58-6.56,15.31,15.31,0,0,0,.18-1.66,19.39,19.39,0,0,0,0-2.41c0-.2,0-.4,0-.6-.1-1.72-.36-3.36-.53-4.81l-.06-.61c0-.23,0-.45-.05-.66a11.45,11.45,0,0,1,0-1.43c0-.15,0-.29,0-.43l.06-.3a2.67,2.67,0,0,1,.3-.85,95.14,95.14,0,0,0,8.44-19.81c.18-.59.36-1.17.52-1.75.34-1.16.67-2.33,1-3.52.17-.63.34-1.28.5-1.92l.51-2.08c.18-.75.35-1.5.52-2.25,0,0,0,0,0,0,.42-1.85.8-3.73,1.17-5.64.19-1,.36-1.92.53-2.89s.35-2.08.52-3.13.35-2.25.51-3.38c.73-5.08,1.3-10.29,1.72-15.58a325,325,0,0,0,.12-48c-.73-10.35-1.91-20.33-3.48-29.5q-.5-2.87-1-5.62L265.12,92c-2.43-11.81-5.56-21.84-9.18-28.95C251.82,55,227.17,17.74,188.16,15a115.6,115.6,0,0,0-41.64,4.81A104.7,104.7,0,0,0,110.06,39c-6.27,5.17-11,12.76-15.17,19.69-9.58,16-12.2,42.4-14.18,60.86-.1.91-.19,1.81-.28,2.71-.19,1.94-.38,3.85-.54,5.73-.07.75-.13,1.5-.19,2.24-2.69,32.92-.41,56.19,2.75,88.12.79,8,10.66,25.79,19.41,29.47,0,0,5,.86.8,4.08-.27.21-.58.42-.94.65h0c-3,1.94-9,4.6-20.33,8.24l-1.36.44c-3.57,1.13-7.65,2.35-12.29,3.67-4.12,1.17-8.68,2.42-13.74,3.75,0,0-22.1,6.53-33.15,16.08-6.54,5.65-12.56,16.07-15.07,26.12-3.85,15.39-4.14,31.9-5.15,53l141.59,0,121.61,0h46.51S310.72,338.55,307.57,318.85Zm-124-189a212.85,212.85,0,0,0-27.08-13,11.09,11.09,0,0,1,1,4.69c0,6.11-5,11.55-11.83,12.48a15.66,15.66,0,0,1-2,.14,14,14,0,0,1-7.88-2.38,11.52,11.52,0,0,1-2.37-17.28,13.32,13.32,0,0,1,3.22-2.77c-9-.74-12.19,2.21-13,3.25a2.89,2.89,0,0,0-.24.35l.55-4.18c17.54-15.46,52.59,9.09,59.46,18.42Zm-2-30.39a1,1,0,0,1-1.41.1c-26.39-22.77-50.88-1.66-54.14,1.36l-.34.33a1,1,0,0,1-.69.28,1,1,0,0,1-.72-.31,1,1,0,0,1,0-1.41l0,0c30-28.65,56.6-5.53,56.86-5.3a3.32,3.32,0,0,1,1.3,2.28A3.92,3.92,0,0,1,181.51,99.47Zm69.13,39.17h0l-.06.07a20.28,20.28,0,0,1-8,5.6,26.34,26.34,0,0,1-10.78,1.76c-19.15-2.24-23.39-16.23-23.39-16.23l.17-.13a157.79,157.79,0,0,1,14.7-10.09c1-.58,1.91-1.12,2.83-1.62a57.37,57.37,0,0,1,14-5.85,22.7,22.7,0,0,1,7-.73c7.13.47,8.91,5.27,8.95,5.76.09,1.34.13,2.62.13,3.83C256.14,129.34,253.83,134.91,250.64,138.64ZM243.9,99a9.94,9.94,0,0,1,2,3.8l.2.86a1,1,0,0,1-.59,1.15h0s-.05,0-.07,0a.84.84,0,0,1-.27,0,1,1,0,0,1-1-.68,8.16,8.16,0,0,0-4.39-4.92,13.3,13.3,0,0,0-2.89-1c-8.9-2-22.16,2.59-22.3,2.64a1,1,0,0,1-1.2-.44,4,4,0,0,1-.46-2.79,2.51,2.51,0,0,1,1.27-1.54l.22-.08c.74-.2,12.36-3.16,21.38-1.29a14.27,14.27,0,0,1,7.91,4.06.74.74,0,0,1,.12.13Z"/><path id="hijab" class="cls-3" d="M254.07,272.62c-5.71-.63-7.8-8.9-3.5-12.71a10.84,10.84,0,0,0,3.58-6.64,15.31,15.31,0,0,0,.18-1.66,19.39,19.39,0,0,0,0-2.41c0-.2,0-.4,0-.6-.12-1.72-.38-3.37-.53-4.81l-.06-.61c0-.23,0-.45-.05-.66a11.45,11.45,0,0,1,0-1.43c0-.15,0-.29,0-.43l.06-.3a2.81,2.81,0,0,1,.3-.77,93.79,93.79,0,0,0,8.44-19.89c.18-.59.36-1.17.52-1.75.35-1.16.67-2.33,1-3.52.17-.63.34-1.28.5-1.92l.51-2.08c.18-.75.35-1.5.52-2.25,0,0,0,0,0,0,.42-1.85.8-3.73,1.17-5.64.19-1,.36-1.92.53-2.89s.35-2.08.52-3.13.35-2.25.51-3.38c.73-5.08,1.3-10.29,1.72-15.58a325,325,0,0,0,.12-48c-.73-10.35-1.91-20.33-3.48-29.5q-.5-2.87-1-5.62L265.12,92c-2.45-11.77-5.57-21.77-9.18-28.87-4.12-8.12-28.77-45.32-67.78-48.08a115.38,115.38,0,0,0-41.64,4.81,104.67,104.67,0,0,0-36.46,19.21c-6.27,5.17-11,12.77-15.17,19.7-9.58,16-12.2,42.4-14.18,60.85-.1.89-.19,1.77-.28,2.64-.19,1.94-.38,3.85-.54,5.73-.07.75-.13,1.5-.19,2.24-2.77,33-.86,56.29,2.75,88.2,2.42,21.49,5,23.15,12,29.32a3.39,3.39,0,0,1-.13,5.17c-2.91,2.34-8.08,4.91-16.28,4h0l-.34,0h-.09c-3.91-.47-10.41,3-9.86,8,0,0,0,.07,0,.11,1,7.62,19.09,31.05,38.63,40.09,15.93,7.38,33.26,7.34,37.61,8.61a3.16,3.16,0,0,1,.74.31c.25.15.34.33.28.53-4.76,15.06,8.73,34.72-2.79,49.26,0,.07-.1.13-.15.2l121.77-.16a.42.42,0,0,0,0-.07c-.19-2.59-5.35-72.9,14.16-74.63a28.74,28.74,0,0,0,6.34-1.12C295.42,284.36,272.71,274.68,254.07,272.62ZM183.55,129.86a212.85,212.85,0,0,0-27.08-13,11.09,11.09,0,0,1,1,4.69c0,6.11-5,11.55-11.83,12.48a15.66,15.66,0,0,1-2,.14,14,14,0,0,1-7.88-2.38,11.52,11.52,0,0,1-2.37-17.28,13.32,13.32,0,0,1,3.22-2.77c-9-.74-12.19,2.21-13,3.25a2.89,2.89,0,0,0-.24.35l.55-4.18c17.54-15.46,52.59,9.09,59.46,18.42Zm-2.41-35.39a3.32,3.32,0,0,1,1.3,2.28,3.92,3.92,0,0,1-.93,2.72,1,1,0,0,1-1.41.1c-26.39-22.77-50.88-1.66-54.14,1.36l-.34.33a1,1,0,0,1-.69.28,1,1,0,0,1-.72-.31,1,1,0,0,1,0-1.41l0,0C154.27,71.12,180.88,94.24,181.14,94.47Zm74.92,22.72c.09,1.34.13,2.62.13,3.83-.05,8.32-2.36,13.89-5.55,17.62h0l-.06.07a20.28,20.28,0,0,1-8,5.6,26.34,26.34,0,0,1-10.78,1.76c-19.15-2.24-23.39-16.23-23.39-16.23l.17-.13a157.79,157.79,0,0,1,14.7-10.09c1-.58,1.91-1.12,2.83-1.62a57.37,57.37,0,0,1,14-5.85,22.7,22.7,0,0,1,7-.73C254.24,111.9,256,116.7,256.06,117.19ZM243.9,99a9.94,9.94,0,0,1,2,3.8l.2.86a1,1,0,0,1-.59,1.15h0s-.05,0-.07,0a.84.84,0,0,1-.27,0,1,1,0,0,1-1-.68,8.16,8.16,0,0,0-4.39-4.92,13.3,13.3,0,0,0-2.89-1c-8.9-2-22.16,2.59-22.3,2.64a1,1,0,0,1-1.2-.44,4,4,0,0,1-.46-2.79,2.51,2.51,0,0,1,1.27-1.54l.22-.08c.74-.2,12.36-3.16,21.38-1.29a14.27,14.27,0,0,1,7.91,4.06.74.74,0,0,1,.12.13Z"/><g id="hijab_shade" data-name="hijab shade"><path class="cls-4" d="M142.61,313.66s54,11.5,133.54-25.1C276.15,288.56,206.24,317.08,142.61,313.66Z"/><path class="cls-4" d="M139.31,214.53s28.77,28.45,114.75,25C254.06,239.51,181.18,253.36,139.31,214.53Z"/><path class="cls-4" d="M104.63,203.46c-.47-.93,29.33,57.43,144.43,56C249.06,259.5,141.63,276.22,104.63,203.46Z"/><path class="cls-4" d="M248.18,269.41s-94.84,27.53-153.08-22C95.1,247.37,153.28,288.56,248.18,269.41Z"/><path class="cls-4" d="M77.2,256c-.5-1,35.41,50.44,117.57,43.86C194.77,299.84,107.58,317.86,77.2,256Z"/><path class="cls-4" d="M137.57,287c16.93,2.54,33,4.57,48.3,4.2a181.19,181.19,0,0,0,42.18-6.28c29.13-10.75,47.33-6.6,47.33-6.6s-19.16,1.32-53.51,11.22c0,0-18.57,6-37.32,5.62C152.57,294.51,115.9,283.75,137.57,287Z"/><path class="cls-4" d="M243.31,198.26s11.09-20.11,15.6-51.31C258.91,147,261.61,176.56,243.31,198.26Z"/><path class="cls-4" d="M133.41,35.31s-13.18,26-15.6,94.3C117.81,129.61,109,69.62,133.41,35.31Z"/><path class="cls-4" d="M250.65,299.63c-1.45,3.66-12.27,31.85-14.21,63.86C236.44,363.49,250.75,299.36,250.65,299.63Z"/><path class="cls-4" d="M227.71,306.42s-6.59,15.95-6.94,33.28C220.77,339.7,217.86,317.42,227.71,306.42Z"/><path class="cls-4" d="M183.33,325.84c.25-1,0,20.1,4.16,37.79C187.49,363.63,178.56,345.14,183.33,325.84Z"/></g><path id="skin" class="cls-5" d="M251,152.31c0-4.83-.11-9.38-.36-13.66l-.06.07a20.28,20.28,0,0,1-8,5.6,26.34,26.34,0,0,1-10.78,1.76c-19.15-2.24-23.39-16.23-23.39-16.23l.17-.13a157.79,157.79,0,0,1,14.7-10.09c1-.58,1.91-1.12,2.83-1.62a57.37,57.37,0,0,1,14-5.85,22.7,22.7,0,0,1,7-.73c0-.08,0-.15-.05-.22s-.06-.32-.1-.47c-.46-2.09-1-4.07-1.44-5.92,0,0-.05,0-.07,0a.84.84,0,0,1-.27,0,1,1,0,0,1-1-.68,8.16,8.16,0,0,0-4.39-4.92,13.3,13.3,0,0,0-2.89-1c-8.9-2-22.16,2.59-22.3,2.64a1,1,0,0,1-1.2-.44,4,4,0,0,1-.46-2.79,2.51,2.51,0,0,1,1.27-1.54l.22-.08c.74-.2,12.36-3.16,21.38-1.29a14.27,14.27,0,0,1,7.91,4.06c-3.75-11.66-7.57-17-7.57-17s0,0-.07-.08a61.25,61.25,0,0,0-14.27-16,56.88,56.88,0,0,0-30.55-12.11c-49.08-3.73-65.18,35-65.18,35-14.22,29.12-6.59,91.87-6.59,91.87,4.48,26.37,27.74,39.52,27.74,39.52q3,1.69,5.81,3.1h0c31.85,15.74,53,5.35,53,5.35,44.48-18.27,43.77-52.82,43.77-52.82.7-8,1-15.37,1.1-22.22ZM124.23,99.82l0,0c30-28.65,56.6-5.53,56.86-5.3a3.32,3.32,0,0,1,1.3,2.28,3.92,3.92,0,0,1-.93,2.72,1,1,0,0,1-1.41.1c-26.39-22.77-50.88-1.66-54.14,1.36l-.34.33a1,1,0,0,1-.69.28,1,1,0,0,1-.72-.31A1,1,0,0,1,124.23,99.82Zm-.34,11.34c17.54-15.46,52.59,9.09,59.46,18.42l.2.28a212.85,212.85,0,0,0-27.08-13,11.09,11.09,0,0,1,1,4.69c0,6.11-5,11.55-11.83,12.48a15.66,15.66,0,0,1-2,.14,14,14,0,0,1-7.88-2.38,11.52,11.52,0,0,1-2.37-17.28,13.32,13.32,0,0,1,3.22-2.77c-9-.74-12.19,2.21-13,3.25a2.89,2.89,0,0,0-.24.35Z"/><g id="skin_shade" data-name="skin shade"><path class="cls-6" d="M235.86,94.8c-.41-1.25-.84-2.48-1.3-3.69a92.29,92.29,0,0,0-6.62-13.87c-3.3-5.46-6.66-10.9-6.08-11.45.32-.31,1.92.95,5.5,4.67,2.27,2.35,4.43,5.14,5.82,6.78,0,0,5.75,6,10.71,21.75a.74.74,0,0,0-.12-.13A14.27,14.27,0,0,0,235.86,94.8Z"/><path class="cls-6" d="M247.11,111.43a22.7,22.7,0,0,0-7,.73,1.48,1.48,0,0,0,0-.19A121.07,121.07,0,0,0,237,98.3a13.3,13.3,0,0,1,2.89,1,8.16,8.16,0,0,1,4.39,4.92,1,1,0,0,0,1,.68.84.84,0,0,0,.27,0s.05,0,.07,0h0c.49,1.87,1,3.84,1.4,5.93,0,.15.07.31.1.47S247.09,111.35,247.11,111.43Z"/><path class="cls-6" d="M251,152.31v1.19c0,7.7-.31,16.09-1,25.23,0,.29-.87,5.11-1,6.16a9.52,9.52,0,0,1-.26,1.23h0a49.91,49.91,0,0,1-5.34,12s0,0,0,0c-6.41,10.76-19.36,25.24-44,32.95-.16-.37-9.08,3.67-23.87.78h-.19a71.84,71.84,0,0,1-19.11-7l0,0h0l-.12-.06c-.95-.51-1.9-1-2.88-1.61h0c-2.5-1.44-5.08-3.08-7.73-4.95,14.24,9,48.3,20.43,78.59-3.13a49,49,0,0,0,15.41-31,256.54,256.54,0,0,0,3.19-39.79,20.28,20.28,0,0,0,8-5.6Q251,145.11,251,152.31Z"/></g><path id="mouth" class="cls-7" d="M181,169.86s5.24,17.8,18.82,20.81c0,0-21,16.2-32.23.94C167.57,191.61,158.67,177.77,181,169.86Z"/><g id="nose"><path class="cls-2" d="M195.66,168.52s-.85-3.81,5.74-1.14Z"/><path class="cls-2" d="M192.81,160.94s8.55-7.64,15.56-1.63c0,0,5.57,5.34-.23,12.55,0,0,10-8.61.78-15.88C208.92,156,201.58,150.7,192.81,160.94Z"/></g><g id="eye_whites" data-name="eye whites"><path id="rt_eye_white" data-name="rt eye white" class="cls-7" d="M183.72,129.85a36.71,36.71,0,0,1-32.09,14.26s-31.85-1.9-28-29.12c.82-1,4-4,13-3.25a13.32,13.32,0,0,0-3.22,2.77,11.52,11.52,0,0,0,2.37,17.28,14,14,0,0,0,7.88,2.38,15.66,15.66,0,0,0,2-.14c6.83-.93,11.83-6.37,11.83-12.48a11.09,11.09,0,0,0-1-4.69,212.85,212.85,0,0,1,27.08,13l-.2-.28Z"/><path id="left_eye_white" data-name="left eye white" class="cls-7" d="M256.19,121c-.05,8.32-2.36,13.89-5.55,17.62h0l-.06.07a20.28,20.28,0,0,1-8,5.6,26.34,26.34,0,0,1-10.78,1.76c-19.15-2.24-23.39-16.23-23.39-16.23l.17-.13c4.1-2,7.85-3.76,11.3-5.19a5.46,5.46,0,0,0-.19.66,10.14,10.14,0,0,0,1.56,8.15,12,12,0,0,0,7.19,4.9,12.65,12.65,0,0,0,2.92.34,11.82,11.82,0,0,0,5.71-1.45,10.21,10.21,0,0,0,5.08-6.57l0-.16a10,10,0,0,0-.43-5.76,10.77,10.77,0,0,0-1.16-2.23,11.92,11.92,0,0,0-3.63-3.44c1.46-.31,2.82-.54,4.08-.7a33.09,33.09,0,0,1,7.33-.24h0C253.39,118.49,255.53,120.3,256.19,121Z"/></g><g id="eyes"><path class="cls-2" d="M157.39,120a11.23,11.23,0,0,1,.1,1.53c0,6.11-5,11.55-11.83,12.48a15.66,15.66,0,0,1-2,.14,14,14,0,0,1-7.88-2.38,11.52,11.52,0,0,1-2.37-17.28,13.32,13.32,0,0,1,3.22-2.77c-9-.74-12.19,2.21-13,3.25a2.89,2.89,0,0,0-.24.35l.55-4.18c17.54-15.46,52.59,9.09,59.46,18.42l.2.28a212.85,212.85,0,0,0-27.08-13A11.19,11.19,0,0,1,157.39,120Z"/><path class="cls-2" d="M256.19,121c-.66-.72-2.8-2.53-7.83-3h0a33.09,33.09,0,0,0-7.33.24c-1.26.16-2.62.39-4.08.7a11.92,11.92,0,0,1,3.63,3.44,10.77,10.77,0,0,1,1.16,2.23,10,10,0,0,1,.43,5.76l0,.16a10.21,10.21,0,0,1-5.08,6.57,11.82,11.82,0,0,1-5.71,1.45,12.65,12.65,0,0,1-2.92-.34,12,12,0,0,1-7.19-4.9,10.14,10.14,0,0,1-1.56-8.15,5.46,5.46,0,0,1,.19-.66c-3.45,1.43-7.2,3.14-11.3,5.19a157.79,157.79,0,0,1,14.7-10.09c1-.58,1.91-1.12,2.83-1.62a57.37,57.37,0,0,1,14-5.85,22.7,22.7,0,0,1,7-.73c7.13.47,8.91,5.27,8.95,5.76C256.15,118.53,256.19,119.81,256.19,121Z"/></g><g id="eyebrows"><path id="rt_eyebrow" data-name="rt eyebrow" class="cls-2" d="M181.51,99.47a1,1,0,0,1-1.41.1c-26.39-22.77-50.88-1.66-54.14,1.36l-.34.33a1,1,0,0,1-.69.28,1,1,0,0,1-.72-.31,1,1,0,0,1,0-1.41l0,0c30-28.65,56.6-5.53,56.86-5.3a3.32,3.32,0,0,1,1.3,2.28A3.92,3.92,0,0,1,181.51,99.47Z"/><path id="left_eyebrow" data-name="left eyebrow" class="cls-2" d="M245.56,104.81h0s-.05,0-.07,0a.84.84,0,0,1-.27,0,1,1,0,0,1-1-.68,8.16,8.16,0,0,0-4.39-4.92,13.3,13.3,0,0,0-2.89-1c-8.9-2-22.16,2.59-22.3,2.64a1,1,0,0,1-1.2-.44,4,4,0,0,1-.46-2.79,2.51,2.51,0,0,1,1.27-1.54l.22-.08c.74-.2,12.36-3.16,21.38-1.29a14.27,14.27,0,0,1,7.91,4.06.74.74,0,0,1,.12.13h0a9.94,9.94,0,0,1,2,3.8l.2.86A1,1,0,0,1,245.56,104.81Z"/></g></svg>