<svg id="Layer_1" data-name="Layer 1" xmlns="http://www.w3.org/2000/svg" viewBox="0 0 309.73 349.32"><defs><style>.cls-1{fill:#010101;}.cls-2{fill:#81a29d;}.cls-3{fill:#537f79;}.cls-4{fill:#c79763;}.cls-5{fill:#9f4c24;opacity:0.25;}.cls-6{fill:#fff;}</style></defs><path id="dress" class="cls-1" d="M307,304.15c-2.21-13.81-11.72-23.48-23.25-30.81a134.41,134.41,0,0,0-16.69-8.8h0c-1.27-.58-2.53-1.13-3.79-1.67h-.11c-3.87-1.68-7.53-3.22-11-4.68A7.82,7.82,0,0,1,250,245.13a10.94,10.94,0,0,0,3.58-6.56,15.31,15.31,0,0,0,.18-1.66,19.39,19.39,0,0,0,0-2.41c0-.2,0-.4,0-.6-.1-1.72-.36-3.36-.53-4.81l-.06-.61c0-.23,0-.45-.05-.66a11.45,11.45,0,0,1,0-1.43c0-.15,0-.29.05-.43l.06-.3a2.67,2.67,0,0,1,.3-.85A95.14,95.14,0,0,0,261.88,205c.18-.59.36-1.17.52-1.75.34-1.16.67-2.33,1-3.52.17-.63.34-1.28.5-1.92l.51-2.08c.18-.75.35-1.5.52-2.25,0,0,0,0,0,0,.42-1.85.8-3.73,1.17-5.64.19-1,.36-1.92.53-2.89s.35-2.08.52-3.13.35-2.25.51-3.38c.73-5.08,1.3-10.29,1.72-15.58a325,325,0,0,0,.12-48c-.73-10.35-1.91-20.33-3.48-29.5q-.5-2.86-1-5.62l-.48-2.38c-2.43-11.81-5.56-21.84-9.18-28.95C251.2,40.25,226.55,3,187.54.28A115.6,115.6,0,0,0,145.9,5.09a104.7,104.7,0,0,0-36.46,19.22c-6.27,5.17-11,12.76-15.17,19.69-9.58,16-12.2,42.4-14.18,60.86-.1.91-.19,1.81-.28,2.71-.19,1.94-.38,3.85-.54,5.73-.07.75-.13,1.5-.19,2.24-2.69,32.92-.41,56.19,2.75,88.12.79,8.05,10.66,25.79,19.41,29.47,0,0,5,.86.8,4.08-.27.21-.58.42-.94.65h0c-3,1.94-9,4.6-20.33,8.24l-1.36.44c-3.57,1.13-7.65,2.35-12.29,3.67-4.12,1.17-8.68,2.42-13.74,3.75,0,0-22.1,6.53-33.15,16.08-6.54,5.65-12.56,16.07-15.07,26.12C1.3,311.55,1,328.06,0,349.16l141.59,0,121.61,0h46.51S310.1,323.85,307,304.15Zm-124-189a212.85,212.85,0,0,0-27.08-13,11.09,11.09,0,0,1,1,4.69c0,6.11-5,11.55-11.83,12.48a15.66,15.66,0,0,1-2,.14,14,14,0,0,1-7.88-2.38,11.52,11.52,0,0,1-2.37-17.28A13.32,13.32,0,0,1,136,97c-9-.74-12.19,2.21-13,3.25a2.89,2.89,0,0,0-.24.35l.55-4.18c17.54-15.46,52.59,9.09,59.46,18.42Zm-2-30.39a1,1,0,0,1-1.41.1c-26.39-22.77-50.88-1.66-54.14,1.36l-.34.33a1,1,0,0,1-.69.28,1,1,0,0,1-.72-.31,1,1,0,0,1,0-1.41l0-.05c30-28.65,56.6-5.53,56.86-5.3a3.32,3.32,0,0,1,1.3,2.28A3.92,3.92,0,0,1,180.89,84.77ZM250,123.94h0L250,124a20.28,20.28,0,0,1-8,5.6,26.34,26.34,0,0,1-10.78,1.76c-19.15-2.24-23.39-16.23-23.39-16.23l.17-.13a157.79,157.79,0,0,1,14.7-10.09c1-.58,1.91-1.12,2.83-1.62a57.37,57.37,0,0,1,14-5.85,22.7,22.7,0,0,1,7-.73c7.13.47,8.91,5.27,8.95,5.76.09,1.34.13,2.62.13,3.83C255.52,114.64,253.21,120.21,250,123.94ZM243.28,84.3a9.94,9.94,0,0,1,2.05,3.8l.2.86a1,1,0,0,1-.59,1.15h0s-.05,0-.07,0a.84.84,0,0,1-.27,0,1,1,0,0,1-.95-.68,8.16,8.16,0,0,0-4.39-4.92,13.3,13.3,0,0,0-2.89-1c-8.9-2-22.16,2.59-22.3,2.64a1,1,0,0,1-1.2-.44,4,4,0,0,1-.46-2.79,2.51,2.51,0,0,1,1.27-1.54l.22-.08c.74-.2,12.36-3.16,21.38-1.29a14.27,14.27,0,0,1,7.91,4.06.74.74,0,0,1,.12.13Z"/><path id="hijab" class="cls-2" d="M253.45,257.92c-5.71-.63-7.8-8.9-3.5-12.71a10.84,10.84,0,0,0,3.58-6.64,15.31,15.31,0,0,0,.18-1.66,19.39,19.39,0,0,0,0-2.41c0-.2,0-.4,0-.6-.12-1.72-.38-3.37-.53-4.81l-.06-.61c0-.23,0-.45-.05-.66a11.45,11.45,0,0,1,0-1.43c0-.15,0-.29.05-.43l.06-.3a2.81,2.81,0,0,1,.3-.77A93.79,93.79,0,0,0,261.88,205c.18-.59.36-1.17.52-1.75.35-1.16.67-2.33,1-3.52.17-.63.34-1.28.5-1.92l.51-2.08c.18-.75.35-1.5.52-2.25,0,0,0,0,0,0,.42-1.85.8-3.73,1.17-5.64.19-1,.36-1.92.53-2.89s.35-2.08.52-3.13.35-2.25.51-3.38c.73-5.08,1.3-10.29,1.72-15.58a325,325,0,0,0,.12-48c-.73-10.35-1.91-20.33-3.48-29.5q-.5-2.86-1-5.62l-.48-2.38c-2.45-11.77-5.57-21.77-9.18-28.87C251.2,40.32,226.55,3.12,187.54.36A115.38,115.38,0,0,0,145.9,5.17a104.67,104.67,0,0,0-36.46,19.21c-6.27,5.17-11,12.77-15.17,19.7-9.58,16-12.2,42.4-14.18,60.85-.1.89-.19,1.77-.28,2.64-.19,1.94-.38,3.85-.54,5.73-.07.75-.13,1.5-.19,2.24-2.77,33-.86,56.29,2.75,88.2,2.42,21.49,5,23.15,12,29.32a3.39,3.39,0,0,1-.13,5.17c-2.91,2.34-8.08,4.91-16.28,4h0l-.34,0H77c-3.91-.47-10.41,3-9.86,8,0,0,0,.07,0,.11,1,7.62,19.09,31.05,38.63,40.09,15.93,7.38,33.26,7.34,37.61,8.61a3.16,3.16,0,0,1,.74.31c.25.15.34.33.28.53-4.76,15.06,8.73,34.72-2.79,49.26,0,.07-.1.13-.15.2l121.77-.16a.42.42,0,0,0,0-.07c-.19-2.59-5.35-72.9,14.16-74.63a28.74,28.74,0,0,0,6.34-1.12C294.8,269.66,272.09,260,253.45,257.92ZM182.93,115.16a212.85,212.85,0,0,0-27.08-13,11.09,11.09,0,0,1,1,4.69c0,6.11-5,11.55-11.83,12.48a15.66,15.66,0,0,1-2,.14,14,14,0,0,1-7.88-2.38,11.52,11.52,0,0,1-2.37-17.28A13.32,13.32,0,0,1,136,97c-9-.74-12.19,2.21-13,3.25a2.89,2.89,0,0,0-.24.35l.55-4.18c17.54-15.46,52.59,9.09,59.46,18.42Zm-2.41-35.39a3.32,3.32,0,0,1,1.3,2.28,3.92,3.92,0,0,1-.93,2.72,1,1,0,0,1-1.41.1c-26.39-22.77-50.88-1.66-54.14,1.36l-.34.33a1,1,0,0,1-.69.28,1,1,0,0,1-.72-.31,1,1,0,0,1,0-1.41l0-.05C153.65,56.42,180.26,79.54,180.52,79.77Zm74.92,22.72c.09,1.34.13,2.62.13,3.83,0,8.32-2.36,13.89-5.55,17.62h0L250,124a20.28,20.28,0,0,1-8,5.6,26.34,26.34,0,0,1-10.78,1.76c-19.15-2.24-23.39-16.23-23.39-16.23l.17-.13a157.79,157.79,0,0,1,14.7-10.09c1-.58,1.91-1.12,2.83-1.62a57.37,57.37,0,0,1,14-5.85,22.7,22.7,0,0,1,7-.73C253.62,97.2,255.4,102,255.44,102.49ZM243.28,84.3a9.94,9.94,0,0,1,2.05,3.8l.2.86a1,1,0,0,1-.59,1.15h0s-.05,0-.07,0a.84.84,0,0,1-.27,0,1,1,0,0,1-.95-.68,8.16,8.16,0,0,0-4.39-4.92,13.3,13.3,0,0,0-2.89-1c-8.9-2-22.16,2.59-22.3,2.64a1,1,0,0,1-1.2-.44,4,4,0,0,1-.46-2.79,2.51,2.51,0,0,1,1.27-1.54l.22-.08c.74-.2,12.36-3.16,21.38-1.29a14.27,14.27,0,0,1,7.91,4.06.74.74,0,0,1,.12.13Z"/><g id="hijab_shade" data-name="hijab shade"><path class="cls-3" d="M142,299s54,11.49,133.54-25.1C275.53,273.86,205.62,302.37,142,299Z"/><path class="cls-3" d="M138.69,199.82s28.77,28.46,114.75,25C253.44,224.81,180.56,238.66,138.69,199.82Z"/><path class="cls-3" d="M104,188.75c-.47-.92,29.33,57.43,144.43,56.05C248.44,244.8,141,261.52,104,188.75Z"/><path class="cls-3" d="M247.56,254.71s-94.84,27.53-153.08-22.05C94.48,232.66,152.66,273.86,247.56,254.71Z"/><path class="cls-3" d="M76.58,241.28c-.5-1,35.41,50.44,117.57,43.85C194.15,285.13,107,303.16,76.58,241.28Z"/><path class="cls-3" d="M137,272.31c16.93,2.54,33,4.57,48.3,4.19a181.51,181.51,0,0,0,42.18-6.27c29.13-10.75,47.33-6.61,47.33-6.61s-19.16,1.32-53.51,11.23c0,0-18.57,6-37.32,5.62C152,279.81,115.28,269.05,137,272.31Z"/><path class="cls-3" d="M242.69,183.55s11.09-20.1,15.6-51.31C258.29,132.24,261,161.86,242.69,183.55Z"/><path class="cls-3" d="M132.79,20.61s-13.17,26-15.6,94.3C117.19,114.91,108.4,54.92,132.79,20.61Z"/><path class="cls-3" d="M250,284.93c-1.45,3.65-12.27,31.85-14.21,63.86C235.82,348.79,250.13,284.66,250,284.93Z"/><path class="cls-3" d="M227.09,291.72s-6.59,15.95-6.94,33.28C220.15,325,217.24,302.71,227.09,291.72Z"/><path class="cls-3" d="M182.71,311.13c.25-1,0,20.11,4.16,37.79C186.87,348.92,177.94,330.44,182.71,311.13Z"/></g><path id="skin" class="cls-4" d="M250.38,137.61c0-4.83-.11-9.38-.36-13.66L250,124a20.28,20.28,0,0,1-8,5.6,26.34,26.34,0,0,1-10.78,1.76c-19.15-2.24-23.39-16.23-23.39-16.23l.17-.13a157.79,157.79,0,0,1,14.7-10.09c1-.58,1.91-1.12,2.83-1.62a57.37,57.37,0,0,1,14-5.85,22.7,22.7,0,0,1,7-.73c0-.08,0-.15-.05-.22s-.06-.32-.1-.47c-.46-2.09-1-4.07-1.44-5.92,0,0-.05,0-.07,0a.84.84,0,0,1-.27,0,1,1,0,0,1-.95-.68,8.16,8.16,0,0,0-4.39-4.92,13.3,13.3,0,0,0-2.89-1c-8.9-2-22.16,2.59-22.3,2.64a1,1,0,0,1-1.2-.44,4,4,0,0,1-.46-2.79,2.51,2.51,0,0,1,1.27-1.54l.22-.08c.74-.2,12.36-3.16,21.38-1.29a14.27,14.27,0,0,1,7.91,4.06c-3.75-11.66-7.57-17-7.57-17s0,0-.07-.08a61.25,61.25,0,0,0-14.27-16A56.88,56.88,0,0,0,190.69,39c-49.08-3.73-65.18,35-65.18,35-14.22,29.12-6.59,91.87-6.59,91.87,4.48,26.37,27.74,39.52,27.74,39.52q3,1.7,5.81,3.1h0c31.85,15.74,53,5.35,53,5.35C250,195.57,249.28,161,249.28,161c.7-8,1-15.37,1.1-22.22ZM123.61,85.12l0-.05c30-28.65,56.6-5.53,56.86-5.3a3.32,3.32,0,0,1,1.3,2.28,3.92,3.92,0,0,1-.93,2.72,1,1,0,0,1-1.41.1c-26.39-22.77-50.88-1.66-54.14,1.36l-.34.33a1,1,0,0,1-.69.28,1,1,0,0,1-.72-.31A1,1,0,0,1,123.61,85.12Zm-.34,11.34c17.54-15.46,52.59,9.09,59.46,18.42l.2.28a212.85,212.85,0,0,0-27.08-13,11.09,11.09,0,0,1,1,4.69c0,6.11-5,11.55-11.83,12.48a15.66,15.66,0,0,1-2,.14,14,14,0,0,1-7.88-2.38,11.52,11.52,0,0,1-2.37-17.28A13.32,13.32,0,0,1,136,97c-9-.74-12.19,2.21-13,3.25a2.89,2.89,0,0,0-.24.35Z"/><g id="skin_shade" data-name="skin shade"><path class="cls-5" d="M235.24,80.1c-.41-1.25-.84-2.48-1.3-3.69a92.29,92.29,0,0,0-6.62-13.87c-3.3-5.46-6.66-10.9-6.08-11.45.32-.31,1.92.95,5.5,4.67,2.27,2.35,4.43,5.14,5.82,6.78,0,0,5.75,6,10.71,21.75a.74.74,0,0,0-.12-.13A14.27,14.27,0,0,0,235.24,80.1Z"/><path class="cls-5" d="M246.49,96.73a22.7,22.7,0,0,0-7,.73,1.48,1.48,0,0,0,0-.19,121.07,121.07,0,0,0-3.12-13.67,13.3,13.3,0,0,1,2.89,1,8.16,8.16,0,0,1,4.39,4.92,1,1,0,0,0,.95.68.84.84,0,0,0,.27,0s0,0,.07,0h0c.49,1.87,1,3.84,1.4,5.93,0,.15.07.31.1.47S246.47,96.65,246.49,96.73Z"/><path class="cls-5" d="M250.38,137.61v1.19c0,7.7-.31,16.09-1,25.23,0,.29-.87,5.11-1,6.16a9.52,9.52,0,0,1-.26,1.23h0a49.91,49.91,0,0,1-5.34,12v0c-6.41,10.76-19.36,25.24-44,33-.16-.37-9.08,3.67-23.87.78h-.19a71.84,71.84,0,0,1-19.11-7l0,0h0l-.12-.06c-1-.51-1.9-1-2.88-1.61h0c-2.5-1.44-5.08-3.08-7.73-5,14.24,9,48.3,20.43,78.59-3.13a49,49,0,0,0,15.41-31,256.54,256.54,0,0,0,3.19-39.79,20.28,20.28,0,0,0,8-5.6Q250.34,130.41,250.38,137.61Z"/></g><path id="mouth" class="cls-6" d="M180.36,155.16S185.6,173,199.18,176c0,0-21,16.2-32.23.94C167,176.91,158.05,163.07,180.36,155.16Z"/><g id="nose"><path class="cls-1" d="M195.05,153.82s-.86-3.81,5.73-1.14Z"/><path class="cls-1" d="M192.19,146.24s8.55-7.65,15.56-1.63c0,0,5.58,5.34-.23,12.54,0,0,10-8.61.78-15.87C208.3,141.28,201,136,192.19,146.24Z"/></g><g id="eye_whites" data-name="eye whites"><path id="rt_eye_white" data-name="rt eye white" class="cls-6" d="M183.1,115.15A36.71,36.71,0,0,1,151,129.41s-31.85-1.9-28-29.12c.82-1,4-4,13-3.25a13.32,13.32,0,0,0-3.22,2.77,11.52,11.52,0,0,0,2.37,17.28,14,14,0,0,0,7.88,2.38,15.66,15.66,0,0,0,2-.14c6.83-.93,11.83-6.37,11.83-12.48a11.09,11.09,0,0,0-1-4.69,212.85,212.85,0,0,1,27.08,13l-.2-.28Z"/><path id="left_eye_white" data-name="left eye white" class="cls-6" d="M255.57,106.32c0,8.32-2.36,13.89-5.55,17.62h0L250,124a20.28,20.28,0,0,1-8,5.6,26.34,26.34,0,0,1-10.78,1.76c-19.15-2.24-23.39-16.23-23.39-16.23l.17-.13c4.1-2,7.85-3.76,11.3-5.19a5.46,5.46,0,0,0-.19.66,10.14,10.14,0,0,0,1.56,8.15,12,12,0,0,0,7.19,4.9,12.65,12.65,0,0,0,2.92.34,11.82,11.82,0,0,0,5.71-1.45,10.21,10.21,0,0,0,5.08-6.57l0-.16a10,10,0,0,0-.43-5.76,10.77,10.77,0,0,0-1.16-2.23,11.92,11.92,0,0,0-3.63-3.44c1.46-.31,2.82-.54,4.08-.7a33.09,33.09,0,0,1,7.33-.24h0C252.77,103.79,254.91,105.6,255.57,106.32Z"/></g><g id="eyes"><path class="cls-1" d="M156.77,105.32a11.23,11.23,0,0,1,.1,1.53c0,6.11-5,11.55-11.83,12.48a15.66,15.66,0,0,1-2,.14,14,14,0,0,1-7.88-2.38,11.52,11.52,0,0,1-2.37-17.28A13.32,13.32,0,0,1,136,97c-9-.74-12.19,2.21-13,3.25a2.89,2.89,0,0,0-.24.35l.55-4.18c17.54-15.46,52.59,9.09,59.46,18.42l.2.28a212.85,212.85,0,0,0-27.08-13A11.19,11.19,0,0,1,156.77,105.32Z"/><path class="cls-1" d="M255.57,106.32c-.66-.72-2.8-2.53-7.83-3h0a33.09,33.09,0,0,0-7.33.24c-1.26.16-2.62.39-4.08.7a11.92,11.92,0,0,1,3.63,3.44,10.77,10.77,0,0,1,1.16,2.23,10,10,0,0,1,.43,5.76l0,.16a10.21,10.21,0,0,1-5.08,6.57,11.82,11.82,0,0,1-5.71,1.45,12.65,12.65,0,0,1-2.92-.34,12,12,0,0,1-7.19-4.9,10.14,10.14,0,0,1-1.56-8.15,5.46,5.46,0,0,1,.19-.66c-3.45,1.43-7.2,3.14-11.3,5.19a157.79,157.79,0,0,1,14.7-10.09c1-.58,1.91-1.12,2.83-1.62a57.37,57.37,0,0,1,14-5.85,22.7,22.7,0,0,1,7-.73c7.13.47,8.91,5.27,8.95,5.76C255.53,103.83,255.57,105.11,255.57,106.32Z"/></g><g id="eyebrows"><path id="rt_eyebrow" data-name="rt eyebrow" class="cls-1" d="M180.89,84.77a1,1,0,0,1-1.41.1c-26.39-22.77-50.88-1.66-54.14,1.36l-.34.33a1,1,0,0,1-.69.28,1,1,0,0,1-.72-.31,1,1,0,0,1,0-1.41l0-.05c30-28.65,56.6-5.53,56.86-5.3a3.32,3.32,0,0,1,1.3,2.28A3.92,3.92,0,0,1,180.89,84.77Z"/><path id="left_eyebrow" data-name="left eyebrow" class="cls-1" d="M244.94,90.11h0s-.05,0-.07,0a.84.84,0,0,1-.27,0,1,1,0,0,1-.95-.68,8.16,8.16,0,0,0-4.39-4.92,13.3,13.3,0,0,0-2.89-1c-8.9-2-22.16,2.59-22.3,2.64a1,1,0,0,1-1.2-.44,4,4,0,0,1-.46-2.79,2.51,2.51,0,0,1,1.27-1.54l.22-.08c.74-.2,12.36-3.16,21.38-1.29a14.27,14.27,0,0,1,7.91,4.06.74.74,0,0,1,.12.13h0a9.94,9.94,0,0,1,2.05,3.8l.2.86A1,1,0,0,1,244.94,90.11Z"/></g></svg>