<svg id="Layer_1" data-name="Layer 1" xmlns="http://www.w3.org/2000/svg" viewBox="0 0 310.96 364.84"><defs><style>.cls-1{fill:none;}.cls-2{fill:#e2ab90;}.cls-3{fill:#d39781;}.cls-4{fill:#f2759b;}.cls-5{fill:#de5386;}.cls-6{fill:#f1e4dc;}.cls-7{fill:#010101;}.cls-8{fill:#5e321a;}.cls-9{fill:#4a2814;}.cls-10{fill:#321b0f;}.cls-11{fill:#fff;}.cls-12{fill:#ccc;opacity:0.5;}.cls-13{fill:#8bd3dd;}.cls-14{fill:#4fc3c4;}.cls-15{fill:#fbb251;}.cls-16{fill:#e5942f;}</style></defs><rect class="cls-1" width="310.96" height="364.63"/><g id="skin"><g id="skin_base" data-name="skin base"><path class="cls-2" d="M188,267.22a11.11,11.11,0,0,1-3.17,4.55l-.36.3-.28.23c-.15.13-.31.24-.48.37a17.63,17.63,0,0,1-2.76,1.61c-.22.11-.43.21-.65.3l-.24.1c-.38.16-.78.32-1.2.47s-.61.22-.93.32c-.16,0-.32.11-.49.15-.5.15-1,.29-1.55.43l-.54.13c-.76.18-1.57.34-2.42.48l-.71.12c-.52.08-1.06.16-1.61.22-1.43.17-3,.29-4.67.36l-.94,0c-.76,0-1.56,0-2.38,0l-1.4-.05c-28.34-1.49-30.11-13.2-29.91-19.41,1.46-.5,2.71-1,3.78-1.42h0l.45-.19.06,0a4.36,4.36,0,0,0,3,1.64,3.77,3.77,0,0,0,1.21-.1c.1,0,.19-.06.29-.09a2.83,2.83,0,0,0,.36-.16l.13-.06a.78.78,0,0,0,.06.37.44.44,0,0,0,.07.22l0,.1a1.67,1.67,0,0,0,.12.16.13.13,0,0,0,0,.06l.12.13a1.22,1.22,0,0,0,.79.33h.09a1.18,1.18,0,0,0,.56-.13,2.71,2.71,0,0,0,0,.41,1.9,1.9,0,0,0,0,.41,1,1,0,0,0,0,.16,4.42,4.42,0,0,0,.62,1.61.41.41,0,0,0,.19.31,9.84,9.84,0,0,0,4.55,3.38,3.13,3.13,0,0,0,.54.19,8.61,8.61,0,0,0,1,.28l.52.08.51.05.46,0,.46,0,.21,0,.22,0,.22,0a2.22,2.22,0,0,0,.37-.09,1.49,1.49,0,0,0,.3-.09l.29-.11.31-.16.13-.08.13-.1.08-.05.22-.19v0l0,.08a.68.68,0,0,0,.11.23,1.05,1.05,0,0,0,.12.21l.15.19a1.78,1.78,0,0,0,1.29.55,1.75,1.75,0,0,0,1.29-.56,1.46,1.46,0,0,0,.32-.47,1.75,1.75,0,0,0,0,.4s0,.06,0,.08h0s0,.05,0,.07a.37.37,0,0,0,.05.17s0,.08,0,.13l0,.07.12.26a2.86,2.86,0,0,0,.33.47,3.44,3.44,0,0,0,.64.62,4.29,4.29,0,0,0,.6.42h0a9.15,9.15,0,0,0,4.6,1.14c2.89,0,5.33-1.11,6.18-2.65a2.53,2.53,0,0,0,.12-.23h0a2.07,2.07,0,0,0,.17-.55.43.43,0,0,0,0-.12l0,.12a1.34,1.34,0,0,0,1.31,1.17,1.32,1.32,0,0,0,1.29-1,.2.2,0,0,0,0,.08.85.85,0,0,0,.14.19,3.27,3.27,0,0,0,.3.35l.19.16.18.14a4.08,4.08,0,0,0,1.06.55l.24.08a7,7,0,0,0,1.66.31q.31,0,.66,0a10.63,10.63,0,0,0,2.55-.33c.38-.1.76-.22,1.11-.35h0A33.81,33.81,0,0,0,188,267.22Z"/><path class="cls-2" d="M267.47,166a192,192,0,0,1-11.53,32.23s-19,44.23-43.25,45.68c0,0,34.19-12,44.94-75.68C242,167.57,236.91,157,236.5,156.06l-.07.07.07-.09a.11.11,0,0,0,0,0l.59-.75.15-.19a.19.19,0,0,0,.07-.08,1,1,0,0,0,.11-.15.76.76,0,0,0,.13-.17c.05,0,.08-.1.13-.16l.16-.2c2.47-3.14,10.71-12.77,21-16.32,0-.52-.12-1-.19-1.54a.88.88,0,0,0,0-.16c-.05-.39-.1-.77-.16-1.14,0-.17-.06-.34-.08-.5-.07-.38-.14-.77-.22-1.14-.13-.71-.29-1.39-.47-2.05-.11-.43-.24-.86-.37-1.27s-.28-.81-.43-1.2c-.07-.19-.15-.38-.23-.56-.16-.38-.33-.73-.5-1.07l-.34,0a54.59,54.59,0,0,0-9.87,2.53l-.7.26-.38-.65a3.48,3.48,0,0,1-.41-2.46,2.24,2.24,0,0,1,1.13-1.38l.19-.07a54.53,54.53,0,0,1,7.91-1.38,5.76,5.76,0,0,0-3.29-1.18c-2.83-.11-7.56.5-23.26-1.56-6.82-.9-14.14-2-21.53-3.13a33.54,33.54,0,0,1,8.2,5.64,2.88,2.88,0,0,1,1,2.09,3.48,3.48,0,0,1-1,2.35l-.62.64-.64-.62c-21.44-20.84-43.65-5.11-47.89-1.75l-1.12-1.38c7.13-5.93,14.47-9.44,21.89-10.45-9.54-1.81-18.45-3.73-25.68-5.68-1.39,10.92-.83,25.14,3.16,43.65,0,0,8.75,31.72-3.11,58.57a58.41,58.41,0,0,1-3.86,7.33,2.1,2.1,0,0,1-.06.33v0c-2.11,12.25-10.53,28.41-14,32.9a4.43,4.43,0,0,1,.53,2.67l-.06.36a4.5,4.5,0,0,1-.14.49,1.73,1.73,0,0,1-.16.37,1.78,1.78,0,0,1-.19.36,1.24,1.24,0,0,1,.41.08h0a1.29,1.29,0,0,1,.53.38,1.27,1.27,0,0,1,.32.76,1.64,1.64,0,0,1,.26-.2l.3-.18a2.1,2.1,0,0,1,.4-.18,3.25,3.25,0,0,1,.71-.21l.15,0h0a1.26,1.26,0,0,1,.28,0h0l.17,0a5.46,5.46,0,0,1,1,0,2.83,2.83,0,0,1,.5.05,5,5,0,0,1,.54.08l.5.11.47.14.62.2c.35.14.72.3,1.08.48a7.5,7.5,0,0,1,.74.42l.46.29a5,5,0,0,1,.44.33,1.39,1.39,0,0,1,.27.21l.53.47.24.24.28.3.17.22a6.05,6.05,0,0,1,.61.88c.09.16.16.32.23.47l.1.26a2.67,2.67,0,0,1,.11.34,1,1,0,0,1,.05.25s0,0,0,0a.24.24,0,0,1,0,.12v0a.77.77,0,0,1,0,.15.25.25,0,0,1,0,.09,1.71,1.71,0,0,1,1-.31,1.78,1.78,0,0,1,1.77,1.64,1.22,1.22,0,0,1,.1-.24c0-.06.05-.09.07-.14a3.4,3.4,0,0,1,.73-.89l.1-.09a2.69,2.69,0,0,1,.33-.26,7,7,0,0,1,.88-.52,4.46,4.46,0,0,1,.5-.22,3.16,3.16,0,0,1,.54-.2l.42-.12a2.49,2.49,0,0,1,.37-.09,3.06,3.06,0,0,1,.51-.1,1.54,1.54,0,0,1,.31-.05h.09a5.23,5.23,0,0,1,.57-.06l.26,0,.57,0,.59,0,.41,0a2.33,2.33,0,0,1,.37,0,5.81,5.81,0,0,1,.58.09,5,5,0,0,1,.67.15,3.33,3.33,0,0,1,.45.13,6.47,6.47,0,0,1,2.22,1.16l.23.2a1,1,0,0,1,.15.14,1.78,1.78,0,0,1,.22.26,2,2,0,0,1,.18.25s0,0,0,.05a2.09,2.09,0,0,1,.16.29,2.15,2.15,0,0,1,.13.32l.16.15a1.33,1.33,0,0,1,1.33-1.25,1.28,1.28,0,0,1,.91.38,3.22,3.22,0,0,1,.74-2,5.55,5.55,0,0,1-.14-1.39s-5.07-26.86-17-41a80.59,80.59,0,0,0,9,7.69.85.85,0,0,0,.19.14A113.38,113.38,0,0,0,183.27,238l.11.05.68.3c16.61,7.49,28.59,6.59,28.59,6.59,24.3-1.46,43.25-45.67,43.25-45.67a191.6,191.6,0,0,0,11.83-33.43ZM234,179c8,6.31-.32,13.77-.68,14.09,5.14-6.38.19-11.12.19-11.12-6.08-5.23-13.47,1.13-13.8,1.42C227.48,174.28,234,179,234,179Zm-6.67,10.12-5.09,1S221.47,186.71,227.32,189.08Zm-37.88-21.61s-28.48-1.69-24.85-26.1h0l.48-3.16c27.23-12.34,45.78,7.91,50.4,13.75a.31.31,0,0,0,.07.09l.11.14.38.44a0,0,0,0,0,0,0c.64.69,1.27,1.42,1.9,2.17A32.54,32.54,0,0,1,189.44,167.47Zm7.85,43.12s-7.9-12.29,11.91-19.31c0,0,4.64,15.8,16.7,18.48C225.9,209.76,207.25,224.14,197.29,210.59Z"/><path id="side_face" data-name="side face" class="cls-2" d="M154.63,147.11s-6.49-21.13-4.25-40.79c-.67-.24-1.3-.48-1.88-.72-5.59,11-10.92,27-14.42,50.24-.37,2.55-1.4,5.17-5.19,3.92,0,0-7.32-7.24-14.42-8.29a8.71,8.71,0,0,0-6.44,1.29,9.22,9.22,0,0,0-1.49,1.28,14.15,14.15,0,0,0-1.81,6.68v0l.5,5.41a0,0,0,0,0,0,0c1,4.56,3.71,10.24,9.73,16.76a30.72,30.72,0,0,0,4.15,5.26l.41.41a16.27,16.27,0,0,0,1.33,1.14,5.2,5.2,0,0,0,.47.35,10.31,10.31,0,0,0,1.94,1.13,5.63,5.63,0,0,0,4.24.29,4.32,4.32,0,0,0,.83-.37h0l.54-.34c.19-.13.37-.28.56-.44s.34-.32.52-.5l.27-.29,0,0,.18-.22c.19-.24.4-.52.58-.77s.2-.29.3-.44a1,1,0,0,0,.13-.2l0,0,.15-.25c.66,1,1.27,1.93,1.84,2.81l.83,1.29c.9,1.46,1.66,2.72,2.2,3.73.24.43.42.82.57,1.14h0a143.57,143.57,0,0,0,16.23,19.83,64.48,64.48,0,0,0,2.59-6.77c.11-.32.21-.64.3-1C160.34,195.08,161.8,175.2,154.63,147.11Zm-34.4,31.17c-4.68-2.64-2.93-6.94-2.93-6.94a7.91,7.91,0,0,1,1.45-2.21,5.69,5.69,0,0,1,1.8-1.3,4.17,4.17,0,0,1,1.55-.4,9.35,9.35,0,0,0-3.95-5.35,13.2,13.2,0,0,0-5.87-1.92,11.16,11.16,0,0,0-1.52,0h-.2a.63.63,0,0,1,.18-.08,9.6,9.6,0,0,1,1.18-.37,10.42,10.42,0,0,1,5.31,0c2.66.73,5.54,2.81,7.53,7.78a8.05,8.05,0,0,0-2.89,3.21,3.45,3.45,0,0,0,0,2.88l.92,1.29a4.66,4.66,0,0,0,1.44.69,4.17,4.17,0,0,0,4.16-1l.81.81a5.51,5.51,0,0,1-3.23,3.46,2.67,2.67,0,0,1-.33.12A8.42,8.42,0,0,1,120.23,178.28Zm6.43,11.16a4,4,0,0,1-5.37-3.74,3.87,3.87,0,0,1,.48-1.89h0a4,4,0,0,1,7.51,1.9A4,4,0,0,1,126.66,189.44Z"/></g><g id="skin_shade" data-name="skin shade"><path class="cls-3" d="M188.69,263.44a1.48,1.48,0,0,0,0,.22c0,.11,0,.24,0,.4s0,.23,0,.35,0,.35-.07.54c0,0,0,.05,0,.08s0,.18,0,.28-.05.25-.07.38a1.8,1.8,0,0,1,0,.19c-.08.29-.17.6-.3.94l0,0-.14.37a33.81,33.81,0,0,1-7.08-.45h0c-.35.13-.73.25-1.11.35a10.63,10.63,0,0,1-2.55.33q-.34,0-.66,0a7,7,0,0,1-1.66-.31l-.24-.08a4.08,4.08,0,0,1-1.06-.55l-.18-.14-.19-.16a3.27,3.27,0,0,1-.3-.35.85.85,0,0,1-.14-.19.2.2,0,0,1,0-.08,1.32,1.32,0,0,1-1.29,1,1.34,1.34,0,0,1-1.31-1.17l0-.12h0a2.38,2.38,0,0,0-.1-1l.16.15a.22.22,0,0,0,0,.08,1.32,1.32,0,0,0,.46,1,1.3,1.3,0,0,0,1.75,0,.76.76,0,0,0,.19-.21h0a1,1,0,0,0,.22-.47l0,.07a.31.31,0,0,0,.07.09,2.35,2.35,0,0,0,.54.55,3.74,3.74,0,0,0,.87.53,5.57,5.57,0,0,0,1.09.35,9,9,0,0,0,3.69,0c.23,0,.44-.09.66-.14,2.93-.75,5.09-2.56,5.39-4.34a2,2,0,0,0,0-.53,2.15,2.15,0,0,0-.07-.5s0,0,0-.05a32.55,32.55,0,0,0,3.34,2.48Z"/><path class="cls-3" d="M182.11,257.48a11.46,11.46,0,0,0,.72,1.27,9,9,0,0,0-5,0,8.54,8.54,0,0,0-4.69,2.82,5.55,5.55,0,0,1-.14-1.39s-5.07-26.86-17-41a80.59,80.59,0,0,0,9,7.69.85.85,0,0,0,.19.14A113.38,113.38,0,0,0,183.27,238l.11.05.5.25a34.89,34.89,0,0,0-2.55,7.58C180.57,249.53,180.35,253.86,182.11,257.48Z"/><path class="cls-3" d="M150.63,104.38c0,.1,0,.21,0,.31-.07.54-.14,1.09-.2,1.63-.67-.24-1.3-.48-1.88-.72.21-.43.43-.85.66-1.27l.17-.34Z"/><path class="cls-3" d="M272,129.73c-2.47-4.4-8.46-6.3-17.49-5.56-.28,0-.55.06-.82.07a5.76,5.76,0,0,0-3.29-1.18c-2.83-.11-7.56.5-23.26-1.56-6.82-.9-14.14-2-21.53-3.13-.94-.48-2-.94-3-1.37a33.86,33.86,0,0,0-13.91-2.4c-1.05.05-2.11.14-3.16.29,0,0,0,0,0,0-9.54-1.81-18.45-3.73-25.68-5.68-1.39,10.92-.83,25.14,3.16,43.65,0,0,8.75,31.72-3.11,58.57a58.41,58.41,0,0,1-3.86,7.33,2.39,2.39,0,0,1-.13.21l-.74-.67-.37-.34c.59-1,1.13-2,1.65-3h0c.78-1.49,1.48-3,2.12-4.54,11.16-26.63,2.66-57.6,2.66-57.6-4-18.77-4.56-33.14-3.09-44.12.1-.79.21-1.56.35-2.31l1.7.4c34.52,7.83,86.52,10,110.85,10.6.31,2.74.57,5,.71,6.28h0c.08,1,.14,2.11.18,3.2q0,.63.06,1.26C272,128.69,272,129.21,272,129.73Z"/><path class="cls-3" d="M267.47,166a192,192,0,0,1-11.53,32.23s-19,44.23-43.25,45.68c0,0,34.19-12,44.94-75.68l.92,0A23.43,23.43,0,0,0,267.47,166Z"/><path class="cls-3" d="M272,132.42v.09c0,1,0,2-.05,3,0,.25,0,.49,0,.75l-.06,1.17c-.24-.07-.47-.14-.72-.19a21.29,21.29,0,0,0-12.35.73c0-.52-.12-1-.19-1.54a.88.88,0,0,0,0-.16c-.05-.38-.1-.77-.16-1.14,0-.17-.06-.34-.08-.5-.07-.38-.14-.77-.22-1.14-.13-.71-.29-1.39-.47-2.05-.11-.43-.24-.86-.37-1.27s-.28-.81-.43-1.2c-.07-.19-.15-.38-.23-.56-.16-.38-.33-.73-.5-1.07a33.21,33.21,0,0,1,4.51-.35c4.58,0,9,1.25,10.54,5.61v0Z"/><path id="ear_shade" data-name="ear shade" class="cls-3" d="M129.23,175.35a5.51,5.51,0,0,1-3.23,3.46,2.67,2.67,0,0,1-.33.12,8.42,8.42,0,0,1-5.44-.65c-4.68-2.64-2.93-6.94-2.93-6.94a7.91,7.91,0,0,1,1.45-2.21,5.69,5.69,0,0,1,1.8-1.3,4.17,4.17,0,0,1,1.55-.4,9.35,9.35,0,0,0-3.95-5.35,13.2,13.2,0,0,0-5.87-1.92,11.16,11.16,0,0,0-1.52,0h-.2a.63.63,0,0,1,.18-.08,9.6,9.6,0,0,1,1.18-.37,10.42,10.42,0,0,1,5.31,0c2.66.73,5.54,2.81,7.53,7.78a8.05,8.05,0,0,0-2.89,3.21,3.45,3.45,0,0,0,0,2.88,5.15,5.15,0,0,0,.78,1.19l.14.1a4.66,4.66,0,0,0,1.44.69,4.17,4.17,0,0,0,4.16-1Z"/></g></g><g id="shirt"><path id="shirt_base" data-name="shirt base" class="cls-4" d="M265.46,364.57H236.69l-2.31-24.06L234,364.56H20.52c1.17-50.42,12.33-71.91,12.33-71.91,8.21-21.5,36-24.64,36-24.64,2.58-.24,5.91-.65,9.67-1.2a257.81,257.81,0,0,0,28-4.19l.15,0c3.89-.79,7.26-1.57,9.93-2.22l.07,0,.08,0,6.73-1.24h0c4.81-.9,7.87-1.49,7.87-1.49s0,.23,0,.36c-.2,6.21,1.57,17.92,29.91,19.41l1.4.05c.82,0,1.62,0,2.38,0l.94,0c1.68-.07,3.24-.19,4.67-.36.55-.06,1.09-.14,1.61-.22l.71-.12c.85-.14,1.66-.3,2.42-.48l.54-.13c.54-.14,1-.28,1.55-.43.17,0,.33-.1.49-.15.32-.1.63-.2.93-.32s.82-.31,1.2-.47l.24-.1c.22-.09.43-.19.65-.3a17.63,17.63,0,0,0,2.76-1.61c.17-.13.33-.24.48-.37l.28-.23.36-.3a11.11,11.11,0,0,0,3.17-4.55l.14-.37.24.19a55.76,55.76,0,0,0,9,5.55l.55.28C216,282,242.74,288,242.74,288c17.88,4.1,21,32.1,21,32.1C265.64,332.59,265.49,361.44,265.46,364.57Z"/><g id="shirt_shade" data-name="shirt shade"><path id="shirt_shade-2" data-name="shirt shade" class="cls-5" d="M265.46,364.57c0-3.13.18-32-1.76-44.44,0,0-3.08-28-21-32.1,0,0-26.79-6-44.85-15.16l-.55-.28a55.76,55.76,0,0,1-9-5.55l-.24-.19,0,0c.13-.34.22-.65.3-.94a1.8,1.8,0,0,0,0-.19c0-.13.05-.26.07-.38s0-.19,0-.28,0,0,0-.08c0-.19.06-.37.07-.54s0-.25,0-.35,0-.29,0-.4a1.48,1.48,0,0,1,0-.22s0,0,0,0a.15.15,0,0,1,0-.07h0c0-.27-.06-.28.13-.15l.38.24c.48.32,1,.63,1.51.94,17.57,10.45,53.62,16.94,53.62,16.94C267,288,277.56,300.08,279.9,325.1c1.65,17.52,3,39.47,3,39.47l-17.4.27Z"/><path id="neckline" class="cls-5" d="M197.89,272.87c-2,6.3-9.51,17.51-37.49,18.3,0,0-43.41.76-42.54-30.5,0,1.23.5,26.84,42.32,28.32,0,0,29.62.36,37.16-16.4Z"/><polygon id="right_arm_shade" data-name="right arm shade" class="cls-5" points="72.92 364.45 72.92 337.19 76.32 364.56 72.92 364.45"/><polygon id="left_arm_shade" data-name="left arm shade" class="cls-5" points="236.7 364.66 234.27 364.57 234.03 364.56 234.38 340.51 236.69 364.57 236.7 364.66"/></g></g><g id="necklace"><g id="shells"><path class="cls-6" d="M154.49,262.78a.23.23,0,0,1-.08.09,1.79,1.79,0,0,0-.67,1.39v0a1.27,1.27,0,0,0,.08.44c.13.43-1.92.85-2.16.89a7.16,7.16,0,0,1-2.65-.16,10,10,0,0,1-5.76-3.76,4.17,4.17,0,0,1-.84-2.49,2.71,2.71,0,0,1,0-.41,1,1,0,0,0,.32-.2,1.07,1.07,0,0,0,.3-.41,1.3,1.3,0,0,0,.14-.69c0-.19.81-.53.94-.57a5.3,5.3,0,0,1,1.47-.27,7.86,7.86,0,0,1,3.08.4,10.38,10.38,0,0,1,3.76,2.14,7.34,7.34,0,0,1,1.39,1.7C154.05,261.24,154.69,262.36,154.49,262.78Z"/><path class="cls-6" d="M185.2,261.36a2.15,2.15,0,0,0-.07-.5s0,0,0-.05h0a2.26,2.26,0,0,0-.21-.48.9.9,0,0,1-.78-.88v0a4.46,4.46,0,0,0-1.06-.58l-.24-.09a9,9,0,0,0-5,0,8.54,8.54,0,0,0-4.69,2.82,3.22,3.22,0,0,0-.74,2,1.28,1.28,0,0,1,.4.79.44.44,0,0,1,0,.16.86.86,0,0,1,0,.32l0,.07a.31.31,0,0,0,.07.09,2.35,2.35,0,0,0,.54.55,3.74,3.74,0,0,0,.87.53,5.57,5.57,0,0,0,1.09.35,9,9,0,0,0,3.69,0c.23,0,.44-.09.66-.14,2.93-.75,5.09-2.56,5.39-4.34A2,2,0,0,0,185.2,261.36ZM177.4,263v0c0,.07,0,.14,0,.2S177.4,263.08,177.4,263Z"/><path class="cls-6" d="M170.16,265a1.55,1.55,0,0,1,0,.31h0a.43.43,0,0,1,0,.12,2.07,2.07,0,0,1-.17.55h0a2.53,2.53,0,0,1-.12.23c-.85,1.54-3.29,2.65-6.18,2.65a9.15,9.15,0,0,1-4.6-1.14h0a4.29,4.29,0,0,1-.6-.42,3.44,3.44,0,0,1-.64-.62,2.86,2.86,0,0,1-.33-.47l-.12-.26,0-.07c0-.05,0-.08,0-.13a.37.37,0,0,1-.05-.17s0-.05,0-.07h0s0-.05,0-.08a1.75,1.75,0,0,1,0-.4l.06-.14,0-.09a1.7,1.7,0,0,0,.08-.51.31.31,0,0,0,0-.1s0,0,0,0a1.22,1.22,0,0,1,.1-.24c0-.06.05-.09.07-.14a3.4,3.4,0,0,1,.73-.89l.1-.09a2.69,2.69,0,0,1,.33-.26,3.37,3.37,0,0,1,.42-.27l.46-.25.5-.22a4.3,4.3,0,0,1,.54-.2l.42-.12a2.49,2.49,0,0,1,.37-.09,3.06,3.06,0,0,1,.51-.1,1.54,1.54,0,0,1,.31-.05h.09a5.23,5.23,0,0,1,.57-.06l.26,0,.57,0,.59,0,.41,0a2.33,2.33,0,0,1,.37,0,5.81,5.81,0,0,1,.58.09,5,5,0,0,1,.67.15,3,3,0,0,1,.45.13,6.47,6.47,0,0,1,2.22,1.16l.23.2a1,1,0,0,1,.15.14,1.78,1.78,0,0,1,.22.26,2,2,0,0,1,.18.25s0,0,0,.05a2.09,2.09,0,0,1,.16.29,2.15,2.15,0,0,1,.13.32,2.88,2.88,0,0,1,.13.74Z"/><path class="cls-6" d="M142.49,254.69l-.06.36a4.5,4.5,0,0,1-.14.49,1.73,1.73,0,0,1-.16.37,1.78,1.78,0,0,1-.19.36,1.69,1.69,0,0,0-.5.08,1.05,1.05,0,0,0-.44.26l-.11.11a1.08,1.08,0,0,0-.2.31h0a1.16,1.16,0,0,0-.12.51h0l-.13.06a2.83,2.83,0,0,1-.36.16c-.1,0-.19.07-.29.09a3.77,3.77,0,0,1-1.21.1,4.36,4.36,0,0,1-3-1.64c-.12-.16-.25-.33-.36-.51a4.7,4.7,0,0,1-.68-1.95,3.85,3.85,0,0,1,1.71-3.76,4.11,4.11,0,0,1,5.56,1.64,1.82,1.82,0,0,1,.15.27A4.43,4.43,0,0,1,142.49,254.69Z"/></g><g id="black_beads" data-name="black beads"><path class="cls-7" d="M143.21,257.49a1.32,1.32,0,0,1-.14.7h0a1.07,1.07,0,0,1-.29.38h0a.85.85,0,0,1-.3.19,1.18,1.18,0,0,1-.56.13h-.09a1.22,1.22,0,0,1-.79-.33l-.12-.13a.13.13,0,0,1,0-.06,1.67,1.67,0,0,1-.12-.16l0-.1a.44.44,0,0,1-.07-.22.78.78,0,0,1-.06-.37h0a1.16,1.16,0,0,1,.12-.51h0a1.08,1.08,0,0,1,.2-.31l.11-.11a1.05,1.05,0,0,1,.44-.26,1.69,1.69,0,0,1,.5-.08,1.24,1.24,0,0,1,.41.08h0a1.29,1.29,0,0,1,.53.38A1.27,1.27,0,0,1,143.21,257.49Z"/><path class="cls-7" d="M157.3,264.26a1.7,1.7,0,0,1-.08.51l0,.09-.06.14a1.46,1.46,0,0,1-.32.47,1.75,1.75,0,0,1-1.29.56,1.78,1.78,0,0,1-1.29-.55l-.15-.19a1.05,1.05,0,0,1-.12-.21.68.68,0,0,1-.11-.23l0-.08v0a1.27,1.27,0,0,1-.08-.44v0a1.81,1.81,0,0,1,.18-.77h0l0,0,.11-.19.25-.3.11-.1.12-.08a1.71,1.71,0,0,1,1-.31,1.78,1.78,0,0,1,1.77,1.64s0,0,0,0A.31.31,0,0,1,157.3,264.26Z"/><path class="cls-7" d="M172.85,264.45a.86.86,0,0,1,0,.32,1,1,0,0,1-.22.47h0a.76.76,0,0,1-.19.21,1.3,1.3,0,0,1-1.75,0,1.32,1.32,0,0,1-.46-1,.22.22,0,0,1,0-.08,1.33,1.33,0,0,1,1.33-1.25,1.35,1.35,0,0,1,1.31,1.17A.44.44,0,0,1,172.85,264.45Z"/><path class="cls-7" d="M185.91,259.45a.89.89,0,0,1-.89.89h-.11a.9.9,0,0,1-.78-.88v0a.89.89,0,0,1,1.78,0Z"/></g></g><g id="eyebrows"><path class="cls-7" d="M214.85,126.1a3.48,3.48,0,0,1-1,2.35l-.62.64-.64-.62c-21.44-20.84-43.65-5.11-47.89-1.75l-1.12-1.38c7.13-5.93,14.47-9.44,21.89-10.45,0,0,0,0,0,0,1-.15,2.11-.24,3.16-.29a33.86,33.86,0,0,1,13.91,2.4c1.08.43,2.09.89,3,1.37a33.54,33.54,0,0,1,8.2,5.64A2.88,2.88,0,0,1,214.85,126.1Z"/><path class="cls-7" d="M272.47,130.68h0c-.1.42-.24,1-.4,1.69v0h0l-.81.21v0c-1.52-4.36-6-5.61-10.54-5.61a33.21,33.21,0,0,0-4.51.35l-.34,0a54.59,54.59,0,0,0-9.87,2.53l-.7.26-.38-.65a3.48,3.48,0,0,1-.41-2.46,2.24,2.24,0,0,1,1.13-1.38l.19-.07a54.53,54.53,0,0,1,7.91-1.38c.27,0,.54,0,.82-.07,9-.74,15,1.16,17.49,5.56l.06.1A6.59,6.59,0,0,1,272.47,130.68Z"/></g><g id="hair"><g id="hair_base" data-name="hair base"><path id="hair-2" data-name="hair" class="cls-8" d="M295.36,190.08c-13.38-7.16-19.88-17.52-22.78-27.65a17.32,17.32,0,0,0,3.54-5.09C279.1,179.78,293.45,189,295.36,190.08Z"/><path class="cls-9" d="M262.54,65.71c-1-1.71-1.68-2.7-1.68-2.7A57.36,57.36,0,0,0,236.5,42.63a110.23,110.23,0,0,0-43.06-10c-.58,0-1.28,0-1.85-.08a2.32,2.32,0,0,1-.83.3,6.8,6.8,0,0,1-3.82.24l-.55-.07c-1.37.09-3.06.23-5,.45A12.06,12.06,0,0,0,180,34a35.48,35.48,0,0,0-10,3.47c-.06,0-.72.29-1.37.53a3.58,3.58,0,0,1-1.94.51h0c-3.09.35-5.82.76-5.82.76a28.72,28.72,0,0,1-6.71,4.21l-.3.16a5.69,5.69,0,0,1-1.1.4,12.39,12.39,0,0,1-4.92.91c-.89-.52-2.8,2.28-5,4.26a8.11,8.11,0,0,1-.77.85,2.79,2.79,0,0,1-2.16.92A3,3,0,0,1,139,51c-2.91-.29-3.6,1.8-3.6,1.8l-1.76.74a10,10,0,0,1-1.89.9,73.51,73.51,0,0,0-7.09,4l-.06,0a3.64,3.64,0,0,1-1.72,1.13,1.16,1.16,0,0,1-.31.07c-2.46.54-5.06-1.52-5.06-1.52-1.36-.55-2-1.11-2.23-1.66a17.43,17.43,0,0,1-3.31-4.1c-.8-1.35-.13-1.5,1-2.25a34.71,34.71,0,0,1,4.34-2.41c2.6-1.21-.43-6.58,1.07-8.07s7.33-.68,8.18-3.4A14.85,14.85,0,0,1,132,28.66c2.36-1.59,5.5-1.58,9.65-.91,3.6.58,4.43-5.61,7.22-6.7,2.15-.84,7.7,1.63,10.37-.47,3.88-3.06,3.33-5.69,7.18-6.21,3.09-.41,7.77.56,10.87,1.52,1,.33,2-2.18,2.55-2.76a3.93,3.93,0,0,1,2.62-1.24,5.9,5.9,0,0,1,1.92.15c-16.46-22.2-61.48-6.9-61.48-6.9-23.34,8.07-40.72,29.8-40.72,29.8-52,67.73-22.93,139.45-22.93,139.45,24,56.43,18,81.2-12.54,77.28a20.8,20.8,0,0,0,1.7,5.69h0c1.89,1.26,15.93,9.61,42-2.33,0,0,27.73-7.89,22.44-37.45a292.44,292.44,0,0,1-6.64-40.54l-1-10.85a0,0,0,0,1,0,0,20.68,20.68,0,0,1-.5-5.41v0l-2.06-22.27h0c-6.24-17.93-11.53-50.57,16.74-78.77-2,2.49-30.81,39-10.73,92.29a62.16,62.16,0,0,1-3-5.92c.7,2.05,1.49,4.32,2.34,6.72a8.71,8.71,0,0,1,6.44-1.29c7.1,1.05,14.42,8.29,14.42,8.29,3.79,1.25,4.82-1.37,5.19-3.92,3.5-23.28,8.83-39.27,14.42-50.24.21-.43.43-.85.66-1.27l.17-.34,1.3.39c0,.1,0,.21,0,.31-.07.54-.14,1.09-.2,1.63-2.24,19.66,4.25,40.79,4.25,40.79,7.17,28.09,5.71,48,1.56,61.62-.09.33-.19.65-.3,1a64.48,64.48,0,0,1-2.59,6.77c-4.3,9.55-9.68,14.81-12.39,17.05A54.1,54.1,0,0,0,154.77,218h0c.59-1,1.13-2,1.65-3h0c.78-1.49,1.48-3,2.12-4.54,11.16-26.63,2.66-57.6,2.66-57.6-4-18.77-4.56-33.14-3.09-44.12.1-.79.21-1.56.35-2.31l1.72.33a.14.14,0,0,0,0,.07c34.52,7.83,86.52,10,110.85,10.6.31,2.74.57,5,.71,6.28h0l.11,1a1,1,0,0,0,.05-.16c.73-2.5,1.31-4.87,1.76-7.09l1.82,0a101.9,101.9,0,0,1-2.74,12.24s-.1.32-.26.92h0c-.1.42-.24,1-.4,1.69v0c0,1,0,2.05-.08,3.11,0,.25,0,.49,0,.75s0,.78,0,1.17a22,22,0,0,1,4.29,1.8A98.09,98.09,0,0,1,279,125.61a67.06,67.06,0,0,0,1.87-8l3.59,0C284.62,90.54,274.55,74.82,262.54,65.71ZM93.92,225.37s0-24.82-13.26-57.79c0,0-7.39-22-1.89-41.86,0,0-2.27,23.87,8.72,53.23C87.49,179,98.28,207.93,93.92,225.37ZM56.24,119.92c5.7-49.2,28.41-79.46,28.41-79.46C109.65,4.47,151,5,151,5c-26.14,4.17-45.66,20.84-45.66,20.84C70.32,53.81,56.85,117,56.24,119.92Zm60.17-19.52h0a85.16,85.16,0,0,1,5-26.36,88.15,88.15,0,0,0-1.69,21.13h0c.81,26.24,10.65,51.12,11,51.93C118.65,131.41,115.94,114.19,116.41,100.4ZM162.1,80.83h0a144.78,144.78,0,0,0-10,16.61h0c-1.14,2.22-1.81,3.64-1.88,3.8,5.79-23.48,21.65-32.11,22.15-32.36A73.65,73.65,0,0,0,162.1,80.83ZM206.17,78a34.33,34.33,0,0,1-.7,4.8,40.46,40.46,0,0,1-3.93,10.51s.82-4.15,1.47-9.86c.21-1.86.41-3.89.55-6a80.38,80.38,0,0,0,0-12.22,38.8,38.8,0,0,0-.66-4.51,23.13,23.13,0,0,1,1.92,4.59A33.58,33.58,0,0,1,206.17,78Zm5,34.83c-.51.77-.83,1.18-.83,1.18.15-.4.28-.8.4-1.21,3.4-10.51,3.5-23.75,3.13-31.94,0-.13,0-.27,0-.39-.2-4.16-.51-6.94-.55-7.27a48.84,48.84,0,0,1,2.56,7.27h0c.08.33.16.67.24,1h0A40.24,40.24,0,0,1,211.17,112.84Zm12.07-59.62c-26.74-1.46-44.44,5.21-56.06,14.1C148,82,145.45,102.73,146.18,103l.14,0-1,.26q-2.58-.72-4.95-1.52c-.65-.23,1.78-17.46,16.49-31.91,11.57-11.36,30.73-21,62-19.3,0,0,19.6-.75,36.62,10.59A69.6,69.6,0,0,0,223.24,53.22Zm15.58,61.08a18.5,18.5,0,0,1-1.4,1.55,14.55,14.55,0,0,0,.79-1.58h0c3.8-8.54,1.32-20,.59-22.93-.1-.39-.16-.63-.18-.69l.5.61C247.3,101.54,241.68,110.75,238.82,114.3ZM251.6,89.89c-1.54-2.84-3.61-6.49-6-10.38-1.19-1.91-2.47-3.87-3.81-5.82h0c-4.63-6.76-10.06-13.36-15.39-16.94-.37-.26,12.2,4.22,21.2,20,.7,1.22,1.37,2.5,2,3.86A62.64,62.64,0,0,1,253.15,90c.53,1.78,1,3.65,1.42,5.61C254.45,95.33,253.38,93.15,251.6,89.89Zm10,25c-.11.64-.24,1.3-.39,1.95,0,0-.05-.69-.2-1.95a138.75,138.75,0,0,0-5.29-24.7c-.83-2.69-1.79-5.49-2.88-8.34-.29-.73-.58-1.47-.88-2.21a109.65,109.65,0,0,0-8.77-17.31,79.38,79.38,0,0,1,14.31,22.09v0a1.89,1.89,0,0,0,.09.21h0a68.24,68.24,0,0,1,2.38,6.6A50.28,50.28,0,0,1,261.59,114.9Z"/></g><g id="hair_shade" data-name="hair shade"><path id="hair_shade-2" data-name="hair shade" class="cls-10" d="M255.42,61.15a69.6,69.6,0,0,0-32.18-7.93c-26.74-1.46-44.44,5.21-56.06,14.1C148,82,145.45,102.73,146.18,103l.14,0-1,.26q-2.58-.72-4.95-1.52c-.65-.23,1.78-17.46,16.49-31.91,11.57-11.36,30.73-21,62-19.3C218.8,50.56,238.4,49.81,255.42,61.15Z"/><path id="hair_shade-3" data-name="hair shade" class="cls-10" d="M261.59,114.9c-.11.64-.24,1.3-.39,1.95,0,0-.05-.69-.2-1.95a138.75,138.75,0,0,0-5.29-24.7c-.83-2.69-1.79-5.49-2.88-8.34-.29-.73-.58-1.47-.88-2.21a109.65,109.65,0,0,0-8.77-17.31,79.38,79.38,0,0,1,14.31,22.09v0a1.89,1.89,0,0,0,.09.21h0a68.24,68.24,0,0,1,2.38,6.6A50.28,50.28,0,0,1,261.59,114.9Z"/><path id="hair_shade-4" data-name="hair shade" class="cls-10" d="M211.17,112.84c-.51.77-.83,1.18-.83,1.18.15-.4.28-.8.4-1.21,3.4-10.51,3.5-23.75,3.13-31.94,0-.13,0-.27,0-.39-.2-4.16-.51-6.94-.55-7.27a48.84,48.84,0,0,1,2.56,7.27h0c.08.33.16.67.24,1h0A40.24,40.24,0,0,1,211.17,112.84Z"/><path id="hair_shade-5" data-name="hair shade" class="cls-10" d="M238.82,114.3a18.5,18.5,0,0,1-1.4,1.55,14.55,14.55,0,0,0,.79-1.58h0c3.8-8.54,1.32-20,.59-22.93-.1-.39-.16-.63-.18-.69l.5.61C247.3,101.54,241.68,110.75,238.82,114.3Z"/><path id="hair_shade-6" data-name="hair shade" class="cls-10" d="M108.68,152a62.16,62.16,0,0,1-3-5.92c.7,2.05,1.49,4.32,2.34,6.72a9.22,9.22,0,0,0-1.49,1.28,14.15,14.15,0,0,0-1.81,6.68l-2.06-22.27h0c-6.24-17.93-11.53-50.57,16.74-78.77C117.38,62.16,88.6,98.62,108.68,152Z"/><path id="hair_shade-7" data-name="hair shade" class="cls-10" d="M137.91,230.85c-.06,1-.15,2-.26,3-.05.52-.12,1.05-.19,1.58l-.12.81c-.08.54-.18,1.09-.28,1.65-.15.83-.32,1.68-.52,2.53a3.89,3.89,0,0,1-.11.43c-.08.4-.18.79-.3,1.19,0,.13-.07.26-.11.4-.1.38-.22.77-.34,1.15-.2.65-.43,1.3-.67,1.93-.08.25-.18.5-.28.75q-.47,1.17-1,2.31c-.13.28-.28.56-.43.83a19.09,19.09,0,0,1-1,1.76.05.05,0,0,0,0,0,19.55,19.55,0,0,1-9,7.41s-2.43.69-6.58,1.69l-.08,0-.07,0c-2.67.65-6,1.43-9.93,2.22l-.15,0a257.81,257.81,0,0,1-27.95,4.19l1.17-.16c-.86.09-1.76.18-2.67.29l-.16,0c-2.94.24-5.92.42-8.89.52h-.13a30,30,0,0,1-10.33-1.83l-.09,0a18.76,18.76,0,0,1-6.29-4.26,3.47,3.47,0,0,1-.32-.34,16,16,0,0,1-2.34-3.66c1.89,1.26,15.93,9.61,42-2.33,0,0,27.73-7.89,22.44-37.45a292.44,292.44,0,0,1-6.64-40.54l-1-10.85c1,4.56,3.71,10.24,9.73,16.76a30.72,30.72,0,0,0,4.15,5.26c.12.13.26.27.41.41a13.11,13.11,0,0,0,1.33,1.14,5.2,5.2,0,0,0,.47.35,10.31,10.31,0,0,0,1.94,1.13,5.63,5.63,0,0,0,4.24.29,4.32,4.32,0,0,0,.83-.37h0c.18-.1.35-.21.54-.34s.37-.28.56-.44.34-.32.52-.5l.27-.29,0,0,.18-.22a8.14,8.14,0,0,0,.58-.77c.11-.14.2-.29.3-.44a1,1,0,0,0,.13-.2l0,0,.15-.25c.66,1,1.27,1.93,1.84,2.81.28.45.56.87.83,1.29.91,1.46,1.67,2.73,2.2,3.73.24.43.42.82.57,1.14h0a4.06,4.06,0,0,1,.31,1.76c0,.12,0,.26,0,.42,0,.5-.1,1.17-.16,2,0,.22,0,.45-.05.69l0,.44a124,124,0,0,0-.2,12.79c.17,3.94.8,7.76,1,11.65A36.87,36.87,0,0,1,137.91,230.85Z"/></g><g id="hair_highlights" data-name="hair highlights"><path id="highlights" class="cls-8" d="M254.57,95.57c-.12-.24-1.19-2.42-3-5.68-1.54-2.84-3.61-6.49-6-10.38-1.19-1.91-2.47-3.87-3.81-5.82h0c-4.63-6.76-10.06-13.36-15.39-16.94-.37-.26,12.2,4.22,21.2,20,.7,1.22,1.37,2.5,2,3.86A62.64,62.64,0,0,1,253.15,90C253.68,91.74,254.16,93.61,254.57,95.57Z"/><path id="highlights-2" data-name="highlights" class="cls-8" d="M206.17,78a34.33,34.33,0,0,1-.7,4.8,40.46,40.46,0,0,1-3.93,10.51s.82-4.15,1.47-9.86c.21-1.86.41-3.89.55-6a80.38,80.38,0,0,0,0-12.22,38.8,38.8,0,0,0-.66-4.51,23.13,23.13,0,0,1,1.92,4.59A33.58,33.58,0,0,1,206.17,78Z"/><path id="highlights-3" data-name="highlights" class="cls-8" d="M172.35,68.89A73.65,73.65,0,0,0,162.1,80.83h0a144.78,144.78,0,0,0-10,16.61h0c-1.14,2.22-1.81,3.64-1.88,3.8C156,77.77,171.85,69.14,172.35,68.89Z"/><path id="hair_highlights-2" data-name="hair highlights" class="cls-8" d="M151,5c-26.14,4.17-45.66,20.84-45.66,20.84-35,27.94-48.44,91.12-49.05,94.05,5.7-49.2,28.41-79.46,28.41-79.46C109.65,4.47,151,5,151,5Z"/><path id="hair_highlights-3" data-name="hair highlights" class="cls-8" d="M93.92,225.37s0-24.82-13.26-57.79c0,0-7.39-22-1.89-41.86,0,0-2.27,23.87,8.72,53.23C87.49,179,98.28,207.93,93.92,225.37Z"/><path id="hair_highlights-4" data-name="hair highlights" class="cls-8" d="M130.67,147.1c-12-15.69-14.73-32.91-14.26-46.7h0a85.16,85.16,0,0,1,5-26.36,88.15,88.15,0,0,0-1.69,21.13h0C120.51,121.41,130.35,146.29,130.67,147.1Z"/></g></g><g id="nose"><path id="nose-2" data-name="nose" class="cls-7" d="M233.31,193.05c5.14-6.38.19-11.12.19-11.12-6.08-5.23-13.47,1.13-13.8,1.42C227.48,174.28,234,179,234,179,242,185.27,233.67,192.73,233.31,193.05Z"/><path id="nostril" class="cls-7" d="M227.32,189.08l-5.09,1S221.47,186.71,227.32,189.08Z"/></g><path id="mouth" class="cls-11" d="M225.9,209.76s-18.65,14.38-28.61.83c0,0-7.9-12.29,11.91-19.31C209.2,191.28,213.84,207.08,225.9,209.76Z"/><g id="right_eye" data-name="right eye"><path id="right_eye-2" data-name="right eye" class="cls-7" d="M194.35,142.84a10.21,10.21,0,0,0-1.66-2.94,48,48,0,0,1,23.88,13.57s-.29-.42-.86-1.15a1.25,1.25,0,0,1-.08-.12l-.11-.14a.31.31,0,0,1-.07-.09c-4.62-5.84-23.17-26.09-50.4-13.75l-.48,3.16h0l.12-.05a48.33,48.33,0,0,1,9.72-2.21,10.75,10.75,0,0,0-1.52,1.8,10.41,10.41,0,0,0,2.33,14.38,12.36,12.36,0,0,0,7.44,2.45,12,12,0,0,0,1.79-.13c6.06-.83,10.5-5.73,10.5-11.25a10.62,10.62,0,0,0-.09-1.37A9.8,9.8,0,0,0,194.35,142.84Zm-5.9,3.18a1.64,1.64,0,1,1,1.73-1.55A1.65,1.65,0,0,1,188.45,146Z"/><path id="rt_eye_white" data-name="rt eye white" class="cls-11" d="M217.92,154.82a32.54,32.54,0,0,1-28.48,12.65s-28.48-1.69-24.85-26.1l.12-.05a48.33,48.33,0,0,1,9.72-2.21,10.75,10.75,0,0,0-1.52,1.8,10.41,10.41,0,0,0,2.33,14.38,12.36,12.36,0,0,0,7.44,2.45,12,12,0,0,0,1.79-.13c6.06-.83,10.5-5.73,10.5-11.25a10.62,10.62,0,0,0-.09-1.37,9.8,9.8,0,0,0-.53-2.15,10.21,10.21,0,0,0-1.66-2.94,48,48,0,0,1,23.88,13.57s-.29-.42-.86-1.15c.11.11.21.21.3.32a0,0,0,0,0,0,0C216.66,153.34,217.29,154.07,217.92,154.82Z"/><path id="rt_eye_highlight" data-name="rt eye highlight" class="cls-11" d="M190.18,144.47a1.64,1.64,0,1,1-1.54-1.73A1.65,1.65,0,0,1,190.18,144.47Z"/><g id="rt_eye_shade" data-name="rt eye shade"><path class="cls-12" d="M174.43,139.11a10.75,10.75,0,0,0-1.52,1.8,45.53,45.53,0,0,0-8.34,1.35l.14-.94A48.33,48.33,0,0,1,174.43,139.11Z"/><path class="cls-12" d="M217.39,154.42a64,64,0,0,0-23-11.58,10.21,10.21,0,0,0-1.66-2.94,48,48,0,0,1,23.88,13.57s-.29-.42-.86-1.15a1.25,1.25,0,0,1-.08-.12l.38.44a0,0,0,0,0,0,0C216.92,153.74,217.39,154.42,217.39,154.42Z"/></g></g><g id="left_eye" data-name="left eye"><path id="left_eye-2" data-name="left eye" class="cls-7" d="M277.5,140c-.43-.27-.85-.51-1.28-.75a22,22,0,0,0-4.29-1.8h0c-.24-.07-.47-.14-.72-.19a21.29,21.29,0,0,0-12.35.73c-10.31,3.55-18.55,13.18-21,16.32l-.16.2c0,.06-.08.11-.13.16a.76.76,0,0,1-.13.17,1,1,0,0,1-.11.15.19.19,0,0,1-.07.08c0,.06-.07.1-.09.14l-.07.09.32-.32c.07-.07.13-.15.2-.23a54.21,54.21,0,0,1,8.86-7.59c-.05.08-.08.16-.12.24a6.87,6.87,0,0,0-.4,1.1,8.29,8.29,0,0,0-.27,1.22,8.81,8.81,0,0,0,1.77,6.56,10.65,10.65,0,0,0,7.08,4,11.1,11.1,0,0,0,1.52.11,10.76,10.76,0,0,0,2.54-.3l.31-.08a9,9,0,0,0,1.56-17.15c-.3-.15-.59-.27-.9-.39l-.39-.14-.11,0h0a9.6,9.6,0,0,0-1.6-.4c.57-.16,1.12-.3,1.68-.42a28.93,28.93,0,0,1,11.62-.25c.32.05.63.12.92.18h0a24.45,24.45,0,0,1,4.17,1.28,19.29,19.29,0,0,1,2,.95l.06,0Zm-18.28,5.42a1.57,1.57,0,0,1,.58-.07,1.64,1.64,0,0,1-.19,3.27,1.77,1.77,0,0,1-.4-.08,1.62,1.62,0,0,1-1.14-1.65A1.66,1.66,0,0,1,259.22,145.41Z"/><path id="left_eye_white" data-name="left eye white" class="cls-11" d="M276.12,157.34a17.32,17.32,0,0,1-3.54,5.09,18.76,18.76,0,0,1-4.85,3.45l-.26.13a23.43,23.43,0,0,1-8.92,2.26l-.92,0C242,167.57,236.91,157,236.5,156.06a55,55,0,0,1,9.42-7.57,8.29,8.29,0,0,0-.27,1.22,8.81,8.81,0,0,0,1.77,6.56,10.65,10.65,0,0,0,7.08,4,11.1,11.1,0,0,0,1.52.11,10.76,10.76,0,0,0,2.54-.3l.31-.08a9,9,0,0,0,1.56-17.15,31.62,31.62,0,0,1,10.18.11l.89.17.05,0a29.28,29.28,0,0,1,4.18,1.21,21.63,21.63,0,0,1,2.31,1.05A24.88,24.88,0,0,1,276.12,157.34Z"/><path id="eye_highlight_left" data-name="eye highlight left" class="cls-11" d="M261.33,147.07a1.63,1.63,0,0,1-1.72,1.54,1.77,1.77,0,0,1-.4-.08,1.62,1.62,0,0,1-1.14-1.65,1.66,1.66,0,0,1,1.15-1.47,1.57,1.57,0,0,1,.58-.07A1.63,1.63,0,0,1,261.33,147.07Z"/><g id="left_eye_shade" data-name="left eye shade"><path class="cls-12" d="M246.44,147.15c-.05.08-.08.16-.12.24a6.87,6.87,0,0,0-.4,1.1,55,55,0,0,0-9.42,7.57l-.07.07.07-.09.88-1.07c.07-.07.13-.15.2-.23A54.21,54.21,0,0,1,246.44,147.15Z"/><path class="cls-12" d="M278,145.44a21.63,21.63,0,0,0-2.31-1.05,29.28,29.28,0,0,0-4.18-1.21l-.05,0-.89-.17a31.62,31.62,0,0,0-10.18-.11c-.3-.15-.59-.27-.9-.39l-.39-.14-.11,0h0a9.6,9.6,0,0,0-1.6-.4c.57-.16,1.12-.3,1.68-.42a28.93,28.93,0,0,1,11.62-.25c.32.05.63.12.92.18h0a24.45,24.45,0,0,1,4.17,1.28,19.29,19.29,0,0,1,2,.95v.06C278,144.31,278,144.89,278,145.44Z"/></g></g><g id="scrunchie"><path class="cls-13" d="M197.53,19.62a21.76,21.76,0,0,0,.23-2.84s-.68,9-7.53,13h0a12.45,12.45,0,0,1-2.59,1.14s-2.78,0-.84-4.44c0,0,2.36-5.54-5,2.22,0,0-9,8.59-7.62,2.91,0,0,2.77-9.57-3.75-2.63,0,0,2.22,3.6-2.63,4.16,0,0-4.58-.56-4.16-3.61,0,0-.42-5.13-6.1.56a4.46,4.46,0,0,0,2.77,3.18s2.5,4.72-5.68,4.44c0,0-3.19-.13-2.22-4.71,0,0,1.66-3.19-5.4,1.38A2.4,2.4,0,0,0,145.91,37s2.91,2.08-2.08,4.16c0,0-2.78.28-4.16-1.11,0,0-4.58-1.67-6.1,1.8,0,0-1,2.64,1.94,1.53,0,0,5.54-.83,1.24,2.21,0,0-1.38,3.75-4.71,3.61,0,0-3.88-.28-4.71-2.63,0,0-4.16-1.53-4.16,2.35a3.68,3.68,0,0,0,3.74,2.78s4.16,2.08-2.35,3c0,0-4.3.42-5.28-1.66,0,0-4.77,1.6-4,3.47a17.43,17.43,0,0,1-3.31-4.1c-.8-1.35-.13-1.5,1-2.25a34.71,34.71,0,0,1,4.34-2.41c2.6-1.21-.43-6.58,1.07-8.07s7.33-.68,8.18-3.4A14.85,14.85,0,0,1,132,28.66c2.36-1.59,5.5-1.58,9.65-.91,3.6.58,4.43-5.61,7.22-6.7,2.15-.84,7.7,1.63,10.37-.47,3.88-3.06,3.33-5.69,7.18-6.21,3.09-.41,7.77.56,10.87,1.52,1,.33,2-2.18,2.55-2.76a3.93,3.93,0,0,1,2.62-1.24,5.9,5.9,0,0,1,1.92.15,4,4,0,0,1,2.52,2c.85,1.51,2.46,4.13,4.51,3.92,2.77-.27,4.58-6.29,6.67-2.48A13.77,13.77,0,0,1,197.53,19.62Z"/><path id="scrunchie_shade" data-name="scrunchie shade" class="cls-14" d="M197.76,16.78a21.76,21.76,0,0,1-.23,2.84,24.61,24.61,0,0,1-2.3,7.47h0c-1,2.54-2.28,4.71-3.64,5.5a2.32,2.32,0,0,1-.83.3,6.8,6.8,0,0,1-3.82.24l-.55-.07c-1.37.09-3.06.23-5,.45A12.06,12.06,0,0,0,180,34a35.48,35.48,0,0,0-10,3.47c-.06,0-.72.29-1.37.53a3.58,3.58,0,0,1-1.94.51h0c-3.09.35-5.82.76-5.82.76a28.72,28.72,0,0,1-6.71,4.21l-.3.16a5.69,5.69,0,0,1-1.1.4,12.39,12.39,0,0,1-4.92.91c-.89-.52-2.8,2.28-5,4.26a8.11,8.11,0,0,1-.77.85,2.79,2.79,0,0,1-2.16.92A3,3,0,0,1,139,51c-2.91-.29-3.6,1.8-3.6,1.8l-1.76.74a10,10,0,0,1-1.89.9,73.51,73.51,0,0,0-7.09,4l-.06,0a3.64,3.64,0,0,1-1.72,1.13l-.31.07c-2.46.54-5.06-1.52-5.06-1.52-1.36-.55-2-1.11-2.23-1.66-.74-1.87,4-3.47,4-3.47,1,2.08,5.28,1.66,5.28,1.66,6.51-1,2.35-3,2.35-3a3.68,3.68,0,0,1-3.74-2.78c0-3.88,4.16-2.35,4.16-2.35.83,2.35,4.71,2.63,4.71,2.63,3.33.14,4.71-3.61,4.71-3.61,4.3-3-1.24-2.21-1.24-2.21-2.91,1.11-1.94-1.53-1.94-1.53,1.52-3.47,6.1-1.8,6.1-1.8,1.38,1.39,4.16,1.11,4.16,1.11,5-2.08,2.08-4.16,2.08-4.16A2.4,2.4,0,0,1,147,34.38c7.06-4.57,5.4-1.38,5.4-1.38-1,4.58,2.22,4.71,2.22,4.71,8.18.28,5.68-4.44,5.68-4.44a4.46,4.46,0,0,1-2.77-3.18c5.68-5.69,6.1-.56,6.1-.56-.42,3,4.16,3.61,4.16,3.61,4.85-.56,2.63-4.16,2.63-4.16,6.52-6.94,3.75,2.63,3.75,2.63-1.39,5.68,7.62-2.91,7.62-2.91,7.35-7.76,5-2.22,5-2.22-1.94,4.44.84,4.44.84,4.44a12.45,12.45,0,0,0,2.59-1.14h0C197.08,25.82,197.76,16.78,197.76,16.78Z"/></g><g id="earring"><path id="earring-2" data-name="earring" class="cls-15" d="M125.29,181.7a4,4,0,0,0-3.52,2.1h0a3.87,3.87,0,0,0-.48,1.89,4,4,0,1,0,4-4Zm-2.78,3.23a4.06,4.06,0,0,0-.25,1.13,2.63,2.63,0,0,1,0-1.46,2.49,2.49,0,0,1,2-1.57A3.07,3.07,0,0,0,122.51,184.93Zm3.69,4.2a3.69,3.69,0,0,1-1,.13c-1,0-.44-.14.39-.59a5.8,5.8,0,0,0,.69-.42,3.77,3.77,0,0,0,1.38-1.89,6.85,6.85,0,0,0,.18-1.75c0-1.18-.49-1.92,0-1.43a3.6,3.6,0,0,1-1.66,5.95Z"/><path id="earring_shine" data-name="earring shine" class="cls-16" d="M128.85,185.66a3.59,3.59,0,0,1-2.65,3.47,3.69,3.69,0,0,1-1,.13c-1,0-.44-.14.39-.59a5.8,5.8,0,0,0,.69-.42,3.77,3.77,0,0,0,1.38-1.89,6.85,6.85,0,0,0,.18-1.75c0-1.18-.49-1.92,0-1.43A3.61,3.61,0,0,1,128.85,185.66Z"/><path id="earring_shine-2" data-name="earring shine" class="cls-16" d="M124.32,183a3.07,3.07,0,0,0-1.81,1.9,4.06,4.06,0,0,0-.25,1.13,2.63,2.63,0,0,1,0-1.46A2.49,2.49,0,0,1,124.32,183Z"/></g></svg>