<svg id="Layer_1" data-name="Layer 1" xmlns="http://www.w3.org/2000/svg" viewBox="0 0 309.61 411"><defs><style>.cls-1{fill:#e2ab90;}.cls-2{fill:#d39781;}.cls-3{fill:#f2759b;}.cls-4{fill:#de5386;}.cls-5{fill:#f1e4dc;}.cls-6{fill:#010101;}.cls-7{fill:#5e321a;}.cls-8{fill:#4a2814;}.cls-9{fill:#321b0f;}.cls-10{fill:#fff;}.cls-11{fill:#ccc;opacity:0.5;}.cls-12{fill:#8bd3dd;}.cls-13{fill:#4fc3c4;}.cls-14{fill:#fbb251;}.cls-15{fill:#e5942f;}</style></defs><g id="skin"><g id="skin_base" data-name="skin base"><path class="cls-1" d="M188.64,301a12.54,12.54,0,0,1-3.58,5.12l-.4.34-.32.26c-.17.14-.35.27-.54.41a19.49,19.49,0,0,1-3.11,1.82l-.73.34-.27.11c-.43.18-.88.36-1.35.53s-.69.25-1.05.36l-.55.17c-.56.17-1.14.33-1.75.48-.2.06-.4.1-.61.15-.85.2-1.76.38-2.72.54l-.8.13c-.59.09-1.19.18-1.82.25-1.61.19-3.36.33-5.25.41l-1.06,0c-.86,0-1.76,0-2.69,0l-1.57-.06c-31.93-1.68-33.92-14.87-33.7-21.87,1.65-.56,3.06-1.09,4.26-1.59h0l.51-.22.07,0A4.91,4.91,0,0,0,133,290.6a3.88,3.88,0,0,0,1.36-.11,2,2,0,0,0,.32-.1,2.13,2.13,0,0,0,.41-.18l.15-.07a1,1,0,0,0,.06.42.73.73,0,0,0,.08.25l0,.11.13.18a.18.18,0,0,0,0,.07.93.93,0,0,0,.14.14,1.38,1.38,0,0,0,.88.38h.11a1.39,1.39,0,0,0,.63-.15,2.31,2.31,0,0,0-.05.46,2.37,2.37,0,0,0,0,.46,1.1,1.1,0,0,0,0,.18,5,5,0,0,0,.7,1.82.5.5,0,0,0,.22.35,10.37,10.37,0,0,0,3.9,3.27,10.08,10.08,0,0,0,1.22.54,6.26,6.26,0,0,0,.61.21,11,11,0,0,0,1.19.31l.58.09.57.06.52,0,.52,0,.24,0,.25,0,.24,0a2.58,2.58,0,0,0,.42-.1,1.91,1.91,0,0,0,.34-.1l.32-.13a2.31,2.31,0,0,0,.35-.18l.15-.09.15-.11.09-.06a1.64,1.64,0,0,0,.24-.21.09.09,0,0,0,0,0l0,.09a.85.85,0,0,0,.12.26,1.76,1.76,0,0,0,.14.23,1.2,1.2,0,0,0,.17.21,2,2,0,0,0,1.45.63,2,2,0,0,0,1.45-.64,1.47,1.47,0,0,0,.36-.53,2.31,2.31,0,0,0,.05.46.32.32,0,0,0,0,.09h0s0,.05,0,.07a.76.76,0,0,0,.06.2.78.78,0,0,0,0,.14l0,.08a2.59,2.59,0,0,0,.14.29,3,3,0,0,0,.37.53,3.69,3.69,0,0,0,.72.7,5.42,5.42,0,0,0,.67.48h0a10.32,10.32,0,0,0,5.19,1.28c3.25,0,6-1.25,7-3a2,2,0,0,0,.13-.25h0a2.36,2.36,0,0,0,.2-.62.59.59,0,0,0,0-.14l0,.13a1.49,1.49,0,0,0,2.93.19.2.2,0,0,0,0,.08,1.77,1.77,0,0,0,.16.22,3.17,3.17,0,0,0,.34.39c.07.06.14.13.21.18l.21.16a4.61,4.61,0,0,0,1.19.62l.27.09a7.76,7.76,0,0,0,1.87.35c.24,0,.49,0,.74,0a11.85,11.85,0,0,0,2.88-.37,12.14,12.14,0,0,0,1.25-.39h0A38.17,38.17,0,0,0,188.64,301Z"/><path class="cls-1" d="M278.19,187a216.51,216.51,0,0,1-13,36.31s-21.35,49.82-48.72,51.46c0,0,38.52-13.51,50.63-85.26-17.64-.75-23.34-12.69-23.8-13.72l-.08.08.07-.1,0-.05.67-.84a1,1,0,0,1,.17-.21.35.35,0,0,0,.07-.09l.13-.17.15-.19.14-.18.18-.23c2.79-3.54,12.07-14.39,23.68-18.38q-.09-.88-.21-1.74a1.1,1.1,0,0,0,0-.18c-.06-.44-.12-.87-.19-1.29l-.09-.56c-.07-.43-.15-.86-.24-1.28-.15-.8-.33-1.57-.53-2.31-.13-.49-.27-1-.42-1.43s-.31-.92-.48-1.35c-.08-.22-.17-.43-.26-.64q-.27-.63-.57-1.2l-.38,0A62.15,62.15,0,0,0,254,146.35l-.79.3-.42-.73a3.94,3.94,0,0,1-.47-2.78,2.52,2.52,0,0,1,1.28-1.55l.21-.08a61.86,61.86,0,0,1,8.91-1.55,6.45,6.45,0,0,0-3.7-1.33c-3.19-.13-8.52.56-26.21-1.76-7.68-1-15.93-2.2-24.25-3.53a38.09,38.09,0,0,1,9.24,6.36,3.28,3.28,0,0,1,1.16,2.35,3.89,3.89,0,0,1-1.09,2.65l-.69.72-.72-.7c-24.16-23.47-49.18-5.76-53.95-2l-1.26-1.55c8-6.69,16.3-10.64,24.65-11.78-10.74-2-20.78-4.2-28.92-6.39-1.57,12.3-.94,28.32,3.55,49.17,0,0,9.86,35.73-3.5,66a65.83,65.83,0,0,1-4.35,8.25,2.71,2.71,0,0,1-.06.38v0c-2.38,13.8-11.87,32-15.77,37.06a5.09,5.09,0,0,1,.59,3c0,.14,0,.28-.07.41a5.62,5.62,0,0,1-.15.55,3.79,3.79,0,0,1-.18.42,2.24,2.24,0,0,1-.22.4,1.25,1.25,0,0,1,.46.09h0a1.47,1.47,0,0,1,.6.43,1.39,1.39,0,0,1,.36.86,1.33,1.33,0,0,1,.3-.23,2.63,2.63,0,0,1,.33-.2,3.1,3.1,0,0,1,.45-.21,3.51,3.51,0,0,1,.8-.23l.17,0s0,0,0,0a1.55,1.55,0,0,1,.31,0h0l.2,0a5.86,5.86,0,0,1,1.11,0l.57.06.6.09.57.13.53.15.69.23c.4.16.81.34,1.22.54a9.43,9.43,0,0,1,.83.47l.52.33c.18.12.34.24.5.37a1.76,1.76,0,0,1,.3.24c.21.17.41.35.6.53l.27.27c.11.11.21.22.31.34l.2.24a6.8,6.8,0,0,1,.68,1c.1.17.18.35.26.52l.12.3a3.3,3.3,0,0,1,.12.38,1.27,1.27,0,0,1,.06.28s0,0,0,.05a.28.28,0,0,1,0,.13v0a.88.88,0,0,1,0,.16.37.37,0,0,1,0,.11,1.91,1.91,0,0,1,1.12-.35,2,2,0,0,1,2,1.84,1.59,1.59,0,0,1,.12-.27,1.19,1.19,0,0,1,.08-.16,3.84,3.84,0,0,1,.82-1l.11-.1a3.37,3.37,0,0,1,.37-.29,5.46,5.46,0,0,1,.47-.31,4.3,4.3,0,0,1,.52-.28,4.91,4.91,0,0,1,.57-.25,3.89,3.89,0,0,1,.6-.22l.48-.14.42-.1a3.82,3.82,0,0,1,.57-.11,2,2,0,0,1,.35-.06h.1l.64-.07.29,0,.65,0,.66,0,.46,0a3,3,0,0,1,.42,0c.22,0,.44.06.65.1a6.43,6.43,0,0,1,.76.17,4.28,4.28,0,0,1,.51.15,7.29,7.29,0,0,1,2.5,1.3l.26.23.16.16a2.26,2.26,0,0,1,.25.29,1.62,1.62,0,0,1,.2.28.07.07,0,0,1,0,.06,2.58,2.58,0,0,1,.18.32,2.87,2.87,0,0,1,.15.37l.18.16a1.49,1.49,0,0,1,2.52-1,3.62,3.62,0,0,1,.83-2.2,6.07,6.07,0,0,1-.15-1.57s-5.72-30.26-19.2-46.19a89,89,0,0,0,10.13,8.67,1.16,1.16,0,0,0,.21.16,127.94,127.94,0,0,0,20.39,12.45l.13.06.76.34C202.94,277,216.44,276,216.44,276c27.37-1.64,48.72-51.45,48.72-51.45a215.44,215.44,0,0,0,13.33-37.66ZM240.48,201.6c9.05,7.11-.36,15.51-.77,15.87,5.79-7.19.22-12.53.22-12.53-6.85-5.89-15.18,1.28-15.55,1.61C233.14,196.33,240.48,201.6,240.48,201.6ZM233,213l-5.73,1.15S226.37,210.33,233,213Zm-42.67-24.34s-32.08-1.91-28-29.41h0l.55-3.56c30.67-13.9,51.57,8.92,56.77,15.5l.08.1.12.15.43.5a0,0,0,0,0,0,0c.73.78,1.44,1.6,2.15,2.44A36.68,36.68,0,0,1,190.29,188.66Zm8.84,48.57s-8.9-13.84,13.42-21.75c0,0,5.23,17.8,18.81,20.82C231.36,236.3,210.36,252.5,199.13,237.23Z"/><path id="side_face" data-name="side face" class="cls-1" d="M151.08,165.72s-7.31-23.8-4.79-45.95c-.75-.27-1.46-.54-2.12-.81-6.29,12.36-12.3,30.37-16.24,56.6-.42,2.87-1.58,5.82-5.85,4.41,0,0-8.25-8.16-16.24-9.34a9.84,9.84,0,0,0-7.26,1.45,10.62,10.62,0,0,0-1.68,1.45,15.88,15.88,0,0,0-2,7.52v0l.56,6.09a0,0,0,0,0,0,0c1.14,5.14,4.18,11.54,11,18.89a34.6,34.6,0,0,0,4.67,5.92l.47.46c.47.45,1,.88,1.49,1.29a6.55,6.55,0,0,0,.53.39,11.31,11.31,0,0,0,2.19,1.27,6.31,6.31,0,0,0,4.78.33,4.77,4.77,0,0,0,.93-.42h0c.2-.12.41-.24.61-.38s.42-.32.63-.5.39-.36.59-.56l.3-.33,0,0,.21-.25c.21-.27.45-.58.65-.86s.23-.33.34-.5l.15-.22,0,0,.17-.28c.74,1.11,1.43,2.17,2.07,3.17.33.5.63,1,.93,1.45,1,1.64,1.87,3.06,2.48,4.2.27.49.48.92.65,1.29h0a161.75,161.75,0,0,0,18.28,22.34,72.18,72.18,0,0,0,2.92-7.63c.12-.36.23-.72.34-1.09C157.51,219.76,159.15,197.36,151.08,165.72Zm-38.75,35.11c-5.28-3-3.3-7.81-3.3-7.81a8.59,8.59,0,0,1,1.63-2.49,6.32,6.32,0,0,1,2-1.47,4.68,4.68,0,0,1,1.74-.45,10.56,10.56,0,0,0-4.45-6,14.86,14.86,0,0,0-6.61-2.16,12.76,12.76,0,0,0-1.71-.06h-.23l.2-.08a8.52,8.52,0,0,1,1.33-.42,11.82,11.82,0,0,1,6,0c3,.83,6.24,3.17,8.48,8.77a9.05,9.05,0,0,0-3.26,3.61,3.92,3.92,0,0,0,0,3.25l1,1.45a5.45,5.45,0,0,0,1.63.78,4.7,4.7,0,0,0,4.68-1.14l.91.91a6.18,6.18,0,0,1-3.64,3.9,1.82,1.82,0,0,1-.37.13A9.36,9.36,0,0,1,112.33,200.83Zm7.24,12.58a4.44,4.44,0,0,1-1.55.28,4.5,4.5,0,0,1-4.5-4.5,4.38,4.38,0,0,1,.54-2.13h0a4.5,4.5,0,1,1,5.51,6.36Z"/></g><g id="skin_shade" data-name="skin shade"><path class="cls-2" d="M189.45,296.77c0,.07,0,.15,0,.24s0,.28,0,.45,0,.26,0,.4-.05.39-.08.61c0,0,0,.06,0,.09s0,.2-.05.31-.05.29-.08.43a2.25,2.25,0,0,1,0,.22c-.09.32-.2.67-.34,1.06l0,0-.15.42a38.17,38.17,0,0,1-8-.51h0a12.14,12.14,0,0,1-1.25.39,11.85,11.85,0,0,1-2.88.37c-.25,0-.5,0-.74,0a7.76,7.76,0,0,1-1.87-.35l-.27-.09a4.61,4.61,0,0,1-1.19-.62l-.21-.16c-.07,0-.14-.12-.21-.18a3.17,3.17,0,0,1-.34-.39,1.77,1.77,0,0,1-.16-.22.2.2,0,0,1,0-.08,1.49,1.49,0,0,1-2.93-.19l0-.13h0a2.15,2.15,0,0,0,0-.77,1.89,1.89,0,0,0-.1-.41l.18.16a.34.34,0,0,0,0,.1,1.48,1.48,0,0,0,.51,1.12,1.48,1.48,0,0,0,2,0,1.15,1.15,0,0,0,.21-.23h0a1.13,1.13,0,0,0,.25-.53l0,.08a1,1,0,0,0,.08.11,2.75,2.75,0,0,0,.61.62,4.47,4.47,0,0,0,1,.59,6.12,6.12,0,0,0,1.23.4,10.19,10.19,0,0,0,4.16,0c.25,0,.49-.1.74-.16,3.3-.84,5.73-2.88,6.07-4.89a2.07,2.07,0,0,0,0-.6,2.68,2.68,0,0,0-.07-.56s0,0,0-.05a36.35,36.35,0,0,0,3.76,2.79Z"/><path class="cls-2" d="M182,290.05a13.45,13.45,0,0,0,.81,1.43,10.13,10.13,0,0,0-5.59,0,9.62,9.62,0,0,0-5.29,3.18,6.07,6.07,0,0,1-.15-1.57s-5.72-30.26-19.2-46.19a89,89,0,0,0,10.13,8.67,1.16,1.16,0,0,0,.21.16,127.94,127.94,0,0,0,20.39,12.45l.13.06.56.28a39.2,39.2,0,0,0-2.87,8.54C180.3,281.1,180.05,286,182,290.05Z"/><path class="cls-2" d="M146.57,117.58c0,.12,0,.24,0,.35-.08.61-.16,1.23-.23,1.84-.75-.27-1.46-.54-2.12-.81.24-.49.49-1,.74-1.43.06-.13.13-.25.2-.38Z"/><path class="cls-2" d="M283.31,146.14c-2.79-4.95-9.53-7.1-19.71-6.26l-.92.08a6.45,6.45,0,0,0-3.7-1.33c-3.19-.13-8.52.56-26.21-1.76-7.68-1-15.93-2.2-24.25-3.53-1.06-.54-2.2-1.06-3.41-1.54a38,38,0,0,0-15.67-2.7,35.39,35.39,0,0,0-3.56.32h0c-10.74-2-20.78-4.2-28.92-6.39-1.57,12.3-.94,28.32,3.55,49.17,0,0,9.86,35.73-3.5,66a65.83,65.83,0,0,1-4.35,8.25c0,.08-.09.16-.14.24l-.84-.75-.41-.39c.66-1.09,1.27-2.2,1.85-3.32h0c.88-1.68,1.67-3.38,2.39-5.11,12.57-30,3-64.89,3-64.89-4.55-21.15-5.14-37.33-3.48-49.7q.17-1.34.39-2.61c.63.16,1.27.3,1.92.45,38.89,8.82,97.46,11.27,124.87,11.95.35,3.08.64,5.66.8,7.07h0c.09,1.17.16,2.38.21,3.61q0,.71.06,1.41C283.28,145,283.3,145.55,283.31,146.14Z"/><path class="cls-2" d="M278.19,187a216.51,216.51,0,0,1-13,36.31s-21.35,49.82-48.72,51.46c0,0,38.52-13.51,50.63-85.26l1,0A26.42,26.42,0,0,0,278.19,187Z"/><path class="cls-2" d="M283.34,149.17v.1c0,1.11,0,2.24,0,3.39l0,.85-.06,1.32c-.27-.08-.54-.16-.82-.22a24,24,0,0,0-13.91.83q-.09-.88-.21-1.74a1.1,1.1,0,0,0,0-.18c-.06-.43-.12-.87-.19-1.29l-.09-.56c-.07-.43-.15-.86-.24-1.28-.15-.8-.33-1.57-.53-2.31-.13-.49-.27-1-.42-1.43s-.31-.92-.48-1.35c-.08-.22-.17-.43-.26-.64q-.27-.63-.57-1.2a36.79,36.79,0,0,1,5.08-.39c5.16,0,10.16,1.4,11.88,6.32v0Z"/><path id="ear_shade" data-name="ear shade" class="cls-2" d="M122.46,197.53a6.18,6.18,0,0,1-3.64,3.9,1.82,1.82,0,0,1-.37.13,9.36,9.36,0,0,1-6.12-.73c-5.28-3-3.3-7.81-3.3-7.81a8.59,8.59,0,0,1,1.63-2.49,6.32,6.32,0,0,1,2-1.47,4.68,4.68,0,0,1,1.74-.45,10.56,10.56,0,0,0-4.45-6,14.86,14.86,0,0,0-6.61-2.16,12.76,12.76,0,0,0-1.71-.06h-.23l.2-.08a8.52,8.52,0,0,1,1.33-.42,11.82,11.82,0,0,1,6,0c3,.83,6.24,3.17,8.48,8.77a9.05,9.05,0,0,0-3.26,3.61,3.92,3.92,0,0,0,0,3.25,5.49,5.49,0,0,0,.88,1.34l.15.11a5.45,5.45,0,0,0,1.63.78,4.7,4.7,0,0,0,4.68-1.14Z"/></g></g><g id="shirt"><path id="shirt_base" data-name="shirt base" class="cls-3" d="M275.93,410.69H243.52l-2.6-27.1-.4,27.09H0c1.32-56.8,13.89-81,13.89-81,9.25-24.22,40.52-27.75,40.52-27.75,2.91-.27,6.66-.74,10.9-1.35a291.6,291.6,0,0,0,31.48-4.72l.17,0c4.38-.89,8.18-1.77,11.19-2.5l.07,0,.1,0,7.58-1.4h0l8.86-1.68c0,.13,0,.26,0,.4-.22,7,1.77,20.19,33.7,21.87l1.57.06c.93,0,1.83,0,2.69,0l1.06,0c1.89-.08,3.64-.22,5.25-.41.63-.07,1.23-.16,1.82-.25l.8-.13c1-.16,1.87-.34,2.72-.54.21-.05.41-.09.61-.15.61-.15,1.19-.31,1.75-.48l.55-.17q.54-.17,1.05-.36c.47-.17.92-.35,1.35-.53l.27-.11.73-.34a19.49,19.49,0,0,0,3.11-1.82c.19-.14.37-.27.54-.41l.32-.26.4-.34a12.54,12.54,0,0,0,3.58-5.12l.15-.42.27.21a63.66,63.66,0,0,0,10.13,6.26l.62.31c20.34,10.26,50.52,17.08,50.52,17.08,20.15,4.62,23.62,36.16,23.62,36.16C276.13,374.67,276,407.17,275.93,410.69Z"/><g id="shirt_shade" data-name="shirt shade"><path id="shirt_shade-2" data-name="shirt shade" class="cls-4" d="M275.93,410.69c0-3.52.2-36-2-50.06,0,0-3.47-31.54-23.62-36.16,0,0-30.18-6.82-50.52-17.08l-.62-.31a63.66,63.66,0,0,1-10.13-6.26l-.27-.21,0,0c.14-.39.25-.74.34-1.06a2.25,2.25,0,0,0,0-.22c0-.14.06-.29.08-.43s0-.21.05-.31,0-.06,0-.09c0-.22.06-.42.08-.61s0-.28,0-.4,0-.32,0-.45,0-.17,0-.24,0,0,0,0a.15.15,0,0,1,0-.07h0c0-.3-.07-.31.14-.17l.43.28c.54.36,1.11.71,1.7,1.05,19.8,11.78,60.41,19.09,60.41,19.09,25.54,7.49,37.43,21.14,40.07,49.33,1.85,19.73,3.33,44.46,3.33,44.46l-19.6.31Z"/><path id="neckline" class="cls-4" d="M199.81,307.39c-2.26,7.1-10.71,19.73-42.23,20.61,0,0-48.9.86-47.92-34.35,0,1.38.56,30.23,47.67,31.9,0,0,33.37.41,41.86-18.47Z"/><polygon id="right_arm_shade" data-name="right arm shade" class="cls-4" points="59.03 410.56 59.03 379.85 62.86 410.68 59.03 410.56"/><polygon id="left_arm_shade" data-name="left arm shade" class="cls-4" points="243.53 410.79 240.79 410.69 240.52 410.68 240.92 383.59 243.52 410.69 243.53 410.79"/></g></g><g id="necklace"><g id="shells"><path class="cls-5" d="M150.92,296a.31.31,0,0,1-.09.11,2,2,0,0,0-.75,1.56v0a1.62,1.62,0,0,0,.08.49c.15.49-2.16,1-2.43,1a7.92,7.92,0,0,1-3-.18,11.25,11.25,0,0,1-6.48-4.23,4.71,4.71,0,0,1-.95-2.81,2.31,2.31,0,0,1,.05-.46,1.16,1.16,0,0,0,.36-.22,1.3,1.3,0,0,0,.34-.47,1.42,1.42,0,0,0,.15-.78c0-.2.92-.59,1.06-.64a6.74,6.74,0,0,1,1.66-.3,8.83,8.83,0,0,1,3.46.45,11.83,11.83,0,0,1,4.25,2.41,8.52,8.52,0,0,1,1.56,1.92C150.42,294.29,151.15,295.55,150.92,296Z"/><path class="cls-5" d="M185.51,294.42a2.68,2.68,0,0,0-.07-.56s0,0,0-.05h0a2.21,2.21,0,0,0-.23-.55,1,1,0,0,1-.88-1v0a4.9,4.9,0,0,0-1.2-.66l-.27-.1a10.13,10.13,0,0,0-5.59,0,9.62,9.62,0,0,0-5.29,3.18,3.62,3.62,0,0,0-.83,2.2,1.42,1.42,0,0,1,.45.89.62.62,0,0,1,0,.19,1,1,0,0,1,0,.35l0,.08a1,1,0,0,0,.08.11,2.75,2.75,0,0,0,.61.62,4.47,4.47,0,0,0,1,.59,6.12,6.12,0,0,0,1.23.4,10.19,10.19,0,0,0,4.16,0c.25,0,.49-.1.74-.16,3.3-.84,5.73-2.88,6.07-4.89A2.07,2.07,0,0,0,185.51,294.42Zm-8.78,1.88s0,0,0,0,0,.16,0,.23S176.73,296.36,176.73,296.3Z"/><path class="cls-5" d="M168.57,298.48a2,2,0,0,1,0,.35h0a.59.59,0,0,1,0,.14,2.36,2.36,0,0,1-.2.62h0a2,2,0,0,1-.13.25c-1,1.74-3.71,3-7,3a10.32,10.32,0,0,1-5.19-1.28h0a5.42,5.42,0,0,1-.67-.48,3.69,3.69,0,0,1-.72-.7,3,3,0,0,1-.37-.53,2.59,2.59,0,0,1-.14-.29l0-.08a.78.78,0,0,1,0-.14.76.76,0,0,1-.06-.2s0,0,0-.07h0a.32.32,0,0,1,0-.09,2.31,2.31,0,0,1-.05-.46,1,1,0,0,0,.07-.15l0-.1a1.85,1.85,0,0,0,.09-.58.37.37,0,0,0,0-.11s0,0,0-.05a1.59,1.59,0,0,1,.12-.27,1.19,1.19,0,0,1,.08-.16,3.84,3.84,0,0,1,.82-1l.11-.1a3.37,3.37,0,0,1,.37-.29,5.46,5.46,0,0,1,.47-.31l.52-.28c.18-.09.37-.17.57-.25s.39-.15.6-.22l.48-.14.42-.1a3.82,3.82,0,0,1,.57-.11,2,2,0,0,1,.35-.06h.1l.64-.07.29,0,.65,0,.66,0,.46,0a3,3,0,0,1,.42,0c.22,0,.44.06.65.1a6.43,6.43,0,0,1,.76.17,3.8,3.8,0,0,1,.51.15,7.29,7.29,0,0,1,2.5,1.3l.26.23.16.16a2.26,2.26,0,0,1,.25.29,1.62,1.62,0,0,1,.2.28.07.07,0,0,1,0,.06,2.58,2.58,0,0,1,.18.32,2.87,2.87,0,0,1,.15.37,1.89,1.89,0,0,1,.1.41A2,2,0,0,1,168.57,298.48Z"/><path class="cls-5" d="M137.4,286.91c0,.14,0,.28-.07.41a5.62,5.62,0,0,1-.15.55,3.79,3.79,0,0,1-.18.42,2.24,2.24,0,0,1-.22.4,1.77,1.77,0,0,0-.56.09,1.34,1.34,0,0,0-.5.29l-.12.13a1.24,1.24,0,0,0-.23.35h0a1.28,1.28,0,0,0-.13.57h0l-.15.07a2.13,2.13,0,0,1-.41.18,2,2,0,0,1-.32.1,3.88,3.88,0,0,1-1.36.11,4.91,4.91,0,0,1-3.37-1.84,6.6,6.6,0,0,1-.41-.58,5.27,5.27,0,0,1-.76-2.19,4.32,4.32,0,0,1,1.92-4.24,4.64,4.64,0,0,1,6.27,1.85c.06.1.12.2.17.3A5.09,5.09,0,0,1,137.4,286.91Z"/></g><g id="black_beads" data-name="black beads"><path class="cls-6" d="M138.21,290.07a1.42,1.42,0,0,1-.15.78h0v0a1.21,1.21,0,0,1-.32.43h0a1,1,0,0,1-.34.21,1.39,1.39,0,0,1-.63.15h-.11a1.38,1.38,0,0,1-.88-.38.93.93,0,0,1-.14-.14.18.18,0,0,1,0-.07l-.13-.18,0-.11a.73.73,0,0,1-.08-.25,1,1,0,0,1-.06-.42h0a1.28,1.28,0,0,1,.13-.57h0a1.24,1.24,0,0,1,.23-.35l.12-.13a1.34,1.34,0,0,1,.5-.29,1.77,1.77,0,0,1,.56-.09,1.25,1.25,0,0,1,.46.09h0a1.47,1.47,0,0,1,.6.43A1.39,1.39,0,0,1,138.21,290.07Z"/><path class="cls-6" d="M154.08,297.69a1.85,1.85,0,0,1-.09.58l0,.1a1,1,0,0,1-.07.15,1.47,1.47,0,0,1-.36.53,2,2,0,0,1-1.45.64,2,2,0,0,1-1.45-.63,1.2,1.2,0,0,1-.17-.21,1.76,1.76,0,0,1-.14-.23.85.85,0,0,1-.12-.26l0-.09a.09.09,0,0,1,0,0,1.62,1.62,0,0,1-.08-.49v0a2,2,0,0,1,.2-.87h0l0,0,.12-.21.29-.34.12-.11L151,296a1.91,1.91,0,0,1,1.12-.35,2,2,0,0,1,2,1.84s0,0,0,.05A.37.37,0,0,1,154.08,297.69Z"/><path class="cls-6" d="M171.6,297.91a1,1,0,0,1,0,.35,1.13,1.13,0,0,1-.25.53h0a1.15,1.15,0,0,1-.21.23,1.48,1.48,0,0,1-2,0,1.48,1.48,0,0,1-.51-1.12.34.34,0,0,1,0-.1,1.49,1.49,0,0,1,2.52-1,1.42,1.42,0,0,1,.45.89A.62.62,0,0,1,171.6,297.91Z"/><path class="cls-6" d="M186.31,292.27a1,1,0,0,1-1,1h-.12a1,1,0,0,1-.88-1v0a1,1,0,0,1,2,0Z"/></g></g><g id="eyebrows"><path class="cls-6" d="M218.92,142.05a3.89,3.89,0,0,1-1.09,2.65l-.69.72-.72-.7c-24.16-23.47-49.18-5.76-53.95-2l-1.26-1.55c8-6.69,16.3-10.64,24.65-11.78h0a35.39,35.39,0,0,1,3.56-.32,38,38,0,0,1,15.67,2.7c1.21.48,2.35,1,3.41,1.54a38.09,38.09,0,0,1,9.24,6.36A3.28,3.28,0,0,1,218.92,142.05Z"/><path class="cls-6" d="M283.83,147.21h0c-.12.48-.28,1.12-.46,1.91v0h0l-.91.24v0c-1.72-4.92-6.72-6.32-11.88-6.32a36.79,36.79,0,0,0-5.08.39l-.38,0A62.15,62.15,0,0,0,254,146.35l-.79.3-.42-.73a3.94,3.94,0,0,1-.47-2.78,2.52,2.52,0,0,1,1.28-1.55l.21-.08a61.86,61.86,0,0,1,8.91-1.55l.92-.08c10.18-.84,16.92,1.31,19.71,6.26l.06.11A8.46,8.46,0,0,1,283.83,147.21Z"/></g><g id="hair"><g id="hair_base" data-name="hair base"><path id="hair-2" data-name="hair" class="cls-7" d="M309.61,214.13C294.54,206.06,287.22,194.39,284,183a19.46,19.46,0,0,0,4-5.74C291.29,202.52,307.46,212.86,309.61,214.13Z"/><path class="cls-8" d="M272.64,74c-1.15-1.93-1.89-3-1.89-3A64.61,64.61,0,0,0,243.3,48a124.17,124.17,0,0,0-48.5-11.21c-.66,0-1.44-.05-2.09-.09a2.51,2.51,0,0,1-.93.34,7.6,7.6,0,0,1-4.3.27l-.62-.08c-1.55.1-3.45.26-5.61.51a13.57,13.57,0,0,0-1.58.51,39.87,39.87,0,0,0-11.25,3.9c-.07,0-.82.33-1.55.6a4,4,0,0,1-2.18.58h0c-3.48.39-6.55.85-6.55.85A32.69,32.69,0,0,1,150.56,49l-.34.18a6.47,6.47,0,0,1-1.24.45,13.85,13.85,0,0,1-5.54,1c-1-.58-3.15,2.57-5.64,4.8a10.21,10.21,0,0,1-.87,1,3.19,3.19,0,0,1-2.44,1,3.39,3.39,0,0,1-1.05.08c-3.28-.32-4.06,2-4.06,2-.66.27-1.33.55-2,.84a11.37,11.37,0,0,1-2.13,1,82.13,82.13,0,0,0-8,4.55l-.07,0a4.09,4.09,0,0,1-1.93,1.27,1.59,1.59,0,0,1-.35.08c-2.77.61-5.7-1.71-5.7-1.71-1.53-.62-2.27-1.26-2.51-1.87A19.51,19.51,0,0,1,103,59.11c-.9-1.52-.15-1.69,1.16-2.54A39.49,39.49,0,0,1,109,53.86c2.93-1.37-.49-7.41,1.2-9.09s8.26-.77,9.22-3.83a16.64,16.64,0,0,1,6.16-8.66c2.66-1.79,6.19-1.77,10.87-1,4,.65,5-6.32,8.13-7.55,2.42-.95,8.68,1.84,11.68-.53,4.38-3.45,3.76-6.41,8.09-7,3.48-.47,8.76.63,12.25,1.71,1.16.37,2.24-2.46,2.87-3.11a4.45,4.45,0,0,1,3-1.4,6.78,6.78,0,0,1,2.16.17c-18.54-25-69.25-7.77-69.25-7.77-26.3,9.09-45.88,33.57-45.88,33.57-58.56,76.3-25.83,157.09-25.83,157.09C70.74,260,63.89,287.92,29.54,283.51a23.68,23.68,0,0,0,1.91,6.41h0c2.13,1.42,18,10.83,47.32-2.63,0,0,31.24-8.88,25.27-42.18a330.63,330.63,0,0,1-7.47-45.67l-1.13-12.23a0,0,0,0,1,0,0,23.12,23.12,0,0,1-.56-6.09v0L92.54,156h0c-7-20.19-13-57,18.86-88.73-2.28,2.8-34.71,43.88-12.09,104A70.48,70.48,0,0,1,96,164.52c.78,2.3,1.67,4.86,2.63,7.56a9.84,9.84,0,0,1,7.26-1.45c8,1.18,16.24,9.34,16.24,9.34,4.27,1.41,5.43-1.54,5.85-4.41,3.94-26.23,9.95-44.24,16.24-56.6.24-.49.49-1,.74-1.43.06-.13.13-.25.2-.38l1.46.43c0,.12,0,.24,0,.35-.08.61-.16,1.23-.23,1.84-2.52,22.15,4.79,46,4.79,46,8.07,31.64,6.43,54,1.76,69.42-.11.37-.22.73-.34,1.09a72.18,72.18,0,0,1-2.92,7.63c-4.84,10.75-10.9,16.68-14,19.2a60.85,60.85,0,0,0,15.62-17.51v0c.66-1.09,1.27-2.2,1.85-3.32h0c.88-1.68,1.67-3.38,2.39-5.11,12.57-30,3-64.89,3-64.89-4.55-21.15-5.14-37.33-3.48-49.7q.17-1.34.39-2.61l1.94.37a.24.24,0,0,0,0,.08c38.89,8.82,97.46,11.27,124.87,11.95.35,3.08.64,5.66.8,7.07h0c.08.74.13,1.16.13,1.16a1.21,1.21,0,0,0,.05-.18c.83-2.82,1.48-5.48,2-8l2,0a116.19,116.19,0,0,1-3.09,13.79s-.11.36-.29,1h0c-.12.48-.28,1.12-.46,1.91v0c0,1.15,0,2.31-.08,3.5l0,.85c0,.44,0,.88,0,1.32a24.46,24.46,0,0,1,4.83,2,110.9,110.9,0,0,1,3.14-15.35,75.53,75.53,0,0,0,2.11-9l4,0C297.51,102,286.17,84.28,272.64,74ZM82.69,253.88s0-28-14.94-65.1c0,0-8.32-24.76-2.13-47.16,0,0-2.56,26.89,9.82,60C75.44,201.59,87.6,234.24,82.69,253.88ZM40.24,135.09c6.42-55.42,32-89.51,32-89.51C100.41,5,146.93,5.67,146.93,5.67,117.48,10.36,95.5,29.14,95.5,29.14,56.1,60.62,40.93,131.79,40.24,135.09Zm67.78-22h0a96.38,96.38,0,0,1,5.6-29.7,99.56,99.56,0,0,0-1.9,23.81h0c.91,29.56,12,57.59,12.36,58.5C110.55,148,107.49,128.63,108,113.1Zm51.47-22h0a161.58,161.58,0,0,0-11.27,18.71h0c-1.29,2.5-2,4.1-2.12,4.28C152.61,87.61,170.48,77.89,171,77.6A83.62,83.62,0,0,0,159.49,91.05Zm49.65-3.17a39.26,39.26,0,0,1-.79,5.41,45.51,45.51,0,0,1-4.43,11.83s.93-4.67,1.66-11.1c.24-2.1.46-4.39.62-6.76a90.39,90.39,0,0,0,0-13.77,43.69,43.69,0,0,0-.74-5.08,25.71,25.71,0,0,1,2.16,5.17A37.93,37.93,0,0,1,209.14,87.88Zm5.63,39.23c-.57.87-.93,1.33-.93,1.33.16-.45.31-.9.45-1.36,3.83-11.84,3.94-26.75,3.52-36,0-.15,0-.3,0-.44-.23-4.69-.58-7.82-.62-8.19a54,54,0,0,1,2.88,8.19h0c.1.37.19.75.27,1.12h0A45.35,45.35,0,0,1,214.77,127.11ZM228.37,60c-30.13-1.64-50.07,5.87-63.15,15.89-21.59,16.53-24.48,39.89-23.66,40.17l.16,0-1.14.3q-2.91-.83-5.58-1.72c-.73-.25,2-19.66,18.58-35.94C166.61,65.9,188.2,55,223.37,57c0,0,22.08-.84,41.25,11.93A78.4,78.4,0,0,0,228.37,60Zm17.55,68.81a19.59,19.59,0,0,1-1.58,1.75,17.38,17.38,0,0,0,.89-1.78h0c4.28-9.62,1.49-22.55.67-25.84l-.2-.77c.2.23.38.46.56.68C255.47,114.39,249.14,124.76,245.92,128.76Zm14.4-27.5c-1.74-3.2-4.07-7.31-6.81-11.69-1.34-2.15-2.78-4.36-4.29-6.56h0C244,75.4,237.88,68,231.87,63.93c-.42-.29,13.74,4.75,23.88,22.5.79,1.37,1.55,2.81,2.27,4.34a70.84,70.84,0,0,1,4,10.57c.6,2,1.14,4.11,1.6,6.32C263.53,107.39,262.32,104.93,260.32,101.26Zm11.25,28.17c-.12.73-.27,1.47-.44,2.2,0,0-.06-.78-.22-2.2a157.16,157.16,0,0,0-6-27.82c-.94-3-2-6.18-3.25-9.4q-.48-1.23-1-2.49a123.74,123.74,0,0,0-9.88-19.5A89.64,89.64,0,0,1,267,95.11a0,0,0,0,0,0,0l.1.24h0a75.71,75.71,0,0,1,2.69,7.44A56.69,56.69,0,0,1,271.57,129.43Z"/></g><g id="hair_shade" data-name="hair shade"><path id="hair_shade-2" data-name="hair shade" class="cls-9" d="M264.62,68.88A78.4,78.4,0,0,0,228.37,60c-30.13-1.64-50.07,5.87-63.15,15.89-21.59,16.53-24.48,39.89-23.66,40.17l.16,0-1.14.3q-2.91-.83-5.58-1.72c-.73-.25,2-19.66,18.58-35.94C166.61,65.9,188.2,55,223.37,57,223.37,57,245.45,56.11,264.62,68.88Z"/><path id="hair_shade-3" data-name="hair shade" class="cls-9" d="M271.57,129.43c-.12.73-.27,1.47-.44,2.2,0,0-.06-.78-.22-2.2a157.16,157.16,0,0,0-6-27.82c-.94-3-2-6.18-3.25-9.4q-.48-1.23-1-2.49a123.74,123.74,0,0,0-9.88-19.5A89.64,89.64,0,0,1,267,95.11a0,0,0,0,0,0,0l.1.24h0a75.71,75.71,0,0,1,2.69,7.44A56.69,56.69,0,0,1,271.57,129.43Z"/><path id="hair_shade-4" data-name="hair shade" class="cls-9" d="M214.77,127.11c-.57.87-.93,1.33-.93,1.33.16-.45.31-.9.45-1.36,3.83-11.84,3.94-26.75,3.52-36,0-.15,0-.3,0-.44-.23-4.69-.58-7.82-.62-8.19a54,54,0,0,1,2.88,8.19h0c.1.37.19.75.27,1.12h0A45.35,45.35,0,0,1,214.77,127.11Z"/><path id="hair_shade-5" data-name="hair shade" class="cls-9" d="M245.92,128.76a19.59,19.59,0,0,1-1.58,1.75,17.38,17.38,0,0,0,.89-1.78h0c4.28-9.62,1.49-22.55.67-25.84l-.2-.77c.2.23.38.46.56.68C255.47,114.39,249.14,124.76,245.92,128.76Z"/><path id="hair_shade-6" data-name="hair shade" class="cls-9" d="M99.31,171.18A70.48,70.48,0,0,1,96,164.52c.78,2.3,1.67,4.86,2.63,7.56a10.62,10.62,0,0,0-1.68,1.45,15.88,15.88,0,0,0-2,7.52L92.54,156h0c-7-20.19-13-57,18.86-88.73C109.12,70,76.69,111.1,99.31,171.18Z"/><path id="hair_shade-7" data-name="hair shade" class="cls-9" d="M132.24,260.05c-.07,1.14-.17,2.29-.29,3.43-.06.58-.14,1.18-.22,1.78,0,.3-.09.61-.13.91-.09.61-.2,1.23-.31,1.86-.17.94-.37,1.89-.59,2.85a4.21,4.21,0,0,1-.12.48c-.1.45-.21.89-.34,1.34,0,.15-.08.3-.13.45-.11.43-.24.87-.38,1.3-.23.73-.48,1.46-.75,2.18-.1.28-.21.56-.32.84-.35.88-.73,1.75-1.15,2.6-.15.32-.31.63-.48.94q-.52,1-1.14,2a.05.05,0,0,0,0,0,22,22,0,0,1-10.14,8.35s-2.74.78-7.41,1.91l-.1,0-.07,0c-3,.73-6.81,1.61-11.19,2.5l-.17,0a291.6,291.6,0,0,1-31.48,4.72l1.31-.19-3,.33-.18,0c-3.32.27-6.67.48-10,.59h-.15a33.77,33.77,0,0,1-11.63-2.06l-.1,0a21,21,0,0,1-7.09-4.79,4.49,4.49,0,0,1-.36-.39,18,18,0,0,1-2.64-4.12c2.13,1.42,18,10.83,47.32-2.63,0,0,31.24-8.88,25.27-42.18a330.63,330.63,0,0,1-7.47-45.67l-1.13-12.23c1.14,5.14,4.18,11.54,11,18.89a34.6,34.6,0,0,0,4.67,5.92c.14.15.3.31.47.46a16.59,16.59,0,0,0,1.49,1.29,6.55,6.55,0,0,0,.53.39,11.31,11.31,0,0,0,2.19,1.27,6.31,6.31,0,0,0,4.78.33,4.77,4.77,0,0,0,.93-.42h0a6,6,0,0,0,.61-.38c.21-.15.42-.32.63-.5s.39-.36.59-.56l.3-.33,0,0,.21-.25a10.16,10.16,0,0,0,.65-.86c.12-.16.23-.33.34-.5l.15-.22,0,0,.17-.28c.74,1.11,1.43,2.17,2.07,3.17l.93,1.45c1,1.64,1.88,3.07,2.48,4.2.27.49.48.92.65,1.29h0a4.68,4.68,0,0,1,.35,2c0,.13,0,.29-.05.47,0,.56-.11,1.32-.18,2.25q0,.38-.06.78l0,.5a135.82,135.82,0,0,0-.22,14.41c.19,4.43.9,8.74,1.13,13.12A42,42,0,0,1,132.24,260.05Z"/></g><g id="hair_highlights" data-name="hair highlights"><path id="highlights" class="cls-7" d="M263.66,107.66c-.13-.27-1.34-2.73-3.34-6.4-1.74-3.2-4.07-7.31-6.81-11.69-1.34-2.15-2.78-4.36-4.29-6.56h0C244,75.4,237.88,68,231.87,63.93c-.42-.29,13.74,4.75,23.88,22.5.79,1.37,1.55,2.81,2.27,4.34a70.84,70.84,0,0,1,4,10.57C262.66,103.35,263.2,105.45,263.66,107.66Z"/><path id="highlights-2" data-name="highlights" class="cls-7" d="M209.14,87.88a39.26,39.26,0,0,1-.79,5.41,45.51,45.51,0,0,1-4.43,11.83s.93-4.67,1.66-11.1c.24-2.1.46-4.39.62-6.76a90.39,90.39,0,0,0,0-13.77,43.69,43.69,0,0,0-.74-5.08,25.71,25.71,0,0,1,2.16,5.17A37.93,37.93,0,0,1,209.14,87.88Z"/><path id="highlights-3" data-name="highlights" class="cls-7" d="M171,77.6a83.62,83.62,0,0,0-11.55,13.45h0a161.58,161.58,0,0,0-11.27,18.71h0c-1.29,2.5-2,4.1-2.12,4.28C152.61,87.61,170.48,77.89,171,77.6Z"/><path id="hair_highlights-2" data-name="hair highlights" class="cls-7" d="M146.93,5.67C117.48,10.36,95.5,29.14,95.5,29.14c-39.4,31.48-54.57,102.65-55.26,106,6.42-55.42,32-89.51,32-89.51C100.41,5,146.93,5.67,146.93,5.67Z"/><path id="hair_highlights-3" data-name="hair highlights" class="cls-7" d="M82.69,253.88s0-28-14.94-65.1c0,0-8.32-24.76-2.13-47.16,0,0-2.56,26.89,9.82,60C75.44,201.59,87.6,234.24,82.69,253.88Z"/><path id="hair_highlights-4" data-name="hair highlights" class="cls-7" d="M124.09,165.71C110.55,148,107.49,128.63,108,113.1h0a96.38,96.38,0,0,1,5.6-29.7,99.56,99.56,0,0,0-1.9,23.81h0C112.64,136.77,123.73,164.8,124.09,165.71Z"/></g></g><g id="nose"><path id="nose-2" data-name="nose" class="cls-6" d="M239.71,217.47c5.79-7.19.22-12.53.22-12.53-6.85-5.89-15.18,1.28-15.55,1.61,8.76-10.22,16.1-5,16.1-5C249.53,208.71,240.12,217.11,239.71,217.47Z"/><path id="nostril" class="cls-6" d="M233,213l-5.73,1.15S226.37,210.33,233,213Z"/></g><path id="mouth" class="cls-10" d="M231.36,236.3s-21,16.2-32.23.93c0,0-8.9-13.84,13.42-21.75C212.55,215.48,217.78,233.28,231.36,236.3Z"/><g id="right_eye" data-name="right eye"><path id="right_eye-2" data-name="right eye" class="cls-6" d="M195.82,160.91A11.57,11.57,0,0,0,194,157.6a54,54,0,0,1,26.9,15.29s-.32-.48-1-1.3l-.1-.14-.12-.15-.08-.1c-5.2-6.58-26.1-29.4-56.77-15.5l-.55,3.56h0l.13-.05a53.64,53.64,0,0,1,10.95-2.49,12.19,12.19,0,0,0-1.71,2,11.72,11.72,0,0,0,2.63,16.2,13.89,13.89,0,0,0,8.38,2.75,13.58,13.58,0,0,0,2-.14c6.83-.94,11.83-6.46,11.83-12.67a11.63,11.63,0,0,0-.1-1.55A11.13,11.13,0,0,0,195.82,160.91Zm-6.64,3.58a1.85,1.85,0,1,1,1.95-1.74A1.85,1.85,0,0,1,189.18,164.49Z"/><path id="rt_eye_white" data-name="rt eye white" class="cls-10" d="M222.38,174.4a36.68,36.68,0,0,1-32.09,14.26s-32.08-1.91-28-29.41l.13-.05a53.64,53.64,0,0,1,10.95-2.49,12.19,12.19,0,0,0-1.71,2,11.72,11.72,0,0,0,2.63,16.2,13.89,13.89,0,0,0,8.38,2.75,13.58,13.58,0,0,0,2-.14c6.83-.94,11.83-6.46,11.83-12.67a11.63,11.63,0,0,0-.1-1.55,11.13,11.13,0,0,0-.6-2.42A11.57,11.57,0,0,0,194,157.6a54,54,0,0,1,26.9,15.29s-.32-.48-1-1.3q.18.18.33.36a0,0,0,0,0,0,0C221,172.74,221.67,173.56,222.38,174.4Z"/><path id="rt_eye_highlight" data-name="rt eye highlight" class="cls-10" d="M191.13,162.75a1.85,1.85,0,1,1-1.74-1.95A1.86,1.86,0,0,1,191.13,162.75Z"/><g id="rt_eye_shade" data-name="rt eye shade"><path class="cls-11" d="M173.38,156.71a12.19,12.19,0,0,0-1.71,2,51,51,0,0,0-9.4,1.52l.16-1.06A53.64,53.64,0,0,1,173.38,156.71Z"/><path class="cls-11" d="M221.78,174a72.06,72.06,0,0,0-26-13A11.57,11.57,0,0,0,194,157.6a54,54,0,0,1,26.9,15.29s-.32-.48-1-1.3l-.1-.14.43.5a0,0,0,0,0,0,0C221.25,173.19,221.78,174,221.78,174Z"/></g></g><g id="left_eye" data-name="left eye"><path id="left_eye-2" data-name="left eye" class="cls-6" d="M289.49,157.7c-.48-.3-1-.58-1.44-.85a24.46,24.46,0,0,0-4.83-2h0c-.27-.08-.54-.16-.82-.22a24,24,0,0,0-13.91.83c-11.61,4-20.89,14.84-23.68,18.38l-.18.23-.14.18-.15.19-.13.17a.35.35,0,0,1-.07.09l-.11.15-.07.1c.12-.12.23-.24.36-.36s.14-.17.22-.25a61,61,0,0,1,10-8.56c-.05.09-.09.18-.13.27a8,8,0,0,0-.45,1.24,9.19,9.19,0,0,0-.31,1.38,9.9,9.9,0,0,0,2,7.39,12,12,0,0,0,8,4.54,12.43,12.43,0,0,0,1.72.12,12,12,0,0,0,2.86-.34l.35-.08A10.16,10.16,0,0,0,270.26,161a9.07,9.07,0,0,0-1-.44l-.44-.16-.12,0h0a11.84,11.84,0,0,0-1.8-.45c.64-.18,1.27-.33,1.89-.47a32.65,32.65,0,0,1,13.1-.28l1,.2H283a28.33,28.33,0,0,1,4.69,1.44,19.13,19.13,0,0,1,2.29,1.08l.07,0Zm-20.59,6.11a1.74,1.74,0,0,1,.65-.08,1.84,1.84,0,0,1-.21,3.68,1.63,1.63,0,0,1-.45-.09,1.83,1.83,0,0,1-1.29-1.86A1.86,1.86,0,0,1,268.9,163.81Z"/><path id="left_eye_white" data-name="left eye white" class="cls-10" d="M287.94,177.24a19.46,19.46,0,0,1-4,5.74,20.94,20.94,0,0,1-5.46,3.88l-.3.15a26.42,26.42,0,0,1-10,2.55l-1,0c-17.64-.75-23.34-12.69-23.8-13.72a62,62,0,0,1,10.61-8.53,9.19,9.19,0,0,0-.31,1.38,9.9,9.9,0,0,0,2,7.39,12,12,0,0,0,8,4.54,12.43,12.43,0,0,0,1.72.12,12,12,0,0,0,2.86-.34l.35-.08A10.16,10.16,0,0,0,270.26,161a35.54,35.54,0,0,1,11.47.12l1,.19.06,0a34,34,0,0,1,4.71,1.37,23.08,23.08,0,0,1,2.6,1.18A27.88,27.88,0,0,1,287.94,177.24Z"/><path id="eye_highlight_left" data-name="eye highlight left" class="cls-10" d="M271.28,165.68a1.84,1.84,0,0,1-1.94,1.73,1.63,1.63,0,0,1-.45-.09,1.83,1.83,0,0,1-1.29-1.86,1.86,1.86,0,0,1,1.3-1.65,1.74,1.74,0,0,1,.65-.08A1.84,1.84,0,0,1,271.28,165.68Z"/><g id="left_eye_shade" data-name="left eye shade"><path class="cls-11" d="M254.5,165.76c-.05.09-.09.18-.13.27a8,8,0,0,0-.45,1.24,62,62,0,0,0-10.61,8.53l-.08.08.07-.1,1-1.21c.07-.08.14-.17.22-.25A61,61,0,0,1,254.5,165.76Z"/><path class="cls-11" d="M290.1,163.84a23.08,23.08,0,0,0-2.6-1.18,34,34,0,0,0-4.71-1.37l-.06,0-1-.19a35.54,35.54,0,0,0-11.47-.12,9.07,9.07,0,0,0-1-.44l-.44-.16-.12,0h0a11.84,11.84,0,0,0-1.8-.45c.64-.18,1.27-.33,1.89-.47a32.65,32.65,0,0,1,13.1-.28l1,.2H283a28.33,28.33,0,0,1,4.69,1.44,19.13,19.13,0,0,1,2.29,1.08v.06C290,162.57,290.06,163.22,290.1,163.84Z"/></g></g><g id="scrunchie"><path class="cls-12" d="M199.41,22.1a25.3,25.3,0,0,0,.25-3.2s-.76,10.19-8.48,14.64h0a14.64,14.64,0,0,1-2.92,1.28s-3.13,0-.94-5c0,0,2.66-6.24-5.62,2.5,0,0-10.15,9.68-8.59,3.28,0,0,3.12-10.78-4.22-3,0,0,2.5,4.06-3,4.69,0,0-5.15-.63-4.68-4.06,0,0-.47-5.78-6.87.62a5,5,0,0,0,3.12,3.59s2.81,5.31-6.4,5c0,0-3.59-.15-2.5-5.31,0,0,1.87-3.59-6.09,1.56a2.7,2.7,0,0,0-1.25,3s3.28,2.34-2.34,4.69c0,0-3.13.31-4.69-1.25,0,0-5.15-1.88-6.87,2,0,0-1.09,3,2.19,1.72,0,0,6.24-.94,1.4,2.49,0,0-1.56,4.22-5.31,4.07,0,0-4.37-.32-5.31-3,0,0-4.68-1.72-4.68,2.65a4.15,4.15,0,0,0,4.21,3.13s4.69,2.34-2.65,3.43c0,0-4.84.47-5.94-1.87,0,0-5.38,1.8-4.54,3.91A19.51,19.51,0,0,1,103,59.11c-.9-1.52-.15-1.69,1.16-2.54A39.49,39.49,0,0,1,109,53.86c2.93-1.37-.49-7.41,1.2-9.09s8.26-.77,9.22-3.83a16.64,16.64,0,0,1,6.16-8.66c2.66-1.79,6.19-1.77,10.87-1,4,.65,5-6.32,8.13-7.55,2.42-.95,8.68,1.84,11.68-.53,4.38-3.45,3.76-6.41,8.09-7,3.48-.47,8.76.63,12.25,1.71,1.16.37,2.24-2.46,2.87-3.11a4.45,4.45,0,0,1,3-1.4,6.78,6.78,0,0,1,2.16.17,4.48,4.48,0,0,1,2.84,2.29c1,1.7,2.77,4.65,5.08,4.42,3.12-.31,5.16-7.09,7.52-2.8C200.22,17.77,200,19.63,199.41,22.1Z"/><path id="scrunchie_shade" data-name="scrunchie shade" class="cls-13" d="M199.66,18.9a25.3,25.3,0,0,1-.25,3.2,27.92,27.92,0,0,1-2.6,8.42h0c-1.17,2.86-2.57,5.3-4.1,6.19a2.51,2.51,0,0,1-.93.34,7.6,7.6,0,0,1-4.3.27l-.62-.08c-1.55.1-3.45.26-5.61.51a13.57,13.57,0,0,0-1.58.51,39.87,39.87,0,0,0-11.25,3.9c-.07,0-.82.33-1.55.6a4,4,0,0,1-2.18.58h0c-3.48.39-6.55.85-6.55.85A32.69,32.69,0,0,1,150.56,49l-.34.18a6.47,6.47,0,0,1-1.24.45,13.85,13.85,0,0,1-5.54,1c-1-.58-3.15,2.57-5.64,4.8a10.21,10.21,0,0,1-.87,1,3.19,3.19,0,0,1-2.44,1,3.39,3.39,0,0,1-1.05.08c-3.28-.32-4.06,2-4.06,2-.66.27-1.33.55-2,.84a11.37,11.37,0,0,1-2.13,1,82.13,82.13,0,0,0-8,4.55l-.07,0a4.09,4.09,0,0,1-1.93,1.27l-.35.08c-2.77.61-5.7-1.71-5.7-1.71-1.53-.62-2.27-1.26-2.51-1.87-.84-2.11,4.54-3.91,4.54-3.91,1.1,2.34,5.94,1.87,5.94,1.87,7.34-1.09,2.65-3.43,2.65-3.43a4.15,4.15,0,0,1-4.21-3.13c0-4.37,4.68-2.65,4.68-2.65.94,2.65,5.31,3,5.31,3,3.75.15,5.31-4.07,5.31-4.07,4.84-3.43-1.4-2.49-1.4-2.49-3.28,1.25-2.19-1.72-2.19-1.72,1.72-3.91,6.87-2,6.87-2,1.56,1.56,4.69,1.25,4.69,1.25,5.62-2.35,2.34-4.69,2.34-4.69a2.7,2.7,0,0,1,1.25-3c8-5.15,6.09-1.56,6.09-1.56-1.09,5.16,2.5,5.31,2.5,5.31,9.21.31,6.4-5,6.4-5a5,5,0,0,1-3.12-3.59c6.4-6.4,6.87-.62,6.87-.62-.47,3.43,4.68,4.06,4.68,4.06,5.47-.63,3-4.69,3-4.69,7.34-7.81,4.22,3,4.22,3-1.56,6.4,8.59-3.28,8.59-3.28,8.28-8.74,5.62-2.5,5.62-2.5-2.19,5,.94,5,.94,5a14.64,14.64,0,0,0,2.92-1.28h0C198.9,29.09,199.66,18.9,199.66,18.9Z"/></g><g id="earring"><path id="earring-2" data-name="earring" class="cls-14" d="M118,204.69a4.51,4.51,0,0,0-4,2.36h0a4.38,4.38,0,0,0-.54,2.13,4.5,4.5,0,0,0,4.5,4.5,4.52,4.52,0,0,0,4.5-4.5A4.5,4.5,0,0,0,118,204.69Zm-3.13,3.63a5,5,0,0,0-.28,1.28,3,3,0,0,1,0-1.65,2.82,2.82,0,0,1,2.29-1.77A3.51,3.51,0,0,0,114.89,208.32Zm4.16,4.74a4.18,4.18,0,0,1-1.07.14c-1.12,0-.49-.15.44-.66a6.1,6.1,0,0,0,.78-.48,4.17,4.17,0,0,0,1.55-2.13,7.69,7.69,0,0,0,.21-2c-.06-1.33-.56-2.16,0-1.61a4.05,4.05,0,0,1-1.87,6.71Z"/><path id="earring_shine" data-name="earring shine" class="cls-15" d="M122,209.15a4.06,4.06,0,0,1-3,3.91,4.18,4.18,0,0,1-1.07.14c-1.12,0-.49-.15.44-.66a6.1,6.1,0,0,0,.78-.48,4.17,4.17,0,0,0,1.55-2.13,7.69,7.69,0,0,0,.21-2c-.06-1.33-.56-2.16,0-1.61A4.06,4.06,0,0,1,122,209.15Z"/><path id="earring_shine-2" data-name="earring shine" class="cls-15" d="M116.93,206.18a3.51,3.51,0,0,0-2,2.14,5,5,0,0,0-.28,1.28,3,3,0,0,1,0-1.65A2.82,2.82,0,0,1,116.93,206.18Z"/></g></svg>