<svg id="Layer_1" data-name="Layer 1" xmlns="http://www.w3.org/2000/svg" viewBox="0 0 294.2 372.89"><defs><style>.cls-1{fill:#c79763;}.cls-2{fill:#b17c58;}.cls-3{fill:#fff;}.cls-4{fill:#cfcfce;}.cls-5{fill:#aa4b3d;}.cls-6{fill:#9b2723;}.cls-7{fill:#503e3c;}.cls-8{fill:#4b322f;}.cls-9{fill:#dfc0be;}.cls-10{fill:#231f20;}.cls-11{fill:#010101;}.cls-12{fill:#6f3c18;}.cls-13{fill:#8a5335;}</style></defs><g id="skin"><path class="cls-1" d="M233.81,208.43s-5.77,6.7-11.76,6.47c0,0-7.76.94-4.35-8.35l-5.06-.7s-3.64,7.87-12.58,6.7c0,0-13.29-.83-11.06-11.13a27,27,0,0,0,17.59.13,26.18,26.18,0,0,0,3.3-1.33,31.47,31.47,0,0,0,7.45-5.07,33.59,33.59,0,0,0,3.58,5.44,29.44,29.44,0,0,0,2.36,2.61C226,205.87,229.58,208.23,233.81,208.43Z"/><path class="cls-1" d="M242.6,112.84c1-.32.43,2,1.57,1.56.92-.32,4.8-2.6,5.8-3,1.2-.42.62,1.67,1.89,1.22s4.66-2.36,5.87-2.79,1.76,2.06,2.87,1.68a21,21,0,0,1,3.21-.69c.29-16.2-1.66-31.91-10.28-32.38-3.19-.18-16.11,1-32.45-6.15-19.67-8.6-15.14-10.5-31.47-20.4-15-9.1,2.61,14.87,4.67,14.75,1.38-.08,1.28.31,0,.71.34.16.68.3,1,.44a36.23,36.23,0,0,1-6.28.33H189c-6.59.26-17.61-1.31-29.39-9.84a10.28,10.28,0,0,0-1-.67,4.36,4.36,0,0,0-2.69.76c-1.53,2.35-3.76,7.92-15.22,13.18-3,1.4-8.09,0-13-1.73h0c-3-.63-6.75-1.37-6.75-1.37s-.59,9,3.88,16.29c8.73,7.24,18.47,7.16,18.82,7-.14.12-.71.93-1.7,1.9h.35a9.92,9.92,0,0,1-4,2.64,0,0,0,0,1,0,0,11.15,11.15,0,0,1-9.07.37s0,0,0,0c-3.76-.87-8.37-3-13.9-7.24-2.37,7-2.8,27.31,10.6,37.72h0l.53.11s-7.6,14.31-11,16a1.33,1.33,0,0,1-.46.16s-7.28-6.52-13.46-7c-2.93-.22-5.61.91-7.17,4.73h0c-.86,4.38-.39,12.34,9,22.53a25.69,25.69,0,0,0,5.4,6.22,4.64,4.64,0,0,1,.88-1.68,2.89,2.89,0,0,1,3.72-.88,1,1,0,0,1,.38,1.36,1,1,0,0,1-1.35.39c-.4-.22-.81-.09-1.21.4a3.15,3.15,0,0,0-.64,1.54c2.33,1.15,4.91,1.1,7.2-2a173,173,0,0,0,23.69,31.44h0c2.24,6.94.53,17.16-2.65,25.89h0a25.7,25.7,0,0,1-3.34,7.93,0,0,0,0,0,0,0c-.69,4.9-2.42,33.21,35.39,95.13,0,0,0,.56-.06,1.3,11.79-16.36,16-33.68,17.52-47.28-.32-.19-.69-.41-1.08-.68s-.51-.35-.77-.55a15.46,15.46,0,0,1-1.25-1.09l-.22-.22c-.22-.23-.43-.47-.64-.73s-.23-.3-.34-.46-.13-.19-.19-.28-.23-.38-.34-.57l-.15-.3a2.88,2.88,0,0,1-.13-.31,5.85,5.85,0,0,1-.23-.63,4.54,4.54,0,0,1-.16-.66c0-.12,0-.25-.05-.38l0-.31a3.72,3.72,0,0,1,0-.58c0-.1,0-.2,0-.3v0c0-.15,0-.31.07-.47a5.78,5.78,0,0,1,.12-.57c0-.19.1-.37.17-.56,0,0,2.9,3.24,5.32.49a6.1,6.1,0,0,0,.71-2.55v0a7.41,7.41,0,0,0,0-1.34v0c-.13-2.15-1-5.13-3.68-8.87,0,0-18.49-11.56-14.53-29.4a26.86,26.86,0,0,1-3.6-10.19A123.5,123.5,0,0,1,152.65,211l-.15-.12c-3.41-3-6.92-6.22-10.51-9.86a128,128,0,0,0,25,18.39,27,27,0,0,1,.1-4,27.91,27.91,0,0,1,3.75-11.38,67.26,67.26,0,0,1,9.74-9.78,59.29,59.29,0,0,1,12.62-8.09c7.45-3.46,16.31-5.29,25.86-2.61a28.83,28.83,0,0,1,6,2.61,37.23,37.23,0,0,1,14.29,14.38,36.25,36.25,0,0,1,1.65,3.3c6.93-11.09,13-26.45,17.53-47.29-3.15-.13-24-1.73-26.82-20.51v0c0-.22-.07-.45-.1-.68a6.67,6.67,0,0,1,1.57-5.2,6.88,6.88,0,0,1,2-1.58,4.13,4.13,0,0,1,.42-.22c.17-.08.35-.15.54-.22a2.25,2.25,0,0,1,.44-.14,6.19,6.19,0,0,1,.77-.19c.23,0,.48-.07.73-.09h.15l24.77-1.06c.21-2.49.41-5.09.56-7.76A75.44,75.44,0,0,0,239.34,123c-.46.17-1.79-1-2.53-6.92a.26.26,0,0,1,.08-.25C237.28,115.45,238.86,114.07,242.6,112.84ZM113.12,161.72a8.07,8.07,0,0,1-5.78-.52c-4.68-2.64-2.92-6.93-2.92-6.93a6.68,6.68,0,0,1,3-3.4,4.22,4.22,0,0,1,1.74-.5,9.37,9.37,0,0,0-4.55-5.72,14.07,14.07,0,0,0-7-1.6,10.56,10.56,0,0,1,6.07-.55c2.8.59,6,2.58,8.11,7.91a7.86,7.86,0,0,0-3,3.41,3.71,3.71,0,0,0,.89,3.86,4.74,4.74,0,0,0,1.53.78,4.17,4.17,0,0,0,4.2-1l.81.81A5.51,5.51,0,0,1,113.12,161.72Zm44.1-50.25s4.78-2.77,13.12-.61c3.14.81,3.1-2.08,4.16-2.16,2.31-.19,7,2.69,9.1,2.62,3.07-.11.14-2.8,1.55-2.47,2.44.58,6,1.42,8.94,2.16,2.78.7-2.64-2.49.31-1.7,3.55,1,5.74,3.46,9.1,4.48,2.45.74-1.53-2.22.6-1.48a73,73,0,0,1,6.81,2.71c.52.25,0,8.07-.78,7.81a245.32,245.32,0,0,0-26.22-6c-14.51-2.33-30.7-.31-30.7-.31Zm26.39,46.25c-1,0-2,0-3.11-.08-.24,0-27.33-.72-30-25.34,0-.22,0-.43,0-.64l-.2,0a10.08,10.08,0,0,1,.42-2.24,8.71,8.71,0,0,1,2.24-4.08,1.8,1.8,0,0,1,.2-.19l.12-.12.45-.4a7.83,7.83,0,0,1,3.16-1.62l.58-.14a9,9,0,0,1,.95-.14h.17a8.06,8.06,0,0,1,1.3,0l46.81,3.76a8,8,0,0,1,5.7,3.09,8.06,8.06,0,0,1,1.47,3.1l0,.06h0a7.93,7.93,0,0,1,.07,3.22C212.45,144.23,206.51,157.72,183.61,157.72ZM213,179.81s-.7-3.91,4.69-1.17Zm12.65,3.25c5.78-7.19.22-12.53.22-12.53-6.85-5.89-15.18,1.28-15.55,1.61,8.76-10.22,16.1-4.94,16.1-4.94C235.45,174.3,226,182.7,225.63,183.06Z"/></g><g id="skin_shading"><path class="cls-2" d="M170.75,329.53s0,.56-.06,1.3l-.1.14-.85,1.16a10.5,10.5,0,0,1-1.2-1.28l-.19-.23-.38-.51-.33-.46q-.57-.78-1.2-1.74l-.21-.31c-.48-.73-1-1.53-1.53-2.38l0-.06-.31-.49-.18-.29c-.13-.22-.27-.44-.41-.66l-.41-.67-.09-.14c-.13-.24-.28-.47-.43-.71s-.28-.48-.43-.72-.38-.64-.58-1-.49-.84-.75-1.27c-.05-.1-.11-.2-.17-.3-.18-.29-.35-.58-.52-.88l-.09-.14-.44-.76-.54-.92-.55-.95-.08-.13c-.34-.59-.68-1.19-1-1.8a0,0,0,0,1,0,0l-.56-1c-.19-.33-.38-.67-.58-1l0-.06c-.19-.34-.39-.68-.59-1l-.56-1,0-.1s0,0,0,0-.12-.19-.17-.29l-.17-.29-.33-.58c-.17-.31-.35-.63-.55-.95-.77-1.37-1.57-2.78-2.39-4.2l-.08-.13c-.8-1.42-1.62-2.87-2.46-4.33l-.08-.13c-1.34-2.37-2.71-4.77-4.1-7.17-.06-.11-.12-.22-.19-.33-.73-1.27-1.46-2.55-2.2-3.82l-.51-.86h0s0,0,0,0c-.28-.48-.56-1-.85-1.44s-.62-1.09-.94-1.63l-.37-.62c-.19-.34-.39-.68-.59-1l-.72-1.21-.9-1.53-.4-.67-1.21-2,0,0a1.67,1.67,0,0,1-.08-.2c-3.07-7.45-5.37-14.74-6.24-21.26a30.32,30.32,0,0,1,.66-13.12h0a15.78,15.78,0,0,1,5.13-7.71l-.06.3h0c0,.12-.05.28-.07.47a0,0,0,0,0,0,0C134.67,239.3,132.94,267.61,170.75,329.53Z"/><path class="cls-2" d="M167.23,221.94A123.5,123.5,0,0,1,152.65,211l-.15-.12c-3.41-3-6.92-6.22-10.51-9.86a128,128,0,0,0,25,18.39c0,.62.09,1.22.16,1.8Z"/><path class="cls-2" d="M268.44,155.57a224.88,224.88,0,0,1-10.31,26.88s-1,2.38-2.91,6.12l-.1.2a110.74,110.74,0,0,1-12.21,20.41l-.29.37.29-.39a42.5,42.5,0,0,0-1.92-5.29c6.93-11.09,13-26.45,17.53-47.29l.4,0a46.83,46.83,0,0,0,9.17-.95Z"/><path class="cls-2" d="M125.84,127.18c-16.88-3.88-12.6-39.31-12.6-39.31.68.56,1.35,1.1,2,1.59C112.87,96.49,112.44,116.77,125.84,127.18Z"/><path class="cls-2" d="M143.61,91.79c-.14.12-.71.93-1.7,1.9-9-.1-14.17-4.11-17.12-8.91C133.52,92,143.26,91.94,143.61,91.79Z"/><path class="cls-2" d="M155.9,58.42c-1.53,2.35-3.76,7.92-15.22,13.18-3,1.4-8.09,0-13-1.73,1,.21,1.86.4,2.53.56,14.46,3.41,24.64-11,24.64-11A4.2,4.2,0,0,1,155.9,58.42Z"/><path class="cls-2" d="M189,68.17c-6.59.26-17.61-1.31-29.39-9.84a10.28,10.28,0,0,0-1-.67c3.83.06,8.3,3.72,8.3,3.72A40.87,40.87,0,0,0,189,68.17Z"/><path class="cls-2" d="M276,115.87a7.29,7.29,0,0,0-.48-1,4.58,4.58,0,0,0-.77-1c-1.17-.45-2.11-1.39-5-1,0,0-4,1.12-.85-1.84.9-.85-2.29-.67-5.07-.24.29-16.2-1.66-31.91-10.28-32.38-3.19-.18-16.11,1-32.45-6.15-19.67-8.6-15.14-10.5-31.47-20.4-15-9.1,2.61,14.87,4.67,14.75,1.38-.08,1.28.31,0,.71-10-4.68-13.75-18.29-13.75-18.29C193.16,48.46,207.94,64,207.94,64,224.91,78.18,256,77.74,256,77.74A111.22,111.22,0,0,0,271.94,77l.65-.08A120.56,120.56,0,0,1,276,115.87Z"/><path class="cls-2" d="M275.73,119.46c-.18,2.16-.43,4.38-.73,6.66l-.46,0-11.6.5c.21-2.49.41-5.09.56-7.76a88.54,88.54,0,0,1,11.73.52Z"/><path class="cls-2" d="M116.32,158.27a5.51,5.51,0,0,1-3.2,3.45,8.07,8.07,0,0,1-5.78-.52c-4.68-2.64-2.92-6.93-2.92-6.93a6.68,6.68,0,0,1,3-3.4,4.22,4.22,0,0,1,1.74-.5,9.37,9.37,0,0,0-4.55-5.72,14.07,14.07,0,0,0-7-1.6,10.56,10.56,0,0,1,6.07-.55c2.8.59,6,2.58,8.11,7.91a7.86,7.86,0,0,0-3,3.41,3.71,3.71,0,0,0,.89,3.86,4.74,4.74,0,0,0,1.53.78,4.17,4.17,0,0,0,4.2-1Z"/></g><g id="tshirt"><path id="tshirt-2" data-name="tshirt" class="cls-3" d="M277.73,372.6h-.1s.23-3,.41-7.93.27-11.83,0-19.62h0s0,0,0,0a0,0,0,0,1,0,0s0,0,0,0h0a218.9,218.9,0,0,0-2.34-26.24h-19l.43,24.25c.09,1.49.19,3.18.29,5l0,.14c.2,3.56.45,7.52.65,11.2.11,1.87.21,3.66.31,5.3,0,.13,0,.25,0,.37.25,4.32.44,7.46.45,7.79l20.85,0h5.82a.28.28,0,0,1,0-.06ZM199,318.72l0-.52c0-.17,0-.35,0-.52s0-.29,0-.44a.41.41,0,0,0,0-.11c-.05-1.09-.11-2.18-.18-3.26-.1-1.62-.21-3.22-.33-4.82h0c-.09-1.11-.17-2.21-.27-3.3-.21-2.34-.44-13.56-1.55-21.52l-.42.12-.43.11-.09,0-.58.11a.3.3,0,0,1-.13,0,.83.83,0,0,1-.22,0,12.05,12.05,0,0,1-5.27-.43s-.46-.2-1.15-.59l-.1-.06c-1.48,13.6-5.73,30.92-17.52,47.28l-.1.14-.85,1.16a10.5,10.5,0,0,1-1.2-1.28l-.19-.23-.38-.51-.33-.46q-.57-.78-1.2-1.74l-.21-.31c-.48-.73-1-1.53-1.53-2.38l-.09-.14-.25-.41-.18-.29c-.13-.22-.27-.44-.41-.66l-.41-.67-.09-.14-.43-.71c-.14-.24-.28-.48-.43-.72s-.38-.64-.58-1-.49-.84-.75-1.27l-.26-.43-.52-.89-.44-.76-.54-.92-.55-.95-.08-.13c-.34-.59-.68-1.19-1-1.8a.57.57,0,0,1-.08-.13l-.49-.86c-.19-.33-.38-.67-.58-1l0-.06-.05-.07-.54-.95-.56-1-.08-.13-.15-.28-.17-.29-.33-.58c-.17-.31-.35-.63-.55-.95-.77-1.37-1.57-2.78-2.39-4.2l-.08-.13c-.81-1.43-1.64-2.87-2.46-4.33l-.08-.13c-1.34-2.37-2.71-4.77-4.1-7.17-.06-.11-.12-.22-.19-.33q-1.35-2.34-2.71-4.68A16.36,16.36,0,0,1,143,289a12.16,12.16,0,0,0-1-3v0h0a21.91,21.91,0,0,1,1.33,4.29.13.13,0,0,1,0,.06c.09.4.18.83.28,1.29h0s0,0,0,.06c.16.78.33,1.65.5,2.63.06.32.11.65.17,1,.12.7.23,1.45.35,2.26.08.6.17,1.22.26,1.87,0,0,0,0,0,0,1.3,9.89,2.58,26.65,2.82,54.74,0,2.59,0,5.26,0,8v10.26h.09l51.05,0,18.69,0v-54ZM65,364.31a.57.57,0,0,0,0-.13H65c0,1.07.1,2.1.14,3.06.14,2.77.23,4.61.23,4.7h0a31,31,0,0,1-3.22,0c0,.29,0,.52,0,.66H65.4C65.38,371.86,65.23,368.3,65,364.31Z"/><path id="shade" class="cls-4" d="M147.76,362.52v10.26h-5.15l0-.63a1.77,1.77,0,0,1,0-.22v-.19c0-.06,0-.12,0-.18s0-.39,0-.62,0-.39,0-.6c0-.38,0-.8.05-1.25q0-.37,0-.78c0-.54,0-1.11.06-1.72l0-.94c0-.95.07-2,.1-3,0-.51,0-1,.05-1.59h0c.38-10.85.82-27.86.7-45.12v-.19h-.25c0-1.62-.05-3.22-.08-4.8h.28c-.09-6.82-.27-13.58-.59-19.93a6.36,6.36,0,0,0,.3.58h0a1.62,1.62,0,0,0,.1.18h0l.1.19c.16.78.33,1.65.5,2.63.05.32.11.66.17,1,.12.7.23,1.45.35,2.26.08.6.17,1.22.26,1.87,0,0,0,0,0,0,1.3,9.89,2.58,26.65,2.82,54.74C147.75,357.07,147.76,359.74,147.76,362.52Z"/></g><g id="shirt"><g id="light_red_stripes"><path class="cls-5" d="M288.92,364.52q0,4-.09,8.37l-31.16,0v-.05H258c.41,0,.74,0,.9-.05v0c0-.33-.2-3.47-.45-7.79l19.61-.28h.09c-.15,4.4-.35,7.29-.4,7.93l7.83.1a.28.28,0,0,0,0,.06H280.1l5.55.07,3.15,0-.19-8.35Z"/><path class="cls-5" d="M217.5,365.52v7.3H198.8a1.09,1.09,0,0,1,0-.12c0-.56.15-3,.29-6.91Z"/><path class="cls-5" d="M143,361c0,.55,0,1.08-.05,1.59,0,1.06-.07,2.08-.1,3l0,.94c0,.61,0,1.18-.06,1.72q0,.4,0,.78c0,.45,0,.87-.05,1.25,0,.21,0,.41,0,.6s0,.43,0,.62,0,.12,0,.18v.19a1.77,1.77,0,0,0,0,.22l0,.63H20.09l22.19-.21h.27l19.46,0h.08a.45.45,0,0,0,0,.13,32.76,32.76,0,0,0,3.31,0,.93.93,0,0,0,0-.13c0-.73-.17-4.29-.36-8.28a.57.57,0,0,0,0-.13c0-.66-.06-1.35-.09-2.06l23.36-.33v10.72l40.18-.43-.15-9.27,0-1.58Z"/><path class="cls-5" d="M62.33,364.37c-.15,3.19-.26,6.15-.26,7.56,0,.29,0,.52,0,.66H62l-19.46,0,5.39-.05-.15-8,0-2.19,14.68-.21C62.4,362.92,62.36,363.66,62.33,364.37Z"/><path class="cls-5" d="M7.77,362.92v9.86H0c.15-3.38.32-6.64.5-9.76L4.68,363Z"/></g><g id="red_stripes"><path class="cls-6" d="M46.16,277l-15.26.21-1.07,0A89.88,89.88,0,0,1,46,269.26l0,1.22Z"/><path class="cls-6" d="M257.14,343c-.14-2.37-.25-4.27-.32-5.35l-.09,1.19c-.69,9.37-1.19,16-1.54,20.67-.15,2-.27,3.74-.36,5.14-.42,6-.36,6.78-.08,8.12l-37.25,0v-54h39.21Z"/><path class="cls-6" d="M256,279.69l-5.1.07-33.42.47V264.12a25.6,25.6,0,0,0,7.1-4.15l30,15.84s.51.21,1.39.65V277c-.81-.26-1.21-.33-1.08-.26.37.19.73.39,1.09.6Z"/><polygon class="cls-6" points="47.94 372.52 42.55 372.57 42.28 372.57 7.77 372.54 7.77 315.72 46.88 315.72 47.75 362.36 47.79 364.55 47.94 372.52"/><path class="cls-6" d="M96.73,276.24h-.1l-8.33.12V256.85c.7-.25.8-.33.8-.35h0q3.38-.77,6.29-1.49c-.05.68-.11,1.39-.15,2.13,0,.5-.06,1-.08,1.55s0,.87,0,1.31,0,1,0,1.52c0,1.88,0,4,.19,6.24,0,.22,0,.43,0,.65s0,.49.07.73.09.78.14,1.17.08.63.13.95A35.25,35.25,0,0,0,96.73,276.24Z"/><path class="cls-6" d="M143.43,291.56a6.36,6.36,0,0,1-.3-.58c0-.31,0-.63,0-.94a5,5,0,0,0-.88-1.49.47.47,0,0,0-.09-.12h0c-.28-.41-.63-.88-1-1.41v0c0-.27-.65-.86-.8-1.05l-1-1.25-.5-.66c-.31-.39-.63-.8-.95-1.23l-.69-.9c-.81-1-1.62-2.1-2.42-3.16L133.44,277l-.16-.23c-.8-1.14-4.17-6-4.53-6.09-.08,0-1.38-.4-1.47-.4-.42,0-.32,5.55-.32,5.55l-2.27,0-14.47.21a15.49,15.49,0,0,1,2.91-3.31l.29-.25V254.45h7.74c-.39,4.16-.42,7.13-.42,7.13.17-2.58.41-4.95.72-7.13h8.24c.87,6.52,3.17,13.81,6.24,21.26a1.67,1.67,0,0,0,.08.2l0,0,1.21,2,.4.67.9,1.53,1.31,2.23,1.31,2.25c.29.48.57,1,.85,1.44,0,0,0,0,0,0h0A16.36,16.36,0,0,1,143,289a12.16,12.16,0,0,0-1-3v0h0a21.91,21.91,0,0,1,1.33,4.29.13.13,0,0,1,0,.06C143.32,290.82,143.38,291.18,143.43,291.56Z"/><polygon class="cls-6" points="128.48 372.08 88.3 372.51 88.3 315.72 127.59 315.72 128.31 361.23 128.33 362.81 128.48 372.08"/><path class="cls-6" d="M198.42,309h0l0,0s0-.05,0-.15a208.22,208.22,0,0,0-3.61-24.29.83.83,0,0,0,.22,0,.3.3,0,0,0,.13,0l.58-.11.09,0,.43-.11.42-.12c1.11,8,1.34,19.18,1.55,21.52C198.25,306.83,198.33,307.93,198.42,309Z"/></g><g id="brown_stripes"><path class="cls-7" d="M275.79,318.72H256.71L256.08,283l-.06-3.34,3.16,0c6.56,5.51,10.93,14.87,13.8,25.58A127.26,127.26,0,0,1,275.79,318.72Z"/><polygon class="cls-7" points="88.3 276.36 88.3 315.72 46.88 315.72 46.5 295.06 46.16 276.95 54.17 276.84 88.3 276.36"/><path class="cls-7" d="M143.44,310.92c0,1.58.06,3.18.08,4.8H127.59L127,278.06l0-2.24s-.1-5.54.32-5.55c.09,0,1.39.38,1.47.4.36.1,3.73,4.95,4.53,6.09l.16.23,1.31,1.75c.8,1.06,1.61,2.11,2.42,3.16l.69.9c.32.43.64.84.95,1.23l.5.66,1,1.25c.29.37.55.72.8,1.05v0c.4.53.75,1,1,1.41h0a.47.47,0,0,1,.09.12,5,5,0,0,1,.88,1.49c0,.31,0,.63,0,.94.32,6.35.5,13.11.59,19.93Z"/><path class="cls-7" d="M217.5,280.23v38.49H199l0-.52c0-.17,0-.35,0-.52s0-.29,0-.44a.41.41,0,0,0,0-.11c-.05-1.09-.11-2.18-.18-3.26-.09-1.62-.21-3.22-.33-4.82h0c-.09-1.11-.17-2.21-.27-3.3-.21-2.34-.44-13.56-1.55-21.52a3.5,3.5,0,0,0,.52-.17h0l.33-.12h0l.35-.14a2.52,2.52,0,0,0,.34-.15,2.17,2.17,0,0,0,.41-.19,10.31,10.31,0,0,0,1.38-.75l.33-.21a.09.09,0,0,0,.07,0,3.2,3.2,0,0,0,.45-.3c.24-.16.46-.32.69-.49l.06,0c.25-.18.49-.38.73-.59s.45-.37.67-.58l10.19-.14-4.27-5.53-.59-.74v0a.41.41,0,0,0,.07-.11l.06-.11.72-1.16a2.39,2.39,0,0,0,.13-.21l.12-.19a2.53,2.53,0,0,0,.13-.22l.18-.3a.47.47,0,0,1,.05-.1.21.21,0,0,1,0-.06l.25-.44s0,0,0-.05c.51-.95,1.29-2.51,1.61-3.16.05-.09.09-.18.13-.27s2.54,6.78,3.65,9.85l.06.16a1.8,1.8,0,0,1,.08.21l.28.8a1.39,1.39,0,0,1,.06.19l0,.09a4.37,4.37,0,0,1,.13,1.33Z"/><path class="cls-7" d="M113.42,237v17.45h-18c.35-4,.84-6.8.84-6.8Z"/></g><g id="dk_brown_stripes"><polygon class="cls-8" points="256.71 318.72 217.5 318.72 217.5 280.23 250.92 279.76 256.02 279.69 256.08 283.03 256.71 318.72"/><path class="cls-8" d="M46.88,315.72H6.07q.87-4.32,1.7-7.66c2.46-10,4.5-13.69,4.5-13.69,4.24-7.35,10.88-13,17.56-17.19H30.9L46.16,277l.34,18.11Z"/><path class="cls-8" d="M127.59,315.72H88.3V276.36l8.33-.12a37.54,37.54,0,0,0,1.66,5c.16.38,5.23,17.61,9.85-.38a15.77,15.77,0,0,1,2.08-4.8l14.47-.21,2.27,0,0,2.24Z"/><path class="cls-8" d="M138.89,225a11.33,11.33,0,0,1-.18,1.41h0a25.7,25.7,0,0,1-3.34,7.93c0-.19,0-.35.07-.47h0l.06-.3a15.78,15.78,0,0,0-5.13,7.71h0a30.32,30.32,0,0,0-.66,13.12h-8.24a67.7,67.7,0,0,1,1.41-7.34c4.67-18.19,14.52-17.64,14.52-17.64-11.75-4.95-15.22,14.09-16.23,25h-7.74V237l13.63-8.46A21.52,21.52,0,0,1,138.6,225Z"/></g><g id="beige_stripes"><path class="cls-9" d="M213.16,280.29l-10.19.14a9.2,9.2,0,0,0,.72-.68c.23-.21.45-.44.66-.67s.33-.35.49-.53l.48-.55c.3-.34.59-.69.87-1l.05-.07c.25-.31.49-.63.72-.95s.47-.63.68-.95l.66-1,.59.74Z"/><path class="cls-9" d="M217.5,264.12v16.11l-1.39,0a4.37,4.37,0,0,0-.13-1.33l0-.09a1.39,1.39,0,0,0-.06-.19,6,6,0,0,0-.28-.8,1.8,1.8,0,0,0-.08-.21l-.06-.16c-1.11-3.07-3.65-9.85-3.65-9.85.09-.17.16-.34.23-.49a.36.36,0,0,0,0-.09c.19-.39.33-.72.43-1l.23-.57A29.47,29.47,0,0,0,217.5,264.12Z"/><path class="cls-9" d="M46.88,315.72l.87,46.64,14.68-.21,2.51,0,23.36-.33V315.72Zm95.78,55.84v.12a1,1,0,0,1,0-.17A.09.09,0,0,1,142.66,371.56Zm.41-10.53c0,.65,0,1.27-.06,1.87,0-.3,0-.61,0-.92l0-1Z"/><path class="cls-9" d="M143.07,361h0l-14.71.2-.72-45.51h16.18v.19C143.89,333.17,143.45,350.18,143.07,361Z"/><path class="cls-9" d="M7.77,315.72v47.2l-3.09,0L.5,363c1.29-21.35,3.45-36.64,5.57-47.3Z"/><path class="cls-9" d="M88.3,256.85v19.51l-34.13.48-8,.11L46,270.48l0-1.22c3.7-1.37,6.24-2.06,6.6-2.15,4.8-1.2,18.05-4.95,18.05-4.95C82.56,258.75,86.81,257.39,88.3,256.85Z"/><path class="cls-9" d="M113.42,254.45V272.5l-.29.25a15.49,15.49,0,0,0-2.91,3.31,15.77,15.77,0,0,0-2.08,4.8c-4.62,18-9.69.76-9.85.38a37.54,37.54,0,0,1-1.66-5h.1a35.25,35.25,0,0,1-1.09-5c0-.32-.1-.64-.13-.95s-.1-.78-.14-1.17-.05-.49-.07-.73,0-.43,0-.65c-.18-2.25-.22-4.36-.19-6.24,0-.51,0-1,0-1.52s0-.88,0-1.31,0-1.05.08-1.55c0-.74.1-1.45.15-2.13,0-.19,0-.37,0-.55Z"/><path class="cls-9" d="M191.12,237.79l-.08.1.09-.1Zm7.9,80.93c.89,18.64.44,37.27.08,47.06l18.4-.26v-46.8Zm0-.52c0,.17,0,.35,0,.52h0Zm59.17-39.37,0,0a20.15,20.15,0,0,0-2.15-1.44l0,2.32,3.16,0C258.85,279.36,258.51,279.09,258.16,278.83Zm-2.2-2.37V277a29.46,29.46,0,0,1,5.22,2.48A49.3,49.3,0,0,0,256,276.46Zm22.19,68.72h0v-.07h0a217.06,217.06,0,0,0-2.36-26.37H256.71l.43,24.25c.09,1.49.19,3.18.29,5l0,.14c.2,3.56.45,7.52.65,11.2.11,1.87.21,3.66.31,5.3,0,.13,0,.25,0,.37l19.61-.28h.09C278.29,359.74,278.4,352.9,278.15,345.18ZM288,338c0,.17,0,.35,0,.52l.6,26h.31C288.93,354.15,288.56,345.38,288,338ZM217.5,372.82H198.8l58.87.05Z"/></g><g id="shirt_shading"><path class="cls-10" d="M137.39,229.47s-9.85-.55-14.52,17.64a67.7,67.7,0,0,0-1.41,7.34c-.31,2.18-.55,4.55-.72,7.13,0,0,0-3,.42-7.13C122.17,243.56,125.64,224.52,137.39,229.47Z"/><path class="cls-10" d="M65.41,372.72a32.76,32.76,0,0,1-3.31,0,.45.45,0,0,1,0-.13c0-.14,0-.37,0-.66,0-1.41.11-4.37.26-7.56,0-.71.07-1.45.1-2.22.48-10,1.33-23.85,1.33-23.85s.68,13.86,1.18,23.82c0,.71.06,1.4.09,2.06a.57.57,0,0,1,0,.13c.19,4,.34,7.55.36,8.28A.93.93,0,0,1,65.41,372.72Z"/><path class="cls-10" d="M258.88,372.74v0c-.16,0-.49,0-.9.05h-.31c-1.1,0-2.53-.05-2.92-.07-.28-1.34-.34-2.09.08-8.12.09-1.4.21-3.09.36-5.14.35-4.69.85-11.3,1.54-20.67l.09-1.19c.07,1.08.18,3,.32,5.35.09,1.49.19,3.18.29,5l0,.14c.2,3.56.45,7.52.65,11.2.11,1.87.21,3.66.31,5.3,0,.13,0,.25,0,.37C258.68,369.27,258.87,372.41,258.88,372.74Z"/><path class="cls-10" d="M288.8,372.87l-3.15,0-5.55-.07h5.45a.28.28,0,0,1,0-.06l-7.83-.1c0-.64.25-3.53.4-7.93.16-4.93.27-11.77,0-19.49h0v-.07h0a217.06,217.06,0,0,0-2.36-26.37A127.26,127.26,0,0,0,273,305.23c-2.87-10.71-7.24-20.07-13.8-25.58-.33-.29-.67-.56-1-.82l0,0a20.15,20.15,0,0,0-2.15-1.44c-.36-.21-.72-.41-1.09-.6-.13-.07.27,0,1.08.26a29.46,29.46,0,0,1,5.22,2.48s0,0,.05,0a43.66,43.66,0,0,1,11.1,9.67,3.88,3.88,0,0,1,.26.31c4.82,5.87,9.5,14.29,12.43,26.24,0,0,0,0,0,0A109.86,109.86,0,0,1,288,337.94a.28.28,0,0,1,0,.09c0,.17,0,.35,0,.52l.6,26Z"/></g></g><path class="cls-10" d="M223.28,203.2c-7.65,5.4-13.21,2.36-16.69-1.65a26.18,26.18,0,0,0,3.3-1.33,18.55,18.55,0,0,0,11,.37A29.44,29.44,0,0,0,223.28,203.2Z"/><g id="nose"><path class="cls-10" d="M225.63,183.06c5.78-7.19.22-12.53.22-12.53-6.85-5.89-15.18,1.28-15.55,1.61,8.76-10.22,16.1-4.94,16.1-4.94C235.45,174.3,226,182.7,225.63,183.06Z"/><path class="cls-10" d="M217.67,178.64,213,179.81S212.28,175.9,217.67,178.64Z"/></g><path class="cls-11" d="M115.1,176.83a3.39,3.39,0,0,1-1.5.34,5.17,5.17,0,0,1-3.91-2.19,5.24,5.24,0,0,1-1-5,4.64,4.64,0,0,1,.88-1.68,2.89,2.89,0,0,1,3.72-.88,1,1,0,0,1,.38,1.36,1,1,0,0,1-1.35.39c-.4-.22-.81-.09-1.21.4a3.15,3.15,0,0,0-.64,1.54,3.3,3.3,0,0,0,.75,2.59c1.08,1.27,2.17,1.76,3,1.35a1.49,1.49,0,0,0,.8-1.53,1,1,0,0,1,2-.43A3.44,3.44,0,0,1,115.1,176.83Z"/><g id="eyes"><path id="white" class="cls-3" d="M212,135.58c-1.75,9.78-8.64,21.21-31.41,20.06a37.6,37.6,0,0,1-13.21-3.15c-8.82-4-13.81-10.84-14.83-20.4a5,5,0,0,1,0-.67c1-1.22,5.57-2.2,12.91-2.52a6.85,6.85,0,0,0-1.46,4.15c0,4.77,5.32,8.65,11.86,8.65s11.86-3.88,11.86-8.65a6.78,6.78,0,0,0-1.16-3.73c16.34.42,23.52,2.2,25,2.61A6,6,0,0,1,212,135.58Z"/><path id="left_eye" class="cls-11" d="M287.92,129.93l0,0a6.73,6.73,0,0,0-1.17-1.74,6.82,6.82,0,0,0-3.86-2.1,6.64,6.64,0,0,0-.75-.21l-.14,0-7,.3-.46,0-11.6.5-24.77,1.06H238c-.25,0-.5.05-.73.09a6.19,6.19,0,0,0-.77.19,2.25,2.25,0,0,0-.44.14c-.19.07-.37.14-.54.22a4.13,4.13,0,0,0-.42.22,6.88,6.88,0,0,0-2,1.58,6.67,6.67,0,0,0-1.57,5.2c0,.23.06.46.1.68v0c2.85,18.78,23.67,20.38,26.82,20.51l.4,0a46.83,46.83,0,0,0,9.17-.95l.35-.08c13.19-3,17.9-11.71,19.5-18.67.11-.47.21-.94.28-1.4l.28-1.87c0-.14,0-.28.05-.42h0A6.88,6.88,0,0,0,287.92,129.93Zm-18.78,23.35-.36.1a41.91,41.91,0,0,1-9.84,1.22h0A35.92,35.92,0,0,1,247,152.08c-7.92-3.25-12.44-9-13.43-17a5,5,0,0,1,0-1.22l.37-.42c.6-.69,3.67-1.23,8.2-1.63a5,5,0,0,0-1.24,3.46c.18,3.25,4.08,6.4,10.39,6.4l1.08,0a12.35,12.35,0,0,0,7.37-2.5,6.06,6.06,0,0,0,2.29-4.64c0-.12,0-.23,0-.34a5.31,5.31,0,0,0-1.23-3.12h1.7c3.16,0,6.39,0,9.57,0,.62,0,1.21,0,1.77,0h.79c8.8,0,11.31,2.12,11.83,2.7C284.9,146,277,151.18,269.14,153.28Z"/><path id="white-2" data-name="white" class="cls-3" d="M286.47,133.74c-1.57,12.23-9.5,17.44-17.33,19.54l-.36.1a41.91,41.91,0,0,1-9.84,1.22h0A35.92,35.92,0,0,1,247,152.08c-7.92-3.25-12.44-9-13.43-17a5,5,0,0,1,0-1.22l.37-.42c.6-.69,3.67-1.23,8.2-1.63a5,5,0,0,0-1.24,3.46c.18,3.25,4.08,6.4,10.39,6.4l1.08,0a12.35,12.35,0,0,0,7.37-2.5,6.06,6.06,0,0,0,2.29-4.64c0-.12,0-.23,0-.34a5.31,5.31,0,0,0-1.23-3.12h1.7c3.16,0,6.39,0,9.57,0,.62,0,1.21,0,1.77,0h.79C283.44,131,286,133.16,286.47,133.74Z"/><path id="rt_eye" class="cls-11" d="M213.87,132.72s0,0,0-.06a8.06,8.06,0,0,0-1.47-3.1,8,8,0,0,0-5.7-3.09l-46.81-3.76a8.06,8.06,0,0,0-1.3,0h-.17a9,9,0,0,0-.95.14l-.58.14a8.88,8.88,0,0,0-3.16,1.62l-.45.4-.12.12a10.21,10.21,0,0,0-2.44,4.27,8.55,8.55,0,0,0-.22,2.26c0,.21,0,.42,0,.64,2.64,24.62,29.73,25.34,30,25.34,1.07.05,2.11.08,3.11.08,22.9,0,28.84-13.49,30.33-21.78A7.93,7.93,0,0,0,213.87,132.72Zm-1.9,2.86c-1.75,9.78-8.64,21.21-31.41,20.06a37.6,37.6,0,0,1-13.21-3.15c-8.82-4-13.81-10.84-14.83-20.4a5,5,0,0,1,0-.67c1-1.22,5.57-2.2,12.91-2.52a6.85,6.85,0,0,0-1.46,4.15c0,4.77,5.32,8.65,11.86,8.65s11.86-3.88,11.86-8.65a6.78,6.78,0,0,0-1.16-3.73c16.34.42,23.52,2.2,25,2.61A6,6,0,0,1,212,135.58Z"/></g><g id="eyebrows"><path class="cls-12" d="M210.13,122.83a245.32,245.32,0,0,0-26.22-6c-14.51-2.33-30.7-.31-30.7-.31l4-5.09s4.78-2.77,13.12-.61c3.14.81,3.1-2.08,4.16-2.16,2.31-.19,7,2.69,9.1,2.62,3.07-.11.14-2.8,1.55-2.47,2.44.58,6,1.42,8.94,2.16,2.78.7-2.64-2.49.31-1.7,3.55,1,5.74,3.46,9.1,4.48,2.45.74-1.53-2.22.6-1.48a73,73,0,0,1,6.81,2.71C211.43,115.27,210.91,123.09,210.13,122.83Z"/><path class="cls-12" d="M277,119.64c-.16,0-.58-.1-1.23-.18l-.5-.06a88.54,88.54,0,0,0-11.73-.52A75.44,75.44,0,0,0,239.34,123c-.46.17-1.79-1-2.53-6.92a.26.26,0,0,1,.08-.25c.39-.39,2-1.77,5.71-3,1-.32.43,2,1.57,1.56.92-.32,4.8-2.6,5.8-3,1.2-.42.62,1.67,1.89,1.22s4.66-2.36,5.87-2.79,1.76,2.06,2.87,1.68a21,21,0,0,1,3.21-.69c2.78-.43,6-.61,5.07.24-3.13,3,.85,1.84.85,1.84,2.91-.44,3.85.5,5,1a4.58,4.58,0,0,1,.77,1,7.29,7.29,0,0,1,.48,1A14.83,14.83,0,0,1,277,119.64Z"/></g><g id="hair_beard"><path class="cls-12" d="M244.52,217.28a49,49,0,0,0-1.61-8.1l-.29.37.29-.39a42.5,42.5,0,0,0-1.92-5.29,36.25,36.25,0,0,0-1.65-3.3,37.23,37.23,0,0,0-14.29-14.38,28.83,28.83,0,0,0-6-2.61c-9.55-2.68-18.41-.85-25.86,2.61a59.29,59.29,0,0,0-12.62,8.09,67.26,67.26,0,0,0-9.74,9.78,27.91,27.91,0,0,0-3.75,11.38,27,27,0,0,0-.1,4c0,.62.09,1.22.16,1.8l.09.71a26.86,26.86,0,0,0,3.6,10.19c-4,17.84,14.53,29.4,14.53,29.4,2.7,3.74,3.55,6.72,3.68,8.87v0a7.41,7.41,0,0,1,0,1.34v0a6.1,6.1,0,0,1-.71,2.55c-2.42,2.75-5.32-.49-5.32-.49-.07.19-.12.37-.17.56a5.78,5.78,0,0,0-.12.57c0,.16-.05.32-.07.47v0a5.19,5.19,0,0,0,0,.88l0,.31c0,.13,0,.26.05.38a4.54,4.54,0,0,0,.16.66,5.85,5.85,0,0,0,.23.63,2.88,2.88,0,0,0,.13.31l.15.3c.11.19.22.39.34.57s.12.19.19.28.23.31.34.46.42.5.64.73l.22.22a15.46,15.46,0,0,0,1.25,1.09l.77.55c.39.27.76.49,1.08.68l.1.06c.69.39,1.15.59,1.15.59a12.05,12.05,0,0,0,5.27.43.83.83,0,0,0,.22,0,.3.3,0,0,0,.13,0l.58-.11.09,0,.43-.11.42-.12.52-.17h0l.33-.12h0l.35-.14a2.52,2.52,0,0,0,.34-.15l.41-.19a10.31,10.31,0,0,0,1.38-.75l.33-.21a.09.09,0,0,0,.07,0q.23-.13.45-.3c.24-.16.46-.32.69-.49l.06,0c.25-.19.49-.39.73-.59s.45-.37.67-.58a9.2,9.2,0,0,0,.72-.68c.23-.22.45-.44.66-.67s.33-.35.49-.53l.48-.55c.3-.34.59-.69.87-1l.05-.07c.25-.31.49-.63.72-.95s.47-.63.68-.95l.66-1v0a.41.41,0,0,0,.07-.11l.06-.11.72-1.16a2.39,2.39,0,0,0,.13-.21l.12-.19a2.53,2.53,0,0,0,.13-.22l.18-.3a.47.47,0,0,1,.05-.1.21.21,0,0,1,0-.06l.25-.44s0,0,0-.05c.51-.95,1.29-2.51,1.61-3.16.05-.09.09-.18.13-.27s.16-.34.23-.49a.36.36,0,0,0,0-.09c.19-.39.33-.72.43-1l.23-.57a29.47,29.47,0,0,0,4.75-1.38,25.6,25.6,0,0,0,7.1-4.15,27.52,27.52,0,0,0,9.18-16.77C248.72,232.28,244.52,217.28,244.52,217.28Zm-6.46-9.88s-3-9-8.27-13.55A17.64,17.64,0,0,1,238.06,207.4Zm-17.14-6.81a29.44,29.44,0,0,0,2.36,2.61c2.72,2.67,6.3,5,10.53,5.23,0,0-5.77,6.7-11.76,6.47,0,0-7.76.94-4.35-8.35l-5.06-.7s-3.64,7.87-12.58,6.7c0,0-13.29-.83-11.06-11.13a27,27,0,0,0,17.59.13,26.18,26.18,0,0,0,3.3-1.33,31.47,31.47,0,0,0,7.45-5.07A33.59,33.59,0,0,0,220.92,200.59Zm-16.62-2.22c.52-.14,1-.3,1.56-.49a17.09,17.09,0,0,0,7.56-5.24,19.51,19.51,0,0,1-7.14,5.57,17.76,17.76,0,0,1-1.65.69c-4.24,1.57-10,2.09-17.23-.82C187.4,198.08,196.14,200.64,204.3,198.37ZM188.47,242l-.6.34c-.26.13-.53.26-.81.38a4.87,4.87,0,0,1-.57.24c-.27.11-.54.21-.83.3a15.84,15.84,0,0,1-2.77.65.17.17,0,0,1-.1,0,.22.22,0,0,1-.11,0l.06,0,0,0,0,0a19.26,19.26,0,0,0,2.18-1.07,22.06,22.06,0,0,0,2.25-1.46,6,6,0,0,0,.5-.38c.24-.18.48-.37.72-.58s.57-.48.86-.76.47-.44.7-.68.35-.36.52-.55.32-.35.48-.54l.08-.1h0c.15-.18.3-.36.44-.55s.26-.33.38-.5a18.85,18.85,0,0,0,1.72-2.8,5.6,5.6,0,0,0,.27-.55c.12-.24.22-.49.33-.74h0l.15-.36a20.62,20.62,0,0,0,.89-2.91,14.26,14.26,0,0,1-.34,3c0,.11,0,.22-.08.34s-.11.43-.17.66-.12.46-.2.69-.15.47-.25.72c-.15.42-.32.85-.52,1.28-.1.22-.21.43-.33.65s-.25.47-.39.7-.28.46-.44.69-.44.63-.69.94q-.18.23-.39.45l-.41.45-.44.42-.5.44c-.17.15-.35.29-.53.42A11.89,11.89,0,0,1,188.47,242ZM208,264.81l-.15.59c0,.13-.07.26-.1.39-.13.48-.27,1-.41,1.44s-.3,1-.47,1.45c-.08.24-.16.48-.25.72s-.25.67-.38,1-.2.52-.31.78-.19.46-.29.69c-.35.79-.72,1.55-1.12,2.29-.21.39-.43.78-.66,1.15s-.36.58-.55.85-.25.37-.38.55-.13.17-.19.25-.27.35-.41.52a8.14,8.14,0,0,1-.54.63q-.24.27-.48.51c-.2.21-.4.4-.6.58l-.51.43-.45.35a8.73,8.73,0,0,1-.74.5,2.58,2.58,0,0,1-.32.18,2.26,2.26,0,0,1-.26.16,9.23,9.23,0,0,1-1.15.53l-.52.18-.55.16h0a9,9,0,0,1-1.58.28l-.39,0h-.07a13.46,13.46,0,0,1-5.59-1c-.42-.17-.86-.35-1.3-.57a9,9,0,0,0,1.32.33,10.65,10.65,0,0,0,2.33.15l.73,0a12.33,12.33,0,0,0,1.76-.31l.38-.1.51-.16a3.66,3.66,0,0,0,.43-.15,10.16,10.16,0,0,0,1.15-.49c.19-.09.37-.18.56-.29s.49-.27.74-.42.75-.49,1.13-.78l.53-.42c.19-.15.37-.31.55-.47l.55-.52c.37-.36.74-.74,1.1-1.16.19-.21.37-.43.55-.65l.54-.7c.16-.21.32-.43.47-.65s.31-.45.46-.69.27-.41.4-.63l0-.06c.14-.22.27-.44.39-.67.42-.71.83-1.47,1.22-2.3.16-.32.32-.66.48-1s.23-.52.34-.79c.27-.63.53-1.28.79-2l.33-.93.09-.27a71.19,71.19,0,0,0,2.61-9.88A61.46,61.46,0,0,1,208,264.81Zm27.47-40.91c-.06.29-.12.58-.19.88l-.06.26c-.05.22-.1.43-.16.65s-.16.62-.26.93-.21.69-.33,1c0,.13-.08.25-.13.38-.14.39-.29.79-.46,1.18s-.34.79-.53,1.18-.31.61-.48.92-.34.6-.53.9-.38.59-.59.87a4.35,4.35,0,0,1-.32.43,8.06,8.06,0,0,1-.59.72,12.76,12.76,0,0,1-1.53,1.5l-.53.42c-.22.17-.45.34-.69.49l-.69.43-.4.21c-.12.07-.25.13-.38.19s0,0,0,0c-.21.11-.44.2-.66.29l-.09,0-.43.16a13.56,13.56,0,0,1-2.53.66l-.79.11c-.33,0-.67.07-1,.08s-.63,0-.95,0a14.51,14.51,0,0,0,3.44-1.11l.52-.24a19.19,19.19,0,0,0,5.25-3.71c.21-.2.41-.41.61-.63a0,0,0,0,0,0,0c.21-.22.42-.45.61-.69s.5-.61.75-.94.29-.39.43-.6a20.73,20.73,0,0,0,1.12-1.81c.15-.27.3-.55.44-.83a24.34,24.34,0,0,0,1.21-2.86c.12-.34.23-.68.34-1,.25-.78.46-1.6.65-2.47s.38-2,.51-3.06c.05-.36.09-.73.12-1.1,0,0,0,.78-.08,2.07l0,.31s0,.07,0,.1,0,.33,0,.5c0,.36-.08.76-.14,1.18C235.73,222.55,235.63,223.21,235.49,223.9Z"/><path id="hair" class="cls-12" d="M293.88,60.09C286.22,75.6,268.7,62,268.7,62c18.61-12.28,13.68-39.41,13.68-39.41-5.7,16.4-28.29,19.82-35.84,20.5h0c-.58-.32-1.18-.63-1.77-.93C262.17,13.86,242.43,0,242.43,0c9,21.24-8.94,34.4-12.12,36.53l-.18-.06c6.7-8.31,2.44-17.73,2.44-17.73-.87,11.55-11.11,12-11.11,12-7.87-.49-13.43.08-16.78,1.11h0l-.75-.07c8.91-10.87,3.47-25.31,3.47-25.31-4.21,15.68-19.15,16.8-19.15,16.8A51.35,51.35,0,0,0,162.51,33C171.81,14.22,157,0,157,0c0,25.2-26.27,42.65-26.27,42.65,3.28-16.16-6-32.31-6-32.31,4.93,29.07-15.9,48.14-15.9,48.14-3.76-28.27-19.68-26.82-19.68-26.82,14.78,9.69,6,40.71,6,40.71C81.54,91.94,62.93,88.64,62.93,88.64c16.29,12,30.61-7.23,30.61-7.23-12.59,32.31,0,62.28,0,62.28a15.05,15.05,0,0,1,.76-2.47h0c1.56-3.82,4.24-5,7.17-4.73,6.18.46,13.46,7,13.46,7a1.33,1.33,0,0,0,.46-.16c3.43-1.7,11-16,11-16l-.53-.11h0c-16.88-3.88-12.6-39.31-12.6-39.31.68.56,1.35,1.1,2,1.59,5.53,4.26,10.14,6.37,13.9,7.24,0,0,0,0,0,0a15.18,15.18,0,0,0,9.07-.37,0,0,0,0,0,0,0,13.92,13.92,0,0,0,3.65-2.64c-9-.1-14.17-4.11-17.12-8.91-4.47-7.25-3.88-16.29-3.88-16.29s3.75.74,6.75,1.37h0c1,.21,1.86.4,2.53.56,14.46,3.41,24.64-11,24.64-11a4.2,4.2,0,0,1,1.05-1c.74-1.13,1.32-1.51,2.69-.76,3.83.06,8.3,3.72,8.3,3.72A40.87,40.87,0,0,0,189,68.17h.07a21.25,21.25,0,0,0,5.25-.77c-10-4.68-13.75-18.29-13.75-18.29C193.16,48.46,207.94,64,207.94,64,224.91,78.18,256,77.74,256,77.74A111.22,111.22,0,0,0,271.94,77l.65-.08C298.52,73.44,293.88,60.09,293.88,60.09ZM101.8,69.62a17,17,0,0,1-1.53,3.93c.11-.59.22-1.18.31-1.77v0c3-17.83-1.26-31.26-1.46-31.88,7.16,10.27,4.69,23.28,2.68,29.72A0,0,0,0,1,101.8,69.62Zm16.86,60.13S110,129,105.48,119.4h0c-2.63-5.65-3.81-14.36-.92-27.78,0-.22-1.8,19.13,6.2,31.06A20.09,20.09,0,0,0,118.66,129.75Zm3.24-41.08C109.58,84.3,113.36,67,113.36,67,112.11,82.53,121.9,88.67,121.9,88.67Zm5.41-43.85a53.84,53.84,0,0,1-3.45,10.89,40.13,40.13,0,0,1-2.12,4.21c.44-1.1.86-2.28,1.23-3.51A76.1,76.1,0,0,0,125.27,46,161.5,161.5,0,0,0,127,25.33,44.23,44.23,0,0,1,127.31,44.82Zm31.2-38.64c.16.24.3.47.44.71,8.32,14.25.49,24.18.49,24.18C163.89,17.33,159.14,7.41,158.51,6.18ZM185.39,65C170.88,61.77,173,50.94,173,50.94,175,60.77,184.78,64.77,185.39,65Zm-5-33.74a60.62,60.62,0,0,0-10,5.68A30.53,30.53,0,0,0,162,45.57c-.28.46,1.38-3.77,5.89-8.2h0a29,29,0,0,1,8.92-5.92h0a30.09,30.09,0,0,1,8.41-2.16S183.28,30,180.43,31.27Zm24,10c1.3.4,16.43,5.32,28.16-1.54A22,22,0,0,0,235,38.05a25,25,0,0,0,7.26-9.16,23.22,23.22,0,0,1-4.34,10.24,21.22,21.22,0,0,1-1.42,1.63C231.4,46,221.91,49.26,204.41,41.23Zm8,13.4c11.77,14.54,35.07,16.85,35.07,16.85C215.19,71,211.64,53.67,212.42,54.63Zm48.23-.83c-12.95,4.48-27.67,2-29,1.72,11.72,1.52,20.8-.08,27.75-3l.61-.26a38.13,38.13,0,0,0,19.59-19c-2.58,11.28-10,17.23-18.21,20.27Z"/><g id="hair_highlights"><path class="cls-13" d="M279.59,33.28c-2.58,11.28-10,17.23-18.21,20.27l-.73.25c-12.95,4.48-27.67,2-29,1.72,11.72,1.52,20.8-.08,27.75-3l.61-.26A38.13,38.13,0,0,0,279.59,33.28Z"/><path class="cls-13" d="M242.26,28.89a23.22,23.22,0,0,1-4.34,10.24,21.22,21.22,0,0,1-1.42,1.63c-5.1,5.19-14.59,8.5-32.09.47,1.3.4,16.43,5.32,28.16-1.54A22,22,0,0,0,235,38.05,25,25,0,0,0,242.26,28.89Z"/><path class="cls-13" d="M159.44,31.07c4.45-13.74-.3-23.66-.93-24.89.16.24.3.47.44.71C167.27,21.14,159.44,31.07,159.44,31.07Z"/><path class="cls-13" d="M185.26,29.29s-2,.67-4.83,2a60.62,60.62,0,0,0-10,5.68A30.53,30.53,0,0,0,162,45.57c-.28.46,1.38-3.77,5.89-8.2h0a29,29,0,0,1,8.92-5.92h0A30.09,30.09,0,0,1,185.26,29.29Z"/><path class="cls-13" d="M121.9,88.67C109.58,84.3,113.36,67,113.36,67,112.11,82.53,121.9,88.67,121.9,88.67Z"/><path class="cls-13" d="M118.66,129.75S110,129,105.48,119.4h0c-2.63-5.65-3.81-14.36-.92-27.78,0-.22-1.8,19.13,6.2,31.06A20.09,20.09,0,0,0,118.66,129.75Z"/><path class="cls-13" d="M127.31,44.82a53.84,53.84,0,0,1-3.45,10.89,40.13,40.13,0,0,1-2.12,4.21c.44-1.1.86-2.28,1.23-3.51A76.1,76.1,0,0,0,125.27,46,161.5,161.5,0,0,0,127,25.33,44.23,44.23,0,0,1,127.31,44.82Z"/><path class="cls-13" d="M101.81,69.6a0,0,0,0,1,0,0,17,17,0,0,1-1.53,3.93c.11-.59.22-1.18.31-1.77v0c3-17.83-1.26-31.26-1.46-31.88C106.29,50.15,103.82,63.16,101.81,69.6Z"/><path class="cls-13" d="M185.39,65C170.88,61.77,173,50.94,173,50.94,175,60.77,184.78,64.77,185.39,65Z"/><path class="cls-13" d="M247.49,71.48c-32.3-.46-35.85-17.81-35.07-16.85C224.19,69.17,247.49,71.48,247.49,71.48Z"/><path class="cls-13" d="M236.05,219.85l0,.31s0,.07,0,.1,0,.33,0,.5c0,.36-.08.76-.14,1.18-.09.61-.19,1.27-.33,2-.06.29-.12.58-.19.88l-.06.26c-.05.22-.1.43-.16.65s-.16.62-.26.93-.21.69-.33,1c0,.13-.08.25-.13.38-.14.39-.29.79-.46,1.18s-.34.79-.53,1.18-.31.61-.48.92-.34.6-.53.9-.38.59-.59.87-.21.29-.32.43-.39.49-.59.72a12.76,12.76,0,0,1-1.53,1.5l-.53.42c-.22.17-.45.34-.69.49l-.69.43-.4.21c-.12.07-.25.13-.38.19s0,0,0,0c-.21.11-.44.2-.66.29l-.09,0-.43.16a13.56,13.56,0,0,1-2.53.66l-.79.11c-.33,0-.67.07-1,.08s-.63,0-.95,0a14.51,14.51,0,0,0,3.44-1.11l.52-.24a19.19,19.19,0,0,0,5.25-3.71c.21-.2.41-.41.61-.63a0,0,0,0,0,0,0c.21-.22.42-.45.61-.69s.5-.61.75-.94.29-.39.43-.6a20.73,20.73,0,0,0,1.12-1.81c.15-.27.3-.55.44-.83a24.34,24.34,0,0,0,1.21-2.86c.12-.33.24-.68.34-1,.25-.78.46-1.6.65-2.47s.38-2,.51-3.06c.05-.36.09-.73.12-1.1C236.13,217.76,236.14,218.56,236.05,219.85Z"/><path class="cls-13" d="M209.74,254.37A61.46,61.46,0,0,1,208,264.81l-.15.59c0,.13-.07.26-.1.39-.13.48-.27,1-.41,1.44s-.3,1-.47,1.45c-.08.24-.16.48-.25.72s-.25.67-.38,1-.2.52-.31.78-.19.46-.29.69c-.35.79-.72,1.55-1.12,2.29-.21.39-.43.78-.66,1.15s-.36.58-.55.85-.25.37-.38.55-.13.17-.19.25-.27.35-.41.52a8.14,8.14,0,0,1-.54.63q-.24.27-.48.51c-.2.21-.4.4-.6.58l-.51.43-.45.35a8.73,8.73,0,0,1-.74.5,2.58,2.58,0,0,1-.32.18,1.35,1.35,0,0,1-.26.15h0a9.23,9.23,0,0,1-1.15.53l-.52.18-.55.16h0a9,9,0,0,1-1.58.28l-.39,0h-.07a13.46,13.46,0,0,1-5.59-1c-.42-.17-.86-.35-1.3-.57a9,9,0,0,0,1.32.33,10.65,10.65,0,0,0,2.33.15l.73,0a12.33,12.33,0,0,0,1.76-.31l.38-.1.51-.16a3.66,3.66,0,0,0,.43-.15,10.16,10.16,0,0,0,1.15-.49,6,6,0,0,0,.56-.29c.24-.12.49-.27.74-.42s.75-.49,1.13-.78l.53-.42c.19-.15.37-.31.55-.47l.55-.52c.37-.36.74-.74,1.1-1.16.19-.21.37-.43.55-.65l.54-.7c.16-.21.32-.43.47-.65s.31-.45.46-.69.27-.41.4-.63l0-.06c.14-.22.27-.44.39-.67.42-.71.83-1.47,1.22-2.3.16-.32.32-.66.48-1s.23-.52.34-.79c.27-.63.53-1.28.79-2l.33-.93.09-.27A71.19,71.19,0,0,0,209.74,254.37Z"/><path class="cls-13" d="M195,232.4c0,.11,0,.22-.08.34s-.11.43-.17.66-.12.46-.2.69-.16.48-.25.72c-.15.42-.32.85-.52,1.28-.1.22-.21.43-.33.65s-.25.47-.39.7-.28.46-.44.69-.44.63-.69.94q-.18.23-.39.45l-.41.45-.44.42-.5.44c-.17.15-.35.29-.53.42a11.89,11.89,0,0,1-1.17.78l-.6.34c-.26.13-.53.26-.81.38a4.87,4.87,0,0,1-.57.24c-.27.11-.54.21-.83.3a15.84,15.84,0,0,1-2.77.65.17.17,0,0,1-.1,0,0,0,0,0,1,0,0l0,0a19.26,19.26,0,0,0,2.18-1.07,22.06,22.06,0,0,0,2.25-1.46,6,6,0,0,0,.5-.38c.24-.18.48-.37.72-.58s.57-.48.86-.76.47-.44.7-.68.36-.36.52-.55.32-.35.48-.54l.09-.1c.15-.18.3-.36.44-.55s.26-.33.38-.5a18.85,18.85,0,0,0,1.72-2.8,5.6,5.6,0,0,0,.27-.55c.12-.24.22-.49.33-.74h0l.15-.36a20.62,20.62,0,0,0,.89-2.91A14.26,14.26,0,0,1,195,232.4Z"/><path class="cls-13" d="M213.42,192.64a19.51,19.51,0,0,1-7.14,5.57,17.76,17.76,0,0,1-1.65.69c-4.24,1.57-10,2.09-17.23-.82,0,0,8.74,2.56,16.9.29.52-.14,1-.3,1.56-.49A17.09,17.09,0,0,0,213.42,192.64Z"/><path class="cls-13" d="M238.06,207.4s-3-9-8.27-13.55A17.64,17.64,0,0,1,238.06,207.4Z"/></g></g></svg>