<svg id="Layer_1" data-name="Layer 1" xmlns="http://www.w3.org/2000/svg" viewBox="0 0 310.96 365.02"><defs><style>.cls-1{fill:none;}.cls-2{fill:#c79763;}.cls-3{fill:#b17c58;}.cls-4{fill:#fff;}.cls-5{fill:#cfcfce;}.cls-6{fill:#aa4b3d;}.cls-7{fill:#9b2723;}.cls-8{fill:#503e3c;}.cls-9{fill:#4b322f;}.cls-10{fill:#dfc0be;}.cls-11{fill:#231f20;}.cls-12{fill:#010101;}.cls-13{fill:#6f3c18;}.cls-14{fill:#8a5335;}</style></defs><rect class="cls-1" y="0.17" width="310.96" height="364.63"/><g id="skin"><path class="cls-2" d="M239.17,204s-5.65,6.56-11.51,6.33c0,0-7.6.92-4.26-8.17l-5-.69s-3.57,7.71-12.32,6.56c0,0-13-.81-10.82-10.89a26.35,26.35,0,0,0,17.21.12,25.18,25.18,0,0,0,3.24-1.3,30.92,30.92,0,0,0,7.29-5,32.4,32.4,0,0,0,3.5,5.32,28.4,28.4,0,0,0,2.31,2.56C231.52,201.52,235,203.83,239.17,204Z"/><path class="cls-2" d="M247.77,110.46c1-.32.43,1.92,1.54,1.52.9-.31,4.7-2.54,5.68-2.88,1.17-.41.61,1.63,1.85,1.19s4.56-2.31,5.75-2.73,1.72,2,2.8,1.64a20.59,20.59,0,0,1,3.15-.67c.28-15.86-1.63-31.24-10.07-31.7-3.12-.17-15.77,1-31.76-6-19.26-8.42-14.82-10.28-30.81-20-14.68-8.9,2.56,14.56,4.57,14.44,1.36-.08,1.26.31,0,.7l1,.43a35.49,35.49,0,0,1-6.15.32h-.06c-6.45.26-17.24-1.28-28.77-9.63a11.26,11.26,0,0,0-1-.66,4.24,4.24,0,0,0-2.63.75c-1.5,2.3-3.69,7.75-14.9,12.9-3,1.37-7.92,0-12.73-1.7h0c-2.94-.61-6.61-1.34-6.61-1.34s-.57,8.85,3.8,15.95c8.55,7.09,18.08,7,18.42,6.86a24.48,24.48,0,0,1-1.66,1.86h.34a9.68,9.68,0,0,1-3.91,2.59,0,0,0,0,1,0,0,11,11,0,0,1-8.88.36s0,0,0,0c-3.68-.85-8.19-2.92-13.61-7.09-2.32,6.88-2.74,26.73,10.38,36.92h0l.52.11s-7.44,14-10.8,15.67a1.29,1.29,0,0,1-.45.16s-7.13-6.38-13.17-6.83c-2.87-.22-5.5.89-7,4.63h0c-.85,4.29-.38,12.08,8.83,22a25.17,25.17,0,0,0,5.28,6.09,4.58,4.58,0,0,1,.86-1.64,2.84,2.84,0,0,1,3.65-.87,1,1,0,0,1,.37,1.34,1,1,0,0,1-1.32.38c-.4-.22-.8-.09-1.19.39a3.13,3.13,0,0,0-.63,1.51c2.29,1.12,4.81,1.07,7-2a169.73,169.73,0,0,0,23.19,30.78h0c2.19,6.79.52,16.79-2.59,25.34h0a25.19,25.19,0,0,1-3.27,7.76h0c-.68,4.8-2.37,32.51,34.64,93.12,0,0,0,.55-.06,1.27,11.54-16,15.7-33,17.15-46.28-.31-.18-.67-.4-1.05-.66l-.76-.54a14.83,14.83,0,0,1-1.22-1.07l-.22-.21c-.21-.23-.42-.46-.62-.72s-.23-.29-.34-.45l-.18-.27c-.12-.18-.23-.37-.34-.56l-.14-.29a2.88,2.88,0,0,1-.13-.31,4,4,0,0,1-.22-.61,4.74,4.74,0,0,1-.16-.65c0-.12,0-.25-.05-.37l0-.31a3.47,3.47,0,0,1,0-.56c0-.1,0-.2,0-.3v0c0-.14,0-.3.07-.46a5.41,5.41,0,0,1,.12-.55,5,5,0,0,1,.16-.55s2.84,3.17,5.21.48a6,6,0,0,0,.7-2.5v0a9.4,9.4,0,0,0,0-1.31v0c-.13-2.1-1-5-3.61-8.68,0,0-18.1-11.32-14.22-28.78a26.36,26.36,0,0,1-3.52-10,119.74,119.74,0,0,1-14.28-10.69l-.14-.11c-3.34-2.89-6.78-6.09-10.29-9.66a125.28,125.28,0,0,0,24.46,18,25.86,25.86,0,0,1,.1-3.91,27.29,27.29,0,0,1,3.67-11.14,65.59,65.59,0,0,1,9.53-9.57,58,58,0,0,1,12.36-7.92c7.29-3.39,16-5.18,25.31-2.56a28.41,28.41,0,0,1,5.88,2.56,36.47,36.47,0,0,1,14,14.07,35,35,0,0,1,1.62,3.24c6.78-10.86,12.69-25.9,17.16-46.3-3.09-.12-23.47-1.69-26.26-20.07v0l-.09-.67a6.52,6.52,0,0,1,1.53-5.09,6.89,6.89,0,0,1,1.91-1.54c.13-.08.27-.15.41-.22l.53-.22a3.52,3.52,0,0,1,.43-.13,6,6,0,0,1,.76-.19c.22,0,.47-.07.71-.09h.15l24.24-1c.21-2.44.41-5,.55-7.6a74.1,74.1,0,0,0-23.65,4c-.45.17-1.75-1-2.47-6.77a.26.26,0,0,1,.08-.25C242.57,113,244.11,111.66,247.77,110.46ZM121,158.31a8,8,0,0,1-5.66-.51c-4.58-2.59-2.86-6.79-2.86-6.79a6.54,6.54,0,0,1,3-3.33,4.12,4.12,0,0,1,1.7-.49,9.14,9.14,0,0,0-4.45-5.59,13.7,13.7,0,0,0-6.83-1.57,10.39,10.39,0,0,1,6-.54c2.74.58,5.84,2.53,7.94,7.74a7.65,7.65,0,0,0-2.91,3.34,3.62,3.62,0,0,0,.87,3.78,4.62,4.62,0,0,0,1.5.76,4.06,4.06,0,0,0,4.11-1l.79.79A5.39,5.39,0,0,1,121,158.31Zm43.17-49.19s4.68-2.72,12.84-.6c3.07.79,3-2,4.07-2.12,2.26-.18,6.88,2.64,8.91,2.57,3-.11.14-2.74,1.52-2.42,2.39.57,5.86,1.39,8.75,2.12,2.72.68-2.59-2.44.3-1.67,3.48.94,5.62,3.39,8.91,4.39,2.4.72-1.5-2.18.59-1.45,2.59.91,4.86,1.8,6.66,2.65.51.25,0,7.9-.76,7.65a240.36,240.36,0,0,0-25.67-5.84c-14.2-2.28-30-.3-30-.3ZM190,154.39c-1,0-2,0-3-.08-.24,0-26.76-.7-29.34-24.8,0-.22,0-.42,0-.63l-.2,0a10.1,10.1,0,0,1,.41-2.19,8.61,8.61,0,0,1,2.2-4l.19-.18.12-.12.44-.39a7.69,7.69,0,0,1,3.09-1.59l.57-.13a9,9,0,0,1,.93-.14h.17a7.69,7.69,0,0,1,1.27,0l45.82,3.68a7.85,7.85,0,0,1,7,6.06l0,.06h0a7.59,7.59,0,0,1,.07,3.15C218.26,141.18,212.45,154.39,190,154.39ZM218.78,176s-.69-3.82,4.59-1.14Zm12.38,3.18c5.66-7,.22-12.26.22-12.26-6.71-5.77-14.86,1.25-15.22,1.58,8.57-10,15.76-4.84,15.76-4.84C240.78,170.62,231.56,178.84,231.16,179.19Z"/></g><g id="skin_shading"><path class="cls-3" d="M177.44,322.57s0,.55-.06,1.27a1.1,1.1,0,0,0-.09.14c-.28.38-.55.76-.84,1.14a11,11,0,0,1-1.17-1.26,2,2,0,0,1-.19-.22l-.37-.5c-.11-.15-.22-.29-.32-.45-.37-.51-.77-1.08-1.18-1.7l-.2-.31c-.47-.71-1-1.5-1.5-2.33l0-.06q-.15-.23-.3-.48l-.18-.28-.4-.65-.4-.65-.09-.14q-.19-.34-.42-.69l-.42-.71-.57-.94-.73-1.24a2.75,2.75,0,0,0-.17-.29c-.18-.29-.34-.57-.51-.87l-.09-.13c-.13-.25-.28-.5-.43-.75s-.35-.59-.53-.9l-.54-.93-.07-.13c-.34-.57-.67-1.16-1-1.76a0,0,0,0,1,0,0c-.19-.31-.36-.62-.55-.94s-.37-.65-.57-1l0-.05c-.18-.34-.38-.67-.57-1l-.55-.95a.47.47,0,0,0-.05-.1s0,0,0,0l-.17-.28-.16-.29-.33-.56q-.24-.46-.54-.93c-.75-1.35-1.53-2.73-2.34-4.12a.37.37,0,0,0-.07-.12c-.79-1.39-1.59-2.81-2.41-4.24l-.08-.13c-1.31-2.32-2.65-4.67-4-7l-.19-.32c-.71-1.24-1.43-2.5-2.15-3.74-.17-.28-.34-.56-.5-.84h0v0l-.83-1.41-.92-1.6c-.12-.2-.24-.4-.37-.6s-.38-.67-.57-1l-.71-1.19-.88-1.49-.39-.66-1.19-2a0,0,0,0,1,0,0,1.08,1.08,0,0,1-.08-.19,86.45,86.45,0,0,1-6.11-20.81,29.73,29.73,0,0,1,.64-12.85h0a15.41,15.41,0,0,1,5-7.54l-.06.29h0c0,.12,0,.27-.07.46h0C142.12,234.25,140.43,262,177.44,322.57Z"/><path class="cls-3" d="M174,217.25a119.74,119.74,0,0,1-14.28-10.69l-.14-.11c-3.34-2.89-6.78-6.09-10.29-9.66a125.28,125.28,0,0,0,24.46,18c0,.6.09,1.19.16,1.76Z"/><path class="cls-3" d="M273.07,152.29A220.86,220.86,0,0,1,263,178.6s-1,2.33-2.85,6a1.14,1.14,0,0,1-.1.19,108.31,108.31,0,0,1-11.95,20l-.29.37.29-.39a42.19,42.19,0,0,0-1.88-5.17c6.78-10.86,12.69-25.9,17.16-46.3l.39,0a45.83,45.83,0,0,0,9-.93Z"/><path class="cls-3" d="M133.48,124.49C117,120.7,121.15,86,121.15,86c.66.55,1.32,1.08,1.95,1.56C120.78,94.45,120.36,114.3,133.48,124.49Z"/><path class="cls-3" d="M150.87,89.85a24.48,24.48,0,0,1-1.66,1.86c-8.81-.1-13.87-4-16.76-8.72C141,90.08,150.53,90,150.87,89.85Z"/><path class="cls-3" d="M162.91,57.19c-1.5,2.3-3.69,7.75-14.9,12.9-3,1.37-7.92,0-12.73-1.7l2.48.55c14.15,3.34,24.12-10.76,24.12-10.76A3.84,3.84,0,0,1,162.91,57.19Z"/><path class="cls-3" d="M195.31,66.73c-6.45.26-17.24-1.28-28.77-9.63a11.26,11.26,0,0,0-1-.66c3.75.06,8.12,3.64,8.12,3.64A40,40,0,0,0,195.31,66.73Z"/><path class="cls-3" d="M280.47,113.42a7.63,7.63,0,0,0-.47-1,5,5,0,0,0-.75-1c-1.15-.44-2.07-1.36-4.92-.93,0,0-3.89,1.1-.83-1.8.88-.83-2.24-.65-5-.23.28-15.86-1.63-31.24-10.07-31.7-3.12-.17-15.77,1-31.76-6-19.26-8.42-14.82-10.28-30.81-20-14.68-8.9,2.56,14.56,4.57,14.44,1.36-.08,1.26.31,0,.7-9.78-4.58-13.46-17.91-13.46-17.91,12.33-.63,26.8,14.55,26.8,14.55,16.61,13.91,47.07,13.48,47.07,13.48a108,108,0,0,0,15.57-.72l.64-.07A117.86,117.86,0,0,1,280.47,113.42Z"/><path class="cls-3" d="M280.2,116.94c-.17,2.11-.42,4.28-.71,6.52l-.45,0-11.36.49c.21-2.44.41-5,.55-7.6a85.48,85.48,0,0,1,11.49.51Z"/><path class="cls-3" d="M124.16,154.93a5.39,5.39,0,0,1-3.13,3.38,8,8,0,0,1-5.66-.51c-4.58-2.59-2.86-6.79-2.86-6.79a6.54,6.54,0,0,1,3-3.33,4.12,4.12,0,0,1,1.7-.49,9.14,9.14,0,0,0-4.45-5.59,13.7,13.7,0,0,0-6.83-1.57,10.39,10.39,0,0,1,6-.54c2.74.58,5.84,2.53,7.94,7.74a7.65,7.65,0,0,0-2.91,3.34,3.62,3.62,0,0,0,.87,3.78,4.62,4.62,0,0,0,1.5.76,4.06,4.06,0,0,0,4.11-1Z"/></g><g id="tshirt"><path id="tshirt-2" data-name="tshirt" class="cls-4" d="M282.16,364.73h-.1s.23-2.92.41-7.76.26-11.58,0-19.21h0s0,0,0,0,0,0,0,0,0,0,0,0h0A215.54,215.54,0,0,0,280.2,312H261.59l.42,23.74c.09,1.46.18,3.11.28,4.86l0,.14c.2,3.48.44,7.36.64,11,.1,1.83.2,3.59.3,5.19,0,.13,0,.25,0,.36.24,4.23.43,7.31.44,7.63l20.41,0h5.7a.28.28,0,0,1,0-.06ZM205.11,312c0-.17,0-.34,0-.51s0-.34,0-.51,0-.28,0-.43a.41.41,0,0,0,0-.11c-.05-1.06-.11-2.13-.18-3.19-.1-1.58-.21-3.15-.32-4.72h0c-.09-1.08-.17-2.16-.27-3.23-.2-2.29-.43-13.27-1.51-21.06l-.42.12-.42.1-.08,0-.57.11a.3.3,0,0,1-.13,0,.82.82,0,0,1-.21,0,11.84,11.84,0,0,1-5.16-.42s-.45-.2-1.13-.58l-.1-.06c-1.45,13.32-5.61,30.27-17.15,46.28a1.1,1.1,0,0,0-.09.14c-.28.38-.55.76-.84,1.14a11,11,0,0,1-1.17-1.26,2,2,0,0,1-.19-.22l-.37-.5c-.11-.15-.22-.29-.32-.45-.37-.51-.77-1.08-1.18-1.7l-.2-.31c-.47-.71-1-1.5-1.5-2.33l-.09-.13-.24-.41-.18-.28-.4-.65-.4-.65-.09-.14c-.14-.23-.27-.46-.42-.69l-.42-.71-.57-.94-.73-1.24c-.09-.14-.17-.29-.26-.42l-.51-.87c-.13-.25-.28-.5-.43-.75s-.35-.59-.53-.9l-.54-.93-.07-.13c-.34-.57-.67-1.16-1-1.76l-.08-.12c-.16-.28-.31-.56-.48-.85s-.37-.65-.57-1l0-.05-.05-.07c-.17-.32-.35-.62-.52-.93l-.55-.95-.08-.13-.15-.27-.16-.29-.33-.56q-.24-.46-.54-.93c-.75-1.35-1.53-2.73-2.34-4.12a.37.37,0,0,0-.07-.12c-.8-1.4-1.61-2.81-2.41-4.24l-.08-.13c-1.31-2.32-2.65-4.67-4-7l-.19-.32-2.65-4.58a16.52,16.52,0,0,1,.9,2.85,12.1,12.1,0,0,0-1-2.91v0h0a20.75,20.75,0,0,1,1.3,4.2.13.13,0,0,1,0,.06c.09.39.18.81.28,1.26h0s0,0,0,.06c.15.76.32,1.61.49,2.57,0,.32.1.64.16,1,.12.69.23,1.42.34,2.21.08.59.17,1.2.26,1.83,0,0,0,0,0,0,1.27,9.68,2.52,26.09,2.76,53.59q0,3.79,0,7.87v10h.09l50,0,18.29,0V312ZM74,356.62a.57.57,0,0,0,0-.13h-.07c0,1.05.09,2.06.13,3,.14,2.71.23,4.51.23,4.6h0c-.54.09-2.91,0-3.15,0,0,.28,0,.51,0,.64h3.24C74.3,364,74.15,360.52,74,356.62Z"/><path id="shade" class="cls-5" d="M154.94,354.87v10h-5s0-.22,0-.62a1.55,1.55,0,0,1,0-.21v-.37c0-.18,0-.38,0-.6s0-.38,0-.59c0-.37,0-.78.05-1.22,0-.25,0-.5,0-.77,0-.53,0-1.08.06-1.68l0-.92c0-.93.07-1.93.1-3,0-.5,0-1,.05-1.55h0c.37-10.62.8-27.28.68-44.17v-.19h-.24c0-1.58,0-3.15-.08-4.7H151c-.09-6.67-.26-13.29-.58-19.5a6,6,0,0,0,.3.56h0a1.62,1.62,0,0,0,.1.18h0l.09.19c.16.76.33,1.61.49,2.57.05.31.11.65.17,1,.12.68.23,1.42.34,2.21.08.59.17,1.2.26,1.83,0,0,0,0,0,0,1.27,9.68,2.52,26.09,2.76,53.58C154.93,349.53,154.94,352.14,154.94,354.87Z"/></g><g id="shirt"><g id="light_red_stripes"><path class="cls-6" d="M293.12,356.82q0,3.94-.09,8.2l-30.5,0v-.05h.3c.4,0,.72,0,.88-.05v0c0-.32-.2-3.4-.44-7.63l19.2-.27h.08c-.14,4.31-.34,7.14-.39,7.76l7.67.1a.28.28,0,0,0,0,.06h-5.34l5.44.07,3.08,0-.19-8.18Z"/><path class="cls-6" d="M223.2,357.8V365H204.9a1.09,1.09,0,0,1,0-.12c0-.55.15-3,.28-6.76Z"/><path class="cls-6" d="M150.3,353.41c0,.53,0,1-.05,1.55,0,1-.07,2-.1,3l0,.92c0,.6,0,1.15-.06,1.68,0,.27,0,.52,0,.77,0,.44,0,.85-.05,1.22,0,.21,0,.4,0,.59s0,.42,0,.6v.37a1.55,1.55,0,0,0,0,.21c0,.4,0,.62,0,.62H30l21.72-.21H52l19,0h.08a.45.45,0,0,0,0,.13,31.39,31.39,0,0,0,3.24,0,.93.93,0,0,0,0-.13c0-.71-.17-4.2-.36-8.1a.57.57,0,0,0,0-.13c0-.65,0-1.32-.08-2l22.86-.32v10.49l39.33-.42-.14-9.07,0-1.55Z"/><path class="cls-6" d="M71.31,356.68c-.15,3.12-.25,6-.25,7.4,0,.28,0,.51,0,.64H71l-19,0,5.27-.05-.14-7.8,0-2.14,14.37-.21C71.38,355.26,71.34,356,71.31,356.68Z"/><path class="cls-6" d="M17.9,355.26v9.65H10.3c.14-3.31.31-6.5.49-9.56l4.09-.05Z"/></g><g id="red_stripes"><path class="cls-7" d="M55.48,271.1l-14.94.21-1,0a88.24,88.24,0,0,1,15.85-7.76l0,1.2Z"/><path class="cls-7" d="M262,335.73c-.14-2.32-.25-4.18-.32-5.24,0,.39-.05.78-.08,1.17-.68,9.17-1.17,15.64-1.51,20.23-.15,2-.27,3.66-.35,5-.41,5.9-.36,6.64-.08,7.95l-36.47,0V312h38.39Z"/><path class="cls-7" d="M260.91,273.78l-5,.07-32.72.46V258.54a24.68,24.68,0,0,0,7-4.06L259.49,270s.5.2,1.36.63v.56c-.79-.25-1.18-.32-1.06-.25.37.18.72.38,1.07.58Z"/><polygon class="cls-7" points="57.23 364.65 51.95 364.7 51.68 364.7 17.9 364.67 17.9 309.05 56.19 309.05 57.04 354.71 57.08 356.85 57.23 364.65"/><path class="cls-7" d="M105,270.41h-.09l-8.16.11V251.43c.69-.25.79-.33.79-.35s0,0,0,0q3.3-.75,6.15-1.45c-.05.66-.1,1.36-.14,2.08,0,.49-.06,1-.08,1.52s0,.85-.05,1.28,0,1,0,1.49c0,1.84,0,3.9.19,6.11,0,.21,0,.42,0,.63s0,.48.07.72.09.76.14,1.14.08.62.13.93A33.85,33.85,0,0,0,105,270.41Z"/><path class="cls-7" d="M150.7,285.4a6,6,0,0,1-.3-.56c0-.31,0-.62,0-.92a4.87,4.87,0,0,0-.87-1.46.42.42,0,0,0-.08-.12h0c-.28-.4-.62-.86-1-1.38v0c0-.26-.64-.84-.78-1l-.94-1.22c-.17-.22-.34-.43-.49-.65q-.47-.57-.93-1.2l-.68-.88c-.79-1-1.59-2.06-2.37-3.1l-1.28-1.71-.16-.22c-.78-1.12-4.08-5.87-4.43-6-.08,0-1.35-.39-1.44-.39-.41,0-.31,5.44-.31,5.44l-2.23,0-14.16.2A15.33,15.33,0,0,1,121,267l.28-.24V249.08h7.58c-.38,4.07-.41,7-.41,7,.16-2.53.4-4.85.7-7h8.07a86.45,86.45,0,0,0,6.11,20.81,1.08,1.08,0,0,0,.08.19,0,0,0,0,0,0,0l1.19,2,.39.66.88,1.49c.42.73.85,1.45,1.28,2.19l1.29,2.2.83,1.41v0h0a16.52,16.52,0,0,1,.9,2.85,12.1,12.1,0,0,0-1-2.91v0h0a20.75,20.75,0,0,1,1.3,4.2.13.13,0,0,1,0,.06C150.59,284.68,150.65,285,150.7,285.4Z"/><polygon class="cls-7" points="136.06 364.22 96.73 364.64 96.73 309.05 135.19 309.05 135.9 353.6 135.92 355.15 136.06 364.22"/><path class="cls-7" d="M204.53,302.51h0l0,0s0-.05-.05-.14a203.17,203.17,0,0,0-3.53-23.78.82.82,0,0,0,.21,0,.3.3,0,0,0,.13,0l.57-.11.08,0,.42-.1.42-.12c1.08,7.79,1.31,18.77,1.51,21.06C204.36,300.35,204.44,301.43,204.53,302.51Z"/></g><g id="brown_stripes"><path class="cls-8" d="M280.26,312H261.59L261,277.05l-.06-3.27,3.09,0c6.43,5.4,10.7,14.56,13.51,25A122.54,122.54,0,0,1,280.26,312Z"/><polygon class="cls-8" points="96.73 270.52 96.73 309.05 56.19 309.05 55.81 288.83 55.48 271.1 63.32 270.99 96.73 270.52"/><path class="cls-8" d="M150.71,304.35c0,1.55.06,3.12.08,4.7h-15.6l-.57-36.86,0-2.19s-.1-5.43.31-5.44c.09,0,1.36.37,1.44.39.35.1,3.65,4.85,4.43,6l.16.22,1.28,1.71c.78,1,1.58,2.07,2.37,3.1l.68.88q.47.63.93,1.2c.15.22.32.43.49.65l.94,1.22c.28.36.53.71.78,1v0c.39.52.73,1,1,1.38h0a.42.42,0,0,1,.08.12,4.87,4.87,0,0,1,.87,1.46c0,.3,0,.61,0,.92.32,6.21.49,12.83.58,19.5Z"/><path class="cls-8" d="M223.2,274.31V312H205.11c0-.17,0-.34,0-.51s0-.34,0-.51,0-.28,0-.43a.41.41,0,0,0,0-.11c-.05-1.06-.11-2.13-.18-3.19-.09-1.58-.21-3.15-.32-4.72h0c-.09-1.08-.17-2.16-.27-3.23-.2-2.29-.43-13.27-1.51-21.06a3.28,3.28,0,0,0,.5-.17h0l.33-.12h0l.34-.13.33-.15a1.84,1.84,0,0,0,.4-.19,9.84,9.84,0,0,0,1.35-.73l.33-.2a.09.09,0,0,0,.07,0,3.82,3.82,0,0,0,.44-.3c.23-.15.45-.31.67-.48l.06-.05c.25-.17.48-.37.72-.57s.44-.37.65-.57l10-.14L214.78,269l-.58-.73v0a.36.36,0,0,0,.07-.1l.06-.11.7-1.14.13-.2.12-.19.12-.21.18-.3,0-.1,0-.05c.08-.15.16-.3.24-.43s0,0,0-.05c.5-.93,1.26-2.46,1.58-3.1a1.23,1.23,0,0,0,.12-.26s2.49,6.64,3.58,9.64l.06.16a1.59,1.59,0,0,1,.07.2l.28.79a1.27,1.27,0,0,1,.06.18l0,.09a4.29,4.29,0,0,1,.12,1.3Z"/><path class="cls-8" d="M121.32,232v17.08H103.7c.34-4,.82-6.66.82-6.66Z"/></g><g id="dk_brown_stripes"><polygon class="cls-9" points="261.59 311.99 223.2 311.99 223.2 274.31 255.92 273.85 260.91 273.78 260.97 277.05 261.59 311.99"/><path class="cls-9" d="M56.19,309.05H16.24c.57-2.82,1.12-5.31,1.66-7.49,2.41-9.75,4.41-13.41,4.41-13.41C26.46,281,33,275.43,39.5,271.33h1l14.94-.21.34,17.73Z"/><path class="cls-9" d="M135.19,309.05H96.73V270.52l8.16-.11a37.32,37.32,0,0,0,1.62,4.89c.16.37,5.12,17.24,9.64-.37a15.47,15.47,0,0,1,2-4.7l14.16-.2,2.23,0,0,2.19Z"/><path class="cls-9" d="M146.25,220.29a9.29,9.29,0,0,1-.17,1.38h0a25.19,25.19,0,0,1-3.27,7.76c0-.19.05-.34.07-.46h0l.06-.29a15.41,15.41,0,0,0-5,7.54h0a29.73,29.73,0,0,0-.64,12.85h-8.07a65.43,65.43,0,0,1,1.38-7.19c4.57-17.8,14.22-17.27,14.22-17.27-11.51-4.84-14.9,13.8-15.89,24.46h-7.58V232l13.34-8.29A21.06,21.06,0,0,1,146,220.28Z"/></g><g id="beige_stripes"><path class="cls-10" d="M219,274.37l-10,.14a8.94,8.94,0,0,0,.71-.67c.22-.2.44-.43.64-.65s.33-.35.48-.52.32-.35.47-.54c.3-.33.58-.68.85-1l.05-.07c.25-.3.48-.61.71-.93s.46-.61.66-.93.43-.63.65-.95l.58.73Z"/><path class="cls-10" d="M223.2,258.54v15.77l-1.36,0a4.29,4.29,0,0,0-.12-1.3l0-.09a1.27,1.27,0,0,0-.06-.18,5.86,5.86,0,0,0-.28-.79,1.59,1.59,0,0,0-.07-.2l-.06-.16c-1.09-3-3.58-9.64-3.58-9.64.09-.17.16-.33.23-.48a.36.36,0,0,0,0-.09c.18-.38.32-.7.42-.95s.22-.56.22-.56A28,28,0,0,0,223.2,258.54Z"/><path class="cls-10" d="M56.19,309.05,57,354.71l14.37-.21,2.46,0,22.86-.32v-45.1Zm93.75,54.66v.12a.86.86,0,0,1,0-.16A.08.08,0,0,1,149.94,363.71Zm.41-10.3q0,.94-.06,1.83c0-.3,0-.6,0-.9l0-.93Z"/><path class="cls-10" d="M150.35,353.41h0l-14.4.19-.71-44.55H151v.19C151.15,326.13,150.72,342.79,150.35,353.41Z"/><path class="cls-10" d="M17.9,309.05v46.21l-3,0-4.09.05c1.26-20.89,3.37-35.86,5.45-46.3Z"/><path class="cls-10" d="M96.73,251.43v19.09L63.32,271l-7.84.11-.11-6.33,0-1.2c3.62-1.34,6.1-2,6.46-2.1,4.69-1.17,17.66-4.85,17.66-4.85C91.11,253.29,95.27,252,96.73,251.43Z"/><path class="cls-10" d="M121.32,249.08v17.67L121,267a15.19,15.19,0,0,0-4.89,7.94c-4.52,17.61-9.48.74-9.64.37a37.32,37.32,0,0,1-1.62-4.89H105a33.85,33.85,0,0,1-1.06-4.89c0-.31-.1-.62-.13-.93s-.1-.76-.14-1.14-.05-.48-.07-.72,0-.42,0-.63c-.18-2.21-.22-4.27-.19-6.11,0-.5,0-1,0-1.49s0-.86.05-1.28,0-1,.08-1.52c0-.72.09-1.42.14-2.08,0-.19,0-.37,0-.54Z"/><path class="cls-10" d="M197.38,232.77l-.08.1.09-.1ZM205.11,312c.88,18.25.44,36.48.08,46.07l18-.26V312Zm0-.51c0,.17,0,.34,0,.51h0C205.1,311.82,205.1,311.65,205.09,311.48ZM263,272.94l0,0a19.37,19.37,0,0,0-2.11-1.41l0,2.27,3.09,0C263.68,273.46,263.35,273.2,263,272.94Zm-2.16-2.32v.56a28.7,28.7,0,0,1,5.11,2.43A47.89,47.89,0,0,0,260.85,270.62Zm21.72,67.27h0v-.07h0A211.68,211.68,0,0,0,280.26,312H261.59l.42,23.74c.09,1.46.18,3.11.28,4.86l0,.14c.2,3.48.44,7.36.64,11,.1,1.83.2,3.59.3,5.19,0,.13,0,.25,0,.36l19.2-.27h.08C282.71,352.14,282.82,345.45,282.57,337.89Zm9.64-7c0,.17,0,.34,0,.51l.58,25.42h.31C293.13,346.67,292.76,338.09,292.21,330.89ZM223.2,365H204.9l57.63.05Z"/></g><g id="shirt_shading"><path class="cls-11" d="M144.79,224.62s-9.65-.53-14.22,17.27a65.43,65.43,0,0,0-1.38,7.19c-.3,2.13-.54,4.45-.7,7,0,0,0-2.91.41-7C129.89,238.42,133.28,219.78,144.79,224.62Z"/><path class="cls-11" d="M74.33,364.85a31.39,31.39,0,0,1-3.24,0,.45.45,0,0,1,0-.13c0-.13,0-.36,0-.64,0-1.38.1-4.28.25-7.4,0-.7.07-1.42.1-2.18.47-9.77,1.3-23.34,1.3-23.34s.67,13.56,1.16,23.31c0,.7,0,1.37.08,2a.57.57,0,0,1,0,.13c.19,3.9.34,7.39.36,8.1A.93.93,0,0,1,74.33,364.85Z"/><path class="cls-11" d="M263.71,364.87v0c-.16,0-.48,0-.88.05h-.3c-1.08,0-2.48-.05-2.86-.07-.28-1.31-.33-2.05.08-7.95.08-1.37.2-3,.35-5,.34-4.59.83-11.06,1.51-20.23,0-.39.05-.78.08-1.17.07,1.06.18,2.92.32,5.24.09,1.46.18,3.11.28,4.86l0,.14c.2,3.48.44,7.36.64,11,.1,1.83.2,3.59.3,5.19,0,.13,0,.25,0,.36C263.51,361.47,263.7,364.55,263.71,364.87Z"/><path class="cls-11" d="M293,365l-3.08,0-5.44-.07h5.34a.28.28,0,0,1,0-.06l-7.67-.1c0-.62.25-3.45.39-7.76.16-4.83.27-11.52,0-19.08h0v-.07h0A211.68,211.68,0,0,0,280.26,312a122.54,122.54,0,0,0-2.75-13.21c-2.81-10.48-7.08-19.64-13.51-25-.32-.28-.65-.54-1-.8l0,0a19.37,19.37,0,0,0-2.11-1.41c-.35-.2-.7-.4-1.07-.58-.12-.07.27,0,1.06.25a28.7,28.7,0,0,1,5.11,2.43s0,0,0,0a42.81,42.81,0,0,1,10.87,9.46c.08.1.17.2.25.31,4.72,5.74,9.3,14,12.17,25.68,0,0,0,0,0,0a107.82,107.82,0,0,1,2.88,21.67.28.28,0,0,1,0,.09c0,.17,0,.34,0,.51l.58,25.42Z"/></g></g><path class="cls-11" d="M228.86,198.91c-7.49,5.29-12.93,2.31-16.34-1.62a25.18,25.18,0,0,0,3.24-1.3,18.07,18.07,0,0,0,10.79.36A28.4,28.4,0,0,0,228.86,198.91Z"/><g id="nose"><path class="cls-11" d="M231.16,179.19c5.66-7,.22-12.26.22-12.26-6.71-5.77-14.86,1.25-15.22,1.58,8.57-10,15.76-4.84,15.76-4.84C240.78,170.62,231.56,178.84,231.16,179.19Z"/><path class="cls-11" d="M223.37,174.87,218.78,176S218.09,172.19,223.37,174.87Z"/></g><path class="cls-12" d="M123,173.1a3.49,3.49,0,0,1-1.47.33,5.06,5.06,0,0,1-3.83-2.14,5.14,5.14,0,0,1-1-4.91,4.58,4.58,0,0,1,.86-1.64,2.84,2.84,0,0,1,3.65-.87,1,1,0,0,1,.37,1.34,1,1,0,0,1-1.32.38c-.4-.22-.8-.09-1.19.39a3.13,3.13,0,0,0-.63,1.51,3.23,3.23,0,0,0,.74,2.53c1.06,1.25,2.12,1.73,3,1.32a1.46,1.46,0,0,0,.78-1.49,1,1,0,1,1,1.91-.42A3.37,3.37,0,0,1,123,173.1Z"/><g id="eyes"><path id="white" class="cls-4" d="M217.79,132.72c-1.71,9.57-8.46,20.76-30.75,19.63a36.7,36.7,0,0,1-12.93-3.08c-8.63-3.89-13.51-10.61-14.51-20a4.78,4.78,0,0,1,0-.66c1-1.19,5.45-2.15,12.63-2.46a6.68,6.68,0,0,0-1.42,4.06c0,4.67,5.2,8.47,11.61,8.47s11.6-3.8,11.6-8.47a6.68,6.68,0,0,0-1.13-3.65c16,.41,23,2.15,24.48,2.55A5.87,5.87,0,0,1,217.79,132.72Z"/><path id="left_eye" class="cls-12" d="M292.14,127.19s0,0,0,0a6.76,6.76,0,0,0-1.15-1.71,6.68,6.68,0,0,0-3.78-2,5.84,5.84,0,0,0-.73-.21l-.14,0-6.83.3-.45,0-11.36.49-24.24,1h-.15c-.24,0-.49,0-.71.09a6,6,0,0,0-.76.19,3.52,3.52,0,0,0-.43.13l-.53.22c-.14.07-.28.14-.41.22a6.89,6.89,0,0,0-1.91,1.54,6.52,6.52,0,0,0-1.53,5.09l.09.67v0c2.79,18.38,23.17,20,26.26,20.07l.39,0a45.83,45.83,0,0,0,9-.93l.34-.07c12.91-2.9,17.52-11.47,19.09-18.28.1-.46.2-.92.27-1.37l.28-1.83c0-.14,0-.28,0-.41h0A6.71,6.71,0,0,0,292.14,127.19ZM273.75,150l-.35.1a41.08,41.08,0,0,1-9.63,1.2h0a35.14,35.14,0,0,1-11.64-2.47c-7.75-3.18-12.18-8.77-13.15-16.61a6,6,0,0,1,0-1.2l.37-.41c.58-.67,3.59-1.2,8-1.59a4.92,4.92,0,0,0-1.21,3.38c.18,3.18,4,6.27,10.17,6.27l1.06,0a12.1,12.1,0,0,0,7.21-2.45,5.92,5.92,0,0,0,2.24-4.54c0-.12,0-.23,0-.33a5.17,5.17,0,0,0-1.2-3.06h1.66c3.1,0,6.26,0,9.37,0,.61,0,1.19-.05,1.73-.05h.78c8.61,0,11.07,2.08,11.58,2.65C289.18,142.89,281.42,148,273.75,150Z"/><path id="white-2" data-name="white" class="cls-4" d="M290.72,130.92c-1.54,12-9.3,17.07-17,19.12l-.35.1a41.08,41.08,0,0,1-9.63,1.2h0a35.14,35.14,0,0,1-11.64-2.47c-7.75-3.18-12.18-8.77-13.15-16.61a6,6,0,0,1,0-1.2l.37-.41c.58-.67,3.59-1.2,8-1.59a4.92,4.92,0,0,0-1.21,3.38c.18,3.18,4,6.27,10.17,6.27l1.06,0a12.1,12.1,0,0,0,7.21-2.45,5.92,5.92,0,0,0,2.24-4.54c0-.12,0-.23,0-.33a5.17,5.17,0,0,0-1.2-3.06h1.66c3.1,0,6.26,0,9.37,0,.61,0,1.19-.05,1.73-.05h.78C287.75,128.27,290.21,130.35,290.72,130.92Z"/><path id="rt_eye" class="cls-12" d="M219.65,129.92s0,0,0-.06a7.85,7.85,0,0,0-7-6.06l-45.82-3.68a7.69,7.69,0,0,0-1.27,0h-.17a9,9,0,0,0-.93.14l-.57.13a8.74,8.74,0,0,0-3.09,1.59l-.44.39-.12.12a10.12,10.12,0,0,0-2.39,4.18,8.59,8.59,0,0,0-.21,2.21c0,.21,0,.41,0,.63,2.58,24.1,29.1,24.8,29.34,24.8,1,.05,2.06.08,3,.08,22.42,0,28.23-13.21,29.69-21.32A7.59,7.59,0,0,0,219.65,129.92Zm-1.86,2.8c-1.71,9.57-8.46,20.76-30.75,19.63a36.7,36.7,0,0,1-12.93-3.08c-8.63-3.89-13.51-10.61-14.51-20a4.78,4.78,0,0,1,0-.66c1-1.19,5.45-2.15,12.63-2.46a6.68,6.68,0,0,0-1.42,4.06c0,4.67,5.2,8.47,11.61,8.47s11.6-3.8,11.6-8.47a6.68,6.68,0,0,0-1.13-3.65c16,.41,23,2.15,24.48,2.55A5.87,5.87,0,0,1,217.79,132.72Z"/></g><g id="eyebrows"><path class="cls-13" d="M216,120.24a240.36,240.36,0,0,0-25.67-5.84c-14.2-2.28-30-.3-30-.3l3.93-5s4.68-2.72,12.84-.6c3.07.79,3-2,4.07-2.12,2.26-.18,6.88,2.64,8.91,2.57,3-.11.14-2.74,1.52-2.42,2.39.57,5.86,1.39,8.75,2.12,2.72.68-2.59-2.44.3-1.67,3.48.94,5.62,3.39,8.91,4.39,2.4.72-1.5-2.18.59-1.45,2.59.91,4.86,1.8,6.66,2.65C217.26,112.84,216.75,120.49,216,120.24Z"/><path class="cls-13" d="M281.41,117.11l-1.21-.17-.48-.06a85.48,85.48,0,0,0-11.49-.51,74.1,74.1,0,0,0-23.65,4c-.45.17-1.75-1-2.47-6.77a.26.26,0,0,1,.08-.25c.38-.38,1.92-1.73,5.58-2.93,1-.32.43,1.92,1.54,1.52.9-.31,4.7-2.54,5.68-2.88,1.17-.41.61,1.63,1.85,1.19s4.56-2.31,5.75-2.73,1.72,2,2.8,1.64a20.59,20.59,0,0,1,3.15-.67c2.72-.42,5.84-.6,5,.23-3.06,2.9.83,1.8.83,1.8,2.85-.43,3.77.49,4.92.93a5,5,0,0,1,.75,1,7.63,7.63,0,0,1,.47,1A14.52,14.52,0,0,1,281.41,117.11Z"/></g><g id="hair_beard"><path class="cls-13" d="M249.65,212.69a48.19,48.19,0,0,0-1.57-7.93l-.29.37.29-.39a42.19,42.19,0,0,0-1.88-5.17,35,35,0,0,0-1.62-3.24,36.47,36.47,0,0,0-14-14.07,28.41,28.41,0,0,0-5.88-2.56c-9.35-2.62-18-.83-25.31,2.56a58,58,0,0,0-12.36,7.92,65.59,65.59,0,0,0-9.53,9.57,27.29,27.29,0,0,0-3.67,11.14,25.86,25.86,0,0,0-.1,3.91c0,.6.09,1.19.16,1.76l.09.69a26.36,26.36,0,0,0,3.52,10C173.64,244.69,191.74,256,191.74,256c2.65,3.66,3.48,6.58,3.61,8.68v0a9.4,9.4,0,0,1,0,1.31v0a6,6,0,0,1-.7,2.5c-2.37,2.69-5.21-.48-5.21-.48a5,5,0,0,0-.16.55,5.41,5.41,0,0,0-.12.55c0,.16-.05.32-.07.46v0a5,5,0,0,0,0,.86l0,.31c0,.12,0,.25.05.37a4.74,4.74,0,0,0,.16.65,4,4,0,0,0,.22.61,2.88,2.88,0,0,0,.13.31l.14.29c.11.19.22.38.34.56l.18.27c.11.16.23.3.34.45s.41.49.62.72l.22.21a14.83,14.83,0,0,0,1.22,1.07l.76.54c.38.26.74.48,1.05.66l.1.06c.68.38,1.13.58,1.13.58a11.84,11.84,0,0,0,5.16.42.82.82,0,0,0,.21,0,.3.3,0,0,0,.13,0l.57-.11.08,0,.42-.1.42-.12.5-.17h0l.33-.12h0l.34-.13.33-.15a3.71,3.71,0,0,0,.4-.19,9.84,9.84,0,0,0,1.35-.73l.33-.2a.09.09,0,0,0,.07,0l.44-.3c.23-.15.45-.31.67-.48l.06-.05c.25-.18.48-.38.72-.57s.44-.37.65-.57a8.94,8.94,0,0,0,.71-.67c.22-.21.44-.43.64-.65s.33-.35.48-.52.32-.35.47-.54c.3-.33.58-.68.85-1l.05-.07c.25-.3.48-.61.71-.93s.46-.61.66-.93.43-.63.65-.95v0a.36.36,0,0,0,.07-.1l.06-.11.7-1.14.13-.2.12-.19.12-.21.18-.3,0-.1,0-.05c.08-.15.16-.3.24-.43s0,0,0-.05c.5-.93,1.26-2.46,1.58-3.1a1.23,1.23,0,0,0,.12-.26c.09-.17.16-.33.23-.48a.36.36,0,0,0,0-.09c.18-.38.32-.7.42-.95s.22-.56.22-.56a28,28,0,0,0,4.65-1.35,24.68,24.68,0,0,0,7-4.06,27,27,0,0,0,9-16.42C253.77,227.38,249.65,212.69,249.65,212.69ZM243.33,203s-2.93-8.78-8.09-13.26A17.27,17.27,0,0,1,243.33,203Zm-16.78-6.67a28.4,28.4,0,0,0,2.31,2.56c2.66,2.61,6.17,4.92,10.31,5.12,0,0-5.65,6.56-11.51,6.33,0,0-7.6.92-4.26-8.17l-5-.69s-3.57,7.71-12.32,6.56c0,0-13-.81-10.82-10.89a26.35,26.35,0,0,0,17.21.12,25.18,25.18,0,0,0,3.24-1.3,30.92,30.92,0,0,0,7.29-5A32.4,32.4,0,0,0,226.55,196.35Zm-16.27-2.17c.51-.14,1-.29,1.53-.48a16.68,16.68,0,0,0,7.4-5.13,18.87,18.87,0,0,1-7,5.45c-.51.25-1.05.47-1.61.68-4.15,1.54-9.8,2.05-16.87-.8C193.74,193.9,202.3,196.4,210.28,194.18Zm-15.49,42.74-.59.33c-.25.13-.52.26-.79.37a4.72,4.72,0,0,1-.56.24c-.26.11-.53.2-.81.29a15.58,15.58,0,0,1-2.71.64.17.17,0,0,1-.1,0,.22.22,0,0,1-.11,0l.06,0,0,0,0,0a19.62,19.62,0,0,0,2.13-1,20.14,20.14,0,0,0,2.2-1.43,3.5,3.5,0,0,0,.49-.37c.24-.18.47-.36.71-.57a11.14,11.14,0,0,0,.84-.74c.22-.21.46-.43.68-.67s.35-.35.51-.53.32-.35.47-.53l.08-.1h0c.15-.18.29-.35.43-.54a5.72,5.72,0,0,0,.37-.49,18.08,18.08,0,0,0,1.69-2.74,5.36,5.36,0,0,0,.26-.54c.12-.23.22-.48.33-.72h0l.15-.36a20,20,0,0,0,.87-2.84,13.93,13.93,0,0,1-.33,3c0,.11,0,.22-.08.34s-.11.42-.16.64-.12.45-.2.68-.15.46-.25.7c-.14.41-.31.83-.5,1.25-.1.22-.21.43-.33.64a5.91,5.91,0,0,1-.38.69c-.14.22-.27.45-.43.67s-.43.62-.68.92a3.86,3.86,0,0,1-.38.44,5.48,5.48,0,0,1-.4.44c-.14.14-.28.28-.43.41s-.32.3-.49.43a5.3,5.3,0,0,1-.52.42A13.28,13.28,0,0,1,194.79,236.92Zm19.13,22.3c0,.18-.09.38-.14.58s-.07.25-.1.38c-.13.47-.26.94-.4,1.41s-.3.94-.46,1.42c-.08.23-.16.47-.25.7s-.24.66-.37,1-.19.51-.3.76-.19.45-.29.68c-.34.77-.7,1.52-1.09,2.24-.21.38-.42.76-.65,1.13s-.35.56-.54.83-.24.36-.37.54a1.88,1.88,0,0,0-.18.24c-.13.18-.27.34-.41.51a7.75,7.75,0,0,1-.52.62l-.47.5c-.2.2-.4.39-.59.56l-.5.43-.44.34c-.24.17-.48.34-.73.49a1.87,1.87,0,0,1-.31.17l-.25.16a9.6,9.6,0,0,1-1.13.52l-.51.18-.54.15h0a8.39,8.39,0,0,1-1.54.28l-.38,0h-.07a13.14,13.14,0,0,1-5.47-1c-.42-.17-.85-.35-1.28-.56a9.46,9.46,0,0,0,1.3.32,10.17,10.17,0,0,0,2.28.15l.71,0a13,13,0,0,0,1.72-.3l.38-.1.49-.16.43-.14a11.78,11.78,0,0,0,1.12-.48c.19-.09.36-.18.55-.29s.48-.26.72-.41a12.19,12.19,0,0,0,1.11-.76l.52-.41.54-.46.54-.51c.36-.36.72-.73,1.07-1.14.19-.2.36-.42.54-.64s.35-.45.53-.68.31-.42.46-.64.3-.44.45-.67.26-.4.39-.62l0-.06c.14-.21.26-.43.38-.65.41-.7.81-1.44,1.2-2.25l.47-1,.33-.78c.26-.61.52-1.25.77-1.93l.33-.91.08-.26a70.27,70.27,0,0,0,2.56-9.67A59.62,59.62,0,0,1,213.92,259.22Zm26.89-40.05c-.05.29-.11.57-.18.86l-.06.26c0,.21-.1.42-.16.63s-.15.61-.25.91-.21.68-.32,1c0,.13-.08.25-.13.37-.14.39-.29.78-.45,1.16s-.33.77-.52,1.15-.3.6-.47.91-.33.58-.52.88-.37.57-.58.85a3.77,3.77,0,0,1-.31.42,7.69,7.69,0,0,1-.58.7,12.26,12.26,0,0,1-1.5,1.47c-.16.14-.34.28-.51.41a6.41,6.41,0,0,1-.68.48c-.22.15-.44.29-.67.42l-.4.21a3.2,3.2,0,0,1-.37.19l-.05,0c-.2.11-.43.2-.64.29l-.09,0a3.52,3.52,0,0,1-.42.15,13.23,13.23,0,0,1-2.48.65l-.77.11c-.33,0-.66.07-1,.08s-.62,0-.93,0a14.43,14.43,0,0,0,3.37-1.09l.51-.24a18.56,18.56,0,0,0,5.13-3.63c.21-.19.41-.4.6-.61v0c.21-.22.41-.44.6-.68s.49-.6.73-.92.29-.38.42-.59a16.69,16.69,0,0,0,1.1-1.77c.15-.26.29-.54.43-.81a25.07,25.07,0,0,0,1.19-2.8l.33-1c.24-.76.45-1.56.63-2.42a28.66,28.66,0,0,0,.5-3c.05-.35.09-.72.12-1.08,0,0,0,.76-.08,2,0,.1,0,.19,0,.3s0,.07,0,.1,0,.32,0,.49c0,.35-.07.74-.13,1.15C241.05,217.85,241,218.5,240.81,219.17Z"/><path id="hair" class="cls-13" d="M298,58.82c-7.5,15.18-24.65,1.9-24.65,1.9,18.22-12,13.39-38.58,13.39-38.58C281.13,38.2,259,41.54,251.63,42.21h0c-.57-.31-1.15-.62-1.73-.91,17-27.73-2.28-41.3-2.28-41.3,8.81,20.79-8.75,33.67-11.87,35.76l-.17-.06c6.56-8.13,2.39-17.36,2.39-17.36-.86,11.31-10.88,11.74-10.88,11.74-7.7-.48-13.15.08-16.42,1.09h0l-.74-.07c8.72-10.64,3.4-24.78,3.4-24.78-4.12,15.35-18.75,16.45-18.75,16.45a50.26,50.26,0,0,0-25.18,9.48C178.48,13.92,164,0,164,0c0,24.67-25.71,41.75-25.71,41.75,3.21-15.82-5.9-31.63-5.9-31.63,4.83,28.46-15.56,47.13-15.56,47.13C113.16,29.57,97.57,31,97.57,31c14.47,9.49,5.9,39.85,5.9,39.85C90.12,90,71.9,86.77,71.9,86.77c15.94,11.74,30-7.08,30-7.08-12.32,31.63,0,61,0,61a14.43,14.43,0,0,1,.75-2.42h0c1.52-3.74,4.15-4.85,7-4.63,6,.45,13.17,6.83,13.17,6.83a1.29,1.29,0,0,0,.45-.16c3.36-1.66,10.8-15.67,10.8-15.67l-.52-.11h0C117,120.7,121.15,86,121.15,86c.66.55,1.32,1.08,1.95,1.56,5.42,4.17,9.93,6.24,13.61,7.09,0,0,0,0,0,0a14.9,14.9,0,0,0,8.88-.36,0,0,0,0,0,0,0,13.72,13.72,0,0,0,3.57-2.59c-8.81-.1-13.87-4-16.76-8.72-4.37-7.1-3.8-15.95-3.8-15.95s3.67.73,6.61,1.34h0l2.48.55c14.15,3.34,24.12-10.76,24.12-10.76a3.84,3.84,0,0,1,1-1c.72-1.11,1.29-1.48,2.63-.75,3.75.06,8.12,3.64,8.12,3.64a40,40,0,0,0,21.65,6.65h.06a21,21,0,0,0,5.14-.75c-9.78-4.58-13.46-17.91-13.46-17.91,12.33-.63,26.8,14.55,26.8,14.55,16.61,13.91,47.07,13.48,47.07,13.48a108,108,0,0,0,15.57-.72l.64-.07C302.51,71.89,298,58.82,298,58.82ZM110,68.15a16.79,16.79,0,0,1-1.5,3.85c.11-.58.22-1.16.3-1.74a0,0,0,0,0,0,0c2.95-17.45-1.23-30.6-1.43-31.2,7,10.05,4.59,22.79,2.63,29.09A0,0,0,0,1,110,68.15ZM126.45,127s-8.51-.72-12.9-10.13h0c-2.57-5.53-3.73-14.06-.9-27.19,0-.22-1.76,18.72,6.07,30.4A19.67,19.67,0,0,0,126.45,127Zm3.17-40.21c-12.06-4.28-8.36-21.2-8.36-21.2C120,80.79,129.62,86.8,129.62,86.8Zm5.3-42.93a52.16,52.16,0,0,1-3.38,10.66,38.93,38.93,0,0,1-2.07,4.12c.43-1.07.84-2.23,1.2-3.43a74.71,74.71,0,0,0,2.25-10.16,156.74,156.74,0,0,0,1.73-20.26A43.09,43.09,0,0,1,134.92,43.87ZM165.46,6.05c.16.23.29.46.43.69,8.15,14,.48,23.67.48,23.67C170.73,17,166.08,7.25,165.46,6.05Zm26.31,57.59c-14.2-3.17-12.16-13.78-12.16-13.78C181.58,59.49,191.18,63.4,191.77,63.64Zm-4.85-33a58.7,58.7,0,0,0-9.75,5.56,29.78,29.78,0,0,0-8.27,8.44c-.28.45,1.35-3.69,5.76-8h0a28.35,28.35,0,0,1,8.73-5.79h0a29.32,29.32,0,0,1,8.24-2.12S189.71,29.33,186.92,30.61Zm23.47,9.75c1.27.39,16.08,5.21,27.57-1.51a22.39,22.39,0,0,0,2.37-1.6,24.5,24.5,0,0,0,7.11-9,22.64,22.64,0,0,1-4.25,10,20.38,20.38,0,0,1-1.39,1.6C236.81,45,227.52,48.22,210.39,40.36Zm7.84,13.12C229.75,67.71,252.56,70,252.56,70,220.94,69.52,217.47,52.54,218.23,53.48Zm47.21-.82c-12.67,4.39-27.08,2-28.39,1.69,11.47,1.49,20.36-.08,27.16-3l.6-.25A37.3,37.3,0,0,0,284,32.58c-2.52,11-9.76,16.86-17.82,19.84C265.92,52.5,265.69,52.59,265.44,52.66Z"/><g id="hair_highlights"><path class="cls-14" d="M284,32.58c-2.52,11-9.76,16.86-17.82,19.84-.24.08-.47.17-.72.24-12.67,4.39-27.08,2-28.39,1.69,11.47,1.49,20.36-.08,27.16-3l.6-.25A37.3,37.3,0,0,0,284,32.58Z"/><path class="cls-14" d="M247.44,28.28a22.64,22.64,0,0,1-4.25,10,20.38,20.38,0,0,1-1.39,1.6c-5,5.08-14.28,8.32-31.41.46,1.27.39,16.08,5.21,27.57-1.51a22.39,22.39,0,0,0,2.37-1.6A24.5,24.5,0,0,0,247.44,28.28Z"/><path class="cls-14" d="M166.37,30.41c4.36-13.45-.29-23.16-.91-24.36.16.23.29.46.43.69C174,20.69,166.37,30.41,166.37,30.41Z"/><path class="cls-14" d="M191.65,28.67s-1.94.66-4.73,1.94a58.7,58.7,0,0,0-9.75,5.56,29.78,29.78,0,0,0-8.27,8.44c-.28.45,1.35-3.69,5.76-8h0a28.35,28.35,0,0,1,8.73-5.79h0A29.32,29.32,0,0,1,191.65,28.67Z"/><path class="cls-14" d="M129.62,86.8c-12.06-4.28-8.36-21.2-8.36-21.2C120,80.79,129.62,86.8,129.62,86.8Z"/><path class="cls-14" d="M126.45,127s-8.51-.72-12.9-10.13h0c-2.57-5.53-3.73-14.06-.9-27.19,0-.22-1.76,18.72,6.07,30.4A19.67,19.67,0,0,0,126.45,127Z"/><path class="cls-14" d="M134.92,43.87a52.16,52.16,0,0,1-3.38,10.66,38.93,38.93,0,0,1-2.07,4.12c.43-1.07.84-2.23,1.2-3.43a74.71,74.71,0,0,0,2.25-10.16,156.74,156.74,0,0,0,1.73-20.26A43.09,43.09,0,0,1,134.92,43.87Z"/><path class="cls-14" d="M110,68.13a0,0,0,0,1,0,0,16.79,16.79,0,0,1-1.5,3.85c.11-.58.22-1.16.3-1.74a0,0,0,0,0,0,0c2.95-17.45-1.23-30.6-1.43-31.2C114.34,49.09,111.92,61.83,110,68.13Z"/><path class="cls-14" d="M191.77,63.64c-14.2-3.17-12.16-13.78-12.16-13.78C181.58,59.49,191.18,63.4,191.77,63.64Z"/><path class="cls-14" d="M252.56,70c-31.62-.45-35.09-17.43-34.33-16.49C229.75,67.71,252.56,70,252.56,70Z"/><path class="cls-14" d="M241.36,215.21c0,.1,0,.19,0,.3s0,.07,0,.1,0,.32,0,.49c0,.35-.07.74-.13,1.15-.09.6-.19,1.25-.33,1.92-.05.29-.11.57-.18.86l-.06.26c0,.21-.1.42-.16.63s-.15.61-.25.91-.21.68-.32,1c0,.13-.08.25-.13.37-.14.39-.29.78-.45,1.16s-.33.77-.52,1.15-.3.6-.47.91-.33.58-.52.88-.37.57-.58.85-.2.28-.31.42-.38.48-.58.7a12.26,12.26,0,0,1-1.5,1.47c-.16.14-.34.28-.51.41a6.41,6.41,0,0,1-.68.48c-.22.15-.44.29-.67.42l-.4.21a3.2,3.2,0,0,1-.37.19l-.05,0c-.2.11-.43.2-.64.29l-.09,0a3.52,3.52,0,0,1-.42.15,13.23,13.23,0,0,1-2.48.65l-.77.11c-.33,0-.66.07-1,.08s-.62,0-.93,0a14.43,14.43,0,0,0,3.37-1.09l.51-.24a18.56,18.56,0,0,0,5.13-3.63c.21-.19.41-.4.6-.61v0c.21-.22.41-.44.6-.68s.49-.6.73-.92.29-.38.42-.59a16.69,16.69,0,0,0,1.1-1.77c.15-.26.29-.54.43-.81a25.07,25.07,0,0,0,1.19-2.8c.11-.32.23-.67.33-1,.24-.76.45-1.56.63-2.42a28.66,28.66,0,0,0,.5-3c.05-.35.09-.72.12-1.08C241.44,213.16,241.45,213.94,241.36,215.21Z"/><path class="cls-14" d="M215.61,249a59.62,59.62,0,0,1-1.69,10.22c0,.18-.09.38-.14.58s-.07.25-.1.38c-.13.47-.26.94-.4,1.41s-.3.94-.46,1.42c-.08.23-.16.47-.25.7s-.24.66-.37,1-.19.51-.3.76-.19.45-.29.68c-.34.77-.7,1.52-1.09,2.24-.21.38-.42.76-.65,1.13s-.35.56-.54.83-.24.36-.37.54a1.88,1.88,0,0,0-.18.24c-.13.18-.27.34-.41.51a7.75,7.75,0,0,1-.52.62l-.47.5c-.2.2-.4.39-.59.56l-.5.43-.44.34c-.24.17-.48.34-.73.49a1.87,1.87,0,0,1-.31.17,1.65,1.65,0,0,1-.25.15h0a9.6,9.6,0,0,1-1.13.52l-.51.18-.54.15h0a8.39,8.39,0,0,1-1.54.28l-.38,0h-.07a13.14,13.14,0,0,1-5.47-1c-.42-.17-.85-.35-1.28-.56a9.46,9.46,0,0,0,1.3.32,10.17,10.17,0,0,0,2.28.15l.71,0a13,13,0,0,0,1.72-.3l.38-.1.49-.16.43-.14a11.78,11.78,0,0,0,1.12-.48,5.89,5.89,0,0,0,.55-.29c.23-.12.48-.26.72-.41a12.19,12.19,0,0,0,1.11-.76l.52-.41.54-.46.54-.51c.36-.36.72-.73,1.07-1.14.19-.2.36-.42.54-.64s.35-.45.53-.68.31-.42.46-.64.3-.44.45-.67.26-.4.39-.62l0-.06c.14-.21.26-.43.38-.65.41-.7.81-1.44,1.2-2.25l.47-1,.33-.78c.26-.61.52-1.25.77-1.93l.33-.91.08-.26A70.27,70.27,0,0,0,215.61,249Z"/><path class="cls-14" d="M201.16,227.49c0,.11,0,.22-.08.34s-.11.42-.16.64-.12.45-.2.68-.16.47-.25.7c-.14.41-.31.83-.5,1.25-.1.22-.21.43-.33.64a7.87,7.87,0,0,1-.38.69c-.14.22-.27.45-.43.67s-.43.62-.68.92a3.86,3.86,0,0,1-.38.44,5.48,5.48,0,0,1-.4.44c-.14.14-.28.28-.43.41s-.32.3-.49.43a5.3,5.3,0,0,1-.52.42,13.28,13.28,0,0,1-1.14.76l-.59.33c-.25.13-.52.26-.79.37a4.72,4.72,0,0,1-.56.24c-.26.11-.53.2-.81.29a15.58,15.58,0,0,1-2.71.64.17.17,0,0,1-.1,0,0,0,0,0,1,0,0l0,0a19.62,19.62,0,0,0,2.13-1,20.14,20.14,0,0,0,2.2-1.43,3.5,3.5,0,0,0,.49-.37c.24-.18.47-.36.71-.57a11.14,11.14,0,0,0,.84-.74c.22-.21.46-.43.68-.67a6.32,6.32,0,0,0,.51-.53c.17-.17.32-.35.47-.53l.09-.1c.15-.18.29-.35.43-.54a5.72,5.72,0,0,0,.37-.49,18.08,18.08,0,0,0,1.69-2.74,5.36,5.36,0,0,0,.26-.54c.12-.23.22-.48.33-.72h0l.15-.36a20,20,0,0,0,.87-2.84A13.93,13.93,0,0,1,201.16,227.49Z"/><path class="cls-14" d="M219.21,188.57a18.87,18.87,0,0,1-7,5.45c-.51.25-1.05.47-1.61.68-4.15,1.54-9.8,2.05-16.87-.8,0,0,8.56,2.5,16.54.28.51-.14,1-.29,1.53-.48A16.68,16.68,0,0,0,219.21,188.57Z"/><path class="cls-14" d="M243.33,203s-2.93-8.78-8.09-13.26A17.27,17.27,0,0,1,243.33,203Z"/></g></g></svg>