<svg data-name="trAvatar" xmlns="http://www.w3.org/2000/svg" id="avatar" viewBox="0 0 144.07 168.95"><defs><style>.cls-2{fill:#010101}.cls-3{fill:#353635}.cls-4{fill:#9f4c24;opacity:.25}.cls-5{fill:#cfcfce}.cls-8{fill:#053a59}</style></defs><path d="M0 0h144.07v168.93H0z" style="fill:none"/><path id="shirt" d="M124.18 120.91c-2.08-1.52-15.63-5.81-34.45-10.79 0 0 .02.04.01.03-.91-1.04-3.82-9.69-7.92-10.67-.23-.05-8.06-1.14-16.02-2.21 0 0-2.99-.8-4.96 1.49-.05.06-9.43 9.94-10.22 10.8 0 0-2.14 1.78-2.04 2.58-34.66 8.64-46.92 1.46-46.21 56.45 15.4 0 57.96.03 81.93.04 7.9.02 40.98.32 48.36.32-2.27-19.32 2.48-39-8.49-48.03Zm-59.19-13.67c.02.08.05.17.07.25-.02-.08-.05-.17-.07-.25m1.09 3.1c-.03-.09-.08-.19-.12-.28.05.09.08.2.13.29Zm14.8 21.57s.06.08.08.13a1 1 0 0 1-.08-.13m1.04-23.86v-.04a.2.2 0 0 0-.05-.04c.01.01.03.03.05.04s.05.04.08.06l-.07-.02Z" style="fill:#fff"/><g id="shirt_x5F_shade"><path d="M81.68 135.35c-.14 2.72-3.53 1-2.51-1 .69-1.48 2.59-.49 2.51 1M82.91 151.92c.02 2.08-2.68 2.09-2.66 0-.02-2.09 2.68-2.08 2.66 0M82.78 167.07c.02 2.08-2.68 2.08-2.66 0-.02-2.08 2.68-2.08 2.66 0M61.89 113.99c-.22.21-3.96-18.76 3.5-16.18 0 0-5.54 0-3.5 16.18M127.34 168.66c.36-2.21 6-37.5-3.65-47.58-2.39-1.32-9.47-4.31-30.39-10.02 7.64 2.02 15.94 4.22 23.48 6.24 20.42 4.96 14.09 35.46 15.88 51.63l-5.34-.17s0-.04.02-.11ZM29.51 168.68c-.15-.83.74-15.32.74-15.32s.76 15.32.75 15.32c-.24.05-1.48 0-1.48 0ZM116.6 168.68c-.15-.83.74-15.32.74-15.32s.76 15.32.75 15.32c-.24.05-1.48 0-1.48 0ZM95.28 123.14c-1.99-2.6-4.79-6.76-6.78-9.35-.28-2.37-2.89-11.17-4.5-12.9 1.61-.43 12.75 22.71 11.27 22.25ZM88.16 121.66s-3.53 5.58-5.08 12.65c1.03-5.39 3.47-18.38 4.43-20.14.19.97.63 7.43.65 7.49" class="cls-5"/><path d="M84.31 168.64h-.64c.8-18.01-.93-29.9-1.51-33.97-3.32-4.81-12.13-11.96-15.29-11.87-1.81.43-2.67-5.06-4.81-4.26-2.84 3.2-3.47 3.42-5.4 8.47-5.95-1.02-7.68-11.8-8.07-14.88-34.75 8.67-46.89 1.46-46.21 56.5l-.83.13c.48-.51-1.66-32.49 6.41-42.92 6.43-8.32 17.37-9.29 25.78-11.02 3.6-.74 9.51-2.06 14.79-3.23q-.015-.18-.03-.24l1.05-.64c.71 5.19 1.55 11.88 6.02 15.21 2.57-3.76 3.76-5.35 6.32-9.1 1.6-.7 3.16 4.24 4.99 3.73 6.31 1.75 11.38 8.59 15.37 13.58-3.73-6.07-7.79-11.92-12.04-17.7-3.64-4.57-7.76-11.29-4.89-17.14-2.88 13.14 12.73 22.66 16.87 34.32-.02-3.76-.03-19.25-1.32-26.93-.64-1.79-.54-5.44.96-7.17l1.32.61c-1.22.48-2.19 4.28-1.23 7.92-.02 0-.04-.02-.05-.04.02.01.03.03.05.04.85 7.77 1.02 12.99.77 26.95v-.06c2.64 9.29 1.71 31.55 1.63 33.73Z" class="cls-5"/></g><path id="skin" d="M127.77 51.98c-2.54 16.53-14.48 62.51-45.49 45.92-2.82 4.17-1.33 8.69-.85 13.34.69 7.99.75 19.26.75 22.35-1.43-3.33-4.28-8.17-13.81-20.63 0 0-5.01-6.9-3.08-13.74 1.23-2.96 2.35-7.02 2.53-11.79-3.81-3.82-7.66-8.65-11.35-14.75-2.8 3.7-6.5-2.47-6.5-2.47-10.21-13.07-.84-12.89-1.7-12.89-5.67 0 7.82-29.13 10.89-31.21 21.79-14.78 73.88-16.56 68.6 25.87Z" style="fill:#e2ab90"/><g id="skin_x5F_shadows"><path d="M80.86 106.65c.22 1.26.41 2.84.56 4.59-4.69-2.67-4.73-12.7-13.25-23.19 1.25 1.51 6.15 6.52 14.24 9.99-1.31 1.84-2.61 6.26-1.55 8.61M76.96 43.5c-4.27-3.47-7.42-10.87-7.25-13.41.66 2.29 7.78 13.84 7.25 13.41M127.76 51.82c0 .05-.01.11-.02.16 0-.05.01-.11.02-.16" class="cls-4"/><path d="M127.99 49.6c-.62 10.39-9.55 48.49-30.03 51.6-1.05.16 22.95-14.32 24.77-51.88-.1-4.16-1.12-7.8-2.93-8.11 3.1-.66 5.63-1.52 7.58-2.35.21-.09 1.13 6.06.62 10.73ZM56.65 67.79c-3.01 1.94-4.22-1.89-1.66-3.2-2.05-5.11-6.19-3.46-6.43-3.34 0 0 4.16-.27 5.22 3.32-1-.17-4.23 2.72-.84 4.91.15.09 3.01 1.42 4.07-1.33l-.37-.37Z" class="cls-4"/></g><path id="mouth" d="M88.98 77.88c0-.26-6.1 10.76 7.4 10.32 0 0-9.46-2.49-7.4-10.32" class="cls-2"/><g id="nose"><path d="M96.34 75.31s3.88-3.47 7.06-.74c0 0 2.53 2.42-.11 5.69 0 0 4.55-3.91.35-7.2 0 0-3.33-2.39-7.31 2.25ZM97.63 78.75s-.39-1.73 2.6-.52z" class="cls-2"/></g><path id="glasses_x5F_frames" d="M132.48 53.32c-.24-2.74-16.73-1.5-19.47-1.41-4.3.14-5.77 2.1-5.2 5.59-3.82-1.6-7.82-1.6-12.13-.2 0 0 .5-5.49-6.15-5.39-2.61.04-23.75-1.44-23.35 1.87-2.02-.01-4.14.03-6.15.13.18.54.37 1.08.61 1.59 1.78-.27 3.68-.53 5.47-.73.09.99.73 1.45 1.23 1.65-.5 7.64 1.94 12.39 8.09 12.08.2-.01 13.14 0 13.33 0 6.06-.18 6.74-5.62 6.86-10.13 4.03-.75 8.27-.96 12.23.18-.21 13.24 7.49 9.41 16.91 9.95 6.57.32 7.07-6.96 6.85-12.12.69-.35 1.03-1.13.86-3.08Z" class="cls-2"/><g id="lenses"><path d="M94.36 55.53c-.53 4.27 1.13 11.13-5.75 11.63H75.42c-9.81.01-4.98-10.6-7.54-11.97-.23-.09-.65-.24-.32-1.37 3.2-.97 18.2-.39 21.93-.54 2.86.3 4.53-.02 4.87 2.25M130.96 55.2c-1.02.43-.69 1.99-.66 2.98-.32 3.75.21 8.91-5.53 8.97h-10.99c-5.63-.54-4.24-7.77-4.67-11.64-.36-3.78 11.15-1.76 13.42-2.25 2.2.02 6.88-.11 8.66.51.29 1.19-.1 1.37-.23 1.42Z" class="cls-3"/></g><g id="eyes"><path d="M92.5 60.75c-1.22.54-2.43-3-6.59-2.85 1.88 1.82.42 5.31-2.23 5.22-2.41.07-3.95-2.84-2.58-4.79-1.37.3-2.3.64-2.33.65-.82.32-1.19-.76-.47-1.27 2.61-1.88 11.45-2.11 14.36 2.09.21.31.15.73-.15.95ZM124.86 59.85c-.51.97-4.37-2.23-6.72-1.71 3.41 5.03-5.95 7.01-4.51.94-.8.68-1.77-.52-.89-1.08.24-.14 5.99-3.24 11.95.9.31.21.39.64.17.95" class="cls-2"/></g><g id="eyebrows"><path d="m94.66 47.92-.21.24c-11.28-4.7-25.27.59-25.29.66l-.38-.83c13.01-6.53 29.26-3.55 25.88-.08ZM128.12 51.39c-1.43-1.56-3.21-2.58-5.4-2.99-5.31-1.12-11.87.62-11.96.64l-.32.09c-.43-.44-.9-1.95.32-2.29.93-.52 14.4-1.67 17.24 2.79 0 .04.12 1.73.12 1.77Z" class="cls-2"/></g><path d="M69.71 30.08c.03.31.05.67.12 1.02.02 2.46 3.21 8.88 7.13 12.39-2.61-1.23-11.68-5.44-16.71-12.22-1.41 6.61-2.21 13.61-.85 20.37.76 4.3 3.27 8.05 6.92 10.43-3.63-1.03-11.15-5.6-11.15-5.6.34.76 4.66 7.13 5.32 7.99-1.55-1.23-3.54-3.65-5.48-4.84 0 0-5.52-4.2-8.32-1.54l-.32.07c-.34-.87-7.77-19.54.75-35.71-.59-1.54-4.22-1.26-6.15-.94 2.65-.91 4.37-2.94 8.8-1.71.14-5.56-6.65-6.22-12.53-5.53 1.81-.95 6.85-5.84 14.11-1.68.21-4.29 3.72-11.4 11.9-12.58-3.6 1.85-8.09 7.19-5.03 12.02 5.27-8.82 32.2-13.7 52.45-.07 1.31 1.3 25.57 13.48 30.87.24l.38.78c7.13 30.81-44.29 39.17-72.21 17.11" class="cls-2"/><g id="hair_x5F_highlights"><path d="M38.58 14s10.1-3.91 12.8 4.4c0 0-1.5 1.35-1.5 1.29s.63-7.34-11.31-5.7ZM42.32 21.19c-.12.03 3.74-1.76 5.5.58l-.67.63s-1.57-2.1-4.82-1.21ZM90.5 18.18s44.05 18.88 50.04-1.7c0 0-.4 26.37-50.04 1.7M64.93 9.69s16.68-7.49 34.76.8c0 0-17.28-5.19-34.76-.8M66.73 22.67s1.7 13.48 8.89 19.68c0 0-10.89-6.39-8.89-19.68M57.44 54.43c-2.72-2.54-15.16-14.74-4.79-29.36-.1-.06-6.7 15.22 4.79 29.36" class="cls-8"/></g></svg>