<svg id="Layer_1" data-name="Layer 1" xmlns="http://www.w3.org/2000/svg" viewBox="0 0 310.96 364.65"><defs><style>.cls-1{fill:none;}.cls-2{fill:#e2ab90;}.cls-3{fill:#9f4c24;opacity:0.25;}.cls-4{fill:#010101;}.cls-5{fill:#353635;}.cls-6{fill:#053a59;}.cls-7{fill:#fff;}.cls-8{fill:#cfcfce;}</style></defs><rect class="cls-1" width="310.96" height="364.63"/><g id="skin"><path class="cls-2" d="M267.51,147.88A227.37,227.37,0,0,1,259,169.21a156.15,156.15,0,0,1-16.18,27.89l-.18.26c-8,10.74-18.46,20.75-30,22.12l-.3,0c-.33,0-.66.07-1,.09,0,0-14.28,1.08-33.73-8.29a1,1,0,0,1-.08.14,34,34,0,0,0-3.3,8.48s0,.05,0,.08c-.05.26-.1.51-.16.77v0c-.05.29-.1.58-.14.88s-.08.59-.11.88,0,.39,0,.58a17.9,17.9,0,0,0,.07,3.19.2.2,0,0,1,0,.07h0a19.93,19.93,0,0,0,.73,3.79c.48,2.72.88,6.12,1.21,9.91,1.49,16.93,1.63,41.59,1.63,47.88v.34c-.12-.3-.26-.64-.41-1-2.45-5.58-9.51-17.7-29.4-43.52,0,0-10.81-14.9-6.65-29.66h0a74.13,74.13,0,0,0,5.45-25h0c0-.12,0-.26,0-.39a165.81,165.81,0,0,1-24.49-31.84c-6,8-14-5.33-14-5.33-14.32-15.5-7.5-25.72-7.5-25.72a3.42,3.42,0,0,1,.42-.43c6-5.74,18.33,4.18,18.33,4.18l.28,1,1,.61c2.1,1.37,3.42,2.44,3.46,2.47l6.74,5.54-5.34-6.9c-.35-.44-.68-.89-1-1.33s-.59-.82-.86-1.22h0c-.29-.42-.56-.84-.83-1.28s-.52-.84-.76-1.25l-.08-.13,0,0-.4-.71c-.14-.23-.26-.47-.38-.7s-.32-.59-.47-.89c-.51-1-1-1.91-1.34-2.8l1.43-.26c.24.23.5.46.75.67s.5.45.76.66c.75.65,1.5,1.24,2.26,1.81,1,.77,2,1.46,3,2.09l1.43.9.71.42c.22.14.45.26.67.39s.45.26.67.37l.65.36.55.29,1.06.54c2.22,1.09,3.89,1.73,4.56,2l.24.07.08,0,5.29,1.77-4.38-3.47a19.49,19.49,0,0,1-1.73-1.53,5.6,5.6,0,0,1-.55-.54,11.13,11.13,0,0,1-.87-.95c-.23-.24-.44-.5-.65-.76s-.32-.4-.47-.61-.39-.53-.58-.79a.13.13,0,0,1-.05-.06c-.16-.22-.32-.46-.47-.69L133,124c-.13-.21-.26-.42-.38-.64a6.24,6.24,0,0,1-.38-.66c-.11-.19-.22-.39-.31-.57l-.39-.77c-.13-.25-.25-.5-.37-.77s-.24-.52-.35-.78l.63-.1c2.15-.32,4.29-.63,6.44-.91l3.22-.39,1.52-.17a4.08,4.08,0,0,0,2.66,3.57,9.44,9.44,0,0,1,0,2.31c-.05.55-.1,1.07-.1,1.56l.68,8.65,0,.17c2.58,13.38,13.34,13.38,16.88,13.38h28.77a13.34,13.34,0,0,0,10.56-4.84,15.41,15.41,0,0,0,3.6-9l.66-8c1.88-.37,3.81-.65,5.72-.88a70.7,70.7,0,0,1,7.11-.46,53.62,53.62,0,0,1,7.06.4l1.75.24c.58.1,1.14.24,1.72.34a26.57,26.57,0,0,1,3,.74l.51,7.53c.16,5.84,4,14,12,14h22.18Z"/><path class="cls-2" d="M276.25,83.32h0q-.63.3-1.29.57A88.86,88.86,0,0,1,258.57,89,115.8,115.8,0,0,1,227,91.07c-.43,0-47.11-.71-75.4-25.1l-1.17-1c0,.45.09,1,.16,1.51l.09.68a0,0,0,0,1,0,0c.8,5,3.42,13.78,11.92,23l.78.85,2.7,2.91-4.63-2.21c-.81-.38-17.17-8.31-27.75-19.7a46.5,46.5,0,0,1-3.69-4.47c-.06.33-.15.68-.23,1.07,0,.17-.07.33-.11.5-.07.34-.15.71-.22,1.1s-.16.79-.25,1.21c-.16.85-.33,1.77-.51,2.77-.08.49-.16,1-.25,1.53s-.18,1.07-.26,1.62l-.12.85c-.08.57-.17,1.15-.25,1.75l-.12.9c0,.46-.11.92-.16,1.39s-.11.94-.16,1.42a115.76,115.76,0,0,0-.67,13.73c0,.69,0,1.4.05,2.09s.06,1.42.11,2.14c.09,1.39.21,2.77.37,4.14l0,.25c.07.57.14,1.14.23,1.7,0,.09,0,.16,0,.25.05.34.11.69.16,1,0,.08,0,.17,0,.24s0,.19,0,.28l.39,2a0,0,0,0,1,0,0c.1.47.21.92.32,1.37s.25,1,.4,1.49c0,.17.08.33.13.48.14.51.3,1,.47,1.53l1.63-.08c2.18-.08,4.37-.13,6.55-.17l3.29,0h1.8a10.29,10.29,0,0,1,.29-1.08c.7-2.2,4.41-2.47,12.75-2.87l2-.1h35.38c5.45.17,8.91,1,10.94,2.51a6.45,6.45,0,0,1,2.44,5.13,28.67,28.67,0,0,1-.06,3c0,.31,0,.63,0,1a42,42,0,0,1,5.2-1.29,45.45,45.45,0,0,1,7.48-.72,36.79,36.79,0,0,1,7.54.62,27.26,27.26,0,0,1,6,1.82c0-.48,0-.95-.06-1.4-.05-1.06-.1-2.07-.06-3a7,7,0,0,1,2-5c1.74-1.61,4.7-2.43,9.3-2.6h29.44l1.75.1.62,0h.06c.07-.61.14-1.2.21-1.8l-.06,0-1.21-1.16a20,20,0,0,0-9.84-4.72c-11.45-2.41-25.62,1.34-25.81,1.39l-.69.18-.38-.6a3.66,3.66,0,0,1-.55-2.79,2.33,2.33,0,0,1,1.43-1.49l.19-.06c.79-.16,14.37-2.71,25.65-.12,4.44,1,8.53,2.82,11.34,5.88l.19.21,0,0A130.46,130.46,0,0,0,276.25,83.32Z"/></g><g id="skin_shadows"><path class="cls-3" d="M174.54,230.19c.48,2.72.88,6.12,1.21,9.91-3.22-2-5.35-3.75-5.32-4.94,0,0-10.47-29.26-23.28-45.13,2.86,3.34,12.69,13.66,30.35,21.41l.38.16a39.83,39.83,0,0,0-2.28,4.7,15.11,15.11,0,0,0-1.4,3.62s0,.05,0,.08c-.05.26-.1.51-.16.77v0c-.05.29-.1.58-.14.88s-.08.59-.11.88,0,.39,0,.58a23.53,23.53,0,0,0,.07,3.19.2.2,0,0,1,0,.07h0A19.93,19.93,0,0,0,174.54,230.19Z"/><path class="cls-3" d="M176.8,233.12h0l-.11-.08A.41.41,0,0,0,176.8,233.12Z"/><path class="cls-3" d="M177,233.25l-.15,0s0-.05,0-.08Z"/><path class="cls-3" d="M188.94,246.67l-.16-.07a1.45,1.45,0,0,1,.1-.18A1,1,0,0,1,188.94,246.67Z"/><path class="cls-3" d="M200.44,250.9l-.07,0L195,240.4l-1.29-2.52.08,0C195.65,241.56,198.21,246.6,200.44,250.9Z"/><path class="cls-3" d="M133.74,72c-1.26-1.07-2.56-2.21-3.92-3.4.08-.39.17-.74.23-1.07A46.5,46.5,0,0,0,133.74,72Z"/><path class="cls-3" d="M151.63,66c-.69-.24-1,0-1,.48-.07-.56-.13-1.06-.16-1.51Z"/><path class="cls-3" d="M165.14,91.77l-1.72-.8-.78-.85c-8.5-9.18-11.12-17.92-11.92-23C152.07,72.47,166.47,92.41,165.14,91.77Z"/><path class="cls-3" d="M267.32,147.88c-2,5.86-4.44,11.92-7.3,18.18a167.68,167.68,0,0,1-17.18,31l-.18.26c-8.12,11.19-18.54,21.27-30,22.12l-.3,0s32.27-13.92,46.5-71.62Z"/><path class="cls-3" d="M275.92,110.34c-.06.61-.13,1.22-.21,1.85l-.62,0-1.75-.1h-8.65c.16-2.55.24-5.13.18-7.59a20,20,0,0,1,9.84,4.72Z"/><path class="cls-3" d="M276.24,107.06l-.19-.21c-2.81-3.06-6.9-4.87-11.34-5.88-.52-6.38-2.23-11.34-6.14-12a88.86,88.86,0,0,0,16.35-5.07q.66-.27,1.29-.57A135.65,135.65,0,0,1,276.24,107.06Z"/><path class="cls-3" d="M122.28,146.32a4.3,4.3,0,0,1-5.61.22c-3.32-3.84,2-7.12,2-7.12-4.43-11-13.37-7.47-13.89-7.22,0,0,9-.57,11.28,7.17,0,0-3,0-4.68,3.82,0,0-1.72,4.21,2.86,6.79.34.18,6.5,3.05,8.79-2.87Z"/></g><path id="mouth" class="cls-4" d="M192.05,168.09c0-.56-13.17,23.23,16,22.28C208,190.37,187.62,185,192.05,168.09Z"/><g id="nose"><path class="cls-4" d="M207.94,162.55s8.37-7.49,15.23-1.6c0,0,5.46,5.23-.22,12.28,0,0,9.81-8.43.76-15.54C223.71,157.69,216.52,152.52,207.94,162.55Z"/><path class="cls-4" d="M210.73,170s-.84-3.73,5.62-1.12Z"/></g><g id="lenses"><path class="cls-5" d="M203.68,119.85a25.84,25.84,0,0,1-.08,2.71c0,.84-.1,1.72-.1,2.64l-.7,8.64c-.13,3.7-3.1,11.27-11.54,11.1H162.79c-5.52,0-12.08-1.24-14-10.92l-.65-8.4c0-.37,0-.81.08-1.26.15-1.89.37-4.48-1.72-5.25-.5-.18-1.4-.52-.68-3,1.2-.65,6.36-.9,10.16-1.08l1.93-.09h35.25c4.7.14,7.71.76,9.19,1.9A3.51,3.51,0,0,1,203.68,119.85Z"/><path class="cls-5" d="M282.66,119.15c-1.81.8-1.64,3.14-1.49,5.19,0,.48.06.94.06,1.25l-.55,8.46c-.88,5.4-2.93,10.89-11.39,10.89H245.57c-6.16.14-9.21-6.53-9.34-11.16l-.58-8.57c0-.92-.05-1.79-.09-2.63s-.1-1.92-.06-2.75a3.94,3.94,0,0,1,1.1-3c1.17-1.08,3.6-1.68,7.36-1.82h29.29l1.66.1.42,0h.07c2.87.16,6.77.42,7.75,1C283.78,118.65,283,119,282.66,119.15Z"/></g><g id="eyes"><path class="cls-4" d="M199.64,131.13a1.49,1.49,0,0,1-.86.27,1.43,1.43,0,0,1-1.18-.6c-2.93-4-7.55-5.53-12.18-5.82a6.61,6.61,0,0,1,1.85,4.6A6.68,6.68,0,1,1,175,125.91a40,40,0,0,0-5,1.41,1.46,1.46,0,1,1-1-2.75,47.26,47.26,0,0,1,11.84-2.49c8.74-.65,15.35,1.77,19.15,7A1.47,1.47,0,0,1,199.64,131.13Z"/><path class="cls-4" d="M269.5,129.18a1.47,1.47,0,0,1-1.21.63,1.44,1.44,0,0,1-.83-.27,21.93,21.93,0,0,0-12.47-4,6.25,6.25,0,0,1,1.5,4.92h0a6.07,6.07,0,0,1-5.87,5.43,5.17,5.17,0,0,1-.68,0,5.64,5.64,0,0,1-3.79-2.18A6.29,6.29,0,0,1,244.9,129a5.89,5.89,0,0,1,.36-1.46l-.49.25a1.47,1.47,0,1,1-1.43-2.57,25.14,25.14,0,0,1,25.79,1.94A1.47,1.47,0,0,1,269.5,129.18Z"/></g><g id="eyebrows"><path class="cls-4" d="M204.32,103.44l-.46.52-.63-.26c-25-9.75-53.66,1.57-53.95,1.69l-.81-1.79c28.16-14.5,54.9-5.34,55.17-5.25l.15.05.13.11a3.22,3.22,0,0,1,1.3,2.26A3.87,3.87,0,0,1,204.32,103.44Z"/><path class="cls-4" d="M276.53,110.93l-.55-.54-.06,0-1.21-1.16a20,20,0,0,0-9.84-4.72c-11.45-2.41-25.62,1.34-25.81,1.39l-.69.18-.38-.6a3.66,3.66,0,0,1-.55-2.79,2.33,2.33,0,0,1,1.43-1.49l.19-.06c.79-.16,14.37-2.71,25.65-.12,4.44,1,8.53,2.82,11.34,5.88l.19.21,0,0v.07Z"/></g><path id="hair_color" class="cls-4" d="M306.31,28l-.8-1.69-.93,1.63a22.21,22.21,0,0,1-14.21,10.86c-20.72,5.39-51.21-12.82-51.49-13-21.77-13.9-49.19-18.11-49.51-18.15C146.8,3.47,129.63,21,125.67,26a15.45,15.45,0,0,1,.07-15.85,23.12,23.12,0,0,1,6-6.78L136.52,0l-5.59,1.59c-15.77,4.48-19.29,19.16-20.08,25.58-12.42-8.67-27.32,1.46-27.48,1.57l-3,2.06L84,30.52c10.24-.81,17.51.91,21,5a10.52,10.52,0,0,1,2.42,7.24c-5.15-2.52-13.2,1.06-13.57,1.22l-5.44,2.47,5.93-.6c4.78-.48,6.74,1.72,7.35,2.63-18.5,33.71-2.1,75.88-1.93,76.3l.31.79.7-.16c6-5.74,18.33,4.18,18.33,4.18l.28,1,1,.61c2.1,1.37,3.42,2.44,3.46,2.47l6.74,5.54-5.34-6.9c-.35-.44-.68-.89-1-1.33s-.59-.82-.86-1.22h0c-.3-.43-.57-.85-.83-1.28s-.52-.84-.76-1.25l-.08-.13,0,0c-.14-.24-.28-.47-.4-.71s-.26-.47-.38-.7-.32-.59-.47-.89c-.51-1-1-1.91-1.34-2.8l1.43-.26c.24.23.5.46.75.67s.5.45.76.66c.75.65,1.5,1.24,2.26,1.81,1,.77,2,1.46,3,2.09l1.43.9.71.42c.22.14.45.26.67.39s.45.26.67.37l.65.36.55.29,1.06.54c2.22,1.09,3.89,1.73,4.56,2l.24.07.08,0,5.29,1.77-4.38-3.47a19.49,19.49,0,0,1-1.73-1.53,5.6,5.6,0,0,1-.55-.54,11.13,11.13,0,0,1-.87-.95c-.23-.24-.44-.5-.65-.76s-.32-.4-.47-.61a8.9,8.9,0,0,1-.58-.79.13.13,0,0,1-.05-.06c-.16-.22-.32-.46-.47-.69L133,124c-.13-.21-.26-.42-.38-.64a6.24,6.24,0,0,1-.38-.66c-.11-.19-.22-.39-.31-.57s-.27-.51-.39-.77-.25-.5-.37-.77-.24-.52-.35-.78c-.25-.56-.48-1.12-.7-1.7s-.38-1-.56-1.58c0,0,0-.11-.05-.16-.17-.51-.33-1-.47-1.53,0-.15-.09-.31-.13-.48-.15-.5-.29-1-.4-1.49s-.22-.9-.32-1.37a0,0,0,0,0,0,0c-.13-.67-.27-1.35-.39-2,0-.09,0-.19,0-.28s0-.16,0-.24c0-.34-.11-.69-.16-1,0-.09,0-.16,0-.25-.09-.56-.16-1.13-.23-1.7l0-.25c-.16-1.37-.28-2.75-.37-4.14-.05-.72-.09-1.42-.11-2.14s-.05-1.4-.05-2.09a115.76,115.76,0,0,1,.67-13.73c0-.48.1-1,.16-1.42s.11-.93.16-1.39l.12-.9c.08-.6.17-1.18.25-1.75l.12-.85c.08-.55.17-1.09.26-1.62s.17-1,.25-1.53c.18-1,.35-1.92.51-2.77.08-.42.17-.82.25-1.21s.14-.76.22-1.1c0-.17.07-.33.11-.5.08-.39.17-.74.23-1.07A46.5,46.5,0,0,0,133.74,72c10.58,11.39,26.94,19.32,27.75,19.7l4.63,2.21L163.42,91l-.78-.85c-8.5-9.18-11.12-17.92-11.92-23a0,0,0,0,0,0,0,3.11,3.11,0,0,1-.09-.68c-.07-.56-.13-1.06-.16-1.51l1.17,1c28.29,24.39,75,25.1,75.4,25.1A115.8,115.8,0,0,0,258.57,89a88.86,88.86,0,0,0,16.35-5.07q.66-.27,1.29-.57h0c9.49-4.22,14.12-8.53,14.32-8.72C316.45,50.31,306.42,28.22,306.31,28Zm-205,94.68S94,111.89,96,85.37c0,0,1.72,29.76,9.7,37.51Zm21.82-5.9c-5.1-4.74-31.85-31.93-9.54-62.66,0,0-14.64,31.2,9.79,62.65.17.25.37.48.55.73Z"/><g id="hair_highlights"><path class="cls-6" d="M136.05,0s-19.19,10-10.43,26.14L121.21,29S114.31,10.53,136.05,0Z"/><path class="cls-6" d="M83.26,30.22s21.8-8.45,27.64,9.5c0,0-3.23,2.92-3.23,2.79S109,26.68,83.26,30.22Z"/><path class="cls-6" d="M91.34,45.74c-.26.07,8.07-3.79,11.86,1.24l-1.46,1.37S98.35,43.82,91.34,45.74Z"/><path class="cls-6" d="M195.35,39.24s95.07,40.74,108-3.67C303.36,35.57,302.49,92.49,195.35,39.24Z"/><path class="cls-6" d="M155.25,48.29S190.82,88,249.89,79.55C249.89,79.55,200.09,83,155.25,48.29Z"/><path class="cls-6" d="M140.15,20.91s36-16.17,75,1.73C215.18,22.64,177.88,11.43,140.15,20.91Z"/><path class="cls-6" d="M144,48.94S147.7,78,163.22,91.41C163.22,91.41,139.72,77.61,144,48.94Z"/><path class="cls-6" d="M124,117.49l-.8-.72c-5.1-4.74-31.85-31.93-9.54-62.66,0,0-14.64,31.2,9.79,62.65C123.59,117,123.79,117.24,124,117.49Z"/><path class="cls-6" d="M105.66,122.88l-4.31-.21S94,111.89,96,85.37C96,85.37,97.68,115.13,105.66,122.88Z"/></g><path id="glasses_frames" class="cls-4" d="M285.93,115.09c-.58-2.18-3.72-2.53-10.16-2.9h-.06l-.62,0-1.75-.1H243.9c-4.6.17-7.56,1-9.3,2.6a7,7,0,0,0-2,5c0,1,0,2,.06,3,0,.45,0,.92.06,1.4a27.26,27.26,0,0,0-6-1.82,36.79,36.79,0,0,0-7.54-.62,45.45,45.45,0,0,0-7.48.72,42,42,0,0,0-5.2,1.29c0-.33,0-.65,0-1a28.67,28.67,0,0,0,.06-3,6.45,6.45,0,0,0-2.44-5.13c-2-1.55-5.49-2.34-10.94-2.51H157.84l-2,.1c-8.34.4-12,.67-12.75,2.87a10.29,10.29,0,0,0-.29,1.08H141l-3.29,0c-2.18,0-4.37.09-6.55.17l-1.63.08s0,.11.05.16c.18.54.37,1.06.56,1.58s.45,1.14.7,1.7l.63-.1c2.15-.32,4.29-.63,6.44-.91l3.22-.39,1.52-.17a4.08,4.08,0,0,0,2.66,3.57,9.44,9.44,0,0,1,0,2.31c-.05.55-.1,1.07-.1,1.56l.68,8.65,0,.17c2.58,13.38,13.34,13.38,16.88,13.38h28.77a13.34,13.34,0,0,0,10.56-4.84,15.41,15.41,0,0,0,3.6-9l.66-8c1.88-.37,3.81-.65,5.72-.88a70.7,70.7,0,0,1,7.11-.46,53.62,53.62,0,0,1,7.06.4l1.75.24c.58.1,1.14.24,1.72.34a26.57,26.57,0,0,1,3,.74l.51,7.53c.16,5.84,4,14,12,14h24c8.16,0,12.85-4.39,14.3-13.42l.58-8.78c0-.46,0-1-.08-1.54a11.43,11.43,0,0,1,0-2.41C285.58,121,287,119.19,285.93,115.09Zm-82.33,7.47c0,.84-.1,1.72-.1,2.64l-.7,8.64c-.13,3.7-3.1,11.27-11.54,11.1H162.79c-5.52,0-12.08-1.24-14-10.92l-.65-8.4c0-.37,0-.81.08-1.26.15-1.89.37-4.48-1.72-5.25-.5-.18-1.4-.52-.68-3,1.2-.65,6.36-.9,10.16-1.08l1.93-.09h35.25c4.7.14,7.71.76,9.19,1.9a3.51,3.51,0,0,1,1.32,3A25.84,25.84,0,0,1,203.6,122.56Zm79.06-3.41c-1.81.8-1.64,3.14-1.49,5.19,0,.48.06.94.06,1.25l-.55,8.46c-.88,5.4-2.93,10.89-11.39,10.89H245.57c-6.16.14-9.21-6.53-9.34-11.16l-.58-8.57c0-.92-.05-1.79-.09-2.63s-.1-1.92-.06-2.75a3.94,3.94,0,0,1,1.1-3c1.17-1.08,3.6-1.68,7.36-1.82h29.29l1.66.1.42,0h.07c2.87.16,6.77.42,7.75,1C283.78,118.65,283,119,282.66,119.15Z"/><g id="shirt"><path class="cls-7" d="M180.6,364l-113.71-.08h-3.2l-58.55,0c-.13-64.1,8-81.54,8-81.54,5.13-12.9,24.4-23.57,24.4-23.57,3.08-3.89,63.35-15.94,67.3-16.74.84,6.65,4.57,29.93,17.42,32.12,4.18-10.91,5.53-11.38,11.66-18.28.93-1.05,2.33.11,3.24,1.17,2.7,3.14,4,8.1,7.15,8,6.81-.2,25.84,15.24,33,25.62C178.59,299.45,182.33,325.11,180.6,364Z"/><path class="cls-7" d="M251.47,253l-4.83-1.29Q249.13,252.33,251.47,253Z"/><path class="cls-7" d="M190.28,262.59a94.86,94.86,0,0,0-11,27.3c2.15-11.47,7.55-39.67,9.46-43.29a1.45,1.45,0,0,1,.1-.18,1,1,0,0,1,.06.25C189.24,248.69,190.28,262.59,190.28,262.59Z"/><path class="cls-7" d="M200.44,250.9l-.07,0L195,240.4l-1.29-2.52-.11-.21.07,0,.12.22C195.65,241.56,198.21,246.6,200.44,250.9Z"/><path class="cls-7" d="M282.27,287.68c-2.58-11.36-6.7-18.55-10.56-23.06C276.74,270,280.36,277.37,282.27,287.68Z"/><path class="cls-7" d="M177.26,289.09l-.17-.23c-.13-.21-.27-.4-.42-.6-.89-1.29-1.95-2.69-3.13-4.16l0,0c-8.53-10.54-23.29-24.12-29.17-23.94-3.13.09-4.72-3.24-7.42-6.37-.91-1.07-2.55-2.83-3.34-1.68-5.54,8.11-8.1,11.55-13.65,19.65l0,0c-.14.1-.6-.26-1.18-.83a54.62,54.62,0,0,1-3.73-4.2.36.36,0,0,0,0-.09c-.21-.31-.41-.63-.6-.94l-.06-.1a5.05,5.05,0,0,1-.28-.51c-.13-.21-.25-.43-.37-.64l-.41-.8c-.63-1.28-1.19-2.59-1.71-3.93l-.5-1.35a64.22,64.22,0,0,1-2.59-9.53c0-.13-.05-.26-.07-.39s-.08-.34-.11-.52c-.23-1.22-.42-2.46-.6-3.69-.09-.61-.2-1.23-.32-1.86l0-.17c-.12-.63-.22-1.25-.28-1.87a10.09,10.09,0,0,1-.06-1.09s0-.08,0-.11,0-.06,0-.08,0-.07,0-.09l2.35-2.49-.13.11.13-.14,22.06-23.27c4.25-4.94,10.69-3.22,10.69-3.22a20.36,20.36,0,0,0-1.25,2.58c-.14.35-.28.7-.4,1l0,.09c-.08.24-.17.5-.24.75l-.06.21-.06.18c-.09.31-.16.61-.23.93-.16.64-.3,1.3-.4,2h0c-.09.57-.16,1.12-.22,1.69a.22.22,0,0,1,0,.08s0,.07,0,.11,0,.12,0,.18,0,.11,0,.17,0,.05,0,.08,0,.24,0,.35v.05a.22.22,0,0,1,0,.08v.07a.66.66,0,0,1,0,.14v0c0,.15,0,.29,0,.44v.07c0,.74,0,1.5,0,2.24,0,.23,0,.46,0,.69a33.29,33.29,0,0,0,.39,3.6,37.87,37.87,0,0,0,3.16,10.37v0s0,0,0,.05a.07.07,0,0,0,0,.06s0,0,0,0a.52.52,0,0,0,.06.16.77.77,0,0,0,.07.16.37.37,0,0,0,.07.14l0,.07,0,.05a0,0,0,0,1,0,0,1,1,0,0,1,.07.15v0a0,0,0,0,0,0,0h0l.2.4s0,0,0,.06l.06.11.11.2,0,0c.16.28.33.57.52.84l0,0a1.06,1.06,0,0,1,.1.17l.15.2,1.56,2.15c.32.44.63.88.95,1.31l.08.1.27.39c.13.17.25.33.36.49a5.82,5.82,0,0,1,.38.53c.21.27.42.56.61.83l1.05,1.46c.12.15.22.29.32.44,2.33,3.25,4.64,6.52,7,9.77.28.38.54.75.8,1.12,2.81,4,5.56,8.07,8.39,12.06l.54.79c1.77,2.66,3.58,5.39,5.34,8.08.44.68.9,1.36,1.38,2.05l.16.23a.18.18,0,0,1,.05.08.42.42,0,0,1,.08.12l.22.34.12.18h0a55.11,55.11,0,0,1,2.94,4.67,2.43,2.43,0,0,1,.15.26.75.75,0,0,1,.07.12v0Z"/><path class="cls-7" d="M109.28,236.46,106.93,239v0l2.22-2.35Z"/><path class="cls-7" d="M140.44,232l-.15-.54h0C140.35,231.65,140.39,231.83,140.44,232Z"/><path class="cls-7" d="M141.78,236.08l-.19-.51s0,0,0,0l0,0C141.66,235.75,141.73,235.92,141.78,236.08Z"/><path class="cls-7" d="M142,236.73a3.45,3.45,0,0,1-.14-.34l0,0,0,0C142,236.5,142,236.62,142,236.73Z"/><path class="cls-7" d="M142.65,238.18l0,0v0c-.06-.14-.12-.29-.19-.44l-.06-.15.08.17c0,.07.06.13.08.19Z"/><path class="cls-7" d="M143,238.87l0-.05,0-.07a.13.13,0,0,1,0,.05Z"/><path class="cls-7" d="M143.53,240l0,0-.11-.23a.49.49,0,0,1-.06-.13l.11.2Z"/><path class="cls-7" d="M159.9,263l-2.27-3.22c-.26-.37-.52-.74-.8-1.12q-2-2.83-4.24-6l-.86-1.2-.28-.4-.59-.82a1.13,1.13,0,0,0-.1-.13c-.29-.41-.59-.83-.91-1.26-.1-.15-.2-.29-.32-.44L148.48,247c-.19-.27-.4-.56-.61-.83a5.82,5.82,0,0,0-.38-.53c-.11-.16-.23-.32-.36-.49l-.27-.39-.08-.1c-.32-.43-.63-.87-.95-1.31l-1.56-2.15-.15-.2-.41-.56h0v0h0l.29.38,0,0c1.25,1.7,2.45,3.36,3.61,5l1.49,2.06q2.19,3,4.17,5.8l1,1.44C156.33,257.89,158.2,260.52,159.9,263Z"/><path class="cls-7" d="M167,273.16c-.14-.18-.27-.37-.39-.56l-.54-.79c-1.1-1.61-2.28-3.33-3.57-5.18l-.26-.39C164,268.78,165.54,271.07,167,273.16Z"/><path class="cls-7" d="M173,282.24c-.06-.07-.1-.15-.15-.22-.15-.24-.32-.49-.49-.74-.39-.6-.8-1.23-1.24-1.89-.13-.21-.26-.41-.41-.63l-.14-.21c-.23-.36-.48-.72-.72-1.09s-.61-.91-.93-1.39l-.48-.72c-.17-.25-.35-.5-.51-.75s-.29-.43-.42-.65l.7,1.05.27.38c1.49,2.24,2.79,4.19,3.87,5.87C172.56,281.59,172.77,281.92,173,282.24Z"/><path class="cls-7" d="M173.44,283l-.16-.23a.67.67,0,0,1-.06-.12l.07.12A1.5,1.5,0,0,1,173.44,283Z"/><path class="cls-7" d="M174.74,285l-.17-.28a.36.36,0,0,1,.08.12A.83.83,0,0,1,174.74,285Z"/><path class="cls-7" d="M175.08,285.52l-.09-.13-.24-.38.24.36Z"/><path class="cls-7" d="M176,287l-.15-.22a.41.41,0,0,0,0-.09C175.91,286.84,176,286.94,176,287Z"/><path class="cls-7" d="M177.51,289.48s0-.06-.07-.1l-.06-.1,0-.06-.08-.13-.18-.3-.07-.12a4.85,4.85,0,0,0-.27-.45l-.15-.24c-.1-.18-.21-.35-.32-.54.23.34.41.65.58.92a2.43,2.43,0,0,1,.15.26.75.75,0,0,1,.07.12v0c.12.19.22.34.3.49S177.47,289.42,177.51,289.48Z"/><path class="cls-7" d="M267,261.35c-5.16-2.86-20.45-9.31-65.58-21.62l-.37-.09-1.28-.35-6.07-1.6.12.22c1.86,3.65,4.42,8.69,6.65,13,1.46,2.84,2.78,5.36,3.64,7,0,0,4.08,9.86,1.57,7.92l-.44-.39c-.08-.09-5.42-7.8-5.42-7.8L193,248.34l-2-2.73s-.71-4.41-2.19-10c-1.59-6-4.08-13.3-7.52-17.88h0a17.24,17.24,0,0,0-2.19-1.52c-1,.88-4.29,4.44-2.95,13.09,0,.27.09.55.14.84,0,0,.18.93.44,2.93h0l.17.12-.15,0c.23,1.79.53,4.41.81,8,.75,9.41,1.46,25.41.83,49.93v.2l0-.13c.11.38.22.78.33,1.19l0,.09C184,312.63,182.17,359.52,182,364l69.69.05h23.18C275.63,359.27,287.8,283.1,267,261.35Zm-87.65,28.54c2.15-11.47,7.55-39.67,9.46-43.29a1.45,1.45,0,0,1,.1-.18,1,1,0,0,1,.06.25c.3,2,1.34,15.92,1.34,15.92A94.86,94.86,0,0,0,179.32,289.89Z"/><path class="cls-7" d="M176.8,233.12h0l-.11-.08A.41.41,0,0,0,176.8,233.12Z"/><path class="cls-7" d="M176.8,233.12h0l-.11-.08A.41.41,0,0,0,176.8,233.12Z"/><path class="cls-7" d="M177,233.25l-.15,0s0-.05,0-.08Z"/></g><g id="shirt_shade"><path class="cls-8" d="M176.29,292.15a3,3,0,0,1-2.14,3.08,2.92,2.92,0,0,1-.5,0,2.73,2.73,0,0,1-1.79-.7,4.08,4.08,0,0,1-1.21-2.14,3.91,3.91,0,0,1,.22-2.45,2.66,2.66,0,0,1,1.82-1.53c1.54-.34,3.09.89,3.5,2.79A3.94,3.94,0,0,1,176.29,292.15Z"/><path class="cls-8" d="M179,327.9a3.21,3.21,0,0,1-2.88,3.46c-1.57,0-2.86-1.55-2.86-3.46s1.29-3.47,2.86-3.47A3.22,3.22,0,0,1,179,327.9Z"/><path class="cls-8" d="M178.68,360.61a2.92,2.92,0,1,1-5.74,0c0-1.91,1.28-3.47,2.87-3.47S178.68,358.7,178.68,360.61Z"/><path class="cls-8" d="M133.58,246s-9.45-38,7.63-35.6l-.09.68S129.16,211.12,133.58,246Z"/><path class="cls-8" d="M274.85,364.05c.78-4.78,12.95-80.95-7.88-102.7-5.16-2.86-20.45-9.31-65.58-21.62L213.57,243l1.14.3,2.87.76,1.72.46c2.11.55,4.23,1.12,6.36,1.69l1.89.51,2.2.57c.73.2,1.45.4,2.16.58l8.31,2.21,1.72.46,3.21.86,1.48.39h0l4.83,1.29.35.1.25.07A54.11,54.11,0,0,1,263.25,258l0,0a19,19,0,0,1,3.4,2l.05,0a29.33,29.33,0,0,1,4.95,4.62l0,0c3.86,4.51,8,11.7,10.56,23.06v0a119.89,119.89,0,0,1,2.61,27.76l1.47,49.19-11.54-.37S274.82,364.2,274.85,364.05Z"/><path class="cls-8" d="M63.7,364.08C63.38,362.3,65.29,331,65.29,331s1.63,33.07,1.61,33.07A30.17,30.17,0,0,1,63.7,364.08Z"/><path class="cls-8" d="M251.67,364.08c-.31-1.78,1.59-33.06,1.59-33.06s1.64,33.07,1.62,33.07A30.34,30.34,0,0,1,251.67,364.08Z"/><path class="cls-8" d="M205.65,265.79l-.44-.39c-.08-.09-5.42-7.8-5.42-7.8L193,248.34l-2-2.73s-.71-4.41-2.19-10c-1.59-6-4.08-13.3-7.52-17.88h0l.06,0c.71.37,4.71,2.94,9.78,15l2.47,4.87-.07,0,.11.21L195,240.4l5.37,10.48.07,0c1.46,2.84,2.78,5.36,3.64,7C204.08,257.87,208.16,267.73,205.65,265.79Z"/><path class="cls-8" d="M190.28,262.59a94.86,94.86,0,0,0-11,27.3c2.15-11.47,7.55-39.67,9.46-43.29a1.45,1.45,0,0,1,.1-.18,1,1,0,0,1,.06.25C189.24,248.69,190.28,262.59,190.28,262.59Z"/><path class="cls-8" d="M182,364H180.6c1.73-38.88-2-64.54-3.25-73.33-7.17-10.38-26.2-25.82-33-25.62-3.13.09-4.45-4.87-7.15-8-.91-1.06-2.31-2.22-3.24-1.17-6.13,6.9-7.48,7.37-11.66,18.28C109.44,272,105.71,248.67,104.87,242c-4,.8-64.22,12.85-67.3,16.74,0,0-19.27,10.67-24.4,23.57,0,0-8.16,17.44-8,81.54v.1l-1.81.28c.14-.28-1.8-64.74,11.22-89.41a33.65,33.65,0,0,1,2.61-3.24l.05-.05c12.52-16.13,37.47-19.74,37.7-19.9,6.55-1.4,12.49-2.67,17.89-3.84h.06l5.74-1.38c1.81-.5,14.82-3.18,21.85-4.62l.29-.06,4-.9c0-.26,0-.44,0-.53l4.48-3.74-2.22,2.35v0s0,.05,0,.09,0,.05,0,.08,0,.07,0,.11a10.09,10.09,0,0,0,.06,1.09c.06.62.16,1.24.28,1.87l0,.17c.16,1.12.36,2.48.63,4l.18,1c0,.19.08.37.11.56s.07.34.11.52,0,.26.07.39a64.22,64.22,0,0,0,2.59,9.53l.5,1.35.12.33c.12.31.24.63.37.93.37.92.78,1.81,1.22,2.67.13.28.27.53.41.8l.36.65.29.5.06.1a9.33,9.33,0,0,0,.6.94.36.36,0,0,1,0,.09,17.72,17.72,0,0,0,3.73,4.2c.58.57,1,.93,1.2.84,5.55-8.11,8.11-11.54,13.65-19.65.79-1.16,2.43.61,3.34,1.67,2.7,3.14,4.29,6.47,7.42,6.38,3.72-.11,7.71,3.27,10.45,5.39A113.45,113.45,0,0,1,168,277.74a102.29,102.29,0,0,1,9.55,11.71q-2.59-4.27-5.32-8.47-1.37-2.09-2.77-4.16a25.5,25.5,0,0,0-2.47-3.66c-1.41-2.09-3-4.38-4.76-6.92l-.43-.61-.34-.5a.64.64,0,0,0-.1-.13c-3.18-4.65-6.36-9.28-9.8-13.76s-7.09-9.29-9.43-14.64A37.47,37.47,0,0,1,139,222.9c-.11-3,.22-6.21,2-8.66-2,6.65-.87,13.92,1.78,20.33s6.75,12.1,11,17.58c7.55,9.75,14.94,19.75,20.91,30.57.83,1.5,1.62,3,2.32,4.61.15.35.29.69.41,1V288c0-6.29-.14-31-1.63-47.88-.33-3.79-.73-7.19-1.21-9.91a19.93,19.93,0,0,1-.73-3.8.2.2,0,0,0,0-.07,23.53,23.53,0,0,1-.07-3.19c0-.19,0-.38,0-.58s.07-.59.11-.88.09-.59.14-.9.11-.51.16-.77c0,0,0-.05,0-.08a15.11,15.11,0,0,1,1.4-3.62,13.55,13.55,0,0,1,1-1.58l2.85,1.32a3.17,3.17,0,0,0-.29.22c-1,.88-4.29,4.44-2.95,13.09,0,.27.09.55.14.84,0,0,.18.93.44,2.93a.41.41,0,0,1-.11-.07l.11.08s0,.06,0,.08c.23,1.79.53,4.41.81,8,.75,9.41,1.46,25.41.83,49.93v.2l0-.13c.11.38.22.78.33,1.19l0,.09C184,312.63,182.17,359.52,182,364Z"/></g></svg>