<svg id="Layer_1" data-name="Layer 1" xmlns="http://www.w3.org/2000/svg" viewBox="0 0 383.44 356.39"><defs><style>.cls-1{fill:#85a9cd;}.cls-2{fill:#371847;}.cls-11,.cls-3{fill:#010101;}.cls-4{fill:#35536c;}.cls-5{fill:#434344;}.cls-6{fill:#e42327;}.cls-7{fill:#e2ab90;}.cls-8{fill:#9f4c24;opacity:0.25;}.cls-9{fill:#231f20;}.cls-10{fill:#fff;}.cls-11{opacity:0.23;}.cls-12{fill:#b92025;}</style></defs><g id="shirt"><path class="cls-1" d="M212.69,254.19a11.06,11.06,0,0,0-5.45,2,19.8,19.8,0,0,1,3.66-7.65A49.39,49.39,0,0,0,212.69,254.19Z"/><path class="cls-1" d="M383.41,356.27,0,356.33c1.85-54.62,18.31-74.9,18.31-74.9,15.87-22.87,80.07-30.62,80.07-30.62,19.19-2.74,38.18-8.34,46.67-11h0l0-.05,0-.08s5.16-9.59,9.48-17.21c3.44,20.56,18.73,27.12,19.27,27.34-3.87-8-1.46-19.32-.14-24.11.35.25.72.5,1.1.75,2.82,13.71,17.5,23.18,17.5,23.18,1.38,1.11,2.64,2.24,3.79,3.35l-19-7c-5.64,11.06-3.45,24.25-1.27,32,.29,1.07.59,2,.86,2.87.79,2.36,1.4,3.76,1.4,3.76l2.72-.94,2-.67,14.46-5,0-.06,1.24-.38,8.32-2.87C214,280.27,223,274,223,274l5.63,1.88,14.65,4.88-4.66,3.14-8.11-6.08c3.32,3.42,6.67,6.75,7.64,7.71l.28.27s9.6-1.62,13.31-10.74l-1.41.95h0l-3.33,2.24a24.77,24.77,0,0,0,2.56-5.34c.78.54,1.56,1.06,2.32,1.54a79.38,79.38,0,0,0,9,4.94c7.61,3.3,5.32,10.06,5.21,10.4,16.83-13.72,17.46-31.16,16.34-40.32v0l.13,0h0l7.22,1.1c7.69,9.68,8.32,22,8.32,22a31.29,31.29,0,0,0,12.92-18.93c1,.21,2.06.42,3.09.65,28.72,6.36,59.85,21.66,65.91,51.44C384,325.72,383.41,356.27,383.41,356.27Z"/></g><g id="suspenders"><path id="_accessory_" data-name="&lt;accessory&gt;" class="cls-2" d="M100.76,250.51s35.87,4.82,31.59,105.82l-29.95.06s6.39-90.41-29-100.72Z"/><path class="cls-2" d="M331.56,355.33l-27.37.22s2.95-91-21.85-106.07h.14c.65.05,3.25.24,6.79.59l.43.51c7.69,9.68,8.32,22,8.32,22a31.29,31.29,0,0,0,12.92-18.93l.06-.25c1.1.29,2.12.59,3,.9.42.15.82.3,1.19.45C315.22,254.8,334.35,272.56,331.56,355.33Z"/></g><path id="bowtie" class="cls-2" d="M249.5,272.92a24.77,24.77,0,0,1-2.56,5.34,21.93,21.93,0,0,1-1.55,2.19c-.2.27-.41.54-.64.81l-.24-.08-1.27-.42h0l-14.65-4.88L223,274s-8.92,6.27-16.18.66l-8.32,2.87-1.24.38,0,.06-14.46,5-2,.67-2.72.94s-.61-1.4-1.4-3.76c-.27-.84-.57-1.8-.86-2.87-2.18-7.76-4.37-20.95,1.27-32l19,7a48.16,48.16,0,0,1,10.12,13.43,35.27,35.27,0,0,1,1.12-10.23,11.06,11.06,0,0,1,5.45-2,41.08,41.08,0,0,0,9.68,15.11c.13.12.25.25.38.36.36.35.72.67,1.07,1a35.11,35.11,0,0,0,15.86,8.22,6.47,6.47,0,0,1-.56-.5c-.16-.15-.31-.32-.46-.49a.24.24,0,0,1-.06-.08c-.15-.17-.29-.35-.43-.54s-.27-.38-.4-.59a5,5,0,0,1-.33-.55c-.08-.13-.15-.26-.22-.4s-.2-.37-.29-.57-.2-.42-.29-.64c-.26-.61-.51-1.27-.73-2-.09-.27-.17-.54-.25-.83s-.13-.44-.19-.67-.14-.54-.2-.82c-.19-.77-.35-1.57-.5-2.39-.06-.33-.11-.67-.17-1l-.15-1c-.12-.81-.21-1.62-.3-2.43-.05-.52-.1-1-.14-1.56,0-.19,0-.39,0-.58l-.06-.89c0-.12,0-.23,0-.34,0-.43,0-.85-.07-1.26-.16-3.4-.11-6.33-.06-8l.3-.14c1.25,5.63,5.08,12,5.08,12s.15.26.24.38a8.88,8.88,0,0,0,.56.85c.16.25.34.5.53.74l.23.3.42.54q.39.48.81.93t.69.75c.24.26.5.52.76.77A46.77,46.77,0,0,0,249.5,272.92Z"/><g id="buttons"><ellipse id="_shirt_" data-name="&lt;shirt&gt;" class="cls-3" cx="225.53" cy="308.33" rx="5.03" ry="4.46" transform="translate(-129.2 450.1) rotate(-75.6)"/><ellipse id="_shirt_2" data-name="&lt;shirt&gt;" class="cls-3" cx="226.53" cy="350.33" rx="5.03" ry="4.46" transform="translate(-169.13 482.62) rotate(-75.6)"/></g><g id="shirt_shadows"><path class="cls-4" d="M208.77,276.31s9.5,14.83,6.52,79.89c0,0-1,.13-1,0C215.94,319.45,212.51,285.23,208.77,276.31Z"/><path class="cls-4" d="M176.63,280.81c-11.1-8-24.86-21.31-31.58-41,.72,1.74,9,21.24,30.72,38.16C176.06,279,176.36,280,176.63,280.81Z"/><path class="cls-4" d="M200.92,276.77l-7.7,13.69a83.22,83.22,0,0,1-12.47-6.83l2-.67c2.42,1.6,5,3.16,7.66,4.65l6.8-9.64,0-.06,1.24-.38Z"/><path class="cls-4" d="M251.69,275.06c-3.71,9.12-13.31,10.74-13.31,10.74l-.28-.27c-1-1-4.32-4.29-7.64-7.71l8.11,6.08,4.66-3.14h0l1.27.42.24.08c.23-.27.44-.54.64-.81a21.93,21.93,0,0,0,1.55-2.19l3.33-2.24h0Z"/></g><path id="hat" class="cls-5" d="M310.86,66.24c0,.25,0,.51-.05.77a23.89,23.89,0,0,0-9.9-12.78s-4-2.78-7.52-10.27c0,0-8.39-16.25-14.23-14l-1.39,1.19-.29.24a2.28,2.28,0,0,0-.14-.39.21.21,0,0,0,0-.12,1.88,1.88,0,0,0-.14-.29.89.89,0,0,0-.09-.16,1.06,1.06,0,0,0-.1-.17c-.07-.12-.15-.24-.25-.38a11.51,11.51,0,0,0-4.58-3.51l-.52-.24a23.68,23.68,0,0,0-3.4-1.2q-.43-.13-.9-.24c-.62-.16-1.28-.3-2-.44a92.94,92.94,0,0,0-20-.3c-1,.08-2,.18-3.1.29l-1.14.13-1.16.14-.29,0-.53.07-1.56.22-1.92.3h0l-1.13.19c-.67.11-1.35.23-2,.37q-1.3.24-2.64.54l-2.4.54h0l-2.43.61-1.61.43-1.37.39q-2.53.74-5.13,1.62c-.38.12-.76.25-1.14.4q-1.08.38-2.16.78l-1.75.68c-.74.3-1.49.6-2.24.92-1.09.46-2.19.94-3.3,1.46l-1.41.66c-1,.48-2,1-3.06,1.52-.44.23-.89.46-1.34.71s-1,.56-1.57.85l-1.74,1c-.43.25-.86.5-1.29.77s-.86.51-1.29.78-1,.6-1.47.92-1,.64-1.48,1l-1.47,1-.27.19c-.84.57-1.67,1.16-2.5,1.78q-2.84,2.07-5.63,4.42l-1.05.88-.64.56-1,.91-.94.85c-.41.37-.82.75-1.22,1.14s-.81.76-1.22,1.16l-.71.69A122.67,122.67,0,0,0,161.23,72c-.38.52-.75,1-1.11,1.57-1.18,1.7-2.33,3.45-3.47,5.26-.32.51-.64,1-1,1.55-.44.71-.86,1.42-1.29,2.15a167.44,167.44,0,0,0-12.9,27.79c-3.56-.68-7-.26-9.61,2.46l-.2.22a14.71,14.71,0,0,0-1.78,4.93,22.28,22.28,0,0,0-.17,7.29c0,.18.05.36.09.55l-.09.1-.16.15-.18.15-.35.26a9.72,9.72,0,0,1-2.37,1.16c-4.14,1.05-3.57-2.77-8.3-3.91h-.25c-2.56,0-4.57.26-7,2.47a19.62,19.62,0,0,0-2.33,2.68,56.18,56.18,0,0,0-3.85,6.23l0,.07a1.57,1.57,0,0,0-.14.25,2.5,2.5,0,0,1,.41-.29l0,0c.16-.1.38-.22.66-.37h0l0,0,0,0,.07,0,.12-.07.12-.06.11,0,.39-.19a8.19,8.19,0,0,1,1.36-.47c.19-.05.39-.09.58-.12l.43-.07a11.21,11.21,0,0,1,1.27-.1,15.14,15.14,0,0,1,3.36.3l.34.08a10.58,10.58,0,0,0,1.87.81,9.53,9.53,0,0,0,4.34.45,2.23,2.23,0,0,0,.36-.05,1.91,1.91,0,0,0,.33-.06l.15,0a7.64,7.64,0,0,0,2.25-.82l.06,0a2.17,2.17,0,0,1,0,.26l.14-.06c-.13,0,.87,2.41-2.73,8.92a73.72,73.72,0,0,1-6,8.94c-.57.7-1.08,1.3-1.49,1.76a15.55,15.55,0,0,1-1.23,1.22l.4-.06s.07,0,.22,0h0a13.61,13.61,0,0,0,4.39-1.82h0a4.85,4.85,0,0,0,.64-.4l.1-.07a33,33,0,0,0,5.46-4.58c0,.17-.06.34-.1.51A33.61,33.61,0,0,1,122.4,153l-.27.77-.21.54-.42,1-.21.49c-.07.17-.14.33-.22.48l-.21.46c-3.8,6.26-10.65,10.77-16.1.49-1.15-2.19-2.09-10-4-8.81-4,2.42-7.93-.22-11.89-22-5.68-31.24,11.55-76.9,21.8-88.95,0,0,26.57-40.61,58.17-29.57,0,0,17.89-16.76,49.87-1.53,0,0,72.34-5.33,84.14,31.22C302.89,37.61,311.63,52,310.86,66.24Z"/><g id="hat_shadows"><path class="cls-3" d="M215.61,5.69c-60.86,27.46-78.56,80.21-83.71,107.1l-.2.22a14.71,14.71,0,0,0-1.78,4.93c1.29-26.47,9.58-41.61,9.58-41.61C169.15,16.92,214.21,6,215.61,5.69Z"/><path class="cls-3" d="M110.62,148.5a63.76,63.76,0,0,1-1.79-14.67v-.18a10.1,10.1,0,0,1,1.7-.17v.11a0,0,0,0,0,0,0A115.74,115.74,0,0,0,110.62,148.5Z"/><path class="cls-3" d="M146.31,51.05c-1,1-29.71,30.68-35.11,75a.49.49,0,0,0,0,.12,19.62,19.62,0,0,0-2.33,2.68c0-.12,0-.25,0-.37.7-18.65,7.51-47.91,37.29-77.29Z"/><path class="cls-3" d="M97.91,78.46s21.67-49,74.27-70.89C172.18,7.57,121.88,33.53,97.91,78.46Z"/></g><path id="hair_beard" class="cls-6" d="M314.73,150.6c0,.2,0,.41,0,.61a34.35,34.35,0,0,1,.12,4,33.12,33.12,0,0,1-.28,3.65,42.49,42.49,0,0,1-9.29,21.32,20.64,20.64,0,0,0-5.1-11.1c-8.15-9.12-22.75-9.73-22.75-9.73-3.65,5-4.43,8.07-9.11,6.25l-1.08-.42a55.45,55.45,0,0,1-7.86-3.86c-20.56-5-30.19,18.2-30.19,18.2C211,179.55,199,170,191.88,161c0,.08.1.15.15.23q1.22,1.62,2.52,3.27c.41.52-.71-.57-2.52-3.27q-.32-.41-.6-.81c-1-1.24-1.84-2.46-2.61-3.64-.11-.15-.2-.29-.29-.43A55.69,55.69,0,0,1,183,145.58c-10.16-37-3.17-59.2-2.93-60a36.6,36.6,0,0,1,6.55-12.83c1.49,6.31,7.45,10.12,14.72,9.53,0,0,0-.11,0-.18-.44-1.27-2.79-8.88,2.92-12.79a5,5,0,0,1,3.89-.88l.24-.06c.88-.2,1.89.48,3,1.64.3.23.56.44.77.62,5.18,4.32,8,11.85,17.78,11.85,5.94,0,9.63-5.31,10.56-6.83a13.12,13.12,0,0,1-2.9,0c-2.64,0-6.19-.56-7.64-3.87a13.08,13.08,0,0,1,.81-11.62c5.52-9.27,24.09-10.75,30.62-11.68,7.74-1.09,12.56-3.93,15.08-7.28l.09-.12c.62.52,1.31,1.15,2,1.89,5.65,5.66,14.25,17.42,20.92,31.4a118.28,118.28,0,0,1,5.94,15.22l.09.29c.32,1,.63,2.06.92,3.05l.3,0c3.59-.42,4.19,0,4.52.56A1.24,1.24,0,0,1,311,95l-.16.17.12,0a6.76,6.76,0,0,1,4.76.72l.61.29.2.07.15.16a8.83,8.83,0,0,1,2,3.93c5.28,1.68,11.72-.81,13-5.83-15.21-1.74-16-16.84-20.75-28.25,0,.25,0,.51-.05.77a23.89,23.89,0,0,0-9.9-12.78s-4-2.78-7.52-10.27c0,0-8.39-16.25-14.23-14l-1.39,1.19-.29.24a2.28,2.28,0,0,0-.14-.39.21.21,0,0,0,0-.12l-.14-.29a.89.89,0,0,0-.09-.16,1.06,1.06,0,0,0-.1-.17c-.07-.12-.16-.24-.25-.38a11.51,11.51,0,0,0-4.58-3.51l-.52-.24a23.68,23.68,0,0,0-3.4-1.2q-.43-.13-.9-.24c-.62-.16-1.28-.3-2-.44a92.94,92.94,0,0,0-20-.3c-1,.08-2,.18-3.1.29l-1.14.13-1.16.14-.29,0-.53.07-1.56.22-1.92.3h0l-1.13.19-2,.37q-1.3.24-2.64.54l-2.4.54h0l-2.43.61-1.61.43-1.37.39q-2.53.74-5.13,1.62l-1.14.4q-1.08.38-2.16.78l-1.75.68c-.74.3-1.49.6-2.24.92-1.09.46-2.19.94-3.3,1.46l-1.41.66c-1,.48-2,1-3.06,1.52-.44.23-.89.46-1.34.71s-1,.56-1.57.85l-1.74,1c-.43.25-.86.5-1.29.77s-.86.51-1.29.78l-1.47.92c-.49.31-1,.64-1.48,1l-1.47,1-.27.19c-.84.58-1.67,1.17-2.5,1.78q-2.84,2.07-5.63,4.42l-1.05.88-.64.56-1,.91-.94.85c-.41.37-.82.75-1.22,1.14s-.81.76-1.22,1.16l-.71.69A122.67,122.67,0,0,0,161.23,72c-.38.52-.75,1-1.11,1.57-1.18,1.7-2.33,3.45-3.47,5.26-.32.51-.64,1-1,1.55-.44.71-.86,1.42-1.29,2.15a167.44,167.44,0,0,0-12.9,27.79c.43.08.86.18,1.29.29q.42.1.84.24c.22.06.45.13.67.21a30.64,30.64,0,0,1,4.13,1.71l1.16.59c1.14.6,2.19,1.22,3.12,1.81l.7.45q.54.34,1,.66c.25.17.49.33.7.49.54.38,1,.7,1.25.91l.23.18,0,0a141.9,141.9,0,0,1-2.07-17.48c1.74,13.95,13.8,55.34,14.18,56.63-1.68-3.51-3.16-7-4.46-10.54-.17.54-.34,1-.52,1.54a28.94,28.94,0,0,1-2.23,4.93c-.2.33-.39.64-.59.93l-.35.49c-.18.25-.37.49-.56.71a8.05,8.05,0,0,1-.62.67c-.1.1-.2.2-.31.29a3.84,3.84,0,0,1-.3.28l-.47.36a4.55,4.55,0,0,1-.49.32,5.48,5.48,0,0,1-.67.36l-.28.12a5.9,5.9,0,0,1-.67.23l-.3.07a3.85,3.85,0,0,1-.47.08l-.14,0-.29,0c-6.73.42-13.3-10.53-13.3-10.53-7.92-8.58-11-15.95-11.89-21.64l-.09.1-.16.15-.18.15-.35.26a9.72,9.72,0,0,1-2.37,1.16c-4.14,1.05-3.57-2.77-8.3-3.91h-.25c-2.56,0-4.57.26-7,2.47a19.62,19.62,0,0,0-2.33,2.68,56.18,56.18,0,0,0-3.85,6.23l0,.07,0,.13.32-.17,0,0c.16-.1.38-.22.66-.37h0l0,0,0,0,.07,0,.12-.07.12-.06.11,0a2.33,2.33,0,0,1,.39-.19,8.19,8.19,0,0,1,1.36-.47c.19-.05.39-.09.58-.12l.43-.07a11.21,11.21,0,0,1,1.27-.1,15.14,15.14,0,0,1,3.36.3l.34.08a10.58,10.58,0,0,0,1.87.81,13.66,13.66,0,0,0,4.34.45,2.23,2.23,0,0,0,.36-.05,1.91,1.91,0,0,0,.33-.06l.15,0a7.64,7.64,0,0,0,2.25-.82l.06,0a2.17,2.17,0,0,1,0,.26l.14-.06c-.13,0,.87,2.41-2.73,8.92a73.72,73.72,0,0,1-6,8.94c-.57.7-1.08,1.3-1.49,1.76a15.55,15.55,0,0,1-1.23,1.22l.4-.06.22,0h0a13.61,13.61,0,0,0,4.39-1.82h0l.64-.4.1-.07a33,33,0,0,0,5.46-4.58c0,.17-.06.34-.1.51A33.61,33.61,0,0,1,122.4,153l-.27.77-.21.54-.42,1-.21.49a5.11,5.11,0,0,1-.22.48l-.21.46a32.58,32.58,0,0,1-16.38,15.52c10.5,5.3,20.27-2.07,20.27-2.07-7.6,11-6.77,19.48-6.77,19.48a18.29,18.29,0,0,1,6.66-7.32c4.22-2.23,7.15-1.21,7.15-1.21-7.15,7.6-6.27,19.93-6.27,19.93C126.18,220.26,114,225,114,225c19.78,2.86,25-17.19,25-17.19,3.38,4.95-3.65,14.58-3.65,14.58a23.05,23.05,0,0,0,18.58-11.6,53.35,53.35,0,0,0,.6,11.66c3.44,20.56,18.73,27.12,19.27,27.34-3.87-8-1.46-19.32-.14-24.11.39-1.43.68-2.28.68-2.28a21.66,21.66,0,0,0,.42,3c2.82,13.71,17.5,23.18,17.5,23.18,1.38,1.11,2.64,2.24,3.79,3.35a48.16,48.16,0,0,1,10.12,13.43,35.27,35.27,0,0,1,1.12-10.23,19.8,19.8,0,0,1,3.66-7.65,49.39,49.39,0,0,0,1.79,5.69,41.08,41.08,0,0,0,9.68,15.11,19,19,0,0,0,1.45,1.34,35.11,35.11,0,0,0,15.86,8.22,6.47,6.47,0,0,1-.56-.5c-.16-.15-.31-.32-.46-.49a.24.24,0,0,1-.06-.08c-.15-.17-.29-.35-.43-.54s-.27-.38-.4-.59a5,5,0,0,1-.33-.55c-.08-.13-.15-.26-.22-.4s-.2-.37-.29-.57-.2-.42-.29-.64c-.26-.61-.51-1.27-.73-2-.09-.27-.17-.54-.25-.83s-.13-.44-.19-.67-.14-.54-.2-.82c-.19-.77-.35-1.57-.5-2.39-.06-.33-.11-.67-.17-1l-.15-1c-.12-.81-.21-1.62-.3-2.43-.05-.52-.1-1-.14-1.56,0-.19,0-.39,0-.58l-.06-.89c0-.12,0-.23,0-.34,0-.43,0-.85-.07-1.26-.16-3.4-.11-6.33-.06-8,0-.87.06-1.37.06-1.37q.09.6.24,1.23c1.25,5.63,5.08,12,5.08,12s.15.26.24.38c.18.29.36.57.56.85s.34.5.53.74l.23.3.42.54q.39.48.81.93t.69.75c.24.26.5.52.76.77a46.77,46.77,0,0,0,6.13,5c.78.54,1.56,1.06,2.32,1.54a79.38,79.38,0,0,0,9,4.94c7.61,3.3,5.32,10.06,5.21,10.4,16.83-13.72,17.46-31.16,16.34-40.32v0a38,38,0,0,0-1.24-6.24,28.84,28.84,0,0,1,8.17,6.85l.43.51c7.69,9.68,8.32,22,8.32,22a31.29,31.29,0,0,0,12.92-18.93l.06-.25a45.11,45.11,0,0,0-.23-20.39c15.36,2.6,15.36,14.83,15.36,14.83C358.88,189.58,316.23,151.9,314.73,150.6ZM196.3,183.22c-14.41,23.06-.37,46.53.22,47.5C178,207.23,195.56,184.17,196.3,183.22Zm54.53,80.51h0A34.68,34.68,0,0,1,240,247.91a42,42,0,0,1-2.3-15.18,47.64,47.64,0,0,0,3.73,14.53,46.65,46.65,0,0,0,23.28,23.53A38.14,38.14,0,0,1,250.83,263.73Zm55.36-15.58s3.08-33-19.58-49.54C287.32,198.87,312.71,208.84,306.19,248.15Zm11.6-144.36a67.59,67.59,0,0,0-8.77-.54c.22,1,.42,2,.59,2.91.05.24.09.47.13.69.21,1.07.37,2,.5,2.79l.06.34c.11.58.22,1.15.32,1.74h0l8.09-.33A20.53,20.53,0,0,0,317.79,103.79Z"/><g id="skin"><path id="face" class="cls-7" d="M314.75,151.21c0-.2,0-.41,0-.61-.06-1.7-.14-3.38-.24-5v-.11q-.19-3.5-.45-6.84a44.09,44.09,0,0,1-9.74,1.1s-.65,0-1.74-.1c-5.52-.48-22.47-3.33-24.57-20.28a5.37,5.37,0,0,1,0-1.5,4.38,4.38,0,0,1,.17-.8.24.24,0,0,1,0-.08h0l0-.09.14-.39v0l0,0c0-.09.08-.18.12-.27a3.79,3.79,0,0,1,.18-.34,3.21,3.21,0,0,1,.19-.31,5.92,5.92,0,0,1,4.71-2.66l18-.73,9-.36h.05c-.1-.59-.21-1.16-.32-1.74l-.06-.34q-.63-3.3-1.32-6.39a81.77,81.77,0,0,0-8.31.38,68.22,68.22,0,0,0-17.66,4,1.16,1.16,0,0,1-.4.07,1.75,1.75,0,0,1-.94-.34,11.1,11.1,0,0,1-4.17-8.15l0-.59.52-.3a44.09,44.09,0,0,1,6.64-3.21,1.35,1.35,0,0,1,1.13,0,1.87,1.87,0,0,1,.83,1.3c.54-.28,1.38-.75,2.1-1.15a27.7,27.7,0,0,1,3.05-1.6c.67-.24,1.57-.24,2.12,1.1.6-.26,1.54-.75,2.39-1.2s1.81-1,2.47-1.25a4.64,4.64,0,0,1,.51-.21c1.21-.44,2,.55,2.51,1.14a3.28,3.28,0,0,0,.42.48,24.51,24.51,0,0,1,4.26-.84c-.28-1-.57-2.06-.86-3.06l-.09-.29a118.28,118.28,0,0,0-5.94-15.22c-6.67-14-15.27-25.74-20.92-31.4-.7-.61-1.42-1.2-2.13-1.77-2.52,3.35-7.34,6.19-15.08,7.28-6.53.93-25.1,2.41-30.62,11.68a13.08,13.08,0,0,0-.81,11.62c1.45,3.31,5,3.92,7.64,3.87a15.32,15.32,0,0,0,3.13-.35s-.08.15-.23.4c-.93,1.52-4.62,6.83-10.56,6.83-9.81,0-12.6-7.53-17.78-11.85-.21-.18-.47-.39-.77-.62a8,8,0,0,0-3.25-1.58,5,5,0,0,0-3.89.88c-5.71,3.91-3.36,11.52-2.92,12.79l.06.18h-.05c-7.27.59-13.23-3.22-14.72-9.53A36.6,36.6,0,0,0,180,85.6c-.24.78-7.23,23,2.93,60a55.69,55.69,0,0,0,5.58,10.75c.09.14.18.28.29.43.77,1.18,1.64,2.4,2.61,3.64l.44.57h0c7.16,9,19.08,18.57,37.33,18.57,0,0,9.63-23.21,30.19-18.2a55.45,55.45,0,0,0,7.86,3.86l1.08.42c4.68,1.82,5.46-1.3,9.11-6.25,0,0,14.6.61,22.75,9.73a20.64,20.64,0,0,1,5.1,11.1,42.49,42.49,0,0,0,9.29-21.32,33.12,33.12,0,0,0,.28-3.65C314.84,153.88,314.8,152.54,314.75,151.21ZM196.68,116.82a8.34,8.34,0,0,1,.19-2,.17.17,0,0,1,0-.07c.25-2.17,1.49-6.59,7.5-7.11l49,3.9s3.36,1.1,4.45,3.75l-.18,0-.05-.06s0,0,0,0c-1.33-.38-8.9-2.32-26.78-2.69a7.41,7.41,0,0,1,.89.88,5.82,5.82,0,0,1,1.47,3.88c0,4.77-5.32,8.65-11.86,8.65s-11.86-3.88-11.86-8.65a6.07,6.07,0,0,1,1.72-4.27,6.24,6.24,0,0,1,1-.89c-7.37.2-14.52,1.06-15.3,3.55a3.93,3.93,0,0,0,0,.49A1.66,1.66,0,0,0,196.68,116.82Z"/><path id="ear" class="cls-7" d="M164.29,146.51h0c-.17.53-.34,1-.52,1.54a28.94,28.94,0,0,1-2.23,4.93c-.2.33-.4.64-.59.93l-.35.49c-.19.25-.37.49-.56.71s-.41.46-.62.67-.2.2-.31.29l-.3.28-.47.36c-.16.11-.32.22-.49.32a5.48,5.48,0,0,1-.67.36l-.28.12a5.9,5.9,0,0,1-.67.23l-.3.07a3.55,3.55,0,0,1-.47.08l-.14,0-.29,0c-6.73.42-13.3-10.53-13.3-10.53-7.92-8.58-11-15.95-11.89-21.64,0-.19-.07-.37-.09-.55a22.28,22.28,0,0,1,.17-7.29A14.71,14.71,0,0,1,131.7,113l.2-.22c2.56-2.72,6-3.14,9.61-2.46.43.08.86.18,1.29.29q.42.1.84.24c.22.06.45.13.67.21a30.64,30.64,0,0,1,4.13,1.71l1.16.59c1.14.6,2.19,1.22,3.12,1.81l.7.45q.54.34,1,.66c.25.17.49.33.7.49.54.38,1,.7,1.25.91l.23.18,0,0A163,163,0,0,0,164.29,146.51Z"/></g><g id="skin_shadows"><path class="cls-8" d="M179.39,124.64c2.35,18.62,8.76,30.72,12.48,36.33h0c0,.08.1.15.15.23q-.32-.41-.6-.81-1.37-1.83-2.61-3.64c-.11-.15-.2-.29-.29-.43A55.69,55.69,0,0,1,183,145.58c-10.16-37-3.17-59.2-2.93-60a36.6,36.6,0,0,1,6.55-12.83c1.49,6.31,7.45,10.12,14.72,9.53a1.13,1.13,0,0,0,0,.12s-9.9,3-15.53-7.77C185.6,74.32,175.13,90.81,179.39,124.64Z"/><path class="cls-8" d="M201.28,82.12c-.44-1.27-2.79-8.88,2.92-12.79a5,5,0,0,1,3.89-.88C200.4,70.41,201.08,80.28,201.28,82.12Z"/><path class="cls-8" d="M224.36,83.05c-5.18-1.51-9.63-9.49-13-13,.3.23.56.44.77.62,5.18,4.32,8,11.85,17.78,11.85,5.94,0,9.63-5.31,10.56-6.83h.2C243,75.44,235.93,86.41,224.36,83.05Z"/><path class="cls-8" d="M306.42,92.9h-.06a24.51,24.51,0,0,0-4.26.84,3.28,3.28,0,0,1-.42-.48c-.49-.59-1.3-1.58-2.51-1.14a4.64,4.64,0,0,0-.51.21C295,74.65,288.25,57,276.48,42.83c-1.71,2.09-2.53,3.4-6,5.26C265,51,249.54,50.72,243.78,52.6c-1.77.58-14.13,6.4-13.65,13.53.18,2.74.9,8.67,7.42,9.49-2.64,0-6.19-.56-7.64-3.87a13.08,13.08,0,0,1,.81-11.62c5.52-9.27,24.09-10.75,30.62-11.68,7.74-1.09,12.56-3.93,15.08-7.28l.09-.12c.62.52,1.31,1.15,2,1.89,5.65,5.66,14.25,17.42,20.92,31.4a118.28,118.28,0,0,1,5.94,15.22l.09.29C305.82,90.89,306.13,91.91,306.42,92.9Z"/><path class="cls-8" d="M310.62,111.72h-.05l-9,.36h0c-.27-2.79-.6-5.6-1-8.45a81.77,81.77,0,0,1,8.31-.38h.1c.22,1,.42,2,.59,2.91.05.24.09.47.13.69.21,1.07.37,2,.5,2.79l.06.34C310.41,110.56,310.52,111.13,310.62,111.72Z"/><path class="cls-8" d="M314.59,158.89a42.49,42.49,0,0,1-9.29,21.32,20.64,20.64,0,0,0-5.1-11.1,249.56,249.56,0,0,0,2.36-29.49c1.09.1,1.74.1,1.74.1a43.69,43.69,0,0,0,9.85-1.13c.14,2.25.26,4.54.34,6.87v.11C314.63,149.87,314.68,154.31,314.59,158.89Z"/><path class="cls-8" d="M158.45,142.65a4.06,4.06,0,0,1-5.73.25c-3.39-4.36,2.08-8.1,2.08-8.1-4.52-12.55-13.66-8.5-14.18-8.2,0,0,9.17-.66,11.51,8.15,0,0-3,0-4.78,4.35a6.55,6.55,0,0,0,2.93,7.71c.34.22,6.64,3.48,9-3.26Z"/></g><g id="nose"><path class="cls-9" d="M259.28,153.52s8.55-7.64,15.56-1.62c0,0,5.57,5.34-.23,12.54,0,0,10-8.61.78-15.88C275.39,148.56,268.05,143.29,259.28,153.52Z"/><path class="cls-9" d="M262.13,161.11s-.85-3.82,5.74-1.15Z"/></g><g id="eyes"><g id="eye_whites"><path class="cls-10" d="M258.35,119.88c-1.6,8.89-8,22.09-32.41,20.88,0,0-26.45-.42-29-24.45,0,0,0-.08,0-.12a3.93,3.93,0,0,1,0-.49c.78-2.49,7.93-3.35,15.3-3.55a6.24,6.24,0,0,0-1,.89,6.07,6.07,0,0,0-1.72,4.27c0,4.77,5.32,8.65,11.86,8.65s11.86-3.88,11.86-8.65a5.82,5.82,0,0,0-1.47-3.88,7.41,7.41,0,0,0-.89-.88c17.88.37,25.45,2.31,26.78,2.69a5.1,5.1,0,0,1,.42.92A7,7,0,0,1,258.35,119.88Z"/><path class="cls-10" d="M332.92,117.52s0,0,0,.08c0,.27-.07.54-.11.82-1,7-5,16.86-18.65,20.17l-.11,0a44.09,44.09,0,0,1-9.74,1.1s-.65,0-1.74-.1c-5.52-.48-22.47-3.33-24.57-20.28a5.37,5.37,0,0,1,0-1.5,4.38,4.38,0,0,1,.17-.8c.93-1,5.25-1.69,10.71-2.09a7.69,7.69,0,0,0-1.06,1,5,5,0,0,0-1.38,3.62c.18,3.25,4.08,6.4,10.4,6.4l1.08,0a12.23,12.23,0,0,0,7.36-2.5,6.11,6.11,0,0,0,2.3-4.66c0-.11,0-.21,0-.31a5.33,5.33,0,0,0-1.36-3.25,6.75,6.75,0,0,0-.92-.84c6.84-.09,12.27,0,12.27,0C329.33,113.87,332.31,116.71,332.92,117.52Z"/></g><g id="eyes_black"><path class="cls-3" d="M257.81,115.3c-1.09-2.65-4.45-3.75-4.45-3.75l-49-3.9c-6,.52-7.25,4.94-7.5,7.11a.17.17,0,0,0,0,.07,8.34,8.34,0,0,0-.19,2,1.66,1.66,0,0,1,.23-.63,3.93,3.93,0,0,1,0-.49c.78-2.49,7.93-3.35,15.3-3.55a6.24,6.24,0,0,0-1,.89,6.07,6.07,0,0,0-1.72,4.27c0,4.77,5.32,8.65,11.86,8.65s11.86-3.88,11.86-8.65a5.82,5.82,0,0,0-1.47-3.88,7.41,7.41,0,0,0-.89-.88c17.88.37,25.45,2.31,26.78,2.69,0,0,0,0,0,0l.05.06ZM215.51,117a1.71,1.71,0,1,1,1.71-1.71A1.71,1.71,0,0,1,215.51,117Z"/><path class="cls-3" d="M217.22,115.26a1.71,1.71,0,1,1-1.71-1.71A1.72,1.72,0,0,1,217.22,115.26Z"/><path class="cls-3" d="M257.63,115.25h0s0,0,0,0Z"/><path class="cls-3" d="M333.05,117.74l0-.07-.09-.15c-.61-.81-3.59-3.65-15.35-3.16,0,0-5.43-.09-12.27,0a6.75,6.75,0,0,1,.92.84,5.33,5.33,0,0,1,1.36,3.25c0,.1,0,.2,0,.31a6.11,6.11,0,0,1-2.3,4.66,12.23,12.23,0,0,1-7.36,2.5l-1.08,0c-6.32,0-10.22-3.15-10.4-6.4a5,5,0,0,1,1.38-3.62,7.69,7.69,0,0,1,1.06-1c-5.46.4-9.78,1.06-10.71,2.09a.24.24,0,0,1,0-.08h0l0-.09.14-.39v0l0,0c0-.09.08-.18.12-.27a3.79,3.79,0,0,1,.18-.34,3.21,3.21,0,0,1,.19-.31,5.92,5.92,0,0,1,4.71-2.66l18-.73,9-.36h.05l8.09-.33,1.37-.06,7.05-.28h.28l.16,0h.05l.38.06a9.45,9.45,0,0,1,1.55.44l.09,0A5,5,0,0,1,333.05,117.74Z"/><path class="cls-3" d="M318.71,111.4l-8.09.33h-.05l-9,.36-18,.73a5.92,5.92,0,0,0-4.71,2.66,5.7,5.7,0,0,1,4.63-2.68l18.08-.72,9-.36h.05Z"/><path class="cls-3" d="M327.27,111.07h0Z"/></g><g id="eye_shadow"><path class="cls-11" d="M212.19,112.15a6.24,6.24,0,0,0-1,.89c-6.68.23-13,1-14.27,3.15a3.93,3.93,0,0,1,0-.49C197.67,113.21,204.82,112.35,212.19,112.15Z"/><path class="cls-11" d="M258.17,116.2l-.15,0c-1.13-.32-8.75-2.3-26.31-2.73a7.41,7.41,0,0,0-.89-.88c17.88.37,25.45,2.31,26.78,2.69,0,0,0,0,0,0l.05.06A4.24,4.24,0,0,1,258.17,116.2Z"/><path class="cls-11" d="M288.89,115a7.69,7.69,0,0,0-1.06,1c-4.69.4-8.45,1-9.82,1.91a2.31,2.31,0,0,0-.23.18,5.36,5.36,0,0,1,.59-1.55l-.14.39,0,.09h0a.24.24,0,0,0,0,.08C279.11,116,283.43,115.35,288.89,115Z"/><path class="cls-11" d="M333,117.67a6.14,6.14,0,0,1-.1.93,1.92,1.92,0,0,0-.11-.18c-.54-.75-3.41-3.7-15.37-3.2,0,0-4.87-.08-11.21,0a6.75,6.75,0,0,0-.92-.84c6.84-.09,12.27,0,12.27,0,11.76-.49,14.74,2.35,15.35,3.16Z"/></g><g id="eye_highlights"><path class="cls-10" d="M217.22,115.26a1.71,1.71,0,1,1-1.71-1.71A1.72,1.72,0,0,1,217.22,115.26Z"/><circle class="cls-10" cx="292.02" cy="117.41" r="1.61"/></g></g><g id="hair_shadows"><path class="cls-12" d="M164.29,146.52h0a163,163,0,0,1-7.65-28.6,141.9,141.9,0,0,1-2.07-17.48c1.74,13.95,13.8,55.34,14.18,56.63C167.07,153.55,165.59,150,164.29,146.52Z"/><path class="cls-12" d="M271.27,172.31c-.54-.17,16.48,9,28.18,19.58,0,0,5.07-2.82,5.49-11.55,0,0-.7,7.18-5.35,8.45C299.59,188.79,283.67,176.11,271.27,172.31Z"/><path class="cls-12" d="M269.3,172.45s-17.48,4.22-27.9,17.47c0,0-8.46,1.13-12-9.3,0,0,4.79,8.31,10.85,7.61A46.58,46.58,0,0,1,269.3,172.45Z"/><path class="cls-12" d="M306.19,248.15s3.08-33-19.58-49.54C287.32,198.87,312.71,208.84,306.19,248.15Z"/><path class="cls-12" d="M250.83,263.73h0A34.68,34.68,0,0,1,240,247.91a42,42,0,0,1-2.3-15.18,47.64,47.64,0,0,0,3.73,14.53,46.65,46.65,0,0,0,23.28,23.53A38.14,38.14,0,0,1,250.83,263.73Z"/><path class="cls-12" d="M321.38,163.82C320.67,163,339,183,329.31,216,329.31,216,335.26,180.11,321.38,163.82Z"/><path class="cls-12" d="M196.52,230.72c-18.5-23.49-1-46.55-.22-47.5C181.89,206.28,195.93,229.75,196.52,230.72Z"/><path class="cls-12" d="M257.09,30.83s.88,8.81-30.6,13c0,0-25.1,5.94-26.43,15.41,0,0-1.1-9.25,28.85-17.83C228.91,41.4,254.67,37.87,257.09,30.83Z"/><path class="cls-12" d="M151.4,175.49s-17.83,2.42-19.37,24C132,199.49,134,184.08,151.4,175.49Z"/></g><path id="mouth" class="cls-9" d="M280,178.08s-10.14,8.32-21.55-.84C258.45,177.24,268.45,192.59,280,178.08Z"/><g id="eyebrows"><path class="cls-3" d="M256.22,107.38a1.24,1.24,0,0,1-1.56.91,245.16,245.16,0,0,0-26.06-5.92c-14.19-2.28-30.26-.33-30.42-.31l-2.41.3,5.63-7.15.17-.09c.21-.13,5.23-3,13.87-.73,1.36.36,1.69-.15,2.19-.92a2.21,2.21,0,0,1,1.64-1.26c1.45-.12,3.44.67,5.36,1.44a13.12,13.12,0,0,0,3.79,1.18,2.6,2.6,0,0,0,.48-.06,4.17,4.17,0,0,0-.13-.42,1.54,1.54,0,0,1,.11-1.64,1.3,1.3,0,0,1,1.34-.33c2,.47,4.65,1.1,7.16,1.72a1,1,0,0,1,.1-.83c.47-.83,1.52-.55,2-.42a18.58,18.58,0,0,1,5.06,2.44,25.38,25.38,0,0,0,2.72,1.53,1.07,1.07,0,0,1,.22-.67c.52-.72,1.43-.4,1.77-.28,2.81,1,5.14,1.91,6.91,2.75C257.76,99.37,256.53,106.6,256.22,107.38Z"/><path class="cls-3" d="M319.23,104.08l-1.36-.28h-.08a67.59,67.59,0,0,0-8.77-.54h-.1a81.77,81.77,0,0,0-8.31.38,68.22,68.22,0,0,0-17.66,4,1.16,1.16,0,0,1-.4.07,1.75,1.75,0,0,1-.94-.34,11.1,11.1,0,0,1-4.17-8.15l0-.59.52-.3a44.09,44.09,0,0,1,6.64-3.21,1.35,1.35,0,0,1,1.13,0,1.87,1.87,0,0,1,.83,1.3c.54-.28,1.38-.75,2.1-1.15a27.7,27.7,0,0,1,3.05-1.6c.67-.24,1.57-.24,2.12,1.1.6-.26,1.54-.75,2.39-1.2s1.81-1,2.47-1.25a4.64,4.64,0,0,1,.51-.21c1.21-.44,2,.55,2.51,1.14a3.28,3.28,0,0,0,.42.48,24.51,24.51,0,0,1,4.26-.84h.06l.3,0c3.59-.42,4.19,0,4.52.56A1.24,1.24,0,0,1,311,95l-.16.17.12,0a6.76,6.76,0,0,1,4.76.72l.61.29.2.07.15.16a8.83,8.83,0,0,1,2,3.93,18,18,0,0,1,.46,2.38Z"/></g></svg>