<svg id="Layer_1" data-name="Layer 1" xmlns="http://www.w3.org/2000/svg" viewBox="0 0 286.14 378.02"><defs><style>.cls-1{fill:#e2ab90;}.cls-2{fill:#c98c73;}.cls-3{fill:#a3b99e;}.cls-4{fill:#799374;}.cls-5{fill:#9f4c24;}.cls-6{fill:#84331b;}.cls-7{fill:#fff;}.cls-8{fill:#231f20;}.cls-9{fill:#010101;}.cls-10{fill:#c4c4c4;}.cls-11{fill:#a5a5a5;opacity:0.83;}.cls-12{fill:#e0e0e0;}.cls-13{fill:#fef8e7;}</style></defs><g id="skin"><path id="arms" class="cls-1" d="M286,327v.83l0,7.36C286,332.29,286,329.56,286,327Zm-10.17,50.9s2.52-59.42-3.63-86.48a12,12,0,0,1,1.48,1.09c-5.13-4.76-12.28-8.81-22.19-12.47l-4.16-1,2.36.67h0a58.65,58.65,0,0,1,3.66,11.43,1.55,1.55,0,0,1,0,.21c.29,1.77.56,3.79.81,6.1a.62.62,0,0,0,0,.13,263.3,263.3,0,0,1,1.05,30.27s1.88,25.57,3.39,40.91a2.3,2.3,0,0,1,0,.26c.38,3.86.74,7.05,1,9h24.24ZM120,288.67a3.75,3.75,0,0,0,.42.62c.06-.11.12-.22.19-.33A4.85,4.85,0,0,1,120,288.67Zm9.81-3.46a5.23,5.23,0,0,0-2.32-3.54c0,.13.06.27.08.4s0,.22,0,.34a4.93,4.93,0,0,1,.2.8,5.25,5.25,0,0,1-.72,3.64,5.24,5.24,0,0,1,2.18,1.68A5.22,5.22,0,0,0,129.82,285.21Zm-7,12,0,0,0,0Zm7.31-7.08a1.07,1.07,0,0,1,.08.27,5.28,5.28,0,0,1,.08,4.35,5.22,5.22,0,0,1,2,2,5.31,5.31,0,0,0,.44-2.11A5.25,5.25,0,0,0,130.11,290.1Zm-4.93,14.83a4.44,4.44,0,0,0,.41.62,3.45,3.45,0,0,1,.14-.34Zm7.56-7a4.59,4.59,0,0,1,.17,1.12h0a4.71,4.71,0,0,1,.16,1.25,5.25,5.25,0,0,1-.47,2.17,5.3,5.3,0,0,1,2.13,1.67,5.1,5.1,0,0,0,.34-1.84A5.3,5.3,0,0,0,132.74,298Zm-2.53,24.09a4.57,4.57,0,0,0,.47.68c0-.13.1-.26.16-.38A3.64,3.64,0,0,1,130.21,322.05Zm7.88-6.73a5.29,5.29,0,0,1,.08.9,4.81,4.81,0,0,1-.1,1h0a1.34,1.34,0,0,1,0,.2,5.25,5.25,0,0,1-.5,2.24,5.28,5.28,0,0,1,2.16,1.62,5.21,5.21,0,0,0,.34-1.86A5.28,5.28,0,0,0,138.09,315.32Zm2.68,8.12a3.2,3.2,0,0,1,.09.54h0a5.08,5.08,0,0,1,.37,1.91,5,5,0,0,1-.5,2.22,5.27,5.27,0,0,1,2.26,1.34,5,5,0,0,0,.24-1.56A5.28,5.28,0,0,0,140.77,323.44Zm-7.43,7.05a5,5,0,0,0,.88,1.14,3.84,3.84,0,0,1,.25-.67A4.9,4.9,0,0,1,133.34,330.49Zm2.34-24.29a4.88,4.88,0,0,1,.12.78,5.15,5.15,0,0,1,.26,1.63,5.31,5.31,0,0,1-.84,2.87,5.23,5.23,0,0,1,2.09,1.84,5.2,5.2,0,0,0,.75-2.71A5.27,5.27,0,0,0,135.68,306.2Zm-7.5,7,.18.31a1.4,1.4,0,0,1,.1-.16A1.51,1.51,0,0,1,128.18,313.2Zm-.86-36.82a5.24,5.24,0,0,0-1.72-3.09,5,5,0,0,1-.23,2.35s0,0,0,0,0,0,0,0a5.09,5.09,0,0,1-.84,2.44,5.26,5.26,0,0,1,2.15,1.76A5.18,5.18,0,0,0,127.32,276.38Zm-9.81,3.46a5.16,5.16,0,0,0,.29.46,1.58,1.58,0,0,1,.15-.24A3.61,3.61,0,0,1,117.51,279.84Zm8.75-12.66a5.21,5.21,0,0,0-1.64-3,2.8,2.8,0,0,1,.06.28,5.32,5.32,0,0,1-.84,3.84l0,.07a4.69,4.69,0,0,1-.74,1.13,5.22,5.22,0,0,1,2,2A5.25,5.25,0,0,0,126.26,267.18Zm.68-9.34c-.15-.91-.53-1.18-1.06-1.09a5.05,5.05,0,0,1-.42,1.72h0a4,4,0,0,1-.24.46,5.2,5.2,0,0,1-2.44,2.26,5.12,5.12,0,0,1,1.57,2.09,5.27,5.27,0,0,0,1.92-1.89,5.14,5.14,0,0,0,.7-2.07A5.34,5.34,0,0,0,126.94,257.84Zm10.38,80.93a5.22,5.22,0,0,0,1.08,1.35,4.88,4.88,0,0,1,.26-.82A4.75,4.75,0,0,1,137.32,338.77Zm7.18-7.2a5.24,5.24,0,0,1,.66,3.12,5.08,5.08,0,0,1-.38,1.51,5,5,0,0,1,2.26,1.19,3.94,3.94,0,0,0,.12-.7A5.27,5.27,0,0,0,144.5,331.57Zm4,7.81a5.29,5.29,0,0,1,.68,2.59,5,5,0,0,1-.21,1.46,5.32,5.32,0,0,1,2.15,1.27,4.4,4.4,0,0,0,.06-.73A5.26,5.26,0,0,0,148.54,339.38Zm-7.2,7.18a5.32,5.32,0,0,0,.89,1.17,4.18,4.18,0,0,1,.15-.72A4.81,4.81,0,0,1,141.34,346.56Zm6.49,7.91a5,5,0,0,1-2.48-.68,5.26,5.26,0,0,0,2.58,2.3A5.13,5.13,0,0,1,147.83,354.47Zm4.7-7.86a5.19,5.19,0,0,1,.69,2.59,3.87,3.87,0,0,1,0,.48,5.48,5.48,0,0,1,.89.09,4.93,4.93,0,0,1,1,.31A5.21,5.21,0,0,0,152.53,346.61Zm6,6.31a4.91,4.91,0,0,1,.57,1.51,4.9,4.9,0,0,1,1-.11A5.09,5.09,0,0,0,158.5,352.92ZM155,360.69a5.19,5.19,0,0,1-1.12.12,5.29,5.29,0,0,1-2.59-.68,5.26,5.26,0,0,0,4.59,2.68H156A5.16,5.16,0,0,1,155,360.69Zm27.62-99.82a.4.4,0,0,1,0,.11.25.25,0,0,1,0,.08V261S182.65,260.9,182.65,260.87Zm0,.43c0,.15,0,.32,0,.52h0A3.17,3.17,0,0,0,182.67,261.3ZM164,364.59a5.25,5.25,0,0,1-5.71.33,5.3,5.3,0,0,0,4.6,2.69,5.2,5.2,0,0,0,2.51-.64A5,5,0,0,1,164,364.59Zm1.49-6.85a5,5,0,0,1,.57,1.55,4.66,4.66,0,0,1,.77-.47A4.86,4.86,0,0,0,165.44,357.74Zm35.8-24.1a4.71,4.71,0,0,1,.16,1.25,3.44,3.44,0,0,1,0,.46h0a.09.09,0,0,1,0,.07,3.44,3.44,0,0,1,0,.46,5.25,5.25,0,0,1-2.53,4.5,5,5,0,0,1,1.26,2.38,5.27,5.27,0,0,0,1.11-9.13Zm3.09-12.41a5.27,5.27,0,0,0-2.16-4.26,4.78,4.78,0,0,1,.16,1.26,3.44,3.44,0,0,1,0,.46v0s0,0,0,.06a3.44,3.44,0,0,1,0,.46,5.28,5.28,0,0,1-1.49,3.68,5.1,5.1,0,0,1,.77,1.73,4.15,4.15,0,0,1,.15,1.12.66.66,0,0,1,0,.14,3.44,3.44,0,0,1,0,.46h0a.09.09,0,0,1,0,.07,3.55,3.55,0,0,1,0,.46,5.28,5.28,0,0,1-2,4.16,5.13,5.13,0,0,1,1.44,2.38,5.28,5.28,0,0,0,1.19-8.11A5.27,5.27,0,0,0,204.33,321.23Zm-3.08-40.92a5,5,0,0,1,.15,1.23,3.55,3.55,0,0,1,0,.46.11.11,0,0,1,0,.08,3.44,3.44,0,0,1,0,.46,5.25,5.25,0,0,1-1.66,3.83,5.22,5.22,0,0,1,1.85,2.13,5.24,5.24,0,0,0-.34-8.19Zm-2.21-14-2-.61a4.85,4.85,0,0,1-.56,1.63,5.38,5.38,0,0,1,2.17,1.66,5.21,5.21,0,0,0,.48-2.2A2.36,2.36,0,0,0,199,266.27Zm.51,4.66a4.71,4.71,0,0,1,.16,1.25,3.55,3.55,0,0,1,0,.46.11.11,0,0,1,0,.08,3.44,3.44,0,0,1,0,.46,5.22,5.22,0,0,1-1.39,3.56,5.24,5.24,0,0,1,2.16,1.82,5.26,5.26,0,0,0-.93-7.63Zm2.4,18.59a4.93,4.93,0,0,1,.14,1.68v0a6.28,6.28,0,0,1,0,1,5.25,5.25,0,0,1-2.47,4.05,5.07,5.07,0,0,1,1.81,2.1,5.26,5.26,0,0,0,.52-8.83Zm1.88,13a5.21,5.21,0,0,0-2-3.11l0,.11a5.44,5.44,0,0,1,.1,1.65v0a5.29,5.29,0,0,1-1.41,4.1,5.3,5.3,0,0,1,1.57,2.39A5.25,5.25,0,0,0,203.83,302.49ZM202.17,308a5,5,0,0,1,.14,1.7v0a5.13,5.13,0,0,1,0,1,5.23,5.23,0,0,1-1.81,3.55,5.23,5.23,0,0,1,1.56,2.34,5.27,5.27,0,0,0,.11-8.59Zm-.46,39.08a5.27,5.27,0,0,0-1.47-3.65,4.89,4.89,0,0,1,0,.54,5.28,5.28,0,0,1-.89,2.94h0a5.13,5.13,0,0,1-1.72,2.33,5.09,5.09,0,0,1,.43,2h0a.28.28,0,0,1,0,.09,4.28,4.28,0,0,1-.06.72,5.16,5.16,0,0,1-2,3.47h0a5.06,5.06,0,0,1-2,1.61,5,5,0,0,1,.24,1.55,5.29,5.29,0,0,1-.08.9,5.26,5.26,0,0,0,5-5.26,5.15,5.15,0,0,0-.6-2.44A5.29,5.29,0,0,0,201.71,347.06Zm-7.59,12.67a5.26,5.26,0,0,1-5.18,4.28,4.71,4.71,0,0,1-1-.1,4.78,4.78,0,0,1-1,.1,4.17,4.17,0,0,1-.71-.06,4.1,4.1,0,0,1-1.11-.27,3.18,3.18,0,0,1-.14.53,5.29,5.29,0,0,1-5,3.58,3.44,3.44,0,0,1-.46,0h-.08a3.44,3.44,0,0,1-.46,0,5.06,5.06,0,0,1-2.3-.54.89.89,0,0,1-.29-.15,0,0,0,0,1,0,0h0a5.06,5.06,0,0,1-1.46-1.22,5.93,5.93,0,0,1-4.62,2.79,5.12,5.12,0,0,1-.56,0l-.54,0a6.18,6.18,0,0,1-1.93-.44,5.29,5.29,0,0,0,9.34-.75,5.28,5.28,0,0,0,9.6-2.23,5.28,5.28,0,0,0,8-4.51A4.78,4.78,0,0,0,194.12,359.73Zm-6.18-6.18H188v0Zm-72.21-93.4c-1.71.57-3.58,1.19-5.59,1.84l5.64-1.79ZM50.91,279l11.28-3c-2.73.69-5.49,1.38-8.26,2,0,0-37.32,8.46-45.14,26.16,0,0-9.73,11-8.72,73.85h56.7l-3.61-.28s8.59-35.34,6.94-72.66c0,0,1.87,2.21.55,28.87.65-10.08.72-13.58.72-13.58C62.43,287.14,50.91,279,50.91,279Zm228.14,19.83a44,44,0,0,1,5.82,15.59A39.28,39.28,0,0,0,279.05,298.85Zm-97-68.06c.11-.15.2-.26.25-.34Z"/><path id="face" class="cls-1" d="M255.79,114.34c-.15-.68-.3-1.36-.46-2q-.75-3.27-1.68-6.48c-32.41,2.46-83.42,4.85-118.75-.58a152.8,152.8,0,0,0-2.32,17.16q-.11,4.28-.32,8.55c1-.05,2.08-.07,3.12-.1,2,0,4,0,5.92.09s3.92.21,5.88.36c1,.1,2,.17,2.93.28l1.47.15c.15,0,.3,0,.45,0,4.14-10.25,14.5-17.16,26.27-17.16,13.37,0,24.6,8.94,27.46,20.88a18.55,18.55,0,0,1,3-1.31,17.73,17.73,0,0,1,4.9-.94,13.4,13.4,0,0,1,5.11.76,9.32,9.32,0,0,1,2.59,1.37c3.3-11.16,14.06-19.36,26.79-19.36a29,29,0,0,1,8.25,1.19C256.2,116.26,256,115.29,255.79,114.34Zm-7.65,54.84c-15.35,0-27.84-11.92-27.84-26.57a24.53,24.53,0,0,1,.28-3.75,6.31,6.31,0,0,0-1.2-.58l-.88-.37-.92-.26a13.77,13.77,0,0,0-3.81-.47,19.81,19.81,0,0,0-4,.54,26.69,26.69,0,0,0-3.46,1.07,24.39,24.39,0,0,1,.15,2.72c0,14.83-12.64,26.89-28.17,26.89s-28.17-12.06-28.17-26.89a26,26,0,0,1,.17-2.93l-1-.12c-1-.12-1.94-.27-2.92-.4-1.94-.3-3.88-.61-5.81-1s-3.86-.78-5.78-1.25c-.92-.24-1.84-.48-2.76-.74-.44,8.6-1,17.2-1.09,25.79,0,0-.47,31.24,3.14,58a41.26,41.26,0,0,0,4.79,2.67c.27.14.52.25.77.36l.06,0c.87.32,2.42.86,4.64,1.53a199.33,199.33,0,0,0,30.27,4.36h0c21.48,1.49,49.67,0,68.62-14.09,0,0,11.45-4.85,15.41-29.51,0,0,0-.05,0-.14a.38.38,0,0,1,0-.1c0-.23.07-.65.13-1.23q0-.28.06-.63v0q0-.41.09-.9c.21-2.36.49-6,.7-10.56,0-.78.07-1.6.1-2.44,0-.48,0-1,.05-1.46A28.3,28.3,0,0,1,248.14,169.18Zm-71.3,29.28s-8.9-13.83,13.41-21.75c0,0,5.24,17.8,18.82,20.82C209.07,197.53,188.07,213.73,176.84,198.46Zm28.1-23.08s-.86-3.82,5.73-1.15Zm17.15-5.06a5,5,0,0,1-.06.54c0,.23-.07.45-.11.67a9.75,9.75,0,0,1-.31,1.09c-.06.15-.11.31-.17.46l-.08.2-.15.33c-.07.16-.15.33-.23.49s-.17.32-.26.48a3.38,3.38,0,0,1-.24.41,15.74,15.74,0,0,1-1.25,1.78c-.21.26-.41.5-.6.71a15.15,15.15,0,0,1-1.11,1.13l-.06.06,0,0q.45-.57.81-1.11c.09-.13.17-.26.25-.39s.19-.3.27-.45l0,0c.12-.22.23-.43.33-.64a5.58,5.58,0,0,0,.31-.72q.12-.28.21-.57c0-.15.09-.31.13-.46s.05-.19.07-.28a1.57,1.57,0,0,0,.06-.28,7.75,7.75,0,0,0,.14-.93c0-.32,0-.64,0-.94A4.94,4.94,0,0,0,220,171s0,0,0,0,0-.26-.06-.39-.08-.39-.13-.57a5.76,5.76,0,0,0-.18-.59,4.72,4.72,0,0,0-.16-.45,7.56,7.56,0,0,0-.42-.9c-.07-.14-.15-.27-.22-.39l-.22-.35a6.94,6.94,0,0,0-.52-.71,1.27,1.27,0,0,0-.14-.17l-.06-.07a.77.77,0,0,0-.12-.13l-.1-.11c-6.85-5.89-15.18,1.28-15.55,1.61.34-.39.67-.76,1-1.11l.44-.44c.18-.19.37-.37.55-.54l.58-.52.59-.5.09-.07.67-.51.59-.41.15-.1.48-.3c.21-.13.42-.24.62-.35l.6-.3.46-.21.68-.27.54-.18a9.22,9.22,0,0,1,1.15-.29l.53-.09a4.43,4.43,0,0,1,.51-.06l.4,0h.59l.52,0a2.22,2.22,0,0,1,.37,0,3.93,3.93,0,0,1,.48.06h0a1.61,1.61,0,0,1,.33.06l.28,0a8.67,8.67,0,0,1,2.18.76l.24.12a4,4,0,0,1,.43.26c.3.23.57.47.83.7l.37.35c.23.23.45.46.64.69s.22.26.32.39a3.43,3.43,0,0,1,.24.33,4.27,4.27,0,0,1,.3.44,4,4,0,0,1,.27.44c.07.13.14.26.2.39s.14.31.2.45.1.25.14.38a4.26,4.26,0,0,1,.15.47c0,.15.08.3.11.46l.06.35c0,.14,0,.27,0,.41a2.83,2.83,0,0,1,0,.41v.13a1,1,0,0,1,0,.17C222.11,170,222.1,170.15,222.09,170.32Z"/><path id="neck" class="cls-1" d="M182.69,261.83c.61,20.78-25.22,20.13-25.22,20.13-21.7-.63-28.86-13.56-31.2-20.56a5.14,5.14,0,0,0,.7-2.07,5.34,5.34,0,0,0,0-1.49c-.15-.91-.53-1.18-1.06-1.09a.15.15,0,0,0,0-.07l2.37-.84c.49-.3,1.69-2.18,3.11-5,.21-.41.41-.83.63-1.28,5.29,2.3,8.54,3.38,8.54,3.38a17.82,17.82,0,0,1-1.63-2.21c3.39,1.39,5.43,2.08,5.62,2.14-3.08-3.57-5.48-9.72-7.33-17.19,0,.88-1.39,4.64-2.12,6.61a.08.08,0,0,0,0,0c2.41-6.57,4.39-14.35,3.83-20.65a.17.17,0,0,1,0-.07c.27.14.52.25.77.36l-.75-.28c10.57,13.15,26.05,27.07,35.45,35.1,2.6,2.22,4.73,4,6.17,5.17l2,1.64a12,12,0,0,0,.12-1.67Z"/></g><g id="skin_shade" data-name="skin shade"><path class="cls-2" d="M267.79,123.78a28.05,28.05,0,0,0-10.61-6.32c-.26-.09-.52-.17-.79-.24-.19-1-.39-1.93-.6-2.88-.15-.68-.3-1.36-.46-2q-.75-3.27-1.68-6.48c3.2-.24,6.22-.48,9-.72.26.76.51,1.54.76,2.33.12.39.25.79.37,1.2q.57,1.81,1.11,3.75C265.91,115.9,266.89,119.7,267.79,123.78Z"/><path class="cls-2" d="M134.9,105.25a152.8,152.8,0,0,0-2.32,17.16q-.11,4.28-.32,8.55c-.95,0-1.89.11-2.84.21l-1.18.14c.14-3,.26-5.93.34-8.9A150.35,150.35,0,0,1,131,104.62C132.29,104.84,133.59,105.05,134.9,105.25Z"/><path class="cls-2" d="M134.1,218.83c-.72-.46-1.46-1-2.2-1.52s-1.48-1.13-2.22-1.77c-3.15-25.93-2.72-54.66-2.72-54.67.13-9,.71-18,1.16-27.05l.95.33c1,.35,2,.66,3,.93-.44,8.6-1,17.2-1.09,25.79C131,160.88,130.49,192.11,134.1,218.83Z"/><path class="cls-2" d="M131.9,217.31c-.74-.49-1.47-1-2.2-1.59a1.1,1.1,0,0,0,0-.18C130.42,216.18,131.17,216.77,131.9,217.31Z"/><path class="cls-2" d="M144.53,252.84c-.19-.06-2.23-.75-5.62-2.14a39.44,39.44,0,0,1-3.83-8.44c.73-2,2.12-5.73,2.12-6.61C139.05,243.12,141.45,249.27,144.53,252.84Z"/><path class="cls-2" d="M273.78,182.58a13.57,13.57,0,0,1-.13,1.88c0,.23-.06.6-.12,1.09l0,.26c-.07.62-.18,1.41-.34,2.33-.1.52-.21,1.09-.34,1.7a40.77,40.77,0,0,1-1.8,5.95q-.18.5-.39,1c-.1.25-.21.5-.32.75s-.15.36-.24.54l-.4.85a40.48,40.48,0,0,1-3.12,5.43l-.55.8-.48.66-.5.67c-.33.44-.69.89-1.06,1.33s-.76.89-1.15,1.34l-.61.66c-.42.45-.85.89-1.29,1.33s-1.06,1-1.63,1.54l-.48.42c-.47.42-.95.83-1.45,1.23l-.54.43c-.45.36-.91.71-1.39,1.06-.22.17-.45.33-.68.49s-.55.4-.84.59c-.6.41-1.21.82-1.85,1.21-.36.23-.72.46-1.09.67s-.69.41-1,.61l-.89.5c-.36.2-.73.4-1.11.59-.56.3-1.13.59-1.71.86-.42.21-.85.41-1.29.61l-1.39.62c-.42.19-.85.37-1.29.55l-1.52.61h0c-1,.4-2.11.79-3.22,1.16s-2.27.74-3.46,1.08l-.49.16-.62.19h0l-.83.23c-5,1.43-19.46,4.82-40.79,4.15-1,0-2-.06-3-.11l-.38,0h-.53l-.56,0q-2.35-.14-4.8-.33l.15,0,.23.08-.09.11,0,0-.25.34-.25.35a46.06,46.06,0,0,0-6.57,13.59,3.59,3.59,0,0,0-.08.35,17.63,17.63,0,0,0,.09,8.69,13.45,13.45,0,0,0,1.88,4c.49.7,2,1.58,4.37,2.58h0c.25.12.5.23.77.33h0l.37,0a.82.82,0,0,0,0,.1v.06a.4.4,0,0,1,0,.11.25.25,0,0,1,0,.08v0a.49.49,0,0,1,0,.12v.08c0,.15,0,.32,0,.52a12,12,0,0,1-.12,1.67l-2-1.64c-1.44-1.18-3.57-3-6.17-5.17-9.4-8-24.88-22-35.45-35.1l.75.28.06,0c.87.32,2.42.86,4.64,1.53a199.33,199.33,0,0,0,30.27,4.36h0c21.48,1.49,49.67,0,68.62-14.09,0,0,11.45-4.85,15.41-29.51,0,0,0-.05,0-.14a.38.38,0,0,1,0-.1c0-.23.07-.65.13-1.23q0-.28.06-.63v0q0-.41.09-.9c.21-2.36.49-6,.7-10.56,0-.78.07-1.6.1-2.44,0-.48,0-1,.05-1.46l.69-.31a27.24,27.24,0,0,0,12-11.07c.05.54.1,1.08.14,1.62.16,1.95.31,3.94.43,6,.09,1.31.16,2.64.23,4,.05.89.09,1.79.12,2.69.07,1.7.13,3.42.17,5.18,0,.59,0,1.18,0,1.77,0,1,0,2,.05,3S273.78,181.56,273.78,182.58Z"/><path class="cls-2" d="M182.66,261v.08a.25.25,0,0,0,0-.08.4.4,0,0,0,0-.11S182.66,260.94,182.66,261Z"/><path class="cls-2" d="M286.14,378l-2.22,0-8.14-.11s2.52-59.42-3.63-86.48a12,12,0,0,1,1.48,1.09c.1.09.21.18.32.29a35.52,35.52,0,0,1,3.77,4.16c.3.39.59.81.88,1.25l.29.43.16.25a44,44,0,0,1,5.82,15.59c.06.33.12.67.17,1a91.34,91.34,0,0,1,.9,10.74c0,.25,0,.51,0,.77v.83l0,7.36v.52Z"/><path class="cls-2" d="M60.65,333.94c0,.48-.06,1-.09,1.48C60,345.74,59,359.55,57.29,378h-.52l-3.61-.28s8.59-35.34,6.94-72.66C60.1,305.07,62,307.28,60.65,333.94Z"/></g><g id="shirt"><path class="cls-3" d="M193.6,314.23a5.28,5.28,0,0,0-1.83,4,3.44,3.44,0,0,0,0,.46v0s0,0,0,.06a3.44,3.44,0,0,0,0,.46,5.25,5.25,0,0,0,.93,3,5.27,5.27,0,0,0-1.49,3.67,3.44,3.44,0,0,0,0,.46h0a.09.09,0,0,0,0,.07,3.55,3.55,0,0,0,0,.46,5.26,5.26,0,0,0,1.65,3.84,5.25,5.25,0,0,0-2,4.15,3.44,3.44,0,0,0,0,.46h0a.09.09,0,0,0,0,.07,3.44,3.44,0,0,0,0,.46,5.22,5.22,0,0,0,1.39,3.56,5.19,5.19,0,0,0-2.18,2.66l0,0a5.23,5.23,0,0,0-.88,2.92,5.36,5.36,0,0,0,.44,2.12,5,5,0,0,0-1,1h0a5.27,5.27,0,0,0-2.08,4.2,5,5,0,0,0,.12,1.1,5.24,5.24,0,0,0-4.85,4.09,5,5,0,0,0-1.82-.33,3.44,3.44,0,0,0-.46,0h-.08a3.44,3.44,0,0,0-.46,0,5.26,5.26,0,0,0-4.7,2.88,6,6,0,0,0-3.3-1.83l-.13,0a5.19,5.19,0,0,0-1.12-.12,4.89,4.89,0,0,0-.54,0,6,6,0,0,0-2.41.66,4.86,4.86,0,0,0-1.34-1.08,5.16,5.16,0,0,0-1-1.25,5.26,5.26,0,0,0-4.27-2.18h-.1a5.09,5.09,0,0,0-1.59-1.4,5.28,5.28,0,0,0-2-2l0,0a4.67,4.67,0,0,0-1.34-.8,5.21,5.21,0,0,0-2.56-3.47,3.54,3.54,0,0,0-.44-.65h0a5.42,5.42,0,0,0-.93-1.25,4.4,4.4,0,0,0,.06-.73,5.26,5.26,0,0,0-2.68-4.59,3.84,3.84,0,0,0-.32-.5,4.93,4.93,0,0,0-1.18-1.49,3.94,3.94,0,0,0,.12-.7,5.27,5.27,0,0,0-2.66-5.12,4.17,4.17,0,0,0-.54-.78s0,0,0,0a4.77,4.77,0,0,0-1-1.3h0a5,5,0,0,0,.24-1.56,5.28,5.28,0,0,0-2.46-4.46,5,5,0,0,0-1-2.14,5.21,5.21,0,0,0,.34-1.86,5.28,5.28,0,0,0-2-4.12,5.2,5.2,0,0,0-.78-2,5.2,5.2,0,0,0,.75-2.71,5.27,5.27,0,0,0-2.38-4.41,5.23,5.23,0,0,0-1-2,5.1,5.1,0,0,0,.34-1.84,5.3,5.3,0,0,0-2.33-4.38,4.43,4.43,0,0,0-.48-1.22,5.31,5.31,0,0,0,.44-2.11,5.25,5.25,0,0,0-2.59-4.53,4.92,4.92,0,0,0-.83-1.57,5.25,5.25,0,0,0-1.78-6.86,5.32,5.32,0,0,0-.82-1.79,5.18,5.18,0,0,0,.64-3.5,5.24,5.24,0,0,0-1.72-3.09.68.68,0,0,0,0-.14,5.25,5.25,0,0,0-.56-1.63,5.26,5.26,0,0,0-.4-7.36,4.39,4.39,0,0,0-.27-.87,5.27,5.27,0,0,0,1.92-1.89c2.34,7,9.5,19.93,31.2,20.56,0,0,25.83.65,25.22-20.13a3.17,3.17,0,0,0,0-.53v-.08a.49.49,0,0,0,0-.12V261l.14-.11h0a5.28,5.28,0,0,0,3.76,2.2h0a3.67,3.67,0,0,0-.05.66,3.44,3.44,0,0,0,0,.46.11.11,0,0,0,0,.08,3.44,3.44,0,0,0,0,.46,5.25,5.25,0,0,0,2.67,4.59,0,0,0,0,0,0,0,6.45,6.45,0,0,0,.59.29l-.17.34a5.21,5.21,0,0,0-.48,2.2,3.55,3.55,0,0,0,0,.46.11.11,0,0,0,0,.08,3.44,3.44,0,0,0,0,.46,5.27,5.27,0,0,0,2.69,4.6l.39.2-.16.18a5.21,5.21,0,0,0-1.23,3.38,3.55,3.55,0,0,0,0,.46.11.11,0,0,0,0,.08,3.44,3.44,0,0,0,0,.46,5.27,5.27,0,0,0,2.36,4.4,5.2,5.2,0,0,0-1.63,3.39,5.13,5.13,0,0,0,0,1v0a5.25,5.25,0,0,0,2.32,4.82,5.26,5.26,0,0,0-2.47,5v.07a5.3,5.3,0,0,0,.1,1.58,5.24,5.24,0,0,0,1.7,2.84,5.18,5.18,0,0,0-1.43,3.19,5.9,5.9,0,0,0,0,.94v.06A5.27,5.27,0,0,0,193.6,314.23Z"/><path class="cls-3" d="M61.37,320.36C62.43,287.14,50.91,279,50.91,279l11.28-3,.34-.09c17.82-4.56,34.47-9.65,46.55-13.55l1.06-.34,5.64-1.79a5.19,5.19,0,0,0,.77.71,5.25,5.25,0,0,0-1.88,2.19.05.05,0,0,0,0,0,5.25,5.25,0,0,0,1.72,7.44,5.16,5.16,0,0,0-1.26,3,5,5,0,0,0-.21,2.54,5.26,5.26,0,0,0,2.61,3.73,5.16,5.16,0,0,0,.29.46,5.18,5.18,0,0,0-.64,3.5,4.93,4.93,0,0,0,.2.8c0,.11,0,.23,0,.34a5.26,5.26,0,0,0,2.61,3.73,3.75,3.75,0,0,0,.42.62,5.2,5.2,0,0,0-.61,2.45,5.08,5.08,0,0,0,.49,2.21h0s0,0,0,0h0a5.2,5.2,0,0,0,2.45,3.21,5.38,5.38,0,0,0-.42,2.09,4.91,4.91,0,0,0,.15,1.22,5.25,5.25,0,0,0,2.67,4.42,4.44,4.44,0,0,0,.41.62,5.3,5.3,0,0,0-.33,1.83,5.15,5.15,0,0,0,.26,1.63v0a5.25,5.25,0,0,0,2.66,4.15l.18.31a5.2,5.2,0,0,0-.75,2.71,1.48,1.48,0,0,0,0,.21h0a4.71,4.71,0,0,0-.1,1,5.28,5.28,0,0,0,2.69,4.61,4.57,4.57,0,0,0,.47.68,5.21,5.21,0,0,0-.34,1.86,8.49,8.49,0,0,0,3,5.9,5,5,0,0,0,.88,1.14,2,2,0,0,0-.08.26,5.24,5.24,0,0,0,1,4.64l0,0a5.25,5.25,0,0,0,2.12,2.21,5.22,5.22,0,0,0,1.08,1.35,5.32,5.32,0,0,0-.14,1.2,5.24,5.24,0,0,0,1,3.06.25.25,0,0,0,0,.07,5.23,5.23,0,0,0,2.06,2.11,5.32,5.32,0,0,0,.89,1.17,4.52,4.52,0,0,0-.06.74,5.32,5.32,0,0,0,1.18,3.34l0,0a5,5,0,0,0,2,2,5.26,5.26,0,0,0,2.58,2.3,5.23,5.23,0,0,0,2.52,3.42s0,0,0,0a4.44,4.44,0,0,0,.84.6,5.26,5.26,0,0,0,4.59,2.68h.1a4.28,4.28,0,0,0,.57.64,5.24,5.24,0,0,0,1.66,1.48,5.3,5.3,0,0,0,4.6,2.69,5.2,5.2,0,0,0,2.51-.64,5.81,5.81,0,0,0,1.91,1.25,5.29,5.29,0,0,0,9.34-.75,5.28,5.28,0,0,0,9.6-2.23,5.28,5.28,0,0,0,8-4.51,4.78,4.78,0,0,0-.1-1,.44.44,0,0,0,0-.1,5.26,5.26,0,0,0,5-5.26,5.15,5.15,0,0,0-.6-2.44,5.28,5.28,0,0,0,1.75-8.52,3.43,3.43,0,0,0-.11-.64,5.27,5.27,0,0,0,1.11-9.13.46.46,0,0,0-.05-.2,5.28,5.28,0,0,0,1.19-8.11,5.28,5.28,0,0,0-.21-8.36,1.82,1.82,0,0,0-.11-.4,5.27,5.27,0,0,0,.11-8.59c0-.11,0-.22-.08-.33a5.27,5.27,0,0,0-.29-8.27,4.51,4.51,0,0,0-.37-1,5.26,5.26,0,0,0,.52-8.83,4.41,4.41,0,0,0-.36-1,5.24,5.24,0,0,0-.34-8.19h0a4.94,4.94,0,0,0-.76-1.74,5.26,5.26,0,0,0-.93-7.63,5.18,5.18,0,0,0-.94-2,5.21,5.21,0,0,0,.48-2.2,2.36,2.36,0,0,0-.05-.48,1.72,1.72,0,0,0-.87-1.17L247.23,279h.05l2.36.67c4.6,23.48,1.36,40.93,1.36,40.93-1.6,17.79,2.37,54.61,2.67,57.38L57.29,378C59,359.55,60,345.74,60.56,335.42c0-.5.06-1,.09-1.48C61.3,323.86,61.37,320.36,61.37,320.36Z"/></g><path id="shirt_shade" data-name="shirt shade" class="cls-4" d="M259.68,378h-6c-.3-2.77-4.27-39.59-2.67-57.38,0,0,3.24-17.45-1.36-40.93h0a58.65,58.65,0,0,1,3.66,11.43,1.55,1.55,0,0,1,0,.21c.29,1.77.56,3.79.81,6.1a.62.62,0,0,0,0,.13,263.3,263.3,0,0,1,1.05,30.27s1.88,25.57,3.39,40.91a2.3,2.3,0,0,1,0,.26C259,372.85,259.38,376,259.68,378Z"/><path id="hair" class="cls-5" d="M252.77,45.3a122.36,122.36,0,0,0-6.31-11c-36.72-52.15-80.18-30-84.84-27.4l-.41.24c-1.74-.16-3.45-.25-5.13-.29C106.8,5.55,83.37,52.14,83.37,52.14c-43.86,82.29-22.68,138.5-22.68,138.5,19.91,33.51,55.14,51.87,71.31,58.89,5.29,2.3,8.54,3.38,8.54,3.38a17.82,17.82,0,0,1-1.63-2.21,39.44,39.44,0,0,1-3.83-8.44.08.08,0,0,0,0,0c-2.45-7.28-4.17-16.68-5.37-26.5a1.1,1.1,0,0,0,0-.18c-3.15-25.93-2.72-54.66-2.72-54.67.13-9,.71-18,1.16-27.05l.12-2.51c.14-3,.26-5.93.34-8.9A150.35,150.35,0,0,1,131,104.62c1.26.22,2.56.43,3.87.63,35.33,5.43,86.34,3,118.75.58,3.2-.24,6.22-.48,9-.72,13.43-1.13,21.95-2.1,21.95-2.1C283.24,72.55,269.18,55.18,252.77,45.3ZM68,189.45c-11.87-28.74.34-67.68.34-67.68C62.53,163.51,67.8,188.45,68,189.45ZM205.58,9.58c12.44,2,29,8.74,40.74,28.57a84.33,84.33,0,0,0-34.72-24,78,78,0,0,0-23.36-4.69C187.79,9.46,195.27,7.9,205.58,9.58ZM82.42,149.24c-.49-26.79,4.33-61.91,25.55-95.47-.68,1.38-19.31,39.85-21,98.55a298.12,298.12,0,0,0,1.84,42.44S82.93,176.22,82.42,149.24ZM128.12,243c-.56-.34-18.52-11.61-20.68-56.41-.28-5.89-.29-12.37,0-19.47.15-3.29.38-6.71.7-10.28.2-2.24.42-4.53.69-6.88.18-1.58.37-3.19.58-4.82.35-2.78.76-5.65,1.21-8.59s.94-5.88,1.49-8.94q1.45-8.11,3.41-17c-.13,1-1.59,12-2.58,27.44q-.18,2.89-.35,6v0c-.22,4.41-.4,9.11-.49,14-.08,3.72-.1,7.54-.06,11.42.1,8.94.53,18.16,1.5,27.08C115.6,215,119.88,232.22,128.12,243ZM188.2,44.22s0-.09,0-.14h0C188.21,44.17,188.2,44.22,188.2,44.22Zm4.7,62.26c-.68,1-1.16,1.57-1.27,1.7.27-.56.52-1.13.76-1.69,6.66-15.48,2.81-31,2.81-31C204.06,88,196.19,101.72,192.9,106.48Zm5-73.93q-5.42.54-10.36,1.38c-.72.11-1.44.24-2.15.37-33.67,6.19-50.77,22.2-59.29,37.07h0c-7.66,13.35-8.4,25.79-8,29.35-1.28-.31-2.52-.64-3.73-1-.19-.06-.38-1.26-.33-3.32v0c.26-12.25,8.51-54.53,70.23-64.59-7.55-15-22.28-24.37-22.85-24.73C178,11.76,184.48,22.62,186.9,31.39c2.25-.32,4.58-.6,7-.84a111.31,111.31,0,0,1,36.73,4.73,85.61,85.61,0,0,1,15,6.22,89.66,89.66,0,0,0-14.23-5.16A111.33,111.33,0,0,0,197.87,32.55Zm27.83,72.83a22.7,22.7,0,0,1-1.32,1.92c.27-.64.51-1.27.73-1.89a26.61,26.61,0,0,0-2.37-22C233.75,89.86,228.47,100.92,225.7,105.38Zm28.84-14.12h0a59.14,59.14,0,0,1-1.77,11.7c-.06.23-.12.44-.17.64-.31,1.16-.56,1.88-.62,2,.1-.68.19-1.35.26-2s.13-1.19.18-1.77a54,54,0,0,0-1.28-17.25,57.54,57.54,0,0,0-3.2-9.55h0s0-.08,0-.11c-.44-1-.89-2-1.37-2.91a3.18,3.18,0,0,0-.16-.32,72.59,72.59,0,0,0-21-24.72c21.17,8.48,27.71,23.51,29,36.22h0c.08.74.14,1.48.18,2.2h0A53.94,53.94,0,0,1,254.54,91.26Z"/><g id="dark_hair" data-name="dark hair"><path id="hair_shade" data-name="hair shade" class="cls-6" d="M258.91,249.5s-30.46,2.45-71-18.91h0l.38,0c1,.05,2,.09,3,.11,21.33.67,35.77-2.72,40.79-4.15l.83-.23h0l.62-.19L234,226c1.19-.34,2.34-.7,3.46-1.08s2.18-.76,3.22-1.16h0l1.52-.61c.44-.18.87-.36,1.29-.55l1.39-.62c.44-.2.87-.4,1.29-.61.58-.27,1.15-.56,1.71-.86.38-.19.75-.39,1.11-.59l.89-.5c.35-.2.7-.4,1-.61s.73-.44,1.09-.67C251.81,219.62,249.47,235.68,258.91,249.5Z"/><path class="cls-6" d="M245.59,41.5a89.66,89.66,0,0,0-14.23-5.16,111.33,111.33,0,0,0-33.49-3.79q-5.42.54-10.36,1.38c-.72.11-1.44.24-2.15.37-33.67,6.19-50.77,22.2-59.29,37.07h0c-7.66,13.35-8.4,25.79-8,29.35-1.28-.31-2.52-.64-3.73-1-.19-.06-.38-1.26-.33-3.32v0c.26-12.25,8.51-54.53,70.23-64.59-7.55-15-22.28-24.37-22.85-24.73C178,11.76,184.48,22.62,186.9,31.39c2.25-.32,4.58-.6,7-.84a111.31,111.31,0,0,1,36.73,4.73A85.61,85.61,0,0,1,245.59,41.5Z"/><path class="cls-6" d="M254.54,91.26h0a59.14,59.14,0,0,1-1.77,11.7c-.06.23-.12.44-.17.64-.31,1.16-.56,1.88-.62,2,.1-.68.19-1.35.26-2s.13-1.19.18-1.77a54,54,0,0,0-1.28-17.25,57.54,57.54,0,0,0-3.2-9.55h0s0-.08,0-.11c-.44-1-.89-2-1.37-2.91a3.18,3.18,0,0,0-.16-.32,72.59,72.59,0,0,0-21-24.72c21.17,8.48,27.71,23.51,29,36.22h0c.08.74.14,1.48.18,2.2h0A53.94,53.94,0,0,1,254.54,91.26Z"/><path class="cls-6" d="M192.9,106.48c-.68,1-1.16,1.57-1.27,1.7.27-.56.52-1.13.76-1.69,6.66-15.48,2.81-31,2.81-31C204.06,88,196.19,101.72,192.9,106.48Z"/><path class="cls-6" d="M225.7,105.38a22.7,22.7,0,0,1-1.32,1.92c.27-.64.51-1.27.73-1.89a26.61,26.61,0,0,0-2.37-22C233.75,89.86,228.47,100.92,225.7,105.38Z"/><path class="cls-6" d="M246.32,38.15a84.33,84.33,0,0,0-34.72-24,78,78,0,0,0-23.36-4.69c-.45,0,7-1.58,17.34.1C218,11.59,234.59,18.32,246.32,38.15Z"/><path class="cls-6" d="M128.12,243c-.56-.34-18.52-11.61-20.68-56.41-.28-5.89-.29-12.37,0-19.47.15-3.29.38-6.71.7-10.28.2-2.24.42-4.53.69-6.88.18-1.58.37-3.19.58-4.82.35-2.78.76-5.65,1.21-8.59s.94-5.88,1.49-8.94q1.45-8.11,3.41-17c-.13,1-1.59,12-2.58,27.44q-.18,2.89-.35,6v0c-.22,4.41-.4,9.11-.49,14-.08,3.72-.1,7.54-.06,11.42.1,8.94.53,18.16,1.5,27.08C115.6,215,119.88,232.22,128.12,243Z"/><path class="cls-6" d="M88.83,194.76s-5.9-18.54-6.41-45.52c-.49-26.79,4.33-61.91,25.55-95.47-.68,1.38-19.31,39.85-21,98.55A298.12,298.12,0,0,0,88.83,194.76Z"/><path class="cls-6" d="M68,189.45c-11.87-28.74.34-67.68.34-67.68C62.53,163.51,67.8,188.45,68,189.45Z"/></g><path id="mouth" class="cls-7" d="M209.07,197.53s-21,16.2-32.23.93c0,0-8.9-13.83,13.41-21.75C190.25,176.71,195.49,194.51,209.07,197.53Z"/><g id="nose"><path class="cls-8" d="M217.42,178.7c5.79-7.19.22-12.53.22-12.53-6.85-5.89-15.18,1.28-15.55,1.61,8.76-10.22,16.1-4.94,16.1-4.94C227.24,169.94,217.83,178.34,217.42,178.7Z"/><path class="cls-8" d="M210.67,174.23l-5.73,1.15S204.08,171.56,210.67,174.23Z"/></g><g id="glasses"><path id="glases_frame" data-name="glases frame" class="cls-9" d="M269.52,125.58a24.51,24.51,0,0,0-1.73-1.8,28.05,28.05,0,0,0-10.61-6.32c-.26-.09-.52-.17-.79-.24a29,29,0,0,0-8.25-1.19c-12.73,0-23.49,8.2-26.79,19.36a9.32,9.32,0,0,0-2.59-1.37,13.4,13.4,0,0,0-5.11-.76,17.73,17.73,0,0,0-4.9.94,18.55,18.55,0,0,0-3,1.31c-2.86-11.94-14.09-20.88-27.46-20.88-11.77,0-22.13,6.91-26.27,17.16-.15,0-.3,0-.45,0l-1.47-.15c-1-.11-2-.18-2.93-.28-2-.15-3.92-.29-5.88-.36s-3.94-.12-5.92-.09c-1,0-2.08,0-3.12.1s-1.89.11-2.84.21l-1.18.14-.12,2.51.95.33c1,.35,2,.66,3,.93s1.84.5,2.76.74c1.92.47,3.85.88,5.78,1.25s3.87.69,5.81,1c1,.13,1.95.28,2.92.4l1,.12a26,26,0,0,0-.17,2.93c0,14.83,12.64,26.89,28.17,26.89s28.17-12.06,28.17-26.89a24.39,24.39,0,0,0-.15-2.72,26.69,26.69,0,0,1,3.46-1.07,19.81,19.81,0,0,1,4-.54,13.77,13.77,0,0,1,3.81.47l.92.26.88.37a6.31,6.31,0,0,1,1.2.58,24.53,24.53,0,0,0-.28,3.75c0,14.65,12.49,26.57,27.84,26.57a28.3,28.3,0,0,0,11.72-2.48l.69-.31a27.24,27.24,0,0,0,12-11.07,23.8,23.8,0,0,0,1.1-2.13l.14-.3h0A25.37,25.37,0,0,0,276,142.61,25.87,25.87,0,0,0,269.52,125.58ZM178.3,165.4c-13.88,0-25.17-10.72-25.17-23.89a22.77,22.77,0,0,1,.75-5.79c2.79-10.65,12.83-18.09,24.42-18.09,13.88,0,25.17,10.71,25.17,23.88S192.18,165.4,178.3,165.4ZM272,149.27a21.57,21.57,0,0,1-1,2.67l-.09.21A24.06,24.06,0,0,1,260,163.33c-.23.13-.46.24-.69.35a25.49,25.49,0,0,1-11.12,2.5c-13.7,0-24.84-10.57-24.84-23.57S234.44,119,248.14,119a25.87,25.87,0,0,1,8.11,1.29l.76.26a24.8,24.8,0,0,1,10.25,7,22.93,22.93,0,0,1,1.78,2.31h0A22.71,22.71,0,0,1,273,142.61,22.31,22.31,0,0,1,272,149.27Z"/><g id="lenses"><path id="rt_lense" data-name="rt lense" class="cls-7" d="M203.47,141.51c0,13.17-11.29,23.89-25.17,23.89s-25.17-10.72-25.17-23.89a22.77,22.77,0,0,1,.75-5.79c2.79-10.65,12.83-18.09,24.42-18.09C192.18,117.63,203.47,128.34,203.47,141.51Z"/><path id="left_lense" data-name="left lense" class="cls-7" d="M269.05,129.88h0a22.93,22.93,0,0,0-1.78-2.31,24.8,24.8,0,0,0-10.25-7l-.76-.26a25.87,25.87,0,0,0-8.11-1.29c-13.7,0-24.84,10.58-24.84,23.58s11.14,23.57,24.84,23.57a25.49,25.49,0,0,0,11.12-2.5c.23-.11.46-.22.69-.35a24.06,24.06,0,0,0,10.91-11.18l.09-.21a21.57,21.57,0,0,0,1-2.67,22.31,22.31,0,0,0,1-6.66A22.71,22.71,0,0,0,269.05,129.88Zm-32.53,9.23a1.5,1.5,0,0,1,.58-2,25.76,25.76,0,0,1,22-.49,27.29,27.29,0,0,1,4.35,2.48,1.48,1.48,0,0,1,.37,2.08,1.48,1.48,0,0,1-2.08.38c-.43-.3-.87-.58-1.3-.84a6.27,6.27,0,0,1,.08,2.08,6.34,6.34,0,0,1-.83,2.47,6.17,6.17,0,0,1-1.41,1.69,5.78,5.78,0,0,1-3.74,1.39,5.63,5.63,0,0,1-.71,0,6.15,6.15,0,0,1-5.15-7,6.4,6.4,0,0,1,2-3.89,22.87,22.87,0,0,0-12.06,2.29A1.52,1.52,0,0,1,236.52,139.11Zm30.55,16a22.3,22.3,0,0,1-7.09,6.26c-4.4,2.5-10.85,4.21-19.31,1.47,0,0,11.15,1.58,19.33-3.81h0a17.48,17.48,0,0,0,5.05-5s6.45-8.81,2.36-21.6C267.41,132.45,275.26,142.17,267.07,155.13Z"/></g><g id="lense_shine" data-name="lense shine"><path id="rt_lense_shine" data-name="rt lense shine" class="cls-10" d="M198,131.66s7.85,9.72-.34,22.68c0,0-8.88,13.4-26.4,7.73,0,0,16.94,2.4,24.38-8.81C195.67,153.26,202.13,144.45,198,131.66Z"/><path id="left_lense_shine" data-name="left lense shine" class="cls-10" d="M267.07,155.13a22.3,22.3,0,0,1-7.09,6.26c-4.4,2.5-10.85,4.21-19.31,1.47,0,0,11.15,1.58,19.33-3.81h0a17.48,17.48,0,0,0,5.05-5s6.45-8.81,2.36-21.6C267.41,132.45,275.26,142.17,267.07,155.13Z"/></g></g><g id="eyes"><path class="cls-9" d="M192.47,143.13a1.45,1.45,0,0,1-.88.29,1.48,1.48,0,0,1-1.21-.62c-.19-.26-.38-.5-.58-.74a6.81,6.81,0,1,1-11.4-5.16c-8-.65-16.08,2.3-16.21,2.35a1.5,1.5,0,1,1-1-2.82,48.67,48.67,0,0,1,12.1-2.53c8.89-.67,15.67,1.8,19.55,7.14A1.49,1.49,0,0,1,192.47,143.13Z"/><path class="cls-9" d="M263.81,141.14a1.48,1.48,0,0,1-2.08.38c-.43-.3-.87-.58-1.3-.84a6.27,6.27,0,0,1,.08,2.08,6.34,6.34,0,0,1-.83,2.47,6.17,6.17,0,0,1-1.41,1.69,5.78,5.78,0,0,1-3.74,1.39,5.63,5.63,0,0,1-.71,0,6.15,6.15,0,0,1-5.15-7,6.4,6.4,0,0,1,2-3.89,22.87,22.87,0,0,0-12.06,2.29,1.5,1.5,0,0,1-1.46-2.63,25.76,25.76,0,0,1,22-.49,27.29,27.29,0,0,1,4.35,2.48A1.48,1.48,0,0,1,263.81,141.14Z"/></g><g id="pearl_shadow" data-name="pearl shadow"><path class="cls-11" d="M199.09,266.75a5.21,5.21,0,0,1-.48,2.2,5.38,5.38,0,0,0-2.17-1.66,4.85,4.85,0,0,0,.56-1.63,4.12,4.12,0,0,0,.09-.86v-.07a3.64,3.64,0,0,1,1.07.37h0a1.72,1.72,0,0,1,.87,1.17A2.36,2.36,0,0,1,199.09,266.75Z"/><path class="cls-11" d="M201.71,275.18a5.25,5.25,0,0,1-1.23,3.38,5.24,5.24,0,0,0-2.16-1.82,5.22,5.22,0,0,0,1.39-3.56,3.44,3.44,0,0,0,0-.46.11.11,0,0,0,0-.08,3.55,3.55,0,0,0,0-.46,4.71,4.71,0,0,0-.16-1.25A5.24,5.24,0,0,1,201.71,275.18Z"/><path class="cls-11" d="M203.4,284.54a5.22,5.22,0,0,1-1.81,4,5.22,5.22,0,0,0-1.85-2.13,5.25,5.25,0,0,0,1.66-3.83,3.44,3.44,0,0,0,0-.46.11.11,0,0,0,0-.08,3.55,3.55,0,0,0,0-.46,5,5,0,0,0-.15-1.23A5.22,5.22,0,0,1,203.4,284.54Z"/><path class="cls-11" d="M204.09,294.2a5.23,5.23,0,0,1-2.66,4.15,5.07,5.07,0,0,0-1.81-2.1,5.25,5.25,0,0,0,2.47-4.05,6.28,6.28,0,0,0,0-1v0a4.93,4.93,0,0,0-.14-1.68A5.24,5.24,0,0,1,204.09,294.2Z"/><path class="cls-11" d="M202.09,307.65a5.3,5.3,0,0,0-1.57-2.39,5.29,5.29,0,0,0,1.41-4.1v0a5.44,5.44,0,0,0-.1-1.65l0-.11a5.27,5.27,0,0,1,.29,8.27Z"/><path class="cls-11" d="M204.31,312.68a5.25,5.25,0,0,1-2.25,3.89,5.23,5.23,0,0,0-1.56-2.34,5.23,5.23,0,0,0,1.81-3.55,5.13,5.13,0,0,0,0-1v0a5,5,0,0,0-.14-1.7A5.28,5.28,0,0,1,204.31,312.68Z"/><path class="cls-11" d="M204.33,321.23a5.27,5.27,0,0,1-2,4.1,3.81,3.81,0,0,1-.62.43,4.15,4.15,0,0,0-.15-1.12,5.1,5.1,0,0,0-.77-1.73,5.28,5.28,0,0,0,1.49-3.68,3.44,3.44,0,0,0,0-.46s0,0,0-.06v0a3.44,3.44,0,0,0,0-.46,4.78,4.78,0,0,0-.16-1.26A5.27,5.27,0,0,1,204.33,321.23Z"/><path class="cls-11" d="M203.77,328.9a5.27,5.27,0,0,1-2.58,4.54,5.13,5.13,0,0,0-1.44-2.38,5.28,5.28,0,0,0,2-4.16,3.55,3.55,0,0,0,0-.46.09.09,0,0,0,0-.07h0a3.44,3.44,0,0,0,0-.46.66.66,0,0,0,0-.14,4.15,4.15,0,0,0-.15-1.12,4.58,4.58,0,0,1,.77.69A5.29,5.29,0,0,1,203.77,328.9Z"/><path class="cls-11" d="M203.4,337.89a5.28,5.28,0,0,1-3.27,4.88,5,5,0,0,0-1.26-2.38,5.25,5.25,0,0,0,2.53-4.5,3.44,3.44,0,0,0,0-.46.09.09,0,0,0,0-.07h0a3.44,3.44,0,0,0,0-.46,4.71,4.71,0,0,0-.16-1.25A5.25,5.25,0,0,1,203.4,337.89Z"/><path class="cls-11" d="M201.71,347.06a5.29,5.29,0,0,1-3.22,4.87l-.46.16a4.28,4.28,0,0,0,.06-.72.28.28,0,0,0,0-.09h0a5.09,5.09,0,0,0-.43-2,5.13,5.13,0,0,0,1.72-2.33h0a5.28,5.28,0,0,0,.89-2.94,4.89,4.89,0,0,0,0-.54A5.27,5.27,0,0,1,201.71,347.06Z"/><path class="cls-11" d="M199.09,354.37a5.26,5.26,0,0,1-5,5.26,5.29,5.29,0,0,0,.08-.9,5,5,0,0,0-.24-1.55,5.06,5.06,0,0,0,2-1.61h0a5.16,5.16,0,0,0,2-3.47,4.28,4.28,0,0,0,.06-.72.28.28,0,0,0,0-.09,3.73,3.73,0,0,1,.41.65A5.15,5.15,0,0,1,199.09,354.37Z"/><path class="cls-11" d="M194.22,360.73a5.28,5.28,0,0,1-8,4.51h0a4.64,4.64,0,0,1-1.22-1,3.18,3.18,0,0,0,.14-.53,4.1,4.1,0,0,0,1.11.27,4.17,4.17,0,0,0,.71.06,4.78,4.78,0,0,0,1-.1,4.71,4.71,0,0,0,1,.1,5.26,5.26,0,0,0,5.18-4.28A4.78,4.78,0,0,1,194.22,360.73Z"/><path class="cls-11" d="M186.26,364.51a4.28,4.28,0,0,1-.06.72h0a5.28,5.28,0,0,1-9.6,2.23h0a3.35,3.35,0,0,1-.21-.36.89.89,0,0,0,.29.15,5.06,5.06,0,0,0,2.3.54,3.44,3.44,0,0,0,.46,0h.08a3.44,3.44,0,0,0,.46,0,5.29,5.29,0,0,0,5-3.58,3.18,3.18,0,0,0,.14-.53,4.1,4.1,0,0,0,1.11.27A5.12,5.12,0,0,1,186.26,364.51Z"/><path class="cls-11" d="M176.68,367.25a1.8,1.8,0,0,1-.08.21h0a5.29,5.29,0,0,1-9.34.75,6.18,6.18,0,0,0,1.93.44l.54,0a5.12,5.12,0,0,0,.56,0,5.93,5.93,0,0,0,4.62-2.79,5.06,5.06,0,0,0,1.46,1.22h0a0,0,0,0,0,0,0A.89.89,0,0,0,176.68,367.25Z"/><path class="cls-11" d="M165.35,367a5.2,5.2,0,0,1-2.51.64,5.3,5.3,0,0,1-4.6-2.69,5.25,5.25,0,0,0,5.71-.33A5,5,0,0,0,165.35,367Z"/><path class="cls-11" d="M166.78,358.82a4.66,4.66,0,0,0-.77.47,5,5,0,0,0-.57-1.55A4.86,4.86,0,0,1,166.78,358.82Z"/><path class="cls-11" d="M156,362.8h-.09a5.26,5.26,0,0,1-4.59-2.68,5.29,5.29,0,0,0,2.59.68,5.19,5.19,0,0,0,1.12-.12A5.16,5.16,0,0,0,156,362.8Z"/><path class="cls-11" d="M160.09,354.32a4.9,4.9,0,0,0-1,.11,4.91,4.91,0,0,0-.57-1.51A5.09,5.09,0,0,1,160.09,354.32Z"/><path class="cls-11" d="M147.93,356.09a5.26,5.26,0,0,1-2.58-2.3,5,5,0,0,0,2.48.68A5.13,5.13,0,0,0,147.93,356.09Z"/><path class="cls-11" d="M155.09,350.08a4.93,4.93,0,0,0-1-.31,5.48,5.48,0,0,0-.89-.09,3.87,3.87,0,0,0,0-.48,5.19,5.19,0,0,0-.69-2.59A5.21,5.21,0,0,1,155.09,350.08Z"/><path class="cls-11" d="M141.34,346.56a4.81,4.81,0,0,0,1,.45,4.18,4.18,0,0,0-.15.72A5.32,5.32,0,0,1,141.34,346.56Z"/><path class="cls-11" d="M151.22,344a4.4,4.4,0,0,1-.06.73,5.32,5.32,0,0,0-2.15-1.27,5,5,0,0,0,.21-1.46,5.29,5.29,0,0,0-.68-2.59A5.26,5.26,0,0,1,151.22,344Z"/><path class="cls-11" d="M137.32,338.77a4.75,4.75,0,0,0,1.34.53,4.88,4.88,0,0,0-.26.82A5.22,5.22,0,0,1,137.32,338.77Z"/><path class="cls-11" d="M147.16,336.69a3.94,3.94,0,0,1-.12.7,5,5,0,0,0-2.26-1.19,5.08,5.08,0,0,0,.38-1.51,5.24,5.24,0,0,0-.66-3.12A5.27,5.27,0,0,1,147.16,336.69Z"/><path class="cls-11" d="M133.34,330.49a4.9,4.9,0,0,0,1.13.47,3.84,3.84,0,0,0-.25.67A5,5,0,0,1,133.34,330.49Z"/><path class="cls-11" d="M143.23,327.9a5,5,0,0,1-.24,1.56,5.27,5.27,0,0,0-2.26-1.34,5,5,0,0,0,.5-2.22,5.08,5.08,0,0,0-.37-1.91h0a3.2,3.2,0,0,0-.09-.54A5.28,5.28,0,0,1,143.23,327.9Z"/><path class="cls-11" d="M130.21,322.05a3.64,3.64,0,0,0,.63.3c-.06.12-.11.25-.16.38A4.57,4.57,0,0,1,130.21,322.05Z"/><path class="cls-11" d="M140.08,319.44a5.21,5.21,0,0,1-.34,1.86,5.28,5.28,0,0,0-2.16-1.62,5.25,5.25,0,0,0,.5-2.24,1.34,1.34,0,0,0,0-.2h0a4.81,4.81,0,0,0,.1-1,5.29,5.29,0,0,0-.08-.9A5.28,5.28,0,0,1,140.08,319.44Z"/><path class="cls-11" d="M128.18,313.2a1.51,1.51,0,0,0,.28.15,1.4,1.4,0,0,0-.1.16Z"/><path class="cls-11" d="M138.06,310.61a5.2,5.2,0,0,1-.75,2.71,5.23,5.23,0,0,0-2.09-1.84,5.31,5.31,0,0,0,.84-2.87,5.15,5.15,0,0,0-.26-1.63,4.88,4.88,0,0,0-.12-.78A5.27,5.27,0,0,1,138.06,310.61Z"/><path class="cls-11" d="M125.18,304.93l.55.28a3.45,3.45,0,0,0-.14.34A4.44,4.44,0,0,1,125.18,304.93Z"/><path class="cls-11" d="M135.07,302.34a5.1,5.1,0,0,1-.34,1.84,5.3,5.3,0,0,0-2.13-1.67,5.25,5.25,0,0,0,.47-2.17,4.71,4.71,0,0,0-.16-1.25h0a4.59,4.59,0,0,0-.17-1.12A5.3,5.3,0,0,1,135.07,302.34Z"/><path class="cls-11" d="M132.7,294.63a5.31,5.31,0,0,1-.44,2.11,5.22,5.22,0,0,0-2-2,5.28,5.28,0,0,0-.08-4.35,1.07,1.07,0,0,0-.08-.27A5.25,5.25,0,0,1,132.7,294.63Z"/><path class="cls-11" d="M120.62,289c-.07.11-.13.22-.19.33a3.75,3.75,0,0,1-.42-.62A4.85,4.85,0,0,0,120.62,289Z"/><path class="cls-11" d="M129.28,288.53a5.24,5.24,0,0,0-2.18-1.68,5.25,5.25,0,0,0,.72-3.64,4.93,4.93,0,0,0-.2-.8c0-.12,0-.23,0-.34s0-.27-.08-.4a5.25,5.25,0,0,1,1.78,6.86Z"/><path class="cls-11" d="M118,280.06a1.58,1.58,0,0,0-.15.24,5.16,5.16,0,0,1-.29-.46A3.61,3.61,0,0,0,118,280.06Z"/><path class="cls-11" d="M126.68,279.88a5.26,5.26,0,0,0-2.15-1.76,5.09,5.09,0,0,0,.84-2.44s0,0,0,0,0,0,0,0a5,5,0,0,0,.23-2.35,5.24,5.24,0,0,1,1.72,3.09A5.18,5.18,0,0,1,126.68,279.88Z"/><path class="cls-11" d="M127,259.33a5.14,5.14,0,0,1-.7,2.07,5.27,5.27,0,0,1-1.92,1.89,5.12,5.12,0,0,0-1.57-2.09,5.2,5.2,0,0,0,2.44-2.26,4,4,0,0,0,.24-.46h0a5.05,5.05,0,0,0,.42-1.72c.53-.09.91.18,1.06,1.09A5.34,5.34,0,0,1,127,259.33Z"/><path class="cls-11" d="M125,271.52a5.22,5.22,0,0,0-2-2,4.69,4.69,0,0,0,.74-1.13l0-.07a5.32,5.32,0,0,0,.84-3.84,2.8,2.8,0,0,0-.06-.28,5.26,5.26,0,0,1,.4,7.36Z"/></g><g id="light_pearl_shade" data-name="light pearl shade"><path class="cls-12" d="M186.59,252.58a5.28,5.28,0,0,0-3.87,8.15.38.38,0,0,0,.09.13h0l-.14.11s0-.08,0-.11v-.06a.82.82,0,0,1,0-.1l-.37,0h0c-.27-.1-.52-.21-.77-.33h0a5.29,5.29,0,0,1,2.14-7.13h0a5.2,5.2,0,0,1,2.51-.64A3.44,3.44,0,0,1,186.59,252.58Z"/><path class="cls-12" d="M192.36,258.5a4.73,4.73,0,0,1-.22,1,1.83,1.83,0,0,0-.33,0,3.82,3.82,0,0,0-.68,0,5.24,5.24,0,0,0-3.84,2.51,2.55,2.55,0,0,0-.23.43,4,4,0,0,0-.25.6,0,0,0,0,0,0,0,5.19,5.19,0,0,0-.24,1.12,3.44,3.44,0,0,1,0-.46,3.67,3.67,0,0,1,.05-.66h0a3.14,3.14,0,0,1,.15-.74,3.06,3.06,0,0,1,.13-.43h0a5.22,5.22,0,0,1,4.49-3.41h0l.45,0A4.93,4.93,0,0,1,192.36,258.5Z"/><path class="cls-12" d="M199.71,272.18a3.55,3.55,0,0,1,0,.46,5,5,0,0,0-.66-2.06,4.61,4.61,0,0,0-.74-1,5.14,5.14,0,0,0-2.39-1.46,4.09,4.09,0,0,0-.86-.17h0a3.9,3.9,0,0,0-.59,0,5.36,5.36,0,0,0-4.08,1.92c-.14.18-.27.36-.39.55a5.21,5.21,0,0,0-.78,2.27,3.55,3.55,0,0,1,0-.46,5.21,5.21,0,0,1,.48-2.2l.17-.34a5.59,5.59,0,0,1,.55-.82,5.29,5.29,0,0,1,4.08-1.92,5.93,5.93,0,0,1,2,.39,5.38,5.38,0,0,1,2.17,1.66,5.18,5.18,0,0,1,.94,2A4.71,4.71,0,0,1,199.71,272.18Z"/><path class="cls-12" d="M201.4,281.54a3.55,3.55,0,0,1,0,.46,5.14,5.14,0,0,0-.65-2.05A4.44,4.44,0,0,0,200,279a5.07,5.07,0,0,0-2.52-1.56,4.93,4.93,0,0,0-1.4-.2,2,2,0,0,0-.35,0,4.1,4.1,0,0,0-1,.16,5,5,0,0,0-1.75.82,4.47,4.47,0,0,0-.52.44,5.18,5.18,0,0,0-1.64,3.3,3.55,3.55,0,0,1,0-.46,5.21,5.21,0,0,1,1.23-3.38l.16-.18a4.57,4.57,0,0,1,.8-.72,5.21,5.21,0,0,1,3.09-1,4.93,4.93,0,0,1,1.4.2,4.2,4.2,0,0,1,.8.28,5.24,5.24,0,0,1,2.16,1.82,4.94,4.94,0,0,1,.76,1.74h0A5,5,0,0,1,201.4,281.54Z"/><path class="cls-12" d="M202.09,291.2a5.24,5.24,0,0,0-.67-2h0a1.8,1.8,0,0,0-.21-.35A5.29,5.29,0,0,0,199,287a5,5,0,0,0-1.28-.4,3.4,3.4,0,0,0-.46-.06,5.09,5.09,0,0,0-2,.24h0a4.87,4.87,0,0,0-1.28.61l-.2.14a5.3,5.3,0,0,0-2.17,3.8,5.13,5.13,0,0,1,0-1,5.2,5.2,0,0,1,1.63-3.39l.15-.14a4.19,4.19,0,0,1,.59-.45,5.23,5.23,0,0,1,3.33-.85A5.09,5.09,0,0,1,199,286a4,4,0,0,1,.73.41,5.22,5.22,0,0,1,1.85,2.13,4.41,4.41,0,0,1,.36,1A4.93,4.93,0,0,1,202.09,291.2Z"/><path class="cls-12" d="M201.93,301.14a3.52,3.52,0,0,0-.1-.65,5,5,0,0,0-.57-1.46,3.35,3.35,0,0,0-.27-.45,5.2,5.2,0,0,0-2.35-1.85h0a5.25,5.25,0,0,0-3.1-.25,4.84,4.84,0,0,0-.65.19,2.28,2.28,0,0,0-.36.15,5.24,5.24,0,0,0-3.1,4.31,5.26,5.26,0,0,1,2.47-5l.18-.11a4.57,4.57,0,0,1,.81-.37,4.84,4.84,0,0,1,.65-.19,5.25,5.25,0,0,1,3.1.25h0a5.42,5.42,0,0,1,1,.52,5.07,5.07,0,0,1,1.81,2.1,4.51,4.51,0,0,1,.37,1l0,.11A5.44,5.44,0,0,1,201.93,301.14Z"/><path class="cls-12" d="M202.31,309.68a5.11,5.11,0,0,0-.53-1.78,1.3,1.3,0,0,0-.14-.26,5.25,5.25,0,0,0-1.73-1.84,5,5,0,0,0-.86-.45h0a5.25,5.25,0,0,0-1.55-.37,5.31,5.31,0,0,0-2.81.54,4.7,4.7,0,0,0-.73.46l-.13.09a5.31,5.31,0,0,0-2,3.68,5.9,5.9,0,0,1,0-.94,5.18,5.18,0,0,1,1.43-3.19,2.56,2.56,0,0,1,.42-.39,1.29,1.29,0,0,1,.18-.16,5.28,5.28,0,0,1,6.09-.27,5.72,5.72,0,0,1,.61.46,5.3,5.3,0,0,1,1.57,2.39c0,.11.06.22.08.33A5,5,0,0,1,202.31,309.68Z"/><path class="cls-12" d="M202.33,318.23a3.44,3.44,0,0,1,0,.46,5.12,5.12,0,0,0-.57-1.9,1.19,1.19,0,0,0-.08-.16,5.18,5.18,0,0,0-1.83-1.89,4.48,4.48,0,0,0-1.06-.5,5.19,5.19,0,0,0-3.42,0,4.64,4.64,0,0,0-1,.44.21.21,0,0,0-.1.06,5.27,5.27,0,0,0-2.48,3.95,3.44,3.44,0,0,1,0-.46,5.28,5.28,0,0,1,1.83-4c.14-.12.29-.23.44-.34s.16-.11.24-.15a5.25,5.25,0,0,1,5.54,0,4,4,0,0,1,.68.49,5.23,5.23,0,0,1,1.56,2.34,1.82,1.82,0,0,1,.11.4A4.78,4.78,0,0,1,202.33,318.23Z"/><path class="cls-12" d="M201.77,325.9a3.44,3.44,0,0,1,0,.46,3.38,3.38,0,0,0-.09-.54,5.31,5.31,0,0,0-1.27-2.49,4.76,4.76,0,0,0-.62-.57,5.27,5.27,0,0,0-5.88-.45l-.1.06a4.45,4.45,0,0,0-.61.43,5.22,5.22,0,0,0-1.93,3.56,3.44,3.44,0,0,1,0-.46,5.27,5.27,0,0,1,1.49-3.67,3.8,3.8,0,0,1,.47-.43,4.45,4.45,0,0,1,.61-.43,5.2,5.2,0,0,1,2.71-.75,5.28,5.28,0,0,1,3.89,1.71,5.25,5.25,0,0,1,1.23,2.31,4.15,4.15,0,0,1,.15,1.12A.66.66,0,0,1,201.77,325.9Z"/><path class="cls-12" d="M201.4,334.89a3.44,3.44,0,0,1,0,.46,5.12,5.12,0,0,0-.49-1.74,3,3,0,0,0-.16-.31,5.24,5.24,0,0,0-1.65-1.79A5.07,5.07,0,0,0,198,331a5.16,5.16,0,0,0-1.89-.35,5,5,0,0,0-1.5.23h0a4.45,4.45,0,0,0-.88.34l-.2.11a5.24,5.24,0,0,0-2.66,4.06,3.44,3.44,0,0,1,0-.46,5.25,5.25,0,0,1,2-4.15,3.45,3.45,0,0,1,.56-.38.41.41,0,0,1,.11-.07,5.28,5.28,0,0,1,5.54.22,5.32,5.32,0,0,1,2.12,2.93.46.46,0,0,1,.05.2A4.71,4.71,0,0,1,201.4,334.89Z"/><path class="cls-12" d="M199.38,346.89a5.3,5.3,0,0,0-.07-3.86,5.07,5.07,0,0,0-.29-.57,5.29,5.29,0,0,0-1.32-1.54,4.88,4.88,0,0,0-1.31-.76h-.06a4.85,4.85,0,0,0-1.9-.38h-.28a4.54,4.54,0,0,0-.91.13,2.62,2.62,0,0,0-.4.11,5.26,5.26,0,0,0-2.79,2.08,5.19,5.19,0,0,1,2.18-2.66,4.63,4.63,0,0,1,.7-.36l0,0a5.25,5.25,0,0,1,5.2.68,4.19,4.19,0,0,1,.69.64,5,5,0,0,1,1.26,2.38,3.43,3.43,0,0,1,.11.64,4.89,4.89,0,0,1,0,.54A5.28,5.28,0,0,1,199.38,346.89Z"/><path class="cls-12" d="M198.09,351.37a4.28,4.28,0,0,1-.06.72,5.16,5.16,0,0,1-2,3.47,5.2,5.2,0,0,0,1.08-3.19v-.08a5.23,5.23,0,0,0-.6-2.36.56.56,0,0,0-.09-.17,4.31,4.31,0,0,0-.42-.63,5.24,5.24,0,0,0-4.17-2.05,3.67,3.67,0,0,0-.66.05,1.33,1.33,0,0,0-.34.05,4.79,4.79,0,0,0-1.06.31,5.35,5.35,0,0,0-1.13.67,5,5,0,0,1,1-1,4.46,4.46,0,0,1,.86-.54,4.18,4.18,0,0,1,.76-.31,5.27,5.27,0,0,1,6.14,2.34,5,5,0,0,1,.73,2.6h0A.28.28,0,0,1,198.09,351.37Z"/><path class="cls-12" d="M194.22,358.73a5.29,5.29,0,0,1-.08.9.44.44,0,0,1,0,.1,5.26,5.26,0,0,1-5.18,4.28,4.71,4.71,0,0,1-1-.1,5.23,5.23,0,0,0,4.23-4.52h0a3.56,3.56,0,0,0,.05-.65,5,5,0,0,0-.12-1.1,5.14,5.14,0,0,0-.35-1.09h0a3,3,0,0,0-.2-.4,5.25,5.25,0,0,0-3-2.43l-.57-.15h0v0a3.08,3.08,0,0,1,.61-.07,1.83,1.83,0,0,1,.33,0,5.26,5.26,0,0,1,4.81,3.11,3.56,3.56,0,0,1,.23.62A5,5,0,0,1,194.22,358.73Z"/><path class="cls-12" d="M185.26,362.51a4.57,4.57,0,0,1-.14,1.17,3.18,3.18,0,0,1-.14.53,5.29,5.29,0,0,1-5,3.58,3.44,3.44,0,0,1-.46,0,5.26,5.26,0,0,0,4.68-4.52h0a.3.3,0,0,0,0-.13h0a3.69,3.69,0,0,0,0-.58,5.24,5.24,0,0,0-.56-2.37l-.12-.22a5.29,5.29,0,0,0-4.06-2.66,3.44,3.44,0,0,1,.46,0,5.38,5.38,0,0,1,3.68,1.49h0a2.56,2.56,0,0,1,.28.3,5.07,5.07,0,0,1,1.15,2.17A5.17,5.17,0,0,1,185.26,362.51Z"/><path class="cls-12" d="M125.89,256.68a.15.15,0,0,1,0,.07,5.05,5.05,0,0,1-.42,1.72h0a4,4,0,0,1-.24.46,5.2,5.2,0,0,1-2.44,2.26h0a.35.35,0,0,0-.12-.1,5.2,5.2,0,0,0,2.34-4,.13.13,0,0,0,0-.06V257a5,5,0,0,0-.06-1.15,5.31,5.31,0,0,0-6.07-4.35l-.52.11a5.27,5.27,0,0,1,4.27-.11,5.24,5.24,0,0,1,3.21,4A4.72,4.72,0,0,1,125.89,256.68Z"/><path class="cls-12" d="M123.84,268.28a5.33,5.33,0,0,0,.42-3.1,5.24,5.24,0,0,0-.54-1.59.61.61,0,0,0-.07-.14,5.21,5.21,0,0,0-1.83-1.9l0,0a5.18,5.18,0,0,0-3.58-.69,2.8,2.8,0,0,0-.28.06,4.66,4.66,0,0,0-.85.26l-.09,0a5.31,5.31,0,0,0-2.3,1.91,5.25,5.25,0,0,1,1.88-2.19l.31-.19a4.16,4.16,0,0,1,.47-.24,5,5,0,0,1,1.28-.38,5.21,5.21,0,0,1,4,1,.35.35,0,0,1,.12.1h0a5.12,5.12,0,0,1,1.57,2.09,4.39,4.39,0,0,1,.27.87,2.8,2.8,0,0,1,.06.28A5.32,5.32,0,0,1,123.84,268.28Z"/><path class="cls-12" d="M125.37,275.64a4.88,4.88,0,0,0-.05-1.26,5.19,5.19,0,0,0-.6-1.71,4.41,4.41,0,0,0-.35-.53,5.12,5.12,0,0,0-2.28-1.78,3.58,3.58,0,0,0-.55-.19,5.24,5.24,0,0,0-3.49.22,4.45,4.45,0,0,0-1,.54,1.86,1.86,0,0,0-.28.21,5.22,5.22,0,0,0-1.68,2.43,5.16,5.16,0,0,1,1.26-3s0,0,0,0A5.39,5.39,0,0,1,117,270a5.27,5.27,0,0,1,2.51-1.15,5.18,5.18,0,0,1,3.35.56.78.78,0,0,1,.2.11,5.27,5.27,0,0,1,2.53,3.67.68.68,0,0,1,0,.14A5,5,0,0,1,125.37,275.64Z"/><path class="cls-12" d="M127.62,282.41a4.93,4.93,0,0,0-.4-.91,5.49,5.49,0,0,0-.85-1.13,5.15,5.15,0,0,0-2.51-1.41,4.69,4.69,0,0,0-1.24-.16h0a5.19,5.19,0,0,0-.87.07,5.18,5.18,0,0,0-2.89,1.5,5.55,5.55,0,0,0-.49.58,5.24,5.24,0,0,0-1,3.65,4.93,4.93,0,0,1-.2-.8,5.18,5.18,0,0,1,.64-3.5,1.58,1.58,0,0,1,.15-.24,4.8,4.8,0,0,1,.85-1,5.26,5.26,0,0,1,2.71-1.33,5.09,5.09,0,0,1,2.43.18,3.77,3.77,0,0,1,.59.22,5.26,5.26,0,0,1,2.15,1.76,5.32,5.32,0,0,1,.82,1.79c0,.13.06.27.08.4S127.61,282.29,127.62,282.41Z"/><path class="cls-12" d="M130.19,290.37c-.05-.11-.11-.22-.17-.33a5.33,5.33,0,0,0-.92-1.19,5.09,5.09,0,0,0-2.47-1.35,4.83,4.83,0,0,0-1.21-.15h-.19a5.12,5.12,0,0,0-2.68.84,5.28,5.28,0,0,0-1.15,1,5.13,5.13,0,0,0-.47.65,5.24,5.24,0,0,0-.62,4.09,5.08,5.08,0,0,1-.49-2.21,5.2,5.2,0,0,1,.61-2.45c.06-.11.12-.22.19-.33a4.63,4.63,0,0,1,.67-.86,5.22,5.22,0,0,1,3.81-1.64,4.83,4.83,0,0,1,1.08.12,4.65,4.65,0,0,1,.92.27,5.24,5.24,0,0,1,2.18,1.68,4.92,4.92,0,0,1,.83,1.57A1.07,1.07,0,0,1,130.19,290.37Z"/><path class="cls-12" d="M132.91,299.08a4.81,4.81,0,0,0-.53-1.33,3.84,3.84,0,0,0-.35-.54,5.26,5.26,0,0,0-2.17-1.73,4.4,4.4,0,0,0-.8-.26,4.93,4.93,0,0,0-1.28-.16,5.21,5.21,0,0,0-4,1.8,4.11,4.11,0,0,0-.49.63,1.56,1.56,0,0,0-.16.28,5.11,5.11,0,0,0-.68,2.57,1,1,0,0,0,0,.17,4.91,4.91,0,0,1-.15-1.22,5.38,5.38,0,0,1,.42-2.09l0,0,0,0a4.07,4.07,0,0,1,.28-.55h0a5.26,5.26,0,0,1,6.56-2.22,5.12,5.12,0,0,1,.62.31,5.22,5.22,0,0,1,2,2,4.43,4.43,0,0,1,.48,1.22A4.59,4.59,0,0,1,132.91,299.08Z"/><path class="cls-12" d="M135.8,307a4.61,4.61,0,0,0-.43-1,4.86,4.86,0,0,0-.92-1.2,5.16,5.16,0,0,0-2.43-1.34,4.73,4.73,0,0,0-1-.14h-.24a5.21,5.21,0,0,0-3.38,1.23,4.59,4.59,0,0,0-.85.91h0a4.59,4.59,0,0,0-.42.66,5.18,5.18,0,0,0-.62,2.48c0,.14,0,.27,0,.4a5.15,5.15,0,0,1-.26-1.63,5.3,5.3,0,0,1,.33-1.83,3.45,3.45,0,0,1,.14-.34,4.35,4.35,0,0,1,.48-.84,5.27,5.27,0,0,1,4.33-2.27,4.92,4.92,0,0,1,1.44.21,4.48,4.48,0,0,1,.62.2,5.3,5.3,0,0,1,2.13,1.67,5.23,5.23,0,0,1,1,2A4.88,4.88,0,0,1,135.8,307Z"/><path class="cls-12" d="M138.17,316.22a4.81,4.81,0,0,1-.1,1,5.1,5.1,0,0,0-.68-2.38,4.27,4.27,0,0,0-.58-.83,5.3,5.3,0,0,0-2.38-1.6,5.15,5.15,0,0,0-1.63-.26h0a5.16,5.16,0,0,0-2.22.5,5,5,0,0,0-1.4,1,3,3,0,0,0-.39.41,5.18,5.18,0,0,0-1.15,2.39,1.48,1.48,0,0,1,0-.21,5.2,5.2,0,0,1,.75-2.71,1.4,1.4,0,0,1,.1-.16,5.41,5.41,0,0,1,.7-.88,5.28,5.28,0,0,1,3.73-1.54,4.82,4.82,0,0,1,1.37.19,4,4,0,0,1,1,.36,5.22,5.22,0,0,1,2.87,3.84A5.29,5.29,0,0,1,138.17,316.22Z"/><path class="cls-12" d="M140.86,324a4.22,4.22,0,0,0-.32-.68,5.13,5.13,0,0,0-1.1-1.35,5,5,0,0,0-2.51-1.23,4.59,4.59,0,0,0-1-.1h-.16a5.23,5.23,0,0,0-2.75.86,4.94,4.94,0,0,0-1.23,1.14,3.89,3.89,0,0,0-.51.76,5.2,5.2,0,0,0-.64,2.51,4.08,4.08,0,0,0,0,.61,5.29,5.29,0,0,1-.36-1.92,5.21,5.21,0,0,1,.34-1.86c0-.13.1-.26.16-.38a4.72,4.72,0,0,1,.65-1.05,5.29,5.29,0,0,1,4.13-2,4.91,4.91,0,0,1,1.39.19,5.4,5.4,0,0,1,.57.18,5.28,5.28,0,0,1,2.16,1.62,5,5,0,0,1,1,2.14A3.2,3.2,0,0,1,140.86,324Z"/><path class="cls-12" d="M144,330.77a5,5,0,0,0-1.08-1,5.28,5.28,0,0,0-2.45-.88h-.14a5.17,5.17,0,0,0-2,.24h0a4.09,4.09,0,0,0-1,.44h0a5,5,0,0,0-1.69,1.56,4.58,4.58,0,0,0-.6,1.11,5.28,5.28,0,0,0,.2,4.26,5.24,5.24,0,0,1-1-4.64,2,2,0,0,1,.08-.26,3.84,3.84,0,0,1,.25-.67,5.08,5.08,0,0,1,.7-1.11,5.29,5.29,0,0,1,4.53-1.92,5,5,0,0,1,.85.14l.18.05a5.27,5.27,0,0,1,2.26,1.34h0A4.77,4.77,0,0,1,144,330.77Z"/><path class="cls-12" d="M148.22,338.88a5.36,5.36,0,0,0-1.24-1.23,5.07,5.07,0,0,0-2.45-.92,3.81,3.81,0,0,0-.59,0,4.15,4.15,0,0,0-.79.07,5.11,5.11,0,0,0-3.1,1.65,4.81,4.81,0,0,0-.73,1,4.55,4.55,0,0,0-.44,1.07,4.87,4.87,0,0,0-.22,1.48,5.26,5.26,0,0,0,.58,2.41,5.24,5.24,0,0,1-1-3.06,5.32,5.32,0,0,1,.14-1.2,4.88,4.88,0,0,1,.26-.82,5.06,5.06,0,0,1,.44-.83,5.25,5.25,0,0,1,4.44-2.43h.15a3.93,3.93,0,0,1,1.09.15,5,5,0,0,1,2.26,1.19A4.93,4.93,0,0,1,148.22,338.88Z"/><path class="cls-12" d="M152.09,346a4.85,4.85,0,0,0-1-.95,5.13,5.13,0,0,0-2.3-1,3.26,3.26,0,0,0-.7-.07h-.18a5.24,5.24,0,0,0-4.58,2.67,6.36,6.36,0,0,0-.3.58,5.61,5.61,0,0,0-.3,1,4.9,4.9,0,0,0-.1,1,5.24,5.24,0,0,0,.69,2.61,5.32,5.32,0,0,1-1.18-3.34,4.52,4.52,0,0,1,.06-.74,4.18,4.18,0,0,1,.15-.72,3.05,3.05,0,0,1,.17-.51,5.28,5.28,0,0,1,4.9-3.31,4.62,4.62,0,0,1,1,.1,4,4,0,0,1,.57.14,5.32,5.32,0,0,1,2.15,1.27A5.42,5.42,0,0,1,152.09,346Z"/><path class="cls-12" d="M156.43,350.88a4.84,4.84,0,0,0-1.28-.49,5.07,5.07,0,0,0-1.24-.15,4.28,4.28,0,0,0-.81.07,3.81,3.81,0,0,0-.76.17,5.3,5.3,0,0,0-3.31,3h0a5.5,5.5,0,0,0-.27.9,5.19,5.19,0,0,0-.12,1.12,4.25,4.25,0,0,0,.07.8,5.16,5.16,0,0,0,1.75,3.18,5.23,5.23,0,0,1-2.52-3.42,5.13,5.13,0,0,1-.1-1.62,4.46,4.46,0,0,1,.07-.51,2.1,2.1,0,0,1,.06-.24,5.27,5.27,0,0,1,4.62-4,4.1,4.1,0,0,1,.61,0,5.48,5.48,0,0,1,.89.09,4.93,4.93,0,0,1,1,.31A4.67,4.67,0,0,1,156.43,350.88Z"/><path class="cls-12" d="M164.46,356.49a5.24,5.24,0,0,0-3.62-1.44h-.26a5,5,0,0,0-1.4.26h0a4,4,0,0,0-.88.38,5.23,5.23,0,0,0-2.68,3.88,4.52,4.52,0,0,0-.06.74,1.48,1.48,0,0,0,0,.21,5.2,5.2,0,0,0,.6,2.26,5.35,5.35,0,0,0,.41.64,4.28,4.28,0,0,1-.57-.64h0a5.16,5.16,0,0,1-1-2.11,3.49,3.49,0,0,1-.1-.79,1.62,1.62,0,0,1,0-.31,5.26,5.26,0,0,1,3.45-4.94,3.64,3.64,0,0,1,.71-.22,4.9,4.9,0,0,1,1-.11h.1A5.26,5.26,0,0,1,164.46,356.49Z"/><path class="cls-12" d="M167.13,368a5.19,5.19,0,0,0,2.06.65,6.18,6.18,0,0,1-1.93-.44,5.81,5.81,0,0,1-1.91-1.25,5,5,0,0,1-1.4-2.38,4.43,4.43,0,0,1-.15-1.15v0a5,5,0,0,1,1.66-3.67,4.89,4.89,0,0,1,.55-.45,4.66,4.66,0,0,1,.77-.47,6,6,0,0,1,2.41-.66,5.07,5.07,0,0,0-2.29.8,4.39,4.39,0,0,0-.84.65,6.09,6.09,0,0,0-.66.77,5,5,0,0,0-.88,2.24,4.36,4.36,0,0,0,0,1.5,5.16,5.16,0,0,0,1.15,2.67A5.56,5.56,0,0,0,167.13,368Z"/><path class="cls-12" d="M175.58,363.41a4.53,4.53,0,0,1-.27,1.56h0a4.66,4.66,0,0,1-.4.88h0a5.93,5.93,0,0,1-4.62,2.79,5.28,5.28,0,0,0,4.31-3.19h0a4.64,4.64,0,0,0,.35-1.34h0a4,4,0,0,0,.06-.7,5.37,5.37,0,0,0-.25-1.61v0a4.69,4.69,0,0,0-.43-1c-.07-.12-.14-.24-.22-.36a5.34,5.34,0,0,0-3.13-2.17,6,6,0,0,1,3.3,1.83,5.13,5.13,0,0,1,.65.88l.19.36h0A4.74,4.74,0,0,1,175.58,363.41Z"/></g><g id="pearls"><path class="cls-13" d="M131.37,250.81c-1.42,2.85-2.62,4.73-3.11,5l-2.37.84a4.72,4.72,0,0,0-.06-1.18,5.24,5.24,0,0,0-3.21-4,5.26,5.26,0,0,1,8.75-.68Z"/><path class="cls-13" d="M180.85,257.83a5.22,5.22,0,0,0,.62,2.49c-2.33-1-3.88-1.88-4.37-2.58a13.45,13.45,0,0,1-1.88-4,5.26,5.26,0,0,1,8.39-.58A5.27,5.27,0,0,0,180.85,257.83Z"/><path class="cls-13" d="M192.41,257.83a3.71,3.71,0,0,1,0,.67,4.93,4.93,0,0,0-.55,0l-.45,0h0a5.22,5.22,0,0,0-4.49,3.41h0a3.06,3.06,0,0,0-.13.43,3.14,3.14,0,0,0-.15.74,5.28,5.28,0,0,1-3.76-2.2s0,0,0,0a.38.38,0,0,1-.09-.13,5.27,5.27,0,0,1,3.87-8.15s0,0,.06,0,0,0,0,0a3.44,3.44,0,0,1,.46,0A5.27,5.27,0,0,1,192.41,257.83Z"/><path class="cls-13" d="M197.09,264.73v.07a4.12,4.12,0,0,1-.09.86,4.85,4.85,0,0,1-.56,1.63,5.93,5.93,0,0,0-2-.39,5.29,5.29,0,0,0-4.08,1.92,5.59,5.59,0,0,0-.55.82,6.45,6.45,0,0,1-.59-.29,0,0,0,0,1,0,0,5.25,5.25,0,0,1-2.67-4.59,3.44,3.44,0,0,1,0-.46.11.11,0,0,1,0-.08,5.19,5.19,0,0,1,.24-1.12,0,0,0,0,1,0,0,4,4,0,0,1,.25-.6,2.55,2.55,0,0,1,.23-.43,5.24,5.24,0,0,1,3.84-2.51,3.82,3.82,0,0,1,.68,0,1.83,1.83,0,0,1,.33,0,5.26,5.26,0,0,1,4.92,4.72.11.11,0,0,1,0,.08A3.15,3.15,0,0,1,197.09,264.73Z"/><path class="cls-13" d="M199.71,273.18a5.22,5.22,0,0,1-1.39,3.56,4.2,4.2,0,0,0-.8-.28,4.93,4.93,0,0,0-1.4-.2,5.21,5.21,0,0,0-3.09,1,4.57,4.57,0,0,0-.8.72l-.39-.2a5.27,5.27,0,0,1-2.69-4.6,3.44,3.44,0,0,1,0-.46.11.11,0,0,1,0-.08,5.21,5.21,0,0,1,.78-2.27c.12-.19.25-.37.39-.55a5.36,5.36,0,0,1,4.08-1.92,3.9,3.9,0,0,1,.59,0h0a4.09,4.09,0,0,1,.86.17,5.14,5.14,0,0,1,2.39,1.46,4.61,4.61,0,0,1,.74,1,5,5,0,0,1,.66,2.06.11.11,0,0,1,0,.08A3.44,3.44,0,0,1,199.71,273.18Z"/><path class="cls-13" d="M201.4,282.54a5.25,5.25,0,0,1-1.66,3.83A4,4,0,0,0,199,286a5.09,5.09,0,0,0-1.74-.46,5.23,5.23,0,0,0-3.33.85,4.19,4.19,0,0,0-.59.45l-.15.14a5.27,5.27,0,0,1-2.36-4.4,3.44,3.44,0,0,1,0-.46.11.11,0,0,1,0-.08,5.18,5.18,0,0,1,1.64-3.3,4.47,4.47,0,0,1,.52-.44,5,5,0,0,1,1.75-.82,4.1,4.1,0,0,1,1-.16,2,2,0,0,1,.35,0,4.93,4.93,0,0,1,1.4.2A5.07,5.07,0,0,1,200,279a4.44,4.44,0,0,1,.68.93,5.14,5.14,0,0,1,.65,2.05.11.11,0,0,1,0,.08A3.44,3.44,0,0,1,201.4,282.54Z"/><path class="cls-13" d="M202.09,292.2a5.25,5.25,0,0,1-2.47,4.05,5.42,5.42,0,0,0-1-.52h0a5.25,5.25,0,0,0-3.1-.25,4.84,4.84,0,0,0-.65.19,4.57,4.57,0,0,0-.81.37l-.18.11a5.25,5.25,0,0,1-2.32-4.82v0a5.3,5.3,0,0,1,2.17-3.8l.2-.14a4.87,4.87,0,0,1,1.28-.61h0a5.09,5.09,0,0,1,2-.24,3.4,3.4,0,0,1,.46.06,5,5,0,0,1,1.28.4,5.29,5.29,0,0,1,2.19,1.86,1.8,1.8,0,0,1,.21.35h0a5.24,5.24,0,0,1,.67,2v0A6.28,6.28,0,0,1,202.09,292.2Z"/><path class="cls-13" d="M200.52,305.26a5.72,5.72,0,0,0-.61-.46,5.28,5.28,0,0,0-6.09.27,1.29,1.29,0,0,0-.18.16,2.56,2.56,0,0,0-.42.39,5.24,5.24,0,0,1-1.7-2.84,5.3,5.3,0,0,1-.1-1.58v-.07a5.24,5.24,0,0,1,3.1-4.31,2.28,2.28,0,0,1,.36-.15,4.84,4.84,0,0,1,.65-.19,5.25,5.25,0,0,1,3.1.25h0a5.2,5.2,0,0,1,2.35,1.85,3.35,3.35,0,0,1,.27.45,5,5,0,0,1,.57,1.46,3.52,3.52,0,0,1,.1.65v0A5.29,5.29,0,0,1,200.52,305.26Z"/><path class="cls-13" d="M202.31,309.68v0a5.13,5.13,0,0,1,0,1,5.23,5.23,0,0,1-1.81,3.55,4,4,0,0,0-.68-.49,5.25,5.25,0,0,0-5.54,0c-.08,0-.16.1-.24.15s-.3.22-.44.34a5.27,5.27,0,0,1-1.81-4.42v-.06a5.31,5.31,0,0,1,2-3.68L194,306a4.7,4.7,0,0,1,.73-.46,5.31,5.31,0,0,1,2.81-.54,5.25,5.25,0,0,1,1.55.37h0a5,5,0,0,1,.86.45,5.25,5.25,0,0,1,1.73,1.84,1.3,1.3,0,0,1,.14.26A5.11,5.11,0,0,1,202.31,309.68Z"/><path class="cls-13" d="M202.33,319.23a5.28,5.28,0,0,1-1.49,3.68,5.09,5.09,0,0,0-.46-.58,5.28,5.28,0,0,0-3.89-1.71,5.2,5.2,0,0,0-2.71.75,4.45,4.45,0,0,0-.61.43,3.8,3.8,0,0,0-.47.43,5.25,5.25,0,0,1-.93-3,3.44,3.44,0,0,1,0-.46s0,0,0-.06v0a5.27,5.27,0,0,1,2.48-3.95.21.21,0,0,1,.1-.06,4.64,4.64,0,0,1,1-.44,5.19,5.19,0,0,1,3.42,0,4.48,4.48,0,0,1,1.06.5,5.18,5.18,0,0,1,1.83,1.89,1.19,1.19,0,0,1,.08.16,5.12,5.12,0,0,1,.57,1.9v0s0,0,0,.06A3.44,3.44,0,0,1,202.33,319.23Z"/><path class="cls-13" d="M201.77,326.9a5.28,5.28,0,0,1-2,4.16,5.11,5.11,0,0,0-.68-.55,5.28,5.28,0,0,0-5.54-.22.41.41,0,0,0-.11.07,3.45,3.45,0,0,0-.56.38,5.26,5.26,0,0,1-1.65-3.84,3.55,3.55,0,0,1,0-.46.09.09,0,0,1,0-.07h0a5.22,5.22,0,0,1,1.93-3.56,4.45,4.45,0,0,1,.61-.43l.1-.06a5.27,5.27,0,0,1,5.88.45,5,5,0,0,1,1.32,1.54,4.81,4.81,0,0,1,.57,1.52,3.38,3.38,0,0,1,.09.54h0a.09.09,0,0,1,0,.07A3.55,3.55,0,0,1,201.77,326.9Z"/><path class="cls-13" d="M201.4,335.89a5.25,5.25,0,0,1-2.53,4.5,4.19,4.19,0,0,0-.69-.64,5.25,5.25,0,0,0-5.2-.68l0,0a4.63,4.63,0,0,0-.7.36,5.22,5.22,0,0,1-1.39-3.56,3.44,3.44,0,0,1,0-.46.09.09,0,0,1,0-.07h0a5.24,5.24,0,0,1,2.66-4.06l.2-.11a4.45,4.45,0,0,1,.88-.34h0a5,5,0,0,1,1.5-.23A5.16,5.16,0,0,1,198,331a5.07,5.07,0,0,1,1.06.55,5.24,5.24,0,0,1,1.65,1.79,3,3,0,0,1,.16.31,5.12,5.12,0,0,1,.49,1.74h0a.09.09,0,0,1,0,.07A3.44,3.44,0,0,1,201.4,335.89Z"/><path class="cls-13" d="M199.71,345.06a5.26,5.26,0,0,1-.33,1.83h0a5.13,5.13,0,0,1-1.72,2.33,5.12,5.12,0,0,0-.3-.57,5.27,5.27,0,0,0-6.14-2.34,4.18,4.18,0,0,0-.76.31,4.46,4.46,0,0,0-.86.54,5.36,5.36,0,0,1-.44-2.12,5.23,5.23,0,0,1,.88-2.92l0,0a5.26,5.26,0,0,1,2.79-2.08,2.62,2.62,0,0,1,.4-.11,4.54,4.54,0,0,1,.91-.13h.28a4.85,4.85,0,0,1,1.9.38h.06a4.88,4.88,0,0,1,1.31.76,5.29,5.29,0,0,1,1.32,1.54,5.07,5.07,0,0,1,.29.57A5.29,5.29,0,0,1,199.71,345.06Z"/><path class="cls-13" d="M197.09,352.29v.08a5.2,5.2,0,0,1-1.08,3.19h0a5.06,5.06,0,0,1-2,1.61,3.56,3.56,0,0,0-.23-.62,5.26,5.26,0,0,0-4.81-3.11,1.83,1.83,0,0,0-.33,0,3.08,3.08,0,0,0-.61.07h0l.57.15a5.25,5.25,0,0,1,3,2.43,3,3,0,0,1,.2.4h0a5.14,5.14,0,0,1,.35,1.09,5,5,0,0,1,.12,1.1,3.56,3.56,0,0,1-.05.65h0a5.23,5.23,0,0,1-4.23,4.52,4.78,4.78,0,0,1-1,.1,4.17,4.17,0,0,1-.71-.06,4.1,4.1,0,0,1-1.11-.27,4.57,4.57,0,0,0,.14-1.17,5.17,5.17,0,0,0-.17-1.31,5.07,5.07,0,0,0-1.15-2.17,2.56,2.56,0,0,0-.28-.3h0a5,5,0,0,0-1.86-1.16,5.24,5.24,0,0,1,4.85-4.09,5,5,0,0,1-.12-1.1,5.27,5.27,0,0,1,2.08-4.2h0a5.35,5.35,0,0,1,1.13-.67,4.79,4.79,0,0,1,1.06-.31,1.33,1.33,0,0,1,.34-.05,3.67,3.67,0,0,1,.66-.05,5.24,5.24,0,0,1,4.17,2.05,4.31,4.31,0,0,1,.42.63.56.56,0,0,1,.09.17A5.23,5.23,0,0,1,197.09,352.29Z"/><path class="cls-13" d="M125,257v.08a.13.13,0,0,1,0,.06,5.2,5.2,0,0,1-2.34,4,5.21,5.21,0,0,0-4-1,5,5,0,0,0-1.28.38,4.16,4.16,0,0,0-.47.24l-.31.19a5.19,5.19,0,0,1-.77-.71l0-.05a5.29,5.29,0,0,1,2.61-8.54h0l.52-.11a5.31,5.31,0,0,1,6.07,4.35A5,5,0,0,1,125,257Z"/><path class="cls-13" d="M184.26,362.51a3.69,3.69,0,0,1,0,.58h0a.3.3,0,0,1,0,.13h0a5.26,5.26,0,0,1-4.68,4.52h-.08a3.44,3.44,0,0,1-.46,0,5.06,5.06,0,0,1-2.3-.54.89.89,0,0,1-.29-.15,0,0,0,0,1,0,0h0a5.06,5.06,0,0,1-1.46-1.22h0a4.66,4.66,0,0,0,.4-.88h0a4.53,4.53,0,0,0,.27-1.56,4.74,4.74,0,0,0-.46-2.05h0l-.19-.36a5.13,5.13,0,0,0-.65-.88,5.26,5.26,0,0,1,4.7-2.88,3.44,3.44,0,0,1,.46,0h.08a5.29,5.29,0,0,1,4.06,2.66l.12.22A5.24,5.24,0,0,1,184.26,362.51Z"/><path class="cls-13" d="M123.84,268.28l0,.07a4.69,4.69,0,0,1-.74,1.13.78.78,0,0,0-.2-.11,5.18,5.18,0,0,0-3.35-.56A5.27,5.27,0,0,0,117,270a5.39,5.39,0,0,0-.59.58s0,0,0,0a5.25,5.25,0,0,1-1.72-7.44.05.05,0,0,1,0,0,5.31,5.31,0,0,1,2.3-1.91l.09,0a4.66,4.66,0,0,1,.85-.26,2.8,2.8,0,0,1,.28-.06,5.18,5.18,0,0,1,3.58.69l0,0a5.21,5.21,0,0,1,1.83,1.9.61.61,0,0,1,.07.14,5.24,5.24,0,0,1,.54,1.59A5.33,5.33,0,0,1,123.84,268.28Z"/><path class="cls-13" d="M125.37,275.64s0,0,0,0v0a5.09,5.09,0,0,1-.84,2.44,3.77,3.77,0,0,0-.59-.22,5.09,5.09,0,0,0-2.43-.18,5.26,5.26,0,0,0-2.71,1.33,4.8,4.8,0,0,0-.85,1,3.61,3.61,0,0,1-.44-.22,5.26,5.26,0,0,1-2.61-3.73,5,5,0,0,1,.21-2.54,5.22,5.22,0,0,1,1.68-2.43,1.86,1.86,0,0,1,.28-.21,4.45,4.45,0,0,1,1-.54,5.24,5.24,0,0,1,3.49-.22,3.58,3.58,0,0,1,.55.19,5.12,5.12,0,0,1,2.28,1.78,4.41,4.41,0,0,1,.35.53,5.19,5.19,0,0,1,.6,1.71A4.88,4.88,0,0,1,125.37,275.64Z"/><path class="cls-13" d="M127.1,286.85a4.65,4.65,0,0,0-.92-.27,4.83,4.83,0,0,0-1.08-.12,5.22,5.22,0,0,0-3.81,1.64,4.63,4.63,0,0,0-.67.86,4.85,4.85,0,0,1-.61-.29,5.26,5.26,0,0,1-2.61-3.73c0-.11,0-.23,0-.34a5.24,5.24,0,0,1,1-3.65,5.55,5.55,0,0,1,.49-.58,5.18,5.18,0,0,1,2.89-1.5,5.19,5.19,0,0,1,.87-.07h0a4.69,4.69,0,0,1,1.24.16,5.15,5.15,0,0,1,2.51,1.41,5.49,5.49,0,0,1,.85,1.13,5.38,5.38,0,0,1,.6,1.71A5.25,5.25,0,0,1,127.1,286.85Z"/><path class="cls-13" d="M130.7,292.63a5.21,5.21,0,0,1-.43,2.09,5.12,5.12,0,0,0-.62-.31,5.26,5.26,0,0,0-6.56,2.22h0a4.07,4.07,0,0,0-.28.55l0,0a5.2,5.2,0,0,1-2.45-3.21h0s0,0,0,0h0a5.24,5.24,0,0,1,.62-4.09,5.13,5.13,0,0,1,.47-.65,5.28,5.28,0,0,1,1.15-1,5.12,5.12,0,0,1,2.68-.84h.19a4.83,4.83,0,0,1,1.21.15,5.09,5.09,0,0,1,2.47,1.35A5.33,5.33,0,0,1,130,290c.06.11.12.22.17.33A5.17,5.17,0,0,1,130.7,292.63Z"/><path class="cls-13" d="M133.07,300.34a5.25,5.25,0,0,1-.47,2.17,4.48,4.48,0,0,0-.62-.2,4.92,4.92,0,0,0-1.44-.21,5.27,5.27,0,0,0-4.33,2.27,4.35,4.35,0,0,0-.48.84l-.55-.28a5.25,5.25,0,0,1-2.67-4.42,1,1,0,0,1,0-.17,5.11,5.11,0,0,1,.68-2.57,1.56,1.56,0,0,1,.16-.28,4.11,4.11,0,0,1,.49-.63,5.21,5.21,0,0,1,4-1.8,4.93,4.93,0,0,1,1.28.16,4.4,4.4,0,0,1,.8.26,5.26,5.26,0,0,1,2.17,1.73,3.84,3.84,0,0,1,.35.54,4.81,4.81,0,0,1,.53,1.33h0A4.71,4.71,0,0,1,133.07,300.34Z"/><path class="cls-13" d="M136.06,308.61a5.31,5.31,0,0,1-.84,2.87,4,4,0,0,0-1-.36,4.82,4.82,0,0,0-1.37-.19,5.28,5.28,0,0,0-3.73,1.54,5.41,5.41,0,0,0-.7.88,1.51,1.51,0,0,1-.28-.15,5.25,5.25,0,0,1-2.66-4.15v0c0-.13,0-.26,0-.4a5.18,5.18,0,0,1,.62-2.48,4.59,4.59,0,0,1,.42-.66h0a4.59,4.59,0,0,1,.85-.91,5.21,5.21,0,0,1,3.38-1.23H131a4.73,4.73,0,0,1,1,.14,5.16,5.16,0,0,1,2.43,1.34,4.86,4.86,0,0,1,.92,1.2,4.61,4.61,0,0,1,.43,1A5.15,5.15,0,0,1,136.06,308.61Z"/><path class="cls-13" d="M138.08,317.44a5.25,5.25,0,0,1-.5,2.24,5.4,5.4,0,0,0-.57-.18,4.91,4.91,0,0,0-1.39-.19,5.29,5.29,0,0,0-4.13,2,4.72,4.72,0,0,0-.65,1.05,3.64,3.64,0,0,1-.63-.3,5.28,5.28,0,0,1-2.69-4.61,4.71,4.71,0,0,1,.1-1h0a5.18,5.18,0,0,1,1.15-2.39,3,3,0,0,1,.39-.41,5,5,0,0,1,1.4-1,5.16,5.16,0,0,1,2.22-.5h0a5.15,5.15,0,0,1,1.63.26,5.3,5.3,0,0,1,2.38,1.6,4.27,4.27,0,0,1,.58.83,5.1,5.1,0,0,1,.68,2.38h0A1.34,1.34,0,0,1,138.08,317.44Z"/><path class="cls-13" d="M141.23,325.9a5,5,0,0,1-.5,2.22l-.18-.05a5,5,0,0,0-.85-.14,5.29,5.29,0,0,0-4.53,1.92,5.08,5.08,0,0,0-.7,1.11,4.9,4.9,0,0,1-1.13-.47,5.25,5.25,0,0,1-2.64-4,4.08,4.08,0,0,1,0-.61,5.2,5.2,0,0,1,.64-2.51,3.89,3.89,0,0,1,.51-.76,4.94,4.94,0,0,1,1.23-1.14,5.23,5.23,0,0,1,2.75-.86H136a4.59,4.59,0,0,1,1,.1,5,5,0,0,1,2.51,1.23,5.13,5.13,0,0,1,1.1,1.35,4.22,4.22,0,0,1,.32.68h0A5.08,5.08,0,0,1,141.23,325.9Z"/><path class="cls-13" d="M145.16,334.69a5.08,5.08,0,0,1-.38,1.51,3.93,3.93,0,0,0-1.09-.15h-.15a5.25,5.25,0,0,0-4.44,2.43,5.06,5.06,0,0,0-.44.83,4.75,4.75,0,0,1-1.34-.53,5.25,5.25,0,0,1-2.12-2.21l0,0a5.28,5.28,0,0,1-.2-4.26,4.58,4.58,0,0,1,.6-1.11,5,5,0,0,1,1.69-1.56h0a4.09,4.09,0,0,1,1-.44h0a5.17,5.17,0,0,1,2-.24h.14a5.28,5.28,0,0,1,2.45.88,5,5,0,0,1,1.08,1s0,0,0,0a4.17,4.17,0,0,1,.54.78A5.24,5.24,0,0,1,145.16,334.69Z"/><path class="cls-13" d="M149.22,342a5,5,0,0,1-.21,1.46,4,4,0,0,0-.57-.14,4.62,4.62,0,0,0-1-.1,5.28,5.28,0,0,0-4.9,3.31,3.05,3.05,0,0,0-.17.51,4.81,4.81,0,0,1-1-.45,5.23,5.23,0,0,1-2.06-2.11.25.25,0,0,1,0-.07,5.26,5.26,0,0,1-.58-2.41,4.87,4.87,0,0,1,.22-1.48,4.55,4.55,0,0,1,.44-1.07,4.81,4.81,0,0,1,.73-1,5.11,5.11,0,0,1,3.1-1.65,4.15,4.15,0,0,1,.79-.07,3.81,3.81,0,0,1,.59,0,5.07,5.07,0,0,1,2.45.92,5.36,5.36,0,0,1,1.24,1.23,3.84,3.84,0,0,1,.32.5A5.29,5.29,0,0,1,149.22,342Z"/><path class="cls-13" d="M153.22,349.2a3.87,3.87,0,0,1,0,.48,4.1,4.1,0,0,0-.61,0,5.27,5.27,0,0,0-4.62,4,2.1,2.1,0,0,0-.06.24,4.46,4.46,0,0,0-.07.51,5,5,0,0,1-2.48-.68,5,5,0,0,1-2-2l0,0a5.24,5.24,0,0,1-.69-2.61,4.9,4.9,0,0,1,.1-1,5.61,5.61,0,0,1,.3-1,6.36,6.36,0,0,1,.3-.58,5.24,5.24,0,0,1,4.58-2.67h.18a3.26,3.26,0,0,1,.7.07,5.13,5.13,0,0,1,2.3,1,4.85,4.85,0,0,1,1,.95h0a3.54,3.54,0,0,1,.44.65A5.19,5.19,0,0,1,153.22,349.2Z"/><path class="cls-13" d="M159.07,354.43a3.64,3.64,0,0,0-.71.22,5.26,5.26,0,0,0-3.45,4.94,1.62,1.62,0,0,0,0,.31,3.49,3.49,0,0,0,.1.79,5.19,5.19,0,0,1-1.12.12,5.29,5.29,0,0,1-2.59-.68,4.44,4.44,0,0,1-.84-.6s0,0,0,0a5.16,5.16,0,0,1-1.75-3.18,4.25,4.25,0,0,1-.07-.8,5.19,5.19,0,0,1,.12-1.12,5.5,5.5,0,0,1,.27-.9h0a5.3,5.3,0,0,1,3.31-3,3.81,3.81,0,0,1,.76-.17,4.28,4.28,0,0,1,.81-.07,5.07,5.07,0,0,1,1.24.15,4.84,4.84,0,0,1,1.28.49l0,0a5.28,5.28,0,0,1,2,2A4.91,4.91,0,0,1,159.07,354.43Z"/><path class="cls-13" d="M163.8,363.41v0a4.43,4.43,0,0,0,.15,1.15,5.27,5.27,0,0,1-7.37-1.15,5.35,5.35,0,0,1-.41-.64,5.2,5.2,0,0,1-.6-2.26,1.48,1.48,0,0,1,0-.21,4.52,4.52,0,0,1,.06-.74,5.23,5.23,0,0,1,2.68-3.88,4,4,0,0,1,.88-.38h0a5,5,0,0,1,1.4-.26h.26a5.24,5.24,0,0,1,3.62,1.44,5.16,5.16,0,0,1,1,1.25,5,5,0,0,1,.57,1.55,4.89,4.89,0,0,0-.55.45A5,5,0,0,0,163.8,363.41Z"/><path class="cls-13" d="M175,363.41a4,4,0,0,1-.06.7h0a4.64,4.64,0,0,1-.35,1.34h0a5.28,5.28,0,0,1-4.31,3.19,5.12,5.12,0,0,1-.56,0l-.54,0a5.19,5.19,0,0,1-2.06-.65,5.56,5.56,0,0,1-1.47-1.22,5.16,5.16,0,0,1-1.15-2.67,4.36,4.36,0,0,1,0-1.5,5,5,0,0,1,.88-2.24,6.09,6.09,0,0,1,.66-.77,4.39,4.39,0,0,1,.84-.65,5.07,5.07,0,0,1,2.29-.8,4.89,4.89,0,0,1,.54,0,5.19,5.19,0,0,1,1.12.12l.13,0a5.34,5.34,0,0,1,3.13,2.17c.08.12.15.24.22.36a4.69,4.69,0,0,1,.43,1v0A5.37,5.37,0,0,1,175,363.41Z"/></g></svg>