<svg id="Layer_1" data-name="Layer 1" xmlns="http://www.w3.org/2000/svg" viewBox="0 0 311.51 372.42"><defs><style>.cls-1{fill:#e2ab90;}.cls-2{fill:#9f4c24;opacity:0.25;}.cls-3{fill:#010101;}.cls-4{fill:#353635;}.cls-5{fill:#053a59;}.cls-6{fill:#fff;}.cls-7{fill:#cfcfce;}</style></defs><g id="skin"><path class="cls-1" d="M269.83,151a232.6,232.6,0,0,1-8.67,21.78,159.55,159.55,0,0,1-16.52,28.49l-.19.26c-8.2,11-18.85,21.2-30.69,22.59l-.3,0-1,.09s-14.59,1.1-34.45-8.47a1,1,0,0,1-.08.14,34.5,34.5,0,0,0-3.37,8.66s0,.06,0,.09c-.06.26-.11.52-.17.78v0c0,.3-.1.6-.14.9s-.08.6-.11.9,0,.4,0,.59a16.9,16.9,0,0,0,.07,3.26.2.2,0,0,1,0,.07h0a20.12,20.12,0,0,0,.74,3.87c.49,2.78.9,6.25,1.24,10.12,1.52,17.29,1.66,42.48,1.66,48.9v.35c-.12-.31-.26-.65-.42-1-2.5-5.7-9.71-18.08-30-44.45,0,0-11-15.21-6.79-30.29h0a75.81,75.81,0,0,0,5.56-25.57h0c0-.13,0-.27,0-.4a169.77,169.77,0,0,1-25-32.52c-6.17,8.16-14.33-5.44-14.33-5.44-14.62-15.83-7.66-26.27-7.66-26.27a4.49,4.49,0,0,1,.43-.44c6.16-5.86,18.72,4.27,18.72,4.27l.29,1,1,.62c2.14,1.4,3.49,2.5,3.53,2.53l6.89,5.65-5.46-7c-.35-.45-.69-.91-1-1.36s-.6-.84-.88-1.25h0c-.29-.43-.57-.86-.84-1.3s-.54-.86-.78-1.28l-.08-.13a.17.17,0,0,1,0-.05c-.14-.24-.28-.48-.41-.72s-.27-.48-.39-.71-.33-.61-.48-.91c-.52-1-1-2-1.37-2.86l1.46-.27c.25.24.51.47.77.69s.51.45.77.67c.77.66,1.54,1.27,2.31,1.85q1.55,1.17,3,2.13l1.46.92.72.43.69.4.68.38.66.36.57.3,1.08.55a47.11,47.11,0,0,0,4.66,2l.24.08.08,0,5.4,1.8-4.47-3.54a21.93,21.93,0,0,1-1.77-1.56c-.19-.17-.38-.36-.56-.55s-.61-.64-.89-1-.45-.51-.66-.78-.33-.41-.48-.62l-.59-.81a.13.13,0,0,1,0-.06c-.17-.23-.33-.47-.48-.71s-.27-.4-.39-.6-.27-.43-.39-.65-.27-.45-.39-.68-.22-.39-.31-.58-.27-.52-.4-.78-.26-.52-.38-.79-.25-.53-.36-.8l.65-.1q3.28-.49,6.57-.93l3.29-.4,1.55-.17A4.17,4.17,0,0,0,145,124.4a9.86,9.86,0,0,1,0,2.36c-.05.57-.1,1.1-.1,1.6l.69,8.83,0,.17C148.28,151,159.27,151,162.88,151h29.39a13.65,13.65,0,0,0,10.78-4.94,15.73,15.73,0,0,0,3.68-9.24l.67-8.16c1.92-.37,3.89-.66,5.84-.89a70.77,70.77,0,0,1,7.26-.47,54.18,54.18,0,0,1,7.21.4l1.79.25c.59.1,1.17.24,1.76.35a27.6,27.6,0,0,1,3.11.75l.52,7.69c.17,6,4.09,14.26,12.29,14.26h22.65Z"/><path class="cls-1" d="M278.76,85.09a.05.05,0,0,1,0,0c-.43.2-.87.39-1.32.58a91.2,91.2,0,0,1-16.7,5.18A118.48,118.48,0,0,1,228.49,93c-.44,0-48.11-.73-77-25.63l-1.2-1.06c0,.46.09,1,.16,1.55,0,.22.07.45.1.69a0,0,0,0,1,0,0c.81,5.15,3.49,14.07,12.17,23.45l.8.87,2.75,3-4.72-2.26c-.83-.39-17.54-8.48-28.35-20.12a48.34,48.34,0,0,1-3.76-4.56c-.07.33-.16.69-.24,1.09,0,.17-.07.34-.11.51l-.23,1.12c-.08.4-.16.81-.25,1.24-.17.87-.34,1.81-.52,2.83-.08.5-.17,1-.26,1.56s-.18,1.09-.26,1.66c0,.29-.09.57-.13.86-.08.59-.17,1.18-.25,1.79l-.12.92c-.06.47-.12.94-.17,1.42s-.11,1-.16,1.45a118.38,118.38,0,0,0-.69,14c0,.71,0,1.43.06,2.14s.06,1.45.11,2.18c.09,1.42.21,2.83.38,4.23l0,.26c.07.58.14,1.16.23,1.73,0,.09,0,.17,0,.26,0,.35.11.7.17,1.05,0,.08,0,.17,0,.25s0,.19,0,.28c.13.7.26,1.38.4,2.06a0,0,0,0,1,0,0c.1.47.21.93.32,1.39s.26,1,.41,1.53c0,.17.08.33.13.49q.23.78.48,1.56l1.67-.08q3.34-.12,6.69-.18l3.36,0h1.84a11.3,11.3,0,0,1,.29-1.1c.72-2.25,4.51-2.52,13-2.93l2-.1H194c5.57.17,9.1,1,11.17,2.56a6.6,6.6,0,0,1,2.5,5.24,27.36,27.36,0,0,1-.07,3.11c0,.32,0,.65-.05,1a42.42,42.42,0,0,1,5.31-1.31,46.42,46.42,0,0,1,7.64-.74,37.6,37.6,0,0,1,7.7.64,27.71,27.71,0,0,1,6.1,1.85c0-.49,0-1-.06-1.43,0-1.08-.1-2.11-.06-3.09a7.15,7.15,0,0,1,2.08-5.16c1.78-1.64,4.8-2.48,9.5-2.65h30.07l1.78.1.64,0h.06l.21-1.84-.06,0-1.23-1.18a20.3,20.3,0,0,0-10.05-4.82c-11.7-2.47-26.17,1.36-26.36,1.41l-.71.19-.39-.61a3.76,3.76,0,0,1-.56-2.85,2.41,2.41,0,0,1,1.46-1.53l.2-.06c.8-.16,14.67-2.76,26.19-.12,4.54,1,8.72,2.88,11.59,6l.19.21,0,0A133.34,133.34,0,0,0,278.76,85.09Z"/></g><g id="skin_shadows"><path class="cls-2" d="M174.88,235.09c.49,2.78.9,6.25,1.24,10.12-3.29-2-5.46-3.83-5.43-5,0,0-10.7-29.88-23.78-46.09,2.92,3.41,13,13.95,31,21.86l.38.17a40.63,40.63,0,0,0-2.32,4.8,14.88,14.88,0,0,0-1.43,3.69s0,.06,0,.09c-.06.26-.11.52-.17.78v0c0,.3-.1.6-.14.9s-.08.6-.11.9,0,.4,0,.59a23,23,0,0,0,.07,3.26.2.2,0,0,1,0,.07h0A20.12,20.12,0,0,0,174.88,235.09Z"/><path class="cls-2" d="M177.19,238.09h0l-.11-.09Z"/><path class="cls-2" d="M177.36,238.22l-.15,0s0-.05,0-.08Z"/><path class="cls-2" d="M189.59,251.92l-.16-.07a1.45,1.45,0,0,1,.1-.18A1,1,0,0,1,189.59,251.92Z"/><path class="cls-2" d="M201.33,256.24l-.07,0-5.48-10.7L194.46,243l.08,0C196.44,246.71,199.06,251.85,201.33,256.24Z"/><path class="cls-2" d="M133.21,73.5q-1.92-1.64-4-3.47c.08-.4.17-.76.24-1.09A48.34,48.34,0,0,0,133.21,73.5Z"/><path class="cls-2" d="M151.49,67.38c-.71-.25-1,0-1,.49-.07-.58-.13-1.09-.16-1.55Z"/><path class="cls-2" d="M165.28,93.72l-1.75-.81-.8-.87c-8.68-9.38-11.36-18.3-12.17-23.45C151.93,74,166.64,94.38,165.28,93.72Z"/><path class="cls-2" d="M269.64,151c-2.07,6-4.54,12.17-7.46,18.57a171.31,171.31,0,0,1-17.54,31.7l-.19.26c-8.29,11.43-18.93,21.73-30.69,22.59l-.3,0S246.42,210,261,151Z"/><path class="cls-2" d="M278.42,112.69q-.09.93-.21,1.89l-.64,0-1.78-.1H267c.17-2.61.25-5.24.19-7.75a20.3,20.3,0,0,1,10.05,4.82Z"/><path class="cls-2" d="M278.75,109.34l-.19-.21c-2.87-3.13-7.05-5-11.59-6-.53-6.52-2.27-11.58-6.27-12.25a91.2,91.2,0,0,0,16.7-5.18c.45-.19.89-.38,1.32-.58A139.4,139.4,0,0,1,278.75,109.34Z"/><path class="cls-2" d="M121.52,149.43a4.4,4.4,0,0,1-5.74.23c-3.39-3.92,2.08-7.27,2.08-7.27-4.52-11.27-13.65-7.63-14.18-7.37,0,0,9.18-.59,11.52,7.32,0,0-3,0-4.78,3.9,0,0-1.76,4.29,2.92,6.93.34.19,6.64,3.12,9-2.93Z"/></g><path id="mouth" class="cls-3" d="M192.77,171.67c0-.58-13.45,23.73,16.32,22.76C209.09,194.43,188.25,189,192.77,171.67Z"/><g id="nose"><path class="cls-3" d="M209,166s8.56-7.64,15.56-1.63c0,0,5.58,5.34-.23,12.54,0,0,10-8.61.78-15.87C225.1,161.05,217.76,155.77,209,166Z"/><path class="cls-3" d="M211.85,173.59s-.86-3.81,5.73-1.14Z"/></g><g id="lenses"><path class="cls-4" d="M204.64,122.4a27,27,0,0,1-.08,2.77c-.05.86-.1,1.76-.1,2.7l-.72,8.82c-.13,3.78-3.16,11.51-11.78,11.34H162.88c-5.63,0-12.33-1.27-14.28-11.16l-.67-8.57c0-.38,0-.83.08-1.29.16-1.93.38-4.58-1.75-5.36-.51-.19-1.43-.53-.7-3,1.23-.66,6.5-.91,10.38-1.1l2-.09h36c4.8.14,7.87.78,9.39,1.94A3.59,3.59,0,0,1,204.64,122.4Z"/><path class="cls-4" d="M285.31,121.69c-1.85.81-1.68,3.2-1.53,5.3,0,.49.07,1,.07,1.27l-.57,8.65c-.89,5.51-3,11.12-11.63,11.12H247.43c-6.3.14-9.41-6.67-9.54-11.4l-.6-8.75c0-.94,0-1.83-.09-2.69s-.1-2-.06-2.81a4,4,0,0,1,1.12-3.08c1.2-1.11,3.68-1.72,7.52-1.86H275.7l1.69.1.43,0h.07c2.93.17,6.92.43,7.92,1C286.45,121.18,285.6,121.56,285.31,121.69Z"/></g><g id="eyes"><path class="cls-3" d="M200.52,133.92a1.51,1.51,0,0,1-2.09-.33c-3-4.12-7.71-5.65-12.44-6a6.73,6.73,0,0,1,1.89,4.7,6.82,6.82,0,1,1-12.5-3.75,42.08,42.08,0,0,0-5.14,1.44,1.5,1.5,0,1,1-1-2.81,48.56,48.56,0,0,1,12.1-2.54c8.92-.66,15.67,1.81,19.55,7.14A1.5,1.5,0,0,1,200.52,133.92Z"/><path class="cls-3" d="M271.87,131.93a1.5,1.5,0,0,1-2.09.37,22.33,22.33,0,0,0-12.73-4.14,6.43,6.43,0,0,1,1.53,5h0a6.2,6.2,0,0,1-6,5.54,5.32,5.32,0,0,1-.69,0,5.76,5.76,0,0,1-3.87-2.22,6.47,6.47,0,0,1-1.28-4.76,6.14,6.14,0,0,1,.37-1.49l-.5.25a1.5,1.5,0,0,1-1.46-2.62,25.67,25.67,0,0,1,26.34,2A1.51,1.51,0,0,1,271.87,131.93Z"/></g><g id="eyebrows"><path class="cls-3" d="M205.3,105.64l-.47.53-.65-.26c-25.49-10-54.8,1.6-55.09,1.72l-.83-1.82C177,91,204.33,100.35,204.6,100.44l.16.06.13.11a3.27,3.27,0,0,1,1.33,2.31A4,4,0,0,1,205.3,105.64Z"/><path class="cls-3" d="M279.05,113.29l-.57-.55-.06,0-1.23-1.18a20.3,20.3,0,0,0-10.05-4.82c-11.7-2.47-26.17,1.36-26.36,1.41l-.71.19-.39-.61a3.76,3.76,0,0,1-.56-2.85,2.41,2.41,0,0,1,1.46-1.53l.2-.06c.8-.16,14.67-2.76,26.19-.12,4.54,1,8.72,2.88,11.59,6l.19.21,0,0v.07Z"/></g><path id="hair_color" class="cls-3" d="M309.46,28.59l-.82-1.73-.95,1.67a22.71,22.71,0,0,1-14.51,11.09c-21.16,5.5-52.3-13.1-52.59-13.28C218.36,12.14,190.36,7.84,190,7.8,146.55,3.54,129,21.43,125,26.51,122,21,122,15.58,125,10.33a23.81,23.81,0,0,1,6.15-6.93L136.05,0l-5.71,1.62c-16.1,4.58-19.7,19.57-20.5,26.13-12.69-8.86-27.91,1.49-28.07,1.6l-3,2.11,3.69-.29c10.46-.83,17.89.93,21.47,5.08a10.66,10.66,0,0,1,2.47,7.39c-5.26-2.57-13.48,1.08-13.86,1.25L87,47.41,93,46.8c4.88-.49,6.88,1.75,7.5,2.68-18.89,34.43-2.14,77.5-2,77.93l.32.8.71-.16c6.16-5.86,18.72,4.27,18.72,4.27l.29,1,1,.62c2.14,1.4,3.49,2.5,3.53,2.53l6.89,5.65-5.46-7c-.35-.45-.69-.91-1-1.36s-.6-.84-.88-1.25h0c-.3-.44-.58-.87-.84-1.3s-.54-.86-.78-1.28l-.08-.13a.17.17,0,0,1,0-.05c-.15-.24-.29-.48-.41-.72s-.27-.48-.39-.71-.33-.61-.48-.91c-.52-1-1-2-1.37-2.86l1.46-.27c.25.24.51.47.77.69s.51.45.77.67c.77.66,1.54,1.27,2.31,1.85q1.55,1.17,3,2.13l1.46.92.72.43.69.4.68.38.66.36.57.3,1.08.55a47.11,47.11,0,0,0,4.66,2l.24.08.08,0,5.4,1.8-4.47-3.54a21.93,21.93,0,0,1-1.77-1.56c-.19-.17-.38-.36-.56-.55s-.61-.64-.89-1-.45-.51-.66-.78-.33-.41-.48-.62a9.3,9.3,0,0,1-.59-.81.13.13,0,0,1,0-.06c-.17-.23-.33-.47-.48-.71s-.27-.4-.39-.6-.27-.43-.39-.65-.27-.45-.39-.68-.22-.39-.31-.58-.28-.52-.4-.78-.26-.52-.38-.79-.25-.53-.36-.8c-.25-.57-.49-1.14-.71-1.73s-.39-1.07-.57-1.62l-.06-.16q-.25-.78-.48-1.56c-.05-.16-.09-.32-.13-.49-.15-.51-.29-1-.41-1.53s-.22-.92-.32-1.39a0,0,0,0,0,0,0c-.14-.68-.28-1.37-.4-2.06,0-.09,0-.19,0-.28s0-.17,0-.25c-.06-.35-.12-.7-.17-1.05,0-.09,0-.17,0-.26-.09-.57-.16-1.15-.23-1.73l0-.26c-.17-1.4-.29-2.81-.38-4.23,0-.73-.09-1.45-.11-2.18s-.05-1.43-.06-2.14a118.38,118.38,0,0,1,.69-14c0-.49.1-1,.16-1.45s.11-1,.17-1.42l.12-.92c.08-.61.17-1.2.25-1.79,0-.29.09-.57.13-.86.08-.57.17-1.12.26-1.66s.18-1.06.26-1.56c.18-1,.35-2,.52-2.83.08-.43.17-.84.25-1.24s.15-.77.23-1.12c0-.17.07-.34.11-.51.08-.4.17-.76.24-1.09a48.34,48.34,0,0,0,3.76,4.56C144,85.14,160.73,93.23,161.56,93.62l4.72,2.26-2.75-3-.8-.87c-8.68-9.38-11.36-18.3-12.17-23.45a0,0,0,0,0,0,0,2.79,2.79,0,0,1-.1-.69c-.07-.58-.13-1.09-.16-1.55l1.2,1.06c28.89,24.9,76.56,25.63,77,25.63a118.48,118.48,0,0,0,32.21-2.14,91.2,91.2,0,0,0,16.7-5.18c.45-.19.89-.38,1.32-.58a.05.05,0,0,0,0,0c9.69-4.31,14.42-8.71,14.62-8.9C319.82,51.38,309.57,28.82,309.46,28.59ZM100.13,125.28s-7.48-11-5.5-38.09c0,0,1.76,30.39,9.91,38.31Zm22.29-6c-5.21-4.84-32.53-32.61-9.74-64,0,0-15,31.87,10,64,.18.25.38.49.57.74C123.17,119.93,122.88,119.68,122.42,119.26Z"/><g id="hair_highlights"><path class="cls-5" d="M135.57,0S116,10.25,124.92,26.74l-4.51,2.85S113.38,10.75,135.57,0Z"/><path class="cls-5" d="M81.66,30.86s22.27-8.63,28.23,9.7c0,0-3.3,3-3.3,2.86S108,27.24,81.66,30.86Z"/><path class="cls-5" d="M89.91,46.71c-.26.08,8.24-3.86,12.11,1.27l-1.48,1.39S97.08,44.75,89.91,46.71Z"/><path class="cls-5" d="M196.13,40.07s97.1,41.62,110.32-3.74C306.45,36.33,305.56,94.46,196.13,40.07Z"/><path class="cls-5" d="M155.18,49.32s36.33,40.51,96.66,31.93C251.84,81.25,201,84.77,155.18,49.32Z"/><path class="cls-5" d="M139.77,21.36s36.77-16.52,76.62,1.76C216.39,23.12,178.3,11.67,139.77,21.36Z"/><path class="cls-5" d="M143.73,50s3.74,29.73,19.6,43.38C163.33,93.36,139.33,79.26,143.73,50Z"/><path class="cls-5" d="M123.24,120c-.07-.06-.36-.31-.82-.73-5.21-4.84-32.53-32.61-9.74-64,0,0-15,31.87,10,64C122.85,119.5,123.05,119.74,123.24,120Z"/><path class="cls-5" d="M104.54,125.5l-4.41-.22s-7.48-11-5.5-38.09C94.63,87.19,96.39,117.58,104.54,125.5Z"/></g><path id="glasses_frames" class="cls-3" d="M288.65,117.54c-.6-2.22-3.8-2.58-10.38-3h-.06l-.64,0-1.78-.1H245.72c-4.7.17-7.72,1-9.5,2.65a7.15,7.15,0,0,0-2.08,5.16c0,1,0,2,.06,3.09,0,.46.05.94.06,1.43a27.71,27.71,0,0,0-6.1-1.85,37.6,37.6,0,0,0-7.7-.64,46.42,46.42,0,0,0-7.64.74,42.42,42.42,0,0,0-5.31,1.31c0-.33,0-.66.05-1a27.36,27.36,0,0,0,.07-3.11,6.6,6.6,0,0,0-2.5-5.24c-2.07-1.58-5.6-2.39-11.17-2.56H157.83l-2,.1c-8.52.41-12.31.68-13,2.93a11.3,11.3,0,0,0-.29,1.1h-1.84l-3.36,0q-3.34.06-6.69.18l-1.67.08.06.16c.18.55.37,1.08.57,1.62s.46,1.16.71,1.73l.65-.1q3.28-.49,6.57-.93l3.29-.4,1.55-.17A4.17,4.17,0,0,0,145,124.4a9.86,9.86,0,0,1,0,2.36c-.05.57-.1,1.1-.1,1.6l.69,8.83,0,.17C148.28,151,159.27,151,162.88,151h29.39a13.65,13.65,0,0,0,10.78-4.94,15.73,15.73,0,0,0,3.68-9.24l.67-8.16c1.92-.37,3.89-.66,5.84-.89a70.77,70.77,0,0,1,7.26-.47,54.18,54.18,0,0,1,7.21.4l1.79.25c.59.1,1.17.24,1.76.35a27.6,27.6,0,0,1,3.11.75l.52,7.69c.17,6,4.09,14.26,12.29,14.26h24.47c8.34,0,13.12-4.48,14.61-13.71l.59-9c0-.47,0-1-.08-1.58a11.25,11.25,0,0,1,0-2.46C288.29,123.54,289.76,121.73,288.65,117.54Zm-84.09,7.63c-.05.86-.1,1.76-.1,2.7l-.72,8.82c-.13,3.78-3.16,11.51-11.78,11.34H162.88c-5.63,0-12.33-1.27-14.28-11.16l-.67-8.57c0-.38,0-.83.08-1.29.16-1.93.38-4.58-1.75-5.36-.51-.19-1.43-.53-.7-3,1.23-.66,6.5-.91,10.38-1.1l2-.09h36c4.8.14,7.87.78,9.39,1.94a3.59,3.59,0,0,1,1.34,3A27,27,0,0,1,204.56,125.17Zm80.75-3.48c-1.85.81-1.68,3.2-1.53,5.3,0,.49.07,1,.07,1.27l-.57,8.65c-.89,5.51-3,11.12-11.63,11.12H247.43c-6.3.14-9.41-6.67-9.54-11.4l-.6-8.75c0-.94,0-1.83-.09-2.69s-.1-2-.06-2.81a4,4,0,0,1,1.12-3.08c1.2-1.11,3.68-1.72,7.52-1.86H275.7l1.69.1.43,0h.07c2.93.17,6.92.43,7.92,1C286.45,121.18,285.6,121.56,285.31,121.69Z"/><g id="shirt"><path class="cls-6" d="M181.07,371.74l-116.13-.08H61.67l-59.8,0c-.13-65.46,8.21-83.28,8.21-83.28C15.32,275.17,35,264.27,35,264.27c3.14-4,64.7-16.28,68.73-17.09.86,6.79,4.67,30.56,17.79,32.8,4.27-11.14,5.65-11.62,11.91-18.67.95-1.07,2.38.11,3.31,1.19,2.76,3.21,4.1,8.28,7.3,8.19,7-.21,26.39,15.56,33.71,26.16C179,305.83,182.84,332,181.07,371.74Z"/><path class="cls-6" d="M253.45,258.43l-4.93-1.32C250.21,257.51,251.86,258,253.45,258.43Z"/><path class="cls-6" d="M191,268.18a97.13,97.13,0,0,0-11.2,27.88c2.2-11.71,7.72-40.51,9.67-44.21a1.45,1.45,0,0,1,.1-.18,1,1,0,0,1,.06.25C189.9,254,191,268.18,191,268.18Z"/><path class="cls-6" d="M201.33,256.24l-.07,0-5.48-10.7L194.46,243l-.11-.22.07,0,.12.23C196.44,246.71,199.06,251.85,201.33,256.24Z"/><path class="cls-6" d="M284.91,293.81c-2.64-11.6-6.85-18.95-10.79-23.55C279.26,275.76,283,283.28,284.91,293.81Z"/><path class="cls-6" d="M177.66,295.25l-.17-.24c-.14-.21-.28-.41-.43-.61-.91-1.32-2-2.75-3.2-4.25l0,0c-8.71-10.76-23.78-24.63-29.79-24.45-3.2.09-4.82-3.31-7.58-6.51-.93-1.09-2.6-2.89-3.41-1.71-5.66,8.28-8.27,11.79-13.94,20.07l0,0c-.14.1-.61-.27-1.21-.85a55.9,55.9,0,0,1-3.8-4.29l-.06-.09c-.21-.32-.41-.64-.61-1l-.06-.1-.29-.52c-.13-.22-.25-.44-.37-.66l-.42-.81c-.65-1.31-1.22-2.65-1.75-4l-.51-1.38a66.62,66.62,0,0,1-2.65-9.73c0-.13,0-.27-.07-.4s-.08-.35-.11-.53c-.23-1.25-.43-2.51-.61-3.77-.09-.62-.21-1.25-.33-1.9l0-.17c-.12-.64-.22-1.28-.28-1.91a8.48,8.48,0,0,1-.07-1.11c0-.05,0-.09,0-.12s0-.06,0-.08,0-.07,0-.09l2.4-2.54-.13.11.13-.14,22.53-23.77c4.34-5,10.92-3.29,10.92-3.29a21.32,21.32,0,0,0-1.28,2.64c-.14.35-.28.71-.4,1.07l0,.09c-.09.25-.18.51-.25.77l-.06.21-.06.19c-.09.31-.17.62-.24.94-.16.66-.3,1.33-.41,2h0c-.09.58-.16,1.14-.22,1.72a.22.22,0,0,1,0,.08s0,.08,0,.12,0,.12,0,.18,0,.11,0,.17,0,.06,0,.09,0,.24,0,.35v.05a.28.28,0,0,1,0,.09v.07a.66.66,0,0,1,0,.14v0c0,.15,0,.3,0,.45v.07c0,.76,0,1.53,0,2.29,0,.23,0,.47,0,.7a32.1,32.1,0,0,0,.4,3.68,38.66,38.66,0,0,0,3.22,10.59s0,0,0,0,0,0,0,.05a.11.11,0,0,0,0,.07s0,0,0,0a1.11,1.11,0,0,0,.07.16.77.77,0,0,0,.07.16.51.51,0,0,0,.07.15l0,.07,0,.05a0,0,0,0,1,0,0,1,1,0,0,1,.07.15v0h0c.06.14.14.27.21.41s0,0,0,.06l.06.11.11.21,0,.05c.17.29.34.58.53.86l0,0,.11.17.15.21,1.59,2.19,1,1.34.08.1.28.4.37.5q.21.27.39.54l.62.85,1.07,1.49q.18.22.33.45c2.38,3.32,4.74,6.66,7.13,10,.28.39.55.76.81,1.14,2.87,4.09,5.68,8.24,8.57,12.32l.55.81c1.81,2.71,3.66,5.5,5.46,8.25.45.69.92,1.39,1.41,2.09.05.08.1.16.16.24a.18.18,0,0,1,.05.08.42.42,0,0,1,.08.12l.23.35.12.18h0c1.07,1.56,2.11,3.15,3,4.77l.16.27a.75.75,0,0,1,.07.12v0Z"/><path class="cls-6" d="M108.23,241.5l-2.4,2.54v0l2.27-2.4Z"/><path class="cls-6" d="M140.06,237c-.05-.18-.11-.36-.16-.55h0Z"/><path class="cls-6" d="M141.43,241.11c-.07-.17-.13-.34-.2-.52,0,0,0,0,0,0s0,0,0,0C141.3,240.77,141.37,240.94,141.43,241.11Z"/><path class="cls-6" d="M141.69,241.77a3.45,3.45,0,0,1-.14-.34.14.14,0,0,0,0-.06l0,0C141.6,241.54,141.64,241.66,141.69,241.77Z"/><path class="cls-6" d="M142.31,243.25l0,0s0,0,0,0l-.19-.45-.06-.15.08.17.08.2Z"/><path class="cls-6" d="M142.63,244l0-.05,0-.07a.13.13,0,0,1,0,0Z"/><path class="cls-6" d="M143.21,245.15l0,0-.11-.23a.42.42,0,0,1-.06-.14l.11.21Z"/><path class="cls-6" d="M159.93,268.57c-.74-1.06-1.52-2.15-2.32-3.29-.26-.38-.53-.75-.81-1.14q-2-2.89-4.33-6.09l-.88-1.22c-.09-.14-.19-.27-.29-.41l-.6-.84a1.13,1.13,0,0,0-.1-.13l-.93-1.29q-.15-.22-.33-.45l-1.07-1.49-.62-.85q-.18-.27-.39-.54l-.37-.5-.28-.4-.08-.1-1-1.34L144,246.3l-.15-.21-.42-.57h0v0h0l.29.39,0,0q1.92,2.61,3.69,5.06l1.52,2.11q2.24,3.09,4.26,5.92c.36.5.71,1,1,1.47Q157.32,264.83,159.93,268.57Z"/><path class="cls-6" d="M167.13,279l-.4-.57-.55-.81q-1.68-2.46-3.64-5.29a4.68,4.68,0,0,1-.27-.4C164.07,274.5,165.69,276.84,167.13,279Z"/><path class="cls-6" d="M173.29,288.25c-.06-.07-.1-.15-.15-.22l-.5-.76-1.27-1.93c-.13-.21-.27-.42-.42-.64l-.14-.22-.74-1.11-.95-1.42-.49-.74-.52-.76c-.15-.22-.29-.44-.43-.66.25.36.49.72.72,1.07l.27.39c1.53,2.28,2.85,4.27,4,6Z"/><path class="cls-6" d="M173.76,289c-.06-.08-.11-.16-.16-.24l-.07-.12.08.12A1.58,1.58,0,0,1,173.76,289Z"/><path class="cls-6" d="M175.09,291.07l-.18-.29.09.13A.83.83,0,0,1,175.09,291.07Z"/><path class="cls-6" d="M175.43,291.6l-.09-.13-.24-.39.24.37Z"/><path class="cls-6" d="M176.4,293.15l-.15-.22a.41.41,0,0,0-.05-.09C176.28,293,176.34,293.05,176.4,293.15Z"/><path class="cls-6" d="M177.92,295.65a.76.76,0,0,0-.08-.11l-.06-.1,0-.06-.08-.13-.18-.31-.07-.12c-.08-.14-.17-.29-.28-.46l-.15-.25c-.11-.18-.22-.35-.33-.55.23.35.42.67.59.94l.16.27a.75.75,0,0,1,.07.12v0c.12.19.22.35.3.5Z"/><path class="cls-6" d="M269.28,266.92c-5.27-2.92-20.88-9.51-67-22.08l-.37-.1-1.31-.35-6.2-1.64.12.23c1.9,3.73,4.52,8.87,6.79,13.26,1.5,2.9,2.84,5.48,3.72,7.12,0,0,4.17,10.07,1.61,8.09a4.66,4.66,0,0,1-.45-.4c-.09-.09-5.54-8-5.54-8l-6.91-9.46-2-2.79s-.72-4.5-2.23-10.17c-1.63-6.11-4.17-13.58-7.68-18.26h0a16,16,0,0,0-2.24-1.55c-1,.89-4.38,4.53-3,13.36,0,.28.09.57.14.86,0,0,.19.95.45,3h0l.17.12-.15,0c.24,1.83.54,4.5.83,8.14.77,9.61,1.49,25.95.85,51v.2l0-.13c.11.39.22.8.33,1.22l0,.09c5.28,20.6,3.4,68.49,3.2,73.05l71.18.05h23.67C278.13,366.92,290.56,289.13,269.28,266.92Zm-89.52,29.14c2.2-11.71,7.72-40.51,9.67-44.21a1.45,1.45,0,0,1,.1-.18,1,1,0,0,1,.06.25c.31,2.07,1.37,16.26,1.37,16.26A97.13,97.13,0,0,0,179.76,296.06Z"/><path class="cls-6" d="M177.19,238.09h0l-.11-.09Z"/><path class="cls-6" d="M177.19,238.09h0l-.11-.09Z"/><path class="cls-6" d="M177.36,238.22l-.15,0s0-.05,0-.08Z"/></g><g id="shirt_shade"><path class="cls-7" d="M176.67,298.37a3,3,0,0,1-2.19,3.15,2.94,2.94,0,0,1-.51.05,2.78,2.78,0,0,1-1.82-.72,4.07,4.07,0,0,1-1.24-2.18,4,4,0,0,1,.23-2.5A2.72,2.72,0,0,1,173,294.6c1.58-.34,3.16.91,3.58,2.85A4.18,4.18,0,0,1,176.67,298.37Z"/><path class="cls-7" d="M179.39,334.88c0,1.95-1.32,3.54-2.94,3.54s-2.93-1.59-2.93-3.54,1.32-3.54,2.93-3.54S179.39,332.93,179.39,334.88Z"/><path class="cls-7" d="M179.11,368.29c0,1.95-1.31,3.53-2.93,3.53s-2.93-1.58-2.93-3.53,1.31-3.54,2.93-3.54S179.11,366.34,179.11,368.29Z"/><path class="cls-7" d="M133.05,251.28s-9.65-38.85,7.79-36.36l-.08.7S128.54,215.62,133.05,251.28Z"/><path class="cls-7" d="M277.33,371.8c.8-4.88,13.23-82.67-8.05-104.88-5.27-2.92-20.88-9.51-67-22.08l12.44,3.29,1.17.31,2.93.78,1.76.47,6.49,1.72,1.93.52,2.25.59,2.21.59,8.48,2.26,1.76.47,3.28.87,1.51.4h0l4.93,1.32.36.1.25.07a55.41,55.41,0,0,1,11.42,4.85l0,0a19.7,19.7,0,0,1,3.48,2l.05,0a29.73,29.73,0,0,1,5.05,4.72l0,0c3.94,4.6,8.15,11.95,10.79,23.55v0a122.39,122.39,0,0,1,2.66,28.35l1.5,50.24L277.29,372S277.3,372,277.33,371.8Z"/><path class="cls-7" d="M61.68,371.84c-.32-1.83,1.62-33.77,1.62-33.77S65,371.84,65,371.85A31.51,31.51,0,0,1,61.68,371.84Z"/><path class="cls-7" d="M253.66,371.84c-.32-1.83,1.62-33.77,1.62-33.77s1.67,33.77,1.65,33.78A31.51,31.51,0,0,1,253.66,371.84Z"/><path class="cls-7" d="M206.66,271.45a4.66,4.66,0,0,1-.45-.4c-.09-.09-5.54-8-5.54-8l-6.91-9.46-2-2.79s-.72-4.5-2.23-10.17c-1.63-6.11-4.17-13.58-7.68-18.26h0l.06,0c.72.38,4.81,3,10,15.32l2.52,5-.07,0,.11.22,1.32,2.57,5.48,10.7.07,0c1.5,2.9,2.84,5.48,3.72,7.12C205.05,263.36,209.22,273.43,206.66,271.45Z"/><path class="cls-7" d="M191,268.18a97.13,97.13,0,0,0-11.2,27.88c2.2-11.71,7.72-40.51,9.67-44.21a1.45,1.45,0,0,1,.1-.18,1,1,0,0,1,.06.25C189.9,254,191,268.18,191,268.18Z"/><path class="cls-7" d="M182.48,371.74h-1.41c1.77-39.71-2-65.91-3.32-74.89-7.32-10.6-26.75-26.37-33.71-26.16-3.2.09-4.54-5-7.3-8.19-.93-1.08-2.36-2.26-3.31-1.19-6.26,7.05-7.64,7.53-11.91,18.67-13.12-2.24-16.93-26-17.79-32.8C99.7,248,38.14,260.3,35,264.27c0,0-19.68,10.9-24.92,24.07,0,0-8.34,17.82-8.21,83.28v.1L0,372c.14-.29-1.84-66.12,11.46-91.32a33.56,33.56,0,0,1,2.66-3.3l0-.06C27,260.86,52.47,257.17,52.71,257L71,253.09H71l5.86-1.41c1.85-.51,15.14-3.25,22.32-4.72l.29-.06,4.07-.92-.06-.54,4.58-3.82-2.27,2.4v0s0,.05,0,.09,0,.05,0,.08,0,.07,0,.12a8.48,8.48,0,0,0,.07,1.11c.06.63.16,1.27.28,1.91l0,.17c.16,1.15.37,2.53.64,4.07.07.34.13.68.19,1,0,.19.08.38.11.57s.07.35.11.53,0,.27.07.4a66.62,66.62,0,0,0,2.65,9.73l.51,1.38.12.34c.13.32.25.64.38.95.38.94.8,1.85,1.25,2.73.13.28.27.54.42.81l.36.67.3.51.06.1c.19.33.39.65.61,1l.06.09a17.83,17.83,0,0,0,3.8,4.29c.6.58,1.07.95,1.23.86,5.67-8.28,8.28-11.79,13.94-20.07.81-1.18,2.48.62,3.41,1.71,2.76,3.2,4.38,6.6,7.58,6.51,3.8-.11,7.88,3.34,10.68,5.51a114,114,0,0,1,13.44,12.46,103.72,103.72,0,0,1,9.76,12q-2.65-4.38-5.44-8.65-1.39-2.14-2.82-4.26a25.74,25.74,0,0,0-2.53-3.73c-1.44-2.14-3.06-4.48-4.86-7.07l-.44-.62-.35-.51-.1-.14c-3.24-4.74-6.49-9.48-10-14.05s-7.24-9.49-9.63-14.95a38.4,38.4,0,0,1-3.18-14c-.1-3.08.23-6.34,2-8.84-2,6.8-.89,14.22,1.81,20.77s6.9,12.36,11.24,18c7.71,10,15.26,20.16,21.35,31.21.85,1.54,1.67,3.1,2.37,4.71.16.36.3.7.42,1v-.35c0-6.42-.14-31.61-1.66-48.9-.34-3.87-.75-7.34-1.24-10.12a20.13,20.13,0,0,1-.74-3.88.2.2,0,0,0,0-.07,23,23,0,0,1-.07-3.26c0-.19,0-.39,0-.59s.07-.6.11-.9.09-.6.14-.92.11-.52.17-.78c0,0,0-.06,0-.09a14.88,14.88,0,0,1,1.43-3.69,12.93,12.93,0,0,1,1-1.62l2.91,1.35a3.18,3.18,0,0,0-.3.23c-1,.89-4.38,4.53-3,13.36,0,.28.09.57.14.86,0,0,.19.95.45,3l-.11-.08.11.09s0,.06,0,.08c.24,1.83.54,4.5.83,8.14.77,9.61,1.49,25.95.85,51v.2l0-.13c.11.39.22.8.33,1.22l0,.09C184.56,319.29,182.68,367.18,182.48,371.74Z"/></g></svg>